<svg width="24" height="24" viewBox="0 0 24 24" fill="none" xmlns="http://www.w3.org/2000/svg">
<g clip-path="url(#clip0_6_1797)">
<path d="M22.6344 0C22.9824 0 23.2968 0.129951 23.5776 0.392259C23.8584 0.652161 24 0.957786 24 1.30432V22.6957C24 23.0446 23.8584 23.3478 23.5776 23.6077C23.2944 23.87 22.98 24 22.6344 24H16.5216V14.7398H19.644L20.1 11.0867H16.524V8.70189C16.524 7.51068 17.1312 6.91387 18.3456 6.91387H20.232V3.7782C19.5816 3.65066 18.6504 3.58568 17.436 3.58568C16.0488 3.58568 14.9328 4.00922 14.0856 4.85631C13.236 5.70581 12.8136 6.89221 12.8136 8.41311V11.0867H9.6912V14.7398H12.8136V24H1.3008C0.9528 24 0.6504 23.87 0.3912 23.6077C0.1296 23.3478 0 23.0446 0 22.6957V1.30432C0 0.957786 0.1296 0.652161 0.3912 0.392259C0.6504 0.132357 0.9552 0 1.3008 0H22.6344Z" fill="#2B2B2B"/>
</g>
<defs>
<clipPath id="clip0_6_1797">
<rect width="24" height="24" rx="4" fill="white"/>
</clipPath>
</defs>
</svg>
