<svg width="157" height="52" viewBox="0 0 157 52" fill="none" xmlns="http://www.w3.org/2000/svg">
<rect width="157" height="52" rx="26" fill="#F8F8F8"/>
<path d="M47.2001 26.2598C47.2001 25.4294 47.1253 24.6349 46.9864 23.8708H36.2383V28.2483L42.4283 28.2496C42.1773 29.7061 41.3693 30.9478 40.1313 31.7755V34.6156H43.8159C45.9674 32.6377 47.2001 29.7141 47.2001 26.2598Z" fill="#4285F4"/>
<path d="M40.1324 31.7764C39.1067 32.4635 37.7859 32.8655 36.2407 32.8655C33.2559 32.8655 30.7238 30.8677 29.817 28.1749H26.0161V31.1038C27.8992 34.8154 31.7695 37.3624 36.2407 37.3624C39.3311 37.3624 41.9273 36.3529 43.817 34.6151L40.1324 31.7764Z" fill="#34A853"/>
<path d="M29.4594 26.0022C29.4594 25.2461 29.5862 24.5152 29.8173 23.828V20.8991H26.0164C25.2378 22.4339 24.7998 24.1663 24.7998 26.0022C24.7998 27.8381 25.2392 29.5705 26.0164 31.1053L29.8173 28.1763C29.5862 27.4892 29.4594 26.7583 29.4594 26.0022Z" fill="#FABB05"/>
<path d="M36.2407 19.1369C37.9275 19.1369 39.4379 19.7139 40.6305 20.8415L43.8958 17.6008C41.9126 15.7662 39.3271 14.64 36.2407 14.64C31.7708 14.64 27.8992 17.1869 26.0161 20.8985L29.817 23.8275C30.7238 21.1346 33.2559 19.1369 36.2407 19.1369Z" fill="#E94235"/>
<path d="M71.1534 23.5398C71.0436 23.1951 70.8958 22.8864 70.7102 22.6136C70.5284 22.3371 70.3106 22.1023 70.0568 21.9091C69.803 21.7121 69.5133 21.5625 69.1875 21.4602C68.8655 21.358 68.5114 21.3068 68.125 21.3068C67.4697 21.3068 66.8788 21.4754 66.3523 21.8125C65.8258 22.1496 65.4091 22.6439 65.1023 23.2955C64.7992 23.9432 64.6477 24.7367 64.6477 25.6761C64.6477 26.6193 64.8011 27.4167 65.108 28.0682C65.4148 28.7197 65.8352 29.214 66.3693 29.5511C66.9034 29.8883 67.5114 30.0568 68.1932 30.0568C68.8258 30.0568 69.3769 29.928 69.8466 29.6705C70.3201 29.4129 70.6856 29.0492 70.9432 28.5795C71.2045 28.1061 71.3352 27.5492 71.3352 26.9091L71.7898 26.9943H68.4602V25.5455H73.0341V26.8693C73.0341 27.8466 72.8258 28.6951 72.4091 29.4148C71.9962 30.1307 71.4242 30.6837 70.6932 31.0739C69.9659 31.464 69.1326 31.6591 68.1932 31.6591C67.1402 31.6591 66.2159 31.4167 65.4205 30.9318C64.6288 30.447 64.0114 29.7595 63.5682 28.8693C63.125 27.9754 62.9034 26.9148 62.9034 25.6875C62.9034 24.7595 63.0322 23.9261 63.2898 23.1875C63.5473 22.4489 63.9091 21.822 64.375 21.3068C64.8447 20.7879 65.3958 20.392 66.0284 20.1193C66.6648 19.8428 67.3598 19.7045 68.1136 19.7045C68.7424 19.7045 69.3277 19.7973 69.8693 19.983C70.4148 20.1686 70.8996 20.4318 71.3239 20.7727C71.7519 21.1136 72.1061 21.5189 72.3864 21.9886C72.6667 22.4545 72.8561 22.9716 72.9545 23.5398H71.1534ZM78.8026 31.6761C77.9844 31.6761 77.2704 31.4886 76.6605 31.1136C76.0507 30.7386 75.5772 30.214 75.2401 29.5398C74.9029 28.8655 74.7344 28.0777 74.7344 27.1761C74.7344 26.2708 74.9029 25.4792 75.2401 24.8011C75.5772 24.1231 76.0507 23.5966 76.6605 23.2216C77.2704 22.8466 77.9844 22.6591 78.8026 22.6591C79.6207 22.6591 80.3348 22.8466 80.9446 23.2216C81.5545 23.5966 82.0279 24.1231 82.3651 24.8011C82.7022 25.4792 82.8707 26.2708 82.8707 27.1761C82.8707 28.0777 82.7022 28.8655 82.3651 29.5398C82.0279 30.214 81.5545 30.7386 80.9446 31.1136C80.3348 31.4886 79.6207 31.6761 78.8026 31.6761ZM78.8082 30.25C79.3385 30.25 79.7779 30.1098 80.1264 29.8295C80.4749 29.5492 80.7325 29.1761 80.8991 28.7102C81.0696 28.2443 81.1548 27.7311 81.1548 27.1705C81.1548 26.6136 81.0696 26.1023 80.8991 25.6364C80.7325 25.1667 80.4749 24.7898 80.1264 24.5057C79.7779 24.2216 79.3385 24.0795 78.8082 24.0795C78.2741 24.0795 77.831 24.2216 77.4787 24.5057C77.1302 24.7898 76.8707 25.1667 76.7003 25.6364C76.5336 26.1023 76.4503 26.6136 76.4503 27.1705C76.4503 27.7311 76.5336 28.2443 76.7003 28.7102C76.8707 29.1761 77.1302 29.5492 77.4787 29.8295C77.831 30.1098 78.2741 30.25 78.8082 30.25ZM88.4432 31.6761C87.625 31.6761 86.911 31.4886 86.3011 31.1136C85.6913 30.7386 85.2178 30.214 84.8807 29.5398C84.5436 28.8655 84.375 28.0777 84.375 27.1761C84.375 26.2708 84.5436 25.4792 84.8807 24.8011C85.2178 24.1231 85.6913 23.5966 86.3011 23.2216C86.911 22.8466 87.625 22.6591 88.4432 22.6591C89.2614 22.6591 89.9754 22.8466 90.5852 23.2216C91.1951 23.5966 91.6686 24.1231 92.0057 24.8011C92.3428 25.4792 92.5114 26.2708 92.5114 27.1761C92.5114 28.0777 92.3428 28.8655 92.0057 29.5398C91.6686 30.214 91.1951 30.7386 90.5852 31.1136C89.9754 31.4886 89.2614 31.6761 88.4432 31.6761ZM88.4489 30.25C88.9792 30.25 89.4186 30.1098 89.767 29.8295C90.1155 29.5492 90.3731 29.1761 90.5398 28.7102C90.7102 28.2443 90.7955 27.7311 90.7955 27.1705C90.7955 26.6136 90.7102 26.1023 90.5398 25.6364C90.3731 25.1667 90.1155 24.7898 89.767 24.5057C89.4186 24.2216 88.9792 24.0795 88.4489 24.0795C87.9148 24.0795 87.4716 24.2216 87.1193 24.5057C86.7708 24.7898 86.5114 25.1667 86.3409 25.6364C86.1742 26.1023 86.0909 26.6136 86.0909 27.1705C86.0909 27.7311 86.1742 28.2443 86.3409 28.7102C86.5114 29.1761 86.7708 29.5492 87.1193 29.8295C87.4716 30.1098 87.9148 30.25 88.4489 30.25ZM98.0668 34.9545C97.3736 34.9545 96.777 34.8636 96.277 34.6818C95.7808 34.5 95.3755 34.2595 95.0611 33.9602C94.7467 33.661 94.5118 33.3333 94.3565 32.9773L95.8168 32.375C95.919 32.5417 96.0554 32.7178 96.2259 32.9034C96.4001 33.0928 96.6349 33.2538 96.9304 33.3864C97.2296 33.5189 97.6141 33.5852 98.0838 33.5852C98.7277 33.5852 99.2599 33.428 99.6804 33.1136C100.101 32.803 100.311 32.3068 100.311 31.625V29.9091H100.203C100.101 30.0947 99.9531 30.3011 99.7599 30.5284C99.5705 30.7557 99.3092 30.9527 98.9759 31.1193C98.6425 31.286 98.2088 31.3693 97.6747 31.3693C96.9853 31.3693 96.3641 31.2083 95.8111 30.8864C95.2618 30.5606 94.8262 30.0814 94.5043 29.4489C94.1861 28.8125 94.027 28.0303 94.027 27.1023C94.027 26.1742 94.1842 25.3788 94.4986 24.7159C94.8168 24.053 95.2524 23.5455 95.8054 23.1932C96.3584 22.8371 96.9853 22.6591 97.6861 22.6591C98.2277 22.6591 98.6652 22.75 98.9986 22.9318C99.3319 23.1098 99.5914 23.3182 99.777 23.5568C99.9664 23.7955 100.112 24.0057 100.214 24.1875H100.339V22.7727H102.004V31.6932C102.004 32.4432 101.83 33.0587 101.482 33.5398C101.133 34.0208 100.661 34.3769 100.067 34.608C99.4759 34.839 98.8092 34.9545 98.0668 34.9545ZM98.0497 29.9602C98.5384 29.9602 98.9512 29.8466 99.2884 29.6193C99.6293 29.3883 99.8868 29.0587 100.061 28.6307C100.239 28.1989 100.328 27.6818 100.328 27.0795C100.328 26.4924 100.241 25.9754 100.067 25.5284C99.8925 25.0814 99.6368 24.733 99.2997 24.483C98.9626 24.2292 98.5459 24.1023 98.0497 24.1023C97.5384 24.1023 97.1122 24.2348 96.7713 24.5C96.4304 24.7614 96.1728 25.1174 95.9986 25.5682C95.8281 26.0189 95.7429 26.5227 95.7429 27.0795C95.7429 27.6515 95.83 28.1534 96.0043 28.5852C96.1785 29.017 96.4361 29.3542 96.777 29.5966C97.1217 29.839 97.5459 29.9602 98.0497 29.9602ZM105.982 19.8636V31.5H104.283V19.8636H105.982ZM112.028 31.6761C111.169 31.6761 110.428 31.4924 109.807 31.125C109.189 30.7538 108.712 30.233 108.375 29.5625C108.042 28.8883 107.875 28.0985 107.875 27.1932C107.875 26.2992 108.042 25.5114 108.375 24.8295C108.712 24.1477 109.182 23.6155 109.784 23.233C110.39 22.8504 111.098 22.6591 111.909 22.6591C112.402 22.6591 112.879 22.7405 113.341 22.9034C113.803 23.0663 114.218 23.322 114.585 23.6705C114.953 24.0189 115.242 24.4716 115.455 25.0284C115.667 25.5814 115.773 26.2538 115.773 27.0455V27.6477H108.835V26.375H114.108C114.108 25.928 114.017 25.5322 113.835 25.1875C113.653 24.839 113.398 24.5644 113.068 24.3636C112.742 24.1629 112.36 24.0625 111.92 24.0625C111.443 24.0625 111.027 24.1799 110.67 24.4148C110.318 24.6458 110.045 24.9489 109.852 25.3239C109.663 25.6951 109.568 26.0985 109.568 26.5341V27.5284C109.568 28.1117 109.67 28.608 109.875 29.017C110.083 29.4261 110.373 29.7386 110.744 29.9545C111.116 30.1667 111.549 30.2727 112.045 30.2727C112.367 30.2727 112.661 30.2273 112.926 30.1364C113.191 30.0417 113.42 29.9015 113.614 29.7159C113.807 29.5303 113.955 29.3011 114.057 29.0284L115.665 29.3182C115.536 29.7917 115.305 30.2064 114.972 30.5625C114.642 30.9148 114.227 31.1894 113.727 31.3864C113.231 31.5795 112.665 31.6761 112.028 31.6761ZM123.011 31.5H121.148L125.335 19.8636H127.364L131.551 31.5H129.688L126.398 21.9773H126.307L123.011 31.5ZM123.324 26.9432H129.369V28.4205H123.324V26.9432ZM134.987 19.8636V31.5H133.232V19.8636H134.987Z" fill="#101828"/>
</svg>
