<svg width="119" height="52" viewBox="0 0 119 52" fill="none" xmlns="http://www.w3.org/2000/svg">
<rect width="119" height="52" rx="26" fill="#A259FF"/>
<g clip-path="url(#clip0_6_1628)">
<path d="M32.36 30.3867L42.9973 22.524C43.5187 22.1373 44.264 22.288 44.5133 22.8867C45.82 26.0453 45.236 29.84 42.6333 32.4453C40.032 35.0507 36.4107 35.6213 33.1013 34.32L29.4867 35.996C34.672 39.544 40.968 38.6667 44.9027 34.7253C48.024 31.6 48.9907 27.34 48.0867 23.4987L48.0947 23.508C46.784 17.8653 48.4173 15.6093 51.7613 10.9973C51.8413 10.888 51.9213 10.7787 52 10.6667L47.5987 15.0733V15.06L32.36 30.3867ZM30.164 32.2973C26.4413 28.7373 27.084 23.2293 30.2587 20.052C32.6067 17.7013 36.4547 16.7413 39.8133 18.152L43.42 16.4853C42.6704 15.9339 41.8502 15.4855 40.9813 15.152C38.7971 14.258 36.3972 14.0299 34.0836 14.4963C31.77 14.9627 29.6459 16.1029 27.9787 17.7733C24.6013 21.1547 23.5387 26.3547 25.3627 30.792C26.7253 34.108 24.492 36.4533 22.2427 38.8213C21.444 39.6613 20.644 40.5 20 41.388L30.164 32.2973Z" fill="white"/>
</g>
<path d="M71.1534 23.5398C71.0436 23.1951 70.8958 22.8864 70.7102 22.6136C70.5284 22.3371 70.3106 22.1023 70.0568 21.9091C69.803 21.7121 69.5133 21.5625 69.1875 21.4602C68.8655 21.358 68.5114 21.3068 68.125 21.3068C67.4697 21.3068 66.8788 21.4754 66.3523 21.8125C65.8258 22.1496 65.4091 22.6439 65.1023 23.2955C64.7992 23.9432 64.6477 24.7367 64.6477 25.6761C64.6477 26.6193 64.8011 27.4167 65.108 28.0682C65.4148 28.7197 65.8352 29.214 66.3693 29.5511C66.9034 29.8883 67.5114 30.0568 68.1932 30.0568C68.8258 30.0568 69.3769 29.928 69.8466 29.6705C70.3201 29.4129 70.6856 29.0492 70.9432 28.5795C71.2045 28.1061 71.3352 27.5492 71.3352 26.9091L71.7898 26.9943H68.4602V25.5455H73.0341V26.8693C73.0341 27.8466 72.8258 28.6951 72.4091 29.4148C71.9962 30.1307 71.4242 30.6837 70.6932 31.0739C69.9659 31.464 69.1326 31.6591 68.1932 31.6591C67.1402 31.6591 66.2159 31.4167 65.4205 30.9318C64.6288 30.447 64.0114 29.7595 63.5682 28.8693C63.125 27.9754 62.9034 26.9148 62.9034 25.6875C62.9034 24.7595 63.0322 23.9261 63.2898 23.1875C63.5473 22.4489 63.9091 21.822 64.375 21.3068C64.8447 20.7879 65.3958 20.392 66.0284 20.1193C66.6648 19.8428 67.3598 19.7045 68.1136 19.7045C68.7424 19.7045 69.3277 19.7973 69.8693 19.983C70.4148 20.1686 70.8996 20.4318 71.3239 20.7727C71.7519 21.1136 72.1061 21.5189 72.3864 21.9886C72.6667 22.4545 72.8561 22.9716 72.9545 23.5398H71.1534ZM75.1264 31.5V22.7727H76.7685V24.1591H76.8594C77.0185 23.6894 77.2988 23.3201 77.7003 23.0511C78.1056 22.7784 78.5639 22.642 79.0753 22.642C79.1813 22.642 79.3063 22.6458 79.4503 22.6534C79.598 22.661 79.7135 22.6705 79.7969 22.6818V24.3068C79.7287 24.2879 79.6075 24.267 79.4332 24.2443C79.259 24.2178 79.0848 24.2045 78.9105 24.2045C78.509 24.2045 78.151 24.2898 77.8366 24.4602C77.526 24.6269 77.2798 24.8598 77.098 25.1591C76.9162 25.4545 76.8253 25.7917 76.8253 26.1705V31.5H75.1264ZM84.6307 31.6761C83.8125 31.6761 83.0985 31.4886 82.4886 31.1136C81.8788 30.7386 81.4053 30.214 81.0682 29.5398C80.7311 28.8655 80.5625 28.0777 80.5625 27.1761C80.5625 26.2708 80.7311 25.4792 81.0682 24.8011C81.4053 24.1231 81.8788 23.5966 82.4886 23.2216C83.0985 22.8466 83.8125 22.6591 84.6307 22.6591C85.4489 22.6591 86.1629 22.8466 86.7727 23.2216C87.3826 23.5966 87.8561 24.1231 88.1932 24.8011C88.5303 25.4792 88.6989 26.2708 88.6989 27.1761C88.6989 28.0777 88.5303 28.8655 88.1932 29.5398C87.8561 30.214 87.3826 30.7386 86.7727 31.1136C86.1629 31.4886 85.4489 31.6761 84.6307 31.6761ZM84.6364 30.25C85.1667 30.25 85.6061 30.1098 85.9545 29.8295C86.303 29.5492 86.5606 29.1761 86.7273 28.7102C86.8977 28.2443 86.983 27.7311 86.983 27.1705C86.983 26.6136 86.8977 26.1023 86.7273 25.6364C86.5606 25.1667 86.303 24.7898 85.9545 24.5057C85.6061 24.2216 85.1667 24.0795 84.6364 24.0795C84.1023 24.0795 83.6591 24.2216 83.3068 24.5057C82.9583 24.7898 82.6989 25.1667 82.5284 25.6364C82.3617 26.1023 82.2784 26.6136 82.2784 27.1705C82.2784 27.7311 82.3617 28.2443 82.5284 28.7102C82.6989 29.1761 82.9583 29.5492 83.3068 29.8295C83.6591 30.1098 84.1023 30.25 84.6364 30.25ZM92.1577 28.5398L92.1463 26.4659H92.4418L95.919 22.7727H97.9531L93.9872 26.9773H93.7202L92.1577 28.5398ZM90.5952 31.5V19.8636H92.294V31.5H90.5952ZM96.1065 31.5L92.9815 27.3523L94.152 26.1648L98.1918 31.5H96.1065Z" fill="white"/>
<defs>
<clipPath id="clip0_6_1628">
<rect width="32" height="32" fill="white" transform="translate(20 10)"/>
</clipPath>
</defs>
</svg>
