<svg width="24" height="24" viewBox="0 0 24 24" fill="none" xmlns="http://www.w3.org/2000/svg">
<g clip-path="url(#clip0_6_1804)">
<path d="M12 0C5.37328 0 0 5.37328 0 12C0 18.6267 5.37328 24 12 24C18.6267 24 24 18.6267 24 12C24 5.37328 18.6267 0 12 0ZM9.06703 17.0009H6.63281V9.1493H9.06703V17.0009ZM7.83211 8.21789C7.41896 8.27882 6.99842 8.17474 6.66138 7.92813C6.32435 7.68152 6.09789 7.31219 6.03095 6.89997C5.96401 6.48775 6.06196 6.06574 6.30363 5.72515C6.54531 5.38456 6.9113 5.15274 7.3225 5.07981C7.73371 5.00687 8.1571 5.09866 8.50117 5.33535C8.84524 5.57204 9.08236 5.93462 9.16128 6.34472C9.2402 6.75481 9.15458 7.1795 8.92292 7.52698C8.69127 7.87446 8.33219 8.11684 7.92328 8.20172C7.89117 8.20172 7.86164 8.19914 7.82953 8.19633L7.83211 8.21789ZM17.9337 17.0009H15.4983V12.6649C15.4983 11.6658 15.15 10.9962 14.2662 10.9962C13.9903 10.9995 13.7224 11.0884 13.4992 11.2506C13.2761 11.4128 13.1088 11.6402 13.0205 11.9016C12.9804 12.1059 12.9804 12.316 13.0205 12.5203L13.0179 16.9908H10.5187V9.15H12.6349L12.7521 10.2321C13.0152 9.83314 13.3756 9.50774 13.7993 9.28656C14.2229 9.06538 14.6959 8.95571 15.1737 8.96789C16.8377 8.96789 17.97 10.0338 17.97 12.3C17.9679 12.3 17.933 17.0009 17.933 17.0009H17.9337Z" fill="#2B2B2B"/>
</g>
<defs>
<clipPath id="clip0_6_1804">
<rect width="24" height="24" fill="white"/>
</clipPath>
</defs>
</svg>
