<svg width="159" height="52" viewBox="0 0 159 52" fill="none" xmlns="http://www.w3.org/2000/svg">
<rect width="159" height="52" rx="26" fill="#1A73E8"/>
<path d="M48.2004 20.2387H45.4894V12L36.6785 19.4554V12.1056H35.3217V19.3754L27.1886 11.92V20.2387H23.7998V32.4384H27.188V40.08L35.3224 32.6176V39.8931H36.6779V32.7987L44.8116 40.0512V32.4384H48.1998V20.24L48.2004 20.2387ZM44.1332 14.9229V20.2374H37.8504L44.1332 14.9222V14.9229ZM28.5448 15.001L34.2574 20.2387H28.5435V15.001H28.5448ZM25.156 31.0829V21.5942H34.363L27.1886 28.7686V31.0829H25.1553H25.156ZM28.5448 36.9965V29.3299L35.3217 22.5523V30.7789L28.5441 36.9978V36.9965H28.5448ZM43.4548 37.0259L36.6785 30.983V22.5517L43.4561 29.3293V37.0259H43.4548ZM46.8449 31.0829H44.8116V28.7693L37.6366 21.5942H46.8449V31.0829Z" fill="white"/>
<path d="M63.2784 31.5V19.8636H67.4261C68.3314 19.8636 69.0814 20.0284 69.6761 20.358C70.2708 20.6875 70.7159 21.1383 71.0114 21.7102C71.3068 22.2784 71.4545 22.9186 71.4545 23.6307C71.4545 24.3466 71.3049 24.9905 71.0057 25.5625C70.7102 26.1307 70.2633 26.5814 69.6648 26.9148C69.0701 27.2443 68.322 27.4091 67.4205 27.4091H64.5682V25.9205H67.2614C67.8333 25.9205 68.2973 25.822 68.6534 25.625C69.0095 25.4242 69.2708 25.1515 69.4375 24.8068C69.6042 24.4621 69.6875 24.0701 69.6875 23.6307C69.6875 23.1913 69.6042 22.8011 69.4375 22.4602C69.2708 22.1193 69.0076 21.8523 68.6477 21.6591C68.2917 21.4659 67.822 21.3693 67.2386 21.3693H65.0341V31.5H63.2784ZM77.0284 31.6761C76.1686 31.6761 75.428 31.4924 74.8068 31.125C74.1894 30.7538 73.7121 30.233 73.375 29.5625C73.0417 28.8883 72.875 28.0985 72.875 27.1932C72.875 26.2992 73.0417 25.5114 73.375 24.8295C73.7121 24.1477 74.1818 23.6155 74.7841 23.233C75.3902 22.8504 76.0985 22.6591 76.9091 22.6591C77.4015 22.6591 77.8788 22.7405 78.3409 22.9034C78.803 23.0663 79.2178 23.322 79.5852 23.6705C79.9527 24.0189 80.2424 24.4716 80.4545 25.0284C80.6667 25.5814 80.7727 26.2538 80.7727 27.0455V27.6477H73.8352V26.375H79.108C79.108 25.928 79.017 25.5322 78.8352 25.1875C78.6534 24.839 78.3977 24.5644 78.0682 24.3636C77.7424 24.1629 77.3598 24.0625 76.9205 24.0625C76.4432 24.0625 76.0265 24.1799 75.6705 24.4148C75.3182 24.6458 75.0455 24.9489 74.8523 25.3239C74.6629 25.6951 74.5682 26.0985 74.5682 26.5341V27.5284C74.5682 28.1117 74.6705 28.608 74.875 29.017C75.0833 29.4261 75.3731 29.7386 75.7443 29.9545C76.1155 30.1667 76.5492 30.2727 77.0455 30.2727C77.3674 30.2727 77.661 30.2273 77.9261 30.1364C78.1913 30.0417 78.4205 29.9015 78.6136 29.7159C78.8068 29.5303 78.9545 29.3011 79.0568 29.0284L80.6648 29.3182C80.536 29.7917 80.3049 30.2064 79.9716 30.5625C79.642 30.9148 79.2273 31.1894 78.7273 31.3864C78.2311 31.5795 77.6648 31.6761 77.0284 31.6761ZM82.6577 31.5V22.7727H84.2997V24.1591H84.3906C84.5497 23.6894 84.83 23.3201 85.2315 23.0511C85.6368 22.7784 86.0952 22.642 86.6065 22.642C86.7126 22.642 86.8376 22.6458 86.9815 22.6534C87.1293 22.661 87.2448 22.6705 87.3281 22.6818V24.3068C87.2599 24.2879 87.1387 24.267 86.9645 24.2443C86.7902 24.2178 86.616 24.2045 86.4418 24.2045C86.0402 24.2045 85.6823 24.2898 85.3679 24.4602C85.0573 24.6269 84.8111 24.8598 84.6293 25.1591C84.4474 25.4545 84.3565 25.7917 84.3565 26.1705V31.5H82.6577ZM88.7983 34.7727V22.7727H90.4574V24.1875H90.5994C90.6979 24.0057 90.84 23.7955 91.0256 23.5568C91.2112 23.3182 91.4688 23.1098 91.7983 22.9318C92.1278 22.75 92.5634 22.6591 93.1051 22.6591C93.8097 22.6591 94.4384 22.8371 94.9915 23.1932C95.5445 23.5492 95.9782 24.0625 96.2926 24.733C96.6108 25.4034 96.7699 26.2102 96.7699 27.1534C96.7699 28.0966 96.6127 28.9053 96.2983 29.5795C95.9839 30.25 95.5521 30.767 95.0028 31.1307C94.4536 31.4905 93.8267 31.6705 93.1222 31.6705C92.5919 31.6705 92.1581 31.5814 91.821 31.4034C91.4877 31.2254 91.2263 31.017 91.0369 30.7784C90.8475 30.5398 90.7017 30.3277 90.5994 30.142H90.4972V34.7727H88.7983ZM90.4631 27.1364C90.4631 27.75 90.5521 28.2879 90.7301 28.75C90.9081 29.2121 91.1657 29.5739 91.5028 29.8352C91.84 30.0928 92.2528 30.2216 92.7415 30.2216C93.2491 30.2216 93.6733 30.0871 94.0142 29.8182C94.3551 29.5455 94.6127 29.1761 94.7869 28.7102C94.965 28.2443 95.054 27.7197 95.054 27.1364C95.054 26.5606 94.9669 26.0436 94.7926 25.5852C94.6222 25.1269 94.3646 24.7652 94.0199 24.5C93.679 24.2348 93.2528 24.1023 92.7415 24.1023C92.2491 24.1023 91.8324 24.2292 91.4915 24.483C91.1544 24.7367 90.8987 25.0909 90.7244 25.5455C90.5502 26 90.4631 26.5303 90.4631 27.1364ZM100.372 19.8636V31.5H98.6733V19.8636H100.372ZM106.419 31.6761C105.559 31.6761 104.819 31.4924 104.197 31.125C103.58 30.7538 103.103 30.233 102.766 29.5625C102.432 28.8883 102.266 28.0985 102.266 27.1932C102.266 26.2992 102.432 25.5114 102.766 24.8295C103.103 24.1477 103.572 23.6155 104.175 23.233C104.781 22.8504 105.489 22.6591 106.3 22.6591C106.792 22.6591 107.269 22.7405 107.732 22.9034C108.194 23.0663 108.608 23.322 108.976 23.6705C109.343 24.0189 109.633 24.4716 109.845 25.0284C110.057 25.5814 110.163 26.2538 110.163 27.0455V27.6477H103.226V26.375H108.499C108.499 25.928 108.408 25.5322 108.226 25.1875C108.044 24.839 107.788 24.5644 107.459 24.3636C107.133 24.1629 106.75 24.0625 106.311 24.0625C105.834 24.0625 105.417 24.1799 105.061 24.4148C104.709 24.6458 104.436 24.9489 104.243 25.3239C104.054 25.6951 103.959 26.0985 103.959 26.5341V27.5284C103.959 28.1117 104.061 28.608 104.266 29.017C104.474 29.4261 104.764 29.7386 105.135 29.9545C105.506 30.1667 105.94 30.2727 106.436 30.2727C106.758 30.2727 107.052 30.2273 107.317 30.1364C107.582 30.0417 107.811 29.9015 108.004 29.7159C108.197 29.5303 108.345 29.3011 108.447 29.0284L110.055 29.3182C109.927 29.7917 109.696 30.2064 109.362 30.5625C109.033 30.9148 108.618 31.1894 108.118 31.3864C107.622 31.5795 107.055 31.6761 106.419 31.6761ZM113.186 22.7727L115.112 26.1705L117.055 22.7727H118.913L116.192 27.1364L118.936 31.5H117.078L115.112 28.2386L113.152 31.5H111.288L114.004 27.1364L111.322 22.7727H113.186ZM120.658 31.5V22.7727H122.357V31.5H120.658ZM121.516 21.4261C121.22 21.4261 120.966 21.3277 120.754 21.1307C120.546 20.9299 120.442 20.6913 120.442 20.4148C120.442 20.1345 120.546 19.8958 120.754 19.6989C120.966 19.4981 121.22 19.3977 121.516 19.3977C121.811 19.3977 122.063 19.4981 122.271 19.6989C122.483 19.8958 122.589 20.1345 122.589 20.4148C122.589 20.6913 122.483 20.9299 122.271 21.1307C122.063 21.3277 121.811 21.4261 121.516 21.4261ZM128.716 22.7727V24.1364H123.949V22.7727H128.716ZM125.227 20.6818H126.926V28.9375C126.926 29.267 126.975 29.5152 127.074 29.6818C127.172 29.8447 127.299 29.9564 127.455 30.017C127.614 30.0739 127.786 30.1023 127.972 30.1023C128.108 30.1023 128.227 30.0928 128.33 30.0739C128.432 30.0549 128.511 30.0398 128.568 30.0284L128.875 31.4318C128.777 31.4697 128.636 31.5076 128.455 31.5455C128.273 31.5871 128.045 31.6098 127.773 31.6136C127.326 31.6212 126.909 31.5417 126.523 31.375C126.136 31.2083 125.824 30.9508 125.585 30.6023C125.347 30.2538 125.227 29.8163 125.227 29.2898V20.6818ZM131.669 34.7727C131.415 34.7727 131.184 34.7519 130.976 34.7102C130.768 34.6723 130.612 34.6307 130.51 34.5852L130.919 33.1932C131.23 33.2765 131.506 33.3125 131.749 33.3011C131.991 33.2898 132.205 33.1989 132.391 33.0284C132.58 32.858 132.747 32.5795 132.891 32.1932L133.101 31.6136L129.908 22.7727H131.726L133.936 29.5455H134.027L136.237 22.7727H138.061L134.464 32.6648C134.298 33.1193 134.086 33.5038 133.828 33.8182C133.571 34.1364 133.264 34.375 132.908 34.5341C132.552 34.6932 132.139 34.7727 131.669 34.7727Z" fill="white"/>
</svg>
