<svg width="40" height="40" viewBox="0 0 40 40" fill="none" xmlns="http://www.w3.org/2000/svg">
<path d="M2.5 30.5C2.5 32.3565 4.34374 34.137 7.62563 35.4497C10.9075 36.7625 15.3587 37.5 20 37.5C24.6413 37.5 29.0925 36.7625 32.3744 35.4497C35.6563 34.137 37.5 32.3565 37.5 30.5C37.5 28.6435 35.6563 26.863 32.3744 25.5503C29.0925 24.2375 24.6413 23.5 20 23.5C15.3587 23.5 10.9075 24.2375 7.62563 25.5503C4.34374 26.863 2.5 28.6435 2.5 30.5Z" fill="#7CD0E8"/>
<path d="M20 2.5C26.2824 2.5 31.375 7.75 31.375 14.75C31.375 19.4168 27.5832 25.6922 20 33.577C12.4168 25.6922 8.625 19.4168 8.625 14.75C8.625 7.75 13.7176 2.5 20 2.5Z" fill="#7A49E9"/>
</svg>
