<svg width="178" height="48" viewBox="0 0 178 48" fill="none" xmlns="http://www.w3.org/2000/svg">
<path d="M11.8374 17.9995H32.1239V29.9995H11.8374V17.9995Z" fill="#7a49e9"/>
<path d="M0.06604 0H12.0882V12H0.06604V0Z" fill="#7a49e9"/>
<path d="M35.6307 0H47.6529V12H35.6307V0Z" fill="#7a49e9"/>
<path d="M0.06604 36H12.0882V48H0.06604V36Z" fill="#7a49e9"/>
<path d="M35.6307 36H47.6529V48H35.6307V36Z" fill="#7a49e9"/>
<path d="M0.06604 24H12.0882V36H0.06604V24Z" fill="#7a49e9"/>
<path d="M47.6529 33.4996H35.6307V36H47.6529V33.4996Z" fill="#7a49e9"/>
<path d="M47.6529 12H35.6307V14.4993H47.6529V12Z" fill="#7a49e9"/>
<path d="M0.06604 12H12.0882V24H0.06604V12Z" fill="#7a49e9"/>
<path d="M49.4757 16.18H33.8069V31.82H49.4757V16.18Z" fill="#69C5DF"/>
<path d="M0 17.9995H12.0222V29.9994H0V17.9995Z" fill="#332295"/>
<path d="M58.1448 37.9122C57.8782 37.9122 57.6508 37.8328 57.4637 37.6729C57.2766 37.4862 57.1836 37.2468 57.1836 36.9539V10.9388C57.1836 10.6458 57.2766 10.4065 57.4637 10.2197C57.6508 10.033 57.8771 9.94017 58.1448 9.94017H61.7881C62.0816 9.94017 62.3091 10.033 62.4693 10.2197C62.6564 10.4065 62.7494 10.6458 62.7494 10.9388V21.248H74.5598V10.9388C74.5598 10.6458 74.6528 10.4065 74.8399 10.2197C75.027 10.033 75.2533 9.94017 75.521 9.94017H79.124C79.4175 9.94017 79.6573 10.033 79.8444 10.2197C80.0315 10.4065 80.1245 10.6458 80.1245 10.9388V36.9528C80.1245 37.2189 80.0315 37.4459 79.8444 37.6315C79.6573 37.8172 79.4175 37.9111 79.124 37.9111H75.521C75.2544 37.9111 75.027 37.8183 74.8399 37.6315C74.6528 37.4448 74.5598 37.2189 74.5598 36.9528V26.2432H62.7494V36.9528C62.7494 37.2189 62.6564 37.4459 62.4693 37.6315C62.3091 37.8183 62.0828 37.9111 61.7881 37.9111H58.1448V37.9122Z" fill="#7a49e9"/>
<path d="M89.9127 38.3114C88.5246 38.3114 87.271 38.0453 86.1495 37.5119C85.0281 36.9527 84.1341 36.2203 83.4675 35.3145C82.8266 34.3819 82.5062 33.343 82.5062 32.1979C82.5062 30.3327 83.2535 28.8543 84.748 27.7618C86.2694 26.6424 88.2714 25.8966 90.7529 25.5242L96.238 24.7246V23.8859C96.238 22.7666 95.958 21.901 95.3978 21.2882C94.8376 20.6754 93.8764 20.369 92.5152 20.369C91.554 20.369 90.7675 20.5692 90.1536 20.9684C89.5665 21.3419 89.1262 21.8473 88.8327 22.487C88.6187 22.8337 88.3117 23.007 87.9118 23.007H84.7491C84.4556 23.007 84.2282 22.9276 84.068 22.7677C83.9346 22.6078 83.8674 22.3942 83.8674 22.128C83.8943 21.702 84.068 21.182 84.3884 20.5692C84.7088 19.9564 85.2163 19.3704 85.9098 18.8113C86.6032 18.2253 87.4973 17.7322 88.5918 17.333C89.6864 16.9337 91.0072 16.7336 92.5555 16.7336C94.2371 16.7336 95.651 16.9472 96.7993 17.3732C97.9734 17.7724 98.9078 18.3193 99.6012 19.0115C100.295 19.7037 100.802 20.5166 101.123 21.4492C101.443 22.3819 101.603 23.3671 101.603 24.4059V36.9539C101.603 37.22 101.51 37.447 101.323 37.6326C101.136 37.8183 100.91 37.9122 100.642 37.9122H97.3998C97.1063 37.9122 96.8665 37.8194 96.6794 37.6326C96.5192 37.4459 96.4397 37.22 96.4397 36.9539V35.395C96.0924 35.9016 95.6252 36.3802 95.0382 36.8331C94.4511 37.2591 93.7307 37.6192 92.8759 37.9122C92.048 38.1784 91.061 38.3114 89.9138 38.3114H89.9127ZM91.2728 34.5149C92.2071 34.5149 93.0474 34.3148 93.7946 33.9156C94.5688 33.5163 95.1692 32.9035 95.5961 32.0772C96.0498 31.225 96.2761 30.1593 96.2761 28.8801V28.0414L92.2732 28.681C90.698 28.9203 89.5239 29.3072 88.7498 29.8395C87.9756 30.3718 87.5891 31.0249 87.5891 31.7976C87.5891 32.3836 87.7628 32.8901 88.1101 33.3162C88.4843 33.7154 88.9503 34.0218 89.5116 34.2354C90.0718 34.4221 90.6588 34.5149 91.2728 34.5149Z" fill="#7a49e9"/>
<path d="M105.697 37.9122C105.43 37.9122 105.203 37.8194 105.016 37.6327C104.829 37.4459 104.736 37.22 104.736 36.9539V18.0923C104.736 17.8261 104.829 17.5991 105.016 17.4124C105.203 17.2256 105.429 17.1328 105.697 17.1328H109.02C109.313 17.1328 109.541 17.2256 109.701 17.4124C109.888 17.5991 109.981 17.825 109.981 18.0923V36.9539C109.981 37.22 109.888 37.447 109.701 37.6327C109.541 37.8194 109.314 37.9122 109.02 37.9122H105.697Z" fill="#7a49e9"/>
<path d="M105.537 14.7353C105.243 14.7353 105.004 14.6547 104.816 14.4959C104.656 14.3092 104.577 14.0699 104.577 13.7769V10.8996C104.577 10.6335 104.656 10.4065 104.816 10.2197C105.004 10.033 105.243 9.94017 105.537 9.94017H109.18C109.474 9.94017 109.714 10.033 109.9 10.2197C110.088 10.4065 110.181 10.6324 110.181 10.8996V13.7769C110.181 14.0699 110.088 14.3103 109.9 14.4959C109.713 14.6559 109.474 14.7353 109.18 14.7353H105.537Z" fill="#69C5DF"/>
<path d="M115.112 37.9122C114.845 37.9122 114.618 37.8194 114.431 37.6326C114.244 37.4459 114.151 37.22 114.151 36.9539V10.9388C114.151 10.6458 114.244 10.4065 114.431 10.2197C114.618 10.033 114.844 9.94017 115.112 9.94017H125.841C127.924 9.94017 129.738 10.2734 131.286 10.9388C132.835 11.5784 134.036 12.5636 134.89 13.8954C135.744 15.2004 136.171 16.8387 136.171 18.8102C136.171 20.7817 135.744 22.4602 134.89 23.7652C134.037 25.0433 132.836 26.0028 131.286 26.6424C129.739 27.2821 127.924 27.6019 125.841 27.6019H119.877V36.9528C119.877 37.2189 119.784 37.4459 119.597 37.6315C119.438 37.8183 119.209 37.9111 118.917 37.9111H115.113L115.112 37.9122ZM119.796 23.1669H125.642C127.189 23.1669 128.378 22.8068 129.205 22.0878C130.031 21.3419 130.446 20.2494 130.446 18.8113C130.446 17.4794 130.058 16.4138 129.284 15.6142C128.51 14.7878 127.296 14.3752 125.642 14.3752H119.796V23.1669Z" fill="#7a49e9"/>
<path d="M143.674 38.3114C142.286 38.3114 141.032 38.0453 139.911 37.5119C138.79 36.9527 137.896 36.2203 137.228 35.3145C136.588 34.3819 136.267 33.343 136.267 32.1979C136.267 30.3327 137.014 28.8543 138.509 27.7618C140.03 26.6424 142.031 25.8966 144.514 25.5242L149.999 24.7246V23.8859C149.999 22.7666 149.719 21.901 149.158 21.2882C148.597 20.6754 147.636 20.369 146.275 20.369C145.314 20.369 144.526 20.5692 143.912 20.9684C143.325 21.3419 142.885 21.8473 142.591 22.487C142.377 22.8337 142.07 23.007 141.671 23.007H138.508C138.214 23.007 137.987 22.9276 137.828 22.7677C137.695 22.6078 137.627 22.3942 137.627 22.128C137.654 21.702 137.828 21.182 138.148 20.5692C138.469 19.9564 138.975 19.3704 139.67 18.8113C140.363 18.2253 141.257 17.7322 142.352 17.333C143.446 16.9337 144.767 16.7336 146.315 16.7336C147.997 16.7336 149.411 16.9472 150.558 17.3732C151.732 17.7724 152.668 18.3193 153.36 19.0115C154.055 19.7037 154.561 20.5166 154.881 21.4492C155.202 22.3819 155.362 23.3671 155.362 24.4059V36.9539C155.362 37.22 155.268 37.447 155.082 37.6326C154.895 37.8194 154.667 37.9122 154.402 37.9122H151.159C150.865 37.9122 150.625 37.8194 150.438 37.6326C150.278 37.4459 150.197 37.22 150.197 36.9539V35.395C149.85 35.9016 149.383 36.3802 148.797 36.8331C148.209 37.2591 147.489 37.6192 146.635 37.9122C145.808 38.1784 144.82 38.3114 143.671 38.3114H143.674ZM145.035 34.5149C145.969 34.5149 146.809 34.3148 147.557 33.9156C148.331 33.5163 148.93 32.9035 149.357 32.0772C149.811 31.225 150.038 30.1593 150.038 28.8801V28.0414L146.034 28.681C144.46 28.9203 143.285 29.3072 142.512 29.8395C141.738 30.3718 141.35 31.0249 141.35 31.7976C141.35 32.3836 141.524 32.8901 141.871 33.3162C142.244 33.7154 142.711 34.0218 143.271 34.2354C143.832 34.4221 144.419 34.5149 145.034 34.5149H145.035Z" fill="#7a49e9"/>
<path d="M161.713 45.5041C161.499 45.5041 161.313 45.4247 161.153 45.2648C160.993 45.1048 160.912 44.9181 160.912 44.7056V44.3858C160.939 44.3064 160.992 44.1991 161.071 44.066L164.194 36.6732L156.507 18.5709C156.401 18.3047 156.347 18.118 156.347 18.0117C156.374 17.7724 156.468 17.5723 156.627 17.4124C156.787 17.2256 156.987 17.1328 157.227 17.1328H160.47C160.791 17.1328 161.03 17.2133 161.191 17.3721C161.35 17.532 161.471 17.7053 161.551 17.8921L166.876 30.9589L172.36 17.8921C172.44 17.6785 172.56 17.5063 172.719 17.3721C172.879 17.2122 173.12 17.1328 173.441 17.1328H176.644C176.858 17.1328 177.044 17.2133 177.204 17.3721C177.391 17.532 177.484 17.7188 177.484 17.9312C177.484 18.0911 177.43 18.3047 177.324 18.5709L165.994 44.7448C165.887 44.9584 165.753 45.1306 165.594 45.2648C165.434 45.4247 165.194 45.5041 164.874 45.5041H161.71H161.713Z" fill="#7a49e9"/>
</svg>
