<svg width="640" height="234" viewBox="0 0 640 234" fill="none" xmlns="http://www.w3.org/2000/svg">
<path d="M4.22907 67.6626H118.433V114.181H4.22907V67.6626Z" fill="#7A49E9"/>
<path d="M4.22907 0H48.3331V181.843H4.22907V0Z" fill="#7A49E9"/>
<path d="M132.311 0H176.415V54.9759H132.311V0Z" fill="#7A49E9"/>
<path d="M132.311 126.867H176.415V181.843H132.311V126.867Z" fill="#7A49E9"/>
<path d="M183.26 61.2965H125.222V120.547H183.26V61.2965Z" fill="#7CD0E8"/>
<path d="M4.22907 67.6626H48.3331V114.181H4.22907V67.6626Z" fill="#4B2EC3"/>
<path d="M640 88.8071L582.205 226.952H557.099L577.319 180.226L539.912 88.8071H566.366L590.461 154.324L614.894 88.8071H640Z" fill="#7A49E9"/>
<path d="M434.185 134.99C434.185 125.606 436.066 117.283 439.829 110.021C443.705 102.759 448.893 97.1732 455.392 93.263C462.004 89.3528 469.358 87.3977 477.453 87.3977C484.522 87.3977 490.679 88.7942 495.923 91.5872C501.282 94.3802 505.557 97.8994 508.75 102.145V88.9059H532.863V181.745H508.75V168.171C505.671 172.528 501.396 176.159 495.923 179.064C490.565 181.857 484.351 183.253 477.282 183.253C469.301 183.253 462.004 181.242 455.392 177.22C448.893 173.198 443.705 167.557 439.829 160.295C436.066 152.921 434.185 144.486 434.185 134.99ZM503.022 136.116C503.022 130.245 501.852 125.237 499.511 121.092C497.17 116.833 494.01 113.609 490.031 111.422C486.052 109.119 481.78 107.968 477.215 107.968C472.65 107.968 468.437 109.062 464.575 111.249C460.712 113.436 457.552 116.66 455.094 120.92C452.753 125.064 451.583 130.014 451.583 135.771C451.583 141.527 452.753 146.592 455.094 150.967C457.552 155.227 460.712 158.508 464.575 160.81C468.554 163.113 472.767 164.264 477.215 164.264C481.78 164.264 486.052 163.17 490.031 160.983C494.01 158.681 497.17 155.457 499.511 151.313C501.852 147.053 503.022 141.987 503.022 136.116Z" fill="#7A49E9"/>
<path d="M431.366 101.05C431.366 107.308 429.87 113.174 426.879 118.65C423.999 124.126 419.401 128.54 413.087 131.892C406.883 135.245 399.018 136.921 389.49 136.921H370.048V181.843H346.784V64.8434H389.49C398.464 64.8434 406.108 66.4079 412.422 69.5368C418.737 72.6657 423.445 76.968 426.547 82.4437C429.759 87.9193 431.366 94.1213 431.366 101.05ZM388.493 117.979C394.919 117.979 399.682 116.527 402.784 113.621C405.886 110.604 407.437 106.414 407.437 101.05C407.437 89.6514 401.122 83.9523 388.493 83.9523H370.048V117.979H388.493Z" fill="#7A49E9"/>
<path d="M194.537 134.99C194.537 125.606 196.392 117.283 200.1 110.021C203.922 102.759 209.035 97.1732 215.441 93.263C221.959 89.3528 229.208 87.3977 237.187 87.3977C244.155 87.3977 250.224 88.7942 255.394 91.5872C260.676 94.3802 264.89 97.8993 268.037 102.145V88.9059H291.806V181.745H268.037V168.171C265.002 172.528 260.788 176.159 255.394 179.064C250.112 181.857 243.987 183.253 237.019 183.253C229.152 183.253 221.959 181.242 215.441 177.22C209.035 173.198 203.922 167.557 200.1 160.295C196.392 152.921 194.537 144.486 194.537 134.99ZM262.391 136.116C262.391 130.245 261.238 125.237 258.93 121.092C256.623 116.833 253.508 113.609 249.586 111.422C245.663 109.119 241.452 107.968 236.953 107.968C232.453 107.968 228.3 109.062 224.493 111.249C220.686 113.436 217.571 116.66 215.148 120.92C212.84 125.064 211.687 130.014 211.687 135.771C211.687 141.527 212.84 146.592 215.148 150.967C217.571 155.227 220.686 158.508 224.493 160.81C228.415 163.113 232.569 164.264 236.953 164.264C241.452 164.264 245.663 163.17 249.586 160.983C253.508 158.681 256.623 155.457 258.93 151.313C261.238 147.053 262.391 141.987 262.391 136.116Z" fill="#7A49E9"/>
<path d="M331.135 88.5293V182.526H307.536V88.5293H331.135Z" fill="#7A49E9"/>
<path d="M307.536 52.1566H331.24V76.0162H307.536V52.1566Z" fill="#7CD0E8"/>
</svg>
