<svg xmlns="http://www.w3.org/2000/svg" width="118" height="32" fill="none" viewBox="0 0 118 32"><g clip-path="url(#a)"><mask id="b" width="118" height="32" x="0" y="0" maskUnits="userSpaceOnUse" style="mask-type:luminance"><path fill="#fff" d="M117.945 0H0v31.943h117.945z"/></mask><g mask="url(#b)"><path fill="#7661aa" d="M7.866 11.978h7.99v7.986h-7.99z"/><path fill="#7661aa" d="M21.347 11.978h-5.492v7.986h5.492zM.044 0h7.989v7.986H.043zm23.633 0h7.99v7.986h-7.99zM.044 23.958h7.989v7.985H.043zm23.633 0h7.99v7.985h-7.99zM.044 15.972h7.989v7.986H.043z"/><path fill="#7661aa" d="M31.666 22.294h-7.989v1.664h7.99zm0-14.308h-7.989v1.663h7.99zm-31.622 0h7.989v7.986H.043z"/><path fill="#69c5df" d="M32.878 10.768H22.465v10.408h10.413z"/><path fill="#332295" d="M0 11.978h7.989v7.986H0z"/><path fill="#7661aa" d="M38.639 25.23a.67.67 0 0 1-.453-.16.65.65 0 0 1-.186-.478V7.28q0-.293.186-.479a.62.62 0 0 1 .453-.186h2.42q.294 0 .453.186a.65.65 0 0 1 .186.479v6.86h7.849V7.28q0-.293.186-.479a.62.62 0 0 1 .452-.186h2.395q.292 0 .478.186a.65.65 0 0 1 .186.479v17.312a.6.6 0 0 1-.186.451.65.65 0 0 1-.478.186h-2.395a.62.62 0 0 1-.452-.186.6.6 0 0 1-.186-.451v-7.127h-7.849v7.127a.6.6 0 0 1-.186.451q-.159.187-.453.186zm21.11.266q-1.383 0-2.5-.532-1.119-.558-1.783-1.463a3.6 3.6 0 0 1-.639-2.074q0-1.861 1.49-2.952 1.516-1.117 3.99-1.489l3.645-.532v-.558q0-1.117-.558-1.729t-1.916-.612q-.957 0-1.569.4-.585.371-.878 1.01a.68.68 0 0 1-.612.346h-2.101q-.292 0-.453-.16a.64.64 0 0 1-.133-.425q.027-.426.346-1.037.32-.612 1.01-1.17.693-.585 1.783-.984 1.091-.399 2.634-.399 1.676 0 2.82.426 1.17.399 1.862 1.09t1.011 1.622.32 1.968v8.35a.6.6 0 0 1-.186.452.62.62 0 0 1-.453.186h-2.155a.65.65 0 0 1-.478-.186.67.67 0 0 1-.16-.452v-1.037a4.3 4.3 0 0 1-.931.957q-.585.426-1.437.718-.825.266-1.968.266zm.904-2.527q.93 0 1.676-.399a2.75 2.75 0 0 0 1.197-1.223q.452-.85.452-2.128v-.558l-2.66.426q-1.57.24-2.342.77-.771.533-.771 1.304 0 .585.346 1.01.373.399.931.612.56.186 1.17.186m9.586 2.261a.62.62 0 0 1-.453-.186.6.6 0 0 1-.186-.452V12.04q0-.266.186-.452a.62.62 0 0 1 .453-.186h2.208q.292 0 .453.186a.62.62 0 0 1 .186.452v12.552a.6.6 0 0 1-.186.452q-.16.186-.453.186z"/><path fill="#69c5df" d="M70.132 9.806a.7.7 0 0 1-.48-.16.7.7 0 0 1-.159-.478V7.254q0-.267.16-.453a.65.65 0 0 1 .478-.186h2.421q.294 0 .48.186a.62.62 0 0 1 .185.453v1.914a.65.65 0 0 1-.186.479.7.7 0 0 1-.479.16z"/><path fill="#7661aa" d="M76.495 25.23a.62.62 0 0 1-.453-.186.6.6 0 0 1-.186-.452V7.28q0-.293.186-.479a.62.62 0 0 1 .453-.186h7.13q2.075 0 3.618.665 1.543.637 2.395 1.967.85 1.303.85 3.271c0 1.312-.283 2.429-.85 3.297q-.852 1.277-2.395 1.915t-3.619.639h-3.963v6.223a.6.6 0 0 1-.186.451q-.16.187-.452.186zm3.112-9.813h3.885q1.543 0 2.367-.718.825-.744.825-2.18 0-1.33-.772-2.128-.771-.825-2.42-.824h-3.885zm15.867 10.079q-1.383 0-2.5-.532-1.117-.558-1.783-1.463a3.6 3.6 0 0 1-.639-2.074q0-1.861 1.49-2.952 1.516-1.117 3.99-1.489l3.646-.532v-.558q0-1.117-.56-1.729-.558-.612-1.915-.612-.958 0-1.57.4-.585.371-.878 1.01a.68.68 0 0 1-.612.346h-2.102q-.293 0-.451-.16a.64.64 0 0 1-.134-.425q.028-.426.346-1.037.32-.612 1.011-1.17.691-.585 1.783-.984 1.09-.399 2.634-.399 1.676 0 2.819.426 1.171.399 1.862 1.09t1.011 1.622.319 1.968v8.35a.6.6 0 0 1-.186.452.62.62 0 0 1-.452.186h-2.155a.65.65 0 0 1-.478-.186.67.67 0 0 1-.16-.452v-1.037q-.347.505-.931.957a5.4 5.4 0 0 1-1.437.718q-.825.266-1.97.266zm.905-2.527q.931 0 1.676-.399.77-.398 1.196-1.223.452-.85.453-2.128v-.558l-2.661.426q-1.57.24-2.34.77-.773.533-.773 1.304 0 .585.346 1.01.373.399.931.612.558.186 1.171.186m11.084 7.313a.5.5 0 0 1-.372-.159.5.5 0 0 1-.16-.372v-.213q.025-.08.105-.213l2.075-4.92-5.108-12.046q-.106-.266-.106-.372a.65.65 0 0 1 .186-.4.5.5 0 0 1 .399-.185h2.155q.319 0 .479.159.16.16.239.346l3.538 8.696 3.645-8.696a.8.8 0 0 1 .239-.346q.16-.16.479-.16h2.129q.212 0 .372.16.186.159.186.372 0 .16-.107.426l-7.528 17.418a1.1 1.1 0 0 1-.266.346q-.16.16-.479.16h-2.102z"/></g></g><defs><clipPath id="a"><path fill="#fff" d="M0 0h118v32H0z"/></clipPath></defs></svg>