<svg width="40" height="40" viewBox="0 0 40 40" fill="none" xmlns="http://www.w3.org/2000/svg">
<g clip-path="url(#clip0_4686_12010)">
<path d="M-10 0H66V40H-10" fill="#B22234"/>
<path d="M-10 4.61523H66H-10ZM66 10.7691H-10H66ZM-10 16.9229H66H-10ZM66 23.0768H-10H66ZM-10 29.2306H66H-10ZM66 35.3845H-10H66Z" fill="black"/>
<path d="M65.9994 33.8841V36.8838H-10V33.8841H65.9994ZM65.9994 27.7301V30.7298H-10V27.7301H65.9994ZM65.9994 21.5762V24.5758H-10V21.5762H65.9994ZM65.9994 15.4222V18.4219H-10V15.4222H65.9994ZM65.9994 9.26823V12.2695H-10V9.26823H65.9994ZM65.9994 3.11426V6.11556H-10V3.11426H65.9994Z" fill="white"/>
<path d="M-10 0H20.4V21.5385H-10" fill="#3C3B6E"/>
<path d="M0.133414 3.07715L0.85684 5.30363L-1.03711 3.92759H1.30395L-0.590012 5.30363L0.133414 3.07715Z" fill="white"/>
<path d="M0.133414 7.38477L0.85684 9.61125L-1.03711 8.23521H1.30395L-0.590012 9.61125L0.133414 7.38477Z" fill="white"/>
<path d="M0.133414 11.6924L0.85684 13.9189L-1.03711 12.5428H1.30395L-0.590012 13.9189L0.133414 11.6924Z" fill="white"/>
<path d="M0.133414 16L0.85684 18.2265L-1.03711 16.8504H1.30395L-0.590012 18.2265L0.133414 16Z" fill="white"/>
<path d="M2.66759 0.922852L3.39102 3.14933L1.49707 1.77329H3.83813L1.94417 3.14933L2.66759 0.922852Z" fill="white"/>
<path d="M2.66759 5.23047L3.39102 7.45695L1.49707 6.08091H3.83813L1.94417 7.45695L2.66759 5.23047Z" fill="white"/>
<path d="M2.66759 9.53809L3.39102 11.7646L1.49707 10.3885H3.83813L1.94417 11.7646L2.66759 9.53809Z" fill="white"/>
<path d="M2.66759 13.8457L3.39102 16.0722L1.49707 14.6961H3.83813L1.94417 16.0722L2.66759 13.8457Z" fill="white"/>
<path d="M2.66759 18.1533L3.39102 20.3798L1.49707 19.0038H3.83813L1.94417 20.3798L2.66759 18.1533Z" fill="white"/>
<path d="M5.2008 3.07715L5.92422 5.30363L4.03027 3.92759H6.37133L4.47737 5.30363L5.2008 3.07715Z" fill="white"/>
<path d="M5.2008 7.38477L5.92422 9.61125L4.03027 8.23521H6.37133L4.47737 9.61125L5.2008 7.38477Z" fill="white"/>
<path d="M5.2008 11.6924L5.92422 13.9189L4.03027 12.5428H6.37133L4.47737 13.9189L5.2008 11.6924Z" fill="white"/>
<path d="M5.2008 16L5.92422 18.2265L4.03027 16.8504H6.37133L4.47737 18.2265L5.2008 16Z" fill="white"/>
<path d="M7.734 0.922852L8.45743 3.14933L6.56348 1.77329H8.90453L7.01057 3.14933L7.734 0.922852Z" fill="white"/>
<path d="M7.734 5.23047L8.45743 7.45695L6.56348 6.08091H8.90453L7.01057 7.45695L7.734 5.23047Z" fill="white"/>
<path d="M7.734 9.53809L8.45743 11.7646L6.56348 10.3885H8.90453L7.01057 11.7646L7.734 9.53809Z" fill="white"/>
<path d="M7.734 13.8457L8.45743 16.0722L6.56348 14.6961H8.90453L7.01057 16.0722L7.734 13.8457Z" fill="white"/>
<path d="M7.734 18.1533L8.45743 20.3798L6.56348 19.0038H8.90453L7.01057 20.3798L7.734 18.1533Z" fill="white"/>
<path d="M10.2672 3.07715L10.9906 5.30363L9.09668 3.92759H11.4377L9.54378 5.30363L10.2672 3.07715Z" fill="white"/>
<path d="M10.2672 7.38477L10.9906 9.61125L9.09668 8.23521H11.4377L9.54378 9.61125L10.2672 7.38477Z" fill="white"/>
<path d="M10.2672 11.6924L10.9906 13.9189L9.09668 12.5428H11.4377L9.54378 13.9189L10.2672 11.6924Z" fill="white"/>
<path d="M10.2672 16L10.9906 18.2265L9.09668 16.8504H11.4377L9.54378 18.2265L10.2672 16Z" fill="white"/>
<path d="M12.8004 0.922852L13.5238 3.14933L11.6299 1.77329H13.9709L12.077 3.14933L12.8004 0.922852Z" fill="white"/>
<path d="M12.8004 5.23047L13.5238 7.45695L11.6299 6.08091H13.9709L12.077 7.45695L12.8004 5.23047Z" fill="white"/>
<path d="M12.8004 9.53809L13.5238 11.7646L11.6299 10.3885H13.9709L12.077 11.7646L12.8004 9.53809Z" fill="white"/>
<path d="M12.8004 13.8457L13.5238 16.0722L11.6299 14.6961H13.9709L12.077 16.0722L12.8004 13.8457Z" fill="white"/>
<path d="M12.8004 18.1533L13.5238 20.3798L11.6299 19.0038H13.9709L12.077 20.3798L12.8004 18.1533Z" fill="white"/>
<path d="M15.3336 3.07715L16.057 5.30363L14.1631 3.92759H16.5041L14.6102 5.30363L15.3336 3.07715Z" fill="white"/>
<path d="M15.3336 7.38477L16.057 9.61125L14.1631 8.23521H16.5041L14.6102 9.61125L15.3336 7.38477Z" fill="white"/>
<path d="M15.3336 11.6924L16.057 13.9189L14.1631 12.5428H16.5041L14.6102 13.9189L15.3336 11.6924Z" fill="white"/>
<path d="M15.3336 16L16.057 18.2265L14.1631 16.8504H16.5041L14.6102 18.2265L15.3336 16Z" fill="white"/>
<path d="M17.8668 0.922852L18.5902 3.14933L16.6963 1.77329H19.0373L17.1434 3.14933L17.8668 0.922852Z" fill="white"/>
<path d="M17.8668 5.23047L18.5902 7.45695L16.6963 6.08091H19.0373L17.1434 7.45695L17.8668 5.23047Z" fill="white"/>
<path d="M17.8668 9.53809L18.5902 11.7646L16.6963 10.3885H19.0373L17.1434 11.7646L17.8668 9.53809Z" fill="white"/>
<path d="M17.8668 13.8457L18.5902 16.0722L16.6963 14.6961H19.0373L17.1434 16.0722L17.8668 13.8457Z" fill="white"/>
<path d="M17.8668 18.1533L18.5902 20.3798L16.6963 19.0038H19.0373L17.1434 20.3798L17.8668 18.1533Z" fill="white"/>
</g>
<defs>
<clipPath id="clip0_4686_12010">
<rect width="40" height="40" rx="20" fill="white"/>
</clipPath>
</defs>
</svg>
