<svg width="40" height="40" viewBox="0 0 40 40" fill="none" xmlns="http://www.w3.org/2000/svg">
<g clip-path="url(#clip0_4686_12017)">
<path d="M-10 0H50V40H-10V0Z" fill="white"/>
<path d="M-10 0H50V13.3333H-10V0Z" fill="#FF6820"/>
<path d="M-10 26.667H50V40.0003H-10V26.667Z" fill="#046A38"/>
<path d="M19.9997 26.1663C23.4054 26.1663 26.1663 23.4054 26.1663 19.9997C26.1663 16.5939 23.4054 13.833 19.9997 13.833C16.5939 13.833 13.833 16.5939 13.833 19.9997C13.833 23.4054 16.5939 26.1663 19.9997 26.1663Z" fill="#07038D"/>
<path d="M20.0003 25.3337C22.9458 25.3337 25.3337 22.9458 25.3337 20.0003C25.3337 17.0548 22.9458 14.667 20.0003 14.667C17.0548 14.667 14.667 17.0548 14.667 20.0003C14.667 22.9458 17.0548 25.3337 20.0003 25.3337Z" fill="white"/>
<path d="M20.0003 21.0669C20.5894 21.0669 21.0669 20.5894 21.0669 20.0003C21.0669 19.4112 20.5894 18.9336 20.0003 18.9336C19.4112 18.9336 18.9336 19.4112 18.9336 20.0003C18.9336 20.5894 19.4112 21.0669 20.0003 21.0669Z" fill="#07038D"/>
<path d="M19.9998 14.666L20.1998 17.8753L19.9998 19.4647L19.7998 17.8753L19.9998 14.666Z" fill="#07038D"/>
<path d="M20.6655 14.9433C20.7933 14.9601 20.9105 14.8702 20.9273 14.7424C20.9442 14.6147 20.8542 14.4975 20.7265 14.4807C20.5987 14.4638 20.4815 14.5538 20.4647 14.6815C20.4478 14.8093 20.5378 14.9265 20.6655 14.9433Z" fill="#07038D"/>
<path d="M20.0002 25.333L19.8002 22.1237L20.0002 20.5343L20.2002 22.1237L20.0002 25.333Z" fill="#07038D"/>
<path d="M19.3345 25.0557C19.2067 25.0389 19.0895 25.1288 19.0727 25.2566C19.0558 25.3843 19.1458 25.5016 19.2735 25.5184C19.4013 25.5352 19.5185 25.4453 19.5353 25.3175C19.5522 25.1897 19.4622 25.0725 19.3345 25.0557Z" fill="#07038D"/>
<path d="M21.3787 14.8457L20.7413 17.9975L20.1367 19.4809L20.3549 17.8939L21.3787 14.8457Z" fill="#07038D"/>
<path d="M21.9501 15.2861C22.0691 15.3354 22.2056 15.2788 22.2549 15.1598C22.3043 15.0407 22.2477 14.9042 22.1287 14.8549C22.0096 14.8056 21.8731 14.8621 21.8238 14.9812C21.7745 15.1003 21.831 15.2367 21.9501 15.2861Z" fill="#07038D"/>
<path d="M18.6183 25.1494L19.2558 21.9977L19.8603 20.5143L19.6422 22.1012L18.6183 25.1494Z" fill="#07038D"/>
<path d="M18.047 24.7091C17.9279 24.6597 17.7914 24.7163 17.7421 24.8353C17.6928 24.9544 17.7494 25.0909 17.8684 25.1402C17.9875 25.1895 18.124 25.133 18.1733 25.0139C18.2226 24.8949 18.1661 24.7584 18.047 24.7091Z" fill="#07038D"/>
<path d="M22.6673 15.3813L21.2359 18.2606L20.268 19.537L20.8895 18.0606L22.6673 15.3813Z" fill="#07038D"/>
<path d="M23.1061 15.9537C23.2083 16.0321 23.3548 16.0128 23.4333 15.9106C23.5117 15.8084 23.4924 15.6619 23.3902 15.5835C23.288 15.505 23.1415 15.5243 23.063 15.6265C22.9846 15.7288 23.0039 15.8752 23.1061 15.9537Z" fill="#07038D"/>
<path d="M17.3346 24.6187L18.7661 21.7394L19.7339 20.463L19.1125 21.9394L17.3346 24.6187Z" fill="#07038D"/>
<path d="M16.8958 24.0463C16.7936 23.9679 16.6471 23.9872 16.5687 24.0894C16.4902 24.1916 16.5095 24.3381 16.6118 24.4165C16.714 24.495 16.8605 24.4757 16.9389 24.3735C17.0174 24.2712 16.9981 24.1248 16.8958 24.0463Z" fill="#07038D"/>
<path d="M23.7703 16.2283L21.6424 18.6391L20.3772 19.6215L21.3596 18.3563L23.7703 16.2283Z" fill="#07038D"/>
<path d="M24.0452 16.895C24.1237 16.9972 24.2702 17.0165 24.3724 16.9381C24.4746 16.8596 24.4939 16.7131 24.4155 16.6109C24.337 16.5087 24.1906 16.4894 24.0883 16.5678C23.9861 16.6463 23.9668 16.7927 24.0452 16.895Z" fill="#07038D"/>
<path d="M16.2287 23.7707L18.3566 21.3599L19.6219 20.3775L18.6395 21.6428L16.2287 23.7707Z" fill="#07038D"/>
<path d="M15.9538 23.104C15.8753 23.0018 15.7289 22.9825 15.6266 23.061C15.5244 23.1394 15.5051 23.2859 15.5835 23.3881C15.662 23.4904 15.8085 23.5096 15.9107 23.4312C16.0129 23.3527 16.0322 23.2063 15.9538 23.104Z" fill="#07038D"/>
<path d="M24.6195 17.3343L21.9402 19.1122L20.4638 19.7337L21.7402 18.7658L24.6195 17.3343Z" fill="#07038D"/>
<path d="M24.7128 18.0494C24.7622 18.1685 24.8986 18.225 25.0177 18.1757C25.1368 18.1264 25.1933 17.9899 25.144 17.8708C25.0947 17.7518 24.9582 17.6953 24.8391 17.7446C24.7201 17.7939 24.6635 17.9304 24.7128 18.0494Z" fill="#07038D"/>
<path d="M15.3814 22.6676L18.0608 20.8897L19.5372 20.2683L18.2608 21.2362L15.3814 22.6676Z" fill="#07038D"/>
<path d="M15.2881 21.9525C15.2388 21.8335 15.1023 21.7769 14.9833 21.8262C14.8642 21.8756 14.8077 22.0121 14.857 22.1311C14.9063 22.2502 15.0428 22.3067 15.1619 22.2574C15.2809 22.2081 15.3375 22.0716 15.2881 21.9525Z" fill="#07038D"/>
<path d="M25.1523 18.6199L22.1041 19.6438L20.5172 19.8619L22.0006 19.2574L25.1523 18.6199Z" fill="#07038D"/>
<path d="M25.057 19.3352C25.0739 19.463 25.1911 19.5529 25.3188 19.5361C25.4466 19.5193 25.5365 19.4021 25.5197 19.2743C25.5029 19.1465 25.3857 19.0566 25.2579 19.0734C25.1302 19.0902 25.0402 19.2075 25.057 19.3352Z" fill="#07038D"/>
<path d="M14.8496 21.382L17.8978 20.3582L19.4848 20.14L18.0013 20.7446L14.8496 21.382Z" fill="#07038D"/>
<path d="M14.9449 20.6667C14.9281 20.539 14.8109 20.449 14.6831 20.4659C14.5554 20.4827 14.4654 20.5999 14.4822 20.7276C14.4991 20.8554 14.6163 20.9453 14.744 20.9285C14.8718 20.9117 14.9617 20.7945 14.9449 20.6667Z" fill="#07038D"/>
<path d="M25.333 19.9998L22.1237 20.1998L20.5343 19.9998L22.1237 19.7998L25.333 19.9998Z" fill="#07038D"/>
<path d="M25.0567 20.6655C25.0399 20.7933 25.1298 20.9105 25.2576 20.9273C25.3853 20.9442 25.5025 20.8542 25.5193 20.7265C25.5362 20.5987 25.4462 20.4815 25.3185 20.4647C25.1907 20.4478 25.0735 20.5378 25.0567 20.6655Z" fill="#07038D"/>
<path d="M14.667 20.0002L17.8763 19.8002L19.4657 20.0002L17.8763 20.2002L14.667 20.0002Z" fill="#07038D"/>
<path d="M14.9433 19.3345C14.9601 19.2067 14.8702 19.0895 14.7424 19.0727C14.6147 19.0558 14.4975 19.1458 14.4807 19.2735C14.4638 19.4013 14.5538 19.5185 14.6815 19.5353C14.8093 19.5522 14.9265 19.4622 14.9433 19.3345Z" fill="#07038D"/>
<path d="M25.1523 21.3807L22.0006 20.7432L20.5172 20.1387L22.1041 20.3569L25.1523 21.3807Z" fill="#07038D"/>
<path d="M24.713 21.952C24.6636 22.0711 24.7202 22.2076 24.8392 22.2569C24.9583 22.3062 25.0948 22.2497 25.1441 22.1306C25.1934 22.0116 25.1369 21.8751 25.0178 21.8257C24.8988 21.7764 24.7623 21.833 24.713 21.952Z" fill="#07038D"/>
<path d="M14.8486 18.6183L18.0004 19.2558L19.4838 19.8603L17.8969 19.6422L14.8486 18.6183Z" fill="#07038D"/>
<path d="M15.288 18.047C15.3373 17.9279 15.2808 17.7914 15.1617 17.7421C15.0427 17.6928 14.9062 17.7494 14.8569 17.8684C14.8076 17.9875 14.8641 18.124 14.9832 18.1733C15.1022 18.2226 15.2387 18.1661 15.288 18.047Z" fill="#07038D"/>
<path d="M24.6187 22.6664L21.7394 21.2349L20.463 20.267L21.9394 20.8885L24.6187 22.6664Z" fill="#07038D"/>
<path d="M24.0463 23.1051C23.9679 23.2074 23.9872 23.3538 24.0894 23.4323C24.1916 23.5107 24.3381 23.4915 24.4165 23.3892C24.495 23.287 24.4757 23.1405 24.3735 23.0621C24.2712 22.9836 24.1248 23.0029 24.0463 23.1051Z" fill="#07038D"/>
<path d="M15.3813 17.3336L18.2606 18.7651L19.537 19.733L18.0606 19.1115L15.3813 17.3336Z" fill="#07038D"/>
<path d="M15.9537 16.8949C16.0321 16.7926 16.0128 16.6462 15.9106 16.5677C15.8084 16.4893 15.6619 16.5085 15.5835 16.6108C15.505 16.713 15.5243 16.8595 15.6265 16.9379C15.7288 17.0164 15.8752 16.9971 15.9537 16.8949Z" fill="#07038D"/>
<path d="M23.7707 23.7694L21.3599 21.6414L20.3775 20.3762L21.6428 21.3586L23.7707 23.7694Z" fill="#07038D"/>
<path d="M23.105 24.0443C23.0028 24.1227 22.9835 24.2692 23.0619 24.3714C23.1404 24.4737 23.2869 24.493 23.3891 24.4145C23.4913 24.3361 23.5106 24.1896 23.4322 24.0873C23.3537 23.9851 23.2073 23.9658 23.105 24.0443Z" fill="#07038D"/>
<path d="M16.2293 16.2277L18.6401 18.3556L19.6225 19.6209L18.3572 18.6385L16.2293 16.2277Z" fill="#07038D"/>
<path d="M16.895 15.9528C16.9972 15.8743 17.0165 15.7279 16.9381 15.6256C16.8596 15.5234 16.7131 15.5041 16.6109 15.5826C16.5087 15.661 16.4894 15.8075 16.5678 15.9097C16.6463 16.012 16.7927 16.0312 16.895 15.9528Z" fill="#07038D"/>
<path d="M22.6647 24.6176L20.8868 21.9382L20.2654 20.4618L21.2332 21.7382L22.6647 24.6176Z" fill="#07038D"/>
<path d="M21.9496 24.7109C21.8305 24.7602 21.774 24.8967 21.8233 25.0157C21.8726 25.1348 22.0091 25.1913 22.1282 25.142C22.2472 25.0927 22.3038 24.9562 22.2545 24.8372C22.2051 24.7181 22.0686 24.6616 21.9496 24.7109Z" fill="#07038D"/>
<path d="M17.3314 15.3805L19.1093 18.0598L19.7307 19.5362L18.7629 18.2598L17.3314 15.3805Z" fill="#07038D"/>
<path d="M18.0465 15.2872C18.1656 15.2378 18.2221 15.1014 18.1728 14.9823C18.1235 14.8632 17.987 14.8067 17.8679 14.856C17.7489 14.9053 17.6923 15.0418 17.7416 15.1609C17.791 15.2799 17.9274 15.3365 18.0465 15.2872Z" fill="#07038D"/>
<path d="M21.3791 25.1514L20.3553 22.1032L20.1371 20.5162L20.7416 21.9996L21.3791 25.1514Z" fill="#07038D"/>
<path d="M20.6638 25.057C20.536 25.0739 20.4461 25.1911 20.4629 25.3188C20.4797 25.4466 20.597 25.5365 20.7247 25.5197C20.8525 25.5029 20.9424 25.3857 20.9256 25.2579C20.9088 25.1302 20.7916 25.0402 20.6638 25.057Z" fill="#07038D"/>
<path d="M18.617 14.8486L19.6408 17.8968L19.859 19.4838L19.2545 18.0004L18.617 14.8486Z" fill="#07038D"/>
<path d="M19.3323 14.943C19.4601 14.9261 19.55 14.8089 19.5332 14.6812C19.5163 14.5534 19.3991 14.4635 19.2714 14.4803C19.1436 14.4971 19.0537 14.6143 19.0705 14.7421C19.0873 14.8698 19.2045 14.9598 19.3323 14.943Z" fill="#07038D"/>
</g>
<defs>
<clipPath id="clip0_4686_12017">
<rect width="40" height="40" rx="20" fill="white"/>
</clipPath>
</defs>
</svg>
