<svg width="44" height="44" viewBox="0 0 44 44" fill="none" xmlns="http://www.w3.org/2000/svg">
<g clip-path="url(#clip0_4686_12024)">
<path d="M38 20C38 15.2261 36.1036 10.6477 32.7279 7.27208C29.3523 3.89642 24.7739 2 20 2C15.2261 2 10.6477 3.89642 7.27208 7.27208C3.89642 10.6477 2 15.2261 2 20C2 24.7739 3.89642 29.3523 7.27208 32.7279C10.6477 36.1036 15.2261 38 20 38C24.7739 38 29.3523 36.1036 32.7279 32.7279C36.1036 29.3523 38 24.7739 38 20Z" fill="#FF0000"/>
<path d="M20.0001 15.822L14.0603 11.5986L16.3188 18.4644L10.4017 22.8458L17.7191 22.8458L20.0001 29.5986L22.2134 22.8458H29.5986L23.704 18.4644L25.9399 11.5986L20.0001 15.822Z" fill="#FFE62E"/>
</g>
<path d="M0 20.0007C0 25.3047 2.10714 30.3914 5.85786 34.1419C9.60859 37.8924 14.6957 39.9994 20 39.9994C25.3043 39.9994 30.3914 37.8924 34.1421 34.1419C37.8929 30.3914 40 25.3047 40 20.0007C40 14.6967 37.8929 9.60994 34.1421 5.85945C30.3914 2.10896 25.3043 0.00195313 20 0.00195312C14.6957 0.00195313 9.60859 2.10896 5.85786 5.85945C2.10714 9.60994 0 14.6967 0 20.0007Z" fill="white"/>
<path d="M20 20L5.59277 33.8682C8.41355 36.8038 12.0647 38.8066 16.0564 39.6079C19.2253 40.2447 22.5013 40.104 25.6039 39.1977C28.7065 38.2915 31.5431 36.6468 33.871 34.4045C35.808 32.5395 37.3477 30.302 38.3976 27.8265C39.4474 25.3511 39.9857 22.6888 39.98 20H20.0019H20Z" fill="#CE1126"/>
<path d="M20 19.9999L5.59277 6.12801C8.41459 3.19349 12.0664 1.192 16.0582 0.392003C19.2271 -0.244813 22.5031 -0.10409 25.6057 0.802117C28.7083 1.70833 31.5449 3.35301 33.8728 5.59531C35.81 7.46058 37.3499 9.69841 38.3997 12.1742C39.4496 14.65 39.9878 17.3125 39.9819 20.0017H20.0019L20 19.9999Z" fill="#0038A8"/>
<path d="M5.06929 28.0986L4.34747 27.7822L3.84747 28.3749L3.92201 27.6168L3.2002 27.3204L3.95838 27.135L4.01474 26.375L4.40383 27.0423L5.16201 26.8387L4.64383 27.4313L5.0711 28.0986H5.06929ZM14.2184 20.6172L14.662 19.9882L14.2184 19.3573L14.9402 19.5991L15.3857 18.9501V19.71L16.1257 19.95L15.4038 20.1718V20.9681L14.9402 20.3209L14.2184 20.6172ZM5.06929 11.876L4.34565 12.1923L3.84565 11.5996L3.9202 12.3577L3.21656 12.6923L3.97656 12.8395L4.0311 13.5995L4.4202 12.9323L5.1802 13.1177L4.66201 12.5432L5.06929 11.876Z" fill="#FAD400"/>
<path d="M12.4008 19.5162L12.0042 19.9632L10.3947 19.7051C10.1838 19.659 10.4176 19.8918 10.4864 19.8918L10.9541 19.9885C11.2338 20.0576 11.5136 20.0807 11.7933 20.1498C11.4448 20.4079 11.4448 20.4079 11.0711 20.3157C10.8372 20.2673 10.6721 20.2212 10.4406 20.1498C10.1586 20.0576 10.2526 20.2904 10.1356 20.5254C9.927 20.9009 10.5094 20.9977 10.8143 21.182C11.094 21.3479 11.0711 21.417 11.094 21.7235C10.8143 21.4885 10.4864 21.3249 10.1815 21.0899C9.87886 20.8779 9.739 20.9493 10.0669 21.2074C10.4154 21.4654 10.7432 21.7004 11.0711 21.9585L11.188 22.5898C10.906 22.5898 10.6492 22.7326 10.4635 22.4746L9.62207 21.4401C9.59915 21.417 9.25065 21.2304 9.36529 21.417L9.62207 21.7926C9.82467 22.0611 10.0196 22.3354 10.2067 22.6151C9.81008 22.5691 9.81008 22.5691 9.57622 22.2396L9.57622 22.2396C9.48222 22.0506 9.36529 21.8617 9.24836 21.6774C9.13143 21.4424 9.01451 21.6543 8.75772 21.7465C8.4803 21.841 8.52616 21.7926 8.59494 22.076L8.78294 22.7096C8.85172 23.0137 8.78294 23.0368 8.59494 23.2971C8.47801 22.9193 8.42986 22.5691 8.36108 22.1912C8.29001 21.8179 8.10659 21.7926 8.17537 22.1912C8.22352 22.5921 8.26938 23.0368 8.33816 23.4354L7.89337 23.9999C7.63659 23.8109 7.42795 23.7188 7.45088 23.4123C7.4761 22.9907 7.54488 22.5437 7.56781 22.099C7.56781 22.0276 7.42566 21.606 7.40273 21.864L7.33395 22.3087C7.26288 22.6612 7.21702 22.9907 7.14824 23.3179C6.89146 22.9907 6.89146 22.9677 6.98317 22.5921C7.03131 22.3571 7.07717 22.1912 7.14824 21.9585C7.23995 21.6774 7.00609 21.7696 6.74931 21.6543C6.49253 21.5115 6.58653 21.5115 6.42374 21.7695C6.35475 21.953 6.24255 22.1342 6.12908 22.3175L6.11881 22.334C5.95603 22.6151 5.88725 22.5921 5.58232 22.6151C5.77098 22.2958 5.98166 21.9902 6.21282 21.7004C6.4696 21.3479 6.35267 21.2074 6.09589 21.5345C5.8391 21.8871 5.55939 22.2165 5.30261 22.546L4.58041 22.6382C4.53226 22.3571 4.43826 22.099 4.69504 21.9101C5.04744 21.6496 5.39006 21.376 5.72217 21.0899C5.7451 21.0668 5.9331 20.7143 5.7451 20.8318L5.37139 21.0899L4.53226 21.652C4.60104 21.2534 4.60104 21.2534 4.9289 21.0668C5.11461 20.9954 5.30261 20.8548 5.48832 20.7604C5.69925 20.5968 5.51125 20.5254 5.41954 20.2696C5.30261 19.8918 4.81197 20.1982 4.48411 20.2927C4.18147 20.3848 4.15855 20.2927 3.89947 20.1037C4.27548 20.0323 4.62626 19.9862 4.99997 19.9148C5.37139 19.8457 5.39661 19.659 4.99997 19.7305C4.60104 19.7996 4.15855 19.8226 3.76191 19.8918L3.2002 19.4471C3.43405 19.2351 3.52805 19.0254 3.83298 19.0485C4.25255 19.0715 4.69504 19.1429 5.13983 19.166C5.2109 19.166 5.63047 19.0231 5.37139 19.0001L4.9289 18.931C4.57811 18.8595 4.25255 18.8112 3.92469 18.742C4.25255 18.5093 4.25255 18.5093 4.71797 18.6245C4.93086 18.6688 5.14131 18.7241 5.34846 18.7904C5.63047 18.8595 5.53647 18.6499 5.65339 18.3918C5.86203 18.0163 5.27968 17.9218 4.97475 17.7329C4.69504 17.5693 4.71797 17.5001 4.69504 17.1937C5.0229 17.4287 5.30261 17.5923 5.60754 17.8273C5.91018 18.0854 6.07296 17.9679 5.72217 17.7098C5.37139 17.4518 5.04583 17.2168 4.71797 16.9587L4.62626 16.2329C4.90597 16.1868 5.16275 16.0901 5.34846 16.3481L6.18989 17.3826C6.21282 17.4057 6.56131 17.5923 6.44667 17.4057L6.18989 17.0301C5.97896 16.749 5.79325 16.491 5.60525 16.2076C5.95603 16.256 6.00189 16.256 6.18989 16.5831C6.26096 16.7721 6.40082 16.961 6.49253 17.1453C6.6576 17.3826 6.77453 17.1684 7.03131 17.0762C7.31102 16.9817 7.26288 17.0301 7.1918 16.749C7.14595 16.514 7.10009 16.3481 7.03131 16.1154C6.93731 15.809 7.03131 15.7859 7.21702 15.5279C7.2881 15.9034 7.33395 16.256 7.40502 16.6315C7.4761 17.0071 7.65951 17.0301 7.59073 16.6315C7.51966 16.2329 7.49673 15.7859 7.42795 15.3873L7.87044 14.7998C8.08137 15.0348 8.29001 15.1293 8.26708 15.4357C8.19601 15.8574 8.17308 16.302 8.1043 16.749C8.1043 16.8205 8.24645 17.2168 8.26937 16.9817L8.36108 16.514C8.43216 16.1615 8.4803 15.832 8.54909 15.5048C8.80587 15.8574 8.80587 15.8574 8.70957 16.2329C8.66372 16.4656 8.61787 16.6315 8.54909 16.8642C8.50094 17.1707 8.73479 17.0785 8.99158 17.1937C9.25065 17.3573 9.15436 17.3573 9.31944 17.0992C9.41114 16.9126 9.53036 16.7237 9.645 16.5371C9.81008 16.256 9.87886 16.279 10.1838 16.256C9.97286 16.5831 9.76193 16.8642 9.53036 17.1707C9.27129 17.5232 9.38822 17.6637 9.645 17.3343C9.90178 17.0301 10.1838 16.6776 10.4406 16.3712L11.1169 16.3481C11.1169 16.6315 11.2109 16.8896 10.9541 17.0762C10.6034 17.3573 10.2526 17.6154 9.92471 17.8987C9.90178 17.9218 9.71607 18.272 9.90178 18.1568L10.2755 17.8987L11.1169 17.3343C11.0458 17.7329 11.0458 17.7329 10.7203 17.9218L10.7203 17.9218C10.5323 17.9909 10.3443 18.1338 10.1609 18.2259C9.90178 18.3665 10.0898 18.4379 10.1838 18.696C10.3007 19.0715 10.7891 18.7651 11.1169 18.6729C11.4196 18.5784 11.4448 18.6245 11.7016 18.8595C11.3278 18.931 10.9771 18.9793 10.6034 19.0485C10.2296 19.1199 10.2067 19.3042 10.6034 19.2351C11 19.1637 11.4448 19.1406 11.8414 19.0715L12.4008 19.5162Z" fill="#FAD400"/>
<rect x="24.5" y="24.5" width="19" height="19" rx="9.5" fill="white"/>
<rect x="24.5" y="24.5" width="19" height="19" rx="9.5" stroke="#EAECF0"/>
<path d="M32.9219 34.0003C32.9219 34.6483 33.4457 35.1722 34.0938 35.1722C34.7418 35.1722 35.2656 34.6483 35.2656 34.0003C35.2656 33.5819 35.043 33.1952 34.6797 32.9854C34.3164 32.7757 33.8711 32.7757 33.5078 32.9854C33.1445 33.1952 32.9219 33.5819 32.9219 34.0003ZM29.4062 34.0003C29.4062 34.6483 29.9301 35.1722 30.5781 35.1722C31.2262 35.1722 31.75 34.6483 31.75 34.0003C31.75 33.5819 31.5273 33.1952 31.1641 32.9854C30.8008 32.7757 30.3555 32.7757 29.9922 32.9854C29.6289 33.1952 29.4062 33.5819 29.4062 34.0003ZM36.4375 34.0003C36.4375 34.6483 36.9613 35.1722 37.6094 35.1722C38.2574 35.1722 38.7812 34.6483 38.7812 34.0003C38.7812 33.5819 38.5586 33.1952 38.1953 32.9854C37.832 32.7757 37.3867 32.7757 37.0234 32.9854C36.6602 33.1952 36.4375 33.5819 36.4375 34.0003Z" fill="#2B2B2B"/>
<defs>
<clipPath id="clip0_4686_12024">
<rect width="36" height="36" fill="white" transform="matrix(-1 0 0 -1 38 38)"/>
</clipPath>
</defs>
</svg>
