<svg width="44" height="44" viewBox="0 0 44 44" fill="none" xmlns="http://www.w3.org/2000/svg">
<g clip-path="url(#clip0_4686_12733)">
<path d="M38 20C38 15.2261 36.1036 10.6477 32.7279 7.27208C29.3523 3.89642 24.7739 2 20 2C15.2261 2 10.6477 3.89642 7.27208 7.27208C3.89642 10.6477 2 15.2261 2 20C2 24.7739 3.89642 29.3523 7.27208 32.7279C10.6477 36.1036 15.2261 38 20 38C24.7739 38 29.3523 36.1036 32.7279 32.7279C36.1036 29.3523 38 24.7739 38 20Z" fill="#FF0000"/>
<path d="M19.9992 15.822L14.0594 11.5986L16.3178 18.4644L10.4007 22.8458L17.7181 22.8458L19.9992 29.5986L22.2125 22.8458H29.5977L23.703 18.4644L25.9389 11.5986L19.9992 15.822Z" fill="#FFE62E"/>
</g>
<path d="M0 20.0002C0 25.3042 2.10714 30.391 5.85786 34.1415C9.60859 37.8919 14.6957 39.999 20 39.999C25.3043 39.999 30.3914 37.8919 34.1421 34.1415C37.8929 30.391 40 25.3042 40 20.0002C40 14.6962 37.8929 9.60945 34.1421 5.85896C30.3914 2.10847 25.3043 0.00146484 20 0.00146484C14.6957 0.00146484 9.60859 2.10847 5.85786 5.85896C2.10714 9.60945 0 14.6962 0 20.0002Z" fill="white"/>
<path d="M20.001 20.0005L5.59375 33.8687C8.41453 36.8043 12.0657 38.8071 16.0574 39.6083C19.2263 40.2452 22.5023 40.1044 25.6048 39.1982C28.7074 38.292 31.5441 36.6473 33.8719 34.405C35.8089 32.54 37.3487 30.3024 38.3985 27.827C39.4484 25.3515 39.9867 22.6893 39.981 20.0005H20.0028H20.001Z" fill="#CE1126"/>
<path d="M20.001 19.9999L5.59375 6.12801C8.41557 3.19349 12.0673 1.192 16.0592 0.392003C19.2281 -0.244813 22.5041 -0.10409 25.6067 0.802117C28.7092 1.70833 31.5459 3.35301 33.8737 5.59531C35.811 7.46058 37.3508 9.69841 38.4007 12.1742C39.4506 14.65 39.9887 17.3125 39.9828 20.0017H20.0028L20.001 19.9999Z" fill="#0038A8"/>
<path d="M5.07026 28.0991L4.34844 27.7827L3.84844 28.3754L3.92299 27.6173L3.20117 27.3209L3.95935 27.1355L4.01572 26.3755L4.40481 27.0428L5.16299 26.8391L4.64481 27.4318L5.07208 28.0991H5.07026ZM14.2194 20.6177L14.663 19.9887L14.2194 19.3578L14.9412 19.5996L15.3866 18.9505V19.7105L16.1266 19.9505L15.4048 20.1723V20.9686L14.9412 20.3214L14.2194 20.6177ZM5.07026 11.8764L4.34663 12.1928L3.84663 11.6001L3.92117 12.3582L3.21754 12.6928L3.97754 12.84L4.03208 13.6L4.42117 12.9327L5.18117 13.1182L4.66299 12.5437L5.07026 11.8764Z" fill="#FAD400"/>
<path d="M12.4018 19.5167L12.0052 19.9637L10.3957 19.7056C10.1848 19.6595 10.4186 19.8922 10.4874 19.8922L10.9551 19.989C11.2348 20.0581 11.5145 20.0812 11.7942 20.1503C11.4458 20.4083 11.4458 20.4083 11.072 20.3162C10.8382 20.2678 10.6731 20.2217 10.4415 20.1503C10.1595 20.0581 10.2535 20.2908 10.1366 20.5259C9.92798 20.9014 10.5103 20.9982 10.8153 21.1825C11.095 21.3484 11.072 21.4175 11.095 21.724C10.8153 21.4889 10.4874 21.3254 10.1825 21.0903C9.87983 20.8784 9.73998 20.9498 10.0678 21.2078C10.4163 21.4659 10.7442 21.7009 11.072 21.959L11.189 22.5903C10.907 22.5903 10.6502 22.7331 10.4645 22.4751L9.62305 21.4406C9.60012 21.4175 9.25163 21.2309 9.36627 21.4175L9.62305 21.7931C9.82565 22.0616 10.0206 22.3359 10.2077 22.6156C9.81105 22.5695 9.81105 22.5695 9.5772 22.2401L9.5772 22.2401C9.48319 22.0511 9.36627 21.8622 9.24934 21.6779C9.13241 21.4429 9.01548 21.6548 8.7587 21.747C8.48128 21.8415 8.52714 21.7931 8.59592 22.0765L8.78392 22.7101C8.8527 23.0142 8.78392 23.0373 8.59592 23.2976C8.47899 22.9198 8.43084 22.5695 8.36206 22.1917C8.29099 21.8184 8.10757 21.7931 8.17635 22.1917C8.2245 22.5926 8.27035 23.0373 8.33913 23.4359L7.89435 24.0004C7.63756 23.8114 7.42893 23.7193 7.45185 23.4128C7.47707 22.9912 7.54586 22.5442 7.56878 22.0995C7.56878 22.0281 7.42664 21.6065 7.40371 21.8645L7.33493 22.3092C7.26385 22.6617 7.218 22.9912 7.14922 23.3184C6.89243 22.9912 6.89243 22.9681 6.98414 22.5926C7.03229 22.3576 7.07814 22.1917 7.14922 21.959C7.24093 21.6779 7.00707 21.77 6.75029 21.6548C6.4935 21.512 6.5875 21.512 6.42472 21.77C6.35573 21.9534 6.24353 22.1347 6.13006 22.3179L6.11979 22.3345C5.95701 22.6156 5.88823 22.5926 5.5833 22.6156C5.77196 22.2963 5.98264 21.9907 6.21379 21.7009C6.47058 21.3484 6.35365 21.2078 6.09686 21.535C5.84008 21.8875 5.56037 22.217 5.30359 22.5465L4.58138 22.6387C4.53324 22.3576 4.43923 22.0995 4.69602 21.9106C5.04842 21.6501 5.39103 21.3765 5.72315 21.0903C5.74608 21.0673 5.93408 20.7148 5.74608 20.8323L5.37237 21.0903L4.53324 21.6525C4.60202 21.2539 4.60202 21.2539 4.92987 21.0673C5.11558 20.9959 5.30359 20.8553 5.4893 20.7609C5.70022 20.5973 5.51222 20.5259 5.42051 20.2701C5.30359 19.8922 4.81295 20.1987 4.48509 20.2931C4.18245 20.3853 4.15952 20.2931 3.90045 20.1042C4.27645 20.0328 4.62724 19.9867 5.00095 19.9153C5.37237 19.8462 5.39759 19.6595 5.00095 19.731C4.60202 19.8001 4.15952 19.8231 3.76289 19.8922L3.20117 19.4476C3.43503 19.2356 3.52903 19.0259 3.83396 19.049C4.25353 19.072 4.69602 19.1434 5.1408 19.1665C5.21188 19.1665 5.63144 19.0236 5.37237 19.0006L4.92987 18.9315C4.57909 18.86 4.25353 18.8116 3.92567 18.7425C4.25353 18.5098 4.25353 18.5098 4.71895 18.625C4.93184 18.6693 5.14229 18.7246 5.34944 18.7909C5.63144 18.86 5.53744 18.6504 5.65437 18.3923C5.86301 18.0167 5.28066 17.9223 4.97573 17.7333C4.69602 17.5698 4.71894 17.5006 4.69602 17.1942C5.02388 17.4292 5.30359 17.5928 5.60852 17.8278C5.91115 18.0859 6.07394 17.9684 5.72315 17.7103C5.37237 17.4523 5.0468 17.2172 4.71895 16.9592L4.62724 16.2334C4.90695 16.1873 5.16373 16.0906 5.34944 16.3486L6.19086 17.3831C6.21379 17.4062 6.56228 17.5928 6.44765 17.4062L6.19086 17.0306C5.97994 16.7495 5.79423 16.4915 5.60622 16.2081C5.95701 16.2565 6.00286 16.2565 6.19086 16.5836C6.26194 16.7726 6.40179 16.9615 6.4935 17.1458C6.65858 17.3831 6.77551 17.1689 7.03229 17.0767C7.312 16.9822 7.26385 17.0306 7.19278 16.7495C7.14692 16.5145 7.10107 16.3486 7.03229 16.1159C6.93829 15.8095 7.03229 15.7864 7.218 15.5284C7.28907 15.9039 7.33493 16.2565 7.406 16.632C7.47707 17.0076 7.66049 17.0306 7.59171 16.632C7.52064 16.2334 7.49771 15.7864 7.42893 15.3878L7.87142 14.8003C8.08235 15.0353 8.29099 15.1298 8.26806 15.4362C8.19699 15.8579 8.17406 16.3025 8.10528 16.7495C8.10528 16.8209 8.24742 17.2172 8.27035 16.9822L8.36206 16.5145C8.43313 16.162 8.48128 15.8325 8.55006 15.5053C8.80685 15.8579 8.80685 15.8579 8.71055 16.2334C8.6647 16.4661 8.61884 16.632 8.55006 16.8647C8.50191 17.1712 8.73577 17.079 8.99255 17.1942C9.25163 17.3578 9.15534 17.3578 9.32041 17.0997C9.41212 16.9131 9.53134 16.7242 9.64598 16.5375C9.81105 16.2565 9.87983 16.2795 10.1848 16.2565C9.97383 16.5836 9.7629 16.8647 9.53134 17.1712C9.27226 17.5237 9.38919 17.6642 9.64598 17.3347C9.90276 17.0306 10.1848 16.6781 10.4415 16.3717L11.1179 16.3486C11.1179 16.632 11.2119 16.8901 10.9551 17.0767C10.6043 17.3578 10.2535 17.6158 9.92569 17.8992C9.90276 17.9223 9.71705 18.2725 9.90276 18.1573L10.2765 17.8992L11.1179 17.3347C11.0468 17.7333 11.0468 17.7333 10.7213 17.9223L10.7213 17.9223C10.5333 17.9914 10.3453 18.1343 10.1618 18.2264C9.90276 18.367 10.0908 18.4384 10.1848 18.6964C10.3017 19.072 10.79 18.7656 11.1179 18.6734C11.4205 18.5789 11.4458 18.625 11.7025 18.86C11.3288 18.9315 10.978 18.9798 10.6043 19.049C10.2306 19.1204 10.2077 19.3047 10.6043 19.2356C11.001 19.1642 11.4458 19.1411 11.8424 19.072L12.4018 19.5167Z" fill="#FAD400"/>
<rect x="24.5" y="24.5" width="19" height="19" rx="9.5" fill="white"/>
<rect x="24.5" y="24.5" width="19" height="19" rx="9.5" stroke="#EAECF0"/>
<path d="M32.9219 33.9998C32.9219 34.6479 33.4457 35.1717 34.0938 35.1717C34.7418 35.1717 35.2656 34.6479 35.2656 33.9998C35.2656 33.5814 35.043 33.1947 34.6797 32.985C34.3164 32.7752 33.8711 32.7752 33.5078 32.985C33.1445 33.1947 32.9219 33.5814 32.9219 33.9998ZM29.4062 33.9998C29.4062 34.6479 29.9301 35.1717 30.5781 35.1717C31.2262 35.1717 31.75 34.6479 31.75 33.9998C31.75 33.5814 31.5273 33.1947 31.1641 32.985C30.8008 32.7752 30.3555 32.7752 29.9922 32.985C29.6289 33.1947 29.4062 33.5814 29.4062 33.9998ZM36.4375 33.9998C36.4375 34.6479 36.9613 35.1717 37.6094 35.1717C38.2574 35.1717 38.7812 34.6479 38.7812 33.9998C38.7812 33.5814 38.5586 33.1947 38.1953 32.985C37.832 32.7752 37.3867 32.7752 37.0234 32.985C36.6602 33.1947 36.4375 33.5814 36.4375 33.9998Z" fill="#2B2B2B"/>
<defs>
<clipPath id="clip0_4686_12733">
<rect width="36" height="36" fill="white" transform="matrix(-1 0 0 -1 38 38)"/>
</clipPath>
</defs>
</svg>
