<svg width="40" height="40" viewBox="0 0 40 40" fill="none" xmlns="http://www.w3.org/2000/svg">
<g clip-path="url(#clip0_4686_12726)">
<path d="M-10 0H50V40H-10V0Z" fill="white"/>
<path d="M-10 0H50V13.3333H-10V0Z" fill="#FF6820"/>
<path d="M-10 26.6665H50V39.9998H-10V26.6665Z" fill="#046A38"/>
<path d="M20.0007 26.1668C23.4064 26.1668 26.1673 23.4059 26.1673 20.0002C26.1673 16.5944 23.4064 13.8335 20.0007 13.8335C16.5949 13.8335 13.834 16.5944 13.834 20.0002C13.834 23.4059 16.5949 26.1668 20.0007 26.1668Z" fill="#07038D"/>
<path d="M19.9993 25.3332C22.9449 25.3332 25.3327 22.9454 25.3327 19.9998C25.3327 17.0543 22.9449 14.6665 19.9993 14.6665C17.0538 14.6665 14.666 17.0543 14.666 19.9998C14.666 22.9454 17.0538 25.3332 19.9993 25.3332Z" fill="white"/>
<path d="M20.0003 21.0664C20.5894 21.0664 21.0669 20.5889 21.0669 19.9998C21.0669 19.4107 20.5894 18.9331 20.0003 18.9331C19.4112 18.9331 18.9336 19.4107 18.9336 19.9998C18.9336 20.5889 19.4112 21.0664 20.0003 21.0664Z" fill="#07038D"/>
<path d="M19.9988 14.6665L20.1988 17.8758L19.9988 19.4652L19.7988 17.8758L19.9988 14.6665Z" fill="#07038D"/>
<path d="M20.6646 14.9433C20.7923 14.9601 20.9095 14.8702 20.9264 14.7424C20.9432 14.6147 20.8532 14.4975 20.7255 14.4807C20.5977 14.4638 20.4805 14.5538 20.4637 14.6815C20.4469 14.8093 20.5368 14.9265 20.6646 14.9433Z" fill="#07038D"/>
<path d="M19.9992 25.333L19.7992 22.1237L19.9992 20.5343L20.1992 22.1237L19.9992 25.333Z" fill="#07038D"/>
<path d="M19.3335 25.0562C19.2057 25.0394 19.0885 25.1293 19.0717 25.2571C19.0549 25.3848 19.1448 25.502 19.2726 25.5189C19.4003 25.5357 19.5175 25.4457 19.5344 25.318C19.5512 25.1902 19.4612 25.073 19.3335 25.0562Z" fill="#07038D"/>
<path d="M21.3787 14.8462L20.7413 17.9979L20.1367 19.4814L20.3549 17.8944L21.3787 14.8462Z" fill="#07038D"/>
<path d="M21.9491 15.2861C22.0682 15.3354 22.2046 15.2788 22.254 15.1598C22.3033 15.0407 22.2467 14.9042 22.1277 14.8549C22.0086 14.8056 21.8721 14.8621 21.8228 14.9812C21.7735 15.1003 21.83 15.2367 21.9491 15.2861Z" fill="#07038D"/>
<path d="M18.6174 25.1489L19.2548 21.9972L19.8593 20.5138L19.6412 22.1007L18.6174 25.1489Z" fill="#07038D"/>
<path d="M18.047 24.7091C17.9279 24.6597 17.7914 24.7163 17.7421 24.8353C17.6928 24.9544 17.7494 25.0909 17.8684 25.1402C17.9875 25.1895 18.124 25.133 18.1733 25.0139C18.2226 24.8949 18.1661 24.7584 18.047 24.7091Z" fill="#07038D"/>
<path d="M22.6673 15.3813L21.2359 18.2606L20.268 19.537L20.8895 18.0606L22.6673 15.3813Z" fill="#07038D"/>
<path d="M23.1042 15.9542C23.2064 16.0326 23.3529 16.0133 23.4313 15.9111C23.5098 15.8089 23.4905 15.6624 23.3882 15.5839C23.286 15.5055 23.1395 15.5248 23.0611 15.627C22.9826 15.7292 23.0019 15.8757 23.1042 15.9542Z" fill="#07038D"/>
<path d="M17.3327 24.6192L18.7641 21.7399L19.732 20.4635L19.1105 21.9399L17.3327 24.6192Z" fill="#07038D"/>
<path d="M16.8958 24.0463C16.7936 23.9679 16.6471 23.9872 16.5687 24.0894C16.4902 24.1916 16.5095 24.3381 16.6118 24.4165C16.714 24.495 16.8605 24.4757 16.9389 24.3735C17.0174 24.2712 16.9981 24.1248 16.8958 24.0463Z" fill="#07038D"/>
<path d="M23.7723 16.2293L21.6444 18.6401L20.3791 19.6225L21.3615 18.3572L23.7723 16.2293Z" fill="#07038D"/>
<path d="M24.0472 16.896C24.1257 16.9982 24.2721 17.0175 24.3744 16.939C24.4766 16.8606 24.4959 16.7141 24.4174 16.6119C24.339 16.5096 24.1925 16.4904 24.0903 16.5688C23.988 16.6473 23.9688 16.7937 24.0472 16.896Z" fill="#07038D"/>
<path d="M16.2277 23.7717L18.3556 21.3609L19.6209 20.3785L18.6385 21.6437L16.2277 23.7717Z" fill="#07038D"/>
<path d="M15.9528 23.105C15.8743 23.0028 15.7279 22.9835 15.6256 23.0619C15.5234 23.1404 15.5041 23.2869 15.5826 23.3891C15.661 23.4913 15.8075 23.5106 15.9097 23.4322C16.012 23.3537 16.0312 23.2073 15.9528 23.105Z" fill="#07038D"/>
<path d="M24.6195 17.3338L21.9402 19.1117L20.4638 19.7332L21.7402 18.7653L24.6195 17.3338Z" fill="#07038D"/>
<path d="M24.7128 18.0489C24.7622 18.168 24.8986 18.2245 25.0177 18.1752C25.1368 18.1259 25.1933 17.9894 25.144 17.8704C25.0947 17.7513 24.9582 17.6948 24.8391 17.7441C24.7201 17.7934 24.6635 17.9299 24.7128 18.0489Z" fill="#07038D"/>
<path d="M15.3824 22.6666L18.0618 20.8888L19.5382 20.2673L18.2618 21.2352L15.3824 22.6666Z" fill="#07038D"/>
<path d="M15.2891 21.9515C15.2398 21.8325 15.1033 21.776 14.9843 21.8253C14.8652 21.8746 14.8087 22.0111 14.858 22.1301C14.9073 22.2492 15.0438 22.3057 15.1628 22.2564C15.2819 22.2071 15.3384 22.0706 15.2891 21.9515Z" fill="#07038D"/>
<path d="M25.1514 18.6195L22.1032 19.6433L20.5162 19.8614L21.9996 19.2569L25.1514 18.6195Z" fill="#07038D"/>
<path d="M25.0561 19.3342C25.0729 19.462 25.1901 19.5519 25.3179 19.5351C25.4456 19.5183 25.5356 19.4011 25.5187 19.2733C25.5019 19.1456 25.3847 19.0556 25.2569 19.0724C25.1292 19.0893 25.0392 19.2065 25.0561 19.3342Z" fill="#07038D"/>
<path d="M14.8486 21.3801L17.8968 20.3562L19.4838 20.1381L18.0004 20.7426L14.8486 21.3801Z" fill="#07038D"/>
<path d="M14.9439 20.6653C14.9271 20.5375 14.8099 20.4476 14.6821 20.4644C14.5544 20.4812 14.4644 20.5984 14.4813 20.7262C14.4981 20.8539 14.6153 20.9439 14.7431 20.9271C14.8708 20.9102 14.9608 20.793 14.9439 20.6653Z" fill="#07038D"/>
<path d="M25.334 20.0003L22.1247 20.2003L20.5353 20.0003L22.1247 19.8003L25.334 20.0003Z" fill="#07038D"/>
<path d="M25.0576 20.666C25.0408 20.7938 25.1308 20.911 25.2585 20.9278C25.3863 20.9446 25.5035 20.8547 25.5203 20.7269C25.5371 20.5992 25.4472 20.482 25.3194 20.4652C25.1917 20.4483 25.0745 20.5383 25.0576 20.666Z" fill="#07038D"/>
<path d="M14.668 20.0007L17.8773 19.8007L19.4666 20.0007L17.8773 20.2007L14.668 20.0007Z" fill="#07038D"/>
<path d="M14.9443 19.3349C14.9611 19.2072 14.8712 19.09 14.7434 19.0731C14.6157 19.0563 14.4984 19.1463 14.4816 19.274C14.4648 19.4018 14.5547 19.519 14.6825 19.5358C14.8103 19.5526 14.9275 19.4627 14.9443 19.3349Z" fill="#07038D"/>
<path d="M25.1514 21.3807L21.9996 20.7432L20.5162 20.1387L22.1031 20.3569L25.1514 21.3807Z" fill="#07038D"/>
<path d="M24.712 21.952C24.6627 22.0711 24.7192 22.2076 24.8383 22.2569C24.9573 22.3062 25.0938 22.2497 25.1431 22.1306C25.1924 22.0116 25.1359 21.8751 25.0168 21.8257C24.8978 21.7764 24.7613 21.833 24.712 21.952Z" fill="#07038D"/>
<path d="M14.8486 18.6203L18.0004 19.2577L19.4838 19.8623L17.8969 19.6441L14.8486 18.6203Z" fill="#07038D"/>
<path d="M15.288 18.049C15.3373 17.9299 15.2808 17.7934 15.1617 17.7441C15.0427 17.6948 14.9062 17.7513 14.8569 17.8704C14.8076 17.9894 14.8641 18.1259 14.9832 18.1752C15.1022 18.2245 15.2387 18.168 15.288 18.049Z" fill="#07038D"/>
<path d="M24.6187 22.6664L21.7394 21.2349L20.463 20.267L21.9394 20.8885L24.6187 22.6664Z" fill="#07038D"/>
<path d="M24.0463 23.1046C23.9679 23.2069 23.9872 23.3534 24.0894 23.4318C24.1916 23.5102 24.3381 23.491 24.4165 23.3887C24.495 23.2865 24.4757 23.14 24.3735 23.0616C24.2712 22.9831 24.1248 23.0024 24.0463 23.1046Z" fill="#07038D"/>
<path d="M15.3813 17.3331L18.2606 18.7646L19.537 19.7325L18.0606 19.111L15.3813 17.3331Z" fill="#07038D"/>
<path d="M15.9537 16.8949C16.0321 16.7926 16.0128 16.6462 15.9106 16.5677C15.8084 16.4893 15.6619 16.5085 15.5835 16.6108C15.505 16.713 15.5243 16.8595 15.6265 16.9379C15.7288 17.0164 15.8752 16.9971 15.9537 16.8949Z" fill="#07038D"/>
<path d="M23.7726 23.7713L21.3619 21.6434L20.3795 20.3781L21.6447 21.3605L23.7726 23.7713Z" fill="#07038D"/>
<path d="M23.105 24.0462C23.0028 24.1247 22.9835 24.2711 23.0619 24.3734C23.1404 24.4756 23.2869 24.4949 23.3891 24.4165C23.4913 24.338 23.5106 24.1915 23.4322 24.0893C23.3537 23.9871 23.2073 23.9678 23.105 24.0462Z" fill="#07038D"/>
<path d="M16.2293 16.2287L18.6401 18.3566L19.6225 19.6219L18.3572 18.6395L16.2293 16.2287Z" fill="#07038D"/>
<path d="M16.8969 15.9538C16.9992 15.8753 17.0185 15.7289 16.94 15.6266C16.8616 15.5244 16.7151 15.5051 16.6129 15.5835C16.5106 15.662 16.4913 15.8085 16.5698 15.9107C16.6482 16.0129 16.7947 16.0322 16.8969 15.9538Z" fill="#07038D"/>
<path d="M22.6647 24.6186L20.8868 21.9392L20.2654 20.4628L21.2332 21.7392L22.6647 24.6186Z" fill="#07038D"/>
<path d="M21.9496 24.7119C21.8305 24.7612 21.774 24.8977 21.8233 25.0167C21.8726 25.1358 22.0091 25.1923 22.1282 25.143C22.2472 25.0937 22.3038 24.9572 22.2545 24.8381C22.2051 24.7191 22.0686 24.6625 21.9496 24.7119Z" fill="#07038D"/>
<path d="M17.3334 15.3814L19.1112 18.0608L19.7327 19.5372L18.7648 18.2608L17.3334 15.3814Z" fill="#07038D"/>
<path d="M18.0485 15.2881C18.1675 15.2388 18.224 15.1023 18.1747 14.9833C18.1254 14.8642 17.9889 14.8077 17.8699 14.857C17.7508 14.9063 17.6943 15.0428 17.7436 15.1619C17.7929 15.2809 17.9294 15.3375 18.0485 15.2881Z" fill="#07038D"/>
<path d="M21.381 25.1514L20.3572 22.1032L20.139 20.5162L20.7436 21.9996L21.381 25.1514Z" fill="#07038D"/>
<path d="M20.6667 25.0566C20.539 25.0734 20.449 25.1906 20.4659 25.3183C20.4827 25.4461 20.5999 25.536 20.7276 25.5192C20.8554 25.5024 20.9453 25.3852 20.9285 25.2574C20.9117 25.1297 20.7945 25.0397 20.6667 25.0566Z" fill="#07038D"/>
<path d="M18.619 14.8486L19.6428 17.8968L19.861 19.4838L19.2564 18.0004L18.619 14.8486Z" fill="#07038D"/>
<path d="M19.3333 14.9434C19.461 14.9266 19.551 14.8094 19.5341 14.6817C19.5173 14.5539 19.4001 14.464 19.2724 14.4808C19.1446 14.4976 19.0547 14.6148 19.0715 14.7426C19.0883 14.8703 19.2055 14.9603 19.3333 14.9434Z" fill="#07038D"/>
</g>
<defs>
<clipPath id="clip0_4686_12726">
<rect width="40" height="40" rx="20" fill="white"/>
</clipPath>
</defs>
</svg>
