<svg width="40" height="40" viewBox="0 0 40 40" fill="none" xmlns="http://www.w3.org/2000/svg">
<g clip-path="url(#clip0_4686_12719)">
<path d="M-10 0H66V40H-10" fill="#B22234"/>
<path d="M-10 4.61523H66H-10ZM66 10.7691H-10H66ZM-10 16.9229H66H-10ZM66 23.0768H-10H66ZM-10 29.2306H66H-10ZM66 35.3845H-10H66Z" fill="black"/>
<path d="M65.9994 33.8846V36.8843H-10V33.8846H65.9994ZM65.9994 27.7306V30.7303H-10V27.7306H65.9994ZM65.9994 21.5767V24.5763H-10V21.5767H65.9994ZM65.9994 15.4227V18.4224H-10V15.4227H65.9994ZM65.9994 9.26872V12.27H-10V9.26872H65.9994ZM65.9994 3.11475V6.11605H-10V3.11475H65.9994Z" fill="white"/>
<path d="M-10 0H20.4V21.5385H-10" fill="#3C3B6E"/>
<path d="M0.133414 3.07666L0.85684 5.30314L-1.03711 3.9271H1.30395L-0.590012 5.30314L0.133414 3.07666Z" fill="white"/>
<path d="M0.133414 7.38428L0.85684 9.61076L-1.03711 8.23472H1.30395L-0.590012 9.61076L0.133414 7.38428Z" fill="white"/>
<path d="M0.133414 11.6919L0.85684 13.9184L-1.03711 12.5423H1.30395L-0.590012 13.9184L0.133414 11.6919Z" fill="white"/>
<path d="M0.133414 15.9995L0.85684 18.226L-1.03711 16.85H1.30395L-0.590012 18.226L0.133414 15.9995Z" fill="white"/>
<path d="M2.66662 0.922852L3.39004 3.14933L1.49609 1.77329H3.83715L1.94319 3.14933L2.66662 0.922852Z" fill="white"/>
<path d="M2.66662 5.23047L3.39004 7.45695L1.49609 6.08091H3.83715L1.94319 7.45695L2.66662 5.23047Z" fill="white"/>
<path d="M2.66662 9.53809L3.39004 11.7646L1.49609 10.3885H3.83715L1.94319 11.7646L2.66662 9.53809Z" fill="white"/>
<path d="M2.66662 13.8457L3.39004 16.0722L1.49609 14.6961H3.83715L1.94319 16.0722L2.66662 13.8457Z" fill="white"/>
<path d="M2.66662 18.1538L3.39004 20.3803L1.49609 19.0042H3.83715L1.94319 20.3803L2.66662 18.1538Z" fill="white"/>
<path d="M5.19982 3.07666L5.92325 5.30314L4.0293 3.9271H6.37035L4.47639 5.30314L5.19982 3.07666Z" fill="white"/>
<path d="M5.19982 7.38428L5.92325 9.61076L4.0293 8.23472H6.37035L4.47639 9.61076L5.19982 7.38428Z" fill="white"/>
<path d="M5.19982 11.6919L5.92325 13.9184L4.0293 12.5423H6.37035L4.47639 13.9184L5.19982 11.6919Z" fill="white"/>
<path d="M5.19982 15.9995L5.92325 18.226L4.0293 16.85H6.37035L4.47639 18.226L5.19982 15.9995Z" fill="white"/>
<path d="M7.73302 0.922852L8.45645 3.14933L6.5625 1.77329H8.90356L7.0096 3.14933L7.73302 0.922852Z" fill="white"/>
<path d="M7.73302 5.23047L8.45645 7.45695L6.5625 6.08091H8.90356L7.0096 7.45695L7.73302 5.23047Z" fill="white"/>
<path d="M7.73302 9.53809L8.45645 11.7646L6.5625 10.3885H8.90356L7.0096 11.7646L7.73302 9.53809Z" fill="white"/>
<path d="M7.73302 13.8457L8.45645 16.0722L6.5625 14.6961H8.90356L7.0096 16.0722L7.73302 13.8457Z" fill="white"/>
<path d="M7.73302 18.1538L8.45645 20.3803L6.5625 19.0042H8.90356L7.0096 20.3803L7.73302 18.1538Z" fill="white"/>
<path d="M10.2662 3.07666L10.9897 5.30314L9.0957 3.9271H11.4368L9.5428 5.30314L10.2662 3.07666Z" fill="white"/>
<path d="M10.2662 7.38428L10.9897 9.61076L9.0957 8.23472H11.4368L9.5428 9.61076L10.2662 7.38428Z" fill="white"/>
<path d="M10.2662 11.6919L10.9897 13.9184L9.0957 12.5423H11.4368L9.5428 13.9184L10.2662 11.6919Z" fill="white"/>
<path d="M10.2662 15.9995L10.9897 18.226L9.0957 16.85H11.4368L9.5428 18.226L10.2662 15.9995Z" fill="white"/>
<path d="M12.8014 0.922852L13.5248 3.14933L11.6309 1.77329H13.9719L12.078 3.14933L12.8014 0.922852Z" fill="white"/>
<path d="M12.8014 5.23047L13.5248 7.45695L11.6309 6.08091H13.9719L12.078 7.45695L12.8014 5.23047Z" fill="white"/>
<path d="M12.8014 9.53809L13.5248 11.7646L11.6309 10.3885H13.9719L12.078 11.7646L12.8014 9.53809Z" fill="white"/>
<path d="M12.8014 13.8457L13.5248 16.0722L11.6309 14.6961H13.9719L12.078 16.0722L12.8014 13.8457Z" fill="white"/>
<path d="M12.8014 18.1538L13.5248 20.3803L11.6309 19.0042H13.9719L12.078 20.3803L12.8014 18.1538Z" fill="white"/>
<path d="M15.3346 3.07666L16.058 5.30314L14.1641 3.9271H16.5051L14.6112 5.30314L15.3346 3.07666Z" fill="white"/>
<path d="M15.3346 7.38428L16.058 9.61076L14.1641 8.23472H16.5051L14.6112 9.61076L15.3346 7.38428Z" fill="white"/>
<path d="M15.3346 11.6919L16.058 13.9184L14.1641 12.5423H16.5051L14.6112 13.9184L15.3346 11.6919Z" fill="white"/>
<path d="M15.3346 15.9995L16.058 18.226L14.1641 16.85H16.5051L14.6112 18.226L15.3346 15.9995Z" fill="white"/>
<path d="M17.8678 0.922852L18.5912 3.14933L16.6973 1.77329H19.0383L17.1444 3.14933L17.8678 0.922852Z" fill="white"/>
<path d="M17.8678 5.23047L18.5912 7.45695L16.6973 6.08091H19.0383L17.1444 7.45695L17.8678 5.23047Z" fill="white"/>
<path d="M17.8678 9.53809L18.5912 11.7646L16.6973 10.3885H19.0383L17.1444 11.7646L17.8678 9.53809Z" fill="white"/>
<path d="M17.8678 13.8457L18.5912 16.0722L16.6973 14.6961H19.0383L17.1444 16.0722L17.8678 13.8457Z" fill="white"/>
<path d="M17.8678 18.1538L18.5912 20.3803L16.6973 19.0042H19.0383L17.1444 20.3803L17.8678 18.1538Z" fill="white"/>
</g>
<defs>
<clipPath id="clip0_4686_12719">
<rect width="40" height="40" rx="20" fill="white"/>
</clipPath>
</defs>
</svg>
