<svg width="80" height="80" viewBox="0 0 80 80" fill="none" xmlns="http://www.w3.org/2000/svg">
<rect width="80" height="80" rx="8" fill="#008061"/>
<path d="M16.2432 17.1538H63.7987V63.1738H16.2432V17.1538Z" fill="white"/>
<path d="M16 16.7998H64V63.4043H16V16.7998Z" fill="#008061"/>
<path d="M45.5949 60.3378V62.2036H34.0823V60.3343H25.3708C24.5195 60.3343 23.8262 59.4452 23.8262 58.349L20.1807 21.5097C20.1807 20.4126 21.0321 19.5229 22.0824 19.5229H57.2859C58.3297 19.5229 59.1808 20.4126 59.1808 21.5095L55.5767 58.349C55.5767 59.4452 54.8831 60.3343 54.032 60.3343L45.5949 60.3378Z" fill="white"/>
<path d="M26.5928 24.917H50.1604C47.8398 25.7863 40.7759 30.5655 39.0116 33.7787H26.6134L26.5928 24.917Z" fill="#F5821F"/>
<path d="M45.3753 50.3091C45.0391 53.5183 45.0252 57.4263 45.0252 61.5311H34.8101C34.8101 57.4263 34.9817 53.5183 35.3181 50.3091H45.3753Z" fill="#ED1B2D"/>
<path d="M29.572 45.6712V46.915H27.9381V48.1593H29.572V49.5849H25.8374V42.9507H29.572V44.4284H27.9381V45.6712H29.572ZM38.256 45.6712V46.915H36.6292V48.1593H38.256V49.5849H34.5285V42.9507H38.256V44.4284H36.6292V45.6712H38.256ZM47.8259 45.6712V46.915H46.192V48.1593H47.8259V49.5849H44.0913V42.9507H47.8259V44.4284H46.192V45.6712H47.8259ZM32.3729 42.9507V48.1593H34.0066V49.5849H30.2722V42.9507H32.3729ZM41.2701 47.4344L40.4734 42.9509H38.6406L39.684 49.5849H42.3819L43.6451 42.9507H42.0869L41.2701 47.4344ZM48.7114 42.9507H50.7299V49.5842H48.7114V42.9507Z" fill="#008061"/>
<path d="M50.73 44.9204C50.84 44.1939 51.8697 44.3888 51.8697 44.8038V49.5851H53.8948V43.9623C53.8948 42.7701 52.2128 42.2906 50.7439 43.3402L50.73 44.9206V44.9204Z" fill="#008061"/>
<path d="M46.3225 42.0184C46.5284 39.4795 50.009 35.3335 53.3797 34.2449V24.4502C44.1051 28.5964 38.0776 34.867 36.7734 41.9937L46.3225 42.0184Z" fill="#ED1B2D"/>
</svg>
