<svg xmlns="http://www.w3.org/2000/svg" width="80" height="80" fill="none" viewBox="0 0 80 80"><rect width="80" height="80" fill="#008061" rx="8"/><path fill="#fff" d="M16.243 17.154H63.8v46.02H16.243z"/><path fill="#008061" d="M16 16.8h48v46.604H16z"/><path fill="#fff" d="M45.595 60.338v1.866H34.082v-1.87h-8.711c-.851 0-1.545-.889-1.545-1.985l-3.645-36.84c0-1.096.851-1.986 1.901-1.986h35.204c1.044 0 1.895.89 1.895 1.986l-3.604 36.84c0 1.096-.694 1.985-1.545 1.985z"/><path fill="#f5821f" d="M26.593 24.917H50.16c-2.32.87-9.384 5.648-11.148 8.862H26.613z"/><path fill="#ed1b2d" d="M45.375 50.31c-.336 3.208-.35 7.116-.35 11.221H34.81c0-4.105.172-8.013.508-11.222z"/><path fill="#008061" d="M29.572 45.671v1.244h-1.634v1.244h1.634v1.426h-3.735V42.95h3.735v1.477h-1.634v1.243zm8.684 0v1.244h-1.627v1.244h1.627v1.426h-3.727V42.95h3.727v1.477h-1.627v1.243zm9.57 0v1.244h-1.634v1.244h1.634v1.426H44.09V42.95h3.735v1.477h-1.634v1.243zm-15.453-2.72v5.208h1.634v1.426h-3.735V42.95zm8.897 4.483-.797-4.483h-1.832l1.043 6.634h2.698l1.263-6.634h-1.558zm7.441-4.483h2.019v6.633h-2.02z"/><path fill="#008061" d="M50.73 44.92c.11-.726 1.14-.531 1.14-.116v4.781h2.025v-5.623c0-1.192-1.682-1.671-3.151-.622z"/><path fill="#ed1b2d" d="M46.323 42.018c.205-2.538 3.686-6.684 7.057-7.773V24.45c-9.275 4.146-15.302 10.417-16.607 17.544z"/></svg>