<svg xmlns="http://www.w3.org/2000/svg" width="80" height="80" fill="none" viewBox="0 0 80 80"><g clip-path="url(#a)"><rect width="80" height="80" fill="#00a1e9" rx="8"/><path fill="#fff" d="M46.657 44.725c3.294-5.966 4.474-11.652 4.474-11.652H40.07v-4.195h13.143v-1.802H40.07V20.8h-5.997v6.276H22.111v1.802h11.962v4.195h-10.16v1.802h20.631c0 .31 0 .31-.31.59 0 2.082-1.492 5.065-2.704 7.488-15.225-5.996-19.73-2.392-20.91-1.802-10.16 7.178-.59 16.157.9 15.847 10.751 2.392 17.649-2.082 22.434-7.768.31.31.59.31.9.31 3.294 1.803 19.14 9.26 19.14 9.26v-8.98c-2.392-.03-11.06-3.014-17.337-5.095m-7.768 2.672c-7.488 9.57-16.436 6.587-17.928 5.965-3.573-.9-4.785-7.488-.31-9.57 7.488-2.392 14.044.311 18.829 2.704-.311.621-.59.9-.59.9"/></g><defs><clipPath id="a"><rect width="80" height="80" fill="#fff" rx="8"/></clipPath></defs></svg>