<svg xmlns="http://www.w3.org/2000/svg" width="80" height="80" fill="none" viewBox="0 0 80 80"><rect width="79" height="79" x=".5" y=".5" fill="#fff" rx="7.5"/><rect width="79" height="79" x=".5" y=".5" stroke="#eee" rx="7.5"/><path fill="#5b9edd" d="M32.437 33.184c.986 0 1.786-.712 1.786-1.592S33.423 30 32.437 30s-1.786.713-1.786 1.592.8 1.592 1.786 1.592"/><path fill="#3d3a39" d="M24.622 31.74v13.765h3.325V30.972h-2.552a.77.77 0 0 0-.773.767m6.152 3.875v9.895h3.324V34.841h-2.55a.773.773 0 0 0-.774.773m12.33-1.021a4.58 4.58 0 0 0-3.051 1.213v-.965H37.5a.773.773 0 0 0-.773.773v14.162h3.325V45.08c.61.447 1.353.677 2.108.653 3.101 0 5.483-2.68 5.483-6.053s-2.455-5.087-4.54-5.087m-1.092 9.997c-.681 0-1.404-.644-1.96-1.29v-5.722c.519-.514 1.398-1.252 2.16-1.252 1.14 0 2.2 1.563 2.2 3.846s-1.035 4.418-2.4 4.418m11.959-9.997c-2.935 0-3.895.62-3.895.62l.348.745s1.092-.404 2.878-.404c1.984 0 2.183 1.067 2.183 2.382v.613a8.2 8.2 0 0 0-2.258-.316c-1.513 0-4.193.596-4.193 3.697s2.382 3.796 3.945 3.796c.916 0 1.87-.475 2.506-.87v.647h3.324v-7.562c0-2.232-1.91-3.348-4.838-3.348m-.198 9.724c-1.39 0-2.257-.819-2.257-2.331s1.538-2.457 2.753-2.457c.612 0 .99.195 1.216.389v3.707a2.63 2.63 0 0 1-1.712.692M72 34.593h-2.23l-2.994 6.816-.082-.16-3.412-6.657h-3.406l5.204 10.154.124.244-.541 1.24c-.84 1.667-3.247 1.555-3.247 1.555v1.396q.893.072 1.787 0c.714-.082 2.305-.558 3.081-2.201l1.59-3.441zm-55.595-3.621h-1.411l-1.146 2.381L8 45.507h2.248l1.156-2.407h6.965l1.116 2.407h3.67L16.817 31.86zm1.491 11.114h-6.001l3.055-6.351z"/></svg>