<svg xmlns="http://www.w3.org/2000/svg" width="80" height="80" fill="none" viewBox="0 0 80 80"><rect width="80" height="80" fill="#ea5404" rx="8"/><path fill="#fff" d="M25.886 40.762a10.3 10.3 0 0 1-1.308 2.98c-1.717 2.622-3.992 3.633-5.576 3.724-1.716-.084-1.896-1.095-1.203-3.678 2.388-8.925 7.772-10.942 10.349-11.472zm38.952-4.095c-2.3 3.513-4.947 7.214-7.102 9.241-1.411 1.33-4.387 3.22-3.193-1.24.34-1.275 3.925-14.657 3.925-14.657-.962 0-5.748-.258-7.348 5.704l-1.447 5.383a10.1 10.1 0 0 1-1.212 2.643c-1.716 2.623-3.991 3.634-5.576 3.725-.93-.045-1.376-.375-1.537-1.042-.159-.648.16-1.981.333-2.63l3.69-13.783c-.513-.007-5.686-.482-7.347 5.704l-1.749 6.495a7.2 7.2 0 0 1-.917 1.924c-1.12 1.613-3.113 3.332-4.169 3.332-.751 0-1.05-.861-.531-2.798l3.925-14.657h-1.74c-6.156 0-10.542.992-13.8 3.119-5.465 3.565-6.844 10.624-6.844 12.076 0 1.55.477 4.792 5.857 4.792 3.358 0 5.728-1.763 7.152-3.388l.163-.188c.112.765.38 1.599.953 2.268.71.828 2.05 1.308 3.335 1.308 2.834 0 5.254-1.9 6.541-3.571l.002.005c.333 1.602 1.55 3.568 5.74 3.568 3.357 0 5.727-1.762 7.15-3.388q.084-.092.161-.185c.114.763.38 1.595.954 2.263l.06.066.018.019c.707.754 2.088 1.222 3.21 1.222 2.433 0 4.831-1.392 6.85-3.52 2.622-2.763 6.067-7.742 7.457-9.81"/></svg>