<svg xmlns="http://www.w3.org/2000/svg" width="80" height="80" fill="none" viewBox="0 0 80 80"><rect width="79" height="79" x=".5" y=".5" fill="#fff" rx="7.5"/><rect width="79" height="79" x=".5" y=".5" stroke="#eee" rx="7.5"/><path fill="url(#a)" d="M40.197 35.277c2.472-3.096 6.063-3.735 8.668-2.24 3.998 2.292 3.897 10.425-1.558 15.495-1.352 1.258-6.344 5.242-13.453 3.618-7.183-1.641-12.174-7.928-12.704-14.76l.001-.002c-.229-2.186.236-4.66 1.335-7.046A19.9 19.9 0 0 0 20 40.06c.033 11.045 9.012 19.973 20.059 19.94 11.046-.031 19.973-9.011 19.94-20.057l-.006-.22c-.6-5.574-3.717-9.405-9.635-9.722q-.263-.015-.533-.014c-3.097 0-6.807 1.424-9.628 5.291"/><path fill="url(#b)" d="M39.942 20c-7.522.022-14.059 4.195-17.456 10.342-1.099 2.386-1.564 4.86-1.335 7.046.33 3.132 2.085 5.676 5.465 6.518 4.893 1.223 8.759-1.537 13.263-8.178q.157-.23.318-.451c2.984-4.092 6.964-5.449 10.16-5.277 5.919.317 9.036 4.147 9.636 9.72C59.844 28.8 50.945 20 40.001 20z"/><path fill="url(#c)" d="M40.197 35.277q-.162.22-.318.452c-4.504 6.64-8.37 9.4-13.263 8.178-3.38-.843-5.136-3.387-5.465-6.518h-.001c.53 6.834 5.52 13.12 12.704 14.76 7.109 1.625 12.101-2.36 13.452-3.617 5.456-5.07 5.557-13.203 1.56-15.496a5.87 5.87 0 0 0-2.93-.771c-1.998 0-4.11.973-5.74 3.012"/><defs><linearGradient id="a" x1="52.367" x2="26.173" y1="28.108" y2="54.456" gradientUnits="userSpaceOnUse"><stop stop-color="#fff"/><stop offset=".1" stop-color="#fff"/><stop offset=".763" stop-color="#00a9de"/><stop offset="1" stop-color="#00a9de"/></linearGradient><linearGradient id="b" x1="33.997" x2="47.322" y1="48.026" y2="24.119" gradientUnits="userSpaceOnUse"><stop stop-color="#fff"/><stop offset="1" stop-color="#00a9de"/></linearGradient><linearGradient id="c" x1="27.704" x2="46.428" y1="49.531" y2="30.697" gradientUnits="userSpaceOnUse"><stop stop-color="#fff"/><stop offset=".05" stop-color="#fff"/><stop offset=".539" stop-color="#00a9de"/><stop offset="1" stop-color="#00a9de"/></linearGradient></defs></svg>