<svg xmlns="http://www.w3.org/2000/svg" width="80" height="80" fill="none" viewBox="0 0 80 80"><rect width="79" height="79" x=".5" y=".5" fill="#fff" rx="7.5"/><rect width="79" height="79" x=".5" y=".5" stroke="#eee" rx="7.5"/><path fill="#cc262d" fill-rule="evenodd" d="m22.377 37.92 1.529-1.528a3 3 0 0 0 .594-.849c.17-.51.255-.849.255-1.104 0-.934-1.02-.51-1.444-.085-.424.595-.934 1.104-1.443 1.699zm2.124 5.775c1.019-.764 1.783-1.36 2.208-1.954.51-.594.594-1.783.34-2.548-.255-.595-.765-.764-1.784-.255-.595.594-1.188 1.274-1.868 1.868.255 1.276.595 2.38 1.104 2.89m14.692-20.552c4.247-.255 6.88 1.104 7.644 3.992-1.613.255-3.142.51-4.756.764-.509-1.274-1.528-2.123-3.141-1.868-2.377.34-3.397 1.359-3.397 3.736.254 3.397 1.53 5.01 4.161 5.265 2.377 0 3.737-1.36 3.483-3.992 1.613-.17 3.312-.34 5.01-.51.85 4.416-.849 7.304-5.265 8.578-2.378.596-5.096 1.019-7.39.34-2.971-.934-5.435-4.417-5.604-7.475-.17-2.887 1.443-6.114 4.076-7.558 1.357-.678 3.057-1.102 5.18-1.272m.85-3.143c-4.757 0-9.003 1.36-12.4 4.247-3.652 2.886-6.03 6.284-7.134 10.785.595-.849 1.104-1.613 1.614-2.377 1.018-1.613 2.377-2.633 3.652-3.398 2.887-.849 3.482 1.02 1.613 5.775 3.397 0 4.756 2.378 3.907 7.049-.255 1.358-1.02 2.633-2.888 3.736-1.529 1.275-2.632 2.633-3.396 3.907-3.398-2.888-5.011-7.9-4.502-14.438-.254 1.273-.509 2.887-.509 4.756 0 5.521 1.868 10.191 5.775 14.183C29.767 58.131 34.436 60 40.042 60c5.52 0 9.937-1.87 13.929-5.775C57.876 50.232 60 45.562 60 40.042s-2.124-10.277-6.03-14.268C49.98 21.869 45.564 20 40.043 20" clip-rule="evenodd"/></svg>