<svg xmlns="http://www.w3.org/2000/svg" width="80" height="80" fill="none" viewBox="0 0 80 80"><g clip-path="url(#a)"><path fill="#fff" d="M0 0h200v200H0z"/><path fill="#54a857" d="M0 0h80v32.8H0z"/><path fill="#37a8dc" d="M0 50h80v30H0z"/><path fill="#54a857" fill-rule="evenodd" d="M0 34.645h80v-5.271H0z" clip-rule="evenodd"/><path fill="#37a8dc" fill-rule="evenodd" d="M8.988 46.812h1.908l.002-4.227h4.116v-1.91h-4.118v-1.868h4.154v-1.91H8.988zm11.872-4.64c0-.43.064-1.32-1.059-1.946-1.21-.675-3.142-.148-3.703.076v1.496c.816-.508 1.98-.669 2.656-.337.637.313.59.847.466 1.057-.15-.037-.699-.24-1.733-.14-1.27.123-2.17 1.076-2.008 2.732.14 1.42 1.648 1.701 2.303 1.701.897 0 1.596-.499 1.596-.499.037.213.082.368.186.5h1.685c-.262-.286-.381-.898-.381-1.14zm-2.678 3.305c-.636.028-1.05-.41-1.05-1.01 0-.599.562-.983 1.073-.983.662 0 .998.248.998.248s.013 1.099.037 1.298c-.25.236-.46.421-1.058.447m43.654-3.304c0-.432.066-1.32-1.056-1.947-1.212-.675-3.143-.148-3.704.076v1.496c.817-.508 1.98-.669 2.655-.337.637.313.592.847.468 1.057-.151-.037-.7-.24-1.734-.14-1.272.123-2.171 1.076-2.007 2.732.14 1.42 1.646 1.701 2.302 1.701.898 0 1.595-.499 1.595-.499.04.213.082.368.189.5h1.682c-.262-.286-.382-.898-.382-1.14zm-2.677 3.304c-.637.028-1.048-.41-1.048-1.01 0-.599.559-.983 1.071-.983.661 0 .998.248.998.248s.012 1.099.038 1.298c-.25.236-.46.421-1.06.447M29.587 39.96c-1.442-.038-2.077.789-2.077.789s-.562-.785-1.889-.785c-.953 0-1.55.58-1.55.58v-.505h-1.8l.004 6.771h1.794v-4.62c.09-.556 1.255-.804 1.611-.45.355.357.37.47.37.938v4.133h1.818v-4.639c0-.238.814-.793 1.438-.486.557.273.581.542.581.935v4.19h1.74V42.36c0-.449.095-2.347-2.04-2.399m3.48 6.85h1.721v-6.84h-1.72zm3.215 0h1.72v-9.908h-1.72zm6.04-2.955-1.596-3.895h-1.807l2.55 6.236-.884 2.401 1.798.01 3.107-8.646h-1.758zm8.53-3.902-2.593-3.052h-1.833v9.91h1.722v-7.148l2.703 3.197 2.684-3.184v7.135h1.732v-9.91h-1.841zm14.005.816v-.805h-1.725v6.846h1.72v-4.376s1.085-1.458 2.414-.449v-1.833c-.637-.262-1.459-.45-2.41.617m7.2.73v-1.538h-1.553v-2.578l-1.632.673v1.898h-1.026V41.5h1.03v3.068c0 .88.464 1.77 1.273 2.058.695.245 1.1.267 1.89.026v-1.568c-.342.09-1.2.237-1.432-.41-.147-.415-.1-.556-.1-1.042V41.5zm-38.12-4.644a1.103 1.103 0 1 0-.044 2.205 1.103 1.103 0 0 0 .045-2.205M80 49.019v1.606H0V49.02z" clip-rule="evenodd"/></g><defs><clipPath id="a"><rect width="80" height="80" fill="#fff" rx="8"/></clipPath></defs></svg>