<svg xmlns="http://www.w3.org/2000/svg" width="80" height="80" fill="none" viewBox="0 0 80 80"><rect width="80" height="80" fill="#e50112" rx="8"/><path fill="#fff" d="M38.57 10.42c-1.958 1.34-3.817 2.799-5.377 4.598-4.757 5.537-7.836 11.854-8.815 19.13-.46 3.378-.22 6.697 1.06 9.955-.38-.44-.78-.88-1.14-1.34-.38-.48-.74-.979-1.06-1.479-.34-.5-.64-1.04-.94-1.579-1.139-2.139-1.838-4.398-2.158-6.796 0-.14.04-.32-.14-.42V28.29q.18-2.549 1.08-4.918c1.699-4.497 4.617-7.956 8.735-10.414 1.56-.94 3.238-1.58 4.978-2.1 1.02-.3 2.079-.34 3.118-.46h.68zm-.679 39.98c-.74-.32-1.58-.26-2.339-.52-.2-.06-.44-.06-.58-.2 5.698-.959 10.495-3.738 14.853-7.396 4.338-3.638 7.896-7.896 10.155-13.193.2.14.14.32.14.48.44 10.114-6.916 19.03-16.912 20.59-.4.06-.86 0-1.219.24z"/><path fill="#fff" d="M56.202 18.516c-3.738-.1-6.817 1.4-9.735 3.298-4.578 2.979-8.276 6.757-10.395 11.894a21.2 21.2 0 0 0-1.64 7.397c1.08-4.098 3.28-7.496 6.318-10.295 2.998-2.759 6.437-4.798 10.455-5.677.44-.1.899-.1 1.359-.06 1.5.1 2.379 1.06 2.459 2.558.06 1.34-.28 2.62-.88 3.779-3.238 6.316-7.916 11.214-14.413 14.212-1.22.56-2.518.86-3.878.86-3.058.02-5.097-1.64-5.657-4.638-.5-2.678-.06-5.257.7-7.816 2.878-9.675 8.875-16.731 17.99-21.13.38-.179.68-.179 1.06.04a20.3 20.3 0 0 1 6.277 5.578zm10.07 36.825c-.237.89-.361 1.814-.53 2.727-.124.62-.113.631-.744.631h-6.412c-.281 0-.371.09-.416.35a22 22 0 0 1-.27 1.498c-.069.293.022.338.292.338 2.197 0 4.406 0 6.603-.011.361 0 .451.067.372.44-.203.9-.35 1.825-.507 2.738-.045.292-.146.394-.45.394-2.198-.011-4.406 0-6.604-.011-.282 0-.428.045-.462.371a14 14 0 0 1-.282 1.69c-.067.294.034.328.293.328H64.2c-.192 1.115-.384 2.197-.564 3.267-.034.192-.09.27-.304.27H51.487c-.315 0-.27-.134-.236-.349.856-4.834 1.713-9.657 2.558-14.49.056-.305.169-.361.44-.361H65.82c.146 0 .304-.023.45-.023v.226zm-29.434 5.488c-.101.62-.203 1.24-.304 1.87-.405 2.446-.811 4.89-1.194 7.336-.045.26-.147.293-.372.293-1.206 0-2.423-.011-3.629 0-.293 0-.36-.068-.304-.36.473-2.637.935-5.285 1.409-7.922a692 692 0 0 0 1.16-6.604c.045-.248.124-.304.36-.304 1.793 0 3.596.012 5.387 0 .282 0 .338.113.36.35l.407 3.989c.168 1.667.349 3.335.53 5.025.157-.09.168-.236.224-.36 1.33-2.885 2.66-5.77 3.978-8.654.113-.26.248-.35.541-.35q2.62.018 5.24 0c.327 0 .406.068.35.395-.53 2.952-1.049 5.904-1.578 8.857-.316 1.814-.654 3.628-.947 5.442-.068.383-.18.507-.586.496a79 79 0 0 0-3.662 0c-.26 0-.338-.023-.282-.327a2081 2081 0 0 0 1.905-8.947c0-.045.01-.101-.034-.169-.056.124-.124.237-.18.36-1.353 2.92-2.716 5.827-4.057 8.745-.124.26-.26.35-.541.338-.924-.023-1.86-.011-2.795 0-.202 0-.315-.023-.338-.27-.326-3.077-.665-6.142-1.003-9.218h-.056zM22.392 54.8h1.544c1.69.113 3.189.653 4.305 1.983.81.97 1.104 2.13 1.126 3.37 0 .19-.067.236-.248.236h-4.236c-.136 0-.215 0-.271-.18-.417-1.488-1.51-2.051-3.065-1.612-.924.26-1.521.89-1.96 1.702-.564 1.059-.79 2.22-.936 3.392a4.8 4.8 0 0 0 0 1.33c.17 1.104.777 1.757 1.882 1.96 1.386.26 2.975-.496 3.482-1.69h-2.141c.18-1.048.36-2.051.518-3.054.045-.27.192-.248.372-.248h5.116c.372 0 .744.011 1.104 0 .226-.011.26.056.226.27-.406 2.22-.8 4.452-1.195 6.683-.067.383-.146.777-.203 1.16-.034.192-.101.282-.315.282-.958-.011-1.905 0-2.862 0-.203 0-.27-.045-.226-.26.08-.371.135-.743.203-1.126-.158.023-.225.135-.327.214-2.287 1.758-4.811 2.006-7.426.992-2.028-.8-3.099-2.49-3.234-4.62-.225-3.719 1.048-6.84 4.057-9.139 1.375-1.048 2.975-1.521 4.688-1.623z"/></svg>