<svg xmlns="http://www.w3.org/2000/svg" width="80" height="80" fill="none" viewBox="0 0 80 80"><rect width="80" height="80" fill="#005bac" rx="8"/><path fill="#fff" d="M40 45.66h.865c.046 0 .1-.029.124-.066l3.59-5.882 1.953 6.73a.12.12 0 0 0 .105.077h3.768c.043 0 .07-.036.057-.076l-3.976-12.595a.12.12 0 0 0-.105-.078h-1.416c-.043 0-.1.032-.124.07L40 41.354l-4.844-7.514a.16.16 0 0 0-.121-.07h-1.418a.12.12 0 0 0-.103.078l-3.979 12.595c-.01.04.014.075.057.075h3.771c.044 0 .092-.035.103-.075l1.954-6.732 3.59 5.882a.16.16 0 0 0 .122.068zm-10.292-6.272v-.003a.08.08 0 0 0-.078-.062H18.89a1.03 1.03 0 1 0 0 2.058h6.381c-.757 2.009-3.329 3.487-6.38 3.487-3.653 0-6.61-2.114-6.61-4.722s2.957-4.723 6.61-4.723c1.994 0 3.782.631 4.995 1.63q.005.006.01.007.021.016.046.016h4.389a.08.08 0 0 0 .073-.108l-.014-.024-.008-.008c-1.866-1.99-5.418-3.336-9.492-3.336C12.876 33.6 8 36.532 8 40.146s4.876 6.545 10.89 6.545 10.89-2.931 10.89-6.545q0-.386-.072-.758m31.402 5.48c-3.653 0-6.613-2.114-6.613-4.722s2.96-4.723 6.612-4.723c3.65 0 6.61 2.115 6.61 4.723s-2.96 4.722-6.61 4.722m0-11.268c-6.017 0-10.893 2.932-10.893 6.546s4.876 6.545 10.892 6.545S72 43.76 72 40.146 67.124 33.6 61.11 33.6"/></svg>