<svg xmlns="http://www.w3.org/2000/svg" width="80" height="80" fill="none" viewBox="0 0 80 80"><rect width="79" height="79" x=".5" y=".5" fill="#fff" rx="7.5"/><rect width="79" height="79" x=".5" y=".5" stroke="#eee" rx="7.5"/><path fill="#009591" d="M46.18 43.56a6.5 6.5 0 0 0-.467-1.59c-.702-1.518-1.682-2.79-3.145-3.649-2.282-1.328-5.037-1.322-7.293.05a6.37 6.37 0 0 0-2.403 2.572c-.183.36-.334.74-.454 1.128-.595 1.89-.574 4.431.497 6.157.35.562.857 1.047 1.471 1.282.62.24 1.354.212 1.912-.146.716-.463.845-1.349.71-2.135-.168-1.005-.298-1.994.072-2.978.117-.313.286-.616.526-.847.148-.141.323-.255.505-.345a2.1 2.1 0 0 1 1.261-.205c.747.118 1.358.7 1.69 1.38.33.68.42 1.448.458 2.207.155 3.292-.63 6.703-1.47 9.866q-.13.49-.267.977c-.071.25-.2.57-.04.812a.63.63 0 0 0 .291.224c.49.198.889-.102 1.216-.433 1.931-1.943 3.166-4.449 4.013-7.026.316-.964.587-1.94.77-2.939.25-1.364.39-2.925.147-4.362M60 28.336c0-.494-.438-.82-.906-.804-.478.016-.92.262-1.358.428-8.492 3.229-18.068 3.841-27.017 2.553-1.53-.221-3.083-.531-4.622-.77-.96-.15-1.912-.37-2.884-.44-.829-.065-1.86-.096-2.53.482-.883.762-.82 2.206-.32 3.162.602 1.147 1.654 2.005 2.75 2.66 1.066.634 2.334 1.311 3.601 1.23q5.132-.33 10.23-.99c5.796-.753 11.875-1.464 17.318-3.715 1.78-.735 3.54-1.651 5.063-2.837.277-.212.675-.556.675-.96"/><path fill="#ed1651" d="M35.648 25.424a3.343 3.343 0 0 0 3.34 3.344 3.343 3.343 0 0 0 3.341-3.344c0-.273-.064-.55-.18-.8-.288-.607-.61-.9-.577-1.63.042-.98-1.214-.994-1.892-.994-.738 0-1.524.104-2.19.438-.532.268-.989.68-1.311 1.178a3.36 3.36 0 0 0-.531 1.733z"/></svg>