<svg xmlns="http://www.w3.org/2000/svg" width="80" height="80" fill="none" viewBox="0 0 80 80"><g clip-path="url(#a)"><rect width="80" height="80" fill="#fff" rx="8"/><path fill="#d51518" d="M63.902 30.575c-.2-1.61-.795-3.06-1.69-4.431-1.728-2.663-4.033-4.53-7.073-5.445-2.98-.914-5.961-.894-8.982-.159-2.026.497-3.854 1.371-5.444 2.762-.199.179-.417.318-.616.477-.139.12-.218.08-.358-.02-2.762-2.424-5.98-3.656-9.657-3.716-1.748-.04-3.457.18-5.126.716-3.04.973-5.464 2.762-7.253 5.404-1.033 1.53-1.53 3.26-1.669 5.087-.139 1.967.14 3.875.974 5.663.715 1.51 1.63 2.901 2.563 4.292 2.702 4.014 5.842 7.63 9.379 10.909a60.4 60.4 0 0 0 10.849 8.047c.219.12.397.12.616 0a60 60 0 0 0 3.875-2.424 60 60 0 0 0 9.816-8.405c2.463-2.603 4.67-5.385 6.577-8.425.496-.795.914-1.63 1.43-2.404 1.61-2.444 2.126-5.087 1.789-7.928m-.577 3.537c-.496 2.483-1.59 4.709-3.04 6.775-.695.974-1.311 1.987-2.007 2.96a54 54 0 0 1-5.186 6.14 57.7 57.7 0 0 1-11.803 9.36c-.258.159-.536.318-.795.477a.67.67 0 0 1-.715 0c-3.676-2.107-7.074-4.61-10.233-7.452-3.418-3.08-6.498-6.497-9.12-10.293a43 43 0 0 1-3.14-5.265c-1.232-2.464-1.43-5.027-.596-7.63 1.331-4.133 4.153-6.776 8.246-8.127 1.53-.517 3.1-.716 4.71-.696 2.165.02 4.291.338 6.298 1.252 1.41.636 2.663 1.51 3.736 2.623.159.179.318.179.496.02 2.047-2.126 4.57-3.299 7.432-3.776 2.643-.437 5.246-.258 7.77.597 2.563.854 4.59 2.464 6.179 4.63 1.013 1.37 1.709 2.86 1.927 4.57.16 1.271.1 2.543-.159 3.834"/><path fill="#d51518" d="M62.391 30.237c-.198-1.153-.675-2.186-1.271-3.18-1.65-2.761-4.093-4.53-7.173-5.384-1.749-.497-3.537-.557-5.326-.358-1.967.219-3.795.815-5.484 1.848a12.1 12.1 0 0 0-3.02 2.663c-.12.139-.199.178-.318.02-.12-.16-.278-.299-.417-.457-2.564-2.782-5.763-4.094-9.36-4.153-1.668.02-3.159.218-4.59.715-3.099 1.053-5.523 2.92-6.974 5.921-1.35 2.802-1.45 5.663-.08 8.485.974 1.987 2.167 3.855 3.458 5.663 3.12 4.391 6.836 8.266 11.008 11.684a59 59 0 0 0 6.856 4.848c.298.179.596.238.914 0 .616-.417 1.271-.795 1.907-1.212a63 63 0 0 0 10.174-8.465c1.927-1.987 3.696-4.073 5.285-6.319.676-.933 1.252-1.947 1.908-2.9.954-1.392 1.709-2.842 2.186-4.452.457-1.649.616-3.298.317-4.967M29.784 42.676c-.477.258-.953.258-1.43-.02-.398-.219-.577-.596-.596-1.053-.02-.577-.02-1.133-.02-1.71 0-.178-.02-.258-.239-.238-.278.02-.556.02-.834.02-.16 0-.219.04-.219.219.02.556-.04 1.093.02 1.649.08.755-.696 1.49-1.61 1.351-.715-.12-1.092-.556-1.112-1.37-.02-1.034 0-2.087-.02-3.12v-3.26c0-.138 0-.277.02-.436.1-.696.596-1.093 1.311-1.073.755.02 1.232.417 1.312 1.112s.04 1.411.06 2.107c.02.477 0 .477.476.457.199 0 .378-.02.576-.02.18.02.259-.06.259-.239 0-.735.06-1.47 0-2.185-.06-.795.755-1.431 1.59-1.292.715.12 1.092.596 1.092 1.331v3.339c0 1.092-.02 2.165 0 3.258.04.537-.179.914-.636 1.173m-.099-11.446c-.358-.973.318-1.987 1.371-2.046.576-.04 1.093.099 1.51.516.12.12.179.08.278-.02.716-.635 1.69-.695 2.365-.119.358.298.497.656.516 1.093 0 .298-.079.576-.198.855-.616 1.271-1.43 2.384-2.563 3.218-.14.1-.239.12-.398.02-1.311-.914-2.325-2.026-2.881-3.517m4.371 10.313c0 .755-.496 1.272-1.231 1.272-.895 0-1.451-.477-1.451-1.272 0-1.67 0-3.338.02-5.007 0-.616.516-1.093 1.192-1.153.894-.08 1.45.437 1.47 1.331zm3.577-.477c-.06.378-.338.656-.695.656-.477 0-.934.04-1.391.04-.199 0-.398-.02-.576-.12-.2-.119-.358-.278-.338-.556.02-.219-.04-.457-.04-.695-.02-.577.298-.875.874-.875h1.53c.417 0 .676.259.676.676-.04.298 0 .576-.04.874m4.113 1.69c-.834.098-1.669.118-2.523.039-.596-.06-.994-.537-1.033-1.153-.1-1.251-.02-2.503-.06-3.874 0-.914.04-1.948-.02-2.961-.02-.676.775-1.252 1.331-1.252.735 0 1.292.517 1.312 1.232.02 1.292.02 2.603.04 3.895 0 .516.02 1.013.02 1.53 0 .139.04.198.198.178.278-.02.576-.02.854.04.537.12.914.636.914 1.193a1.21 1.21 0 0 1-1.033 1.132m1.411-10.314c.338-.457.815-.675 1.43-.675.954.04 1.71.834 1.57 1.748-.08.557-.695 1.153-1.33 1.292a1.64 1.64 0 0 1-1.69-.696c-.358-.516-.338-1.152.02-1.669m13.969 7.233c-.199.338-.537.477-.894.497-.656.06-1.292-.02-1.948 0-.496.02-1.013 0-1.57 0 .2.258.358.437.676.437.656-.02 1.312 0 1.947 0q.21 0 .418.06c.596.178.953.616.914 1.132-.04.656-.437 1.113-1.093 1.232-.278.04-.556.08-.835.04-.655-.08-1.33.04-1.987-.14-1.232-.317-2.185-.973-2.702-2.185l-.12-.357c-.039-.12-.099-.18-.238-.18-.298 0-.298 0-.298.299 0 1.967-.02 3.914 0 5.881 0 .557-.218.934-.695 1.173-.477.238-.974.238-1.43-.04q-.597-.358-.597-1.073c0-.835-.02-1.67-.02-2.504 0-1.172-.02-2.325-.02-3.497 0-.179-.06-.219-.218-.199q-.18.03-.358 0c-.258-.04-.318.08-.318.299 0 .357.04.735-.02 1.092-.08.656-.636 1.133-1.311 1.133a1.216 1.216 0 0 1-1.212-1.133 42 42 0 0 1-.04-3.159c.02-.676.02-1.351.04-2.027 0-.596.516-1.132 1.112-1.192.855-.08 1.49.477 1.49 1.331 0 .338-.02.676-.039.994 0 .139.04.179.179.179.675.02.675.02.675-.656v-3.636c0-.835.398-1.371 1.232-1.431 1.014-.08 2.027-.1 3.04 0 .537.06.954.556 1.014 1.053.04.497-.258.954-.795 1.172-.357.16-.735.12-1.113.12-.636 0-.636 0-.636.636v2.483c0 .08-.04.219.12.199.139-.02.318.12.377-.14.418-1.549 1.49-2.383 2.98-2.701 1.53-.338 2.862.119 3.895 1.291a2.92 2.92 0 0 1 .398 3.517"/><path fill="#d51518" d="M54.84 37.708h-2.125c.1-.298.496-.556.894-.576.497-.02.894.119 1.232.576"/></g><rect width="79" height="79" x=".5" y=".5" stroke="#eee" rx="7.5"/><defs><clipPath id="a"><rect width="80" height="80" fill="#fff" rx="8"/></clipPath></defs></svg>