<svg xmlns="http://www.w3.org/2000/svg" width="80" height="80" fill="none" viewBox="0 0 80 80"><g clip-path="url(#a)"><rect width="80" height="80" fill="#3f3a39" rx="8"/><path fill="#fefefe" d="M67.994 45.061c0 .95.014 1.898 0 2.848-.028 1.183-.852 2.022-1.938 2.022s-1.897-.84-1.924-2.036c-.028-1.706.027-3.425-.028-5.13-.04-1.638-1.113-2.89-2.61-3.178-1.32-.262-2.764.481-3.382 1.747-.275.55-.357 1.141-.357 1.747.014 1.513.014 3.04 0 4.553-.014 1.416-.784 2.31-1.966 2.297-1.14-.014-1.896-.894-1.91-2.242-.014-1.747-.027-3.48.014-5.227.096-3.81 3.27-6.892 7.05-6.878s6.94 3.109 7.023 6.919c.042.853.014 1.706.028 2.558"/><path fill="#8fc21f" d="M19.712 42.765c0 1.65.014 3.287 0 4.938-.014 1.32-.797 2.228-1.938 2.255-1.113.028-2.02-.88-1.993-2.2.055-3.7-.206-7.4.137-11.1.11-1.184-.26-1.528-1.731-1.638-1.677-.123-2.666-1.788-1.952-3.287.454-.95 1.512-1.486 2.515-1.28 1.031.207 1.91 1.115 1.732 2.16-.316 1.816-.041 2.958 2.09 3.219.81.096 1.14 1.018 1.14 1.884z"/><path fill="#fefefe" fill-rule="evenodd" d="M23.148 30.454c.59-.468 1.25-.592 1.951-.29.825.345 1.21 1.005 1.224 1.857.027 1.417 0 2.807 0 4.292 1.8-.784 3.546-.962 5.346-.37 3.354 1.114 5.319 4.47 4.755 8.1-.508 3.302-3.532 5.874-6.913 5.888-3.436.013-6.363-2.462-6.967-5.928-.083-.44-.152-.88-.152-1.32 0-3.453.014-6.906.014-10.359 0-.729.151-1.389.742-1.87m6.336 9.105c-1.76-.013-3.134 1.404-3.134 3.22 0 1.801 1.416 3.232 3.148 3.204 1.704-.014 3.106-1.458 3.12-3.177.013-1.788-1.389-3.233-3.134-3.247m15.612-3.975c3.876.013 7.078 3.26 7.065 7.194 0 3.948-3.189 7.167-7.078 7.167s-7.065-3.233-7.065-7.18c0-3.935 3.203-7.181 7.078-7.181m-.04 3.961c-1.719.014-3.106 1.445-3.12 3.178-.014 1.774 1.415 3.246 3.147 3.26 1.745.014 3.16-1.43 3.16-3.232 0-1.789-1.429-3.22-3.188-3.206" clip-rule="evenodd"/></g><defs><clipPath id="a"><rect width="80" height="80" fill="#fff" rx="8"/></clipPath></defs></svg>