<svg xmlns="http://www.w3.org/2000/svg" width="80" height="80" fill="none" viewBox="0 0 80 80"><rect width="79" height="79" x=".5" y=".5" fill="#fff" rx="7.5"/><rect width="79" height="79" x=".5" y=".5" stroke="#eee" rx="7.5"/><path fill="#fff" d="M64 51.108c0 4.107-3.345 7.45-7.452 7.45H16V29.052c0-4.107 3.345-7.45 7.452-7.45H64z"/><path fill="url(#a)" d="M50.797 43.54h3.08c.089 0 .294-.029.382-.029.587-.117 1.086-.645 1.086-1.378 0-.704-.5-1.232-1.086-1.38-.088-.028-.264-.028-.381-.028h-3.081z"/><path fill="url(#b)" d="M53.525 24.093a5.34 5.34 0 0 0-5.34 5.338v5.544h7.54c.177 0 .382 0 .53.03 1.7.087 2.962.967 2.962 2.493 0 1.202-.85 2.229-2.435 2.434v.059c1.731.117 3.052 1.085 3.052 2.581 0 1.613-1.468 2.67-3.404 2.67h-8.274v10.852h7.834a5.34 5.34 0 0 0 5.34-5.338V24.093z"/><path fill="url(#c)" d="M54.963 37.85c0-.704-.499-1.174-1.085-1.262-.06 0-.206-.029-.294-.029h-2.787v2.581h2.787c.088 0 .264 0 .294-.029.586-.088 1.085-.557 1.085-1.261"/><path fill="url(#d)" d="M24.01 24.093a5.34 5.34 0 0 0-5.34 5.338v13.17c1.496.734 3.051 1.203 4.606 1.203 1.849 0 2.846-1.115 2.846-2.64v-6.218H30.7v6.189c0 2.405-1.496 4.37-6.572 4.37-3.08 0-5.486-.674-5.486-.674v11.234h7.833a5.34 5.34 0 0 0 5.34-5.339V24.093z"/><path fill="url(#e)" d="M38.768 24.093a5.34 5.34 0 0 0-5.34 5.338v6.981c1.35-1.144 3.697-1.877 7.481-1.701 2.025.088 4.196.645 4.196.645v2.259c-1.086-.557-2.376-1.056-4.049-1.173-2.875-.206-4.606 1.202-4.606 3.666 0 2.493 1.73 3.901 4.606 3.667 1.672-.118 2.963-.646 4.049-1.174v2.259s-2.142.557-4.196.645c-3.784.176-6.132-.557-7.481-1.701v12.32h7.834a5.34 5.34 0 0 0 5.34-5.339V24.093z"/><defs><linearGradient id="a" x1="48.181" x2="61.365" y1="42.136" y2="42.136" gradientUnits="userSpaceOnUse"><stop stop-color="#007940"/><stop offset=".229" stop-color="#00873f"/><stop offset=".743" stop-color="#40a737"/><stop offset="1" stop-color="#5cb531"/></linearGradient><linearGradient id="b" x1="48.18" x2="61.366" y1="40.081" y2="40.081" gradientUnits="userSpaceOnUse"><stop stop-color="#007940"/><stop offset=".229" stop-color="#00873f"/><stop offset=".743" stop-color="#40a737"/><stop offset="1" stop-color="#5cb531"/></linearGradient><linearGradient id="c" x1="48.18" x2="61.365" y1="37.846" y2="37.846" gradientUnits="userSpaceOnUse"><stop stop-color="#007940"/><stop offset=".229" stop-color="#00873f"/><stop offset=".743" stop-color="#40a737"/><stop offset="1" stop-color="#5cb531"/></linearGradient><linearGradient id="d" x1="18.664" x2="32.053" y1="40.081" y2="40.081" gradientUnits="userSpaceOnUse"><stop stop-color="#1f286f"/><stop offset=".475" stop-color="#004e94"/><stop offset=".826" stop-color="#0066b1"/><stop offset="1" stop-color="#006fbc"/></linearGradient><linearGradient id="e" x1="33.352" x2="46.355" y1="40.081" y2="40.081" gradientUnits="userSpaceOnUse"><stop stop-color="#6c2c2f"/><stop offset=".173" stop-color="#882730"/><stop offset=".573" stop-color="#be1833"/><stop offset=".859" stop-color="#dc0436"/><stop offset="1" stop-color="#e60039"/></linearGradient></defs></svg>