<svg xmlns="http://www.w3.org/2000/svg" width="80" height="80" fill="none" viewBox="0 0 80 80"><g clip-path="url(#a)"><rect width="80" height="80" fill="#e72420" rx="8"/><path fill="#fff" d="M30.522 20.885c.69.779.579 1.402.178 2.337-.4.934-1.936 3.583-4.563 5.897-2.649 2.337-5.053 3.628-6.055 4.051s-1.624.312-2.292-.467l-.824-.935c-.69-.779-.757-1.825-.178-2.337 0 0 3.985-2.604 5.743-4.14 1.736-1.535 4.875-5.808 4.875-5.808.579-.512 1.625-.312 2.293.467zM30.5 32.013l-.824-.957c-.69-.78-1.736-1.002-2.337-.468 0 0-3.227 4.385-5.03 5.965-1.781 1.58-5.9 4.25-5.9 4.25-.6.535-.533 1.603.157 2.382l.823.957c.69.779 1.314.89 2.337.467.557-.222 1.514-.734 2.694-1.49v16.157c0 .957.734 1.758 1.625 1.758h1.424c.89 0 1.625-.779 1.625-1.758V39.312c1.981-2.047 3.206-4.117 3.562-4.918.423-.957.534-1.602-.156-2.381"/><path fill="#fff" d="M62.242 35.062h-19.21a1.045 1.045 0 0 1-1.046-1.046v-2.204c0-.578.467-1.046 1.046-1.046h3.183c.957 0 1.758-.779 1.758-1.736v-1.157c0-.957-.779-1.736-1.758-1.736h-3.183a1.045 1.045 0 0 1-1.046-1.046v-3.783c0-.957-.78-1.759-1.736-1.759h-1.158c-.957 0-1.736.78-1.736 1.759v3.783c0 .579-.468 1.046-1.046 1.046h-3.34c-.956 0-1.758.779-1.758 1.736v1.157c0 .957.78 1.736 1.759 1.736h3.339c.578 0 1.046.468 1.046 1.046v2.204c0 .578-.468 1.046-1.046 1.046h-3.34c-.956 0-1.758.779-1.758 1.736v1.157c0 .957.78 1.736 1.759 1.736h3.339c.578 0 1.046.467 1.046 1.046v2.003c0 .579-.468 1.046-1.046 1.046h-3.34c-.956 0-1.758.779-1.758 1.736v1.157c0 .957.78 1.736 1.759 1.736h3.339c.578 0 1.046.468 1.046 1.046v3.873c0 .49-.356.935-.846 1.024a422 422 0 0 1-5.854 1.201c-.98.245-1.558 1.247-1.291 2.248l.311 1.202c.245 1.002.846 1.358 2.226 1.358s3.295-.223 7.657-1.336c4.341-1.112 7.034-2.96 8.08-3.672s1.559-1.246 1.291-2.248l-.311-1.202a1.84 1.84 0 0 0-2.226-1.357s-1.269.623-2.916 1.38c-.69.311-1.491-.2-1.491-.957V49.46c0-.578.467-1.046 1.046-1.046h3.183c.957 0 1.758-.779 1.758-1.736v-1.157c0-.957-.779-1.736-1.758-1.736h-3.183a1.045 1.045 0 0 1-1.046-1.046v-2.003c0-.579.467-1.046 1.046-1.046h7.301c.6 0 1.068.49 1.068 1.068v18.495c0 .957.735 1.758 1.625 1.758h1.425c.89 0 1.625-.779 1.625-1.758V40.759c0-.6.49-1.068 1.068-1.068h5.098c.957 0 1.758-.779 1.758-1.736v-1.157c0-.957-.779-1.736-1.758-1.736"/><path fill="#fff" d="M54.006 19.237h-.49c-2.626.134-4.34 2.604-3.895 5.32.423 2.67 3.583 8.212 3.583 8.212a.6.6 0 0 0 .557.356.6.6 0 0 0 .556-.356s3.161-5.542 3.584-8.212c.445-2.716-1.269-5.164-3.895-5.32m-.245 6.388a1.995 1.995 0 0 1-2.003-2.003c0-1.113.89-2.003 2.003-2.003s2.003.89 2.003 2.003-.89 2.003-2.003 2.003"/></g><defs><clipPath id="a"><rect width="80" height="80" fill="#fff" rx="8"/></clipPath></defs></svg>