<svg xmlns="http://www.w3.org/2000/svg" width="80" height="80" fill="none" viewBox="0 0 80 80"><rect width="80" height="80" fill="#fae100" rx="8"/><path fill="#000" d="M22.94 44.968a3.21 3.21 0 0 1 1.178-2.691l.005-.004a5.44 5.44 0 0 1 3.458-.928h-.016 2.26v-.747q0-2.706-2.388-2.706a6.6 6.6 0 0 0-1.654.223l.045-.011a9 9 0 0 0-1.604.557l.058-.025-.576-1.386a7.8 7.8 0 0 1 1.831-.744l.056-.013a7.6 7.6 0 0 1 1.968-.267h.002q4.137 0 4.136 4.413V48.1h-1.45l-.235-1.279a7 7 0 0 1-1.817 1.07l-.047.018a5.2 5.2 0 0 1-1.883.384h-.004a3.064 3.064 0 0 1-3.326-3.337v.012zm3.681 1.748q.448-.004.863-.113l-.024.006c.345-.084.634-.18.915-.293l-.045.017c.315-.123.583-.262.836-.427l-.018.011c.255-.163.478-.336.682-.525l-.003.004v-2.73h-2.04a3.8 3.8 0 0 0-2.277.544l.018-.009a1.97 1.97 0 0 0-.71 1.692v-.007a1.608 1.608 0 0 0 1.812 1.832zm10.532 1.386H35.19V31.626l1.962-.426zm5.244-11.958 1.536 1.108-3.772 4.732 4.369 5.244-1.514 1.172-5.158-6.31zm3.868 8.824a3.22 3.22 0 0 1 1.178-2.693l.005-.004a5.45 5.45 0 0 1 3.46-.928h-.016 2.26v-.747q0-2.706-2.388-2.706a6.6 6.6 0 0 0-1.656.223l.045-.011c-.596.15-1.11.332-1.602.557l.056-.023-.575-1.386a8 8 0 0 1 1.83-.744l.057-.013a7.6 7.6 0 0 1 1.969-.267q4.134 0 4.138 4.413V48.1h-1.45l-.235-1.279a7 7 0 0 1-1.82 1.07l-.046.018a5.1 5.1 0 0 1-1.881.384h-.004a3.063 3.063 0 0 1-3.325-3.337zm3.681 1.748q.449-.004.863-.113l-.024.006c.345-.084.634-.18.915-.293l-.045.017c.315-.123.583-.264.837-.427l-.02.011c.256-.163.477-.336.684-.525l-.004.004v-2.73h-2.037a3.77 3.77 0 0 0-2.277.544l.017-.009a1.97 1.97 0 0 0-.711 1.69v-.007a1.608 1.608 0 0 0 1.812 1.832zm12.97-10.465a4.8 4.8 0 0 1 3.811 1.573l.004.004a6.6 6.6 0 0 1 1.386 4.54l.002-.02a6.48 6.48 0 0 1-1.386 4.47l.011-.014a5.45 5.45 0 0 1-3.82 1.555 5.45 5.45 0 0 1-3.823-1.557l.002.002a6.45 6.45 0 0 1-1.386-4.475l-.002.02a6.57 6.57 0 0 1 1.407-4.533l-.011.014a4.82 4.82 0 0 1 3.817-1.577h-.012zm0 1.577-.133-.004c-.915 0-1.725.452-2.217 1.146l-.006.01a5.7 5.7 0 0 0-.821 3.385l-.002-.017a5.55 5.55 0 0 0 .835 3.338l-.013-.022a3.058 3.058 0 0 0 4.728.005l.004-.005a5.52 5.52 0 0 0 .818-3.333l.002.017a5.74 5.74 0 0 0-.835-3.393l.015.025a2.74 2.74 0 0 0-2.236-1.156q-.075 0-.148.004zM13.828 48.102h-1.962V31.626l1.962-.426zm5.244-11.958 1.536 1.108-3.774 4.732 4.37 5.244-1.513 1.172-5.158-6.31z"/></svg>