<svg width="80" height="80" viewBox="0 0 80 80" fill="none" xmlns="http://www.w3.org/2000/svg">
<rect x="0.5" y="0.5" width="79" height="79" rx="7.5" fill="white"/>
<rect x="0.5" y="0.5" width="79" height="79" rx="7.5" stroke="#EEEEEE"/>
<path fill-rule="evenodd" clip-rule="evenodd" d="M16.2984 20.5612C16.2984 20.5186 16.2984 20.5186 16.341 20.476C16.341 20.476 25.5063 16 39.9149 16C54.3661 16 64 20.5186 64 20.5186L58.0748 39.8296L63.8721 59.3965C63.8721 59.3965 55.5593 64 39.3178 64C23.0764 64 16 59.6948 16 59.6948L22.0531 39.787L16.2984 20.5612Z" fill="#497DBB"/>
<path fill-rule="evenodd" clip-rule="evenodd" d="M22.9056 39.8726L17.0657 58.8427C17.023 58.9277 17.023 59.0982 17.0657 59.1837C17.0657 59.2263 17.1083 59.3116 17.1935 59.3542C17.1935 59.3542 26.8704 63.1908 40.0425 63.1908C53.2152 63.1908 62.8492 58.8427 62.8492 58.8427L57.222 39.6595L62.9344 21.2013C62.9344 21.1586 62.8918 21.0308 62.8489 20.9881C62.8489 20.9881 53.9819 16.8105 39.8291 16.8105C27.3816 16.8105 17.2785 21.0734 17.2785 21.0734C17.2359 21.116 17.2359 21.2439 17.2359 21.3291L22.9056 39.8726Z" fill="white"/>
<path fill-rule="evenodd" clip-rule="evenodd" d="M18.6857 22.0538C18.6857 22.0111 18.6431 21.9259 18.6857 21.8406C18.7284 21.7554 18.8136 21.6704 18.8989 21.6704C18.8989 21.6704 27.3393 17.9614 39.9149 17.9614C52.4906 17.9614 61.5275 21.6275 61.5275 21.6275C61.5275 21.6275 61.5701 21.6701 61.5701 21.7128V21.9685L56.1138 39.5743C56.1138 39.6595 56.0288 39.7874 56.0711 39.8726L61.5275 58.0325C61.5275 58.0751 61.5275 58.1181 61.4851 58.1607C61.4851 58.1607 52.8313 62.0822 39.8294 62.0822C26.8275 62.0822 18.6854 58.6296 18.6854 58.6296C18.6428 58.6296 18.5576 58.544 18.5149 58.5017C18.4723 58.4591 18.4297 58.4161 18.4297 58.3312L24.0571 40.0428C24.0997 39.9579 24.0571 39.83 24.0571 39.7021L18.6857 22.0538Z" fill="#497DBB"/>
<path fill-rule="evenodd" clip-rule="evenodd" d="M38.8917 25.5064C39.1901 25.4638 39.659 25.4638 39.8721 25.4211C39.9574 25.4211 40.0426 25.2933 40.1279 25.2506C40.1279 25.208 40.1705 25.1654 40.1705 25.1228C40.2128 24.9096 40.2128 24.6539 40.1705 24.4834C40.1713 24.4394 40.1597 24.3962 40.1371 24.3585C40.1145 24.3208 40.0817 24.2902 40.0426 24.2702C39.9147 24.185 39.7016 24.1424 39.6164 24.0571C39.5737 24.0145 39.5737 24.0145 39.6164 23.9719L40.7672 21.2862C40.8159 21.2336 40.8736 21.1903 40.9377 21.1583C41.0233 21.1157 41.1938 21.1157 41.2787 21.073C41.3643 21.0304 41.4919 20.9878 41.5348 20.9025C41.5774 20.8599 41.6197 20.7747 41.6197 20.6897C41.6624 20.5192 41.6197 20.3061 41.6197 20.1356C41.6197 20.093 41.5774 20.0077 41.5774 20.0077C41.5348 19.9225 41.4492 19.8798 41.3643 19.8372C41.3217 19.7946 41.2364 19.7946 41.1938 19.7946C40.7252 19.752 40.2131 19.752 39.7442 19.752C39.6164 19.752 39.4459 19.752 39.318 19.7946C39.239 19.7961 39.1633 19.8264 39.1051 19.8798C39.0625 19.9651 38.9773 20.093 38.9773 20.1782C38.9346 20.3487 38.9346 20.5615 38.9773 20.6897C38.9773 20.775 39.0625 20.9455 39.1478 20.9878C39.233 21.073 39.4035 21.0304 39.4888 21.1157C39.574 21.1157 39.574 21.1583 39.574 21.2009C39.5314 21.3714 39.4461 21.4993 39.4035 21.6698C39.1904 22.1387 38.892 22.7781 38.8068 22.9486C38.8068 22.9912 38.7641 22.9486 38.7641 22.9486C38.7215 22.9486 38.6789 22.9912 38.6789 22.9486C38.5936 22.8207 38.4231 22.4797 38.2526 22.2239C38.1248 21.9258 37.9116 21.5419 37.8264 21.3288C37.7838 21.2862 37.7838 21.2436 37.8264 21.2009C37.8264 21.2009 38.21 21.1157 38.3379 20.6468C38.3379 20.1779 38.2953 19.9648 38.0395 19.8795C37.7411 19.7943 36.0358 19.8795 35.8227 20.05C35.6096 20.1779 35.6096 20.2632 35.6522 20.732C35.6522 21.2009 36.1637 21.2862 36.1637 21.2862C36.2063 21.3288 36.2063 21.2862 36.2063 21.3288L35.4817 23.2046L34.4161 21.5419C34.4161 21.4993 34.4161 21.4993 34.4587 21.4993C34.4587 21.4993 34.8423 21.3288 34.9276 21.1157C35.0128 20.9452 35.0128 20.2632 34.6718 20.1779C34.3734 20.0927 32.6684 20.2632 32.4127 20.4337C32.1995 20.5615 32.2848 21.1157 32.2848 21.1157L32.4127 21.4993C32.4553 21.5419 32.5405 21.5846 32.6255 21.6272C32.7534 21.6272 32.8812 21.6272 33.0091 21.6698C33.137 21.6698 33.1796 21.7124 33.2223 21.7977L34.7568 24.3129V24.4407C34.7141 24.4834 34.7141 24.4407 34.6715 24.4834C34.6289 24.526 34.5436 24.526 34.501 24.5686C34.4158 24.6112 34.3305 24.6965 34.3305 24.7818C34.2879 24.9523 34.2879 25.208 34.3305 25.4211C34.3305 25.4211 34.2879 25.5064 34.5436 25.7195C34.842 25.89 36.7604 25.4638 36.7604 25.4638C36.8031 25.4638 36.8883 25.3785 36.8883 25.3359C36.931 25.2506 36.9736 25.0801 36.9736 24.9949C36.9736 24.8244 36.931 24.6539 36.8457 24.4834C36.8457 24.4407 36.7605 24.3981 36.7178 24.3555C36.6326 24.3129 36.4621 24.3129 36.3768 24.2276L37.0162 22.4797L37.9966 24.0568V24.1421C37.9113 24.27 37.7408 24.27 37.6556 24.3549C37.5703 24.4828 37.5277 24.6959 37.5277 24.8238C37.5277 24.9943 37.613 25.1648 37.6556 25.2927C37.6556 25.3353 37.7408 25.3779 37.7835 25.4205C37.954 25.4632 38.1245 25.5058 38.3376 25.5058H38.8917V25.5064ZM45.3284 25.7195C45.4566 25.7195 45.6694 25.6769 45.84 25.5916C45.9681 25.549 46.096 25.4211 46.181 25.2933C46.2236 25.2506 46.2665 25.1228 46.2665 25.0801C46.352 24.6539 46.3944 24.2702 46.437 23.844C46.4796 23.5456 46.437 23.162 46.437 22.9489C46.3944 22.8636 46.352 22.7784 46.352 22.7357C46.2665 22.6079 46.1389 22.48 46.011 22.4374C45.9255 22.3521 45.755 22.3095 45.6274 22.3095L43.1548 22.054C43.1122 22.054 43.0693 22.054 43.0267 22.0114L42.9843 21.9688V21.4146C42.9843 21.372 42.9843 21.372 43.0267 21.3294C43.0693 21.2868 43.0693 21.2441 43.1548 21.2441L44.9448 21.3294C45.073 21.372 45.2009 21.372 45.3284 21.4146C45.414 21.4573 45.414 21.4573 45.4566 21.5425C45.4989 21.713 45.4989 21.9261 45.5845 22.054C45.6271 22.1393 45.7976 22.1819 45.84 22.1819H46.181C46.2236 22.1819 46.352 22.1819 46.3941 22.1393C46.4796 22.054 46.5223 21.8835 46.5646 21.7556C46.6501 21.5851 46.6501 21.3294 46.6501 21.1163C46.6501 20.9458 46.6075 20.7753 46.5646 20.6048C46.5646 20.5621 46.5222 20.4769 46.4796 20.4343C46.3941 20.349 46.3091 20.2638 46.2236 20.2211C46.1386 20.1785 46.0107 20.0932 45.8826 20.0932L42.9841 19.8375C42.8985 19.8375 42.7709 19.8375 42.643 19.8801C42.6004 19.8801 42.4725 19.9227 42.4299 19.9654C42.3018 20.008 42.2168 20.0506 42.1313 20.1359C42.0463 20.2638 41.9607 20.4343 41.9184 20.6048C41.8758 20.8179 41.7902 21.8835 41.7902 22.0966C41.7902 22.2671 41.8329 22.4803 41.9184 22.6081C41.9607 22.736 42.0463 22.8639 42.1313 22.9492C42.2594 22.9918 42.3873 23.077 42.5578 23.077C42.8138 23.1197 44.4759 23.2475 45.0304 23.3328C45.1159 23.3328 45.1582 23.3754 45.2435 23.3754V23.418C45.2861 23.5459 45.2861 23.5885 45.2861 23.6738C45.2861 23.8869 45.2861 24.1 45.2006 24.2705C45.2006 24.3132 45.1579 24.3558 45.1156 24.3558L42.9841 24.1853H42.8559C42.8135 24.1427 42.8135 24.1427 42.8135 24.0574C42.7709 23.8869 42.7709 23.6312 42.728 23.418C42.728 23.3754 42.643 23.2902 42.6001 23.2902C42.4723 23.2475 42.3015 23.2475 42.2165 23.2475C42.131 23.2475 42.0034 23.2049 41.9184 23.2475C41.8329 23.2902 41.7479 23.418 41.7053 23.5033C41.6627 23.7164 41.6197 24.1 41.6197 24.3984C41.6197 24.5689 41.6624 24.7394 41.6624 24.9099C41.6624 24.9525 41.705 25.0378 41.705 25.0804C41.79 25.1657 41.9181 25.2935 42.046 25.3788L45.3284 25.7195ZM52.0638 21.7977C52.1065 21.6698 52.0212 21.4996 51.9789 21.3714C51.9363 21.2862 51.8933 21.2009 51.8507 21.1583C51.7658 21.073 51.5953 20.9452 51.5097 20.9452L48.2276 20.391C48.142 20.391 48.0997 20.4337 48.0144 20.4337C47.9718 20.4763 47.8439 20.4763 47.8013 20.5189C47.7163 20.6042 47.5882 20.6894 47.5458 20.8173C47.4603 20.9452 47.4177 21.1583 47.3753 21.3288L46.7357 25.0801C46.7357 25.208 46.8212 25.3785 46.8638 25.5064C46.8638 25.5916 47.0343 25.8048 47.1193 25.8474L50.2739 26.4015C50.4129 26.4441 50.5614 26.4441 50.7004 26.4015C50.7854 26.4015 50.9135 26.3163 50.9559 26.2736C51.084 26.1884 51.2119 26.1031 51.2969 25.9753C51.3395 25.8474 51.425 25.6769 51.425 25.549L52.0638 21.7977ZM31.3464 26.1884C31.6022 26.2736 33.563 26.0605 33.6908 25.7198C33.8187 25.3788 33.7761 25.464 33.7335 25.3362C33.7335 25.1657 33.6908 24.9525 33.6056 24.8247C33.563 24.7394 33.3925 24.7394 33.3498 24.6968C33.1793 24.6542 33.0515 24.6968 32.9236 24.6115L32.3268 23.9295L30.8349 22.0114C30.8349 21.9261 30.8776 21.9261 30.9202 21.8835C30.9628 21.8409 31.0481 21.8409 31.0907 21.7983C31.0907 21.7983 31.3464 21.5002 31.2186 21.1589C31.2186 20.8605 31.0907 20.7326 30.9202 20.6474C30.7923 20.6048 28.8742 20.8605 28.7037 21.031C28.5332 21.1589 28.5758 21.1589 28.5332 21.4146C28.5332 21.713 28.661 22.0114 28.661 22.0114C28.7037 22.0966 28.7889 22.1393 28.8742 22.1819C28.9594 22.2245 29.0447 22.1819 29.1299 22.2671C29.1725 22.2671 29.1725 22.3098 29.1725 22.3524L27.979 25.507C27.8938 25.6348 27.7233 25.6348 27.5954 25.7201C27.5528 25.7201 27.5102 25.8053 27.4675 25.848C27.4675 25.848 27.3823 26.2316 27.4675 26.3595C27.5528 26.53 27.5528 26.6579 27.6807 26.7857C27.8085 26.9136 29.9401 26.6152 30.1106 26.2742C30.1106 26.2742 30.1532 25.507 29.9827 25.4217C29.8122 25.3365 29.7699 25.2938 29.6843 25.2512C29.5991 25.2512 29.5138 25.2512 29.4286 25.2086C29.386 25.2086 29.386 25.2086 29.386 25.166C29.4286 25.0381 29.4286 24.9528 29.5138 24.9102L31.1765 24.6118C31.2618 24.6118 31.347 24.6118 31.4323 24.6545C31.4749 24.6971 31.5175 24.6971 31.5602 24.7823C31.5602 24.825 31.6028 24.825 31.5602 24.8676C31.4323 24.9955 31.2618 24.9955 31.1339 25.1233C31.0913 25.166 31.0486 25.2938 31.0486 25.3791C31.0478 25.3785 31.0907 26.0605 31.3464 26.1884ZM56.4975 22.2239C56.2843 22.3944 56.327 22.3944 56.2843 22.4797C56.2019 22.6529 56.1582 22.842 56.1565 23.0338C56.1565 23.1191 56.1991 23.2469 56.2414 23.3322C56.3696 23.4174 56.5401 23.4601 56.668 23.545C56.7106 23.5877 56.7106 23.6303 56.7106 23.6729L56.3696 25.0369C56.327 25.0795 56.3696 25.1222 56.327 25.1648H56.1991C56.1136 25.1222 56.1135 25.0795 56.0709 24.9943L54.9203 23.1611C54.8777 23.1185 54.8348 23.1185 54.8348 23.0332C54.8348 22.9906 54.8774 23.0332 54.9203 22.9906C54.963 22.948 55.0908 22.948 55.1764 22.9054C55.2187 22.8201 55.3043 22.7349 55.3043 22.6496C55.3892 22.4791 55.3892 22.3086 55.4321 22.1381C55.4321 22.0528 55.3895 21.8823 55.2616 21.7971C55.0911 21.6692 53.2156 21.2856 53.2156 21.2856C53.173 21.2856 53.0451 21.2856 53.0025 21.3282C52.9599 21.3708 52.8743 21.4987 52.832 21.584C52.7464 21.7545 52.7464 21.925 52.7038 22.0955C52.7038 22.1807 52.7464 22.266 52.7894 22.3512C52.7894 22.3939 52.8743 22.4365 52.9172 22.4791C53.0454 22.5644 53.1733 22.5217 53.2582 22.6496C53.3438 22.7349 53.3009 22.7775 53.2582 22.8627L52.5762 25.3779C52.5339 25.4632 52.4913 25.5058 52.4057 25.5058C52.2778 25.5484 52.1503 25.5058 52.0221 25.5058C51.9798 25.5058 51.8942 25.5058 51.8942 25.5484C51.8516 25.591 51.7663 25.6337 51.7663 25.6763C51.7237 25.7616 51.6385 25.9321 51.6385 26.0173C51.5958 26.1875 51.5958 26.3583 51.6385 26.4862C51.6385 26.5714 51.7663 26.6567 51.809 26.6567C52.0218 26.7419 52.3205 26.8272 52.5336 26.9124C52.9166 26.9977 53.5137 27.1256 53.7271 27.1682C53.7697 27.1682 53.9399 27.1256 53.9826 27.0829C54.0681 26.9977 54.1531 26.8701 54.1957 26.7419C54.2383 26.6141 54.2812 26.4436 54.2812 26.3157C54.2812 26.2731 54.2386 26.1452 54.1957 26.1026C54.1528 26.0599 54.0678 25.9747 54.0252 25.9747C53.9397 25.9321 53.8547 25.9321 53.7697 25.8894C53.7271 25.8468 53.7271 25.8042 53.6842 25.7616V25.6337C53.7268 25.4205 54.0252 24.3546 54.1102 24.1841C54.1102 24.1415 54.1102 24.1415 54.1528 24.1415L54.2383 24.2267L55.5594 26.2728C55.5594 26.3154 55.5594 26.3154 55.5171 26.358C55.4315 26.4006 55.346 26.358 55.261 26.4433C55.1761 26.4859 55.0905 26.6138 55.0479 26.699C55.0053 26.8695 54.92 27.0397 54.92 27.2105C54.92 27.2958 55.005 27.4663 55.0479 27.5086L57.0516 28.1057C57.1366 28.1057 57.2221 28.063 57.3071 28.0204C57.3497 28.0204 57.4352 27.9352 57.4352 27.8499C57.5202 27.6794 57.6057 27.4663 57.6481 27.2958C57.6481 27.2105 57.6057 27.1253 57.5631 27.0826C57.5205 26.9974 57.3926 26.9121 57.3071 26.8698C57.3071 26.8698 57.2221 26.8698 57.2221 26.8272C57.1366 26.7846 57.1366 26.7846 57.0942 26.6993V26.5288L57.7762 24.0989C57.8189 24.0562 57.8189 24.0136 57.8612 23.971C57.9038 23.9284 57.9467 23.9284 58.0317 23.9284C58.1599 23.8857 58.2448 23.9284 58.3727 23.9284C58.4153 23.9284 58.5009 23.8857 58.5009 23.8857C58.5858 23.8005 58.6714 23.7152 58.7137 23.63C58.7563 23.5021 58.8419 23.2893 58.8419 23.1185C58.8419 23.0332 58.8419 22.948 58.7563 22.8204C58.714 22.7354 56.8385 21.9682 56.4975 22.2239ZM22.3516 23.9292C22.4369 23.9719 22.4795 24.0145 22.4795 24.0571C22.5647 24.3129 23.1189 26.4018 23.1615 26.6576C23.1615 26.7002 23.1615 26.7428 23.0762 26.7854C23.0762 26.7854 22.5647 26.9133 22.5647 27.2969C22.6074 27.6806 22.8631 28.0642 22.8631 28.0642C22.9484 28.1068 23.0762 28.1495 23.1189 28.1495L26.9554 27.1691C27.0407 27.1264 27.1686 27.0838 27.2538 26.9986C27.2964 26.9133 27.3391 26.7428 27.3391 26.6149C27.2964 26.4018 26.9981 25.3362 26.9128 25.0804C26.9128 25.0804 26.8276 24.7394 26.3161 24.8673C25.8472 24.9952 25.8472 25.2935 25.8472 25.2935C25.8898 25.5067 25.9751 25.6772 25.9751 25.8903C25.9751 25.9329 25.9751 25.9756 25.9324 26.0182L24.5258 26.4444C24.4832 26.4444 24.4405 26.4018 24.3979 26.4018C24.3553 26.3592 24.3553 26.3592 24.3553 26.3166L23.6307 23.7161C23.6307 23.6735 23.6307 23.6309 23.6733 23.5882C23.6733 23.5882 24.27 23.503 24.2274 22.8636C24.1848 22.1816 23.6307 22.2242 23.6307 22.2242L21.7125 22.7357C21.7125 22.7357 21.542 22.7784 21.4994 22.9915C21.4141 23.2472 21.6273 23.7587 21.7978 23.8866C21.9254 24.0145 22.3516 23.9292 22.3516 23.9292ZM50.5722 22.0534C50.7001 22.0534 50.7851 22.0961 50.8703 22.1813C50.913 22.2239 50.9553 22.3518 50.913 22.4371L50.4438 24.9523C50.4438 24.9949 50.4015 25.0801 50.3588 25.1228C50.3162 25.1654 50.2307 25.1654 50.1457 25.1654L48.0997 24.8244C48.0141 24.7818 47.9292 24.7391 47.8866 24.6539C47.8439 24.526 47.8866 24.4407 47.8866 24.3555L48.3551 21.8403L48.483 21.7124L50.5722 22.0534ZM30.2805 23.1191C30.3658 23.1617 30.4084 23.2469 30.4936 23.2896C30.5363 23.3748 30.5363 23.4601 30.5789 23.545C30.5789 23.5877 30.6215 23.6303 30.5789 23.6303C30.451 23.7155 30.2379 23.7582 30.0674 23.7582H29.9821C29.9395 23.7155 29.8969 23.7155 29.8969 23.6729V23.4598C29.9395 23.3319 29.9821 23.204 30.0248 23.1188C30.0674 23.0762 30.11 23.0762 30.1526 23.0762C30.1953 23.0767 30.2379 23.0767 30.2805 23.1191ZM33.9043 51.2545C33.9043 51.2545 34.0321 51.8086 34.6289 52.1496C35.865 52.7461 44.3057 52.4477 45.2435 52.1496C46.1386 51.8509 46.096 51.425 46.096 51.425C46.096 51.425 46.9485 41.4924 46.2239 38.082C45.8829 35.8226 43.5808 33.9897 43.5808 33.9897C43.5385 33.9471 43.5385 33.8618 43.5385 33.7766C43.5385 33.734 43.6663 33.734 43.7084 33.734C43.8366 33.6913 43.9215 33.734 44.092 33.7766C44.1776 33.7766 44.2202 33.8618 44.2625 33.9045C44.3481 33.9471 44.3907 34.0323 44.4756 34.075C44.5183 34.1176 44.6462 34.1602 44.6888 34.1176C44.7737 34.1176 44.8593 34.0323 44.9019 33.9471C44.9869 33.9045 44.9869 33.7769 45.0724 33.6916C45.115 33.6064 45.2003 33.6064 45.2855 33.5638C45.3705 33.4785 45.4984 33.3506 45.541 33.2227C45.5836 33.1375 45.541 33.0096 45.541 32.9244C45.4984 32.7965 45.456 32.7112 45.3705 32.626C45.2 32.4132 44.9869 32.2424 44.859 32.0292C44.859 31.9866 44.859 31.9014 44.9016 31.8587C44.9439 31.6456 45.2426 30.8784 45.4131 30.4095L45.7967 29.3865C45.8391 29.3012 45.8391 29.1733 45.8391 29.0455C45.8391 28.9602 45.8391 28.8323 45.7967 28.7471C45.7514 28.6193 45.6786 28.5029 45.5836 28.4061C45.4791 28.3325 45.3642 28.275 45.2426 28.2356C44.9016 28.1077 44.5606 27.9798 44.2196 27.8946C43.6226 27.7667 42.9835 27.6814 42.3864 27.5536C41.9599 27.5109 41.5339 27.4683 41.1074 27.4683C40.5532 27.4257 39.9991 27.4683 39.445 27.4683C39.1892 27.4683 38.8908 27.4683 38.6351 27.5109C38.0052 27.5571 37.3788 27.6425 36.7596 27.7667C36.2481 27.8519 35.6939 28.0225 35.2251 28.193C35.0972 28.2356 34.9693 28.2782 34.8414 28.3632C34.7562 28.4484 34.6709 28.5763 34.6283 28.6615C34.5431 28.7894 34.5004 28.9173 34.5004 29.0452C34.5431 29.2583 34.6283 29.514 34.6709 29.7698C34.7562 29.9829 34.8841 30.1961 34.9693 30.4092L35.2251 31.1764C35.3103 31.4322 35.4382 31.7306 35.4808 31.9011C35.4808 31.9863 35.4382 32.1142 35.3956 32.1568C35.2677 32.3699 35.0546 32.4978 34.9267 32.711C34.8875 32.7309 34.8548 32.7615 34.8322 32.7992C34.8096 32.8369 34.798 32.8801 34.7988 32.9241C34.7562 33.0093 34.7988 33.1372 34.7988 33.2225C34.7988 33.3077 34.8414 33.4356 34.9267 33.4782C35.0119 33.5635 35.1398 33.6061 35.2251 33.6487C35.2677 33.734 35.3103 33.7766 35.3956 33.8618C35.3956 33.9045 35.3956 34.032 35.4382 34.075C35.5234 34.1176 35.6087 34.1602 35.6939 34.1176C35.7792 34.1176 35.9071 34.0323 35.9923 33.9897C36.0349 33.9471 36.0776 33.8618 36.1628 33.8192C36.2054 33.8192 36.2481 33.7766 36.2907 33.7766C36.4612 33.734 36.5464 33.7766 36.6743 33.7766C36.7169 33.7766 36.8022 33.8618 36.8022 33.8618C36.8448 33.9471 36.7596 33.9471 36.7596 33.9897C36.7596 33.9897 34.5428 35.7374 34.0313 38.1673C33.5203 40.5969 33.9043 51.2545 33.9043 51.2545ZM42.8559 33.2648C42.8985 33.2648 42.8985 33.3074 42.9414 33.35V33.5632C42.8988 33.5632 42.8988 33.6058 42.8559 33.6058H37.5274C37.4848 33.6058 37.4422 33.5632 37.4422 33.5632C37.3995 33.4779 37.3995 33.393 37.3995 33.35C37.4422 33.3074 37.4848 33.2648 37.5274 33.2648H42.8559ZM37.3569 30.8349C37.3995 30.8775 37.3995 30.9201 37.3995 30.9627L37.4422 32.0713L37.0585 32.7533C37.0159 32.8385 37.0585 32.9664 36.9733 33.0517H36.5044C36.4511 32.9933 36.4208 32.9176 36.4192 32.8385L35.7798 30.9204L35.1404 29.002V28.9167C35.1404 28.9167 37.0159 27.9789 39.9147 27.9363C42.2594 27.8937 44.1779 28.4052 44.1779 28.4052L45.1579 28.8315C45.2006 28.8741 45.2435 28.9167 45.2435 28.9593L43.8795 33.0517H43.4103C43.368 33.0517 43.368 33.0517 43.3253 33.009C43.3253 32.9238 43.3253 32.7959 43.2827 32.7107L42.9417 32.327V31.0056L43.2398 30.3236C43.1972 30.2384 43.1548 30.1958 43.1119 30.1958C42.9414 30.1105 42.8138 30.1105 42.6854 30.1105C42.0889 30.0679 41.4492 30.0253 40.8528 30.0253C40.1279 30.0253 39.4032 29.9826 38.6786 30.0253C38.2523 30.0253 37.5703 30.1105 37.3572 30.1531C37.272 30.1531 37.1867 30.2384 37.1441 30.3236L37.3569 30.8349ZM35.6945 33.009C35.6945 33.0517 35.6945 33.0517 35.6519 33.0517C35.6519 33.009 35.6093 33.009 35.6093 32.9664C35.6093 32.9238 35.5666 32.9238 35.6093 32.8812C35.6519 32.8812 35.7371 32.8385 35.7371 32.8812C35.7798 32.9238 35.7371 33.009 35.6945 33.009ZM44.774 33.009C44.774 33.009 44.7317 33.0517 44.6891 33.0517C44.6464 33.0517 44.6464 33.009 44.6041 32.9664V32.8812C44.6464 32.8812 44.6891 32.8812 44.732 32.9238C44.774 32.9238 44.774 32.9664 44.774 33.009ZM56.7529 53.6841C56.7529 53.5986 56.7106 53.5562 56.7529 53.471C56.7529 53.4284 56.7529 53.386 56.7956 53.3431C56.9237 53.2576 57.0516 53.2576 57.1366 53.1726C57.2221 53.13 57.2647 53.0447 57.3071 52.9595V52.6614C57.2647 52.4909 57.2221 52.2778 57.1366 52.1499C57.0942 52.1073 56.7529 52.0217 56.7106 52.0217L54.7069 52.5759C54.622 52.6185 54.579 52.789 54.579 52.8739C54.579 53.045 54.6217 53.2155 54.7069 53.3005C54.7069 53.4284 54.7925 53.5565 54.8774 53.6415C54.963 53.6841 55.0905 53.6841 55.1761 53.727C55.304 53.727 55.4315 53.6844 55.5591 53.6844C55.6018 53.6844 55.6018 53.727 55.6018 53.77C55.6444 53.9405 55.9428 55.134 55.9854 55.3471C55.9854 55.3894 56.028 55.3894 55.9854 55.3894C55.9428 55.432 55.8998 55.432 55.8575 55.3894L53.6404 54.2388C53.5978 54.2388 53.5978 54.2388 53.5978 54.1962C53.5978 54.1536 53.6404 54.1962 53.6404 54.1536C53.683 54.1112 53.7686 54.0686 53.8535 53.9831C53.8535 53.8981 53.8962 53.8126 53.8962 53.7276C53.8535 53.5145 53.7683 53.2161 53.683 53.0456C53.683 53.003 53.5551 52.9601 53.5125 52.9174H53.2144L51.5088 53.344C51.4662 53.3866 51.381 53.4289 51.3383 53.4289L51.1678 53.5994V53.9831C51.2105 54.1536 51.2534 54.3667 51.3383 54.4946C51.381 54.5372 51.5088 54.5801 51.5944 54.6227H52.063C52.1056 54.6227 52.1056 54.6227 52.1056 54.6651L52.7447 57.5642C52.6597 57.6492 52.4892 57.6492 52.3611 57.7347C52.3187 57.7773 52.2761 57.8202 52.2332 57.8626V58.3317C52.2758 58.4596 52.3611 58.6298 52.4037 58.7577C52.4463 58.8003 52.5318 58.8433 52.5742 58.8433C52.6168 58.8856 52.7021 58.8856 52.7447 58.8856L54.6208 58.4596C54.6631 58.417 54.7487 58.3741 54.7913 58.3317C54.8336 58.3317 54.8762 58.2462 54.8762 58.2036V57.6494C54.8336 57.5645 54.7913 57.4366 54.7484 57.3514C54.7057 57.3087 54.5779 57.2235 54.5352 57.2235C54.3647 57.2235 54.1516 57.2661 53.9811 57.2235C53.9385 57.2235 53.9385 57.1809 53.8962 57.1379C53.8535 56.9251 53.5551 55.7739 53.5125 55.6034C53.5125 55.5608 53.5125 55.5185 53.5552 55.5185C53.5975 55.4758 53.5975 55.4758 53.6401 55.5185L55.8143 56.6264C55.8993 56.6691 55.8993 56.712 55.8993 56.7546C55.9419 56.7969 55.8993 56.7969 55.8993 56.7969C55.8569 56.8825 55.7288 56.9251 55.7288 57.053C55.6864 57.1379 55.6864 57.2661 55.7288 57.3511C55.7288 57.5216 55.8143 57.6921 55.8993 57.8626C55.9419 57.9052 55.9848 57.9907 56.0274 57.9907C56.1663 58.0331 56.3146 58.0331 56.4534 57.9907L58.201 57.4366C58.2437 57.4366 58.3292 57.3511 58.3715 57.2661C58.4142 57.1379 58.3715 56.9674 58.3715 56.8396C58.3292 56.7117 58.2866 56.5415 58.201 56.4136C58.201 56.371 58.1161 56.2854 58.0732 56.2854C57.9026 56.2428 57.6466 56.2854 57.4761 56.2428C57.4338 56.2428 57.4338 56.2005 57.3911 56.1578L56.7529 53.6841ZM22.4795 54.4087V54.7924C22.5221 54.8773 22.5221 55.0052 22.5647 55.0905C22.6926 55.2183 22.8205 55.3885 22.9484 55.4315C23.2467 55.517 25.3357 56.1135 25.5914 56.199C25.6341 56.199 25.6341 56.2413 25.6767 56.284C25.6767 56.3266 25.7193 56.3695 25.7193 56.4121C25.6767 56.625 25.6341 56.7952 25.5488 56.9657C25.5062 57.0512 25.5062 57.1362 25.4209 57.1788C25.2931 57.2214 25.2504 57.1788 25.1225 57.1362L23.2894 56.6676C23.2041 56.625 23.1615 56.625 23.1189 56.5397C23.0762 56.4971 23.0762 56.4971 23.0762 56.4542C23.0762 56.2837 23.1615 56.1561 23.1615 56.0282C23.1615 55.9427 23.1615 55.8577 23.1189 55.8151C23.1189 55.7295 23.0336 55.6872 22.9484 55.6446C22.8208 55.5635 22.6733 55.5192 22.5221 55.5167C22.4369 55.4741 22.309 55.5167 22.2664 55.559C22.2237 55.6017 22.1385 55.6872 22.0959 55.7722C22.0532 55.9853 21.9254 56.3263 21.8827 56.5823C21.8401 56.7102 21.7975 56.8378 21.8401 57.0083C21.8401 57.1362 21.8827 57.3064 21.9254 57.3919C22.0106 57.5198 22.1382 57.69 22.2664 57.7329L25.1652 58.5425C25.3357 58.5425 25.5062 58.5852 25.6767 58.5425C25.8046 58.5425 25.9324 58.5002 26.0603 58.4147C26.1882 58.3297 26.3161 58.2015 26.3587 58.0737L26.8702 55.8571C26.8276 55.7716 26.7849 55.6011 26.7423 55.5161C26.6571 55.4306 26.5292 55.303 26.4439 55.2601L23.7582 54.4925C23.7156 54.4925 23.673 54.4925 23.673 54.4502C23.6304 54.322 23.6304 54.2371 23.673 54.1515C23.7156 53.981 23.7582 53.8961 23.8009 53.7685C23.8435 53.7259 23.8435 53.6829 23.8861 53.6829C23.9287 53.6403 23.9714 53.5974 24.014 53.6403L25.9321 54.1518C26.0174 54.1518 26.06 54.1945 26.1026 54.1945C26.1879 54.2371 26.2305 54.2371 26.2305 54.3223C26.2731 54.4505 26.1879 54.621 26.2305 54.7915C26.2305 54.8765 26.2731 54.962 26.3584 55.0043C26.4863 55.0899 26.6994 55.1325 26.8699 55.1754C26.9551 55.1754 27.0404 55.1328 27.083 55.0899C27.1256 55.047 27.2109 54.962 27.2535 54.8767C27.2962 54.7062 27.3814 54.4931 27.424 54.2803C27.4667 54.1521 27.5093 53.9816 27.5093 53.8537C27.5093 53.7688 27.4667 53.6406 27.424 53.5557L27.2962 53.2996L27.1256 53.1291L24.1416 52.2766C24.0137 52.234 23.8432 52.234 23.7153 52.234C23.6301 52.234 23.5022 52.2766 23.4169 52.2766C23.3317 52.3192 23.2464 52.3192 23.2038 52.3616C23.1612 52.4471 23.0333 52.5326 22.9907 52.6176L22.4795 54.4087ZM30.5363 59.6093C30.5789 59.6093 30.7068 59.567 30.7494 59.5244C30.792 59.4818 30.8773 59.3965 30.9199 59.3113C31.0051 59.1408 31.0051 58.9702 31.0478 58.8427C31.0478 58.7145 31.0051 58.5866 30.9625 58.5017C30.9199 58.459 30.8346 58.4161 30.792 58.3735C30.7068 58.3312 30.5789 58.3312 30.4936 58.2885C30.451 58.2459 30.451 58.203 30.451 58.1607C30.4084 58.118 30.4084 58.118 30.4084 58.0751L30.8773 55.6455C30.9199 55.5176 30.9199 55.4323 31.0051 55.3045C31.0478 55.2618 31.0904 55.2618 31.1756 55.2618C31.3885 55.3045 31.7298 55.3897 31.9429 55.4323C31.9855 55.4323 31.9855 55.4323 31.9855 55.475C32.0282 55.6028 31.9855 55.7731 31.9855 55.9009V56.3275C32.0282 56.413 32.1134 56.498 32.156 56.5406C32.2839 56.5832 32.4118 56.5832 32.5397 56.5832C32.5823 56.6256 32.7102 56.6256 32.7954 56.5832C32.838 56.5406 32.9659 56.4127 32.9659 56.3272C33.0512 56.1141 33.179 55.6452 33.2643 55.3042C33.3069 55.1337 33.3069 54.9205 33.3069 54.75V54.5369C33.2643 54.452 33.179 54.3238 33.1364 54.3238L28.6178 53.4287C28.4473 53.3863 28.3195 53.4287 28.149 53.4287L28.0637 53.4713C27.9785 53.5568 27.8932 53.6418 27.8506 53.77C27.8079 53.9828 27.6801 54.835 27.5948 55.3045C27.5948 55.3894 27.5948 55.5176 27.6374 55.5599C27.6374 55.6455 27.7653 55.7304 27.8079 55.7304C27.8932 55.7731 28.0637 55.816 28.1916 55.816C28.2342 55.816 28.3621 55.816 28.4047 55.7733C28.49 55.6884 28.5752 55.5179 28.6605 55.4323L28.7883 54.9208L28.831 54.8782H28.9588C29.172 54.9208 29.5556 55.0061 29.7687 55.0487C29.8113 55.0487 29.8113 55.0487 29.8113 55.0913L29.3425 57.6489C29.2998 57.7344 29.2998 57.862 29.2572 57.9475C29.2572 57.9902 29.2572 57.9902 29.2146 57.9902C29.0441 58.0325 28.831 58.0325 28.6605 58.0751C28.6178 58.0751 28.5326 58.1177 28.5326 58.1177C28.4473 58.2882 28.4047 58.4587 28.3621 58.5863C28.3195 58.7139 28.3195 58.8424 28.3621 58.9273C28.3621 59.0129 28.4047 59.1405 28.4473 59.1834L30.5363 59.6093ZM50.9132 54.2382C50.8706 54.1527 50.7851 54.0251 50.7427 53.9822C50.7001 53.8972 50.5722 53.8117 50.4867 53.7694C50.3588 53.7267 50.1886 53.6838 50.0602 53.6412L47.0761 54.1104C46.9056 54.1527 46.693 54.2382 46.5646 54.3232C46.4796 54.3658 46.4367 54.4514 46.3941 54.4937C46.3517 54.6219 46.2662 54.7497 46.2236 54.8773C46.2236 55.0905 46.2236 55.3465 46.2662 55.5593L46.8203 59.0975C46.8203 59.268 46.9482 59.4385 47.0758 59.5241C47.1613 59.609 47.3318 59.6946 47.4594 59.6946L51.1681 59.0975C51.2108 59.0975 51.296 59.0126 51.296 58.9697C51.3815 58.8841 51.4665 58.7565 51.4665 58.6716C51.5091 58.5011 51.552 58.3306 51.5091 58.1601L50.9132 54.2382ZM37.8687 60.1635C37.9113 60.1208 37.954 60.0356 37.954 59.9503C37.9966 59.8225 38.0392 59.6093 37.9966 59.4388C37.9966 59.3539 37.954 59.226 37.9113 59.1834C37.9113 59.1407 37.8261 59.0978 37.7408 59.0555C37.6556 59.0129 37.4851 59.0555 37.3998 58.97C37.272 58.8421 37.2293 58.7139 37.1867 58.5863L36.0358 55.9862C35.9932 55.9006 36.0358 55.9006 36.0358 55.8157H36.0784C36.1637 55.773 36.2489 55.773 36.3342 55.7301C36.3768 55.6878 36.5047 55.6452 36.5047 55.5596C36.5899 55.4318 36.6326 55.1766 36.6326 55.0055C36.6326 54.9205 36.5473 54.75 36.5047 54.6645C36.5047 54.6222 36.3768 54.5366 36.3342 54.5366L34.2029 54.3661C34.1177 54.4087 34.0324 54.5366 33.9898 54.6222C33.9472 54.75 33.9045 54.9202 33.9045 55.0481C33.9045 55.1763 33.9472 55.3042 33.9898 55.4318C34.0324 55.4744 34.0751 55.5596 34.1603 55.5596C34.2029 55.6452 34.2882 55.6023 34.3308 55.6878C34.3734 55.7301 34.3308 55.7301 34.3308 55.7728L32.4127 58.5434C32.4127 58.5434 32.37 58.5434 32.3274 58.586C32.1569 58.586 31.9438 58.586 31.7733 58.6287C31.688 58.6713 31.6454 58.8418 31.6028 58.9267C31.5602 59.0549 31.5175 59.1828 31.5175 59.3104C31.5175 59.3959 31.6028 59.5664 31.6454 59.6514C31.6454 59.694 31.7307 59.7793 31.8159 59.8219L33.9048 59.9924C33.9901 59.9924 34.0753 59.9074 34.0753 59.8219C34.1606 59.6514 34.2032 59.4383 34.2458 59.2677C34.2458 59.1828 34.2032 59.0549 34.1606 59.0123C34.118 58.9267 33.9901 58.8418 33.9048 58.7992C33.8622 58.7565 33.777 58.7992 33.777 58.7136C33.7343 58.6713 33.7343 58.6287 33.777 58.5857C33.8196 58.5008 33.8622 58.4579 33.9475 58.4152C34.0327 58.3303 34.0753 58.3303 34.2032 58.3303C34.4163 58.3726 35.7377 58.4582 35.9082 58.5008C35.9935 58.5431 35.9935 58.6287 36.0361 58.7136C36.0787 58.7992 36.1214 58.7992 36.0787 58.8841C36.0787 58.9267 36.0787 58.9267 36.0361 58.9267C35.8656 59.0123 35.6525 59.0123 35.5246 59.0549C35.4394 59.0972 35.3967 59.2254 35.3967 59.2677C35.3541 59.4931 35.3541 59.7244 35.3967 59.9498C35.3967 60.0353 35.5246 60.1629 35.6099 60.2058L37.8687 60.1635ZM46.096 59.6949C46.1386 59.5244 46.1386 59.2263 46.096 59.0558C46.096 58.9702 46.011 58.7997 45.9255 58.7571C45.755 58.6722 45.4989 58.7145 45.3284 58.6722V58.5866L45.073 55.9865C45.073 55.9009 45.073 55.816 45.1156 55.7304C45.1156 55.6881 45.1579 55.6881 45.2006 55.6455C45.3284 55.6028 45.4987 55.5599 45.6271 55.5176C45.6695 55.475 45.755 55.432 45.755 55.3894C45.7976 55.3045 45.84 55.1766 45.84 55.0484C45.84 54.9205 45.7976 54.7503 45.755 54.5798C45.755 54.5372 45.7124 54.452 45.6271 54.4093C45.5845 54.3667 45.4566 54.3238 45.3284 54.3238L43.368 54.5369C43.3253 54.5369 43.2398 54.6225 43.1969 54.6648C43.1546 54.7503 43.1119 54.9208 43.1119 55.0484C43.1546 55.2189 43.1969 55.432 43.2398 55.5599C43.2398 55.6455 43.368 55.6881 43.4103 55.6881C43.5808 55.773 43.7513 55.7304 43.8795 55.816C43.9644 55.816 43.9644 55.8586 43.9644 55.9438L44.1776 58.5869C44.1776 58.6725 44.1349 58.7148 44.092 58.7574V58.8C43.9215 58.885 43.751 58.885 43.6234 58.9705C43.5808 58.9705 43.4956 59.0984 43.4956 59.141C43.4529 59.2689 43.4956 59.4391 43.4956 59.5676C43.4956 59.6955 43.4529 59.7381 43.6234 59.9935C43.7939 60.2913 46.181 59.9503 46.096 59.6949ZM41.0653 60.249C41.1079 60.249 41.1509 60.2064 41.1935 60.1635L41.364 59.993C41.4066 59.908 41.4066 59.7798 41.4066 59.652C41.4066 59.5241 41.364 59.311 41.3211 59.1834C41.2785 59.1407 41.2361 59.0978 41.1932 59.0555C41.0227 59.0129 40.8522 59.0129 40.6817 58.97C40.6391 58.9273 40.6391 58.9273 40.6391 58.8421L40.7246 55.9003C40.9374 55.858 41.4916 55.858 41.6621 55.9003C41.7047 55.9003 41.7047 55.943 41.7047 56.0285C41.7473 56.2413 41.7473 56.5826 41.8326 56.7531C41.8752 56.8381 42.0031 56.881 42.0886 56.9236C42.1736 56.966 42.3015 56.9236 42.4296 56.9236C42.4723 56.9236 42.5146 56.881 42.5575 56.881L42.728 56.7105L42.8135 54.9629C42.8135 54.8773 42.7709 54.7924 42.728 54.7497C42.6851 54.7071 42.643 54.6219 42.6001 54.6219L37.7829 54.5363C37.7402 54.5363 37.655 54.5363 37.6124 54.579C37.5216 54.6271 37.4474 54.7013 37.3992 54.7921C37.3992 54.8344 37.3566 54.92 37.3566 54.9626V56.4971C37.3566 56.5826 37.3992 56.7102 37.4419 56.7531C37.4845 56.7955 37.5697 56.881 37.6124 56.881C37.7829 56.9236 37.9534 56.9236 38.0813 56.881C38.1665 56.8384 38.337 56.7531 38.337 56.6679C38.4223 56.4974 38.4223 56.1564 38.4649 55.9433V55.9006C38.6354 55.8583 38.8485 55.8583 39.0616 55.8583C39.1895 55.8583 39.3174 55.8583 39.4453 55.9006C39.4879 55.9006 39.4879 55.9006 39.4879 55.9433V58.4585C39.4879 58.629 39.5305 58.7565 39.4453 58.8844C39.4453 58.927 39.4026 58.927 39.36 58.97C39.1895 59.0555 38.9764 59.0555 38.8485 59.1405C38.7633 59.226 38.7206 59.4385 38.7206 59.567C38.7206 59.6949 38.7633 59.908 38.8059 60.0785L38.9764 60.249H41.0653ZM48.0141 58.4158C47.9715 58.4158 47.7587 58.3732 47.7587 58.3309L47.375 55.6878C47.3324 55.6452 47.3324 55.5596 47.375 55.4747C47.375 55.432 47.4174 55.3468 47.46 55.3468L49.7192 54.9632H49.8902L50.0181 55.091L50.4017 57.7767C50.4017 57.8617 50.3591 57.9472 50.3591 58.0322C50.3165 58.0748 50.3165 58.1177 50.2736 58.1177L48.0141 58.4158ZM35.2256 56.7108C35.3109 56.8813 35.3961 57.0944 35.4388 57.2649C35.4388 57.3073 35.4814 57.3928 35.4388 57.3928C35.3109 57.4354 35.0978 57.4354 34.9699 57.4354C34.8846 57.4354 34.7994 57.4354 34.7141 57.3928C34.6715 57.3502 34.6289 57.3073 34.6289 57.2649C34.6715 57.1794 34.7141 57.0944 34.7994 56.9663C34.842 56.9239 34.8846 56.8384 34.9273 56.7534C34.9699 56.7108 35.0551 56.6679 35.0978 56.6679C35.1404 56.6682 35.1827 56.6682 35.2256 56.7108Z" fill="white"/>
</svg>
