<svg xmlns="http://www.w3.org/2000/svg" width="80" height="80" fill="none" viewBox="0 0 80 80"><rect width="79" height="79" x=".5" y=".5" fill="#fff" rx="7.5"/><rect width="79" height="79" x=".5" y=".5" stroke="#eee" rx="7.5"/><path fill="#497dbb" fill-rule="evenodd" d="M16.298 20.561c0-.042 0-.042.043-.085 0 0 9.165-4.476 23.574-4.476C54.366 16 64 20.519 64 20.519l-5.925 19.31 5.797 19.568S55.56 64 39.318 64 16 59.695 16 59.695l6.053-19.908z" clip-rule="evenodd"/><path fill="#fff" fill-rule="evenodd" d="m22.906 39.873-5.84 18.97a.47.47 0 0 0 0 .34c0 .043.042.129.128.171 0 0 9.676 3.837 22.848 3.837 13.173 0 22.807-4.348 22.807-4.348l-5.627-19.184 5.712-18.458a.45.45 0 0 0-.085-.213s-8.867-4.177-23.02-4.177c-12.447 0-22.55 4.262-22.55 4.262-.043.043-.043.17-.043.256z" clip-rule="evenodd"/><path fill="#497dbb" fill-rule="evenodd" d="M18.686 22.054c0-.043-.043-.128 0-.213.042-.086.128-.17.213-.17 0 0 8.44-3.71 21.016-3.71s21.613 3.667 21.613 3.667.042.042.042.085v.255l-5.456 17.606c0 .086-.085.213-.043.299l5.457 18.16c0 .042 0 .085-.043.128 0 0-8.654 3.921-21.656 3.921S18.685 58.63 18.685 58.63c-.042 0-.127-.086-.17-.128s-.085-.086-.085-.17l5.627-18.29c.043-.084 0-.212 0-.34z" clip-rule="evenodd"/><path fill="#fff" fill-rule="evenodd" d="M38.892 25.506c.298-.042.767-.042.98-.085.085 0 .17-.128.256-.17 0-.043.042-.086.042-.128a1.6 1.6 0 0 0 0-.64.23.23 0 0 0-.127-.213c-.128-.085-.341-.128-.427-.213-.042-.042-.042-.042 0-.085l1.151-2.686a.6.6 0 0 1 .17-.128c.086-.042.257-.042.342-.085s.213-.085.256-.17a.33.33 0 0 0 .085-.213c.042-.17 0-.384 0-.554a.4.4 0 0 0-.043-.128c-.042-.085-.128-.128-.213-.17-.042-.043-.128-.043-.17-.043-.469-.043-.98-.043-1.45-.043-.128 0-.298 0-.426.043a.32.32 0 0 0-.213.085c-.042.085-.128.213-.128.298-.042.17-.042.383 0 .512 0 .085.086.255.17.298.086.085.257.042.342.128.085 0 .085.042.085.085-.043.17-.128.298-.17.469a63 63 0 0 1-.597 1.279c0 .042-.043 0-.043 0-.043 0-.085.042-.085 0-.085-.128-.256-.47-.426-.725-.128-.298-.341-.682-.427-.895q-.063-.064 0-.128s.384-.085.512-.554c0-.47-.043-.682-.299-.767-.298-.086-2.003 0-2.216.17-.213.128-.213.213-.17.682 0 .469.51.554.51.554.043.043.043 0 .043.043l-.724 1.876-1.066-1.663c0-.043 0-.043.043-.043 0 0 .383-.17.469-.383.085-.17.085-.853-.256-.938-.299-.085-2.004.085-2.26.256-.212.127-.127.682-.127.682l.128.383a1 1 0 0 0 .213.128c.127 0 .255 0 .383.043.128 0 .17.042.213.128l1.535 2.515v.128c-.043.042-.043 0-.085.042s-.128.043-.171.086c-.085.042-.17.128-.17.213a1.6 1.6 0 0 0 0 .64s-.043.084.213.297c.298.171 2.216-.255 2.216-.255.043 0 .128-.085.128-.128a1 1 0 0 0 .086-.341q0-.255-.128-.512c0-.042-.085-.085-.128-.128-.085-.042-.256-.042-.341-.127l.64-1.748.98 1.577v.085c-.086.128-.256.128-.341.213a1 1 0 0 0-.128.469c0 .17.085.34.128.469 0 .042.085.085.127.128.171.042.341.085.555.085zm6.436.213c.129 0 .341-.042.512-.127.128-.043.256-.17.341-.299a.45.45 0 0 0 .086-.213c.085-.426.127-.81.17-1.236.043-.298 0-.682 0-.895-.043-.085-.085-.17-.085-.213-.085-.128-.213-.256-.341-.299-.086-.085-.256-.128-.384-.128l-2.472-.255c-.043 0-.086 0-.128-.043l-.043-.042v-.554c0-.043 0-.043.043-.086s.042-.085.128-.085l1.79.085c.128.043.256.043.383.086.086.042.086.042.129.128.042.17.042.383.127.511.043.085.214.128.256.128h.341c.043 0 .171 0 .213-.043.086-.085.128-.255.17-.383.086-.17.086-.427.086-.64 0-.17-.042-.34-.085-.511a.32.32 0 0 0-.085-.17c-.086-.086-.17-.171-.256-.214s-.213-.128-.341-.128l-2.899-.256c-.086 0-.213 0-.341.043a.45.45 0 0 0-.213.085.7.7 0 0 0-.299.17c-.085.129-.17.3-.213.47-.042.213-.128 1.279-.128 1.492 0 .17.043.383.128.511a.9.9 0 0 0 .213.341c.128.043.256.128.427.128.256.043 1.918.17 2.472.256.086 0 .128.042.213.042v.043c.043.128.043.17.043.256 0 .213 0 .426-.085.596 0 .043-.043.086-.085.086l-2.132-.17h-.128c-.043-.043-.043-.043-.043-.129-.042-.17-.042-.426-.085-.639 0-.043-.085-.128-.128-.128-.128-.043-.299-.043-.383-.043-.086 0-.214-.042-.299 0s-.17.171-.213.256a5.3 5.3 0 0 0-.085.895c0 .17.042.341.042.512 0 .043.043.128.043.17.085.086.213.214.341.299zm6.736-3.921c.042-.128-.043-.298-.085-.427a1 1 0 0 0-.128-.213c-.085-.085-.256-.213-.341-.213l-3.282-.554c-.086 0-.128.043-.214.043-.042.042-.17.042-.213.085-.085.085-.213.17-.255.298-.086.128-.128.341-.17.512l-.64 3.751c0 .128.085.299.128.426 0 .086.17.299.255.341l3.155.554a.73.73 0 0 0 .426 0c.085 0 .213-.085.256-.127.128-.086.256-.17.34-.299.044-.128.129-.298.129-.426zm-20.718 4.39c.256.086 2.217-.127 2.345-.468s.085-.256.042-.384c0-.17-.042-.383-.127-.511-.043-.086-.214-.086-.256-.128-.17-.043-.299 0-.426-.085l-.597-.682-1.492-1.919c0-.085.043-.085.085-.127.043-.043.128-.043.17-.086 0 0 .256-.298.129-.64 0-.298-.128-.425-.299-.51-.128-.043-2.046.212-2.216.383-.17.128-.128.128-.17.384 0 .298.127.596.127.596.043.086.128.128.213.17s.17 0 .256.086c.043 0 .043.043.043.085l-1.194 3.155c-.085.128-.256.128-.384.213-.042 0-.085.085-.127.128 0 0-.086.384 0 .512.085.17.085.298.213.426.127.128 2.26-.17 2.43-.512 0 0 .042-.767-.128-.852s-.213-.128-.299-.17c-.085 0-.17 0-.255-.043-.043 0-.043 0-.043-.043.043-.128.043-.213.128-.256l1.663-.298c.085 0 .17 0 .255.043.043.042.085.042.128.127 0 .043.043.043 0 .086-.128.128-.298.128-.426.255a.46.46 0 0 0-.085.256c-.001 0 .042.681.297.81m25.152-3.964c-.214.17-.171.17-.214.256a1.3 1.3 0 0 0-.127.554c0 .085.042.213.084.298.129.085.3.128.427.213.043.043.043.085.043.128l-.341 1.364c-.043.043 0 .085-.043.128h-.128c-.085-.043-.085-.085-.128-.17l-1.15-1.834c-.043-.043-.086-.043-.086-.128 0-.042.042 0 .085-.042s.17-.043.256-.086c.043-.085.128-.17.128-.255.085-.17.085-.341.128-.512 0-.085-.043-.256-.17-.34-.17-.129-2.046-.512-2.046-.512-.043 0-.17 0-.214.042-.042.043-.128.17-.17.256-.086.17-.086.341-.128.512 0 .085.042.17.085.255 0 .043.085.085.128.128.128.085.256.043.341.17.086.086.043.128 0 .214l-.682 2.515c-.042.085-.085.128-.17.128-.128.042-.256 0-.384 0-.042 0-.128 0-.128.042-.042.043-.128.086-.128.128-.042.086-.127.256-.127.341a.87.87 0 0 0 0 .47c0 .084.127.17.17.17.213.085.512.17.725.255.383.086.98.214 1.193.256.043 0 .213-.042.256-.085a.9.9 0 0 0 .213-.341c.042-.128.085-.298.085-.426a.45.45 0 0 0-.085-.213c-.043-.043-.128-.128-.17-.128-.086-.043-.171-.043-.256-.086-.043-.042-.043-.085-.086-.127v-.128c.043-.213.341-1.28.426-1.45 0-.043 0-.043.043-.043l.085.086 1.321 2.046c0 .042 0 .042-.042.085-.086.043-.171 0-.256.085-.085.043-.17.17-.213.256-.043.17-.128.34-.128.511 0 .086.085.256.128.299l2.004.597c.085 0 .17-.043.255-.086.043 0 .128-.085.128-.17.085-.17.17-.384.213-.554a.33.33 0 0 0-.085-.213c-.043-.086-.17-.17-.256-.213 0 0-.085 0-.085-.043-.085-.042-.085-.042-.128-.128v-.17l.682-2.43c.043-.043.043-.085.085-.128s.086-.043.17-.043c.129-.042.214 0 .342 0a.4.4 0 0 0 .128-.042c.085-.085.17-.17.213-.256.042-.128.128-.34.128-.511 0-.086 0-.171-.086-.299-.042-.085-1.917-.852-2.258-.596M22.352 23.93q.128.065.128.128c.085.256.639 2.345.681 2.6 0 .043 0 .086-.085.128 0 0-.511.128-.511.512.042.384.298.767.298.767a.9.9 0 0 0 .256.085l3.836-.98c.086-.043.214-.085.299-.17.042-.086.085-.256.085-.384a29 29 0 0 0-.426-1.535s-.085-.34-.597-.213c-.469.128-.469.427-.469.427.043.213.128.383.128.596 0 .043 0 .086-.043.128l-1.406.426c-.043 0-.085-.042-.128-.042-.043-.043-.043-.043-.043-.085l-.724-2.6c0-.043 0-.086.042-.129 0 0 .597-.085.554-.724-.042-.682-.596-.64-.596-.64l-1.919.512s-.17.042-.213.255c-.085.256.128.768.299.896.127.128.554.042.554.042m28.22-1.876c.128 0 .213.043.298.128.043.043.085.17.043.256l-.47 2.515a.32.32 0 0 1-.084.17c-.043.043-.128.043-.213.043l-2.046-.34c-.086-.043-.17-.086-.213-.171-.043-.128 0-.213 0-.299l.468-2.515.128-.128zM30.28 23.12c.086.043.128.128.214.17.042.086.042.171.085.256 0 .043.043.085 0 .085-.128.085-.341.128-.512.128h-.085c-.043-.043-.085-.043-.085-.085v-.213c.043-.128.085-.256.128-.341.042-.043.085-.043.128-.043s.085 0 .128.043m3.624 28.136s.128.554.725.895c1.236.596 9.677.298 10.615 0 .895-.3.852-.725.852-.725s.853-9.933.128-13.343c-.341-2.26-2.643-4.092-2.643-4.092-.043-.043-.043-.128-.043-.213 0-.043.128-.043.17-.043.129-.043.214 0 .384.043.086 0 .128.085.17.127.086.043.129.128.214.171.042.043.17.085.213.043.085 0 .17-.086.213-.17.085-.044.085-.171.17-.256.043-.086.128-.086.213-.128.086-.086.213-.213.256-.341.043-.085 0-.213 0-.299a.7.7 0 0 0-.17-.298c-.171-.213-.384-.384-.512-.597 0-.042 0-.128.043-.17.042-.213.34-.98.511-1.45l.384-1.022c.042-.086.042-.214.042-.341 0-.086 0-.214-.042-.299a.9.9 0 0 0-.213-.34 1.3 1.3 0 0 0-.341-.171 10 10 0 0 0-1.023-.341c-.597-.128-1.236-.214-1.834-.341a13 13 0 0 0-1.279-.086c-.554-.042-1.108 0-1.662 0-.256 0-.554 0-.81.043q-.946.069-1.875.256a9 9 0 0 0-1.535.426c-.128.043-.256.085-.384.17-.085.085-.17.213-.213.299a.7.7 0 0 0-.128.383c.043.213.128.469.17.725.086.213.214.426.3.64l.255.766c.085.256.213.555.256.725a.46.46 0 0 1-.085.256c-.128.213-.341.34-.47.554a.23.23 0 0 0-.127.213c-.043.085 0 .213 0 .298 0 .086.042.214.128.256.085.085.213.128.298.17a.8.8 0 0 0 .17.214c0 .042 0 .17.043.213.085.043.17.085.256.043.085 0 .213-.086.298-.128.043-.043.086-.128.17-.17.043 0 .086-.043.129-.043.17-.043.255 0 .383 0 .043 0 .128.085.128.085.043.085-.042.085-.042.128 0 0-2.217 1.747-2.729 4.177-.51 2.43-.127 13.087-.127 13.087m8.952-17.99c.042 0 .042.042.085.085v.213c-.042 0-.042.043-.085.043h-5.329c-.042 0-.085-.043-.085-.043-.042-.085-.042-.17-.042-.213.042-.043.085-.085.127-.085zm-5.5-2.43c.044.043.044.085.044.128l.042 1.108-.383.682c-.043.086 0 .213-.086.299h-.469a.33.33 0 0 1-.085-.213l-.64-1.919-.639-1.918v-.085s1.876-.938 4.775-.98a17.2 17.2 0 0 1 4.263.468l.98.426c.043.043.085.086.085.128l-1.364 4.093h-.469c-.042 0-.042 0-.085-.043 0-.085 0-.213-.042-.298l-.341-.384v-1.321l.298-.682q-.064-.128-.128-.128c-.17-.086-.298-.086-.427-.086a26 26 0 0 0-1.832-.085c-.725 0-1.45-.042-2.174 0a9 9 0 0 0-1.322.128c-.085 0-.17.085-.213.17zm-1.662 2.174c0 .043 0 .043-.042.043 0-.043-.043-.043-.043-.086s-.042-.042 0-.085c.043 0 .128-.042.128 0 .043.043 0 .128-.043.128m9.08 0s-.042.043-.085.043-.043-.043-.085-.086v-.085c.042 0 .085 0 .128.043.042 0 .042.042.042.085m11.979 20.675c0-.085-.042-.128 0-.213 0-.043 0-.085.043-.128.128-.085.256-.085.34-.17.086-.043.129-.128.171-.214v-.298c-.042-.17-.085-.383-.17-.511-.043-.043-.384-.128-.426-.128l-2.004.554c-.085.042-.128.213-.128.298 0 .171.043.341.128.426 0 .128.085.257.17.342.086.042.213.042.3.085.127 0 .255-.043.382-.043.043 0 .043.043.043.086.042.17.34 1.364.383 1.577 0 .042.043.042 0 .042q-.063.065-.127 0l-2.218-1.15c-.042 0-.042 0-.042-.043s.042 0 .042-.042c.043-.043.129-.085.213-.17 0-.086.043-.171.043-.256a3.2 3.2 0 0 0-.213-.682c0-.043-.128-.086-.17-.129h-.299l-1.705.427a.32.32 0 0 1-.17.085l-.171.17v.384c.043.17.085.384.17.512.043.042.17.085.256.128h.469c.043 0 .043 0 .043.042l.639 2.9c-.085.084-.256.084-.384.17l-.128.128v.469c.043.128.128.298.17.426a.33.33 0 0 0 .171.085c.043.043.128.043.17.043l1.877-.426c.042-.043.128-.086.17-.128.043 0 .085-.086.085-.128v-.555c-.042-.084-.085-.212-.128-.298-.042-.042-.17-.127-.213-.127-.17 0-.383.042-.554 0-.043 0-.043-.043-.085-.086-.043-.213-.34-1.364-.383-1.535 0-.042 0-.084.042-.084.042-.043.042-.043.085 0l2.174 1.107c.085.043.085.086.085.129.043.042 0 .042 0 .042-.042.086-.17.128-.17.256a.37.37 0 0 0 0 .298c0 .17.085.341.17.512.043.042.086.128.128.128a.73.73 0 0 0 .426 0l1.748-.554c.043 0 .128-.086.17-.17.043-.13 0-.3 0-.427-.042-.128-.084-.299-.17-.426 0-.043-.085-.129-.128-.129-.17-.042-.426 0-.597-.042-.042 0-.042-.043-.085-.085zm-34.273.725v.383c.042.085.042.213.085.298.128.128.255.298.383.341.299.086 2.388.683 2.643.768.043 0 .043.042.086.085 0 .043.042.086.042.128a2.1 2.1 0 0 1-.17.554c-.043.085-.043.17-.128.213-.128.042-.17 0-.299-.043l-1.833-.468c-.085-.043-.128-.043-.17-.128-.043-.043-.043-.043-.043-.086 0-.17.085-.298.085-.426 0-.085 0-.17-.042-.213 0-.085-.085-.128-.17-.17a.8.8 0 0 0-.427-.128c-.085-.043-.213 0-.256.042a1 1 0 0 0-.17.213c-.043.213-.17.554-.213.81-.043.128-.085.256-.043.426 0 .128.043.298.085.384.086.128.213.298.341.34l2.9.81c.17 0 .34.043.51 0a.7.7 0 0 0 .384-.127c.128-.085.256-.213.299-.341l.511-2.217c-.042-.085-.085-.256-.128-.34-.085-.086-.213-.214-.298-.257l-2.686-.767c-.042 0-.085 0-.085-.043-.043-.128-.043-.213 0-.299.043-.17.085-.255.128-.383.043-.042.043-.085.085-.085.043-.043.085-.086.128-.043l1.918.512c.085 0 .128.042.17.042.086.043.128.043.128.128.043.128-.042.299 0 .47 0 .084.043.17.128.212.128.086.341.129.512.171.085 0 .17-.042.213-.085s.128-.128.17-.213c.043-.17.128-.384.171-.597a1.5 1.5 0 0 0 .085-.426.8.8 0 0 0-.085-.298l-.128-.256-.17-.17-2.984-.853c-.128-.043-.299-.043-.427-.043-.085 0-.213.043-.298.043-.085.042-.17.042-.213.085-.043.085-.17.17-.213.256zm8.056 5.2a.45.45 0 0 0 .213-.085.9.9 0 0 0 .17-.213c.086-.17.086-.34.129-.468a.8.8 0 0 0-.085-.341c-.043-.043-.128-.086-.171-.129-.085-.042-.213-.042-.298-.084-.043-.043-.043-.086-.043-.128-.043-.043-.043-.043-.043-.086l.47-2.43c.042-.127.042-.213.127-.34.043-.043.085-.043.17-.043.213.042.555.128.768.17.042 0 .042 0 .042.043.043.128 0 .298 0 .426v.426a1 1 0 0 0 .171.214c.128.042.256.042.384.042.042.043.17.043.255 0 .043-.042.17-.17.17-.256.086-.213.214-.682.3-1.023.042-.17.042-.384.042-.554v-.213c-.043-.085-.128-.213-.17-.213l-4.52-.895c-.17-.043-.297 0-.468 0l-.085.042c-.085.086-.17.17-.213.299-.043.213-.17 1.065-.256 1.534 0 .085 0 .214.042.256 0 .085.128.17.17.17.086.043.257.086.385.086.042 0 .17 0 .213-.043.085-.085.17-.255.255-.34l.128-.512.043-.043h.128c.213.043.597.128.81.17.042 0 .042 0 .042.043l-.468 2.558c-.043.085-.043.213-.086.298 0 .043 0 .043-.042.043-.17.042-.384.042-.555.085a.4.4 0 0 0-.127.043c-.086.17-.128.34-.17.468s-.043.256 0 .341c0 .086.042.214.084.256zm20.377-5.37a1.3 1.3 0 0 0-.17-.257c-.043-.085-.17-.17-.256-.213-.128-.042-.298-.085-.427-.128l-2.984.47c-.17.042-.383.127-.511.212-.085.043-.128.128-.17.17-.043.129-.129.257-.171.384 0 .213 0 .47.042.682l.554 3.538c0 .171.128.341.256.427.085.085.256.17.383.17l3.71-.597c.042 0 .127-.084.127-.127.086-.086.17-.213.17-.298.043-.17.086-.341.043-.512zM37.87 60.163a.33.33 0 0 0 .085-.214c.043-.128.085-.34.043-.511a.46.46 0 0 0-.086-.256c0-.042-.085-.085-.17-.127-.085-.043-.256 0-.341-.086-.128-.128-.17-.256-.213-.384l-1.151-2.6c-.043-.085 0-.085 0-.17h.042c.086-.043.17-.043.256-.086.043-.042.17-.085.17-.17.086-.128.129-.383.129-.555 0-.085-.086-.255-.128-.34 0-.043-.128-.128-.17-.128l-2.132-.17c-.085.042-.17.17-.213.255a1.5 1.5 0 0 0-.086.426c0 .128.043.256.086.384.042.042.085.128.17.128.043.085.128.042.17.128.043.042 0 .042 0 .085l-1.917 2.77s-.043 0-.086.043c-.17 0-.383 0-.554.043-.085.042-.128.213-.17.298-.043.128-.086.256-.086.383 0 .086.086.256.128.341 0 .043.086.128.17.17l2.09.171c.085 0 .17-.085.17-.17.086-.17.128-.384.17-.554a.46.46 0 0 0-.084-.256c-.043-.085-.17-.17-.256-.213-.043-.042-.128 0-.128-.085q-.065-.064 0-.128a.33.33 0 0 1 .17-.17c.086-.086.128-.086.256-.086.213.043 1.535.128 1.705.17.085.043.085.129.128.214s.085.085.043.17c0 .043 0 .043-.043.043-.17.085-.383.085-.511.128-.086.042-.128.17-.128.213a1.8 1.8 0 0 0 0 .682c0 .085.128.213.213.256zm8.227-.47c.043-.17.043-.468 0-.638 0-.086-.085-.256-.17-.299-.171-.085-.427-.042-.598-.085v-.085l-.255-2.6c0-.086 0-.171.043-.257 0-.042.042-.042.085-.084.127-.043.298-.086.426-.128.042-.043.128-.086.128-.129a.8.8 0 0 0 .085-.34c0-.129-.042-.299-.085-.47 0-.042-.043-.127-.128-.17-.043-.042-.17-.085-.299-.085l-1.96.213c-.043 0-.128.086-.171.128a1 1 0 0 0-.085.383c.043.17.085.384.128.512 0 .085.128.128.17.128.17.085.341.042.47.128.084 0 .084.043.084.128l.214 2.643c0 .085-.043.128-.086.17v.043c-.17.085-.341.085-.469.17-.042 0-.127.128-.127.171-.043.128 0 .298 0 .427 0 .128-.043.17.127.425.17.298 2.558-.043 2.473-.298m-5.03.555c.042 0 .085-.043.127-.086l.171-.17c.043-.085.043-.213.043-.341s-.043-.341-.086-.469l-.128-.127c-.17-.043-.34-.043-.511-.086-.043-.043-.043-.043-.043-.128l.086-2.942c.212-.042.767-.042.937 0 .043 0 .043.043.043.129.042.212.042.554.128.724.042.085.17.128.256.17s.212 0 .34 0c.043 0 .086-.042.128-.042l.171-.17.085-1.748a.32.32 0 0 0-.085-.213c-.043-.043-.085-.128-.128-.128l-4.817-.086c-.043 0-.128 0-.17.043a.5.5 0 0 0-.214.213c0 .042-.042.128-.042.17v1.535c0 .086.042.213.085.256.042.042.128.128.17.128.17.043.341.043.47 0 .084-.043.255-.128.255-.213.085-.17.085-.512.128-.725v-.042c.17-.043.383-.043.597-.043.128 0 .255 0 .383.043.043 0 .043 0 .043.042v2.516c0 .17.043.297-.043.425 0 .043-.042.043-.085.086-.17.086-.384.086-.511.17-.086.086-.128.298-.128.427 0 .128.042.341.085.511l.17.171zm6.948-1.833c-.043 0-.255-.043-.255-.085l-.384-2.643c-.043-.043-.043-.128 0-.213 0-.043.042-.128.085-.128l2.26-.384h.17l.128.128.384 2.686c0 .085-.043.17-.043.255-.043.043-.043.086-.085.086zM35.226 56.71c.085.17.17.383.213.554 0 .042.042.128 0 .128-.128.042-.341.042-.47.042-.084 0-.17 0-.255-.042-.042-.043-.085-.086-.085-.128.043-.086.085-.17.17-.299a1 1 0 0 0 .128-.213.32.32 0 0 1 .17-.085c.043 0 .086 0 .129.043" clip-rule="evenodd"/></svg>