<svg xmlns="http://www.w3.org/2000/svg" width="80" height="80" fill="none" viewBox="0 0 80 80"><rect width="79" height="79" x=".5" y=".5" stroke="#eee" rx="7.5"/><path fill="#000" d="M33.753 15.6h-2.062a.573.573 0 0 0-.573.574v12.84c0 .318.256.575.573.575h2.062a.573.573 0 0 0 .574-.574v-12.84a.573.573 0 0 0-.574-.574m-4.985 10.777h-5.56V16.174a.575.575 0 0 0-.572-.573h-2.063a.573.573 0 0 0-.573.573v12.84c0 .317.258.575.573.575h8.195a.575.575 0 0 0 .573-.574v-2.063a.575.575 0 0 0-.573-.574m30.658-7.568a.575.575 0 0 0 .574-.573v-2.063a.575.575 0 0 0-.574-.573h-8.194a.575.575 0 0 0-.573.573v12.84c0 .317.257.575.573.575h8.194a.575.575 0 0 0 .574-.574v-2.063a.575.575 0 0 0-.574-.574h-5.558v-2.177h5.558a.575.575 0 0 0 .574-.574v-2.063a.575.575 0 0 0-.574-.573h-5.558v-2.178h5.558zM47.909 15.6h-2.062a.575.575 0 0 0-.574.574v7.432l-5.399-7.722c-.153-.218-.38-.281-.634-.281-.032-.006-.065 0-.097 0h-2.062a.575.575 0 0 0-.573.574v12.84c0 .316.257.574.573.574h2.062a.575.575 0 0 0 .574-.574v-7.76l5.627 8.052q.032.043.065.08a.57.57 0 0 0 .396.204h2.104a.575.575 0 0 0 .573-.574V16.174a.575.575 0 0 0-.573-.573"/><path fill="#08bf5b" d="M58.545 39.193h-37.09c-.804 0-1.455.651-1.455 1.455v22.19c0 .803.651 1.455 1.455 1.455h37.09c.804 0 1.455-.652 1.455-1.455v-22.19c0-.804-.651-1.455-1.455-1.455"/><path fill="#fff" d="M34.422 48.982c0 2.205-1.773 3.979-4.061 3.979h-1.74v3.258a.39.39 0 0 1-.392.391h-1.87a.39.39 0 0 1-.39-.391V45.392c0-.215.175-.391.39-.391h4.002c2.287 0 4.06 1.774 4.06 3.979zm-2.652 0c0-.846-.598-1.493-1.41-1.493h-1.74v2.986h1.74c.814 0 1.41-.647 1.41-1.493m12.496-.457v7.879a.206.206 0 0 1-.206.207h-2.075a.206.206 0 0 1-.206-.207v-.574c-.547.631-1.358 1.012-2.47 1.012-2.171 0-3.962-1.906-3.962-4.377s1.79-4.377 3.962-4.377c1.11 0 1.923.38 2.47 1.011v-.574c0-.114.092-.206.206-.206h2.075c.114 0 .206.092.206.206m-2.485 3.94c0-1.245-.828-2.023-1.973-2.023s-1.974.779-1.974 2.023.829 2.022 1.974 2.022 1.973-.778 1.973-2.022m10.759-3.931-1.908 4.807-1.973-4.812a.34.34 0 0 0-.316-.213h-2.117a.206.206 0 0 0-.19.283l3.29 8.027-1.199 3.022a.206.206 0 0 0 .191.281h2.116a.35.35 0 0 0 .32-.215l4.41-11.117a.206.206 0 0 0-.192-.281h-2.116a.34.34 0 0 0-.319.215z"/></svg>