<svg xmlns="http://www.w3.org/2000/svg" width="80" height="80" fill="none" viewBox="0 0 80 80"><rect width="79" height="79" x=".5" y=".5" fill="#fff" rx="7.5"/><rect width="79" height="79" x=".5" y=".5" stroke="#eee" rx="7.5"/><path fill="#ff0211" fill-rule="evenodd" d="M57.42 30.924v18.423a3.11 3.11 0 0 1-1.754 2.781l-15.618 7.536a3.1 3.1 0 0 1-2.702 0l-9.23-4.465-6.361-3.115A3.08 3.08 0 0 1 20 49.304V30.88a3.07 3.07 0 0 1 1.755-2.755l15.608-7.8a3.12 3.12 0 0 1 2.773 0l15.582 7.835a3.1 3.1 0 0 1 1.702 2.764" clip-rule="evenodd"/><path fill="#4dc9ff" d="M51.612 39.75a8.388 8.388 0 1 0-8.388-8.388 8.387 8.387 0 0 0 8.388 8.387"/><path fill="#fff" d="m25.15 46.715-1.64-.807v-4.852c0-1.42.798-2.842 2.447-2.675a4.17 4.17 0 0 1 3.106 2.412 2.1 2.1 0 0 1 1.87-.526c.877.114 4.026 1.298 4.026 5.606v5.711l-1.798-.877v-5.37a2.85 2.85 0 0 0-2.255-3.017c-.535-.053-1 .377-1.01 1.298-.008.921 0 5.448 0 5.448l-1.649-.807v-5.08c0-2.237-1.447-2.93-2.079-3-.36 0-1.018.184-1.018 1.334z"/></svg>