<svg xmlns="http://www.w3.org/2000/svg" width="80" height="80" fill="none" viewBox="0 0 80 80"><rect width="80" height="80" fill="#ffcb01" rx="8"/><path fill="#fff" d="M17.542 42.859a.08.08 0 0 0-.08-.08h-2.76A2.704 2.704 0 0 1 12 40.077c0-.722.24-1.453.791-2.004l15.078-15.68a2.71 2.71 0 0 1 3.83 0l3.514 3.414 7.098-.01c.472-2.907 4.278-4.19 6.845-4.19a9.1 9.1 0 0 1 8.87 7.067q.026.106.045.212a.12.12 0 0 0 .06.086 10.84 10.84 0 0 1 5.587 8.63c.004.047.025.087.063.108l.07.041a8.542 8.542 0 0 1-1.13 15.217.08.08 0 0 0-.049.074v2.793a2.703 2.703 0 0 1-2.703 2.702h-39.72a2.703 2.703 0 0 1-2.703-2.702z"/><path fill="#003894" d="M39.187 42.177c.96 0 1.739-.777 1.739-1.738v-6.326a1.739 1.739 0 0 0-3.478 0v6.326c0 .96.778 1.738 1.739 1.738m13.685 0c.96 0 1.74-.777 1.74-1.738v-6.326a1.739 1.739 0 0 0-3.478 0v6.326c0 .96.778 1.738 1.738 1.738m-19.269 4.007a.096.096 0 0 0-.096-.096l-.456-.002a1.453 1.453 0 1 1 0-2.906h4.103a1.454 1.454 0 1 1 0 2.907h-.236a.096.096 0 0 0-.097.097l-.001 5.176a1.607 1.607 0 0 1-3.214 0zM48.34 32.375c-.926 0-1.676.75-1.676 1.676l-.015 1.231-.001-.007a.035.035 0 0 1-.064.018l-1.497-2.167v.001a1.675 1.675 0 0 0-3.053.955v6.402a1.676 1.676 0 1 0 3.352 0l.018-1.257v.003c0-.02.016-.035.034-.035q.02 0 .029.014l1.465 2.154a1.675 1.675 0 0 0 3.084-.91v-6.402c0-.925-.75-1.676-1.676-1.676m-13.728 0a1.73 1.73 0 0 0-1.335.628V33l-1.864 2.111s-.021.05-.069.05-.089-.05-.089-.05l-1.892-2.094a1.733 1.733 0 0 0-3.08 1.09v6.384a1.676 1.676 0 0 0 3.353 0l.04-2.297a.05.05 0 0 1 .05-.045q.02.001.035.014l1.505 1.683s.04.06.092.06.09-.06.09-.06l1.417-1.713a.05.05 0 0 1 .035-.014.05.05 0 0 1 .05.05h.001l.042 2.322a1.676 1.676 0 0 0 3.353 0v-6.383c0-.957-.777-1.733-1.734-1.733m18.465 14.802h-.865a.05.05 0 0 1-.051-.05v-1.424a.05.05 0 0 1 .05-.05l.866.001a.761.761 0 1 1 0 1.523m.006-3.996-3.293-.001c-.555 0-1.004.45-1.004 1.004l.006 7.098a1.684 1.684 0 1 0 3.37 0v-1.646a.05.05 0 0 1 .051-.05h.762c2.355 0 3.48-1.589 3.48-3.17 0-1.787-1.51-3.235-3.372-3.235"/><path fill="#003894" d="M59.893 40.649h.004c2.3.219 4.1 2.167 4.1 4.501 0 2.292-1.73 4.184-3.97 4.456-.777.095-1.38.731-1.38 1.53v3.253c0 .07-.055.124-.123.124H21.697a.124.124 0 0 1-.124-.124l-.003-14.227c0-.786-.638-1.424-1.424-1.424h-2.193a.06.06 0 0 1-.04-.016.055.055 0 0 1 0-.079l11.839-12.26a.056.056 0 0 1 .079 0l3.589 3.454c.492.492 1.41.537 1.947 0a1.38 1.38 0 0 0-.004-1.95l-4.607-4.484a1.38 1.38 0 0 0-1.947 0L13.607 39.166a1.43 1.43 0 0 0-.33.913c0 .786.665 1.4 1.425 1.4h4c.067 0 .123.056.123.124v14.231c0 .787.638 1.425 1.425 1.425h39.724c.786 0 1.424-.638 1.424-1.425v-3.646c0-.038.024-.067.057-.076a7.24 7.24 0 0 0 1.233-13.443l-.143-.07a.15.15 0 0 1-.086-.135 9.54 9.54 0 0 0-5.452-8.538c-.05-.025-.076-.076-.084-.134a7.83 7.83 0 0 0-7.767-6.842 7.8 7.8 0 0 0-4.656 1.533c-.614.454-.78 1.296-.342 1.921.437.625 1.317.803 1.922.342a5.072 5.072 0 0 1 7.613 1.763c.34.682.644 1.65.644 3.279 0 .06.042.11.098.12q.133.03.264.067c2.534.688 4.478 2.839 4.908 5.469.059.358.176 1.317.176 3.083 0 .064.048.114.11.121"/><path fill="#003894" d="M31.478 49.887a3.303 3.303 0 0 1-3.304 3.305c-1.276 0-2.245-.504-2.992-1.304a1.37 1.37 0 0 1-.358-.942c0-.776.629-1.405 1.405-1.405.306 0 .689.152.884.256.1.053.598.394.803.394a.277.277 0 0 0 .277-.277c0-.198-.272-.371-.396-.434-1.412-.705-2.708-1.665-2.708-3.42s1.261-3.138 3.253-3.138c1.071 0 2.012.483 2.684 1.214a1.243 1.243 0 0 1-.92 2.08c-.471 0-1.099-.389-1.155-.42-.165-.09-.235-.174-.4-.174a.295.295 0 0 0-.295.296c0 .22.262.403.88.705 1.704.834 2.342 2.037 2.342 3.264m11.54.15a1.987 1.987 0 1 1 0-3.974 1.987 1.987 0 0 1 0 3.974m.002-7.099c-2.787 0-5.046 2.29-5.046 5.112s2.259 5.11 5.046 5.11 5.046-2.287 5.046-5.11c0-2.822-2.26-5.111-5.046-5.111"/></svg>