<svg xmlns="http://www.w3.org/2000/svg" width="80" height="80" fill="none" viewBox="0 0 80 80"><rect width="80" height="80" fill="#0057b8" rx="8"/><path fill="#fff" d="M66.414 30H62.73v7.821H47.669V30h-3.684c-.874 0-1.586.708-1.586 1.586v16.996c0 .874.708 1.582 1.586 1.582h3.684v-8.415H62.73v8.415h3.684c.874 0 1.586-.708 1.586-1.582V31.586c0-.878-.712-1.586-1.586-1.586m-29.849 0H32.88v14.857L21.279 33.11c-1.84-1.805-3.11-3.11-6.052-3.11H12v18.582c0 .874.708 1.582 1.586 1.582h3.684V35.229L28.769 46.9c1.88 1.844 3.558 3.264 6.287 3.264h3.095V31.586c0-.878-.716-1.586-1.586-1.586"/></svg>