<svg width="80" height="80" viewBox="0 0 80 80" fill="none" xmlns="http://www.w3.org/2000/svg">
<rect width="80" height="80" rx="8" fill="#0057B8"/>
<path d="M66.4142 30H62.73V37.8214H47.6689V30H43.9847C43.1107 30 42.3989 30.708 42.3989 31.5857V48.5817C42.3989 49.4557 43.107 50.1637 43.9847 50.1637H47.6689V41.7486H62.73V50.1637H66.4142C67.2882 50.1637 68 49.4557 68 48.5817V31.5857C68 30.708 67.2882 30 66.4142 30Z" fill="white"/>
<path d="M36.5648 30H32.8806V44.8573L21.2786 33.1086C19.4384 31.3054 18.1698 30 15.2269 30H12V48.5817C12 49.4557 12.7081 50.1637 13.5858 50.1637H17.2699V35.229L28.7687 46.9002C30.6495 48.744 32.3274 50.1637 35.0564 50.1637H38.1505V31.5857C38.1505 30.708 37.4351 30 36.5648 30Z" fill="white"/>
</svg>
