<svg xmlns="http://www.w3.org/2000/svg" width="80" height="80" fill="none" viewBox="0 0 80 80"><g clip-path="url(#a)"><rect width="80" height="80" fill="#fff" rx="8"/><path fill="#e60012" d="M40.099 36.624c-.083-1.086-.348-2.144-.529-3.216-.292-1.754.682-3.355 2.323-3.843 1.572-.459 3.311.376 3.951 1.908.25.599.264 1.253.431 1.88.265.027.362-.182.501-.32 1.363-1.449 2.713-2.91 4.076-4.359.918-.96 2.045-1.169 3.241-.668 2.365 1.003 3.033 3.87 1.252 5.555-.737.696-1.321 1.532-2.03 2.242-.432.431-.418.654.027 1.072a176 176 0 0 1 5.175 5.026c1.725 1.74 1.057 4.65-1.238 5.43-1.266.43-2.476.208-3.464-.725-1.697-1.6-3.353-3.244-5.036-4.858-.167-.154-.292-.502-.584-.349-.306.154-.403.46-.334.836q.334 1.775.626 3.55c.292 1.782-.918 3.41-2.726 3.731-1.711.292-3.409-.905-3.729-2.631-.264-1.434-.542-2.854-.82-4.288-.418-1.504-.793-3.021-.835-4.595-.139-.445-.209-.919-.278-1.378m-.264 23.362c-5.147 0-10.28-.042-15.427.014-2.657.027-4.577-1.852-4.396-4.414.028-.46 0-.933.014-1.392.014-.752.32-.96 1.015-.654a27.3 27.3 0 0 0 4.646 1.587c3.422.821 6.914 1.016 10.42.807 5.383-.32 10.627-1.392 15.65-3.425 2.183-.89 4.284-1.935 6.273-3.23.39-.25.765-.431 1.224-.195.473.251.473.697.46 1.142v5.569c0 2.506-1.656 4.19-4.16 4.19z"/><path fill="#e30212" d="M39.918 20.043h15.566c2.63 0 4.215 1.587 4.215 4.246v1.532c-.014.724-.334.946-.96.654-2.823-1.309-5.8-2.019-8.889-2.311-2.837-.279-5.69-.223-8.527.083-5.703.613-11.184 2.02-16.331 4.58-1.1.544-2.142 1.17-3.172 1.81-.417.265-.807.558-1.335.265-.501-.278-.46-.752-.46-1.225 0-1.768.084-3.536-.013-5.29-.153-2.45 1.739-4.442 4.41-4.386 5.16.111 10.335.042 15.496.042"/><path fill="#faeeef" d="M40.363 43.446c.14-1.545.098-3.077-.334-4.58.543-.126.223-.571.32-.864q.543 2.277.835 4.595c-.376-.25-.195-.71-.417-1.142-.223.474-.112.877-.14 1.253-.013.293.042.585-.264.738m-.264-6.821c.18.445.264.918.264 1.392-.236-.446-.39-.891-.264-1.393"/><path fill="#e60012" d="M40.558 40.69c-.042-.64-.042-1.31-.515-1.824-.695-2.103-1.892-3.87-3.7-5.138-3.325-2.353-6.928-2.7-10.544-.835-3.631 1.88-5.523 4.998-5.467 9.12.055 3.967 1.947 6.974 5.467 8.784 3.547 1.824 7.08 1.518 10.377-.724 2.337-1.587 3.645-3.884 4.201-6.627.209-.905.223-1.824.181-2.756M30.32 46.314c-2.365-.028-4.396-2.102-4.41-4.483-.014-2.408 2.073-4.441 4.507-4.413a4.43 4.43 0 0 1 4.382 4.441c0 2.422-2.073 4.483-4.48 4.455"/></g><rect width="79" height="79" x=".5" y=".5" stroke="#eee" rx="7.5"/><defs><clipPath id="a"><rect width="80" height="80" fill="#fff" rx="8"/></clipPath></defs></svg>