<svg xmlns="http://www.w3.org/2000/svg" width="80" height="80" fill="none" viewBox="0 0 80 80"><rect width="80" height="80" fill="#f03" rx="8"/><path fill="#f03" d="M27.787 59.993h-1.871c-3.255 0-5.916-2.661-5.916-5.915V32.515c5.309-.537 10.258-.523 14.6-.106zm24.06-18.641c.938-3.819-5.225-7.355-15.087-8.69l-3.58 14.894c8.267.395 17.657-2.096 18.666-6.204M54.083 20H25.916c-3.149 0-5.733 2.492-5.902 5.597 23.586-.663 35.058 7.539 33.258 15.72-1.623 7.361-9.107 10.185-21.264 11.116L30.187 60h23.897C57.34 60 60 57.339 60 54.085v-28.17C60 22.66 57.34 20 54.084 20"/><path fill="#fff" d="M27.787 59.993h-1.871c-3.255 0-5.916-2.661-5.916-5.915V32.515c5.309-.537 10.258-.523 14.6-.106zm24.06-18.641c.938-3.819-5.225-7.355-15.087-8.69l-3.58 14.894c8.267.395 17.657-2.096 18.666-6.204M54.083 20H25.916c-3.149 0-5.733 2.492-5.902 5.597 23.586-.663 35.058 7.539 33.258 15.72-1.623 7.361-9.107 10.185-21.264 11.116L30.187 60h23.897C57.34 60 60 57.339 60 54.085v-28.17C60 22.66 57.34 20 54.084 20"/></svg>