<svg xmlns="http://www.w3.org/2000/svg" width="80" height="80" fill="none" viewBox="0 0 80 80"><rect width="80" height="80" fill="#1e4bc6" rx="8"/><path fill="#fff" d="M18.5 37.5h5.857c.925 0 1.695.155 2.466.465.77.31 1.387.775 1.927 1.318.539.542 1.001 1.163 1.31 1.938.308.775.462 1.55.462 2.403 0 .852-.154 1.627-.462 2.402s-.771 1.396-1.31 1.938a6.6 6.6 0 0 1-1.927 1.317c-.694.31-1.541.467-2.466.467h-2.62v4.882h-3.16V37.5zm3.16 2.946v6.279h2.466c.462 0 .924-.078 1.31-.233.385-.155.693-.387 1.002-.697.308-.31.462-.62.616-1.008s.231-.775.231-1.24-.077-.853-.23-1.24c-.155-.388-.386-.698-.617-1.008-.309-.31-.617-.543-1.002-.698a3.6 3.6 0 0 0-1.31-.232H21.66zM37.843 54.63c-.848 0-1.618-.154-2.466-.465a7.7 7.7 0 0 1-2.158-1.317c-.616-.62-1.156-1.318-1.541-2.17a7.2 7.2 0 0 1-.617-2.946c0-1.086.155-2.093.54-2.946.385-.852.925-1.55 1.541-2.17.617-.62 1.387-1.008 2.158-1.318.848-.31 1.618-.465 2.543-.465s1.773.155 2.466.465c.77.31 1.387.775 1.927 1.318v-1.783h3.16v13.796h-3.16v-1.937c-.463.62-1.156 1.085-1.927 1.472a6.3 6.3 0 0 1-2.466.466m.54-2.867c.616 0 1.155-.078 1.618-.31.462-.233.925-.465 1.31-.853s.617-.775.848-1.24c.23-.466.308-1.008.308-1.55 0-.544-.077-1.086-.308-1.55-.231-.465-.463-.93-.848-1.24-.385-.388-.77-.62-1.31-.853-.54-.31-1.079-.388-1.618-.388s-1.08.078-1.619.31c-.54.233-.925.465-1.31.853s-.694.775-.848 1.24c-.23.465-.308 1.008-.308 1.55 0 .543.077 1.085.308 1.55.232.467.54.93.848 1.318.386.388.848.62 1.31.853.463.154 1.002.31 1.619.31m11.405-10.852 3.853 9.378 3.545-9.379H60.5l-8.092 20h-3.236l2.85-6.898-5.548-13.1z"/><path fill="#6f9de4" d="M60.22 27.506v-8.398h-1.986l.106 6.657h-.026l-1.853-6.657h-2.964v8.398h1.959l-.106-6.91h.053l1.958 6.91zm-39.645-8.398-1.482 8.483h2.143l1.112-7.724h.026l1.085 7.724h2.144l-1.482-8.483zM36.11 27.59l-.186-8.482H32.67l-1.005 6.489h-.027l-.98-6.489h-3.28l-.186 8.483h2.011l.053-7.64h.053l1.323 7.64h2.038l1.323-7.64h.053l.053 7.64zm13.1-1.91c-.027.226-.212.619-.768.619-.555 0-.714-.393-.74-.562-.027-.112-.027-.225-.027-.337v-6.291h-2.038v6.094c0 .169.026.478.026.562.133 1.6 1.297 2.107 2.78 2.107 1.481 0 2.672-.534 2.805-2.107 0-.084.026-.393.026-.562V19.11h-2.038v6.235c0 .112 0 .253-.026.337m-33.478.111c.026-.14.053-.421-.027-.618-.397-1.095-3.255-1.573-3.573-3.342a3.4 3.4 0 0 1-.026-1.151c.212-1.377 1.376-1.882 2.805-1.882 1.138 0 2.7.28 2.7 2.134v.59h-1.985v-.533c0-.45-.265-.759-.741-.759-.503 0-.688.281-.741.562a1.3 1.3 0 0 0 0 .45c.211 1.01 3.255 1.544 3.599 3.313.026.197.106.675 0 1.405-.185 1.404-1.376 1.938-2.832 1.938-1.508 0-2.911-.562-2.911-2.472v-.646h2.144v.815c0 .449.29.758.794.758.555 0 .714-.281.794-.562m26.015 0c.026-.168.053-.421-.027-.618-.397-1.095-3.202-1.573-3.493-3.286-.106-.421-.08-.758-.026-1.123.211-1.377 1.376-1.854 2.779-1.854 1.111 0 2.672.28 2.672 2.106v.59h-1.984v-.533c0-.45-.265-.759-.742-.759-.476 0-.661.281-.714.562a.86.86 0 0 0 0 .45c.211.982 3.202 1.488 3.546 3.257l.001.008c.028.176.103.65-.001 1.369-.185 1.404-1.376 1.91-2.805 1.91-1.482 0-2.885-.562-2.885-2.444v-.646h2.117v.815c0 .449.291.758.794.758.53 0 .715-.281.768-.562m24.215-.196c-.053.224-.238.617-.82.617s-.794-.365-.794-.646c-.027-.084-.027-.197-.027-.309v-3.876c0-.14 0-.28.027-.393.052-.197.212-.618.794-.618.609 0 .767.421.794.618.026.14.026.337.026.337v.478h2.011v-.281s0-.31-.026-.562c-.132-1.601-1.376-2.107-2.805-2.107s-2.62.506-2.806 2.107c0 .14-.026.421-.026.562v3.567c0 .168 0 .28.026.561.133 1.545 1.403 2.107 2.806 2.107 1.429 0 2.699-.562 2.831-2.107.027-.28.027-.393.027-.561v-2.275h-2.832v1.236h.82v1.235c0 .085 0 .225-.026.31"/></svg>