<svg xmlns="http://www.w3.org/2000/svg" width="80" height="80" fill="none" viewBox="0 0 80 80"><rect width="80" height="80" fill="#e07d2b" rx="8"/><path fill="#fff" d="M58.282 48.606S53.659 59.88 40.207 60C27.467 60 20 49.625 20 40.15 20 29.775 28.474 20 40.385 20 52.475 20 60 30.855 60 38.35c0 7.797-7.94 10.615-14.222 8.936 7.052 0 8.178-6.297 8.178-8.755 0-3.239-3.141-7.077.651-10.315.712-.66.356-.84-.118-.66-.652.24-4.207.9-5.57 7.257-.652 2.938-1.6 6.596-5.097 7.376 0 .06 3.2-2.099 3.2-6.597 0-5.217-3.259-6.596-3.259-10.914 0-2.04 1.363-3.059 1.363-3.059s.948-.78-1.067-.42c-3.2.54-8.415 3.839-8.415 10.735 0 2.519.949 4.318.949 6.717 0 4.377-3.023 4.557-3.675 4.557-3.081 0-6.4-3.478-4.503-8.755 0 0-.652.36-1.778.84-1.304.6-1.778.36-2.785.659-1.008.36-1.896.78-2.074 1.26q.532 0 1.066.18c.593.3 1.423 1.199 1.719 1.918 1.067 2.52 1.067 6.117 1.837 8.636 1.067 3.478 3.26 6.837 10.133 6.837 8.474 0 11.319-6.597 19.556-6.597 1.718.12 2.193.42 2.193.42"/></svg>