<svg xmlns="http://www.w3.org/2000/svg" width="80" height="80" fill="none" viewBox="0 0 80 80"><rect width="80" height="80" fill="#0046ff" rx="8"/><path fill="#fff" d="M40.008 20a20.01 20.01 0 0 0-18.485 12.346 19.99 19.99 0 0 0 4.337 21.796 20.01 20.01 0 0 0 21.805 4.336A20.01 20.01 0 0 0 60.015 40a20 20 0 0 0-5.86-14.142A20 20 0 0 0 40.009 20m.42 36.349c-2.394.33-6.291-.272-8.94-1.94a12.1 12.1 0 0 1-4.57-5.157c-.914-1.894-1.345-4.19-.371-4.078.453.053.848.913 1.735 2.039.603.768 1.156 1.413 1.57 1.503.188.04.33-.047.473-.298.252-.477.583-1.38 1.186-2.112.473-.55 1.076-.821 1.407.546q.236.983.368 1.986c.106.864.162 1.38.463 1.526s.775-.04 1.563-.33c.567-.213 1.292-.48 2.209-.742.848-.242 1.384-.116.841 1.195a11.8 11.8 0 0 1-1.43 2.459.474.474 0 0 0 .07.662 6.7 6.7 0 0 0 1.764.993q.891.373 1.821.632c.745.232.61.993-.159 1.116m10.266-4.303c-.742 1.211-2.318 2.519-4.199 3.393-.288.129-.593.086-.662-.146s.096-.437.281-.662c2.467-3.198.636-6.13-3.348-8.408-2.94-1.681-4.811-2.648-6.984-3.926-6.36-3.743-7.59-7.004-7.838-8.937-.626-4.873 3.404-8.524 7.55-9.404.13-.027.46-.08.567.195s-.14.477-.282.563c-1.868 1.013-3.689 3.168-3.49 5.587.11 1.344.685 3.277 4.325 5.872 2.195 1.566 4.887 2.85 10.312 6.101 5.732 3.436 5.08 7.623 3.765 9.772zm.894-18.306c-1.308 1.603-2.616.993-3.623-1.248-.629-1.406-1.453-1.744-2.036-1.376-.636.4-.384 1.367.33 2.476a1.7 1.7 0 0 1-.228 2.085 2.37 2.37 0 0 1-2.248.543c-1.613-.358-3.199-2.516-2.04-7.233.467-1.9-.447-2.714-1.026-3.446-.289-.367-.332-.589-.219-.735.113-.145.384-.172.858-.073.622.13 1.543.447 2.291.563a8.6 8.6 0 0 0 1.656.076 7.8 7.8 0 0 1 4.007.788c2.06 1.02 2.268 2.774 1.122 2.648a5.2 5.2 0 0 1-1.324-.552c-.282-.136-.527-.183-.706-.05a.5.5 0 0 0-.119.629c.255.54 1.12.817 2.292 1.139 2.043.556 2.086 2.456 1.013 3.766"/><path fill="#0046ff" d="M40.428 56.349c-2.394.33-6.291-.272-8.94-1.94a12.1 12.1 0 0 1-4.57-5.157c-.914-1.894-1.345-4.19-.371-4.078.453.053.847.913 1.735 2.039.603.768 1.156 1.413 1.57 1.502.188.04.33-.046.473-.297.252-.477.583-1.38 1.186-2.112.473-.55 1.076-.821 1.407.546q.236.983.367 1.986c.107.864.163 1.38.464 1.526s.775-.04 1.563-.331a28 28 0 0 1 2.209-.742c.848-.241 1.384-.115.841 1.195a11.8 11.8 0 0 1-1.43 2.46.473.473 0 0 0 .069.662c.535.419 1.13.753 1.765.993q.891.373 1.821.632c.745.232.61.993-.159 1.116m10.266-4.303c-.742 1.211-2.318 2.519-4.2 3.392-.287.13-.592.087-.661-.145s.096-.437.281-.662c2.467-3.198.636-6.13-3.348-8.408-2.94-1.682-4.811-2.648-6.984-3.926-6.361-3.744-7.59-7.004-7.838-8.937-.626-4.873 3.404-8.524 7.55-9.404.13-.027.46-.08.566.195.106.274-.139.476-.281.563-1.868 1.012-3.689 3.167-3.49 5.587.109 1.344.685 3.277 4.325 5.872 2.195 1.566 4.887 2.85 10.311 6.1 5.733 3.437 5.08 7.624 3.766 9.772zm.894-18.306c-1.308 1.602-2.616.993-3.623-1.248-.629-1.406-1.454-1.744-2.036-1.377-.636.4-.385 1.368.33 2.476a1.7 1.7 0 0 1-.228 2.086 2.37 2.37 0 0 1-2.248.543c-1.613-.358-3.199-2.516-2.04-7.233.467-1.9-.447-2.714-1.027-3.446-.288-.367-.33-.59-.218-.735s.384-.172.858-.073c.622.13 1.543.447 2.291.563a8.6 8.6 0 0 0 1.656.076 7.8 7.8 0 0 1 4.007.788c2.06 1.02 2.268 2.774 1.122 2.648a5.2 5.2 0 0 1-1.324-.553c-.282-.135-.527-.182-.706-.05a.5.5 0 0 0-.119.63c.255.54 1.12.817 2.292 1.138 2.043.556 2.086 2.456 1.013 3.767"/></svg>