<svg xmlns="http://www.w3.org/2000/svg" width="80" height="80" fill="none" viewBox="0 0 80 80"><rect width="80" height="80" fill="#135eab" rx="8"/><path fill="#fff" fill-rule="evenodd" d="M39.925 20a19.7 19.7 0 0 1 8.73 2.03q.621.295 1.242.652l-1.833 1.65-2.756-2.861-4.652 4.164-2.763-3.027-8.664 7.84 5.556 6.145L32.6 38.52l5.471 6.154-2.17 1.922 7.818 8.735 4.64-4.289 4.013 4.596a21.4 21.4 0 0 1-2.624 1.751A19.7 19.7 0 0 1 39.925 60C28.951 60 20 51.016 20 40s8.95-20 19.925-20" clip-rule="evenodd"/><path fill="#fff" fill-rule="evenodd" d="m36.294 38.737 4.737-4.283 4.267 4.756-4.738 4.282zm3.37 8.218 4.737-4.283 4.266 4.756-4.738 4.283zm-6.761-16.34 4.738-4.282 4.266 4.755-4.738 4.282zm8.695-2.305 3.552-3.21 3.2 3.567-3.554 3.212zm6.315 14.71 3.553-3.212 3.2 3.568-3.554 3.211zm3.124 7.204 3.554-3.211 3.2 3.566-3.554 3.212zm1.433-16.513 2.369-2.14 2.133 2.378-2.37 2.14zm-3.028-7.065 2.369-2.14 2.133 2.378-2.369 2.14zm6.056 14.131 2.369-2.141L60 41.014l-2.37 2.14zm-10.624-5.294 3.553-3.212 3.2 3.567-3.554 3.212z" clip-rule="evenodd"/></svg>