<svg xmlns="http://www.w3.org/2000/svg" width="80" height="80" fill="none" viewBox="0 0 80 80"><g clip-path="url(#a)"><rect width="80" height="80" fill="#28c445" rx="8"/><path fill="#fff" d="M36.892 46.224c0 6.173 6.086 11.18 13.554 11.18 1.813 0 3.583-.302 5.137-.82.431.216 3.54 2.892 4.23 2.417.475-.388-1.122-3.28-1.252-3.798 3.28-2.029 5.439-5.31 5.439-8.979 0-6.172-6.086-11.18-13.554-11.18s-13.554 5.008-13.554 11.18m16.403-3.928c0-1.079.863-1.942 1.942-1.942 1.08 0 1.943.863 1.943 1.942 0 1.08-.864 1.943-1.943 1.943a1.934 1.934 0 0 1-1.942-1.943m-9.54 0c0-1.079.864-1.942 1.943-1.942s1.942.863 1.942 1.942c0 1.08-.863 1.943-1.942 1.943a1.934 1.934 0 0 1-1.943-1.943"/><path fill="#fff" d="M35.683 46.138c0-6.734 6.648-12.173 14.806-12.173.432 0 .864 0 1.252.043-.907-7.424-8.547-13.208-17.827-13.208C24.029 20.8 16 27.404 16 35.562c0 4.835 2.849 9.152 7.209 11.828-.173.647-2.245 4.489-1.64 5.007.906.604 5.007-2.935 5.568-3.194a21.4 21.4 0 0 0 6.777 1.079c.863 0 1.726-.043 2.59-.173a10.05 10.05 0 0 1-.82-3.971m4.49-18.432a2.6 2.6 0 0 1 2.59 2.59c.043 1.425-1.123 2.59-2.59 2.59a2.6 2.6 0 0 1-2.59-2.59 2.6 2.6 0 0 1 2.59-2.59m-12.562 5.18a2.597 2.597 0 0 1-2.59-2.59 2.6 2.6 0 0 1 2.59-2.59 2.6 2.6 0 0 1 2.59 2.59 2.597 2.597 0 0 1-2.59 2.59"/></g><defs><clipPath id="a"><rect width="80" height="80" fill="#fff" rx="8"/></clipPath></defs></svg>