<svg xmlns="http://www.w3.org/2000/svg" width="80" height="80" fill="none" viewBox="0 0 80 80"><rect width="79" height="79" x=".5" y=".5" fill="#fff" rx="7.5"/><rect width="79" height="79" x=".5" y=".5" stroke="#eee" rx="7.5"/><path fill="#1273b8" d="M58.04 48.644c-4.802-1.294-11.153-2.081-18.118-2.081-6.9 0-13.195.772-17.98 2.044C25.16 55.344 32.036 60 40 60c7.95 0 14.815-4.638 18.04-11.356"/><path fill="#009cdb" d="M39.922 46.562c6.965 0 13.317.788 18.118 2.082A19.9 19.9 0 0 0 60 40c0-11.046-8.955-20-20-20s-20 8.954-20 20c0 3.082.698 6 1.942 8.607 4.785-1.272 11.081-2.045 17.98-2.045"/><path fill="#f9fdfe" d="M39.994 46.719c6.965 0 13.316.787 18.118 2.081q.307-.64.567-1.302c-3.245-4.978-10.39-8.435-18.685-8.435-8.213 0-15.298 3.389-18.588 8.287q.277.718.608 1.413c4.785-1.271 11.08-2.044 17.98-2.044"/></svg>