<svg width="48" height="48" viewBox="0 0 48 48" fill="none" xmlns="http://www.w3.org/2000/svg">
<path fill-rule="evenodd" clip-rule="evenodd" d="M27.7893 4.66887C28.3108 4.9525 28.721 5.42596 28.9741 6.05869L29.105 6.2965V41.2667V43.6994H4.48752C4.32563 43.7049 4.16429 43.6779 4.01293 43.6202C3.86157 43.5626 3.72325 43.4752 3.60607 43.3634C3.49463 43.246 3.40771 43.1076 3.3504 42.9563C3.29308 42.8049 3.26651 42.6437 3.27225 42.482C3.27225 42.1612 3.40316 41.8449 3.63443 41.6158C3.74631 41.5038 3.87937 41.4153 4.02585 41.3554C4.17232 41.2954 4.32927 41.2653 4.48752 41.2667H5.87952V12.4034C5.87952 11.847 6.0628 11.3147 6.37261 10.8761C6.68898 10.4267 7.13625 10.0689 7.64898 9.87905L25.9632 4.41578C26.6483 4.29359 27.2723 4.38741 27.7893 4.66887ZM13.5923 32.8034H21.3923C21.5549 32.7967 21.7172 32.8227 21.8697 32.8796C22.0222 32.9366 22.1618 33.0234 22.2803 33.135C22.3908 33.2532 22.4767 33.3922 22.5328 33.5439C22.589 33.6956 22.6144 33.857 22.6075 34.0187C22.6133 34.1804 22.5867 34.3417 22.5294 34.493C22.4721 34.6444 22.3851 34.7828 22.2737 34.9001C22.1565 35.012 22.0182 35.0993 21.8668 35.157C21.7155 35.2147 21.5541 35.2416 21.3923 35.2361H13.5923L13.3806 35.2209C13.1101 35.1838 12.881 35.0725 12.7108 34.9001C12.497 34.6863 12.377 34.383 12.377 34.0187C12.3712 33.8569 12.3978 33.6957 12.4551 33.5443C12.5124 33.393 12.5994 33.2546 12.7108 33.1372C12.8282 33.0258 12.9666 32.9389 13.1179 32.8816C13.2693 32.8242 13.4305 32.7977 13.5923 32.8034ZM13.5923 25.0034H21.3923C21.554 24.9977 21.7152 25.0242 21.8666 25.0816C22.0179 25.1389 22.1563 25.2258 22.2737 25.3372C22.3851 25.4546 22.4721 25.593 22.5294 25.7443C22.5867 25.8957 22.6133 26.0569 22.6075 26.2187C22.6133 26.3804 22.5867 26.5417 22.5294 26.693C22.4721 26.8444 22.3851 26.9828 22.2737 27.1001C22.1565 27.212 22.0182 27.2993 21.8668 27.357C21.7155 27.4147 21.5541 27.4416 21.3923 27.4361H13.5923L13.3806 27.4209C13.1101 27.3838 12.881 27.2725 12.7108 27.1001C12.497 26.8863 12.377 26.583 12.377 26.2187C12.3712 26.0569 12.3978 25.8957 12.4551 25.7443C12.5124 25.593 12.5994 25.4546 12.7108 25.3372C12.8282 25.2258 12.9666 25.1389 13.1179 25.0816C13.2693 25.0242 13.4305 24.9977 13.5923 25.0034ZM13.5923 17.2034H21.3923C21.5549 17.1967 21.7172 17.2227 21.8697 17.2796C22.0222 17.3366 22.1618 17.4234 22.2803 17.535C22.3908 17.6532 22.4767 17.7922 22.5328 17.9439C22.589 18.0956 22.6144 18.257 22.6075 18.4187C22.6133 18.5804 22.5867 18.7417 22.5294 18.893C22.4721 19.0444 22.3851 19.1828 22.2737 19.3001C22.1565 19.412 22.0182 19.4993 21.8668 19.557C21.7155 19.6147 21.5541 19.6416 21.3923 19.6361H13.5923L13.3806 19.6209C13.1101 19.5838 12.881 19.4725 12.7108 19.3001C12.497 19.0863 12.377 18.783 12.377 18.4187C12.3816 18.0939 12.5132 17.7838 12.7435 17.5547C12.8545 17.4426 12.9867 17.3538 13.1325 17.2934C13.2782 17.2331 13.4345 17.2025 13.5923 17.2034Z" fill="#FF3172"/>
<path fill-rule="evenodd" clip-rule="evenodd" d="M23.2835 40.8168L23.2803 13.2002L38.0305 20.9689C38.5839 21.1641 39.043 21.4995 39.3381 21.9239C39.7017 22.422 39.8675 23.0022 39.8675 23.49V40.8194H41.9023C42.139 40.8112 42.3755 40.8411 42.5978 40.9072C42.8201 40.9733 43.0238 41.0744 43.1971 41.2045C43.3596 41.3436 43.4859 41.5075 43.5686 41.6865C43.6514 41.8655 43.6888 42.056 43.6787 42.2468C43.6871 42.4371 43.6482 42.6269 43.5644 42.805C43.4807 42.9831 43.3536 43.1459 43.1907 43.284C43.0194 43.4156 42.8172 43.5183 42.596 43.5862C42.3747 43.6541 42.1389 43.6858 41.9023 43.6794H23.2803L23.2835 40.8168Z" fill="#FCD116"/>
</svg>
