<svg width="48" height="48" viewBox="0 0 48 48" fill="none" xmlns="http://www.w3.org/2000/svg">
<g clip-path="url(#clip0_1777_4481)">
<path d="M23.9996 4.79981C12.7432 4.79981 3.59961 13.9434 3.59961 25.1998C3.5996 36.4562 12.7432 45.5998 23.9996 45.5998C35.256 45.5998 44.3996 36.4562 44.3996 25.1998C44.3996 13.9434 35.256 4.79981 23.9996 4.79981ZM21.8868 42.6491C13.2532 41.5927 6.58675 34.2341 6.58675 25.3091C6.58675 23.9612 6.76889 22.6498 7.06032 21.4112L17.5153 31.8662L17.5153 34.0519C17.5153 36.4562 19.4825 38.4234 21.8868 38.4234L21.8868 42.6491ZM36.9682 37.0027C36.4218 35.2177 34.7825 33.9427 32.8153 33.9427L30.6296 33.9427L30.6296 27.4219C30.6296 26.1834 29.646 25.1998 28.4075 25.1998L14.9653 25.1998L14.9653 20.8284L19.6646 20.8284C20.9032 20.8284 21.8868 19.8448 21.8868 18.6062L21.8868 14.2712L26.1853 14.2712C28.626 14.2712 30.6296 12.2677 30.6296 9.82695L30.6296 8.98909C37.041 11.5755 41.5582 17.8412 41.5582 25.1998C41.5582 29.7534 39.846 33.8698 36.9682 37.0027Z" fill="#B547FF"/>
<path d="M33.6118 24.8707C27.5466 19.5801 24.5996 15.3364 24.5996 11.8992C24.5996 6.66034 29.0387 2.3999 34.4996 2.3999C39.9589 2.3999 44.3996 6.66034 44.3996 11.8992C44.3996 15.3364 41.4511 19.5801 35.3874 24.8707C35.1427 25.0828 34.8268 25.1999 34.4996 25.1999C34.1724 25.1999 33.8566 25.0828 33.6118 24.8707ZM31.1991 11.8992C31.1991 13.649 32.6772 15.0671 34.4996 15.0671C36.322 15.0671 37.8001 13.649 37.8001 11.8992C37.8001 10.7686 37.1709 9.7233 36.1491 9.15727C35.6459 8.87938 35.0777 8.73335 34.4996 8.73335C33.9216 8.73335 33.3533 8.87938 32.8501 9.15727C32.3511 9.43064 31.9354 9.82852 31.6453 10.3102C31.3552 10.792 31.2012 11.3403 31.1991 11.8992Z" fill="#FF0990"/>
</g>
<defs>
<clipPath id="clip0_1777_4481">
<rect width="48" height="48" fill="white"/>
</clipPath>
</defs>
</svg>
