<svg width="48" height="48" viewBox="0 0 48 48" fill="none" xmlns="http://www.w3.org/2000/svg">
<path d="M29.4038 6C29.4038 6 36.4569 9.98831 46.1476 12.858C46.1476 12.858 48.0096 32.8766 29.4486 42H29.345C10.7897 32.8766 12.6516 12.858 12.6516 12.858C22.4459 10.0397 29.3926 6 29.3926 6H29.4038Z" fill="#783FFF"/>
<path d="M28.6648 14.878L27.0747 18.2458C27.0157 18.3703 26.9288 18.4779 26.8212 18.5595C26.7137 18.6412 26.5888 18.6943 26.4574 18.7145L22.9015 19.2545C22.7503 19.2776 22.6083 19.3444 22.4915 19.4473C22.3747 19.5502 22.2878 19.6853 22.2405 19.8371C22.1932 19.9889 22.1874 20.1516 22.2238 20.3066C22.2602 20.4617 22.3374 20.6031 22.4466 20.7148L25.0201 23.3366C25.2118 23.5347 25.3017 23.8177 25.2562 24.0962L24.6475 27.798C24.6218 27.9557 24.6389 28.1178 24.6967 28.266C24.7545 28.4141 24.8508 28.5424 24.9748 28.6364C25.0987 28.7303 25.2453 28.7862 25.398 28.7977C25.5507 28.8092 25.7034 28.7758 25.8389 28.7013L29.0179 26.9535C29.1356 26.8888 29.2666 26.855 29.3997 26.855C29.5327 26.855 29.6637 26.8888 29.7815 26.9535L32.9626 28.7013C33.0981 28.7757 33.2508 28.809 33.4034 28.7974C33.5561 28.7858 33.7026 28.7297 33.8263 28.6356C33.9501 28.5415 34.0461 28.413 34.1037 28.2648C34.1612 28.1166 34.1779 27.9545 34.1518 27.7968L33.5453 24.0962C33.5229 23.9592 33.5326 23.8186 33.5738 23.6865C33.6149 23.5544 33.6862 23.4347 33.7814 23.3377L36.3538 20.7148C36.463 20.6031 36.5402 20.4617 36.5766 20.3066C36.613 20.1516 36.6072 19.9889 36.5599 19.8371C36.5126 19.6853 36.4257 19.5502 36.3089 19.4473C36.1921 19.3444 36.0501 19.2776 35.8989 19.2545L32.343 18.7145C32.2115 18.6943 32.0867 18.6412 31.9792 18.5595C31.8716 18.4779 31.7847 18.3703 31.7257 18.2458L30.1356 14.878C30.068 14.7345 29.9632 14.6137 29.8332 14.5292C29.7033 14.4447 29.5533 14.3999 29.4002 14.3999C29.2471 14.3999 29.0971 14.4447 28.9672 14.5292C28.8372 14.6137 28.7324 14.7345 28.6648 14.878Z" fill="white"/>
<path d="M18.8901 28.6088H8.87146V24.6504C8.87323 23.3225 9.4017 22.0495 10.3409 21.1107C11.2801 20.1719 12.5534 19.644 13.8813 19.6428C15.2091 19.6443 16.482 20.1723 17.421 21.1111C18.36 22.0498 18.8883 23.3227 18.8901 24.6504V28.6088ZM2.40039 30.7208V39.6666C2.40039 40.832 3.34476 41.7786 4.51127 41.7786H23.2503C23.8104 41.7786 24.3476 41.5561 24.7437 41.16C25.1397 40.7639 25.3623 40.2267 25.3623 39.6666V30.7208C25.3623 30.1606 25.1397 29.6234 24.7437 29.2273C24.3476 28.8313 23.8104 28.6088 23.2503 28.6088H22.3327V24.6504C22.3327 19.99 18.5418 16.2002 13.8824 16.2002C9.22086 16.2002 5.42774 19.9911 5.42774 24.6504V28.6088H4.51239C4.235 28.6086 3.9603 28.6631 3.70399 28.7692C3.44768 28.8753 3.2148 29.0309 3.01865 29.227C2.82251 29.4232 2.66694 29.656 2.56086 29.9124C2.45477 30.1687 2.40024 30.4434 2.40039 30.7208Z" fill="#DE3AFF"/>
</svg>
