<svg width="48" height="48" viewBox="0 0 48 48" fill="none" xmlns="http://www.w3.org/2000/svg">
<path d="M7.62543 6.50391H11.0238C13.291 6.50391 14.4246 8.05083 14.4246 11.1447V39.0631C14.4246 42.157 13.291 43.7039 11.0238 43.7039H7.62543C5.35822 43.7039 4.22461 42.157 4.22461 39.0631V11.1447C4.22461 8.05083 5.35822 6.50391 7.62543 6.50391Z" fill="#FF09B5"/>
<path d="M22.4232 16.7041H25.6239C27.7577 16.7041 28.8246 18.0841 28.8246 20.8441V39.5611C28.8246 42.3231 27.7577 43.7041 25.6239 43.7041H22.4232C20.291 43.7041 19.2248 42.3211 19.2248 39.5551V20.8441C19.2063 18.0841 20.2725 16.7041 22.4232 16.7041Z" fill="#FF09B5"/>
<path d="M37.4254 22.7041H40.6238C42.7577 22.7041 43.8246 24.2569 43.8246 27.3625V39.0457C43.8246 42.1513 42.7577 43.7041 40.6238 43.7041H37.4254C35.2915 43.7041 34.2246 42.1513 34.2246 39.0457V27.3625C34.2246 24.2569 35.2915 22.7041 37.4254 22.7041Z" fill="#FF09B5"/>
<path d="M42.7345 25.2917H34.1305C33.466 25.2917 32.8286 25.0277 32.3587 24.5578C31.8889 24.0879 31.6249 23.4506 31.6249 22.7861C31.6249 22.1216 31.8889 21.4842 32.3587 21.0144C32.8286 20.5445 33.466 20.2805 34.1305 20.2805H36.6553L29.3545 14.1437C28.4354 13.337 27.2572 12.8871 26.0344 12.8761C24.8116 12.8651 23.6255 13.2936 22.6921 14.0837C20.7925 15.7237 18.3451 16.5884 15.8368 16.5056C13.3286 16.4229 10.9435 15.3989 9.15608 13.6373L3.75848 8.49168C3.51752 8.26108 3.32602 7.98386 3.19563 7.67688C3.06525 7.3699 2.99871 7.0396 3.00008 6.70608C2.99624 6.21626 3.13716 5.73622 3.40516 5.32621C3.67317 4.9162 4.0563 4.59448 4.50649 4.40144C4.95667 4.20839 5.45385 4.15262 5.93562 4.24111C6.41739 4.32961 6.86229 4.55844 7.21448 4.89888L12.6337 10.0853C13.5354 10.9749 14.7385 11.4934 16.0045 11.5378C17.2705 11.5823 18.5069 11.1495 19.4689 10.3253C21.3068 8.77062 23.6398 7.92396 26.0471 7.93804C28.4543 7.95213 30.7773 8.82602 32.5969 10.4021L40.2481 16.8101V14.2013C40.2436 13.8726 40.3047 13.5464 40.4278 13.2416C40.551 12.9369 40.7336 12.6597 40.9652 12.4264C41.1967 12.1931 41.4724 12.0083 41.7762 11.8828C42.08 11.7574 42.4058 11.6937 42.7345 11.6957C43.3986 11.6969 44.0352 11.9613 44.5048 12.431C44.9744 12.9006 45.2388 13.5371 45.2401 14.2013V22.7861C45.2344 23.4489 44.9686 24.0829 44.5 24.5516C44.0313 25.0202 43.3973 25.286 42.7345 25.2917Z" fill="#FF8922"/>
</svg>
