<svg width="40" height="40" viewBox="0 0 40 40" fill="none" xmlns="http://www.w3.org/2000/svg">
<path d="M38.5453 31.7252H36.3629V28.5595C36.3629 28.3066 36.1583 28.102 35.9054 28.102H30.0287V26.2748H32.1827C32.4356 26.2748 32.6374 26.0702 32.6374 25.8201V19.4547C32.6374 19.2018 32.4328 19 32.1827 19H25.8173C25.5644 19 25.3626 19.2046 25.3626 19.4547V25.8201C25.3626 26.073 25.5672 26.2748 25.8173 26.2748H28.0281V28.102H22.0946C21.8417 28.102 21.6371 28.3066 21.6371 28.5595V31.7252H19.4547C19.2018 31.7252 19 31.9298 19 32.1799V38.5425C19 38.7954 19.2046 38.9972 19.4547 38.9972H25.8173C26.0702 38.9972 26.272 38.7926 26.272 38.5425V32.1827C26.272 31.9298 26.0673 31.728 25.8173 31.728H23.6348V30.5629C23.6348 30.31 23.8394 30.1054 24.0924 30.1054H33.9048C34.1577 30.1054 34.3623 30.31 34.3623 30.5629V31.728H32.1799C31.927 31.728 31.7252 31.9327 31.7252 32.1827V38.5453C31.7252 38.7982 31.9298 39 32.1799 39H38.5453C38.7982 39 39 38.7954 39 38.5453V32.1827C39 31.9298 38.7954 31.7252 38.5453 31.7252Z" fill="#7A49E9"/>
<path d="M27.7704 33.7303C28.5274 33.7303 28.9253 34.0473 28.9943 34.6851L29.0103 34.8632C29.0103 35.624 28.5954 36 27.7864 36H12.2276C11.4706 36 11.0727 35.6831 11.0037 35.0453L10.9877 34.8671C10.9877 34.1063 11.4026 33.7303 12.2116 33.7303H27.7704ZM26.5515 9.68925C28.1274 9.64175 29.6582 10.2114 30.808 11.2733C31.9578 12.3351 32.6328 13.8025 32.685 15.3536V26.1684C32.6328 27.7195 31.9578 29.1869 30.808 30.2487C29.6582 31.3106 28.1274 31.8802 26.5515 31.8327H13.4525C11.8447 31.8439 10.2937 31.2487 9.11782 30.1694C8.55622 29.6587 8.1068 29.0403 7.79725 28.3522C7.48771 27.6641 7.32459 26.9209 7.31796 26.1684V15.3713C7.32221 14.6184 7.48425 13.8745 7.79395 13.186C8.10365 12.4976 8.55434 11.8795 9.11782 11.3703C10.2931 10.29 11.8445 9.69469 13.4525 9.70697L26.5515 9.68925ZM3.23326 16.3447C4.0422 16.3447 4.45717 16.7167 4.45717 17.4815V24.2797C4.47457 24.4223 4.46101 24.5671 4.41739 24.7042C4.37376 24.8414 4.30106 24.9678 4.20409 25.0753C4.10713 25.1827 3.9881 25.2687 3.85487 25.3275C3.72165 25.3863 3.57726 25.4166 3.43125 25.4165L3.23126 25.4322C2.42232 25.4322 2.00736 25.0602 2.00736 24.2954V17.4776C1.98995 17.3349 2.00351 17.1902 2.04714 17.053C2.09077 16.9158 2.16346 16.7894 2.26043 16.6819C2.3574 16.5745 2.47643 16.4885 2.60966 16.4297C2.74288 16.3709 2.88727 16.3406 3.03328 16.3408C3.03528 16.3555 3.23326 16.3437 3.23326 16.3437V16.3447ZM36.7687 16.3447C37.5777 16.3447 37.9926 16.7167 37.9926 17.4815V24.2797C38.01 24.4223 37.9965 24.5671 37.9529 24.7042C37.9092 24.8414 37.8365 24.9678 37.7396 25.0753C37.6426 25.1827 37.5236 25.2687 37.3903 25.3275C37.2571 25.3863 37.1127 25.4166 36.9667 25.4165L36.7667 25.4322C35.9578 25.4322 35.5428 25.0602 35.5428 24.2954V17.4776C35.5254 17.3349 35.539 17.1902 35.5826 17.053C35.6262 16.9158 35.6989 16.7894 35.7959 16.6819C35.8929 16.5745 36.0119 16.4885 36.1451 16.4297C36.2784 16.3709 36.4227 16.3406 36.5687 16.3408L36.7687 16.3447ZM15.9183 17.3348C14.9124 17.3348 14.3524 17.7591 14.3004 18.6459L14.2804 18.8594V22.1872C14.2804 23.197 14.8194 23.6921 15.9183 23.6921C16.9242 23.6921 17.4642 23.2679 17.5362 22.3811V18.8378C17.5562 17.8319 16.9922 17.3339 15.9183 17.3339V17.3348ZM24.0877 17.3348C23.0818 17.3348 22.5418 17.7591 22.4698 18.6459V22.1891C22.4698 23.199 23.0088 23.694 24.1077 23.694C25.1136 23.694 25.6536 23.2698 25.7256 22.383L25.7416 22.1694V18.8417C25.7216 17.8319 25.1826 17.3339 24.0917 17.3339L24.0877 17.3348ZM20.8279 5.01115C21.3669 5.01115 21.6369 5.26115 21.6369 5.77197V7.27688C21.6369 7.79164 21.3669 8.0377 20.8279 8.0377H19.1921C18.6531 8.0377 18.3831 7.7877 18.3831 7.27688V5.77099C18.3717 5.66494 18.3849 5.55772 18.4218 5.45745C18.4587 5.35718 18.5183 5.26649 18.5961 5.19225C18.6744 5.11736 18.7695 5.0618 18.8738 5.03015C18.9781 4.9985 19.0886 4.99165 19.1961 5.01017L20.8279 5.01115Z" fill="#7CD0E8"/>
</svg>
