<svg width="40" height="40" viewBox="0 0 40 40" fill="none" xmlns="http://www.w3.org/2000/svg">
<path d="M20.002 1.4541C30.0435 1.4541 38.1836 9.59518 38.1836 19.6367C38.1834 29.6781 30.0434 37.8184 20.002 37.8184C9.96053 37.8184 1.8205 29.6781 1.82031 19.6367C1.82031 9.59518 9.96041 1.4541 20.002 1.4541ZM20.002 3.81836C11.2658 3.81836 4.18359 10.9006 4.18359 19.6367C4.18379 28.3727 11.2659 35.4541 20.002 35.4541C28.738 35.4541 35.8201 28.3727 35.8203 19.6367C35.8203 10.9006 28.7381 3.81836 20.002 3.81836ZM20.002 5.63672C27.7339 5.63672 34.002 11.9047 34.002 19.6367C34.0018 27.3685 27.7338 33.6367 20.002 33.6367C12.2701 33.6367 6.00214 27.3685 6.00195 19.6367C6.00195 11.9047 12.27 5.63672 20.002 5.63672ZM19.792 11.1133C19.3237 11.1467 19.048 11.5148 19.0479 12.1084V18.3477C19.0437 18.6096 18.9385 18.8601 18.7549 19.0469C18.5712 19.2337 18.3225 19.343 18.0605 19.3516H13.5273C13.3615 19.3471 13.1957 19.3636 13.0342 19.4014C12.8783 19.463 12.7447 19.5705 12.6504 19.709C12.5561 19.8477 12.5049 20.0119 12.5049 20.1797C12.5049 20.3473 12.5561 20.5108 12.6504 20.6494C12.7447 20.7881 12.8782 20.8954 13.0342 20.957C13.21 20.9944 13.3896 21.0118 13.5693 21.0078H18.1445C18.3253 21.0162 18.4963 21.0935 18.6211 21.2246C18.7718 21.3972 18.9562 21.5374 19.1631 21.6357C19.37 21.7341 19.5953 21.789 19.8242 21.7969C20.053 21.8047 20.2811 21.7655 20.4941 21.6816C20.7073 21.5977 20.9014 21.4705 21.0635 21.3086C21.213 21.1443 21.328 20.9515 21.4023 20.7422C21.4767 20.5328 21.5085 20.3107 21.4961 20.0889C21.4836 19.8671 21.4273 19.6499 21.3301 19.4502C21.2327 19.2504 21.0967 19.0714 20.9297 18.9248C20.7946 18.8018 20.7127 18.6307 20.7031 18.4482V12.0586C20.7031 11.4314 20.2603 11.0799 19.792 11.1133Z" fill="#7CD0E8"/>
<path fill-rule="evenodd" clip-rule="evenodd" d="M7.56013 24.554H32.5194C32.9169 24.523 33.3166 24.5764 33.6909 24.7107C34.0652 24.845 34.4052 25.0568 34.6876 25.3317C34.9701 25.6065 35.1881 25.9379 35.3268 26.3029C35.4655 26.6679 35.5215 27.0579 35.491 27.4461V35.8531C35.5241 36.2419 35.4704 36.6331 35.3335 36.9996C35.1966 37.3662 34.9798 37.6993 34.6981 37.976C34.4164 38.2528 34.0765 38.4665 33.702 38.6024C33.3274 38.7383 32.927 38.7931 32.5286 38.7632H7.56933C6.91083 38.8118 6.25632 38.6283 5.72459 38.2459C5.19286 37.8636 4.81918 37.3078 4.67137 36.6794C4.61762 36.4224 4.59599 36.16 4.60697 35.898V27.4102C4.58233 27.0265 4.64205 26.6422 4.78213 26.2829C4.92221 25.9236 5.1394 25.5978 5.41912 25.3273C5.69884 25.0567 6.03462 24.8477 6.4039 24.7144C6.77318 24.581 7.16741 24.5263 7.56013 24.554ZM9.7957 34.3082H11.8013C12.0453 34.3082 12.2793 34.4028 12.4518 34.5713C12.6243 34.7397 12.7213 34.9682 12.7213 35.2064C12.7213 35.4446 12.6243 35.6731 12.4518 35.8415C12.2793 36.0099 12.0453 36.1046 11.8013 36.1046H9.04131C8.80611 36.0988 8.57441 36.0476 8.35953 35.9541C8.14465 35.8605 7.95084 35.7264 7.78925 35.5595C7.62765 35.3925 7.50146 35.196 7.41793 34.9813C7.3344 34.7665 7.29519 34.5378 7.30254 34.3082V32.5118C7.30497 32.056 7.49214 31.6197 7.82314 31.2982C8.15414 30.9768 8.60203 30.7963 9.06891 30.7963H10.9089V29H8.29612C8.17531 29.0059 8.05449 28.9885 7.94056 28.9488C7.82663 28.9091 7.72182 28.8479 7.63212 28.7686C7.54242 28.6894 7.46959 28.5937 7.41777 28.487C7.36596 28.3803 7.33618 28.2646 7.33014 28.1467C7.3241 28.0287 7.34191 27.9108 7.38256 27.7995C7.42322 27.6883 7.48591 27.586 7.56707 27.4984C7.64823 27.4108 7.74626 27.3397 7.85556 27.2892C7.96487 27.2386 8.08331 27.2095 8.20413 27.2036H11.0929C11.5396 27.2264 11.9606 27.4148 12.27 27.7302C12.5795 28.0457 12.754 28.4644 12.7581 28.9012C12.7903 29.5235 12.7903 30.147 12.7581 30.7694C12.7509 31.0053 12.6962 31.2376 12.5971 31.4528C12.498 31.6681 12.3564 31.8622 12.1804 32.0241C12.0043 32.1859 11.7974 32.3123 11.5713 32.396C11.3453 32.4797 11.1045 32.519 10.8629 32.5118H9.16091V34.3082H9.7957ZM19.96 35.5182C20.0209 35.3897 20.0498 35.249 20.0444 35.1076C20.0464 34.6585 20.0475 34.2089 20.0487 33.7593C20.0527 32.1858 20.0566 30.6117 20.0996 29.0538V28.0569C20.0532 27.8584 19.9393 27.6812 19.7763 27.5543C19.6133 27.4274 19.411 27.3583 19.2026 27.3583C18.9941 27.3583 18.7918 27.4274 18.6289 27.5543C18.4659 27.6812 18.3519 27.8584 18.3056 28.0569V28.5958V30.7424H16.4656V28.2185C16.4656 27.6078 16.0884 27.2305 15.5456 27.2216C15.0028 27.2126 14.6256 27.6168 14.6256 28.2455V30.5179C14.5986 30.782 14.6318 31.0486 14.7229 31.2986C14.814 31.5487 14.9607 31.7759 15.1524 31.964C15.3442 32.1521 15.5763 32.2963 15.832 32.3864C16.0877 32.4765 16.3606 32.5101 16.6312 32.4849H18.2412V35.1076C18.2313 35.3046 18.2881 35.4993 18.4029 35.6616C18.5176 35.8239 18.6838 35.9449 18.876 36.0058C19.0155 36.0441 19.1624 36.0497 19.3046 36.022C19.4468 35.9944 19.5803 35.9344 19.6942 35.8468C19.8081 35.7592 19.8992 35.6466 19.96 35.5182ZM25.4631 27.4641C25.0399 29.5658 24.6106 31.6616 24.1751 33.7513C24.0923 34.142 24.0141 34.535 23.9359 34.928C23.8577 35.3209 23.7795 35.7139 23.6967 36.1046C23.5771 36.6614 23.2459 36.9578 22.7767 36.9489C22.6434 36.9437 22.5129 36.9103 22.3941 36.851C22.2753 36.7916 22.1712 36.7078 22.0889 36.6053C22.0067 36.5027 21.9482 36.384 21.9177 36.2572C21.8871 36.1304 21.8852 35.9986 21.9119 35.871C22.2738 34.0747 22.6357 32.2963 22.9975 30.5358C23.2183 29.4221 23.4483 28.3084 23.6783 27.2036C23.8163 26.5569 24.2211 26.2336 24.7547 26.3054C24.8833 26.3286 25.0054 26.3784 25.1128 26.4513C25.2201 26.5242 25.3104 26.6186 25.3774 26.7283C25.4444 26.8379 25.4867 26.9603 25.5015 27.0871C25.5163 27.214 25.5032 27.3425 25.4631 27.4641ZM30.5566 34.1274C31.1333 32.6304 31.7103 31.1322 32.271 29.6287C32.3774 29.3553 32.4137 29.0607 32.377 28.7705C32.3402 28.4802 32.2314 28.2032 32.0601 27.9633C31.8888 27.7234 31.66 27.528 31.3937 27.3941C31.1275 27.2601 30.8317 27.1916 30.5322 27.1946H28.407C27.7631 27.1946 27.3491 27.5539 27.3491 28.0928C27.3481 28.2204 27.375 28.3467 27.428 28.4634C27.481 28.58 27.5588 28.6843 27.6563 28.7693C27.7538 28.8543 27.8687 28.918 27.9934 28.9562C28.1181 28.9944 28.2497 29.0063 28.3794 28.991H30.569L30.4126 29.4401L28.3427 34.8292C28.278 34.9419 28.2391 35.0669 28.2285 35.1957C28.2178 35.3244 28.2358 35.4539 28.2811 35.5753C28.3264 35.6967 28.398 35.8071 28.491 35.899C28.584 35.9909 28.6962 36.0621 28.8199 36.1078C28.9437 36.1535 29.0761 36.1727 29.2081 36.1639C29.3401 36.1551 29.4686 36.1186 29.5848 36.0569C29.7011 35.9952 29.8024 35.9098 29.8817 35.8064C29.961 35.703 30.0166 35.5841 30.0446 35.4579C30.215 35.0144 30.3858 34.571 30.5566 34.1274Z" fill="#7A49E9"/>
</svg>
