<svg width="90" height="40" viewBox="0 0 90 40" fill="none" xmlns="http://www.w3.org/2000/svg">
<path fill-rule="evenodd" clip-rule="evenodd" d="M3.47982 1.38892C3.048 1.85303 2.7998 2.56736 2.7998 3.49559V36.5123C2.7998 37.4405 3.048 38.1548 3.49596 38.6028L3.613 38.7017L22.1126 20.2017V19.786L3.59685 1.29004L3.47982 1.38892Z" fill="url(#paint0_linear_1774_4470)"/>
<path fill-rule="evenodd" clip-rule="evenodd" d="M28.2672 26.3925L22.0967 20.2198V19.788L28.2693 13.6152L28.4024 13.698L35.703 17.8467C37.7935 19.0252 37.7935 20.9664 35.703 22.161L28.4024 26.3098C28.4004 26.3098 28.2672 26.3925 28.2672 26.3925Z" fill="url(#paint1_linear_1774_4470)"/>
<path fill-rule="evenodd" clip-rule="evenodd" d="M28.4008 26.3098L22.0971 20.0039L3.48047 38.6209C4.16048 39.3514 5.3046 39.4341 6.58391 38.7198L28.4008 26.3098Z" fill="url(#paint2_linear_1774_4470)"/>
<path fill-rule="evenodd" clip-rule="evenodd" d="M28.4008 13.7005L6.58391 1.30658C5.30662 0.576109 4.16048 0.674985 3.48047 1.40546L22.0951 20.0043L28.4008 13.7005Z" fill="url(#paint3_linear_1774_4470)"/>
<path opacity="0.2" fill-rule="evenodd" clip-rule="evenodd" d="M28.2671 26.1768L6.59954 38.4879C5.38883 39.1841 4.30928 39.1356 3.61313 38.504L3.49609 38.6211L3.61313 38.7199C4.30928 39.3495 5.38883 39.4 6.59954 38.7038L28.4165 26.3099L28.2671 26.1768Z" fill="#101828"/>
<path opacity="0.12" fill-rule="evenodd" clip-rule="evenodd" d="M35.7009 21.9451L28.251 26.1766L28.3842 26.3098L35.6847 22.161C36.73 21.5637 37.2445 20.7848 37.2445 20.0039C37.1779 20.7182 36.6472 21.3983 35.7009 21.9451Z" fill="#101828"/>
<path opacity="0.25" fill-rule="evenodd" clip-rule="evenodd" d="M6.58326 1.52204L35.7007 18.0647C36.6471 18.5954 37.1778 19.2916 37.2605 20.0059C37.2605 19.227 36.746 18.4461 35.7007 17.8488L6.58326 1.30613C4.49278 0.111538 2.7998 1.10636 2.7998 3.49554V3.71145C2.7998 1.32227 4.49278 0.343595 6.58326 1.52204Z" fill="white"/>
<g clip-path="url(#clip0_1774_4470)">
<path d="M76.0444 0C80.0444 0 82.0444 0 84.2222 0.666667C86.5778 1.51111 88.4444 3.37778 89.2889 5.73333C90 7.91111 90 9.95556 90 13.9556V26.0444C90 30.0444 90 32.0444 89.3333 34.2222C88.4889 36.5778 86.6222 38.4444 84.2667 39.2889C82.0444 40 80.0444 40 76.0444 40H63.9556C59.9556 40 57.9556 40 55.7778 39.3333C53.3778 38.4444 51.5556 36.6222 50.6667 34.2222C50 32.0889 50 30.0889 50 26.0444V13.9556C50 9.95556 50 7.95556 50.6667 5.77778C51.5556 3.42222 53.3778 1.55556 55.7778 0.711111C57.9111 -5.29819e-08 59.9111 0 63.9556 0H76.0444Z" fill="url(#paint4_linear_1774_4470)"/>
<mask id="mask0_1774_4470" style="mask-type:luminance" maskUnits="userSpaceOnUse" x="50" y="0" width="40" height="40">
<path d="M76.0444 0C80.0444 0 82.0444 0 84.2222 0.666667C86.5778 1.51111 88.4444 3.37778 89.2889 5.73333C90 7.91111 90 9.95556 90 13.9556V26.0444C90 30.0444 90 32.0444 89.3333 34.2222C88.4889 36.5778 86.6222 38.4444 84.2667 39.2889C82.0444 40 80.0444 40 76.0444 40H63.9556C59.9556 40 57.9556 40 55.7778 39.3333C53.3778 38.4444 51.5556 36.6222 50.6667 34.2222C50 32.0889 50 30.0889 50 26.0444V13.9556C50 9.95556 50 7.95556 50.6667 5.77778C51.5556 3.42222 53.3778 1.55556 55.7778 0.711111C57.9111 -5.29819e-08 59.9111 0 63.9556 0H76.0444Z" fill="white"/>
</mask>
<g mask="url(#mask0_1774_4470)">
<path d="M59.0224 28.1333C59.0668 28.0444 59.1557 27.9999 59.2446 27.9555C59.6002 27.8666 59.9557 27.7777 60.3113 27.7777C61.2891 27.7777 62.178 28.1333 62.8891 28.7555C62.978 28.8444 62.978 28.9777 62.9335 29.0666L61.1113 32.1777C60.7557 32.7999 60.0891 33.1555 59.4224 33.1555C59.0224 33.1555 58.6224 33.0222 58.2668 32.7555C57.4668 32.1777 57.2891 31.0222 57.778 30.1777L59.0224 28.1333ZM82.7113 23.3777C83.7335 23.3777 84.6224 24.1333 84.7113 25.111C84.8002 26.2666 83.9113 27.2444 82.8002 27.2444H80.4446L82.178 30.2222C82.6669 31.0666 82.4891 32.2222 81.6891 32.7999C81.3335 33.0666 80.9335 33.1999 80.5335 33.1999C79.8668 33.1999 79.2002 32.8444 78.8446 32.2222L74.6668 24.9777L71.378 19.2888C71.3335 19.2444 71.3335 19.1999 71.3335 19.111C71.3335 18.8888 71.2891 18.6666 71.2891 18.4444C71.2891 16.8888 71.6446 15.3333 72.3557 14.0888C72.4446 13.9555 72.6669 13.9555 72.7557 14.0888L78.178 23.3333H82.7113V23.3777ZM72.4891 23.4666C73.4668 24.0444 74.0891 25.1555 74.0891 26.3999C74.0891 26.6666 74.0446 26.8888 74.0002 27.1555C74.0002 27.1999 73.9113 27.2444 73.8668 27.2444H57.2891C56.178 27.2444 55.2446 26.2666 55.378 25.111C55.4668 24.0888 56.3557 23.3777 57.378 23.3777H61.778L67.778 13.0666L66.1335 10.2666C65.5557 9.28883 65.9557 7.99994 67.0224 7.55549C67.9557 7.15549 69.0224 7.55549 69.5557 8.39994L70.0446 9.24438L70.578 8.35549C71.1557 7.37771 72.4446 7.0666 73.378 7.73327C74.2224 8.31105 74.4002 9.4666 73.8668 10.3555L66.2224 23.3777H72.178C72.3113 23.3777 72.4002 23.4222 72.4891 23.4666Z" fill="white"/>
</g>
</g>
<defs>
<linearGradient id="paint0_linear_1774_4470" x1="20.4514" y1="3.14069" x2="-9.18183" y2="11.0363" gradientUnits="userSpaceOnUse">
<stop stop-color="#00A0FF"/>
<stop offset="0.007" stop-color="#00A1FF"/>
<stop offset="0.26" stop-color="#00BEFF"/>
<stop offset="0.512" stop-color="#00D2FF"/>
<stop offset="0.76" stop-color="#00DFFF"/>
<stop offset="1" stop-color="#00E3FF"/>
</linearGradient>
<linearGradient id="paint1_linear_1774_4470" x1="38.4233" y1="20.0048" x2="2.29197" y2="20.0048" gradientUnits="userSpaceOnUse">
<stop stop-color="#FFE000"/>
<stop offset="0.409" stop-color="#FFBD00"/>
<stop offset="0.775" stop-color="#FFA500"/>
<stop offset="1" stop-color="#FF9C00"/>
</linearGradient>
<linearGradient id="paint2_linear_1774_4470" x1="24.9731" y1="23.4344" x2="1.18267" y2="63.4742" gradientUnits="userSpaceOnUse">
<stop stop-color="#FF3A44"/>
<stop offset="1" stop-color="#C31162"/>
</linearGradient>
<linearGradient id="paint3_linear_1774_4470" x1="-1.2058" y1="-9.59365" x2="9.40782" y2="8.28879" gradientUnits="userSpaceOnUse">
<stop stop-color="#32A071"/>
<stop offset="0.069" stop-color="#2DA771"/>
<stop offset="0.476" stop-color="#15CF74"/>
<stop offset="0.801" stop-color="#06E775"/>
<stop offset="1" stop-color="#00F076"/>
</linearGradient>
<linearGradient id="paint4_linear_1774_4470" x1="69.9911" y1="0.0177778" x2="69.9911" y2="39.9911" gradientUnits="userSpaceOnUse">
<stop stop-color="#19E6FF"/>
<stop offset="1" stop-color="#1E51EE"/>
</linearGradient>
<clipPath id="clip0_1774_4470">
<rect width="40" height="40" fill="white" transform="translate(50)"/>
</clipPath>
</defs>
</svg>
