<svg width="118" height="32" viewBox="0 0 118 32" fill="none" xmlns="http://www.w3.org/2000/svg">
<g clip-path="url(#clip0_1774_4448)">
<path d="M0 11.9067H21.2746V20.0928H0V11.9067Z" fill="#7661AA"/>
<path d="M0 0H7.91614V32H0V0Z" fill="#7661AA"/>
<path d="M23.748 0H31.6642V9.67442H23.748V0Z" fill="#7661AA"/>
<path d="M23.748 22.3257H31.6642V32.0001H23.748V22.3257Z" fill="#7661AA"/>
<path d="M32.8927 10.7866H22.4756V21.2132H32.8927V10.7866Z" fill="#69C5DF"/>
<path d="M0 11.9067H7.91614V20.0928H0V11.9067Z" fill="#332295"/>
<path d="M38.6566 25.275C38.4794 25.275 38.3282 25.2221 38.2038 25.1154C38.0794 24.9909 38.0176 24.8314 38.0176 24.6361V7.29269C38.0176 7.09737 38.0794 6.93783 38.2038 6.81333C38.3282 6.68883 38.4786 6.62695 38.6566 6.62695H41.0788C41.274 6.62695 41.4252 6.68883 41.5317 6.81333C41.6561 6.93783 41.7179 7.09737 41.7179 7.29269V14.1655H49.5698V7.29269C49.5698 7.09737 49.6317 6.93783 49.7561 6.81333C49.8804 6.68883 50.0309 6.62695 50.2089 6.62695H52.6043C52.7994 6.62695 52.9588 6.68883 53.0832 6.81333C53.2076 6.93783 53.2694 7.09737 53.2694 7.29269V24.6353C53.2694 24.8128 53.2076 24.9641 53.0832 25.0879C52.9588 25.2116 52.7994 25.2742 52.6043 25.2742H50.2089C50.0316 25.2742 49.8804 25.2124 49.7561 25.0879C49.6317 24.9634 49.5698 24.8128 49.5698 24.6353V17.4957H41.7179V24.6353C41.7179 24.8128 41.6561 24.9641 41.5317 25.0879C41.4252 25.2124 41.2747 25.2742 41.0788 25.2742H38.6566V25.275Z" fill="#7661AA"/>
<path d="M59.7766 25.541C58.8537 25.541 58.0203 25.3636 57.2747 25.008C56.5291 24.6352 55.9348 24.1469 55.4916 23.543C55.0656 22.9213 54.8525 22.2287 54.8525 21.4653C54.8525 20.2218 55.3493 19.2363 56.3429 18.5079C57.3544 17.7617 58.6854 17.2644 60.3352 17.0162L63.9819 16.4831V15.924C63.9819 15.1778 63.7957 14.6007 63.4233 14.1922C63.0509 13.7837 62.4118 13.5794 61.5068 13.5794C60.8678 13.5794 60.3449 13.7128 59.9367 13.979C59.5464 14.228 59.2537 14.5649 59.0586 14.9914C58.9163 15.2225 58.7122 15.338 58.4463 15.338H56.3437C56.1485 15.338 55.9973 15.2851 55.8908 15.1785C55.8022 15.0719 55.7575 14.9295 55.7575 14.7521C55.7754 14.468 55.8908 14.1214 56.1038 13.7128C56.3169 13.3043 56.6543 12.9137 57.1153 12.5409C57.5764 12.1503 58.1707 11.8215 58.8984 11.5554C59.6261 11.2892 60.5043 11.1558 61.5336 11.1558C62.6516 11.1558 63.5916 11.2982 64.355 11.5822C65.1356 11.8483 65.7568 12.2129 66.2179 12.6744C66.6789 13.1358 67.0163 13.6778 67.2293 14.2996C67.4424 14.9213 67.5489 15.5781 67.5489 16.2707V24.636C67.5489 24.8134 67.487 24.9647 67.3627 25.0885C67.2383 25.2122 67.0878 25.2749 66.9098 25.2749H64.7543C64.5591 25.2749 64.3997 25.213 64.2753 25.0885C64.1688 24.964 64.116 24.8134 64.116 24.636V23.5967C63.8851 23.9344 63.5745 24.2535 63.1842 24.5554C62.7939 24.8395 62.315 25.0795 61.7467 25.2749C61.1962 25.4523 60.54 25.541 59.7773 25.541H59.7766ZM60.6808 23.01C61.302 23.01 61.8606 22.8766 62.3574 22.6104C62.8721 22.3443 63.2713 21.9357 63.5551 21.3848C63.8568 20.8167 64.0072 20.1063 64.0072 19.2534V18.6943L61.3459 19.1207C60.2987 19.2803 59.5181 19.5382 59.0035 19.8931C58.4888 20.2479 58.2318 20.6833 58.2318 21.1984C58.2318 21.5891 58.3473 21.9268 58.5782 22.2108C58.8269 22.477 59.1368 22.6812 59.5099 22.8236C59.8824 22.9481 60.2726 23.01 60.6808 23.01Z" fill="#7661AA"/>
<path d="M70.2709 25.2748C70.0936 25.2748 69.9424 25.2129 69.818 25.0884C69.6937 24.9639 69.6318 24.8134 69.6318 24.6359V12.0615C69.6318 11.8841 69.6937 11.7328 69.818 11.6083C69.9424 11.4838 70.0929 11.4219 70.2709 11.4219H72.4801C72.6752 11.4219 72.8264 11.4838 72.9329 11.6083C73.0573 11.7328 73.1191 11.8833 73.1191 12.0615V24.6359C73.1191 24.8134 73.0573 24.9647 72.9329 25.0884C72.8264 25.2129 72.6759 25.2748 72.4801 25.2748H70.2709Z" fill="#7661AA"/>
<path d="M70.1647 9.82367C69.9695 9.82367 69.8101 9.77 69.6858 9.66414C69.5793 9.53964 69.5264 9.3801 69.5264 9.18478V7.2666C69.5264 7.08917 69.5793 6.93783 69.6858 6.81333C69.8101 6.68883 69.9695 6.62695 70.1647 6.62695H72.5869C72.782 6.62695 72.9421 6.68883 73.0658 6.81333C73.1902 6.93783 73.252 7.08842 73.252 7.2666V9.18478C73.252 9.3801 73.1902 9.54038 73.0658 9.66414C72.9414 9.77074 72.782 9.82367 72.5869 9.82367H70.1647Z" fill="#69C5DF"/>
<path d="M76.5307 25.275C76.3534 25.275 76.2022 25.2131 76.0778 25.0886C75.9534 24.9641 75.8916 24.8135 75.8916 24.6361V7.29269C75.8916 7.09737 75.9534 6.93783 76.0778 6.81333C76.2022 6.68883 76.3527 6.62695 76.5307 6.62695H83.6639C85.0485 6.62695 86.2544 6.84911 87.2837 7.29269C88.3131 7.71912 89.1115 8.3759 89.6798 9.2638C90.2474 10.1338 90.5312 11.226 90.5312 12.5403C90.5312 13.8546 90.2474 14.9736 89.6798 15.8436C89.1123 16.6957 88.3138 17.3354 87.2837 17.7618C86.2551 18.1882 85.0485 18.4014 83.6639 18.4014H79.6984V24.6353C79.6984 24.8128 79.6366 24.9641 79.5122 25.0879C79.4064 25.2124 79.2545 25.2742 79.0601 25.2742H76.5314L76.5307 25.275ZM79.6448 15.4448H83.5313C84.5599 15.4448 85.3502 15.2047 85.8998 14.7254C86.4495 14.2281 86.7251 13.4998 86.7251 12.541C86.7251 11.6531 86.4674 10.9427 85.9527 10.4096C85.4381 9.85871 84.6307 9.58362 83.5313 9.58362H79.6448V15.4448Z" fill="#7661AA"/>
<path d="M95.5188 25.541C94.5959 25.541 93.7625 25.3636 93.0169 25.008C92.2721 24.6352 91.6777 24.1469 91.2338 23.543C90.8078 22.9213 90.5947 22.2287 90.5947 21.4653C90.5947 20.2218 91.0915 19.2363 92.0851 18.5079C93.0966 17.7617 94.4269 17.2644 96.0774 17.0162L99.7241 16.4831V15.924C99.7241 15.1778 99.5379 14.6007 99.1647 14.1922C98.7923 13.7837 98.1532 13.5794 97.2483 13.5794C96.6092 13.5794 96.0856 13.7128 95.6774 13.979C95.2871 14.228 94.9944 14.5649 94.7993 14.9914C94.657 15.2225 94.4529 15.338 94.187 15.338H92.0844C91.8892 15.338 91.738 15.2851 91.6323 15.1785C91.5436 15.0719 91.4989 14.9295 91.4989 14.7521C91.5168 14.468 91.6323 14.1214 91.8453 13.7128C92.0583 13.3043 92.395 12.9137 92.8568 12.5409C93.3178 12.1503 93.9122 11.8215 94.6399 11.5554C95.3676 11.2892 96.2457 11.1558 97.2751 11.1558C98.3931 11.1558 99.333 11.2982 100.096 11.5822C100.876 11.8483 101.498 12.2129 101.959 12.6744C102.42 13.1358 102.757 13.6778 102.97 14.2996C103.183 14.9213 103.29 15.5781 103.29 16.2707V24.636C103.29 24.8134 103.227 24.9647 103.103 25.0885C102.979 25.213 102.828 25.2749 102.651 25.2749H100.495C100.3 25.2749 100.14 25.213 100.016 25.0885C99.9095 24.964 99.8559 24.8134 99.8559 24.636V23.5967C99.625 23.9344 99.3144 24.2535 98.9249 24.5554C98.5338 24.8395 98.0557 25.0795 97.4874 25.2749C96.9377 25.4523 96.2807 25.541 95.5173 25.541H95.5188ZM96.4237 23.01C97.0449 23.01 97.6036 22.8766 98.1004 22.6104C98.615 22.3443 99.0135 21.9357 99.2973 21.3848C99.5989 20.8167 99.7501 20.1063 99.7501 19.2534V18.6943L97.0881 19.1207C96.0417 19.2803 95.2603 19.5382 94.7464 19.8931C94.2317 20.2479 93.974 20.6833 93.974 21.1984C93.974 21.5891 94.0895 21.9268 94.3204 22.2108C94.5684 22.477 94.879 22.6812 95.2514 22.8236C95.6238 22.9481 96.0141 23.01 96.423 23.01H96.4237Z" fill="#7661AA"/>
<path d="M107.512 30.3361C107.37 30.3361 107.246 30.2831 107.14 30.1765C107.033 30.0699 106.98 29.9454 106.98 29.8038V29.5905C106.997 29.5376 107.032 29.466 107.085 29.3773L109.161 24.4488L104.051 12.3806C103.98 12.2032 103.944 12.0787 103.944 12.0078C103.962 11.8483 104.025 11.7149 104.131 11.6083C104.237 11.4838 104.37 11.4219 104.53 11.4219H106.685C106.899 11.4219 107.058 11.4756 107.165 11.5814C107.271 11.688 107.351 11.8036 107.404 11.9281L110.944 20.6393L114.59 11.9281C114.644 11.7857 114.723 11.6709 114.829 11.5814C114.936 11.4748 115.096 11.4219 115.309 11.4219H117.438C117.581 11.4219 117.704 11.4756 117.811 11.5814C117.935 11.688 117.997 11.8125 117.997 11.9542C117.997 12.0608 117.961 12.2032 117.89 12.3806L110.358 29.8299C110.287 29.9722 110.198 30.0871 110.092 30.1765C109.986 30.2831 109.826 30.3361 109.613 30.3361H107.51H107.512Z" fill="#7661AA"/>
</g>
<defs>
<clipPath id="clip0_1774_4448">
<rect width="118" height="32" fill="white"/>
</clipPath>
</defs>
</svg>
