<svg width="40" height="40" viewBox="0 0 40 40" fill="none" xmlns="http://www.w3.org/2000/svg">
<path d="M8.30564 28.5712H30.0951C31.693 28.5712 33.0004 27.2598 33.0004 25.6569V6.71411C33.0004 5.11126 31.693 3.7998 30.0951 3.7998H8.30564C6.70775 3.7998 5.40039 5.11126 5.40039 6.71411V30.0284C5.40039 32.4327 7.36147 34.3998 9.75829 34.3998H31.5477C32.3467 34.3998 33.0004 33.7441 33.0004 32.9427C33.0004 32.1412 32.3467 31.4855 31.5477 31.4855H9.75829C8.95933 31.4855 8.30564 30.8298 8.30564 30.0284V28.5713V28.5712ZM8.3783 8.09835C8.3783 7.29694 9.03199 6.71408 9.75829 6.71408H14.9151C15.6414 6.71408 16.2951 7.29694 16.2951 8.09835V13.9269C16.2951 14.5826 15.6414 14.9469 15.0604 14.7283L12.8088 13.8541C12.5183 13.7083 12.1551 13.7083 11.792 13.8541L9.61301 14.7283C9.03195 14.9469 8.37827 14.5098 8.37827 13.9269V8.09835H8.3783Z" fill="#7CD0E8"/>
<path d="M28.3 16.7998L36.6 20.3862V25.8192C36.6014 27.0562 36.3885 28.2842 35.9707 29.4486C35.5507 30.6228 34.9782 31.682 34.2529 32.6266C33.5125 33.6015 32.619 34.4502 31.6071 35.1395C30.6033 35.8238 29.4826 36.3188 28.3005 36.5998C27.118 36.3189 25.997 35.824 24.9929 35.1395C23.9808 34.4503 23.0873 33.6017 22.3471 32.6266C21.6218 31.682 21.0489 30.6224 20.6293 29.4486C20.2113 28.2842 19.9984 27.0562 20 25.8192V20.3862L28.3 16.7998ZM28.3 26.6735V18.0376L21.2543 21.1034V26.6735H28.3V35.4265C29.2353 35.1663 30.117 34.7423 30.9042 34.1743C31.696 33.6039 32.4009 32.9219 32.9971 32.1496C33.622 31.377 34.1384 30.5227 34.5319 29.6104C34.9373 28.6736 35.2111 27.6853 35.3457 26.6735H28.3Z" fill="#7A49E9"/>
</svg>
