<svg width="24" height="24" viewBox="0 0 24 24" fill="none" xmlns="http://www.w3.org/2000/svg">
<rect x="0.2" y="0.2" width="23.6" height="23.6" rx="3.8" stroke="#101828" stroke-width="0.4"/>
<path d="M4.99683 9.75743H8.15309V19.2H4.99683V9.75743Z" fill="#101828"/>
<path d="M8.07055 5.61577C8.2608 5.91205 8.35817 6.25815 8.35035 6.60989C8.35146 6.84088 8.30609 7.06974 8.21677 7.28288C8.12744 7.49601 7.99607 7.68907 7.83044 7.85056C7.66482 8.01205 7.46834 8.13869 7.25261 8.22295C7.03696 8.30721 6.80647 8.34737 6.57496 8.34103C6.22217 8.34095 5.87735 8.23604 5.58461 8.0397C5.29187 7.84336 5.06437 7.56449 4.93126 7.23868C4.79814 6.91286 4.76532 6.55488 4.83712 6.21041C4.90885 5.86593 5.08197 5.5506 5.33415 5.30463C5.58642 5.05866 5.90646 4.89322 6.25341 4.82941C6.60036 4.7656 6.95853 4.80633 7.28212 4.94639C7.6058 5.08645 7.88023 5.31948 8.07055 5.61577Z" fill="#101828"/>
<path d="M15.6729 9.48989C17.393 9.48989 19.2 10.4735 19.2 13.3456V19.2H16.0437V14.0223C16.0437 12.5037 15.4993 12.0394 14.6313 12.0394C14.3783 12.0426 14.129 12.0994 13.8998 12.2061C13.6705 12.3128 13.4667 12.4668 13.3017 12.6581C13.1368 12.8494 13.0146 13.0734 12.9432 13.3154C12.8718 13.5575 12.8528 13.8119 12.8875 14.0617V19.2H9.73121V9.75743H12.6902V11.103C13.0107 10.6052 13.4523 10.1964 13.9737 9.91433C14.4952 9.63228 15.0796 9.48628 15.6729 9.48989Z" fill="#101828"/>
</svg>
