<svg xmlns="http://www.w3.org/2000/svg" width="24" height="16" fill="none" viewBox="0 0 24 16"><rect width="24" height="16" fill="#016fd0" rx="4"/><path fill="#fff" d="M14.199 14.338V8.861h5.807l.623.811.643-.81H24v1.153l-1.31 1.531L24 13.079v1.26h-2.777l-.622-.828-.632.828zM12 7.161l2.4-5.477h2.265l.743 1.708V1.684h2.815l.442 1.234.43-1.234H24v5.477h-7.67l-.348-.863h-.928l-.345.863z"/><path fill="#016fd0" d="M14.902 13.64V9.539h3.35v.917h-2.313v.702h2.258v.863H15.94v.729h2.312v.89zm3.48 0 1.63-2.025-1.67-2.076h1.294l.994 1.283.998-1.283h1.243l-1.648 2.05 1.634 2.051h-1.293l-.966-1.263-.942 1.263zm-.293-11.259v4.102h1.026V3.46l1.092 3.022h.9l1.088-3.022v3.022h1.027V2.38H21.6l-.928 2.65-.95-2.644z"/><path fill="#016fd0" fill-rule="evenodd" d="m14.864 2.382-1.766 4.101h1.15l.325-.821h1.895l.324.821h1.175l-1.764-4.1zm1.23 2.39-.577-1.436-.579 1.436z" clip-rule="evenodd"/></svg>