<svg width="24" height="16" viewBox="0 0 24 16" fill="none" xmlns="http://www.w3.org/2000/svg">
<rect width="24" height="16" rx="4" fill="#016FD0"/>
<path d="M14.199 14.3383V8.86108H20.0056L20.6286 9.67223L21.2723 8.86108H23.9999V10.0154L22.6908 11.5465L23.9999 13.0776V14.3384H21.223L20.6009 13.5098L19.9692 14.3384L14.199 14.3383Z" fill="white"/>
<path d="M12 7.16129L14.4003 1.68408H16.6649L17.4079 3.39196V1.68408H20.223L20.6653 2.91848L21.0942 1.68408H24V7.16133H16.3294L15.9816 6.29793H15.054L14.7087 7.16129H13.0909H12Z" fill="white"/>
<path d="M14.9015 13.64V9.53882H18.2514V10.4562H15.9389V11.1577H18.1973V12.0211H15.9389V12.7496H18.2514V13.64H14.9015ZM18.3814 13.64L20.0124 11.6147L18.3426 9.53882H19.6359L20.6304 10.8221L21.6283 9.53882H22.8711L21.2231 11.5894L22.8572 13.64H21.564L20.5984 12.3769L19.6562 13.64H18.3814Z" fill="#016FD0"/>
<path d="M18.0888 2.38135V6.48252H19.1153V3.4606L20.2066 6.48252H21.1069L22.1951 3.4606V6.48252H23.2217V2.38135H21.6007L20.6731 5.03159L19.7227 2.3874L18.0888 2.38135Z" fill="#016FD0"/>
<path fill-rule="evenodd" clip-rule="evenodd" d="M14.8638 2.38205L13.0977 6.48322H14.2475L14.5734 5.66196H16.4678L16.792 6.48322H17.9672L16.2027 2.38205H14.8638ZM16.0947 4.7716L15.5172 3.33648L14.9381 4.7716H16.0947Z" fill="#016FD0"/>
</svg>
