<svg xmlns="http://www.w3.org/2000/svg" width="27" height="31" fill="none" viewBox="0 0 27 31"><path stroke="#9095a1" stroke-width="2" d="M20.477 16.215c0-3.566 2.972-5.349 3.09-5.468-1.663-2.496-4.279-2.734-5.23-2.852-2.258-.238-4.279 1.307-5.468 1.307-1.07 0-2.853-1.307-4.754-1.189-2.378 0-4.636 1.427-5.944 3.566-2.496 4.28-.594 10.818 1.902 14.384 1.189 1.783 2.615 3.685 4.517 3.566 1.783-.119 2.496-1.189 4.636-1.189s2.853 1.189 4.755 1.189 3.21-1.783 4.398-3.447c1.426-2.021 1.902-3.923 2.02-4.042-.237-.119-3.922-1.545-3.922-5.824ZM16.792 5.517c.951-1.189 1.664-2.853 1.426-4.517-1.426 0-3.209.951-4.16 2.14-.95 1.07-1.783 2.734-1.545 4.398 1.664.119 3.328-.832 4.28-2.02Z"/></svg>