<svg xmlns="http://www.w3.org/2000/svg" width="20" height="20" fill="none" viewBox="0 0 20 20"><rect width="20" height="20" fill="#010101" rx="4"/><path fill="#fff" d="M12.818 9.515c.017 1.513 1.374 2.016 1.385 2.021-.011.034-.218.72-.715 1.424-.43.608-.876 1.217-1.58 1.228-.692.011-.916-.396-1.703-.396-.793 0-1.038.385-1.692.407-.68.023-1.194-.658-1.63-1.267-.888-1.24-1.563-3.506-.653-5.036A2.56 2.56 0 0 1 8.368 6.64c.665-.011 1.296.435 1.703.435s1.173-.536 1.977-.458c.335.012 1.284.134 1.887.994-.05.028-1.128.637-1.117 1.904m-1.3-3.718c.362-.425.602-1.01.535-1.597-.52.022-1.15.335-1.519.76-.335.373-.625.97-.547 1.546.581.044 1.173-.285 1.53-.71"/></svg>