<svg xmlns="http://www.w3.org/2000/svg" width="80" height="16" fill="none" viewBox="0 0 80 16"><rect width="24" height="16" fill="#1434cb" rx="4"/><path fill="#fff" d="M14.864 4.812c-1.372 0-2.598.71-2.598 2.023 0 1.506 2.174 1.61 2.174 2.366 0 .319-.365.604-.989.604-.885 0-1.546-.399-1.546-.399l-.284 1.325s.763.337 1.774.337c1.5 0 2.68-.746 2.68-2.081 0-1.59-2.183-1.692-2.183-2.394 0-.25.3-.523.922-.523.702 0 1.274.29 1.274.29l.277-1.28s-.623-.268-1.501-.268m-12.55.097-.034.193s.577.105 1.097.316c.67.241.717.382.83.818l1.228 4.732H7.08l2.537-6.06H7.975l-1.63 4.12-.665-3.492c-.06-.4-.37-.627-.748-.627zm7.964 0L8.99 10.968h1.566l1.284-6.06zm8.737 0c-.378 0-.578.202-.725.555l-2.294 5.504h1.642l.318-.917h2.001l.194.917H21.6l-1.265-6.06zm.214 1.637.487 2.273H18.41z"/><rect width="24" height="16" x="28" fill="#000" rx="4"/><path fill="#eb001b" d="M37.72 11.79a3.844 3.844 0 0 0 3.838-3.85 3.844 3.844 0 0 0-3.839-3.85 3.844 3.844 0 0 0-3.839 3.85 3.844 3.844 0 0 0 3.84 3.85"/><path fill="#f79e1b" d="M42.356 11.79c2.12 0 3.84-1.724 3.84-3.85a3.844 3.844 0 0 0-3.84-3.85 3.844 3.844 0 0 0-3.839 3.85 3.844 3.844 0 0 0 3.84 3.85"/><path fill="#ff5f00" d="M40.037 4.866a3.84 3.84 0 0 1 1.52 3.066 3.85 3.85 0 0 1-1.52 3.069 3.84 3.84 0 0 1-1.52-3.069c0-1.253.597-2.364 1.52-3.066"/><rect width="24" height="16" x="56" fill="#016fd0" rx="4"/><path fill="#fff" d="M70.199 14.338V8.861h5.807l.623.811.643-.81H80v1.153l-1.31 1.531L80 13.079v1.26h-2.777l-.622-.828-.632.828zM68 7.161l2.4-5.477h2.265l.743 1.708V1.684h2.815l.442 1.234.43-1.234H80v5.477h-7.67l-.348-.863h-.928l-.345.863z"/><path fill="#016fd0" d="M70.902 13.64V9.539h3.35v.917h-2.313v.702h2.258v.863H71.94v.729h2.312v.89zm3.48 0 1.63-2.025-1.67-2.076h1.294l.994 1.283.998-1.283h1.243l-1.648 2.05 1.634 2.051h-1.293l-.966-1.263-.942 1.263zm-.293-11.259v4.102h1.026V3.46l1.092 3.022h.9l1.088-3.022v3.022h1.027V2.38H77.6l-.928 2.65-.95-2.644z"/><path fill="#016fd0" fill-rule="evenodd" d="m70.864 2.382-1.766 4.101h1.15l.325-.821h1.895l.324.821h1.175l-1.764-4.1zm1.23 2.39-.577-1.436-.579 1.436z" clip-rule="evenodd"/></svg>