<svg xmlns="http://www.w3.org/2000/svg" width="108" height="16" fill="none" viewBox="0 0 108 16"><rect width="24" height="16" fill="#1434cb" rx="4"/><path fill="#fff" d="M14.864 4.812c-1.372 0-2.598.71-2.598 2.023 0 1.506 2.174 1.61 2.174 2.366 0 .319-.365.604-.989.604-.885 0-1.546-.399-1.546-.399l-.284 1.325s.763.337 1.774.337c1.5 0 2.68-.746 2.68-2.081 0-1.59-2.183-1.692-2.183-2.394 0-.25.3-.523.922-.523.702 0 1.274.29 1.274.29l.277-1.28s-.623-.268-1.501-.268m-12.55.097-.034.193s.577.105 1.097.316c.67.241.717.382.83.818l1.228 4.732H7.08l2.537-6.06H7.975l-1.63 4.12-.665-3.492c-.06-.4-.37-.627-.748-.627zm7.964 0L8.99 10.968h1.566l1.284-6.06zm8.737 0c-.378 0-.578.202-.725.555l-2.294 5.504h1.642l.318-.917h2.001l.194.917H21.6l-1.265-6.06zm.214 1.637.487 2.273H18.41z"/><rect width="24" height="16" x="28" fill="#000" rx="4"/><path fill="#eb001b" d="M37.719 11.79c2.12 0 3.84-1.724 3.84-3.85a3.844 3.844 0 0 0-3.84-3.85 3.844 3.844 0 0 0-3.84 3.85 3.844 3.844 0 0 0 3.84 3.85"/><path fill="#f79e1b" d="M42.356 11.79c2.12 0 3.84-1.724 3.84-3.85a3.844 3.844 0 0 0-3.84-3.85 3.844 3.844 0 0 0-3.839 3.85 3.844 3.844 0 0 0 3.84 3.85"/><path fill="#ff5f00" d="M40.037 4.866a3.84 3.84 0 0 1 1.52 3.066 3.85 3.85 0 0 1-1.52 3.069 3.84 3.84 0 0 1-1.52-3.069c0-1.253.597-2.364 1.52-3.066"/><rect width="24" height="16" x="56" fill="#016fd0" rx="4"/><path fill="#fff" d="M70.199 14.338V8.861h5.807l.623.811.643-.81H80v1.153l-1.31 1.532 1.31 1.53v1.261h-2.777l-.622-.828-.632.828zM68 7.161l2.4-5.477h2.265l.743 1.708V1.684h2.815l.442 1.235.43-1.235H80v5.477h-7.67l-.348-.863h-.928l-.345.863z"/><path fill="#016fd0" d="M70.902 13.64V9.539h3.35v.917h-2.313v.702h2.259v.863h-2.259v.729h2.313v.89zm3.48 0 1.63-2.025-1.67-2.076h1.294l.995 1.283.998-1.283h1.242l-1.648 2.05 1.634 2.051h-1.293l-.965-1.263-.943 1.263zm-.293-11.259v4.102h1.027V3.46l1.09 3.022h.901l1.088-3.022v3.022h1.027V2.38H77.6l-.928 2.65-.95-2.643z"/><path fill="#016fd0" fill-rule="evenodd" d="m70.864 2.382-1.766 4.101h1.15l.326-.82h1.894l.324.82h1.175l-1.764-4.1zm1.23 2.39-.576-1.435-.58 1.435z" clip-rule="evenodd"/><rect width="24" height="16" x="84" fill="#fff" rx="4"/><mask id="a" width="12" height="10" x="90" y="3" maskUnits="userSpaceOnUse" style="mask-type:luminance"><path fill="#fff" d="M90.36 3.128h11.182v9.624H90.36z"/></mask><g mask="url(#a)"><path fill="#004c97" fill-rule="evenodd" d="M95.235 12.752c-2.674.012-4.875-2.145-4.875-4.77 0-2.87 2.2-4.855 4.874-4.854h1.254c2.642-.001 5.054 1.983 5.054 4.854 0 2.624-2.412 4.77-5.054 4.77z" clip-rule="evenodd"/></g><mask id="b" width="11" height="10" x="90" y="3" maskUnits="userSpaceOnUse" style="mask-type:luminance"><path fill="#fff" d="M90.36 3.128h9.9v9.624h-9.9z"/></mask><g mask="url(#b)"><path fill="#004c97" fill-rule="evenodd" d="M95.235 12.752c-2.674.012-4.875-2.145-4.875-4.77 0-2.87 2.2-4.855 4.874-4.854h.07c2.642-.001 4.956 1.983 4.956 4.854 0 2.624-2.314 4.77-4.955 4.77z" clip-rule="evenodd"/></g><path fill="#fefefe" fill-rule="evenodd" d="M95.245 3.526c-2.443 0-4.423 1.972-4.423 4.405s1.98 4.404 4.423 4.405c2.444 0 4.424-1.972 4.425-4.405s-1.981-4.405-4.425-4.405" clip-rule="evenodd"/><path fill="#004c97" fill-rule="evenodd" d="M94.24 10.536v-5.21a2.8 2.8 0 0 0-1.799 2.605 2.8 2.8 0 0 0 1.8 2.605m3.81-2.605a2.8 2.8 0 0 0-1.801-2.606v5.213a2.795 2.795 0 0 0 1.8-2.608" clip-rule="evenodd"/></svg>