<svg xmlns="http://www.w3.org/2000/svg" width="40" height="31" fill="none" viewBox="0 0 40 31"><path fill="#7a49e9" d="M40 6.426V3.02C40 1.35 38.643 0 36.965 0H3.035A3.025 3.025 0 0 0 0 3.02v3.406c0 .293.241.532.536.532h38.928c.295 0 .536-.24.536-.532m-.536 3.357H.536a.536.536 0 0 0-.536.533v17.331c0 1.67 1.357 3.02 3.035 3.02h33.93A3.025 3.025 0 0 0 40 27.647V10.316a.536.536 0 0 0-.536-.533M19.991 20.915l-.817 4.61a.535.535 0 0 1-.526.44H16.88a.532.532 0 0 1-.526-.627l.816-4.61a.535.535 0 0 1 .527-.439h1.767a.536.536 0 0 1 .527.626m5.718 0-.817 4.61a.535.535 0 0 1-.527.44h-1.767a.532.532 0 0 1-.527-.627l.817-4.61a.535.535 0 0 1 .526-.439h1.768a.536.536 0 0 1 .527.626m8.57 0-.818 4.61a.535.535 0 0 1-.526.44h-4.62a.532.532 0 0 1-.527-.627l.817-4.61a.535.535 0 0 1 .527-.439h4.62c.33.005.584.302.526.626"/></svg>