<svg xmlns="http://www.w3.org/2000/svg" width="104" height="104" fill="none" viewBox="0 0 104 104"><g filter="url(#a)"><rect width="80" height="80" x="12" y="4" fill="#fff" rx="20"/><rect width="40" height="30.667" x="27.465" y="29.116" fill="#7cd0e8" rx="8" transform="rotate(-9 27.465 29.116)"/><path fill="#7a49e9" d="M72 35.092v-3.406c0-1.67-1.357-3.02-3.035-3.02h-33.93A3.025 3.025 0 0 0 32 31.687v3.406c0 .293.241.533.536.533h38.928c.295 0 .536-.24.536-.533m-.536 3.357H32.536a.536.536 0 0 0-.536.533v17.332c0 1.67 1.357 3.02 3.035 3.02h33.93A3.025 3.025 0 0 0 72 56.313V38.982a.536.536 0 0 0-.536-.533M51.991 49.582l-.817 4.61a.535.535 0 0 1-.526.439H48.88a.532.532 0 0 1-.527-.626l.817-4.61a.535.535 0 0 1 .527-.44h1.767a.536.536 0 0 1 .527.627m5.718 0-.817 4.61a.535.535 0 0 1-.527.439h-1.767a.532.532 0 0 1-.527-.626l.817-4.61a.535.535 0 0 1 .526-.44h1.768a.535.535 0 0 1 .526.627m8.57 0-.818 4.61a.535.535 0 0 1-.526.439h-4.62a.532.532 0 0 1-.527-.626l.817-4.61a.535.535 0 0 1 .527-.44h4.62c.33.005.584.303.526.627"/></g><defs><filter id="a" width="104" height="104" x="0" y="0" color-interpolation-filters="sRGB" filterUnits="userSpaceOnUse"><feFlood flood-opacity="0" result="BackgroundImageFix"/><feColorMatrix in="SourceAlpha" result="hardAlpha" values="0 0 0 0 0 0 0 0 0 0 0 0 0 0 0 0 0 0 127 0"/><feOffset dy="8"/><feGaussianBlur stdDeviation="6"/><feComposite in2="hardAlpha" operator="out"/><feColorMatrix values="0 0 0 0 0.586538 0 0 0 0 0.586538 0 0 0 0 0.586538 0 0 0 0.25 0"/><feBlend in2="BackgroundImageFix" result="effect1_dropShadow_1058_4439"/><feBlend in="SourceGraphic" in2="effect1_dropShadow_1058_4439" result="shape"/></filter></defs></svg>