<svg xmlns="http://www.w3.org/2000/svg" width="20" height="20" fill="none" viewBox="0 0 20 20"><rect width="20" height="20" fill="#108de8" rx="4"/><path fill="#fff" fill-rule="evenodd" d="M9.621 5.018c-1.655.158-2.994 1.033-3.807 2.385a5.1 5.1 0 0 0-.701 2.986c.19 2.612 2.435 4.823 5.305 4.595 2.58-.208 4.703-2.526 4.487-5.375-.079-1.045-.444-1.903-1.024-2.683-.266-.353-.315-.357-.59-.643-.343-.357-1.065-.767-1.525-.95a4.8 4.8 0 0 0-2.145-.315" clip-rule="evenodd"/><path fill="#108de8" fill-rule="evenodd" d="M7.166 8.543c-.062.183-.025 2.194-.025 2.567 0 .403-.079.531.552.747 1.675.572 3.33-1.369 4.993-.41.075.045.17.136.191-.009l.004-2.592c0-.278.025-.365-.162-.493-1.488-1.037-3.098.738-4.607.539-.56-.075-.793-.361-.946-.349" clip-rule="evenodd"/></svg>