<svg width="31" height="31" viewBox="0 0 31 31" fill="none" xmlns="http://www.w3.org/2000/svg">
<path d="M29.573 12.9351H15.3254V18.1924H23.8941C22.72 21.7632 19.3632 24.3449 15.4 24.3449C10.4605 24.3449 6.45514 20.3395 6.45514 15.4C6.45514 10.4605 10.4605 6.45514 15.4 6.45514C17.6897 6.45514 19.7751 7.32432 21.3546 8.73838L24.9968 4.68757C22.4476 2.40108 19.0908 1 15.4 1C7.44432 1 1 7.44757 1 15.4C1 23.3524 7.44432 29.8 15.4 29.8C23.3524 29.8 29.8 23.3524 29.8 15.4C29.8 14.5568 29.7124 13.7362 29.573 12.9351Z" stroke="#9095A1" stroke-width="2"/>
</svg>
