<svg xmlns="http://www.w3.org/2000/svg" width="20" height="20" fill="none" viewBox="0 0 20 20"><rect width="20" height="20" fill="#fff" rx="4"/><path fill="#4285f4" d="M15 10.088q-.001-.556-.095-1.067h-4.799v1.954h2.764a2.35 2.35 0 0 1-1.026 1.575v1.268h1.645c.96-.883 1.511-2.188 1.511-3.73"/><path fill="#34a853" d="M11.845 12.55c-.458.307-1.048.486-1.738.486-1.332 0-2.462-.891-2.867-2.094H5.543v1.308a5.11 5.11 0 0 0 4.565 2.794c1.38 0 2.538-.45 3.382-1.226z"/><path fill="#fabb05" d="M7.08 9.973c0-.338.057-.664.16-.971V7.694H5.543A5 5 0 0 0 5 9.973c0 .82.196 1.592.543 2.278l1.697-1.308a3 3 0 0 1-.16-.97"/><path fill="#e94235" d="M10.108 6.907c.753 0 1.427.258 1.96.761l1.457-1.446c-.885-.82-2.04-1.322-3.418-1.322a5.11 5.11 0 0 0-4.564 2.794L7.24 9c.405-1.202 1.535-2.094 2.867-2.094"/></svg>