<svg width="72" height="72" viewBox="0 0 72 72" fill="none" xmlns="http://www.w3.org/2000/svg">
<g clip-path="url(#clip0_1347_4132)">
<path d="M52 1H20C9.50659 1 1 9.50659 1 20V52C1 62.4934 9.50659 71 20 71H52C62.4934 71 71 62.4934 71 52V20C71 9.50659 62.4934 1 52 1Z" stroke="#9095A1" stroke-width="2"/>
<path d="M53 52.4287V53H52.4287V52.4287H53ZM47.8574 52.4287V53H47.2861V52.4287H47.8574ZM45.2861 39.5713V42.1426H52.4287V39.5713H53V47.8574H47.2861V45.2861H42.7139V53H39.5713V39.5713H45.2861ZM32.4287 39.5713V53H19V39.5713H32.4287ZM22.1426 49.8574H29.2861V42.7139H22.1426V49.8574ZM53 19V32.4287H39.5713V19H53ZM32.4287 19V32.4287H19V19H32.4287ZM22.1426 29.2861H29.2861V22.1426H22.1426V29.2861ZM42.7139 29.2861H49.8574V22.1426H42.7139V29.2861Z" stroke="#9095A1" stroke-width="2"/>
</g>
<defs>
<clipPath id="clip0_1347_4132">
<rect width="72" height="72" fill="white"/>
</clipPath>
</defs>
</svg>
