<svg xmlns="http://www.w3.org/2000/svg" width="72" height="72" fill="none" viewBox="0 0 72 72"><g stroke="#9095a1" stroke-width="2" clip-path="url(#a)"><path d="M52 1H20C9.507 1 1 9.507 1 20v32c0 10.493 8.507 19 19 19h32c10.493 0 19-8.507 19-19V20C71 9.507 62.493 1 52 1Z"/><path d="M53 52.429V53h-.571v-.571zm-5.143 0V53h-.57v-.571zm-2.57-12.858v2.572h7.142V39.57H53v8.286h-5.714v-2.57h-4.572V53H39.57V39.571zm-12.858 0V53H19V39.571zM22.143 49.857h7.143v-7.143h-7.143zM53 19v13.429H39.571V19zm-20.571 0v13.429H19V19zM22.143 29.286h7.143v-7.143h-7.143zm20.57 0h7.144v-7.143h-7.143z"/></g><defs><clipPath id="a"><path fill="#fff" d="M0 0h72v72H0z"/></clipPath></defs></svg>