<svg xmlns="http://www.w3.org/2000/svg" width="72" height="72" fill="none" viewBox="0 0 72 72"><g stroke="#9095a1" stroke-width="2" clip-path="url(#a)"><path d="M52 1H20C9.507 1 1 9.507 1 20v32c0 10.493 8.507 19 19 19h32c10.493 0 19-8.507 19-19V20C71 9.507 62.493 1 52 1Z"/><path d="M54 27.783v-3.065A2.72 2.72 0 0 0 51.269 22H20.732A2.72 2.72 0 0 0 18 24.718v3.065c0 .264.217.48.482.48h35.036a.48.48 0 0 0 .482-.48Zm-.482 3.021H18.482a.48.48 0 0 0-.482.48v15.598a2.72 2.72 0 0 0 2.732 2.718h30.537A2.72 2.72 0 0 0 54 46.882V31.284a.48.48 0 0 0-.482-.48Zm-17.526 10.02-.735 4.148a.48.48 0 0 1-.474.396h-1.59a.48.48 0 0 1-.475-.564l.735-4.148a.48.48 0 0 1 .474-.396h1.591a.482.482 0 0 1 .474.564Zm5.146 0-.735 4.148a.48.48 0 0 1-.474.396h-1.591a.48.48 0 0 1-.474-.564l.735-4.148a.48.48 0 0 1 .474-.396h1.59a.482.482 0 0 1 .475.564Zm7.712 0-.735 4.148a.48.48 0 0 1-.474.396h-4.157a.48.48 0 0 1-.474-.564l.735-4.148a.48.48 0 0 1 .474-.396h4.157a.484.484 0 0 1 .474.564Z"/></g><defs><clipPath id="a"><path fill="#fff" d="M0 0h72v72H0z"/></clipPath></defs></svg>