<svg xmlns="http://www.w3.org/2000/svg" width="104" height="104" fill="none" viewBox="0 0 104 104"><g filter="url(#a)"><rect width="80" height="80" x="12" y="4" fill="#fff" rx="20"/><g clip-path="url(#b)" opacity=".6"><path fill="#fbbc05" d="M33.88 44.245c0-2.033.343-3.981.95-5.811l-10.644-8.057a31.06 31.06 0 0 0-3.245 13.87c0 4.982 1.167 9.684 3.238 13.858l10.64-8.07a18.4 18.4 0 0 1-.939-5.788"/><path fill="#ea4335" d="M52.578 25.749a18.4 18.4 0 0 1 11.646 4.122l9.203-9.103c-5.608-4.838-12.797-7.827-20.85-7.827-12.502 0-23.246 7.085-28.39 17.436l10.65 8.057c2.452-7.379 9.443-12.687 17.745-12.687"/><path fill="#34a853" d="M52.714 62.332c-8.345 0-15.372-5.272-17.838-12.608l-10.699 8.008c5.17 10.287 15.97 17.327 28.538 17.327 7.752 0 15.153-2.696 20.712-7.754L63.27 59.612c-2.863 1.77-6.474 2.722-10.558 2.722"/><path fill="#4285f4" d="M83.059 43.951c0-1.837-.29-3.82-.723-5.656H52.71v12.018h17.052c-.85 4.1-3.17 7.25-6.492 9.3l10.155 7.692c5.837-5.306 9.634-13.214 9.634-23.354"/></g></g><defs><clipPath id="b"><path fill="#fff" d="M20 12h64v64H20z"/></clipPath><filter id="a" width="104" height="104" x="0" y="0" color-interpolation-filters="sRGB" filterUnits="userSpaceOnUse"><feFlood flood-opacity="0" result="BackgroundImageFix"/><feColorMatrix in="SourceAlpha" result="hardAlpha" values="0 0 0 0 0 0 0 0 0 0 0 0 0 0 0 0 0 0 127 0"/><feOffset dy="8"/><feGaussianBlur stdDeviation="6"/><feComposite in2="hardAlpha" operator="out"/><feColorMatrix values="0 0 0 0 0.586538 0 0 0 0 0.586538 0 0 0 0 0.586538 0 0 0 0.25 0"/><feBlend in2="BackgroundImageFix" result="effect1_dropShadow_1540_4665"/><feBlend in="SourceGraphic" in2="effect1_dropShadow_1540_4665" result="shape"/></filter></defs></svg>