<svg xmlns="http://www.w3.org/2000/svg" width="72" height="72" fill="none" viewBox="0 0 72 72"><g stroke="#9095a1" stroke-width="2" clip-path="url(#a)"><path d="M52 1H20C9.507 1 1 9.507 1 20v32c0 10.493 8.507 19 19 19h32c10.493 0 19-8.507 19-19V20C71 9.507 62.493 1 52 1Z"/><path d="M27.577 35.016c0-3.567 2.972-5.35 3.091-5.468-1.664-2.497-4.28-2.735-5.23-2.853-2.259-.238-4.28 1.307-5.468 1.307-1.07 0-2.853-1.307-4.755-1.189-2.378 0-4.636 1.427-5.944 3.567-2.496 4.279-.594 10.817 1.902 14.383 1.189 1.783 2.615 3.685 4.517 3.566 1.783-.119 2.497-1.189 4.636-1.189s2.853 1.19 4.755 1.19 3.21-1.784 4.398-3.448c1.427-2.021 1.902-3.923 2.021-4.042-.238-.119-3.923-1.545-3.923-5.824Zm-3.685-10.699c.951-1.189 1.665-2.853 1.427-4.517-1.427 0-3.21.951-4.16 2.14-.952 1.07-1.784 2.734-1.546 4.398 1.664.119 3.328-.832 4.28-2.02Zm41.581 9.218H51.225v5.257h8.569c-1.174 3.571-4.53 6.153-8.494 6.153a8.946 8.946 0 0 1 0-17.89c2.29 0 4.375.87 5.955 2.283l3.642-4.05A14.32 14.32 0 0 0 51.3 21.6c-7.956 0-14.4 6.447-14.4 14.4 0 7.952 6.444 14.4 14.4 14.4 7.952 0 14.4-6.448 14.4-14.4 0-.843-.088-1.664-.227-2.465Z"/></g><defs><clipPath id="a"><path fill="#fff" d="M0 0h72v72H0z"/></clipPath></defs></svg>