<svg xmlns="http://www.w3.org/2000/svg" width="104" height="104" fill="none" viewBox="0 0 104 104"><g filter="url(#a)"><g clip-path="url(#b)"><rect width="80" height="80" x="12" y="4" fill="#fff" rx="20"/><path fill="#040000" d="M60.641 43.064c0-4 3.302-6 3.434-6.133-1.849-2.8-4.754-3.066-5.811-3.2-2.51-.266-4.755 1.467-6.076 1.467-1.188 0-3.17-1.466-5.283-1.333-2.641 0-5.15 1.6-6.604 4-2.773 4.799-.66 12.13 2.113 16.13 1.321 2 2.906 4.132 5.02 4 1.98-.134 2.773-1.334 5.15-1.334s3.17 1.333 5.284 1.333 3.566-2 4.887-3.866c1.585-2.266 2.113-4.4 2.245-4.532-.264-.134-4.359-1.733-4.359-6.532m-4.094-11.998c1.057-1.333 1.85-3.2 1.585-5.066-1.585 0-3.566 1.067-4.623 2.4-1.056 1.2-1.981 3.066-1.717 4.932 1.85.133 3.698-.933 4.755-2.266"/></g></g><defs><clipPath id="b"><rect width="80" height="80" x="12" y="4" fill="#fff" rx="20"/></clipPath><filter id="a" width="104" height="104" x="0" y="0" color-interpolation-filters="sRGB" filterUnits="userSpaceOnUse"><feFlood flood-opacity="0" result="BackgroundImageFix"/><feColorMatrix in="SourceAlpha" result="hardAlpha" values="0 0 0 0 0 0 0 0 0 0 0 0 0 0 0 0 0 0 127 0"/><feOffset dy="8"/><feGaussianBlur stdDeviation="6"/><feComposite in2="hardAlpha" operator="out"/><feColorMatrix values="0 0 0 0 0.586538 0 0 0 0 0.586538 0 0 0 0 0.586538 0 0 0 0.25 0"/><feBlend in2="BackgroundImageFix" result="effect1_dropShadow_1540_4644"/><feBlend in="SourceGraphic" in2="effect1_dropShadow_1540_4644" result="shape"/></filter></defs></svg>