<svg xmlns="http://www.w3.org/2000/svg" width="104" height="104" fill="none" viewBox="0 0 104 104"><g filter="url(#a)"><rect width="80" height="80" x="12" y="4" fill="#fff" rx="20"/><g clip-path="url(#b)"><path fill="#fbbc05" d="M42.94 44.122c0-1.016.171-1.99.474-2.905l-5.32-4.028a15.5 15.5 0 0 0-1.623 6.934c0 2.492.583 4.843 1.618 6.93l5.32-4.036a9.2 9.2 0 0 1-.469-2.894"/><path fill="#ea4335" d="M52.289 34.874a9.2 9.2 0 0 1 5.823 2.061l4.602-4.551c-2.804-2.419-6.399-3.913-10.425-3.913-6.251 0-11.623 3.542-14.196 8.718l5.325 4.028c1.227-3.69 4.722-6.344 8.873-6.344"/><path fill="#34a853" d="M52.357 53.166c-4.173 0-7.686-2.636-8.919-6.304l-5.35 4.004c2.586 5.143 7.985 8.663 14.27 8.663 3.875 0 7.576-1.347 10.355-3.876l-5.078-3.847c-1.432.885-3.237 1.361-5.28 1.361"/><path fill="#4285f4" d="M67.53 43.976c0-.919-.146-1.91-.362-2.829H52.355v6.01h8.526c-.426 2.05-1.585 3.624-3.246 4.65l5.077 3.846C65.631 53 67.53 49.046 67.53 43.976"/></g></g><defs><clipPath id="b"><path fill="#fff" d="M36 28h32v32H36z"/></clipPath><filter id="a" width="104" height="104" x="0" y="0" color-interpolation-filters="sRGB" filterUnits="userSpaceOnUse"><feFlood flood-opacity="0" result="BackgroundImageFix"/><feColorMatrix in="SourceAlpha" result="hardAlpha" values="0 0 0 0 0 0 0 0 0 0 0 0 0 0 0 0 0 0 127 0"/><feOffset dy="8"/><feGaussianBlur stdDeviation="6"/><feComposite in2="hardAlpha" operator="out"/><feColorMatrix values="0 0 0 0 0.586538 0 0 0 0 0.586538 0 0 0 0 0.586538 0 0 0 0.25 0"/><feBlend in2="BackgroundImageFix" result="effect1_dropShadow_1540_4540"/><feBlend in="SourceGraphic" in2="effect1_dropShadow_1540_4540" result="shape"/></filter></defs></svg>