<svg xmlns="http://www.w3.org/2000/svg" width="104" height="104" fill="none" viewBox="0 0 104 104"><g filter="url(#a)"><rect width="80" height="80" x="12" y="4" fill="#fff" rx="20"/><path fill="#7a49e9" d="M32 41.143h17.143V24H32zm5.714-11.429h5.715v5.715h-5.715zM54.857 24v17.143H72V24zm11.429 11.429H60.57v-5.715h5.715zM32 64h17.143V46.857H32zm5.714-11.429h5.715v5.715h-5.715z"/><path fill="#7cd0e8" d="M72 46.857h-2.857v2.857h-5.715v-2.857h-8.57V64h5.713v-8.571h2.858v2.857h8.57zm0 14.286h-2.857V64H72z"/><path fill="#7cd0e8" d="M66.286 61.143h-2.858V64h2.858z"/></g><defs><filter id="a" width="104" height="104" x="0" y="0" color-interpolation-filters="sRGB" filterUnits="userSpaceOnUse"><feFlood flood-opacity="0" result="BackgroundImageFix"/><feColorMatrix in="SourceAlpha" result="hardAlpha" values="0 0 0 0 0 0 0 0 0 0 0 0 0 0 0 0 0 0 127 0"/><feOffset dy="8"/><feGaussianBlur stdDeviation="6"/><feComposite in2="hardAlpha" operator="out"/><feColorMatrix values="0 0 0 0 0.586538 0 0 0 0 0.586538 0 0 0 0 0.586538 0 0 0 0.25 0"/><feBlend in2="BackgroundImageFix" result="effect1_dropShadow_1129_18181"/><feBlend in="SourceGraphic" in2="effect1_dropShadow_1129_18181" result="shape"/></filter></defs></svg>