<svg xmlns="http://www.w3.org/2000/svg" width="72" height="72" fill="none" viewBox="0 0 72 72"><g stroke="#9095a1" stroke-width="2" clip-path="url(#a)"><path d="M52 1H20C9.507 1 1 9.507 1 20v32c0 10.493 8.507 19 19 19h32c10.493 0 19-8.507 19-19V20C71 9.507 62.493 1 52 1Z"/><path d="M23.265 19.2c.548-.23 1.092-.279 1.7-.056.643.234 1.451.807 2.417 2.016 2.03 2.542 2.302 3.86 2.132 4.676-.088.422-.316.831-.71 1.307-.205.247-.433.488-.687.745l-.843.84c-.757.701-.836 1.662-.651 2.508.184.843.653 1.747 1.229 2.628 1.162 1.78 2.975 3.782 4.715 5.55 1.742 1.767 3.696 3.576 5.46 4.733.876.573 1.778 1.036 2.633 1.216.881.186 1.845.09 2.584-.648l.008-.009c.592-.606 1.052-1.105 1.537-1.51.468-.39.88-.62 1.31-.71.829-.176 2.17.092 4.699 2.121l.425.341.021-.008c.944.82 1.414 1.516 1.62 2.082.222.607.172 1.153-.062 1.704-.248.583-.7 1.17-1.284 1.784-.622.654-1.187 1.141-1.828 1.783l-.002.002c-.385.386-1.165.704-2.47.698-1.278-.006-2.921-.326-4.827-1.039-3.807-1.423-8.529-4.357-13.264-9.118-4.737-4.763-7.666-9.494-9.089-13.295-.712-1.904-1.033-3.539-1.038-4.807-.005-1.294.315-2.053.695-2.42l.01-.008.009-.01c.623-.631 1.139-1.223 1.775-1.827.612-.58 1.195-1.027 1.776-1.27Z"/></g><defs><clipPath id="a"><path fill="#fff" d="M0 0h72v72H0z"/></clipPath></defs></svg>