<svg xmlns="http://www.w3.org/2000/svg" width="104" height="104" fill="none" viewBox="0 0 104 104"><g filter="url(#a)"><rect width="80" height="80" x="12" y="4" fill="#fff" rx="20"/><path fill="#040000" d="M42.641 43.064c0-4 3.302-6 3.434-6.133-1.849-2.8-4.754-3.066-5.811-3.2-2.51-.266-4.755 1.467-6.076 1.467-1.188 0-3.17-1.466-5.283-1.333-2.641 0-5.15 1.6-6.604 4-2.773 4.799-.66 12.13 2.114 16.13 1.32 2 2.905 4.132 5.018 4 1.982-.134 2.774-1.334 5.152-1.334 2.377 0 3.17 1.333 5.283 1.333s3.566-2 4.887-3.866c1.585-2.266 2.113-4.4 2.245-4.532-.264-.134-4.359-1.733-4.359-6.532m-4.094-11.998c1.057-1.333 1.85-3.2 1.585-5.066-1.585 0-3.566 1.067-4.623 2.4-1.056 1.2-1.981 3.066-1.717 4.932 1.85.133 3.698-.933 4.755-2.266"/><g clip-path="url(#b)"><path fill="#fbbc05" d="M59.94 44.122c0-1.016.172-1.99.475-2.905l-5.322-4.028a15.5 15.5 0 0 0-1.622 6.934c0 2.492.583 4.843 1.618 6.93l5.32-4.036a9.2 9.2 0 0 1-.469-2.894"/><path fill="#ea4335" d="M69.289 34.874a9.2 9.2 0 0 1 5.823 2.061l4.601-4.551c-2.803-2.419-6.398-3.913-10.424-3.913-6.251 0-11.624 3.542-14.196 8.718l5.325 4.028c1.227-3.69 4.722-6.344 8.873-6.344"/><path fill="#34a853" d="M69.357 53.166c-4.172 0-7.686-2.636-8.919-6.304l-5.35 4.004c2.586 5.143 7.985 8.663 14.27 8.663 3.875 0 7.576-1.347 10.355-3.876l-5.078-3.847c-1.432.885-3.237 1.361-5.28 1.361"/><path fill="#4285f4" d="M84.53 43.976c0-.919-.145-1.91-.362-2.829H69.355v6.01h8.526c-.425 2.05-1.585 3.624-3.246 4.65l5.078 3.846c2.918-2.653 4.816-6.607 4.816-11.677"/></g></g><defs><clipPath id="b"><path fill="#fff" d="M53 28h32v32H53z"/></clipPath><filter id="a" width="104" height="104" x="0" y="0" color-interpolation-filters="sRGB" filterUnits="userSpaceOnUse"><feFlood flood-opacity="0" result="BackgroundImageFix"/><feColorMatrix in="SourceAlpha" result="hardAlpha" values="0 0 0 0 0 0 0 0 0 0 0 0 0 0 0 0 0 0 127 0"/><feOffset dy="8"/><feGaussianBlur stdDeviation="6"/><feComposite in2="hardAlpha" operator="out"/><feColorMatrix values="0 0 0 0 0.586538 0 0 0 0 0.586538 0 0 0 0 0.586538 0 0 0 0.25 0"/><feBlend in2="BackgroundImageFix" result="effect1_dropShadow_1540_4657"/><feBlend in="SourceGraphic" in2="effect1_dropShadow_1540_4657" result="shape"/></filter></defs></svg>