<svg width="104" height="104" viewBox="0 0 104 104" fill="none" xmlns="http://www.w3.org/2000/svg">
<g filter="url(#filter0_d_1540_4665)">
<rect x="12" y="4" width="80" height="80" rx="20" fill="white"/>
<g opacity="0.6" clip-path="url(#clip0_1540_4665)">
<path d="M33.8805 44.2447C33.8805 42.2118 34.2231 40.2636 34.8292 38.4339L24.1864 30.3774C22.0449 34.6867 20.9339 39.4346 20.9412 44.2466C20.9412 49.2292 22.1083 53.9313 24.1788 58.1045L34.8198 50.0349C34.1986 48.1682 33.8815 46.2139 33.8805 44.2466" fill="#FBBC05"/>
<path d="M52.5778 25.7487C56.8189 25.7399 60.9328 27.1961 64.2239 29.871L73.4268 20.768C67.8192 15.9303 60.6305 12.9412 52.5778 12.9412C40.0752 12.9412 29.3307 20.0263 24.1863 30.3774L34.8366 38.4339C37.2893 31.055 44.2804 25.7468 52.5816 25.7468" fill="#EA4335"/>
<path d="M52.7135 62.3322C44.369 62.3322 37.3422 57.0598 34.8763 49.7242L24.177 57.7318C29.3478 68.0188 40.1469 75.0588 52.7154 75.0588C60.4669 75.0588 67.8683 72.3633 73.4269 67.3054L63.2697 59.6122C60.4067 61.3817 56.7963 62.3341 52.7116 62.3341" fill="#34A853"/>
<path d="M83.0589 43.951C83.0589 42.1139 82.769 40.1317 82.3361 38.2946H52.7097V50.3134H69.762C68.9111 54.4131 66.5921 57.5623 63.2697 59.6122L73.425 67.3054C79.2622 61.999 83.0589 54.0913 83.0589 43.951Z" fill="#4285F4"/>
</g>
</g>
<defs>
<filter id="filter0_d_1540_4665" x="0" y="0" width="104" height="104" filterUnits="userSpaceOnUse" color-interpolation-filters="sRGB">
<feFlood flood-opacity="0" result="BackgroundImageFix"/>
<feColorMatrix in="SourceAlpha" type="matrix" values="0 0 0 0 0 0 0 0 0 0 0 0 0 0 0 0 0 0 127 0" result="hardAlpha"/>
<feOffset dy="8"/>
<feGaussianBlur stdDeviation="6"/>
<feComposite in2="hardAlpha" operator="out"/>
<feColorMatrix type="matrix" values="0 0 0 0 0.586538 0 0 0 0 0.586538 0 0 0 0 0.586538 0 0 0 0.25 0"/>
<feBlend mode="normal" in2="BackgroundImageFix" result="effect1_dropShadow_1540_4665"/>
<feBlend mode="normal" in="SourceGraphic" in2="effect1_dropShadow_1540_4665" result="shape"/>
</filter>
<clipPath id="clip0_1540_4665">
<rect width="64" height="64" fill="white" transform="translate(20 12)"/>
</clipPath>
</defs>
</svg>
