<svg xmlns="http://www.w3.org/2000/svg" width="104" height="104" fill="none" viewBox="0 0 104 104"><g filter="url(#a)"><rect width="80" height="80" x="12" y="4" fill="#fff" rx="20"/><path fill="#7a49e9" d="M67.137 52.697c-5.72-4.59-7.379-2.354-9.874.2-1.871 1.872-6.437-1.977-10.286-5.884s-7.79-8.639-5.884-10.31c2.589-2.6 4.778-4.154.2-9.886s-7.685-1.353-10.18 1.177c-2.943 2.837-.247 13.617 10.462 24.386 10.71 10.768 21.514 13.428 24.42 10.51 2.496-2.496 6.968-5.615 1.178-10.205z"/><path fill="#7cd0e8" d="M53.599 30.823c.747-.746 1.814-.58 1.814-.58l.011.002a14.03 14.03 0 0 1 11.601 11.602s.156 1.066-.591 1.814a2.073 2.073 0 0 1-2.902 0 2.3 2.3 0 0 1-.581-1.156c-.247-1.327-.679-3.3-2.788-5.41s-4.092-2.53-5.409-2.776a2.33 2.33 0 0 1-1.155-.592 2.08 2.08 0 0 1 0-2.904"/><path fill="#7cd0e8" d="M70.398 43.65c.538-3.556-1.114-7.947-4.981-11.818h.001c-3.87-3.867-8.259-5.519-11.821-4.99 0 0-1.128.189-1.863-.549a2.065 2.065 0 0 1 0-2.914 2.6 2.6 0 0 1 1.31-.591c3.072-.452 9.256.108 15.282 6.13s6.584 12.211 6.14 15.289c0 0-.11.812-.607 1.31a2.065 2.065 0 0 1-2.915 0c-.743-.736-.546-1.866-.546-1.866"/></g><defs><filter id="a" width="104" height="104" x="0" y="0" color-interpolation-filters="sRGB" filterUnits="userSpaceOnUse"><feFlood flood-opacity="0" result="BackgroundImageFix"/><feColorMatrix in="SourceAlpha" result="hardAlpha" values="0 0 0 0 0 0 0 0 0 0 0 0 0 0 0 0 0 0 127 0"/><feOffset dy="8"/><feGaussianBlur stdDeviation="6"/><feComposite in2="hardAlpha" operator="out"/><feColorMatrix values="0 0 0 0 0.586538 0 0 0 0 0.586538 0 0 0 0 0.586538 0 0 0 0.25 0"/><feBlend in2="BackgroundImageFix" result="effect1_dropShadow_1129_18117"/><feBlend in="SourceGraphic" in2="effect1_dropShadow_1129_18117" result="shape"/></filter></defs></svg>