<svg xmlns="http://www.w3.org/2000/svg" width="104" height="104" fill="none" viewBox="0 0 104 104"><g filter="url(#a)"><rect width="80" height="80" x="12" y="4" fill="#fff" rx="20"/><path fill="#040000" fill-opacity=".8" d="M66.792 42.728c0-6.499 5.46-9.748 5.679-9.965-3.058-4.549-7.864-4.982-9.611-5.199-4.15-.433-7.864 2.383-10.048 2.383-1.966 0-5.243-2.383-8.738-2.166-4.369 0-8.52 2.6-10.922 6.499-4.587 7.798-1.092 19.713 3.495 26.212 2.185 3.249 4.806 6.715 8.3 6.498 3.277-.216 4.588-2.166 8.52-2.166s5.242 2.166 8.737 2.166 5.898-3.25 8.083-6.282c2.62-3.682 3.495-7.148 3.713-7.365-.437-.217-7.209-2.816-7.209-10.615M60.02 23.232c1.747-2.166 3.058-5.2 2.621-8.232-2.621 0-5.898 1.733-7.645 3.9-1.748 1.949-3.277 4.982-2.84 8.015 3.058.216 6.117-1.517 7.864-3.683"/></g><defs><filter id="a" width="104" height="104" x="0" y="0" color-interpolation-filters="sRGB" filterUnits="userSpaceOnUse"><feFlood flood-opacity="0" result="BackgroundImageFix"/><feColorMatrix in="SourceAlpha" result="hardAlpha" values="0 0 0 0 0 0 0 0 0 0 0 0 0 0 0 0 0 0 127 0"/><feOffset dy="8"/><feGaussianBlur stdDeviation="6"/><feComposite in2="hardAlpha" operator="out"/><feColorMatrix values="0 0 0 0 0.586538 0 0 0 0 0.586538 0 0 0 0 0.586538 0 0 0 0.25 0"/><feBlend in2="BackgroundImageFix" result="effect1_dropShadow_1540_4672"/><feBlend in="SourceGraphic" in2="effect1_dropShadow_1540_4672" result="shape"/></filter></defs></svg>