<svg xmlns="http://www.w3.org/2000/svg" width="24" height="16" fill="none" viewBox="0 0 24 16"><rect width="24" height="16" fill="#000" rx="4"/><path fill="#eb001b" d="M9.72 11.79a3.844 3.844 0 0 0 3.838-3.85A3.844 3.844 0 0 0 9.72 4.09a3.844 3.844 0 0 0-3.84 3.85 3.844 3.844 0 0 0 3.84 3.85"/><path fill="#f79e1b" d="M14.356 11.79c2.12 0 3.84-1.724 3.84-3.85a3.844 3.844 0 0 0-3.84-3.85 3.844 3.844 0 0 0-3.839 3.85 3.844 3.844 0 0 0 3.84 3.85"/><path fill="#ff5f00" d="M12.037 4.866a3.84 3.84 0 0 1 1.52 3.066 3.85 3.85 0 0 1-1.52 3.069 3.84 3.84 0 0 1-1.52-3.069c0-1.253.597-2.364 1.52-3.066"/></svg>