<svg xmlns="http://www.w3.org/2000/svg" width="20" height="20" fill="none" viewBox="0 0 20 20"><rect width="20" height="20" fill="#4c2a86" rx="4"/><path fill="#fff" d="M9.935 12.294c-.044-.006-.09-.008-.134-.015a.83.83 0 0 1-.528-.302 1.5 1.5 0 0 1-.236-.431c-.057-.151-.098-.307-.143-.462l-.232-.8-.358-1.237a.5.5 0 0 0-.09-.183.29.29 0 0 0-.227-.103q-.207-.003-.412 0c-.016 0-.022-.003-.022-.022v-.3c0-.017.004-.02.02-.02h.457c.101 0 .2.013.292.057a.54.54 0 0 1 .254.264c.04.083.06.172.085.26l.24.84.4 1.404c.04.14.09.277.17.401a.57.57 0 0 0 .316.263.63.63 0 0 0 .559-.068.7.7 0 0 0 .227-.276c.064-.126.105-.26.144-.395l.302-1.058.358-1.256a.6.6 0 0 1 .182-.302.53.53 0 0 1 .273-.124q.08-.012.16-.01h.432q.021-.002.02.02v.303c0 .016-.006.018-.02.018h-.396a.31.31 0 0 0-.3.194c-.036.075-.054.157-.077.236l-.304 1.051-.316 1.091c-.05.171-.111.338-.201.492a.9.9 0 0 1-.365.367.9.9 0 0 1-.326.095l-.078.008z"/><path fill="#fff" d="M7.857 7.903h.274c.12 0 .239.014.354.052.207.067.36.2.473.383.082.132.134.277.176.425l.274.95.41 1.42c.015.05.028.101.05.149.021.043.047.082.098.095a.12.12 0 0 0 .135-.05c.034-.046.05-.102.066-.157l.32-1.11.35-1.21c.036-.123.07-.246.123-.363.059-.13.133-.25.239-.349a.84.84 0 0 1 .41-.21q.137-.027.278-.025h.535c.016 0 .021.003.021.02v.303c0 .016-.004.018-.018.018q-.257-.002-.512 0a.75.75 0 0 0-.352.085.65.65 0 0 0-.278.315c-.05.109-.078.224-.111.338q-.164.556-.326 1.113l-.316 1.082a1.5 1.5 0 0 1-.142.352.43.43 0 0 1-.206.192.5.5 0 0 1-.2.032.4.4 0 0 1-.28-.105.6.6 0 0 1-.118-.163 2 2 0 0 1-.137-.37l-.322-1.104-.352-1.207a.9.9 0 0 0-.162-.328.6.6 0 0 0-.342-.208 1 1 0 0 0-.234-.024h-.463q-.022.002-.019-.02v-.3c0-.017.003-.022.02-.021zM17 9.985q-.004-.01-.002-.02.001-.087-.005-.172a2.4 2.4 0 0 0-.075-.414 2.17 2.17 0 0 0-.641-1.044 2.1 2.1 0 0 0-.818-.447 2.2 2.2 0 0 0-.647-.087q-.039-.002-.078 0-.186.003-.37.032a2.2 2.2 0 0 0-.675.225q-.537.284-.83.815a2.4 2.4 0 0 0-.287 1.105q-.005.216.022.43.03.243.112.472.157.451.493.791.261.262.598.416.385.175.806.2l.127.007h.119q.007-.004.015-.002a2 2 0 0 0 .5-.057 2.1 2.1 0 0 0 .951-.5q.148-.137.266-.3a2.24 2.24 0 0 0 .413-1.147 2 2 0 0 0 .004-.15q-.002-.01.002-.019zm-.367.112a2.1 2.1 0 0 1-.188.862 1.64 1.64 0 0 1-.759.786 1.8 1.8 0 0 1-.51.167 2.3 2.3 0 0 1-.554.027 1.9 1.9 0 0 1-.776-.217 1.67 1.67 0 0 1-.755-.848 2 2 0 0 1-.134-.516 3 3 0 0 1-.02-.306 2.2 2.2 0 0 1 .11-.711q.11-.33.335-.597.206-.239.486-.384.284-.148.602-.19a2.2 2.2 0 0 1 .506-.012c.344.03.66.137.94.341q.316.233.496.583.148.289.195.611.03.201.026.404M7.39 9.62a2.2 2.2 0 0 0-.222-.676A2.07 2.07 0 0 0 6.13 7.98a2.3 2.3 0 0 0-.883-.178h-.088q-.198.001-.393.035a2.2 2.2 0 0 0-.636.213 2 2 0 0 0-.886.898q-.131.263-.192.551-.047.222-.052.45v.206a2.35 2.35 0 0 0 .246.992c.128.25.297.469.514.648.395.325.852.48 1.36.495h.19q.125-.002.249-.02.256-.03.499-.122c.346-.132.64-.337.874-.626a2.23 2.23 0 0 0 .49-1.33q.015-.288-.032-.572m-.438 1.134a1.68 1.68 0 0 1-1.236 1.134 2.2 2.2 0 0 1-.642.052 1.9 1.9 0 0 1-.707-.17 1.7 1.7 0 0 1-.448-.303 1.75 1.75 0 0 1-.477-.808 2.5 2.5 0 0 1-.063-.89 1.9 1.9 0 0 1 .392-.98c.19-.24.434-.41.72-.518.157-.06.32-.094.488-.11q.212-.023.424-.003c.364.032.696.15.986.377.188.147.334.33.445.54q.144.28.194.59c.021.128.03.258.03.372 0 .255-.03.49-.106.717"/><path fill="#fff" d="M16.397 9.497a1.6 1.6 0 0 0-.388-.696 1.5 1.5 0 0 0-.501-.348 1.7 1.7 0 0 0-.494-.127 2 2 0 0 0-.344-.009 1.7 1.7 0 0 0-.466.085 1.52 1.52 0 0 0-.892.75q-.155.298-.194.63-.023.197-.013.394.012.258.093.506a1.54 1.54 0 0 0 1.016 1.013c.21.068.425.09.645.084a2 2 0 0 0 .429-.06 1.52 1.52 0 0 0 1.049-.929c.094-.236.132-.483.131-.736 0-.203-.02-.369-.071-.557m-.304.742a1.4 1.4 0 0 1-.302.75 1.2 1.2 0 0 1-.57.379c-.16.051-.324.069-.492.063a1.3 1.3 0 0 1-.713-.226 1.2 1.2 0 0 1-.432-.543 1.5 1.5 0 0 1-.115-.6c0-.234.035-.45.13-.653.18-.388.479-.63.897-.718a1.4 1.4 0 0 1 .825.073q.409.172.615.565.126.242.155.515.023.197.002.395m-9.215-.46a1.8 1.8 0 0 0-.11-.45c-.1-.253-.248-.47-.458-.645a1.6 1.6 0 0 0-.89-.36 2 2 0 0 0-.521.014q-.257.038-.49.154a1.53 1.53 0 0 0-.754.843 2 2 0 0 0-.127.695q-.001.173.023.345.043.3.183.566.186.352.52.571.34.218.742.257.244.026.49-.006a1.7 1.7 0 0 0 .563-.174q.305-.157.51-.43c.207-.28.307-.6.33-.944a2.3 2.3 0 0 0-.01-.436m-.49.941q-.247.512-.795.664a1.5 1.5 0 0 1-.485.044c-.2-.013-.39-.062-.565-.16a1.2 1.2 0 0 1-.534-.606 1.7 1.7 0 0 1-.047-1.088c.069-.225.186-.421.36-.581q.262-.238.606-.304.22-.043.443-.02a1.24 1.24 0 0 1 1.108.969c.036.141.049.262.049.414 0 .233-.04.457-.14.668"/></svg>