<svg xmlns="http://www.w3.org/2000/svg" width="38" height="30" fill="none" viewBox="0 0 38 30"><path stroke="#9095a1" stroke-width="2" d="M37 6.783V3.718A2.72 2.72 0 0 0 34.269 1H3.732A2.72 2.72 0 0 0 1 3.718v3.065c0 .264.217.48.482.48h35.036a.48.48 0 0 0 .482-.48Zm-.482 3.021H1.482a.48.48 0 0 0-.482.48v15.598A2.72 2.72 0 0 0 3.732 28.6h30.537A2.72 2.72 0 0 0 37 25.882V10.284a.48.48 0 0 0-.482-.48Zm-17.526 10.02-.735 4.148a.48.48 0 0 1-.474.396h-1.59a.48.48 0 0 1-.475-.564l.735-4.148a.48.48 0 0 1 .474-.396h1.591a.482.482 0 0 1 .474.564Zm5.146 0-.735 4.148a.48.48 0 0 1-.474.396h-1.591a.48.48 0 0 1-.474-.564l.735-4.148a.48.48 0 0 1 .474-.396h1.59a.482.482 0 0 1 .475.564Zm7.712 0-.735 4.148a.48.48 0 0 1-.474.396h-4.157a.48.48 0 0 1-.474-.564l.735-4.148a.48.48 0 0 1 .474-.396h4.157a.484.484 0 0 1 .474.564Z"/></svg>