<svg xmlns="http://www.w3.org/2000/svg" width="20" height="20" fill="none" viewBox="0 0 20 20"><path fill="#000" fill-rule="evenodd" d="M3.185 14.2c0 .33.266.6.593.6h12.444a.597.597 0 0 0 .593-.6V8.8H3.185zM4.37 13h2.37v-1.2H4.37z" clip-rule="evenodd"/><path fill="#000" d="M3.778 5.2a.596.596 0 0 0-.593.6v1.8h13.63V5.8c0-.331-.266-.6-.593-.6z"/><path fill="#000" fill-rule="evenodd" d="M16.222 4C17.202 4 18 4.808 18 5.8v1.8h-1.185V5.8c0-.331-.266-.6-.593-.6H3.778a.596.596 0 0 0-.593.6v1.8H2V5.8C2 4.809 2.797 4 3.778 4zM2 14.2V8.8h1.185v5.4c0 .33.266.6.593.6h12.444a.597.597 0 0 0 .593-.6V8.8H18v5.4c0 .992-.798 1.8-1.778 1.8H3.778C2.798 16 2 15.192 2 14.2" clip-rule="evenodd"/></svg>