<svg xmlns="http://www.w3.org/2000/svg" width="24" height="24" fill="none" viewBox="0 0 24 24"><path fill="#fff" d="M8 2.5c-.69 0-1.25.56-1.25 1.25v16.5c0 .69.56 1.25 1.25 1.25h8c.69 0 1.25-.56 1.25-1.25V3.75c0-.69-.56-1.25-1.25-1.25z"/><path fill="#000" d="M8 2.5c-.69 0-1.25.56-1.25 1.25v16.5c0 .69.56 1.25 1.25 1.25h8c.69 0 1.25-.56 1.25-1.25V3.75c0-.69-.56-1.25-1.25-1.25zM8 1h8a2.75 2.75 0 0 1 2.75 2.75v16.5A2.75 2.75 0 0 1 16 23H8a2.75 2.75 0 0 1-2.75-2.75V3.75A2.75 2.75 0 0 1 8 1m1.5.75h5a.5.5 0 0 1 .5.5v1a.5.5 0 0 1-.5.5h-5a.5.5 0 0 1-.5-.5v-1a.5.5 0 0 1 .5-.5"/></svg>