<svg xmlns="http://www.w3.org/2000/svg" width="104" height="104" fill="none" viewBox="0 0 104 104"><g filter="url(#a)"><rect width="80" height="80" x="12" y="4" fill="#fff" rx="20"/><path fill="#7a49e9" d="M36 41.714h13.714V28H36zm4.571-9.143h4.572v4.572H40.57zM54.286 28v13.714H68V28zm9.143 9.143h-4.572V32.57h4.572zM36 60h13.714V46.286H36zm4.571-9.143h4.572v4.572H40.57z"/><path fill="#7cd0e8" d="M68 46.286h-2.286v2.285h-4.571v-2.285h-6.857V60h4.571v-6.857h2.286v2.285H68zm0 11.428h-2.286V60H68z"/><path fill="#7cd0e8" d="M63.429 57.714h-2.286V60h2.285z"/><path stroke="#7a49e9" stroke-linecap="round" stroke-linejoin="round" stroke-width="2" d="M42 24h-8a2 2 0 0 0-2 2v8m40 0v-8a2 2 0 0 0-2-2h-8m0 40h8a2 2 0 0 0 2-2v-8m-40 0v8a2 2 0 0 0 2 2h8"/></g><defs><filter id="a" width="104" height="104" x="0" y="0" color-interpolation-filters="sRGB" filterUnits="userSpaceOnUse"><feFlood flood-opacity="0" result="BackgroundImageFix"/><feColorMatrix in="SourceAlpha" result="hardAlpha" values="0 0 0 0 0 0 0 0 0 0 0 0 0 0 0 0 0 0 127 0"/><feOffset dy="8"/><feGaussianBlur stdDeviation="6"/><feComposite in2="hardAlpha" operator="out"/><feColorMatrix values="0 0 0 0 0.586538 0 0 0 0 0.586538 0 0 0 0 0.586538 0 0 0 0.25 0"/><feBlend in2="BackgroundImageFix" result="effect1_dropShadow_1129_18121"/><feBlend in="SourceGraphic" in2="effect1_dropShadow_1129_18121" result="shape"/></filter></defs></svg>