<svg xmlns="http://www.w3.org/2000/svg" width="36" height="36" fill="none" viewBox="0 0 36 36"><path stroke="#9095a1" stroke-width="2" d="M5.265 1.2c.548-.23 1.092-.279 1.7-.056.643.234 1.451.807 2.417 2.016 2.03 2.542 2.302 3.86 2.132 4.676-.088.422-.316.831-.71 1.307-.205.247-.433.488-.687.745l-.843.84c-.757.702-.836 1.662-.65 2.508.183.843.652 1.747 1.228 2.628 1.162 1.78 2.975 3.782 4.715 5.55 1.742 1.767 3.696 3.576 5.46 4.732.876.574 1.778 1.037 2.633 1.217.881.186 1.845.09 2.584-.648l.008-.009c.592-.606 1.052-1.105 1.537-1.51.468-.39.88-.62 1.31-.71.829-.176 2.17.092 4.699 2.121l.425.341.021-.008c.944.82 1.414 1.516 1.62 2.081.222.608.172 1.153-.062 1.705-.248.583-.7 1.17-1.284 1.784-.622.654-1.187 1.141-1.829 1.783l-.002.002c-.384.386-1.164.704-2.468.698-1.28-.006-2.922-.326-4.828-1.039-3.807-1.423-8.529-4.357-13.264-9.118C6.39 20.073 3.46 15.342 2.038 11.54 1.326 9.637 1.005 8.002 1 6.734c-.005-1.294.315-2.053.695-2.42l.01-.008.009-.01c.623-.631 1.139-1.224 1.775-1.827.612-.58 1.195-1.027 1.776-1.27Z"/></svg>