<svg xmlns="http://www.w3.org/2000/svg" width="72" height="72" fill="none" viewBox="0 0 72 72"><g stroke="#9095a1" stroke-width="2" clip-path="url(#a)"><path d="M52 1H20C9.507 1 1 9.507 1 20v32c0 10.493 8.507 19 19 19h32c10.493 0 19-8.507 19-19V20C71 9.507 62.493 1 52 1Z"/><path d="M40.177 50.197C39.687 51.765 38.08 53 36 53c-2.066 0-3.682-1.232-4.176-2.803zM36 19c1.512 0 2.556 1.085 2.556 2.2l-.008.173a2 2 0 0 1-.024.17l-.162.884.86.256c4.766 1.415 8.222 5.771 8.222 10.912v4.472l.001.058.003.212c.004.181.011.439.026.747.028.613.085 1.44.202 2.276.114.82.296 1.717.596 2.434.15.357.356.733.649 1.032.308.315.747.574 1.302.574.533 0 .777.361.777.6 0 .237-.244.6-.777.6H21.777c-.533 0-.777-.361-.777-.6 0-.22.226-.6.823-.6h.032c.555-.018.981-.295 1.274-.61.281-.304.478-.68.623-1.039.29-.72.466-1.616.578-2.437.114-.837.17-1.664.197-2.277.014-.307.021-.564.025-.745l.003-.212v-4.487c0-5.11 3.696-9.486 8.237-10.91l.845-.265-.16-.871a2 2 0 0 1-.033-.347c0-1.117 1.046-2.2 2.556-2.2Z"/></g><defs><clipPath id="a"><path fill="#fff" d="M0 0h72v72H0z"/></clipPath></defs></svg>