<svg xmlns="http://www.w3.org/2000/svg" width="19" height="19" fill="none" viewBox="0 0 19 19"><path fill="#3c4a66" d="m7.699 9.998.198.198q.08.079.159.149.078.069.158.148l.238.238q.396.396.317.693-.08.298-.496.694-.177.197-.584.604-.405.405-.872.881-.465.475-.9.911-.437.435-.674.694-.357.356-.496.624-.138.267.12.525.177.178.455.475.277.297.475.495.337.337.248.595-.09.256-.584.297-.516.06-1.15.138-.633.08-1.307.149-.673.07-1.317.148-.644.08-1.179.14-.514.059-.713-.13-.198-.187-.158-.663.039-.495.109-1.11.069-.613.148-1.257.08-.645.149-1.278l.129-1.169q.06-.574.326-.733.268-.158.605.178.197.199.515.486.317.287.534.505.218.217.416.139a1.6 1.6 0 0 0 .456-.317q.258-.258.703-.713.446-.456.931-.941t.941-.951.733-.743q.119-.12.268-.228a.9.9 0 0 1 .326-.148.7.7 0 0 1 .367.02q.187.059.406.257M17.722.014q.515-.06.713.129.198.188.159.664-.04.495-.11 1.109-.068.615-.148 1.258-.078.643-.148 1.287t-.129 1.179q-.06.574-.327.723-.267.148-.604-.188a18 18 0 0 0-.545-.515q-.347-.318-.564-.535-.218-.218-.377-.188-.157.03-.396.267-.277.278-.723.733l-.94.96q-.496.506-.972.981l-.732.733q-.12.12-.258.238a1 1 0 0 1-.307.178.65.65 0 0 1-.357.02q-.188-.04-.386-.257l-.753-.753q-.396-.396-.346-.723.049-.328.446-.723.178-.179.594-.604.415-.426.891-.902.476-.475.921-.93.446-.457.704-.694.356-.357.445-.584.09-.228-.168-.486a31 31 0 0 1-.426-.435 33 33 0 0 0-.446-.456q-.337-.338-.247-.594.09-.258.584-.317L13.909.45q.644-.079 1.317-.149.674-.069 1.318-.148.644-.08 1.178-.139"/></svg>