<svg xmlns="http://www.w3.org/2000/svg" width="24" height="16" fill="none" viewBox="0 0 24 16"><rect width="24" height="16" fill="#1434cb" rx="4"/><path fill="#fff" d="M14.864 4.812c-1.372 0-2.598.71-2.598 2.023 0 1.506 2.174 1.61 2.174 2.366 0 .319-.365.604-.989.604-.885 0-1.546-.399-1.546-.399l-.284 1.325s.763.337 1.774.337c1.5 0 2.68-.746 2.68-2.081 0-1.59-2.183-1.692-2.183-2.394 0-.25.3-.523.922-.523.702 0 1.274.29 1.274.29l.277-1.28s-.623-.268-1.501-.268m-12.55.097-.034.193s.577.105 1.097.316c.67.241.717.382.83.818l1.228 4.732H7.08l2.537-6.06H7.975l-1.63 4.12-.665-3.492c-.06-.4-.37-.627-.748-.627zm7.964 0L8.99 10.968h1.566l1.284-6.06zm8.737 0c-.378 0-.578.202-.725.555l-2.294 5.504h1.642l.318-.917h2.001l.194.917H21.6l-1.265-6.06zm.214 1.637.487 2.273H18.41z"/></svg>