<svg xmlns="http://www.w3.org/2000/svg" width="63" height="26" fill="none" viewBox="0 0 63 26"><path fill="#000" d="M11.51 3.335c-.738.873-1.92 1.562-3.1 1.464-.148-1.181.43-2.437 1.107-3.212C10.255.69 11.547.05 12.593 0c.123 1.23-.357 2.436-1.083 3.335m1.07 1.698c-1.71-.099-3.174.972-3.986.972-.825 0-2.067-.923-3.42-.899-1.76.025-3.397 1.022-4.295 2.609-1.846 3.175-.48 7.875 1.304 10.459.874 1.28 1.92 2.682 3.298 2.633 1.304-.049 1.82-.849 3.396-.849 1.587 0 2.042.85 3.42.825 1.428-.025 2.326-1.28 3.2-2.56.996-1.452 1.402-2.867 1.427-2.94-.025-.025-2.756-1.071-2.78-4.221-.025-2.633 2.153-3.888 2.25-3.962-1.23-1.821-3.15-2.018-3.813-2.067m9.881-3.569v19.183h2.978V14.09h4.122c3.765 0 6.41-2.584 6.41-6.325s-2.596-6.3-6.312-6.3zm2.978 2.51h3.433c2.584 0 4.06 1.379 4.06 3.803s-1.476 3.814-4.072 3.814H25.44zm15.971 16.82c1.87 0 3.606-.947 4.393-2.448h.062v2.301h2.756V11.1c0-2.769-2.215-4.553-5.623-4.553-3.163 0-5.5 1.809-5.587 4.294h2.683c.221-1.18 1.316-1.956 2.817-1.956 1.822 0 2.843.849 2.843 2.412v1.058l-3.716.221c-3.458.21-5.328 1.625-5.328 4.085 0 2.486 1.932 4.135 4.7 4.135m.8-2.275c-1.587 0-2.596-.763-2.596-1.932 0-1.206.972-1.907 2.83-2.018l3.31-.21v1.083c0 1.797-1.526 3.077-3.544 3.077m10.09 7.346c2.904 0 4.27-1.108 5.463-4.467l5.23-14.667h-3.027L56.46 18.065h-.062L52.892 6.731h-3.113l5.044 13.966-.27.849c-.456 1.44-1.194 1.993-2.51 1.993-.234 0-.69-.025-.874-.05v2.302c.172.049.91.073 1.132.073"/></svg>