<svg width="30" height="20" viewBox="0 0 30 20" fill="none" xmlns="http://www.w3.org/2000/svg">
<rect width="30" height="20" rx="4" fill="#010101"/>
<path d="M17.8176 9.51538C17.8343 11.0284 19.1911 11.5309 19.2022 11.5365C19.1911 11.57 18.9845 12.2567 18.4876 12.9602C18.0577 13.5688 17.611 14.1773 16.9075 14.1885C16.2152 14.1997 15.9918 13.7921 15.2046 13.7921C14.4118 13.7921 14.1661 14.1773 13.5129 14.1997C12.8317 14.222 12.318 13.5408 11.8825 12.9323C10.9948 11.6928 10.3192 9.42605 11.2293 7.89626C11.6815 7.13695 12.4911 6.65679 13.3677 6.64004C14.0321 6.62888 14.663 7.07553 15.0706 7.07553C15.4782 7.07553 16.2431 6.53955 17.0471 6.61771C17.3821 6.62888 18.3312 6.75171 18.9342 7.61152C18.884 7.63943 17.8064 8.248 17.8176 9.51538ZM16.5167 5.79698C16.8796 5.37266 17.1197 4.78643 17.0527 4.2002C16.5334 4.22253 15.9025 4.53519 15.534 4.95951C15.199 5.33358 14.9087 5.93098 14.9869 6.50605C15.5675 6.55071 16.1593 6.2213 16.5167 5.79698Z" fill="white"/>
</svg>
