<svg width="30" height="20" viewBox="0 0 30 20" fill="none" xmlns="http://www.w3.org/2000/svg">
<rect x="0.5" y="0.5" width="29" height="19" rx="3.5" fill="white"/>
<rect x="0.5" y="0.5" width="29" height="19" rx="3.5" stroke="#8D8D8D"/>
<path d="M20.4995 10.1876C20.4995 9.81693 20.4644 9.4622 20.3993 9.12109H15.3613V11.0753L18.2628 11.0759C18.1451 11.7262 17.7664 12.2805 17.1861 12.65V13.9179H18.9132C19.9217 13.0349 20.4995 11.7297 20.4995 10.1876Z" fill="#4285F4"/>
<path d="M17.187 12.6503C16.7063 12.9571 16.0872 13.1365 15.3629 13.1365C13.9638 13.1365 12.7769 12.2446 12.3519 11.0425H10.5703V12.3501C11.453 14.007 13.2671 15.144 15.3629 15.144C16.8114 15.144 18.0284 14.6934 18.9141 13.9176L17.187 12.6503Z" fill="#34A853"/>
<path d="M12.1841 10.0726C12.1841 9.73506 12.2436 9.40876 12.3518 9.102V7.79443H10.5703C10.2053 8.4796 10 9.25301 10 10.0726C10 10.8922 10.206 11.6656 10.5703 12.3508L12.3518 11.0432C12.2436 10.7365 12.1841 10.4102 12.1841 10.0726Z" fill="#FABB05"/>
<path d="M15.3629 7.00755C16.1535 7.00755 16.8615 7.26515 17.4205 7.76852L18.9511 6.32178C18.0215 5.50278 16.8096 5 15.3629 5C13.2677 5 11.453 6.13702 10.5703 7.79398L12.3519 9.10155C12.7769 7.89939 13.9638 7.00755 15.3629 7.00755Z" fill="#E94235"/>
</svg>
