<svg width="30" height="20" viewBox="0 0 30 20" fill="none" xmlns="http://www.w3.org/2000/svg">
<rect width="30" height="20" rx="4" fill="#016FD0"/>
<path d="M17.748 17.9232V11.0767H25.0064L25.7851 12.0906L26.5897 11.0767H29.9992V12.5196L28.3629 14.4335L29.9992 16.3473V17.9233H26.5281L25.7504 16.8876L24.9609 17.9233L17.748 17.9232Z" fill="white"/>
<path d="M15 8.95198L18.0004 2.10547H20.8311L21.7599 4.24031V2.10547H25.2787L25.8317 3.64847L26.3678 2.10547H30V8.95203H20.4117L19.977 7.87278H18.8175L18.3859 8.95198H16.3636H15Z" fill="white"/>
<path d="M18.627 17.0503V11.9238H22.8143V13.0705H19.9237V13.9475H22.7468V15.0267H19.9237V15.9373H22.8143V17.0503H18.627ZM22.9768 17.0503L25.0157 14.5187L22.9283 11.9238H24.545L25.7881 13.5279L27.0355 11.9238H28.5889L26.529 14.4871L28.5715 17.0503H26.9551L25.7481 15.4715L24.5704 17.0503H22.9768Z" fill="#016FD0"/>
<path d="M22.6119 2.97705V8.10351H23.8951V4.32612L25.2592 8.10351H26.3846L27.7448 4.32612V8.10351H29.0281V2.97705H27.0019L25.8424 6.28986L24.6544 2.98461L22.6119 2.97705Z" fill="#016FD0"/>
<path fill-rule="evenodd" clip-rule="evenodd" d="M18.5807 2.97793L16.373 8.10439H17.8104L18.2177 7.07782H20.5858L20.991 8.10439H22.46L20.2543 2.97793H18.5807ZM20.1193 5.96486L19.3975 4.17097L18.6736 5.96486H20.1193Z" fill="#016FD0"/>
</svg>
