<svg width="30" height="20" viewBox="0 0 30 20" fill="none" xmlns="http://www.w3.org/2000/svg">
<rect x="0.2" y="0.2" width="29.6" height="19.6" rx="3.8" fill="white"/>
<rect x="0.2" y="0.2" width="29.6" height="19.6" rx="3.8" stroke="#8D8D8D" stroke-width="0.4"/>
<mask id="mask0_1984_16185" style="mask-type:luminance" maskUnits="userSpaceOnUse" x="7" y="3" width="15" height="13">
<path d="M7.94922 3.90967H21.9263V15.9397H7.94922V3.90967Z" fill="white"/>
</mask>
<g mask="url(#mask0_1984_16185)">
<path fill-rule="evenodd" clip-rule="evenodd" d="M14.0425 15.9396C10.7002 15.9548 7.94922 13.259 7.94922 9.97679C7.94922 6.3897 10.7002 3.90852 14.0425 3.90918H15.6092C18.9118 3.90852 21.9263 6.38837 21.9263 9.97679C21.9263 13.2574 18.9118 15.9396 15.6092 15.9396H14.0425Z" fill="#004C97"/>
</g>
<mask id="mask1_1984_16185" style="mask-type:luminance" maskUnits="userSpaceOnUse" x="7" y="3" width="14" height="13">
<path d="M7.94922 3.90967H20.3238V15.9397H7.94922V3.90967Z" fill="white"/>
</mask>
<g mask="url(#mask1_1984_16185)">
<path fill-rule="evenodd" clip-rule="evenodd" d="M14.0425 15.9396C10.7002 15.9548 7.94922 13.259 7.94922 9.97679C7.94922 6.3897 10.7002 3.90852 14.0425 3.90918H14.1302C17.4325 3.90852 20.3238 6.38837 20.3238 9.97679C20.3238 13.2574 17.4325 15.9396 14.1302 15.9396H14.0425Z" fill="#004C97"/>
</g>
<path fill-rule="evenodd" clip-rule="evenodd" d="M14.0565 4.40723C11.0022 4.40822 8.52734 6.87282 8.52734 9.91425C8.52734 12.955 11.0022 15.4193 14.0565 15.4196C17.111 15.4196 19.5862 12.955 19.5872 9.91425C19.5862 6.87248 17.1107 4.40789 14.0565 4.40723Z" fill="#FEFEFE"/>
<path fill-rule="evenodd" clip-rule="evenodd" d="M12.8005 13.1703V6.65691C11.4861 7.16111 10.5541 8.42757 10.5508 9.91429C10.5541 11.4003 11.4864 12.6675 12.8005 13.1703ZM17.5618 9.91429C17.5592 8.42691 16.6259 7.15879 15.3101 6.65625V13.172C16.6259 12.6688 17.5595 11.402 17.5618 9.91429Z" fill="#004C97"/>
</svg>
