<svg width="30" height="14" viewBox="0 0 30 14" fill="none" xmlns="http://www.w3.org/2000/svg">
<rect width="30" height="20" rx="4" fill="#FAE100"/>
<path d="M8.58686 12.0934C8.58545 12.0708 8.58474 12.0447 8.58474 12.0186C8.58474 11.6407 8.7582 11.303 9.02967 11.0816L9.03179 11.0802C9.35544 10.8588 9.75595 10.7262 10.1868 10.7262C10.2354 10.7262 10.2841 10.7277 10.332 10.7312H10.3257H11.1754V10.4506C11.1754 9.7723 10.8761 9.43316 10.2777 9.43316C10.062 9.43457 9.85396 9.46418 9.65582 9.51706L9.67274 9.51283C9.44851 9.56924 9.2546 9.63763 9.06986 9.72223L9.09172 9.71307L8.87525 9.19202C9.07903 9.07569 9.31525 8.97839 9.56345 8.91211L9.5846 8.90718C9.80671 8.84513 10.0613 8.80847 10.3243 8.80706H10.325C11.362 8.80706 11.8802 9.36007 11.8798 10.4661V13.2708H11.3347L11.2466 12.79C11.0456 12.9543 10.8136 13.0925 10.5633 13.1926L10.5457 13.1989C10.3363 13.2863 10.093 13.3392 9.83774 13.3435H9.83633C9.8053 13.3463 9.76934 13.3484 9.73338 13.3484C9.09736 13.3484 8.58121 12.833 8.58121 12.1963C8.58121 12.1604 8.58263 12.1244 8.58615 12.0891V12.0934H8.58686ZM9.97101 12.7505C10.0831 12.7498 10.1917 12.735 10.2954 12.7082L10.2862 12.7103C10.4159 12.6786 10.5245 12.6426 10.6303 12.6003L10.6134 12.6067C10.7318 12.5601 10.8327 12.508 10.9279 12.4459L10.9208 12.4501C11.0167 12.3888 11.1006 12.3239 11.1775 12.2527L11.1761 12.2541V11.2283H10.4096C10.3757 11.2254 10.337 11.224 10.2975 11.224C10.0253 11.224 9.77075 11.3002 9.55358 11.4327L9.55992 11.4292C9.39492 11.566 9.29057 11.7712 9.29057 12.0003C9.29057 12.0222 9.29127 12.0433 9.29339 12.0652V12.0624C9.28916 12.0891 9.28633 12.1209 9.28633 12.1526C9.28633 12.4861 9.5571 12.7568 9.89062 12.7568C9.91883 12.7568 9.94703 12.7547 9.97453 12.7512L9.97101 12.7505ZM13.9303 13.2715H13.1927V7.07753L13.9303 6.91748V13.2715ZM15.9018 8.77604L16.4793 9.19273L15.0613 10.9716L16.7035 12.943L16.1345 13.3836L14.1954 11.0111L15.9018 8.77604ZM17.3557 12.0934C17.3543 12.0708 17.3536 12.0454 17.3536 12.0186C17.3536 11.6407 17.5271 11.303 17.7985 11.0809L17.8007 11.0795C18.125 10.8581 18.5248 10.7255 18.9563 10.7255C19.005 10.7255 19.0537 10.727 19.1016 10.7305H19.0953H19.9449V10.4499C19.9449 9.77159 19.6457 9.43245 19.0473 9.43245C18.8315 9.43386 18.6228 9.46348 18.4247 9.51636L18.4416 9.51213C18.2174 9.56853 18.0242 9.63692 17.8394 9.72153L17.8606 9.71307L17.6441 9.19202C17.8479 9.07639 18.0834 8.9791 18.3323 8.91211L18.3535 8.90718C18.5756 8.84513 18.8308 8.80847 19.0938 8.80706C20.1299 8.80706 20.6489 9.36007 20.6493 10.4661V13.2708H20.1043L20.0161 12.79C19.8152 12.9543 19.5832 13.0925 19.3322 13.1926L19.3146 13.1989C19.1051 13.2863 18.8619 13.3392 18.6073 13.3435H18.6059C18.5749 13.3463 18.5389 13.3484 18.5023 13.3484C17.8662 13.3484 17.3508 12.833 17.3508 12.197C17.3508 12.1604 17.3522 12.1244 17.3557 12.0891V12.0934ZM18.7399 12.7505C18.852 12.7498 18.9606 12.735 19.0642 12.7082L19.0551 12.7103C19.1848 12.6786 19.2934 12.6426 19.3992 12.6003L19.3822 12.6067C19.5007 12.5601 19.6015 12.5072 19.6967 12.4459L19.6897 12.4501C19.7856 12.3888 19.8688 12.3239 19.9463 12.2527L19.9449 12.2541V11.2283H19.1792C19.1453 11.2254 19.1058 11.224 19.0663 11.224C18.7942 11.224 18.5396 11.3002 18.3232 11.4327L18.3295 11.4292C18.1645 11.566 18.0594 11.7705 18.0594 11.9996C18.0594 12.0215 18.0601 12.0433 18.0623 12.0645V12.0616C18.058 12.0884 18.0552 12.1202 18.0552 12.1519C18.0552 12.4854 18.326 12.7561 18.6595 12.7561C18.6877 12.7561 18.7159 12.754 18.7434 12.7505H18.7399ZM23.6158 8.81622C23.6433 8.81481 23.6757 8.81411 23.7082 8.81411C24.2398 8.81411 24.7179 9.04326 25.0486 9.40778L25.05 9.40919C25.3786 9.828 25.5767 10.3617 25.5767 10.9427C25.5767 11.0012 25.5746 11.059 25.5711 11.1162L25.5718 11.1084C25.5753 11.157 25.5774 11.2135 25.5774 11.2713C25.5774 11.8445 25.3807 12.3712 25.0507 12.7886L25.0549 12.7836C24.6847 13.1453 24.1778 13.3681 23.6186 13.3681C23.0594 13.3681 22.5525 13.1453 22.1816 12.7829L22.1823 12.7836C21.8544 12.3719 21.6555 11.8445 21.6555 11.2706C21.6555 11.2135 21.6577 11.157 21.6612 11.1013L21.6605 11.1091C21.657 11.0597 21.6548 11.0019 21.6548 10.9441C21.6548 10.3631 21.8544 9.828 22.1893 9.40496L22.1851 9.40989C22.5179 9.04396 22.9967 8.81481 23.5283 8.81481C23.5594 8.81481 23.5897 8.81552 23.62 8.81693H23.6158V8.81622ZM23.6158 9.40919C23.601 9.40848 23.5833 9.40778 23.5657 9.40778C23.2216 9.40778 22.917 9.5777 22.7323 9.83857L22.7302 9.8421C22.5334 10.1622 22.4164 10.55 22.4164 10.9653C22.4164 11.0153 22.4178 11.0654 22.4213 11.1147L22.4206 11.1084C22.4178 11.1514 22.4157 11.2015 22.4157 11.2522C22.4157 11.6605 22.5327 12.0412 22.7344 12.3634L22.7294 12.355C22.9424 12.613 23.2618 12.7759 23.6193 12.7759C23.9768 12.7759 24.2962 12.613 24.5071 12.3571L24.5085 12.355C24.7052 12.0412 24.8215 11.6605 24.8215 11.2522C24.8215 11.2015 24.8194 11.1514 24.8159 11.1021L24.8166 11.1084C24.8194 11.0654 24.8215 11.016 24.8215 10.966C24.8215 10.5507 24.7052 10.1629 24.5028 9.83293L24.5085 9.8421C24.3195 9.5777 24.0135 9.40778 23.668 9.40778C23.6489 9.40778 23.6306 9.40848 23.6123 9.40919H23.6158ZM5.16138 13.2715H4.42383V7.07753L5.16138 6.91748V13.2715ZM7.1329 8.77604L7.71039 9.19273L6.29169 10.9716L7.93462 12.943L7.36559 13.3836L5.42651 11.0111L7.1329 8.77604Z" fill="black"/>
</svg>
