<svg width="36" height="24" viewBox="0 0 36 24" fill="none" xmlns="http://www.w3.org/2000/svg">
<rect width="36" height="24" rx="4" fill="#1434CB"/>
<path d="M22.2956 7.21826C20.238 7.21826 18.3991 8.28409 18.3991 10.2533C18.3991 12.5116 21.6604 12.6675 21.6604 13.8021C21.6604 14.2797 21.1126 14.7074 20.1769 14.7074C18.8491 14.7074 17.8567 14.1099 17.8567 14.1099L17.4321 16.097C17.4321 16.097 18.5753 16.6017 20.0932 16.6017C22.3429 16.6017 24.1131 15.4835 24.1131 13.4807C24.1131 11.0944 20.8383 10.943 20.8383 9.89006C20.8383 9.5158 21.288 9.1058 22.2209 9.1058C23.2735 9.1058 24.1324 9.54035 24.1324 9.54035L24.548 7.62113C24.548 7.62113 23.6135 7.21826 22.2956 7.21826ZM3.46976 7.36312L3.41992 7.65282C3.41992 7.65282 4.28561 7.81113 5.06528 8.12697C6.06917 8.48911 6.14071 8.69995 6.30977 9.35476L8.15213 16.4523H10.6219L14.4267 7.36312H11.9626L9.51782 13.5429L8.5202 8.30462C8.4287 7.70511 7.96526 7.36312 7.39799 7.36312H3.46976ZM15.4176 7.36312L13.4846 16.4523H15.8343L17.7605 7.36309H15.4176V7.36312ZM28.5226 7.36312C27.956 7.36312 27.6558 7.66627 27.4356 8.19599L23.9931 16.4523H26.4572L26.9339 15.0762H29.9358L30.2258 16.4523H32.3999L30.5032 7.36312H28.5226ZM28.8431 9.81874L29.5735 13.2295H27.6167L28.8431 9.81874Z" fill="white"/>
</svg>
