<svg xmlns="http://www.w3.org/2000/svg" fill="none" overflow="visible" preserveAspectRatio="none" style="display:block" viewBox="0 0 258 138"><g clip-path="url(#a)"><path fill="#ff4a4a" d="m64.772 24.795 6.498-2.61q2.266 14.011 4.064 18.62C79.7 51.997 85.395 51.96 86.759 57.788q1.363 5.83.243 15.608l-8.361.926q2.53-4.431 1.15-12.038c-1.38-7.604-7.447-8.648-11.517-19.135q-4.07-10.492-3.502-18.355"/><path fill="#ffd600" d="m142.36 71.118 2.605.195q-2.508 5.558-3.007 7.575c-1.215 4.895.556 5.891-.357 8.283q-.916 2.386-3.499 5.785l-2.796-1.147q1.798-1.18 3.111-4.225c1.315-3.043-.32-4.508.822-9.09.764-3.058 1.804-5.514 3.121-7.376"/><path fill="#00b4ff" d="m159.377 4.068 4.915.222c-8.234 15.166-13.04 24.128-14.408 26.889-4.996 10.053-14.929 11.697-17.985 16.622q-3.054 4.924-8.794 13.782l-3.609-3.379a122 122 0 0 0 9.849-12.739c4.184-6.289 13.205-7.348 17.896-16.765a3829 3829 0 0 0 12.134-24.634z"/><path fill="#a92dff" d="m238.438 28.755-3.256-6.365q-6.864 7.942-9.775 9.568c-10.149 5.672-16.295 4.94-18.607 6.081-10.845 5.344-7.149 17.978-12.098 21.382A575 575 0 0 0 181 69.26l4.971 3.66a540 540 0 0 0 13.496-9.99c6.148-4.714 2.183-16.189 12.33-21.211 4.528-2.239 9.911-.775 16.328-3.887q3.177-1.541 10.313-9.077"/><path fill="#39ff27" d="M205.895 88.787c-13.975 4.44-18.261.685-23.484 3.307q-5.221 2.622-15.768 7.72l-1.093-4.08a185 185 0 0 0 13.681-5.682c6.911-3.192 16.705.77 25.699-4.867.032.117 2.077 3.248.965 3.602M39.426 46.718c11.033 9.657 10.04 15.268 14.988 18.379q4.947 3.11 14.77 9.493l-2.926 3.047a185 185 0 0 0-11.944-8.762c-6.31-4.26-7.99-14.69-17.47-19.467.084-.087 1.704-3.458 2.582-2.69"/><path fill="#ffd600" d="m248.439 128.053-1.445 5.79c-10.249-9.693-16.985-14.179-20.219-13.458-11.776 2.633-17.095-9.175-23.09-8.707-4.001.318-9.622.65-16.874.997l1.991-7.98q5.75 2.203 13.515 1.984c7.764-.223 14.886 10.3 25.918 7.855q11.034-2.448 20.204 13.519"/><path fill="#00b4ff" d="M161.883 79.557a3.175 3.175 0 1 0 5.113 3.765 3.175 3.175 0 0 0-5.113-3.765"/><path fill="#ffd600" d="M132.883 13.557a3.175 3.175 0 1 0 5.113 3.765 3.175 3.175 0 0 0-5.113-3.765"/><path fill="#ff4a4a" d="M157.883 47.557a3.175 3.175 0 1 0 5.113 3.765 3.175 3.175 0 0 0-5.113-3.765m55 17a3.175 3.175 0 1 0 5.113 3.765 3.175 3.175 0 0 0-5.113-3.765"/><path fill="#39ff27" d="M103.883 59.557a3.175 3.175 0 1 0 5.113 3.765 3.175 3.175 0 0 0-5.113-3.765"/><path fill="#a92dff" d="M188.883 126.557a3.175 3.175 0 0 0 3.034 5.023 3.176 3.176 0 1 0-3.034-5.023m-163-65a3.176 3.176 0 1 0 5.115 3.767 3.176 3.176 0 0 0-5.115-3.767"/><path fill="#00b4ff" d="M171.761 142.391h.001q-2.737-1.917-5.136-5.982c-2.407-4.065-1.192-6.237-3.339-8.696q-2.15-2.457-4.256-2.849l2.451-2.361c2.335 1.505 4.028 2.916 5.07 4.238 1.569 1.979.094 3.744 2.657 8.09q1.05 1.788 5.081 6.229l-2.528 1.331.002.001z"/></g><defs><clipPath id="a"><path fill="#fff" d="M0 0h258v138H0z"/></clipPath></defs></svg>