<svg xmlns="http://www.w3.org/2000/svg" width="82" height="82" fill="none" viewBox="0 0 82.255 82.255"><path fill="#ff4a4a" d="M78.47 31.668q.976 3.849-9.341 21.072a4.47 4.47 0 0 1-2.74 2.038l-40.98 10.38a4.475 4.475 0 0 1-5.436-3.239l-7.347-29.005a4.475 4.475 0 0 1 3.239-5.436l40.98-10.381a4.47 4.47 0 0 1 3.38.488q17.27 10.233 18.245 14.083m-16.955 4.296a5.832 5.832 0 0 0-11.422.592 5.83 5.83 0 1 0 11.421-.593"/><path fill="#9a0021" d="M46.574 45.724a2.75 2.75 0 0 1-1.659-.047 3.27 3.27 0 0 1-1.399-.977q-.6-.7-.895-1.737l1.852-.496q.195.633.631.935.435.295.895.172a1 1 0 0 0 .574-.402q.216-.306.262-.767.045-.467-.106-1.015a2.7 2.7 0 0 0-.42-.936 1.57 1.57 0 0 0-.614-.533 1 1 0 0 0-.705-.066q-.344.087-.593.396a1.45 1.45 0 0 0-.298.74l-1.81-.012-1.33-6.337 5.072-1.358.605 2.257-3.501.937.55 2.781.046-.012q.069-.533.421-.962.355-.434.915-.584a1.93 1.93 0 0 1 1.396.147q.69.331 1.238 1.1.552.767.848 1.87.32 1.194.18 2.22-.135 1.023-.685 1.735-.547.704-1.47.951m-9.411 2.35-3.102-11.585 5.396-1.445.609 2.274-3.485.933.636 2.376 3.142-.841.61 2.28-3.142.84 1.247 4.656zm-6.357 1.703-3.102-11.585 5.395-1.445.61 2.274-3.486.933.636 2.376 3.142-.841.61 2.28-3.141.84 1.246 4.656zm-2.666-5.495q.51 1.912.365 3.376t-.818 2.383a3.07 3.07 0 0 1-1.73 1.203 3.06 3.06 0 0 1-2.104-.182q-1.04-.468-1.895-1.657-.855-1.196-1.364-3.102-.513-1.913-.37-3.375.145-1.464.814-2.382a3.08 3.08 0 0 1 1.733-1.204 3.07 3.07 0 0 1 2.1.178q1.041.46 1.899 1.655.857 1.196 1.37 3.107m-1.954.523q-.303-1.131-.732-1.853-.425-.723-.942-1.015a1.4 1.4 0 0 0-1.084-.14 1.4 1.4 0 0 0-.869.663q-.3.51-.312 1.35-.007.84.296 1.97.302 1.132.728 1.855.428.72.945 1.014.517.291 1.084.14.57-.153.87-.663.3-.511.308-1.35.01-.84-.292-1.971"/></svg>