<svg width="25" height="25" viewBox="0 0 24.6875 24.6875" fill="none" xmlns="http://www.w3.org/2000/svg">
<path d="M23.552 9.50451C23.747 10.2747 22.8125 12.383 20.748 15.829C20.5655 16.1336 20.2698 16.3535 19.9256 16.4406L7.62623 19.556C7.28097 19.6434 6.91511 19.5902 6.60914 19.4079C6.30316 19.2256 6.08213 18.9292 5.99466 18.584L3.78955 9.87861C3.74623 9.70763 3.73701 9.52979 3.76242 9.35525C3.78783 9.18071 3.84737 9.01289 3.93765 8.86136C4.02792 8.70983 4.14716 8.57757 4.28856 8.47213C4.42995 8.36669 4.59074 8.29014 4.76172 8.24684L17.0612 5.13124C17.4053 5.04408 17.77 5.09676 18.0755 5.27775C21.5315 7.32531 23.3569 8.73432 23.552 9.50451ZM18.4627 10.7938C18.4063 10.5711 18.3065 10.3616 18.1691 10.1774C18.0318 9.99319 17.8594 9.83784 17.662 9.72023C17.4646 9.60263 17.2459 9.52505 17.0185 9.49195C16.7911 9.45884 16.5594 9.47085 16.3366 9.52729C16.1139 9.58373 15.9044 9.6835 15.7202 9.82089C15.536 9.95828 15.3806 10.1306 15.263 10.328C15.1454 10.5255 15.0679 10.7441 15.0347 10.9715C15.0016 11.1989 15.0136 11.4306 15.0701 11.6534C15.1265 11.8762 15.2263 12.0856 15.3637 12.2698C15.5011 12.454 15.6735 12.6093 15.8709 12.7269C16.0684 12.8445 16.287 12.9221 16.5144 12.9552C16.7418 12.9882 16.9735 12.9762 17.1963 12.9198C17.4191 12.8633 17.6285 12.7635 17.8127 12.6261C17.9969 12.4887 18.1522 12.3164 18.2698 12.1189C18.3874 11.9215 18.465 11.7028 18.4981 11.4754C18.5311 11.248 18.5191 11.0163 18.4627 10.7935L18.4627 10.7938Z" fill="#FF4A4A"/>
</svg>
