<svg xmlns="http://www.w3.org/2000/svg" width="60" height="40" fill="none" viewBox="0 0 60 40"><rect width="59" height="39" x=".5" y=".5" fill="#fff" rx="7.5"/><rect width="59" height="39" x=".5" y=".5" stroke="#eee" rx="7.5"/><path fill="#fff" d="M49.463 27.952A6.057 6.057 0 0 1 43.413 34H10.5V10.048A6.057 6.057 0 0 1 16.55 4h32.913z"/><path fill="url(#a)" d="M38.746 22.666h2.5c.072 0 .238-.023.31-.023.476-.096.88-.526.88-1.122 0-.573-.404-1.003-.88-1.122-.072-.024-.215-.024-.31-.024h-2.5z"/><path fill="url(#b)" d="M40.96 6.84a4.34 4.34 0 0 0-4.334 4.345v4.511h6.12c.144 0 .31 0 .43.024 1.38.072 2.405.788 2.405 2.029 0 .979-.69 1.814-1.977 1.981v.048c1.405.095 2.477.883 2.477 2.1 0 1.313-1.19 2.172-2.763 2.172h-6.716v8.832h6.36a4.34 4.34 0 0 0 4.334-4.344V6.84z"/><path fill="url(#c)" d="M42.127 18.036c0-.573-.405-.955-.88-1.027-.048 0-.168-.024-.239-.024h-2.263v2.1h2.263c.071 0 .214 0 .238-.023.476-.072.881-.454.881-1.026"/><path fill="url(#d)" d="M17.001 6.84a4.34 4.34 0 0 0-4.334 4.345v10.717c1.215.597 2.477.979 3.739.979 1.5 0 2.31-.907 2.31-2.148v-5.06h3.715v5.036c0 1.957-1.214 3.556-5.334 3.556-2.501 0-4.454-.549-4.454-.549v9.142h6.359a4.34 4.34 0 0 0 4.334-4.344V6.841z"/><path fill="url(#e)" d="M28.98 6.84a4.34 4.34 0 0 0-4.334 4.345v5.68c1.096-.93 3.001-1.527 6.073-1.383 1.644.071 3.406.525 3.406.525v1.837c-.881-.453-1.929-.859-3.286-.954-2.334-.167-3.74.978-3.74 2.983 0 2.03 1.406 3.175 3.74 2.984 1.357-.095 2.405-.525 3.286-.955v1.838s-1.739.454-3.406.525c-3.072.144-4.977-.453-6.073-1.384v10.025h6.36a4.34 4.34 0 0 0 4.334-4.344V6.84z"/><defs><linearGradient id="a" x1="36.622" x2="47.324" y1="21.524" y2="21.524" gradientUnits="userSpaceOnUse"><stop stop-color="#007940"/><stop offset=".229" stop-color="#00873f"/><stop offset=".743" stop-color="#40a737"/><stop offset="1" stop-color="#5cb531"/></linearGradient><linearGradient id="b" x1="36.622" x2="47.325" y1="19.851" y2="19.851" gradientUnits="userSpaceOnUse"><stop stop-color="#007940"/><stop offset=".229" stop-color="#00873f"/><stop offset=".743" stop-color="#40a737"/><stop offset="1" stop-color="#5cb531"/></linearGradient><linearGradient id="c" x1="36.622" x2="47.324" y1="18.032" y2="18.032" gradientUnits="userSpaceOnUse"><stop stop-color="#007940"/><stop offset=".229" stop-color="#00873f"/><stop offset=".743" stop-color="#40a737"/><stop offset="1" stop-color="#5cb531"/></linearGradient><linearGradient id="d" x1="12.662" x2="23.53" y1="19.851" y2="19.851" gradientUnits="userSpaceOnUse"><stop stop-color="#1f286f"/><stop offset=".475" stop-color="#004e94"/><stop offset=".826" stop-color="#0066b1"/><stop offset="1" stop-color="#006fbc"/></linearGradient><linearGradient id="e" x1="24.585" x2="35.14" y1="19.851" y2="19.851" gradientUnits="userSpaceOnUse"><stop stop-color="#6c2c2f"/><stop offset=".173" stop-color="#882730"/><stop offset=".573" stop-color="#be1833"/><stop offset=".859" stop-color="#dc0436"/><stop offset="1" stop-color="#e60039"/></linearGradient></defs></svg>