<svg xmlns="http://www.w3.org/2000/svg" width="60" height="40" fill="none" viewBox="0 0 60 40"><rect width="60" height="40" fill="#fae100" rx="8"/><path fill="#000" d="M17.172 24.187a2.41 2.41 0 0 1 .886-2.023l.004-.004a4.1 4.1 0 0 1 2.6-.698h-.012 1.7v-.56q-.001-2.036-1.796-2.036a5 5 0 0 0-1.244.168l.034-.008a7 7 0 0 0-1.206.419l.044-.019-.433-1.042c.408-.233.88-.427 1.376-.56l.043-.01a5.7 5.7 0 0 1 1.48-.2q3.112 0 3.11 3.318v5.61h-1.09l-.176-.962a5.3 5.3 0 0 1-1.367.805l-.035.013c-.419.175-.905.28-1.416.289h-.003a2.304 2.304 0 0 1-2.5-2.509zM19.94 25.5q.338-.003.65-.085l-.02.005c.26-.064.478-.136.69-.22l-.035.012c.237-.093.439-.197.63-.321l-.015.008c.192-.122.36-.252.514-.395l-.003.003v-2.052h-1.533a2.85 2.85 0 0 0-1.712.409l.012-.007a1.48 1.48 0 0 0-.533 1.272v-.005a1.21 1.21 0 0 0 1.362 1.378zm7.919 1.042h-1.475V14.155l1.475-.32zm3.943-8.99 1.155.832-2.836 3.558 3.285 3.943-1.139.881-3.878-4.745zm2.908 6.634a2.42 2.42 0 0 1 .886-2.025l.004-.003a4.1 4.1 0 0 1 2.602-.698h-.013 1.7v-.56q0-2.035-1.796-2.035a5 5 0 0 0-1.245.168l.034-.009c-.449.113-.835.25-1.205.42l.043-.018-.433-1.042a6 6 0 0 1 1.376-.56l.043-.01a5.7 5.7 0 0 1 1.48-.2q3.109 0 3.111 3.318v5.61h-1.09l-.176-.962a5.2 5.2 0 0 1-1.368.805l-.035.013c-.42.175-.906.28-1.415.289h-.003a2.303 2.303 0 0 1-2.5-2.509zm2.768 1.314q.337-.003.649-.085l-.018.005c.26-.064.476-.136.688-.22l-.034.012a3.5 3.5 0 0 0 .629-.321l-.014.008a3.6 3.6 0 0 0 .513-.395l-.003.003v-2.052h-1.531a2.84 2.84 0 0 0-1.712.409l.012-.007a1.48 1.48 0 0 0-.534 1.27v-.005a1.21 1.21 0 0 0 1.362 1.378zm9.752-7.869a3.61 3.61 0 0 1 2.866 1.183l.003.003a4.96 4.96 0 0 1 1.042 3.414l.001-.015a4.87 4.87 0 0 1-1.042 3.36l.008-.01a4.1 4.1 0 0 1-2.872 1.17 4.1 4.1 0 0 1-2.874-1.171l.001.001a4.85 4.85 0 0 1-1.042-3.364l-.002.015a4.94 4.94 0 0 1 1.058-3.408l-.008.01a3.62 3.62 0 0 1 2.87-1.186h-.009zm0 1.186-.1-.002a2.04 2.04 0 0 0-1.667.861l-.004.007a4.3 4.3 0 0 0-.618 2.546l-.001-.013a4.18 4.18 0 0 0 .628 2.51l-.01-.017a2.3 2.3 0 0 0 3.555.004l.003-.004a4.15 4.15 0 0 0 .614-2.506l.002.013a4.3 4.3 0 0 0-.628-2.55l.011.017a2.06 2.06 0 0 0-1.68-.868l-.112.002zm-36.909 7.725H8.846V14.155l1.475-.32zm3.943-8.99 1.155.832-2.837 3.558 3.286 3.943-1.138.881-3.878-4.745z"/></svg>