<svg width="60" height="40" viewBox="0 0 60 40" fill="none" xmlns="http://www.w3.org/2000/svg">
<rect width="60" height="40" rx="8" fill="black"/>
<path d="M24.2978 29.4737C29.5984 29.4737 33.8955 25.1649 33.8955 19.8496C33.8955 14.5344 29.5984 10.2256 24.2978 10.2256C18.9971 10.2256 14.7 14.5344 14.7 19.8496C14.7 25.1649 18.9971 29.4737 24.2978 29.4737Z" fill="#EB001B"/>
<path d="M35.8906 29.4737C41.1913 29.4737 45.4883 25.1649 45.4883 19.8496C45.4883 14.5344 41.1913 10.2256 35.8906 10.2256C30.5899 10.2256 26.2928 14.5344 26.2928 19.8496C26.2928 25.1649 30.5899 29.4737 35.8906 29.4737Z" fill="#F79E1B"/>
<path d="M30.0918 12.1641C32.4027 13.92 33.8907 16.7026 33.8907 19.8307C33.8907 22.9587 32.4027 25.7462 30.0918 27.5021C27.7808 25.7462 26.2928 22.9635 26.2928 19.8307C26.2928 16.6978 27.7856 13.92 30.0918 12.1641Z" fill="#FF5F00"/>
</svg>
