<svg xmlns="http://www.w3.org/2000/svg" width="60" height="40" fill="none" viewBox="0 0 60 40"><rect width="60" height="40" fill="#000" rx="8"/><path fill="#eb001b" d="M24.298 29.474c5.3 0 9.598-4.31 9.598-9.624 0-5.316-4.298-9.624-9.598-9.624S14.7 14.534 14.7 19.85c0 5.315 4.297 9.624 9.598 9.624"/><path fill="#f79e1b" d="M35.89 29.474c5.301 0 9.598-4.31 9.598-9.624 0-5.316-4.297-9.624-9.597-9.624-5.301 0-9.598 4.308-9.598 9.624 0 5.315 4.297 9.624 9.598 9.624"/><path fill="#ff5f00" d="M30.092 12.164a9.6 9.6 0 0 1 3.799 7.667 9.62 9.62 0 0 1-3.8 7.671 9.6 9.6 0 0 1-3.798-7.671 9.61 9.61 0 0 1 3.799-7.667"/></svg>