<svg xmlns="http://www.w3.org/2000/svg" width="60" height="40" fill="none" viewBox="0 0 60 40"><rect width="60" height="40" fill="#1434cb" rx="8"/><path fill="#fff" d="M37.16 12.03c-3.43 0-6.495 1.777-6.495 5.059 0 3.764 5.436 4.023 5.436 5.914 0 .796-.913 1.51-2.473 1.51-2.213 0-3.867-.997-3.867-.997l-.707 3.312s1.905.841 4.435.841c3.75 0 6.7-1.863 6.7-5.201 0-3.977-5.458-4.23-5.458-5.985 0-.623.75-1.307 2.304-1.307 1.754 0 3.186.724 3.186.724l.692-3.198s-1.557-.672-3.753-.672m-31.377.242-.083.482s1.443.264 2.742.79c1.673.604 1.793.956 2.074 2.047l3.071 11.83h4.116l6.342-15.15h-4.107l-4.075 10.3-1.662-8.73c-.153-1-.925-1.57-1.87-1.57zm19.913 0L22.474 27.42h3.917l3.21-15.148zm21.842 0c-.944 0-1.445.505-1.812 1.388L39.99 27.42h4.106l.795-2.293h5.003l.483 2.293H54l-3.161-15.148zm.534 4.092 1.217 5.685h-3.261z"/></svg>