<svg xmlns="http://www.w3.org/2000/svg" width="42" height="15" fill="none" viewBox="0 0 42 15"><path fill="#000" d="M2.813 14.744H0L5.12.2h3.254L13.5 14.744h-2.81L6.804 3.182H6.69zm.092-5.703h7.67v2.117h-7.67zm24.279-3.934h-2.656a3.3 3.3 0 0 0-.42-1.158 3.1 3.1 0 0 0-.76-.867 3.2 3.2 0 0 0-1.036-.532 4 4 0 0 0-1.243-.185q-1.186 0-2.102.597-.917.589-1.435 1.733-.518 1.136-.518 2.777 0 1.668.518 2.812.526 1.136 1.435 1.719.916.575 2.095.575a4.2 4.2 0 0 0 1.221-.17 3.3 3.3 0 0 0 1.03-.519q.462-.34.774-.838.32-.497.44-1.136l2.657.014a5.7 5.7 0 0 1-.646 1.946 5.7 5.7 0 0 1-1.286 1.605q-.795.69-1.86 1.08-1.066.383-2.366.383-1.918 0-3.423-.887-1.506-.888-2.372-2.564-.867-1.677-.867-4.02 0-2.352.874-4.02.873-1.677 2.38-2.564Q19.122 0 21.025 0q1.215 0 2.259.341a5.8 5.8 0 0 1 1.86 1.001q.818.654 1.343 1.606.533.944.696 2.159m2.413 9.637V.2h2.635v6.158h6.74V.199h2.642v14.545h-2.642V8.565h-6.74v6.18z"/></svg>