<svg xmlns="http://www.w3.org/2000/svg" width="200" height="200" fill="none" viewBox="0 0 200 200"><rect width="199" height="199" x=".5" y=".5" fill="#fff" rx="39.5"/><rect width="199" height="199" x=".5" y=".5" stroke="#8d8d8d" rx="39.5"/><path fill="#fff" fill-rule="evenodd" stroke="#c4c6c8" stroke-width=".115" d="M170.714 36.617c0-3.653-2.996-6.617-6.687-6.617H35.699C31.989 30 29 32.964 29 36.617v126.762c0 3.678 2.99 6.621 6.699 6.621h128.328c3.691 0 6.687-2.943 6.687-6.621z" clip-rule="evenodd"/><path fill="#00422b" fill-rule="evenodd" d="m78.41 163.318 76.141.007c5.131 0 9.356-4.167 9.356-9.237l.019-75.256z" clip-rule="evenodd"/><path fill="#af0b35" fill-rule="evenodd" d="M163.945 45.95c0-5.18-4.237-9.249-9.369-9.249h-28.02L35.794 126.48v27.566c0 5.096 4.104 9.269 9.354 9.269l27.561.006 91.225-90.134z" clip-rule="evenodd"/><path fill="#00422b" fill-rule="evenodd" d="M45.173 36.678c-5.247 0-9.365 4.058-9.365 9.243l-.012 74.813 85.06-84.036z" clip-rule="evenodd"/><path fill="#ffdc00" fill-rule="evenodd" stroke="#9d1d26" stroke-width=".115" d="M81.644 162.037s4.85-1.939 9.358-2.708c1.705-.379 11.589-2.676 11.08-12.721-.121-2.614-4.066.709-4.066.709s-7.815 1.087-11.074 3.092c-1.625.942-5.259 4.925-5.298 11.628Z" clip-rule="evenodd"/><path fill="#ffdc00" fill-rule="evenodd" stroke="#9d1d26" stroke-width=".115" d="M115.184 129.848s1.837 11.378-7.314 14.997c-3.892 1.594-9.723 3.383-10.625 4.292 0 0-2.081-7.911 4.683-12.663 2.171-1.545 6.624-3.028 9.485-4.058 2.762-.999 3.771-2.568 3.771-2.568Z" clip-rule="evenodd"/><path fill="#ffdc00" fill-rule="evenodd" stroke="#9d1d26" stroke-width=".115" d="M119.911 115.777s5.709 6.895-.693 14.796c-1.375 1.823-8.223 6.209-9.945 8.252 0 0-3.416-7.347.703-13.327 1.128-1.701 5.027-4.852 6.739-6.098 1.717-1.263 3.196-3.623 3.196-3.623Z" clip-rule="evenodd"/><path fill="#ffdc00" fill-rule="evenodd" stroke="#9d1d26" stroke-width=".115" d="M112.99 100.758s-5.346 3.083-1.796 11.879c.342 1.02 4.488 8.343 4.624 10.372 0 0 7.408-4.539 4.411-13.794-.46-1.698-3.914-7.096-7.239-8.457Z" clip-rule="evenodd"/><path fill="#ffdc00" fill-rule="evenodd" stroke="#9d1d26" stroke-width=".115" d="M99.337 88.756s-1.834 5.548 2.518 10.765c1.834 2.127 10.06 4.622 13.607 7.218 0 0 4.339-14.008-16.125-17.983Z" clip-rule="evenodd"/><path fill="#ffdc00" fill-rule="evenodd" stroke="#9d1d26" stroke-width=".115" d="M87.949 78.832s17.793 1.263 15.401 17.36c0 0-4.024-2.491-7.304-3.794-1.426-.699-8.525-2.916-8.097-9.511.118-1.813 0-4.055 0-4.055Z" clip-rule="evenodd"/><path fill="#ffdc00" fill-rule="evenodd" stroke="#9d1d26" stroke-width=".115" d="M88.25 63.536s-6.627 4.968-3.327 13.32c.591 1.584 4.021 6.12 5.841 6.913 0 0 2.065-5.781 3.325-9.959.463-1.7 1.723-8.356-2.41-10.956-2.176-1.235-3.429.682-3.429.682Z" clip-rule="evenodd"/><path fill="#ffdc00" fill-rule="evenodd" stroke="#9d1d26" stroke-width=".115" d="M86.879 68.48s-5.135-14.92 13.267-18.968c0 0 4.11 5.76-2.622 11.743-1.82 1.695-9.48 5.534-10.645 7.225Z" clip-rule="evenodd"/><path fill="#ffdc00" fill-rule="evenodd" stroke="#9d1d26" stroke-width=".115" d="M115.578 38.169s-19.09-.438-18.287 16.457c0 0 11.954-3.631 15.174-7.133 1.592-1.82 3.325-5.241 3.113-9.324Z" clip-rule="evenodd"/></svg>