<svg width="200" height="200" viewBox="0 0 200 200" fill="none" xmlns="http://www.w3.org/2000/svg">
<rect x="0.5" y="0.5" width="199" height="199" rx="39.5" fill="white"/>
<rect x="0.5" y="0.5" width="199" height="199" rx="39.5" stroke="#8D8D8D"/>
<path fill-rule="evenodd" clip-rule="evenodd" d="M170.714 36.617C170.714 32.964 167.718 30 164.027 30H35.6988C31.9895 30 29 32.964 29 36.617V163.379C29 167.057 31.9895 170 35.6988 170H164.027C167.718 170 170.714 167.057 170.714 163.379V36.617Z" fill="white" stroke="#C4C6C8" stroke-width="0.114674"/>
<path fill-rule="evenodd" clip-rule="evenodd" d="M78.4094 163.318L154.551 163.325C159.682 163.325 163.907 159.158 163.907 154.088L163.926 78.832L78.4094 163.318Z" fill="#00422B"/>
<path fill-rule="evenodd" clip-rule="evenodd" d="M163.945 45.9497C163.945 40.7699 159.708 36.7012 154.576 36.7012H126.556L35.7942 126.48V154.046C35.7942 159.142 39.8983 163.315 45.1479 163.315L72.7094 163.321L163.934 73.1872L163.945 45.9497Z" fill="#AF0B35"/>
<path fill-rule="evenodd" clip-rule="evenodd" d="M45.173 36.6777C39.9262 36.6777 35.8082 40.7355 35.8082 45.9208L35.7957 120.734L120.856 36.6984L45.173 36.6777Z" fill="#00422B"/>
<path fill-rule="evenodd" clip-rule="evenodd" d="M81.644 162.037C81.644 162.037 86.4935 160.098 91.0022 159.329C92.7072 158.95 102.591 156.653 102.082 146.608C101.961 143.994 98.0163 147.317 98.0163 147.317C98.0163 147.317 90.2011 148.404 86.9425 150.409C85.3174 151.351 81.6831 155.334 81.644 162.037Z" fill="#FFDC00" stroke="#9D1D26" stroke-width="0.114674"/>
<path fill-rule="evenodd" clip-rule="evenodd" d="M115.184 129.848C115.184 129.848 117.021 141.226 107.87 144.845C103.978 146.439 98.1471 148.228 97.2449 149.137C97.2449 149.137 95.1636 141.226 101.928 136.474C104.099 134.929 108.552 133.446 111.413 132.416C114.175 131.417 115.184 129.848 115.184 129.848Z" fill="#FFDC00" stroke="#9D1D26" stroke-width="0.114674"/>
<path fill-rule="evenodd" clip-rule="evenodd" d="M119.911 115.777C119.911 115.777 125.62 122.672 119.218 130.573C117.843 132.396 110.995 136.782 109.273 138.825C109.273 138.825 105.857 131.478 109.976 125.498C111.104 123.797 115.003 120.646 116.715 119.4C118.432 118.137 119.911 115.777 119.911 115.777Z" fill="#FFDC00" stroke="#9D1D26" stroke-width="0.114674"/>
<path fill-rule="evenodd" clip-rule="evenodd" d="M112.99 100.758C112.99 100.758 107.644 103.841 111.194 112.637C111.536 113.657 115.682 120.98 115.818 123.009C115.818 123.009 123.226 118.47 120.229 109.215C119.769 107.517 116.315 102.119 112.99 100.758Z" fill="#FFDC00" stroke="#9D1D26" stroke-width="0.114674"/>
<path fill-rule="evenodd" clip-rule="evenodd" d="M99.3373 88.7559C99.3373 88.7559 97.5027 94.304 101.855 99.5209C103.689 101.648 111.915 104.143 115.462 106.739C115.462 106.739 119.801 92.7312 99.3373 88.7559Z" fill="#FFDC00" stroke="#9D1D26" stroke-width="0.114674"/>
<path fill-rule="evenodd" clip-rule="evenodd" d="M87.949 78.832C87.949 78.832 105.742 80.0954 103.35 96.1928C103.35 96.1928 99.3257 93.7008 96.0464 92.3984C94.62 91.6992 87.5207 89.4824 87.949 82.8867C88.0673 81.0738 87.949 78.832 87.949 78.832Z" fill="#FFDC00" stroke="#9D1D26" stroke-width="0.114674"/>
<path fill-rule="evenodd" clip-rule="evenodd" d="M88.2501 63.5361C88.2501 63.5361 81.6229 68.504 84.9229 76.8564C85.5145 78.4398 88.9441 82.9754 90.7645 83.7685C90.7645 83.7685 92.8286 77.9879 94.0887 73.8103C94.552 72.1091 95.8121 65.4543 91.6791 62.8542C89.5032 61.6191 88.2501 63.5361 88.2501 63.5361Z" fill="#FFDC00" stroke="#9D1D26" stroke-width="0.114674"/>
<path fill-rule="evenodd" clip-rule="evenodd" d="M86.8788 68.4802C86.8788 68.4802 81.7436 53.5597 100.146 49.5117C100.146 49.5117 104.256 55.2714 97.5237 61.2552C95.7033 62.9504 88.0443 66.7886 86.8788 68.4802Z" fill="#FFDC00" stroke="#9D1D26" stroke-width="0.114674"/>
<path fill-rule="evenodd" clip-rule="evenodd" d="M115.578 38.169C115.578 38.169 96.4871 37.731 97.2911 54.6255C97.2911 54.6255 109.245 50.9948 112.465 47.4932C114.057 45.6732 115.79 42.2516 115.578 38.169Z" fill="#FFDC00" stroke="#9D1D26" stroke-width="0.114674"/>
</svg>
