<svg xmlns="http://www.w3.org/2000/svg" width="30" height="20" fill="none" viewBox="0 0 30 20"><g clip-path="url(#a)"><path fill="#012169" d="M0 0h30v20H0z"/><mask id="b" width="15" height="10" x="0" y="0" maskUnits="userSpaceOnUse" style="mask-type:luminance"><path fill="#fff" d="M0 0h15v10H0z"/></mask><g mask="url(#b)"><path fill="#000" d="m0 0 15 10zm15 0L0 10z"/><path fill="#fff" d="M15.335.894 9.177 5l6.158 4.105-.67 1.79L7.5 6.117.335 10.894l-.67-1.789L5.823 5-.335.894l.67-1.789L7.5 3.882l7.165-4.777z"/></g><mask id="c" width="15" height="10" x="0" y="0" maskUnits="userSpaceOnUse" style="mask-type:luminance"><path fill="#fff" d="M0 0v5h15v5zm15 0H7.5v10H0z"/></mask><g mask="url(#c)"><path fill="#000" d="m0 0 15 10zm15 0L0 10z"/><path fill="#e4002b" d="M15.224.596 8.618 5l6.606 4.404-.448 1.192L7.5 5.746l-7.276 4.85-.448-1.192L6.382 5-.224.596.224-.596 7.5 4.254l7.276-4.85z"/></g><path fill="#000" d="M7.5 0v10zM0 5h15z"/><path fill="#fff" d="M8.75 0v3.333H15v3.334H8.75V10h-2.5V6.667H0V3.333h6.25V0z"/><path fill="#000" d="M7.5 0v10zM0 5h15z"/><path fill="#e4002b" d="M8.25 0v4H15v2H8.25v4h-1.5V6H0V4h6.75V0z"/><path fill="#fff" d="m7.5 12 .434 1.799 1.325-.67-.784 1.574 1.219.965-1.412.163.194 1.872-.976-1.37-.976 1.37.194-1.872-1.411-.163 1.218-.965-.784-1.573 1.325.669zm15 3.238.207.857.63-.319-.373.75.58.459-.672.078.093.89-.465-.651-.465.652.093-.891-.672-.078.58-.46-.373-.749.63.319zm-3.75-7.917.207.857.63-.319-.373.75.58.459-.672.078.093.891-.465-.652-.465.652.093-.891-.672-.078.58-.46-.373-.749.63.319zm3.75-5.416.207.856.63-.318-.373.75.58.458-.672.078.093.891-.465-.652-.465.652.093-.89-.672-.079.58-.459-.373-.75.63.32zm3.334 4.083.206.857.631-.319-.373.75.58.459-.672.078.093.891-.465-.652-.465.652.092-.891-.672-.078.58-.46-.373-.749.631.319zM24 10l.163.534.432.042-.33.372.102.56-.367-.304-.367.303.103-.56-.33-.371.43-.042z"/></g><rect width="29.6" height="19.6" x=".2" y=".2" stroke="#8d8d8d" stroke-width=".4" rx="3.8"/><defs><clipPath id="a"><rect width="30" height="20" fill="#fff" rx="4"/></clipPath></defs></svg>