<svg xmlns="http://www.w3.org/2000/svg" width="200" height="200" fill="none" viewBox="0 0 200 200"><rect width="200" height="200" fill="#064caf" rx="40"/><g fill-rule="evenodd" clip-path="url(#a)" clip-rule="evenodd"><path fill="#fff" d="M59.026 76.52c10.052 1.37 11.698 6.622 12.133 10.485.453 4.057-1.499 7.92-5.835 10.402 5.714 1.584 8.377 4.251 9.607 6.993V76.353l20.936.083c20.916.991 26.723 14.478 26.825 23.259.093 8.42-6.195 21.258-24.782 22.508l-22.979.167v-7.688c-.924 1.88-2.34 3.353-3.763 4.455-2.599 2.029-6.297 2.816-9.599 3.15l-31.32.176L30 76.353zm-18.3 6.002v13.125l12.336.046c5.437-.278 6.945-3.788 6.935-6.474-.018-2.474-1.165-5.743-6.935-6.78zm45.19 33.633 6.9.083c14.952.037 17.494-10.476 17.531-16.793.047-7.605-4.244-17.035-17.532-16.877l-6.732-.093zm-45.143-14.237v14.366h16.08c6.88-.537 8.175-4.613 8.045-7.373-.138-3.14-2.34-6.567-8.211-7.16z"/><path fill="#ffb20c" d="M142.795 123.991c-15.035 0-27.195-10.949-27.195-24.491 0-13.551 12.16-24.5 27.195-24.5C157.84 75 170 85.949 170 99.5c0 13.542-12.16 24.491-27.205 24.491m15.84-24.658c0-10.402-7.018-18.803-15.692-18.803s-15.692 8.401-15.692 18.803 7.018 18.804 15.692 18.804 15.692-8.402 15.692-18.804"/></g><defs><clipPath id="a"><path fill="#fff" d="M30 75h140v49H30z"/></clipPath></defs></svg>