<svg xmlns="http://www.w3.org/2000/svg" width="200" height="200" fill="none" viewBox="0 0 200 200"><rect width="200" height="200" fill="#0064ff" rx="40"/><path fill="#fff" fill-rule="evenodd" d="M146 110.645c0 11.688-5.977 22.221-16.71 29.542L99.984 160 70.71 140.187C59.977 132.866 54 122.366 54 110.645c0-7.643 2.442-14.707 8.74-22.8L100.017 40l37.276 47.846c6.266 8.092 8.708 15.156 8.708 22.799M91.115 128.21l-18.991-20.712c-3.374-3.757-4.917-6.294-5.849-8.863-2.153 3.918-3.374 8.124-3.374 12.459 0 8.414 4.756 16.666 13.207 22.221l17.931 12.01v-7.064c0-4.496.129-6.615-2.924-10.051m8.901-3.308 20.084-21.9c4.756-5.073 5.688-7.931 5.688-10.95 0-2.858-.772-5.394-4.306-10.05l-21.466-27.295L78.55 82.002c-3.695 4.656-4.305 7.193-4.305 10.05 0 3.019.931 5.845 5.687 10.95zm37.115-13.808c0-4.367-1.221-8.573-3.374-12.459-.932 2.569-2.442 5.106-5.816 8.863l-19.024 20.712c-3.085 3.436-2.924 5.555-2.924 10.051v7.064l17.931-12.01c8.451-5.555 13.207-13.807 13.207-22.221" clip-rule="evenodd"/></svg>