<svg xmlns="http://www.w3.org/2000/svg" width="200" height="200" fill="none" viewBox="0 0 200 200"><rect width="200" height="200" fill="#6f5f5e" rx="40"/><path fill="#ffd400" d="M84.882 108.262c-3.135-3.229-6.912-8.46-9.254-16.053 0 0-.094-.283-.226-.283-.133 0-.284.32-.284.32-5.155 16.715-17.563 23.287-21.794 24.722-.227.076-.227.265-.227.359 2.153 5.893 5.42 11.237 9.519 15.827.094.056.227.132.453 0 13.296-7.592 20.888-22.399 21.889-24.476.094-.189 0-.322-.076-.416m30.161 0q.075 0 0 0c3.135-3.229 6.912-8.46 9.292-16.053 0 0 .094-.283.226-.283.152 0 .284.32.284.32 5.156 16.715 17.582 23.287 21.813 24.722.227.076.227.265.227.359-2.172 5.893-5.44 11.237-9.519 15.827-.094.056-.245.132-.472 0-13.334-7.592-20.888-22.399-21.889-24.476-.094-.189.038-.322.038-.416m9.028 35.241c-18.811-18.3-23.797-51.03-23.797-51.03s-.075-.547-.32-.547c-.227 0-.322.547-.322.547s-4.91 32.73-23.777 51.03c0 0-.189.189 0 .321 7.044 3.872 15.127 6.138 23.74 6.176h.642c8.612-.038 16.695-2.304 23.739-6.176.265-.132.095-.321.095-.321m2.02-86.176c-.283-.151-.283.226-.283.226.057 5.893.831 38.47 23.551 48.405.226.094.283-.038.283-.095.227-1.926.359-3.852.359-5.835-.038-18.13-9.613-33.92-23.91-42.701m-52.163 0c.265-.151.265.226.265.226-.038 5.893-.812 38.47-23.55 48.405-.17.094-.265-.038-.265-.095-.227-1.926-.378-3.852-.378-5.835 0-18.13 9.575-33.92 23.928-42.701m49.123-1.699c-6.478-3.418-13.806-5.401-21.625-5.628-.226 0-.17.283-.17.283 0 9.934 1.606 33.183 9.33 48.877.057.17.189.076.283.076l.038-.038c.793-.831 12.786-14.032 12.332-43.211 0-.227-.132-.359-.188-.359m-46.138 0C83.408 52.21 90.756 50.227 98.536 50c.226 0 .189.283.189.283 0 9.934-1.624 33.183-9.386 48.877-.057.17-.227.076-.227.076-.057 0-.057-.038-.057-.038-.774-.831-12.786-14.032-12.332-43.211 0-.227.094-.359.188-.359"/></svg>