<svg xmlns="http://www.w3.org/2000/svg" width="200" height="200" fill="none" viewBox="0 0 200 200"><rect width="200" height="200" fill="#dc000f" rx="40"/><path fill="#d5b527" fill-rule="evenodd" d="M99.4 40.057c.834-.125 1.704-.053 2.449.301 1.225.55 2.237 1.634 2.486 2.965.177 1.083-.16 2.236-.852 3.088-.196.231-.444.426-.657.657 3.798.355 7.65 1.243 10.881 3.355.319.195.603.48.941.657 3.106.337 6.266.959 8.964 2.61 1.225.763 2.325 1.757 3.053 3.017.692 1.19 1.047 2.556.976 3.923.054 1.047-.248 2.094-.71 3.017-.656 1.35-1.704 2.486-2.893 3.373a12.9 12.9 0 0 1-3.745 1.917c-.338.124-.711.195-1.048.338 1.296.141 2.592.301 3.799.798.089.249.124.533.177.8q.426 2.395.906 4.792c-6.408-.817-12.852-1.385-19.295-1.509-1.509-.107-3.018-.053-4.509-.071-1.118.018-2.237-.018-3.337.053-2.397.018-4.775.178-7.154.284-1.81.16-3.621.284-5.432.462-2.662.248-5.325.55-7.988.94-.124.018-.266.018-.39.018.426-1.899.763-3.834 1.118-5.733.444-.231.959-.302 1.438-.408.87-.213 1.775-.284 2.645-.426-1.846-.444-3.639-1.243-5.148-2.415-1.544-1.189-2.804-2.822-3.266-4.721-.195-.728-.124-1.491-.142-2.255.089-1.74.87-3.408 2.077-4.65 1.58-1.633 3.71-2.592 5.858-3.213 1.65-.48 3.355-.764 5.059-.941.16-.089.302-.213.444-.302 2.165-1.562 4.703-2.503 7.295-3.088a32 32 0 0 1 4.083-.622c-.657-.568-1.225-1.295-1.42-2.165a3.54 3.54 0 0 1 .372-2.805 4.63 4.63 0 0 1 2.965-2.041M91.092 52.89c-1.366.994-2.538 2.29-3.141 3.87-.32.745-.444 1.561-.48 2.378 0 1.864.817 3.674 2.095 5.005 1.242 1.367 2.893 2.308 4.615 2.947 1.296.444 2.663.746 4.03.834-1.207-1.828-1.634-4.047-1.882-6.212a27 27 0 0 1-.071-4.651c.195-2.272.586-4.597 1.704-6.621-2.45.248-4.864 1.03-6.87 2.45m11.254-2.432c.941 1.65 1.35 3.55 1.58 5.431.054.533.142 1.048.142 1.58-.017 1.278.018 2.556-.035 3.834-.124 1.03-.249 2.077-.497 3.107-.302 1.225-.728 2.45-1.438 3.514 1.242-.053 2.45-.337 3.639-.71 1.704-.55 3.337-1.437 4.633-2.698 1.029-.976 1.846-2.219 2.219-3.603.301-1.065.337-2.201.053-3.266-.391-1.687-1.456-3.142-2.751-4.243-2.113-1.757-4.829-2.698-7.545-2.946m-21.762 4.544c-1.35.621-2.556 1.65-3.213 3.017a6.5 6.5 0 0 0-.444 4.012c.267 1.367 1.065 2.574 2.148 3.426 1.403 1.154 3.195 1.74 4.97 2.024 1.545.213 3.124.248 4.687 0-.995-.409-1.97-.888-2.858-1.491-1.562-1.048-2.911-2.503-3.55-4.296-.888-2.556-.267-5.503 1.402-7.615-1.083.124-2.148.461-3.142.923m35.999-.923c1.153 1.49 1.81 3.337 1.792 5.219.036 1.508-.479 2.982-1.349 4.206-.443.657-1.011 1.208-1.579 1.74-1.154.94-2.468 1.65-3.835 2.237.444.142.923.07 1.367.142 1.03.088 2.059 0 3.089-.125 1.509-.23 3.035-.639 4.349-1.455 1.278-.781 2.343-1.97 2.804-3.408a6.5 6.5 0 0 0 .089-3.55c-.319-1.332-1.154-2.486-2.254-3.284-1.296-.941-2.876-1.51-4.473-1.722M100.465 78.38c.479 0 1.012-.017 1.526 0 1.669.036 3.338-.035 4.988.09 3.622.053 7.225.302 10.828.568 5.13.426 10.243 1.03 15.319 1.846 1.687 8.982 3.196 18 4.758 27.016.852 5.13 1.721 10.26 2.591 15.39.178 1.065.444 2.113.426 3.178-.018.55 0 1.118-.035 1.668-.213 1.545-.71 3.071-1.598 4.367-.941 1.385-2.183 2.538-3.515 3.55-2.414 1.775-4.881 3.462-7.331 5.183-8.023 5.539-16.064 11.006-24.123 16.491-1.1.745-2.201 1.491-3.302 2.219-.248.16-.479-.071-.674-.196-5.734-3.763-11.414-7.561-17.112-11.36-5.343-3.586-10.704-7.154-15.976-10.828-1.189-.852-2.414-1.669-3.496-2.663-.96-.869-1.811-1.846-2.468-2.964-.887-1.562-1.349-3.355-1.26-5.13-.071-1.296.248-2.574.48-3.834 2.573-13.934 5.13-27.869 7.738-41.803.302-.089.604-.124.924-.16 1.721-.32 3.479-.568 5.218-.816l.036-.018a1.6 1.6 0 0 0-.036.284c-1.349 7.313-2.627 14.644-3.887 21.957-1.35 7.829-2.68 15.657-4.012 23.485-.213 1.349.036 2.84.905 3.923 1.012 1.331 2.432 2.29 3.781 3.23 1.58 1.101 3.178 2.148 4.757 3.213 5.432 3.604 10.882 7.172 16.331 10.757 2.734 1.775 5.45 3.586 8.201 5.361.018-.16.053-.302.053-.444V82.268c-.017-1.278.036-2.556-.017-3.852zm18.106 10.492c-.338.213-.302.71-.018.94-.568.09-1.136.196-1.633.498-.107.07-.213.16-.355.177-.462.053-.941.16-1.331.426-.338.23-.568.621-.551 1.03-.017.497.373.905.799 1.136.249.177.568.195.852.32q0 .247.018.514c.497-.018.958-.142 1.455-.178 1.261-.07 2.521-.053 3.764.231.035-.23-.054-.621.266-.657.55-.106 1.118-.443 1.349-.994.195-.479 0-1.047-.426-1.349-.391-.284-.888-.426-1.385-.479-.159-.018-.284-.124-.408-.195-.479-.284-1.029-.409-1.58-.462.142-.195.267-.408.196-.639-.125-.408-.693-.621-1.012-.32m5.254 5.325c1.047.958 1.527 2.414 1.562 3.816.124.764-.018 1.545-.018 2.326-.124 1.171-.337 2.343-.55 3.497-.195 1.1-.408 2.201-.444 3.337.071 1.544.675 3.017 1.456 4.349.71 1.295 1.633 2.467 2.343 3.763.231.479.55.994.39 1.544-.124.302-.372.692-.763.639-.497.071-.87-.337-1.171-.657-.693-.816-1.225-1.757-1.705-2.698-.585-1.331-1.686-2.343-2.698-3.372a79 79 0 0 0-1.775-1.74c-.053-.053-.159-.106-.106-.213 1.065-.888 1.757-2.219 1.97-3.603.036-.16-.018-.355.124-.497.125.124.249.39.462.266.053-.479 0-.959.035-1.438-.017.497.018.994-.017 1.491a.5.5 0 0 1-.16.036c.035.035.106.088.142.124.195.018.089-.213.106-.32-.053-.869.071-1.739.107-2.609.142-.71-.053-1.42-.124-2.112q.373.016.745 0c-.089-1.491-.302-3.089-1.242-4.314-.622-.852-1.651-1.349-2.681-1.473-1.438-.16-2.858.142-4.224.48-.196.035-.213.265-.267.425.355.089.746-.035 1.065.124-.248.107-.532.16-.781.267-.124.053-.142.177-.159.284 0 .71.195 1.42.639 1.988.248-.284.319-.746.71-.923.195-.124.372.089.479.213.479.532.515 1.296.373 1.97-.071.337-.497.355-.764.266-.248-.088-.355-.301-.443-.514-.373.958-.196 2.201.585 2.911.036-.32.036-.675.249-.941.213-.284.586-.355.923-.355 0 .674-.284 1.384-.888 1.722-.603.319-1.313.337-1.97.532-.852.213-1.598.764-2.166 1.403-.887.958-1.491 2.112-2.289 3.141-.533.675-1.19 1.35-2.042 1.58.018.284.178.551.338.799.372.586.923 1.047 1.544 1.385-.018.248-.213.443-.337.656-.515.728-1.048 1.456-1.722 2.024-.16.16-.338.284-.568.284-.231-.284-.426-.675-.799-.799-.497-.053-.959.178-1.438.284a5 5 0 0 0-.195.444c.177.071.373.071.532.16.018.266 0 .532-.017.781.39.106.798.124 1.189.248v.213a7 7 0 0 1-.817-.159c-.195.035-.408.035-.514.23-.32.48-.675 1.012-.604 1.616.142-.054.249-.16.373-.231.248-.018.302.284.319.461.089.036.213.196.32.054.319-.267.586-.568.905-.835.124-.071.178.107.178.196-.249.301-.533.568-.799.852-.053.071-.124.142-.107.23 0 .568-.159 1.136-.017 1.687.213-.142.372-.409.621-.497.195.053.355.213.568.248.621-.16.888-.834 1.189-1.331.284.195.622.284.959.337.035.178.053.337.089.515.017 0 .071.018.088.018.302-.302.48-.71.48-1.136 0-.533-.089-1.065-.018-1.598.071-.444.373-.816.674-1.136.178.071.355.178.551.231.39.106.834.035 1.207-.124.284-.107.479-.391.585-.657-.426-.16-.887-.551-.763-1.048a.9.9 0 0 1 .675-.674 2.66 2.66 0 0 1 1.615.177c1.598.675 2.609 2.131 3.799 3.32.088.603-.071 1.225-.054 1.846-.035 1.189-.088 2.396.267 3.55.23.817.834 1.491.941 2.343.071.408-.018.817.017 1.207.249-.089.551-.124.746-.319.177-.16.284-.373.408-.586.231 0 .479.018.71.053a2 2 0 0 1-.124.337c-.462.835-.905 1.687-1.509 2.415-.319.39-.657.763-1.101.976-.39.213-.887.231-1.26 0-.461-.231-.87-.657-1.42-.675-.319-.017-.479.302-.692.48-.178.195-.479.159-.71.213-.213.124-.355.372-.302.603.195 0 .391 0 .586.071.018.213.053.426.142.621.16-.017.231-.248.373-.355.177-.177.301-.479.585-.514a2 2 0 0 1-.177.284c-.355.372-.586.852-.852 1.295-.195.284-.124.657-.089.977.018.124-.018.302.142.355.089-.16.178-.338.284-.48.355-.159.391.302.639.409.249-.568.231-1.19.408-1.775.036-.018.125-.071.16-.089q0 .16-.035.302c-.249.816-.373 1.704-.142 2.538 0 .124.106.195.195.284.106-.195.124-.479.373-.603.159-.125.39-.089.585-.089-.017-.195.125-.426-.017-.568h.071c0-.249-.018-.515.017-.781.036-.178.16-.355.267-.497 0 .035-.018.124-.018.177-.266.817-.178 1.722.035 2.556q.178.107.338.213c.071-.248.142-.514.195-.763.426-.089.87-.142 1.314-.231.159 0 .248-.159.355-.266.408-.533.497-1.225.763-1.811.142-.337.355-.71.71-.852.302-.106.497.16.674.355.196-.461.196-.976.302-1.473.107-.852.639-1.544 1.065-2.272.462-.692.799-1.473.905-2.308.036-.621.054-1.278-.195-1.881-.231.337-.408.692-.657 1.029-.727.018-1.242-.692-1.366-1.349-.178-1.313-.018-2.751.781-3.834.177-.213.39-.479.692-.426.497 1.367 1.846 2.379 3.302 2.521.834.071 1.721-.284 2.218-.994.267-.409.48-.888.497-1.385.125-.515-.053-1.047-.284-1.526-.284-.657-.71-1.243-1.065-1.882.231-1.083.746-2.077 1.296-3.018-.852.302-1.526 1.012-1.97 1.775.035-.479.231-.923.408-1.384.213-.621.586-1.189.905-1.757-.816.248-1.384.923-1.899 1.562.284-1.119.728-2.184 1.367-3.142-.089.017-.195.035-.284.088-.834.426-1.456 1.137-1.882 1.953-.568-1.58-.372-3.284-.159-4.899.284-2.272.692-4.527 1.295-6.728.267-.976.781-1.934 1.633-2.503-1.349-.213-2.591 1.136-2.467 2.45-.018 0-.035.018-.053.018 0-.48-.16-.923-.32-1.367-.497-1.225-1.65-2.183-2.964-2.414m-10.313 4.1c-.16.426-.16.941.142 1.278.301.302.763.302 1.136.16.639-.23 1.065-.78 1.615-1.136.266-.195.586-.266.905-.32a1.26 1.26 0 0 0-1.011-.053c-.551.213-1.083.462-1.669.568-.231.036-.533.054-.692-.16-.125-.354.017-.71.142-1.047-.302.107-.462.426-.568.71m-4.473.728c.017.444-.32.799-.32 1.243.036.355.089.727.071 1.082-.355-.337-.195-.923-.55-1.278a2.86 2.86 0 0 0-1.403-.798c.107.479-.071 1.047.231 1.473.178.284.302.586.515.834q0 .178.018.373c-.036 0-.125.018-.178.018-.248-.302-.479-.604-.745-.888-.462-.213-.977 0-1.438.142.231.249.461.479.639.781.479.71.976 1.509.905 2.397.018.585-.337 1.082-.781 1.437.231.32.639.302.976.338.16 0 .355.017.497-.089.231-.249.355-.586.586-.834a.3.3 0 0 0 .124.017c.657.764 1.243 1.58 1.864 2.361.568-.479.906-1.136 1.314-1.739.071-.125.195-.231.213-.391-.284-1.154-1.615-1.668-1.882-2.822-.159-.977.267-1.953.036-2.93-.142-.3-.355-.62-.692-.727m6.727 15.372c-.603.213-.976.781-1.384 1.243-.444.532-1.066 1.012-1.811.976.053.408.177.834.444 1.154.195.213.479.337.781.39q.035.231.053.48a4.96 4.96 0 0 0 1.314 3.142c.071.106.284.248.142.372-.515.071-1.048.071-1.58.071-.426 0-.87.018-1.243-.195-.692-.337-1.012-1.083-1.58-1.58a1.78 1.78 0 0 0-1.455-.408c.089.142.195.284.266.444.036.231-.106.444-.16.657.338.106.657.195.994.284v.284c-.497-.107-1.047-.16-1.508.088-.302.16-.498.462-.604.781q.284 0 .55.018c.16.266.267.568.32.87.337-.337.621-.728.976-1.065-.018.408-.231.763-.461 1.083-.32.426-.639.923-.586 1.491.231-.054.39-.213.603-.32q.231.285.497.533c.267-.338.284-.799.426-1.19h.196c-.036.444-.231.87-.284 1.332-.107.444-.107 1.012.301 1.313q.106-.32.213-.656c.196-.018.391-.018.586.053.462.16.87-.231 1.101-.586.213-.337.568-.604.994-.621.106.142.248.284.302.461.035.196.053.373.106.568.444-.177.692-.603 1.065-.852.657-.355 1.42-.355 2.13-.373.675-.035 1.225-.479 1.615-.994a9.6 9.6 0 0 1-1.81-2.396c-.32-.657-.604-1.384-.479-2.13.106-.32.195-.71.55-.834.39-.213.816.035 1.154.248.053-.444.088-.905.088-1.349-.266-.461-.816-.692-1.047-1.189-.124-.266 0-.586-.071-.87-.035.266-.018.515-.035.763a3.3 3.3 0 0 1 .035-.834c-.479-.39-1.065-.799-1.704-.657" clip-rule="evenodd"/><path fill="#d5b527" d="M117.133 91.214c.319-.444.888-.692 1.438-.692-.124.461-.249.922-.195 1.402 0 .355.195.657.177 1.012-.497-.054-.994-.231-1.314-.604-.301-.284-.319-.781-.106-1.118m2.201-.692c.515-.035 1.047.195 1.403.586.248.248.284.657.159.976-.302.586-1.012.817-1.633.888a2.66 2.66 0 0 0 .071-2.45m-3.976 1.136c.142-.39.586-.586.959-.64-.089.267-.249.533-.213.817.018.39.319.675.621.87 0 .053 0 .177-.017.23-.409-.035-.871-.07-1.155-.39-.266-.23-.248-.586-.195-.887m6.301-.639c.373.053.799.248.941.639.071.32.035.692-.231.905-.39.373-.976.355-1.473.337.337-.213.763-.408.905-.816.16-.355 0-.728-.142-1.065m-37.152.533c.905.017 1.793.017 2.698.017.018.781-.018 1.58 0 2.38.692.017 1.385 0 2.077.017a.8.8 0 0 0 .053-.284c0-.657 0-1.314.018-1.97h2.538a312 312 0 0 1 0 5.769H79.68c0-1.918-.018-3.852 0-5.77h2.538c.018.48.018.977.018 1.456 0 .266-.036.55.053.799.71-.018 1.438 0 2.148-.018.142-.78.018-1.597.07-2.396m33.354 3.568c.55 0 1.1-.071 1.633.035.089.054.248.036.231.16-.444.23-.941.355-1.403.55a1.5 1.5 0 0 1-.461.142z"/><path fill="#d5b527" fill-rule="evenodd" d="M81.685 98.456c2.733 0 5.467.018 8.2 0 .16.675.16 1.367.285 2.041l2.378 19.171c.053.533.178 1.065.178 1.616-4.633-.018-9.248 0-13.881-.018.07-1.065.284-2.095.372-3.16.817-6.514 1.616-13.029 2.432-19.526a.3.3 0 0 1 .036-.124m2.148 6.639c-.018.444-.071.905.053 1.349 1.26 0 2.538-.018 3.799 0 .106-.444.053-.905.053-1.367-.018-.018-.071-.053-.089-.089a213 213 0 0 0-3.745 0c-.018.036-.054.071-.071.107m.053 4.455v1.367h3.852c.035-.461 0-.905.017-1.367a.6.6 0 0 0-.355-.071h-3.16a.6.6 0 0 0-.354.071m-.071 4.491c.035.462-.071.941.07 1.385h3.8c.124-.444.035-.923.07-1.367a.6.6 0 0 0-.355-.089h-3.16c-.141 0-.283.036-.425.071" clip-rule="evenodd"/><path fill="#d5b527" d="M77.265 122.331h17.023c.017 1.935 0 3.852 0 5.769-1.51.018-3.018 0-4.527.018-.035-.515.036-1.012-.07-1.509H81.88c-.018.497 0 .994 0 1.491-1.544.018-3.071 0-4.615.018z"/></svg>