<svg width="200" height="200" viewBox="0 0 200 200" fill="none" xmlns="http://www.w3.org/2000/svg">
<rect width="200" height="200" rx="40" fill="#DC000F"/>
<path fill-rule="evenodd" clip-rule="evenodd" d="M99.3998 40.0567C100.234 39.9325 101.104 40.0035 101.849 40.3585C103.074 40.9088 104.086 41.9916 104.335 43.3229C104.512 44.4057 104.175 45.5595 103.483 46.4115C103.287 46.6423 103.039 46.8375 102.826 47.0683C106.624 47.4233 110.476 48.3108 113.707 50.4232C114.026 50.6184 114.31 50.9024 114.648 51.0799C117.754 51.4172 120.914 52.0385 123.612 53.6893C124.837 54.4526 125.937 55.4466 126.665 56.7069C127.357 57.8962 127.712 59.2631 127.641 60.6299C127.695 61.6772 127.393 62.7245 126.931 63.6475C126.275 64.9966 125.227 66.1326 124.038 67.0201C122.92 67.8544 121.624 68.5112 120.293 68.9372C119.955 69.0615 119.582 69.1325 119.245 69.2745C120.541 69.4165 121.837 69.5763 123.044 70.0733C123.133 70.3218 123.168 70.6058 123.221 70.8721C123.505 72.4696 123.807 74.0672 124.127 75.6648C117.719 74.8482 111.275 74.2802 104.832 74.156C103.323 74.0495 101.814 74.1027 100.323 74.085C99.2046 74.1027 98.0863 74.0672 96.9857 74.1382C94.5894 74.156 92.2107 74.3157 89.8321 74.4222C88.0216 74.582 86.211 74.7062 84.4004 74.8837C81.7378 75.1323 79.0752 75.434 76.4125 75.8245C76.2883 75.8423 76.1463 75.8423 76.022 75.8423C76.448 73.943 76.7853 72.0081 77.1403 70.1088C77.5841 69.878 78.0989 69.807 78.5781 69.7005C79.4479 69.4875 80.3532 69.4165 81.223 69.2745C79.3769 68.8307 77.5841 68.0319 76.0753 66.8604C74.5309 65.6711 73.2706 64.038 72.8091 62.1387C72.6139 61.4109 72.6849 60.6476 72.6671 59.8843C72.7559 58.1448 73.5369 56.4762 74.744 55.2336C76.3238 53.6006 78.4539 52.642 80.6017 52.0207C82.2525 51.5415 83.9566 51.2575 85.6607 51.0799C85.8205 50.9912 85.9625 50.8669 86.1045 50.7782C88.2701 49.2161 90.8084 48.2753 93.4 47.6896C94.7491 47.3878 96.1159 47.1925 97.4827 47.0683C96.826 46.5002 96.2579 45.7725 96.0627 44.9027C95.7964 43.9796 95.9207 42.9323 96.4354 42.0981C97.0922 41.0508 98.1928 40.3052 99.3998 40.0567ZM91.0924 52.8905C89.7256 53.8846 88.5541 55.1804 87.9506 56.7602C87.631 57.5057 87.5068 58.3223 87.4713 59.1388C87.4713 61.0026 88.2878 62.8132 89.5659 64.1445C90.8084 65.5113 92.4593 66.4521 94.1811 67.0912C95.4769 67.5349 96.8437 67.8367 98.2105 67.9254C97.0035 66.0971 96.5774 63.8783 96.3289 61.7127C96.1692 60.1683 96.1514 58.6063 96.2579 57.062C96.4532 54.7899 96.8437 52.4645 97.962 50.4409C95.5124 50.6894 93.0983 51.4705 91.0924 52.8905ZM102.346 50.4587C103.287 52.1095 103.696 54.0088 103.926 55.8904C103.98 56.4229 104.068 56.9377 104.068 57.4702C104.051 58.7483 104.086 60.0263 104.033 61.3044C103.909 62.3339 103.784 63.3812 103.536 64.4108C103.234 65.6356 102.808 66.8604 102.098 67.9254C103.34 67.8722 104.548 67.5882 105.737 67.2154C107.441 66.6651 109.074 65.7776 110.37 64.5173C111.399 63.541 112.216 62.2984 112.589 60.9139C112.89 59.8488 112.926 58.7128 112.642 57.6477C112.251 55.9614 111.186 54.5058 109.891 53.4053C107.778 51.648 105.062 50.7072 102.346 50.4587ZM80.584 55.0029C79.2349 55.6241 78.0279 56.6537 77.3711 58.0205C76.8031 59.2631 76.6433 60.7009 76.9273 62.0322C77.1936 63.399 77.9924 64.606 79.0752 65.4581C80.4775 66.6119 82.2703 67.1977 84.0454 67.4817C85.5897 67.6947 87.1695 67.7302 88.7316 67.4817C87.7375 67.0734 86.7613 66.5941 85.8737 65.9906C84.3116 64.9433 82.9626 63.4877 82.3236 61.6949C81.436 59.1388 82.0573 56.1922 83.7259 54.0798C82.6431 54.2041 81.578 54.5414 80.584 55.0029ZM116.583 54.0798C117.736 55.5709 118.393 57.417 118.375 59.2986C118.411 60.8074 117.896 62.2807 117.026 63.5055C116.583 64.1623 116.015 64.7125 115.447 65.2451C114.293 66.1859 112.979 66.8959 111.612 67.4817C112.056 67.6237 112.535 67.5527 112.979 67.6237C114.009 67.7124 115.038 67.6237 116.068 67.4994C117.577 67.2687 119.103 66.8604 120.417 66.0439C121.695 65.2628 122.76 64.0735 123.221 62.6357C123.576 61.4819 123.612 60.2394 123.31 59.0856C122.991 57.7542 122.156 56.6004 121.056 55.8017C119.76 54.8609 118.18 54.2928 116.583 54.0798Z" fill="#D5B527"/>
<path fill-rule="evenodd" clip-rule="evenodd" d="M100.465 78.3809C100.944 78.3809 101.477 78.3632 101.991 78.3809C103.66 78.4164 105.329 78.3454 106.979 78.4697C110.601 78.5229 114.204 78.7715 117.807 79.0377C122.937 79.4637 128.05 80.0673 133.126 80.8838C134.813 89.8657 136.322 98.8831 137.884 107.9C138.736 113.03 139.605 118.16 140.475 123.29C140.653 124.355 140.919 125.403 140.901 126.468C140.883 127.018 140.901 127.586 140.866 128.136C140.653 129.681 140.156 131.207 139.268 132.503C138.327 133.888 137.085 135.041 135.753 136.053C133.339 137.828 130.872 139.515 128.422 141.236C120.399 146.775 112.358 152.242 104.299 157.727C103.199 158.472 102.098 159.218 100.997 159.946C100.749 160.106 100.518 159.875 100.323 159.75C94.5894 155.987 88.9091 152.189 83.2111 148.39C77.8681 144.804 72.5074 141.236 67.2354 137.562C66.0461 136.71 64.8213 135.893 63.7385 134.899C62.7799 134.03 61.9279 133.053 61.2711 131.935C60.3836 130.373 59.922 128.58 60.0108 126.805C59.9398 125.509 60.2593 124.231 60.4901 122.971C63.0639 109.037 65.6201 95.1022 68.2294 81.1678C68.5312 81.0791 68.833 81.0436 69.1525 81.0081C70.8743 80.6885 72.6316 80.44 74.3712 80.1915L74.4067 80.1738C74.389 80.2448 74.3712 80.3868 74.3712 80.4578C73.0221 87.7711 71.7441 95.1022 70.4838 102.415C69.1347 110.244 67.8034 118.072 66.4721 125.9C66.2591 127.249 66.5076 128.74 67.3774 129.823C68.3892 131.154 69.8092 132.113 71.1583 133.053C72.7381 134.154 74.3357 135.201 75.9155 136.266C81.3473 139.87 86.7968 143.438 92.2463 147.023C94.9799 148.798 97.6958 150.609 100.447 152.384C100.465 152.224 100.5 152.082 100.5 151.94C100.5 128.722 100.5 105.498 100.5 82.2684C100.483 80.9903 100.536 79.7122 100.483 78.4164L100.465 78.3809ZM118.571 88.8716C118.233 89.0847 118.269 89.5817 118.553 89.8124C117.985 89.9012 117.417 90.0077 116.92 90.3095C116.813 90.3805 116.707 90.4692 116.565 90.487C116.103 90.5402 115.624 90.6467 115.234 90.913C114.896 91.1437 114.666 91.5343 114.683 91.9425C114.666 92.4396 115.056 92.8478 115.482 93.0786C115.731 93.2561 116.05 93.2738 116.334 93.3981C116.334 93.5638 116.34 93.7354 116.352 93.9129C116.849 93.8951 117.31 93.7709 117.807 93.7354C119.068 93.6644 120.328 93.6821 121.571 93.9661C121.606 93.7354 121.517 93.3448 121.837 93.3093C122.387 93.2028 122.955 92.8656 123.186 92.3153C123.381 91.836 123.186 91.268 122.76 90.9662C122.369 90.6822 121.872 90.5402 121.375 90.487C121.216 90.4692 121.091 90.3627 120.967 90.2917C120.488 90.0077 119.938 89.8834 119.387 89.8302C119.529 89.6349 119.654 89.4219 119.583 89.1912C119.458 88.7829 118.89 88.5699 118.571 88.8716ZM123.825 94.1969C124.872 95.1554 125.352 96.611 125.387 98.0133C125.511 98.7766 125.369 99.5576 125.369 100.339C125.245 101.51 125.032 102.682 124.819 103.836C124.624 104.936 124.411 106.037 124.375 107.173C124.446 108.717 125.05 110.19 125.831 111.522C126.541 112.817 127.464 113.989 128.174 115.285C128.405 115.764 128.724 116.279 128.564 116.829C128.44 117.131 128.192 117.521 127.801 117.468C127.304 117.539 126.931 117.131 126.63 116.811C125.937 115.995 125.405 115.054 124.925 114.113C124.34 112.782 123.239 111.77 122.227 110.741C121.642 110.155 121.056 109.569 120.452 109.001C120.399 108.948 120.293 108.895 120.346 108.788C121.411 107.9 122.103 106.569 122.316 105.185C122.352 105.025 122.298 104.83 122.44 104.688C122.565 104.812 122.689 105.078 122.902 104.954C122.955 104.475 122.902 103.995 122.937 103.516C122.92 104.013 122.955 104.51 122.92 105.007C122.884 105.025 122.795 105.043 122.76 105.043C122.795 105.078 122.866 105.131 122.902 105.167C123.097 105.185 122.991 104.954 123.008 104.847C122.955 103.978 123.079 103.108 123.115 102.238C123.257 101.528 123.062 100.818 122.991 100.126C123.239 100.137 123.488 100.137 123.736 100.126C123.647 98.6346 123.434 97.037 122.494 95.8122C121.872 94.9602 120.843 94.4631 119.813 94.3389C118.375 94.1791 116.955 94.4809 115.589 94.8182C115.393 94.8537 115.376 95.0844 115.322 95.2442C115.677 95.3329 116.068 95.2087 116.387 95.3684C116.139 95.4749 115.855 95.5282 115.606 95.6347C115.482 95.6879 115.464 95.8122 115.447 95.9187C115.447 96.6287 115.642 97.3388 116.086 97.9068C116.334 97.6228 116.405 97.1613 116.796 96.9838C116.991 96.8595 117.168 97.0725 117.275 97.1968C117.754 97.7293 117.79 98.4926 117.648 99.1671C117.577 99.5044 117.151 99.5221 116.884 99.4334C116.636 99.3446 116.529 99.1316 116.441 98.9186C116.068 99.8771 116.245 101.12 117.026 101.83C117.062 101.51 117.062 101.155 117.275 100.889C117.488 100.605 117.861 100.534 118.198 100.534C118.198 101.208 117.914 101.918 117.31 102.256C116.707 102.575 115.997 102.593 115.34 102.788C114.488 103.001 113.742 103.552 113.174 104.191C112.287 105.149 111.683 106.303 110.885 107.332C110.352 108.007 109.695 108.682 108.843 108.912C108.861 109.196 109.021 109.463 109.181 109.711C109.553 110.297 110.104 110.758 110.725 111.096C110.707 111.344 110.512 111.539 110.388 111.752C109.873 112.48 109.34 113.208 108.666 113.776C108.506 113.936 108.328 114.06 108.098 114.06C107.867 113.776 107.672 113.385 107.299 113.261C106.802 113.208 106.34 113.439 105.861 113.545C105.79 113.687 105.725 113.835 105.666 113.989C105.843 114.06 106.039 114.06 106.198 114.149C106.216 114.415 106.198 114.681 106.181 114.93C106.571 115.036 106.979 115.054 107.37 115.178C107.37 115.232 107.37 115.338 107.37 115.391C107.104 115.356 106.82 115.303 106.553 115.232C106.358 115.267 106.145 115.267 106.039 115.462C105.719 115.942 105.364 116.474 105.435 117.078C105.577 117.024 105.684 116.918 105.808 116.847C106.056 116.829 106.11 117.131 106.127 117.308C106.216 117.344 106.34 117.504 106.447 117.362C106.766 117.095 107.033 116.794 107.352 116.527C107.476 116.456 107.53 116.634 107.53 116.723C107.281 117.024 106.997 117.291 106.731 117.575C106.678 117.646 106.607 117.717 106.624 117.805C106.624 118.373 106.465 118.941 106.607 119.492C106.82 119.35 106.979 119.083 107.228 118.995C107.423 119.048 107.583 119.208 107.796 119.243C108.417 119.083 108.684 118.409 108.985 117.912C109.269 118.107 109.607 118.196 109.944 118.249C109.979 118.427 109.997 118.586 110.033 118.764C110.05 118.764 110.104 118.782 110.121 118.782C110.423 118.48 110.601 118.072 110.601 117.646C110.601 117.113 110.512 116.581 110.583 116.048C110.654 115.604 110.956 115.232 111.257 114.912C111.435 114.983 111.612 115.09 111.808 115.143C112.198 115.249 112.642 115.178 113.015 115.019C113.299 114.912 113.494 114.628 113.6 114.362C113.174 114.202 112.713 113.811 112.837 113.314C112.908 112.995 113.174 112.711 113.512 112.64C114.044 112.533 114.63 112.587 115.127 112.817C116.725 113.492 117.736 114.948 118.926 116.137C119.014 116.74 118.855 117.362 118.872 117.983C118.837 119.172 118.784 120.379 119.139 121.533C119.369 122.35 119.973 123.024 120.08 123.876C120.151 124.284 120.062 124.693 120.097 125.083C120.346 124.994 120.648 124.959 120.843 124.764C121.02 124.604 121.127 124.391 121.251 124.178C121.482 124.178 121.73 124.196 121.961 124.231C121.926 124.355 121.89 124.462 121.837 124.568C121.375 125.403 120.932 126.255 120.328 126.983C120.009 127.373 119.671 127.746 119.227 127.959C118.837 128.172 118.34 128.19 117.967 127.959C117.506 127.728 117.097 127.302 116.547 127.284C116.228 127.267 116.068 127.586 115.855 127.764C115.677 127.959 115.376 127.923 115.145 127.977C114.932 128.101 114.79 128.349 114.843 128.58C115.038 128.58 115.234 128.58 115.429 128.651C115.447 128.864 115.482 129.077 115.571 129.272C115.731 129.255 115.802 129.024 115.944 128.917C116.121 128.74 116.245 128.438 116.529 128.403C116.482 128.497 116.423 128.592 116.352 128.687C115.997 129.059 115.766 129.539 115.5 129.982C115.305 130.266 115.376 130.639 115.411 130.959C115.429 131.083 115.393 131.261 115.553 131.314C115.642 131.154 115.731 130.976 115.837 130.834C116.192 130.675 116.228 131.136 116.476 131.243C116.725 130.675 116.707 130.053 116.884 129.468C116.92 129.45 117.009 129.397 117.044 129.379C117.044 129.485 117.032 129.586 117.009 129.681C116.76 130.497 116.636 131.385 116.867 132.219C116.867 132.343 116.973 132.414 117.062 132.503C117.168 132.308 117.186 132.024 117.435 131.9C117.594 131.775 117.825 131.811 118.02 131.811C118.003 131.616 118.145 131.385 118.003 131.243H118.074C118.074 130.994 118.056 130.728 118.091 130.462C118.127 130.284 118.251 130.107 118.358 129.965C118.358 130 118.34 130.089 118.34 130.142C118.074 130.959 118.162 131.864 118.375 132.698C118.494 132.769 118.606 132.84 118.713 132.911C118.784 132.663 118.855 132.397 118.908 132.148C119.334 132.059 119.778 132.006 120.222 131.917C120.381 131.917 120.47 131.758 120.577 131.651C120.985 131.118 121.074 130.426 121.34 129.84C121.482 129.503 121.695 129.13 122.05 128.988C122.352 128.882 122.547 129.148 122.724 129.343C122.92 128.882 122.92 128.367 123.026 127.87C123.133 127.018 123.665 126.326 124.091 125.598C124.553 124.906 124.89 124.125 124.996 123.29C125.032 122.669 125.05 122.012 124.801 121.409C124.57 121.746 124.393 122.101 124.144 122.438C123.417 122.456 122.902 121.746 122.778 121.089C122.6 119.776 122.76 118.338 123.559 117.255C123.736 117.042 123.949 116.776 124.251 116.829C124.748 118.196 126.097 119.208 127.553 119.35C128.387 119.421 129.274 119.066 129.771 118.356C130.038 117.947 130.251 117.468 130.268 116.971C130.393 116.456 130.215 115.924 129.984 115.445C129.7 114.788 129.274 114.202 128.919 113.563C129.15 112.48 129.665 111.486 130.215 110.545C129.363 110.847 128.689 111.557 128.245 112.32C128.28 111.841 128.476 111.397 128.653 110.936C128.866 110.315 129.239 109.747 129.558 109.179C128.742 109.427 128.174 110.102 127.659 110.741C127.943 109.622 128.387 108.557 129.026 107.599C128.937 107.616 128.831 107.634 128.742 107.687C127.908 108.113 127.286 108.824 126.86 109.64C126.292 108.06 126.488 106.356 126.701 104.741C126.985 102.469 127.393 100.214 127.996 98.0133C128.263 97.037 128.777 96.0785 129.629 95.5104C128.28 95.2974 127.038 96.6465 127.162 97.96C127.144 97.96 127.127 97.9778 127.109 97.9778C127.109 97.4985 126.949 97.0548 126.789 96.611C126.292 95.3862 125.139 94.4276 123.825 94.1969ZM113.512 98.2973C113.352 98.7233 113.352 99.2381 113.654 99.5754C113.955 99.8771 114.417 99.8771 114.79 99.7351C115.429 99.5044 115.855 98.9541 116.405 98.5991C116.671 98.4038 116.991 98.3328 117.31 98.2796C116.991 98.1198 116.618 98.102 116.299 98.2263C115.748 98.4393 115.216 98.6878 114.63 98.7943C114.399 98.8298 114.097 98.8476 113.938 98.6346C113.813 98.2796 113.955 97.9245 114.08 97.5873C113.778 97.6938 113.618 98.0133 113.512 98.2973ZM109.039 99.0251C109.056 99.4689 108.719 99.8239 108.719 100.268C108.755 100.623 108.808 100.995 108.79 101.35C108.435 101.013 108.595 100.427 108.24 100.072C107.867 99.6819 107.37 99.3979 106.837 99.2736C106.944 99.7529 106.766 100.321 107.068 100.747C107.246 101.031 107.37 101.333 107.583 101.581C107.583 101.7 107.589 101.824 107.601 101.954C107.565 101.954 107.476 101.972 107.423 101.972C107.175 101.67 106.944 101.368 106.678 101.084C106.216 100.871 105.701 101.084 105.24 101.226C105.471 101.475 105.701 101.705 105.879 102.007C106.358 102.717 106.855 103.516 106.784 104.404C106.802 104.989 106.447 105.486 106.003 105.841C106.234 106.161 106.642 106.143 106.979 106.179C107.139 106.179 107.334 106.196 107.476 106.09C107.707 105.841 107.831 105.504 108.062 105.256C108.098 105.273 108.151 105.273 108.186 105.273C108.843 106.037 109.429 106.853 110.05 107.634C110.618 107.155 110.956 106.498 111.364 105.895C111.435 105.77 111.559 105.664 111.577 105.504C111.293 104.35 109.962 103.836 109.695 102.682C109.536 101.705 109.962 100.729 109.731 99.7529C109.589 99.4511 109.376 99.1316 109.039 99.0251ZM115.766 114.397C115.163 114.61 114.79 115.178 114.382 115.64C113.938 116.172 113.316 116.652 112.571 116.616C112.624 117.024 112.748 117.45 113.015 117.77C113.21 117.983 113.494 118.107 113.796 118.16C113.819 118.314 113.837 118.474 113.849 118.64C113.902 119.793 114.364 120.93 115.163 121.782C115.234 121.888 115.447 122.03 115.305 122.154C114.79 122.225 114.257 122.225 113.725 122.225C113.299 122.225 112.855 122.243 112.482 122.03C111.79 121.693 111.47 120.947 110.902 120.45C110.512 120.113 109.979 119.953 109.447 120.042C109.536 120.184 109.642 120.326 109.713 120.486C109.749 120.717 109.607 120.93 109.553 121.143C109.891 121.249 110.21 121.338 110.547 121.427C110.547 121.521 110.547 121.616 110.547 121.711C110.05 121.604 109.5 121.551 109.039 121.799C108.737 121.959 108.541 122.261 108.435 122.58C108.624 122.58 108.808 122.586 108.985 122.598C109.145 122.864 109.252 123.166 109.305 123.468C109.642 123.131 109.926 122.74 110.281 122.403C110.263 122.811 110.05 123.166 109.82 123.486C109.5 123.912 109.181 124.409 109.234 124.977C109.465 124.923 109.624 124.764 109.837 124.657C109.991 124.847 110.157 125.024 110.334 125.19C110.601 124.852 110.618 124.391 110.76 124C110.814 124 110.902 124 110.956 124C110.92 124.444 110.725 124.87 110.672 125.332C110.565 125.776 110.565 126.344 110.973 126.645C111.044 126.432 111.115 126.213 111.186 125.989C111.382 125.971 111.577 125.971 111.772 126.042C112.234 126.202 112.642 125.811 112.873 125.456C113.086 125.119 113.441 124.852 113.867 124.835C113.973 124.977 114.115 125.119 114.169 125.296C114.204 125.492 114.222 125.669 114.275 125.864C114.719 125.687 114.967 125.261 115.34 125.012C115.997 124.657 116.76 124.657 117.47 124.639C118.145 124.604 118.695 124.16 119.085 123.645C118.358 122.953 117.754 122.137 117.275 121.249C116.955 120.592 116.671 119.865 116.796 119.119C116.902 118.799 116.991 118.409 117.346 118.285C117.736 118.072 118.162 118.32 118.5 118.533C118.553 118.089 118.588 117.628 118.588 117.184C118.322 116.723 117.772 116.492 117.541 115.995C117.417 115.729 117.541 115.409 117.47 115.125C117.435 115.391 117.452 115.64 117.435 115.888C117.411 115.604 117.423 115.326 117.47 115.054C116.991 114.664 116.405 114.255 115.766 114.397Z" fill="#D5B527"/>
<path d="M117.133 91.2138C117.452 90.77 118.021 90.5215 118.571 90.5215C118.447 90.983 118.322 91.4445 118.376 91.9238C118.376 92.2788 118.571 92.5806 118.553 92.9356C118.056 92.8823 117.559 92.7048 117.239 92.3321C116.938 92.048 116.92 91.551 117.133 91.2138Z" fill="#D5B527"/>
<path d="M119.334 90.5221C119.849 90.4866 120.381 90.7174 120.737 91.1079C120.985 91.3564 121.021 91.7647 120.896 92.0842C120.594 92.67 119.884 92.9007 119.263 92.9717C119.689 92.2262 119.707 91.2854 119.334 90.5221Z" fill="#D5B527"/>
<path d="M115.358 91.6576C115.5 91.2671 115.944 91.0718 116.317 91.0186C116.228 91.2848 116.068 91.5511 116.104 91.8351C116.122 92.2256 116.423 92.5096 116.725 92.7049C116.725 92.7581 116.725 92.8824 116.708 92.9356C116.299 92.9001 115.837 92.8646 115.553 92.5451C115.287 92.3144 115.305 91.9593 115.358 91.6576Z" fill="#D5B527"/>
<path d="M121.659 91.0186C122.032 91.0718 122.458 91.2671 122.6 91.6576C122.671 91.9771 122.635 92.3499 122.369 92.5629C121.979 92.9356 121.393 92.9179 120.896 92.9001C121.233 92.6871 121.659 92.4919 121.801 92.0836C121.961 91.7286 121.801 91.3558 121.659 91.0186Z" fill="#D5B527"/>
<path d="M84.5069 91.5518C85.4122 91.5695 86.2997 91.5695 87.205 91.5695C87.2228 92.3505 87.1873 93.1493 87.205 93.9481C87.8973 93.9659 88.5896 93.9481 89.2818 93.9659C89.3174 93.8712 89.3351 93.7765 89.3351 93.6819C89.3351 93.0251 89.3351 92.3683 89.3529 91.7115C90.1871 91.7115 91.0392 91.7115 91.8912 91.7115C91.909 93.6286 91.909 95.5634 91.8912 97.4805C87.8085 97.4805 83.7436 97.4805 79.6787 97.4805C79.6787 95.5634 79.6609 93.6286 79.6787 91.7115C80.5307 91.7115 81.365 91.7115 82.217 91.7115C82.2348 92.1908 82.2348 92.6878 82.2348 93.1671C82.2348 93.4333 82.1993 93.7174 82.288 93.9659C82.9981 93.9481 83.7258 93.9659 84.4359 93.9481C84.5779 93.1671 84.4536 92.3505 84.5069 91.5518Z" fill="#D5B527"/>
<path d="M117.861 95.1199C118.411 95.1199 118.961 95.0489 119.494 95.1554C119.583 95.2086 119.742 95.1909 119.725 95.3151C119.281 95.5459 118.784 95.6701 118.322 95.8654C118.18 95.9364 118.026 95.9837 117.861 96.0074C117.861 95.7116 117.861 95.4157 117.861 95.1199Z" fill="#D5B527"/>
<path fill-rule="evenodd" clip-rule="evenodd" d="M81.6847 98.4561C84.4184 98.4561 87.152 98.4738 89.8856 98.4561C90.0454 99.1306 90.0454 99.8229 90.1696 100.497C90.9625 106.888 91.7554 113.278 92.5482 119.668C92.6015 120.201 92.7257 120.733 92.7257 121.284C88.0928 121.266 83.4776 121.284 78.8446 121.266C78.9156 120.201 79.1286 119.171 79.2174 118.106C80.0339 111.592 80.8327 105.077 81.6492 98.5803C81.6492 98.5448 81.667 98.4916 81.6847 98.4561ZM83.8326 105.095C83.8148 105.539 83.7616 106 83.8858 106.444C85.1461 106.444 86.4242 106.426 87.6845 106.444C87.791 106 87.7378 105.539 87.7378 105.077C87.72 105.059 87.6668 105.024 87.649 104.988C86.4064 104.977 85.158 104.977 83.9036 104.988C83.8858 105.024 83.8503 105.059 83.8326 105.095ZM83.8858 109.55C83.8858 110.012 83.8858 110.456 83.8858 110.917C85.1757 110.917 86.4597 110.917 87.7378 110.917C87.7733 110.456 87.7378 110.012 87.7555 109.55C87.649 109.497 87.5247 109.462 87.4005 109.479C86.3473 109.479 85.2941 109.479 84.2408 109.479C84.1166 109.462 83.9923 109.497 83.8858 109.55ZM83.8148 114.041C83.8503 114.503 83.7438 114.982 83.8858 115.426C85.1461 115.426 86.4242 115.426 87.6845 115.426C87.8088 114.982 87.72 114.503 87.7555 114.059C87.649 113.988 87.5247 113.97 87.4005 113.97C86.3473 113.97 85.2941 113.97 84.2408 113.97C84.0988 113.97 83.9568 114.006 83.8148 114.041Z" fill="#D5B527"/>
<path d="M77.2646 122.331C82.9449 122.331 88.6074 122.331 94.2877 122.331C94.3054 124.266 94.2877 126.183 94.2877 128.1C92.7789 128.118 91.27 128.1 89.7612 128.118C89.7257 127.603 89.7967 127.106 89.6902 126.609C87.0808 126.609 84.4892 126.609 81.8799 126.609C81.8621 127.106 81.8799 127.603 81.8799 128.1C80.3355 128.118 78.809 128.1 77.2646 128.118C77.2646 126.189 77.2646 124.26 77.2646 122.331Z" fill="#D5B527"/>
</svg>
