<svg xmlns="http://www.w3.org/2000/svg" width="200" height="200" fill="none" viewBox="0 0 200 200"><rect width="200" height="200" fill="#006b68" rx="40"/><path fill="#ffc62f" d="M161.251 104.011a29.9 29.9 0 0 0-6.125-6.887 59.3 59.3 0 0 0-26.137-13.488 1.393 1.393 0 0 1-1.069-1.526 58.4 58.4 0 0 0-3.377-27.052 36 36 0 0 0-4.254 2.346h-.134a53.53 53.53 0 0 1 2.156 28.426 1.48 1.48 0 0 0 .219 1.111 1.48 1.48 0 0 0 .945.625 54.22 54.22 0 0 1 33.521 18.505 62.6 62.6 0 0 1-25.623 13.355 1.43 1.43 0 0 0-1.087 1.469 62.2 62.2 0 0 1-7.307 32.432c32.186 11.446 56.492-21.195 38.157-49.392"/><path fill="#ffc62f" d="M123.36 47.236A59.7 59.7 0 0 0 96.212 71.14a1.393 1.393 0 0 1-1.775.591 58.7 58.7 0 0 0-26.71-5.15c.158 1.625.426 3.237.802 4.826v.115a53.4 53.4 0 0 1 27.702 6.734 1.47 1.47 0 0 0 2.003-.572 54.4 54.4 0 0 1 27.95-26.308l.687 1.66a61.3 61.3 0 0 1 4.159 26.88 1.43 1.43 0 0 0 1.068 1.488 61.7 61.7 0 0 1 23.448 12.248c1.736 1.507 3.434 3.052 5.056 4.731a31.7 31.7 0 0 0 5.437-10.798c9.826-26.365-17.361-51.185-42.717-40.35m-7.516 96.82v-.191a26 26 0 0 1-1.241-.839 53.9 53.9 0 0 1-17.17-20.985 1.465 1.465 0 0 0-1.908-.706 53.96 53.96 0 0 1-37.966 4.731 62.96 62.96 0 0 1 12.858-25.889 1.43 1.43 0 0 0 0-1.907 61.95 61.95 0 0 1-13.088-30.525v-.114a32 32 0 0 0-9.329 4.407C16.96 92.45 34.76 134.42 70.208 132.609a59 59 0 0 0 23.237-4.751 1.433 1.433 0 0 1 1.813.592 58.7 58.7 0 0 0 18.411 19.898 38 38 0 0 0 2.156-4.274"/><path fill="#ffc62f" d="M149.422 102.294a53.6 53.6 0 0 1-26.348 10.855 1.5 1.5 0 0 0-.545.18 1.5 1.5 0 0 0-.692.888 1.5 1.5 0 0 0-.041.573 53.55 53.55 0 0 1-7.25 37.583l-1.488-.954a61.05 61.05 0 0 1-19.079-19.287 1.43 1.43 0 0 0-1.736-.573 62.2 62.2 0 0 1-33.063 3.053c-1.64 31.592 34.971 47.904 56.511 23.885 9.387-10.149 12.783-26.232 11.619-39.758a1.47 1.47 0 0 1 1.144-1.526 58.96 58.96 0 0 0 24.669-11.561 37 37 0 0 0-3.568-3.358m-33.368-61.449c-21.883-24-60.117-5.056-56.072 26.499a59.4 59.4 0 0 0 14.06 31.153 1.43 1.43 0 0 1 0 1.908 59.14 59.14 0 0 0-13.125 23.79c1.565.352 3.152.6 4.75.744h.191a53.67 53.67 0 0 1 14.958-24.343 1.47 1.47 0 0 0 0-2.08 43 43 0 0 1-2.347-2.46 54.4 54.4 0 0 1-13.908-32.223c9.74-.845 19.54.606 28.618 4.236a1.43 1.43 0 0 0 1.755-.554 62.14 62.14 0 0 1 24.936-21.901 32 32 0 0 0-3.816-4.712"/></svg>