<svg xmlns="http://www.w3.org/2000/svg" width="200" height="200" fill="none" viewBox="0 0 200 200"><rect width="200" height="200" fill="#1f4396" rx="40"/><path fill="#fff" fill-rule="evenodd" d="M50 64.34C50 56.42 56.42 50 64.339 50h71.322C143.582 50 150 56.42 150 64.34v71.322c0 7.918-6.418 14.338-14.339 14.338H64.339C56.419 150 50 143.58 50 135.662zm58.44 35.848 31.753 32.366-.015-65.085a7.647 7.647 0 0 0-7.648-7.646h-11.077c6.399 1.458 13.012 13.538 3.902 22.929zM95.124 59.823h7.372c11.494 0 20.007 11.646 12.655 19.008l-21.33 21.357 39.21 39.998-41.378-.007c8.892 0 14.504-14.957 4.989-24.863l-14.53-15.128 16.916-17.436c9.108-9.39 2.497-21.47-3.904-22.93m-35.326 72.731a7.65 7.65 0 0 0 7.647 7.648h6.989c9.847 0 20.24-11.542 11.365-20.838l-18.305-19.176 21.33-21.357c7.35-7.362-1.161-19.008-12.655-19.008h-8.724a7.647 7.647 0 0 0-7.647 7.646z" clip-rule="evenodd"/></svg>