<svg xmlns="http://www.w3.org/2000/svg" width="40" height="40" fill="none" viewBox="0 0 40 40"><rect width="40" height="40" fill="#108de8" rx="8"/><path fill="#fff" fill-rule="evenodd" d="M19.243 10.036c-3.31.316-5.99 2.066-7.615 4.77-1.054 1.758-1.551 3.832-1.402 5.972.382 5.225 4.87 9.646 10.61 9.19 5.159-.415 9.406-5.052 8.975-10.75-.158-2.09-.888-3.807-2.05-5.366-.53-.705-.63-.714-1.177-1.286-.689-.713-2.132-1.534-3.053-1.9-1.227-.489-2.803-.77-4.288-.63" clip-rule="evenodd"/><path fill="#108de8" fill-rule="evenodd" d="M14.332 17.087c-.124.365-.05 4.387-.05 5.134 0 .804-.157 1.061 1.104 1.493 3.35 1.144 6.66-2.737 9.987-.821.149.09.34.273.381-.017l.009-5.184c0-.556.05-.73-.324-.987-2.978-2.073-6.196 1.477-9.216 1.078-1.12-.149-1.584-.721-1.891-.696" clip-rule="evenodd"/></svg>