<svg xmlns="http://www.w3.org/2000/svg" width="30" height="20" fill="none" viewBox="0 0 30 20"><g clip-path="url(#a)"><path fill="#039" d="M0 .05h30v19.9H0z"/><path fill="#fc0" d="m15 2.261-.344 1.051.529.172z"/><path fill="#fc0" d="m15 2.261.344 1.051-.53.172z"/><path fill="#fc0" d="M16.056 3.025h-1.111v.552z"/><path fill="#fc0" d="m16.056 3.025-.899.65-.326-.449z"/><path fill="#fc0" d="M15.653 4.261 15.31 3.21l-.529.172z"/><path fill="#fc0" d="m15.653 4.261-.9-.65.328-.448z"/><path fill="#fc0" d="M13.944 3.025h1.111v.552z"/><path fill="#fc0" d="m13.944 3.025.899.65.326-.449z"/><path fill="#fc0" d="m14.348 4.261.342-1.052.529.172z"/><path fill="#fc0" d="m14.348 4.261.898-.65-.327-.448zM15 15.527l-.344 1.053.53.17z"/><path fill="#fc0" d="m15 15.527.344 1.053-.53.17z"/><path fill="#fc0" d="M16.056 16.293h-1.111v.552z"/><path fill="#fc0" d="m16.056 16.293-.899.649-.326-.448z"/><path fill="#fc0" d="m15.653 17.528-.343-1.051-.529.17z"/><path fill="#fc0" d="m15.653 17.527-.9-.65.328-.447z"/><path fill="#fc0" d="M13.944 16.293h1.111v.552z"/><path fill="#fc0" d="m13.944 16.293.899.649.326-.448z"/><path fill="#fc0" d="m14.348 17.528.342-1.051.529.17z"/><path fill="#fc0" d="m14.348 17.527.898-.65-.327-.447zM8.334 8.894 7.99 9.945l.529.172z"/><path fill="#fc0" d="m8.334 8.894.342 1.051-.527.172z"/><path fill="#fc0" d="M9.39 9.658H8.28v.553z"/><path fill="#fc0" d="m9.39 9.658-.9.65-.325-.448z"/><path fill="#fc0" d="m8.988 10.896-.345-1.053-.528.17z"/><path fill="#fc0" d="m8.987 10.896-.9-.65.327-.449z"/><path fill="#fc0" d="M7.276 9.658H8.39v.553z"/><path fill="#fc0" d="m7.276 9.658.9.65.325-.448z"/><path fill="#fc0" d="m7.68 10.896.344-1.053.529.17z"/><path fill="#fc0" d="m7.68 10.896.9-.65-.327-.449zm3.333-5.746.9-.65-.327-.448z"/><path fill="#fc0" d="m11.013 5.15.345-1.052.527.17z"/><path fill="#fc0" d="m10.61 3.914.9.65.325-.448z"/><path fill="#fc0" d="M10.61 3.914h1.111v.552z"/><path fill="#fc0" d="m11.666 3.15-.342 1.052.527.17z"/><path fill="#fc0" d="m11.666 3.15.344 1.052-.529.17z"/><path fill="#fc0" d="m12.32 5.15-.9-.65.327-.448z"/><path fill="#fc0" d="m12.32 5.15-.344-1.052-.529.17z"/><path fill="#fc0" d="m12.724 3.914-.9.65-.325-.448z"/><path fill="#fc0" d="M12.724 3.914H11.61v.552zM9.88 7.577l-.344-1.05-.529.17z"/><path fill="#fc0" d="m9.88 7.577-.9-.65.327-.447z"/><path fill="#fc0" d="m8.574 7.577.898-.65-.326-.447z"/><path fill="#fc0" d="m8.574 7.577.342-1.05.529.17z"/><path fill="#fc0" d="m8.17 6.342.899.65.326-.448z"/><path fill="#fc0" d="M8.17 6.342h1.11v.553z"/><path fill="#fc0" d="m10.284 6.342-.9.65-.325-.448z"/><path fill="#fc0" d="M10.284 6.342H9.17v.553z"/><path fill="#fc0" d="M9.226 5.577 9.57 6.63l-.529.17z"/><path fill="#fc0" d="M9.226 5.577 8.884 6.63l.527.17zm1.058 7.398H9.17v.552z"/><path fill="#fc0" d="m10.284 12.975-.9.65-.325-.448z"/><path fill="#fc0" d="m9.88 14.211-.344-1.052-.529.172z"/><path fill="#fc0" d="m9.88 14.212-.9-.651.327-.448z"/><path fill="#fc0" d="m8.574 14.212.898-.651-.326-.448z"/><path fill="#fc0" d="m8.574 14.211.342-1.052.529.172z"/><path fill="#fc0" d="m9.226 12.211.344 1.051-.529.172z"/><path fill="#fc0" d="m9.226 12.211-.342 1.051.527.172z"/><path fill="#fc0" d="M8.17 12.975h1.11v.552z"/><path fill="#fc0" d="m8.17 12.975.899.65.326-.448zm4.554 2.428H11.61v.553z"/><path fill="#fc0" d="m12.724 15.403-.9.65-.325-.447z"/><path fill="#fc0" d="m12.32 16.64-.344-1.052-.529.17z"/><path fill="#fc0" d="m12.32 16.64-.9-.651.327-.448z"/><path fill="#fc0" d="m11.013 16.64.9-.651-.327-.448z"/><path fill="#fc0" d="m11.013 16.64.345-1.052.527.17z"/><path fill="#fc0" d="m11.666 14.64.344 1.05-.529.172z"/><path fill="#fc0" d="m11.666 14.64-.342 1.05.527.172z"/><path fill="#fc0" d="M10.61 15.403h1.111v.553z"/><path fill="#fc0" d="m10.61 15.403.9.65.325-.447zm11.056-6.509.344 1.051-.529.172z"/><path fill="#fc0" d="m21.666 8.894-.342 1.051.527.172z"/><path fill="#fc0" d="M20.61 9.658h1.111v.553z"/><path fill="#fc0" d="m20.61 9.658.9.65.325-.448z"/><path fill="#fc0" d="m21.013 10.896.345-1.053.527.17z"/><path fill="#fc0" d="m21.013 10.896.9-.65-.327-.449z"/><path fill="#fc0" d="M22.724 9.658H21.61v.553z"/><path fill="#fc0" d="m22.724 9.658-.9.65-.326-.448z"/><path fill="#fc0" d="m22.32 10.896-.344-1.053-.529.17z"/><path fill="#fc0" d="m22.32 10.896-.9-.65.327-.449zM18.987 5.15l-.9-.65.327-.448z"/><path fill="#fc0" d="m18.988 5.15-.345-1.052-.528.17z"/><path fill="#fc0" d="m19.39 3.914-.9.65-.325-.448z"/><path fill="#fc0" d="M19.39 3.914h-1.11v.552z"/><path fill="#fc0" d="m18.334 3.15.342 1.052-.527.17z"/><path fill="#fc0" d="m18.334 3.15-.344 1.052.529.17z"/><path fill="#fc0" d="m17.68 5.15.9-.65-.327-.448z"/><path fill="#fc0" d="m17.68 5.15.344-1.052.529.17z"/><path fill="#fc0" d="m17.276 3.914.9.65.325-.448z"/><path fill="#fc0" d="M17.276 3.914h1.113v.552zm2.844 3.663.344-1.05.529.17z"/><path fill="#fc0" d="m20.12 7.577.9-.65-.327-.447z"/><path fill="#fc0" d="m21.426 7.577-.899-.65.327-.447z"/><path fill="#fc0" d="m21.426 7.577-.342-1.05-.529.17z"/><path fill="#fc0" d="m21.83 6.342-.899.65-.326-.448z"/><path fill="#fc0" d="M21.83 6.342h-1.111v.553z"/><path fill="#fc0" d="m19.716 6.342.9.65.325-.448z"/><path fill="#fc0" d="M19.716 6.342h1.113v.553z"/><path fill="#fc0" d="M20.774 5.577 20.43 6.63l.529.17z"/><path fill="#fc0" d="m20.774 5.577.342 1.052-.527.17zm-1.058 7.398h1.113v.552z"/><path fill="#fc0" d="m19.716 12.975.9.65.325-.448z"/><path fill="#fc0" d="m20.12 14.211.344-1.052.529.172z"/><path fill="#fc0" d="m20.12 14.212.9-.651-.327-.448z"/><path fill="#fc0" d="m21.426 14.212-.899-.651.327-.448z"/><path fill="#fc0" d="m21.426 14.211-.342-1.052-.529.172z"/><path fill="#fc0" d="m20.774 12.211-.344 1.051.529.172z"/><path fill="#fc0" d="m20.774 12.211.342 1.051-.527.172z"/><path fill="#fc0" d="M21.83 12.975h-1.111v.552z"/><path fill="#fc0" d="m21.83 12.975-.899.65-.326-.448zm-4.554 2.428h1.113v.553z"/><path fill="#fc0" d="m17.276 15.403.9.65.325-.447z"/><path fill="#fc0" d="m17.68 16.64.344-1.052.529.17z"/><path fill="#fc0" d="m17.68 16.64.9-.651-.327-.448z"/><path fill="#fc0" d="m18.987 16.64-.9-.651.327-.448z"/><path fill="#fc0" d="m18.988 16.64-.345-1.052-.528.17z"/><path fill="#fc0" d="m18.334 14.64-.344 1.05.529.172z"/><path fill="#fc0" d="m18.334 14.64.342 1.05-.527.172z"/><path fill="#fc0" d="M19.39 15.403h-1.11v.553z"/><path fill="#fc0" d="m19.39 15.403-.9.65-.325-.447z"/></g><rect width="29.6" height="19.6" x=".2" y=".2" stroke="#8d8d8d" stroke-width=".4" rx="3.8"/><defs><clipPath id="a"><rect width="30" height="20" fill="#fff" rx="4"/></clipPath></defs></svg>