<svg xmlns="http://www.w3.org/2000/svg" width="200" height="200" fill="none" viewBox="0 0 200 200"><rect width="200" height="200" fill="#007dfe" rx="40"/><path fill="#022db8" stroke="#007cff" stroke-miterlimit="1.09" stroke-width=".03" d="M78.96 60.087a42.3 42.3 0 0 1 15.814-2c7.825.423 15.469 3.191 21.838 7.742.688.504 1.435.97 2.023 1.62a4.86 4.86 0 0 1 1.053 4.286c-.365 1.62-1.637 2.99-3.214 3.477-1.536.487-3.298.164-4.527-.868-4.75-3.657-10.536-5.965-16.498-6.53a30 30 0 0 0-6.591 0 32.4 32.4 0 0 0-17.265 7.176C66.07 79.5 62.048 85.845 60.474 92.8c-1.456 6.308-1.01 13.057 1.335 19.101 2.467 6.426 7.057 11.988 12.838 15.705a32.6 32.6 0 0 0 14.417 4.97c1.98.243 4.002.243 5.966.021 6.167-.524 12.129-2.89 17.026-6.669 1.233-.969 2.991-1.254 4.489-.747 2.064.709 3.537 2.911 3.277 5.092a4.7 4.7 0 0 1-1.8 3.255 41.7 41.7 0 0 1-12.981 6.854c-6.046 1.942-12.558 2.445-18.843 1.577a41.7 41.7 0 0 1-19.308-8.003 42.4 42.4 0 0 1-12.84-15.687 42.1 42.1 0 0 1-4.023-19.488c.222-8.225 2.954-16.354 7.766-23.044 5.178-7.278 12.68-12.877 21.188-15.646z"/><path fill="#70baf7" stroke="#6fbaf7" stroke-miterlimit="1.09" stroke-width=".03" d="M138.124 71.568c2.102-.625 4.569.365 5.58 2.345 4.854 9.48 6.977 20.314 6.104 30.926-.608 7.558-2.689 15.02-6.188 21.748-1.276 2.403-4.691 3.175-6.894 1.598-2.043-1.313-2.71-4.245-1.497-6.367 6.755-13.259 6.813-29.693.142-42.993-.608-1.091-.931-2.387-.625-3.62.344-1.72 1.699-3.176 3.378-3.637Z"/><path fill="#fff" stroke="#002cb8" stroke-miterlimit="1.09" stroke-width=".03" d="M78.314 77.248c8.572-5.176 20.16-5.034 28.489.608 2.064 1.514 2.488 4.748.889 6.753-1.435 1.959-4.41 2.546-6.449 1.233a16.86 16.86 0 0 0-10.959-2.508 16.76 16.76 0 0 0-10.111 4.89c-2.669 2.647-4.41 6.204-4.834 9.946-.386 3.032.122 6.166 1.377 8.955a17.12 17.12 0 0 0 8.349 8.431c3.76 1.778 8.169 2.063 12.13.83 5.299-1.619 9.683-6.002 11.202-11.321-3.801.021-7.603 0-11.404 0-1.82 0-3.579-1.132-4.326-2.768-.931-1.879-.444-4.324 1.133-5.7.81-.726 1.88-1.212 2.97-1.254 5.745-.042 11.463-.021 17.207-.021 1.88-.06 3.701 1.111 4.448 2.83.646 1.335.444 2.849.365 4.288-.504 6.224-3.315 12.231-7.767 16.635-4.267 4.287-10.027 7.055-16.052 7.659-5.924.646-12.05-.789-17.085-4.002-5.077-3.212-9.037-8.208-10.98-13.908-1.98-5.759-1.88-12.21.18-17.932 2.023-5.658 6.067-10.553 11.224-13.644z"/><path fill="#70baf7" stroke="#6fbaf7" stroke-miterlimit="1.09" stroke-width=".03" d="M124.983 79.898c2.081-.545 4.447.524 5.42 2.445 5.258 11.116 5.258 24.58 0 35.695-.667 1.313-2.001 2.286-3.478 2.525-1.72.302-3.558-.423-4.632-1.799-1.112-1.435-1.313-3.498-.503-5.113 3.923-8.511 3.86-18.716-.101-27.206-1.192-2.608.503-5.943 3.298-6.547z"/></svg>