<svg xmlns="http://www.w3.org/2000/svg" width="200" height="200" fill="none" viewBox="0 0 200 200"><rect width="199" height="199" x=".5" y=".5" fill="#fff" rx="39.5"/><rect width="199" height="199" x=".5" y=".5" stroke="#8d8d8d" rx="39.5"/><path fill="#fff" d="M155.736 100.365a55.3 55.3 0 0 1-9.328 30.738 55.34 55.34 0 0 1-56.813 23.524 55.33 55.33 0 0 1-43.48-43.473 55.32 55.32 0 0 1 23.532-56.798 55.35 55.35 0 0 1 69.88 6.883 55.33 55.33 0 0 1 16.209 39.126"/><path fill="#887369" d="M128.287 129.006a19 19 0 0 0-9.315-2.658 21.5 21.5 0 0 0-9.263 2.624 22.6 22.6 0 0 1-9.978 2.741 20.6 20.6 0 0 1-9.057-2.561 22.6 22.6 0 0 0-10.024-2.756 22 22 0 0 0-9.273 2.554 23.05 23.05 0 0 1-10.016 2.699h-.63c.412.51.828 1.012 1.26 1.5a25 25 0 0 0 10.005-2.809 20.4 20.4 0 0 1 8.654-2.429 21.1 21.1 0 0 1 9.375 2.624 22.1 22.1 0 0 0 9.69 2.696 24 24 0 0 0 10.617-2.872 20 20 0 0 1 8.625-2.474c3.042.069 6.015.928 8.625 2.493a20.7 20.7 0 0 0 10.323 2.868c.443-.506.882-1.031 1.309-1.56-.416.03-.814.049-1.241.049a19.5 19.5 0 0 1-9.709-2.699"/><path fill="#887369" d="M118.971 129.214a21.5 21.5 0 0 0-9.258 2.624 22.7 22.7 0 0 1-9.979 2.737 20.6 20.6 0 0 1-9.06-2.553 22.5 22.5 0 0 0-10.024-2.767 21.9 21.9 0 0 0-9.274 2.565 25.7 25.7 0 0 1-8.25 2.594c.432.457.867.918 1.313 1.353a29.6 29.6 0 0 0 7.538-2.568 20.34 20.34 0 0 1 8.654-2.429 21 21 0 0 1 9.376 2.624 22.06 22.06 0 0 0 9.697 2.688 23.95 23.95 0 0 0 10.609-2.872 20.05 20.05 0 0 1 8.625-2.47c3.043.065 6.017.926 8.625 2.497a22.5 22.5 0 0 0 7.773 2.699c.458-.457.919-.922 1.354-1.391a20.2 20.2 0 0 1-8.445-2.658 19 19 0 0 0-9.315-2.654"/><path fill="#887369" d="M118.972 132.075a21.55 21.55 0 0 0-9.259 2.602 22.64 22.64 0 0 1-9.979 2.741 20.5 20.5 0 0 1-9.06-2.561 22.7 22.7 0 0 0-10.024-2.763 21.9 21.9 0 0 0-9.273 2.564 33 33 0 0 1-5.787 2.175c.432.412.882.806 1.332 1.215a41 41 0 0 0 5.077-2.006 20.36 20.36 0 0 1 8.655-2.43 21 21 0 0 1 9.375 2.625 22 22 0 0 0 9.698 2.699 23.94 23.94 0 0 0 10.608-2.875 20 20 0 0 1 8.625-2.471c3.044.068 6.017.928 8.625 2.497a28.5 28.5 0 0 0 5.22 2.189l1.38-1.229a23.5 23.5 0 0 1-5.917-2.314 19 19 0 0 0-9.315-2.654"/><path fill="#887369" d="M118.975 134.943a21.4 21.4 0 0 0-9.259 2.625 22.7 22.7 0 0 1-9.979 2.729 20.56 20.56 0 0 1-9.06-2.553 22.5 22.5 0 0 0-10.023-2.756 21.85 21.85 0 0 0-9.274 2.561c-1.099.495-2.22.997-3.375 1.428.45.375.907.732 1.372 1.091a173 173 0 0 0 2.625-1.124 20.4 20.4 0 0 1 8.655-2.43 21 21 0 0 1 9.375 2.625 22 22 0 0 0 9.698 2.695 23.95 23.95 0 0 0 10.609-2.872 19.9 19.9 0 0 1 8.625-2.47c3.043.066 6.016.926 8.625 2.493.885.454 1.781.896 2.756 1.308a67 67 0 0 0 1.365-1.072 35 35 0 0 1-3.443-1.578 19 19 0 0 0-9.315-2.655"/><path fill="#887369" d="M118.971 137.804a21.5 21.5 0 0 0-9.258 2.624 22.75 22.75 0 0 1-9.98 2.729 20.56 20.56 0 0 1-9.06-2.553 22.5 22.5 0 0 0-10.023-2.755 21.9 21.9 0 0 0-9.274 2.56c-.322.143-.645.293-.963.428.476.348.952.69 1.432 1.005a.7.7 0 0 0 .15-.057 20.4 20.4 0 0 1 8.655-2.429 21.1 21.1 0 0 1 9.375 2.624 22 22 0 0 0 9.698 2.7 24 24 0 0 0 10.608-2.876 20 20 0 0 1 8.625-2.467c3.043.064 6.016.921 8.625 2.486l.334.165c.48-.319.945-.645 1.418-.979l-1.069-.532a19 19 0 0 0-9.315-2.655"/><path fill="#887369" d="M109.723 143.27a22.7 22.7 0 0 1-9.978 2.725 20.5 20.5 0 0 1-9.049-2.542 22.56 22.56 0 0 0-10.031-2.763c-2.67.073-5.296.705-7.707 1.856a32 32 0 0 0 1.594.975 16.1 16.1 0 0 1 6.109-1.32 21.1 21.1 0 0 1 9.375 2.625 22.1 22.1 0 0 0 9.698 2.688 23.94 23.94 0 0 0 10.608-2.872 20 20 0 0 1 8.625-2.471 14.9 14.9 0 0 1 6.398 1.414c.525-.312 1.042-.619 1.56-.949a17.3 17.3 0 0 0-7.958-1.972 21.46 21.46 0 0 0-9.255 2.624"/><path fill="#e71618" d="M100 40a60 60 0 0 0-33.334 10.11 59.974 59.974 0 0 0-9.092 92.294 60.01 60.01 0 0 0 92.314-9.091 59.98 59.98 0 0 0-7.462-75.743A60 60 0 0 0 100 40m0 110.412a50.44 50.44 0 0 1-46.593-31.12 50.41 50.41 0 0 1 10.926-54.946 50.43 50.43 0 0 1 54.956-10.935 50.43 50.43 0 0 1 31.137 46.575A50.42 50.42 0 0 1 100 150.412"/><path fill="#009b3b" d="M128.395 85.122a9.67 9.67 0 0 1-3.338 4.671c-2.34 1.875-17.857 11.375-19.62 13.561a12.92 12.92 0 0 0-2.04 7.873v18.24h2.419v-4.728a9.67 9.67 0 0 1 2.82-6.13 147 147 0 0 1 15.499-11.086 11.62 11.62 0 0 0 4.316-10.52V84.541z"/><path fill="#009b3b" d="M103.416 102.236c1.714-2.159 17.726-11.926 20.021-13.793a11.52 11.52 0 0 0 4.98-8.334v-20.43a13 13 0 0 1-3.686 7.788c-2.351 3.081-13.125 8.908-18.446 12.645a13.9 13.9 0 0 0-7.163 12.061v37.316h2.389v-19.477a12.44 12.44 0 0 1 1.909-7.757M91.258 81.113a191 191 0 0 1-15.993-13.358 14.06 14.06 0 0 1-3.75-7.907v18.974a14.19 14.19 0 0 0 6.033 11.056c4.733 3.457 11.404 8.48 13.403 10.498a15.03 15.03 0 0 1 3.885 10.805v18.307h2.362V92.986a12.02 12.02 0 0 0-5.94-11.873"/></svg>