<svg xmlns="http://www.w3.org/2000/svg" width="200" height="200" fill="none" viewBox="0 0 200 200"><rect width="200" height="200" fill="#00a4e4" rx="40"/><path fill="#fff" fill-rule="evenodd" d="M148.359 101.467c-.141 1.03-1.171 7.491-2.715 7.866q-.047 0-.047-.047c-.702.328-1.264-.093-1.264-.093-.515 3.932-3.23 9.832-7.161 17.838-2.856 5.853-5.758 11.472-3.417 13.766 1.966 1.966 5.383-2.482 4.306-.234-1.264 2.762-3.791 3.23-5.991 2.247-6.226-2.95 4.54-26.267 4.54-26.267l-.187.141s-5.804-1.732-5.289-15.311c0 0-7.209 2.856-13.153-2.06 9.642 8.569 5.055 23.505 5.055 23.505 4.166 22.38-15.446 26.407-15.446 26.407-9.783 2.622-16.664-2.248-16.664-2.248l-.14-.14c-11.327-1.639-15.868-6.836-15.446-14.047.468-7.772 6.927-9.879 10.344-9.692 3.276.188 5.196 2.201 5.43 3.652 0 0-6.6-2.575-11.047 1.639a6.64 6.64 0 0 0-1.638 2.81c-1.779 6.086 2.668 10.581 8.566 12.126-1.826-2.247-1.966-5.525-1.311-7.491 1.498-4.448 4.774-4.776 6.179-4.589 0 0-3.698 1.873-3.932 7.211-.14 3.933 4.634 5.712 4.634 5.712 15.633.562 18.02-11.799 18.02-11.799-5.336.843-7.582-.655-9.08-2.107-2.528-.281-5.664-1.358-6.179-3.839-.374-1.826.234-2.95 1.124-3.325 0 0-.234 2.435 2.995 3.84q.234.094.515.187c-.187-1.311 0-2.622.609-3.324.514-.609 1.123-.749 1.638-.703 0 0-2.153 4.308 1.544 4.402.749.046 1.358 0 1.92-.141l.374-.093c3.464-1.171 6.6-5.666 6.6-9.505 0-4.823-3.183-8.803-7.349-9.411l-2.106 2.154c-1.404 1.264-3.183 2.153-3.183 2.153 2.949 1.779.936 4.074-.28 4.261.561-1.966-.984-2.482-2.014-2.294-.093.234-.28.421-.561.608-.047.047-.094.047-.14.094q-.189.094-.469.187c-4.072 1.733-7.442.937-7.442.937q.047 0 .047-.047c-.609-.14-1.124-.468-1.545-1.077-2.153.843-.468 2.809.328 3.184-1.92.281-3.183-.843-3.417-2.435-.328-2.154 1.638-3.184 1.638-3.184 3.604-2.247 8.893-.515 8.893-.515 3.745-.796 6.273-5.01 6.273-5.01-4.822-1.17-7.443-3.23-7.443-3.23-.655.936-1.45 1.779-1.45 1.779-.703.562-1.358.983-1.358.983 1.123 1.499.187 4.308-2.481 3.746 1.357-.702.749-2.247-.28-2.294a3.2 3.2 0 0 1-.703.608v.047h-.047a2.3 2.3 0 0 1-.561.281c-2.715 1.077-6.6.328-6.647.375v-.047c-.421-.047-.843-.234-1.264-.609-1.544.328-1.217 1.92-.28 2.435-3.183 1.124-4.915-3.605-.562-5.291 4.774-1.92 9.174 0 9.174 0 3.557-1.17 3.978-4.448 3.978-4.448-2.012-1.78-3.51-3.886-4.306-6.227a.1.1 0 0 1-.093.093l.046.141c-3.65 6.695-11.327 4.495-11.327 4.495-1.966 7.538-8.332 7.725-8.332 7.725s.188 7.024-4.259 8.943c2.106 11.237 8.94 20.087 4.26 23.739-1.78 1.451-5.15.983-6.039-2.295-.42-1.545 2.294 2.295 4.26.375s-3.043-9.926-5.757-15.357c-3.37-6.836-4.962-15.03-5.009-15.124v.047c-.655.702-1.217.656-1.591.281-.047 0-.14-.047-.14-.047-1.264-1.264-1.873-8.568-1.873-8.568a40 40 0 0 1-.187-3.793A18 18 0 0 1 51 94.865v-1.17c.234-12.127 5.617-14.702 5.617-14.702-2.668-.094-1.03-2.575-1.03-2.575 3.557-6.602 8.425-10.676 12.357-13.391 7.396-5.104 11.655-2.06 11.187.515-1.31 8.006 6.553 4.307 8.472.936 1.92-3.324 4.26-6.227 4.26-6.227l.374-.609c-2.34.281-4.12-.983-4.493-2.809-.281-1.124.28-2.481 1.45-2.294.796.093 1.218.89 1.03 1.451-.187.515-.702.89-1.217.609.421 1.498 2.434 2.2 4.54 1.31l.469-.561s-.656.047-1.03 0c-1.404-.234-1.545-1.358-1.451-1.873.094-.655.89-1.358 1.544-1.123 1.405.515.375 2.06-.28 1.545.187 1.077 2.948-.047 2.948-.047 7.022-7.679 13.387-1.498 13.387-1.498 2.107-.422 3.09 1.638 3.09 1.638 6.365.094 4.399 3.746 3.276 4.355-.562-1.826-2.668-1.311-4.259-.984-2.668.515-3.651 1.311-5.102 2.435-2.153 1.686-3.604 3.793-4.26 6.555-.608 2.575 1.685 5.712 5.523 6.18 3.23.422 7.349-1.31 6.975-5.712-.609-6.32 5.71-7.398 11.374-4.776 10.531 4.87 16.008 11.284 16.008 11.284 3.276 3.653.281 3.887.281 3.887 2.855 2.809 4.493 5.712 5.382 7.772q.048.093.094.234.093.234.234.562c.468 1.264.655 2.107.655 2.107.047.14.047.28.047.421.655 2.856 1.077 7.257-.093 13.157m-42.314 25.799q-.093 0-.14.046a.4.4 0 0 1 .14-.046m-3.37-74.072c.047.703.608 1.311 1.123 1.405.983.187 1.17-.375 2.341-.421-.234-.188-.468-.422-.796-.656-.141.562-.609.936-1.17.843a1.166 1.166 0 0 1-.936-1.311v-.047c-.234.047-.328.094-.562.187m1.17.188c0 .28.187.468.468.468.234 0 .421-.187.421-.468a.5.5 0 0 0-.046-.235c-.188-.093-.422-.14-.609-.187a.49.49 0 0 0-.234.422m10.204 78.238-.374 1.451c-3.324 12.829-16.242 13.719-16.242 13.719 8.097 2.013 15.259-2.575 18.348-5.806 4.634-4.776 4.025-12.642 4.025-12.642-.281-1.451-.842-.468-.842-.468-1.685 2.95-4.915 3.746-4.915 3.746" clip-rule="evenodd"/></svg>