<svg xmlns="http://www.w3.org/2000/svg" width="40" height="40" fill="none" viewBox="0 0 40 40"><rect width="40" height="40" fill="#e9232a" rx="8"/><path fill="#fff" d="M8.8 30.766c-.457-.238-.816-.447-.8-.464.059-.059 2.242-.526 3.767-.807 3.3-.607 7.223-1.093 11.13-1.378 1.61-.118 7.431-.122 8.441-.006l.662.076-.746.012c-1.325.02-4.363.234-6.743.473-4.505.454-9.514 1.29-13.137 2.193-.74.184-1.436.335-1.545.335-.11 0-.573-.195-1.03-.434m6.298-4.55c-.067-.188.216-.272.34-.326.554-.238.945-.627 1.075-1.072.063-.212.253-1.414.423-2.67s.323-2.228.34-2.285c.012-.042.046-.192.225-.208.459-.004.799.002 1.269.002.26-.026.208.26.188.442-.02.23-.082.676-.154 1.218l-.292 2.2c-.163 1.23-.254 1.61-.536 2.244-.336.754-.849 1.192-1.78 1.504-.187.059-.726.243-.784.08-.122-.392-.208-.732-.314-1.13m10.684-.413c-.62-.251-.59-1.221.06-1.62.411-.251.99-.208 1.286.09.732.735-.344 1.936-1.346 1.53m-4.686-.58c-1.823-.312-1.81-2.493-1.402-3.74.511-1.442 1.757-1.861 2.781-1.898.864-.03 2.063.132 2.363.318.084.052.044.552-.188 2.406-.16 1.287-.337 2.394-.391 2.46-.289.349-2.222.627-3.163.454m1.59-1.726c.196-.73.278-1.39.418-2.16-.017-.266-.464-.268-.578-.269-.591 0-.941.334-1.126 1.075-.254 1.017.011 1.583.741 1.583.231-.022.472-.009.545-.229m-13.32 1.139c.498-1.222 2.499-5.596 2.98-6.501.09-.226.33-.27.493-.286.47-.022.877-.016 1.29-.013.427.003.433.153.488.471.067.317.898 5.295 1.086 6.49.024.199.072.26-.185.261-.357.001-1.215.048-1.507.026a.19.19 0 0 1-.168-.143 6 6 0 0 1-.077-.577l-.053-.596h-2.139l-.233.573a8 8 0 0 1-.242.538c-.048.122-.118.178-.224.201-.262-.002-1.19.032-1.538.002-.173-.08-.017-.335.029-.446m4.158-2.525a62 62 0 0 0-.283-2.226c-.012-.026-.018-.018-.031-.002-.126.19-.81 1.874-.926 2.265-.014.054.02.074.071.07.174-.013.882-.026 1.098-.034.061-.005.068-.027.071-.073m12.341.806c.028-.217.088-.805.135-1.308.046-.502.12-1.287.165-1.744a42 42 0 0 0 .076-.86c.026-.159.217-.177.343-.179.419.005.813-.02 1.19.015.178.018.252.058.253.164-.17.874-.78 3.891-.827 4.078-.041.161-.057.209-.302.223-.3-.005-.551.01-.855.01-.175-.003-.222-.055-.178-.399m-8.452-4.482c0-.533.342-.94.77-1.11.37-.13.784-.13 1.005.123.392.457.135 1.132-.323 1.484-.586.404-1.442.165-1.452-.497m10.5-1.124c-.127-.285-.538-1.186-.912-2-.374-.816-.66-1.535-.636-1.598s.44-.583.926-1.155l.79-.93c.051-.063.11-.14.182-.14.476.002.97.03 1.424.026.338-.003.508-.025.257.23-.16.2-.477.566-.84.967-.523.58-.95 1.069-.95 1.088s.392.884.871 1.923c.377.816.688 1.546.793 1.85.045.104.006.193-.09.217-.127.03-.355.041-.748.041h-.589c-.144.016-.25-.01-.305-.133zm-17.614-.607c-.53-.265-.78-.6-.826-1.106-.027-.302.466-4.373.685-5.668.053-.304.076-.321.367-.321h.571c.3 0 .573-.005.745.005.235.003.192.152.174.33-.04.396-.166 1.256-.324 2.363-.28 1.965-.351 2.658-.284 2.765.078.125.277.145 1.597.165l1.18.018c.282-.016.34.053.312.307-.069.42-.106.753-.175 1.13-.047.233-.198.172-.433.187l-1.38.019c-1.77.022-1.779.021-2.21-.194m13.611.15c-.018-.034.032-.51.11-1.058s.241-1.726.363-2.616c.344-2.529.458-3.29.506-3.582.05-.34.05-.321.383-.321h.526c.206 0 .366-.003.49.001.473.015.413-.025.294.71-.046.277-.196 1.5-.334 2.528-.349 2.587-.578 4.174-.62 4.297-.039.115-1.66.154-1.718.042m-8.997-.196c.22-1.85.43-3.248.673-4.97.018-.205.22-.23.456-.23.268 0 .54-.003.796.005.495.002.625.069.574.4-.22 1.616-.49 3.058-.775 4.701-.053.278-.118.27-.383.27-.308.001-.855.011-1.135.004-.163-.03-.2-.048-.206-.18m3.491-4.14c.136-.716.23-.827.427-.957.243-.16 2.04-.327 2.66-.247q.13.019.248.047c1.818.433 1.535 2.499 1.417 3.449a54 54 0 0 1-.272 1.837c-.043.179-.082.187-.905.187-.276 0-.42-.01-.578-.024-.255-.017-.278-.074-.253-.26.093-.758.218-1.412.311-2.12.125-.967.092-1.922-1.103-1.717-.205.053-.261.069-.29.274-.149.955-.28 1.941-.416 2.875a10 10 0 0 1-.115.663c-.01.052-.017.1-.026.134-.013.041-.04.084-.068.042-.192-.351-1.096-.293-1.473-.035-.189.132-.228.203-.15-.2l.04-.255c.186-1.232.312-2.445.546-3.694m-2.58-2.117c-.202-.691.4-1.374 1.072-1.398.913-.061 1.164 1.198.231 1.769-.54.248-1.108.195-1.303-.371"/></svg>