<svg xmlns="http://www.w3.org/2000/svg" width="40" height="20" fill="none" viewBox="0 0 40 20"><g clip-path="url(#a)"><path fill="#fff" d="M0 0h40v20H0z"/><path fill="#c00" d="M40 8.585v1.4H1.429v-1.4zm0-2.856v1.4H1.429v-1.4zm0-2.857v1.4H1.429v-1.4zm0-2.858v1.4H1.429v-1.4z"/><path fill="#006" d="M0 0h20v12.143H0z"/><path fill="#c00" d="M40 17.158v1.399H0v-1.4zm0-2.858v1.4H0v-1.4zm0-2.857v1.4H0v-1.4z"/><path fill="#fc0" d="m12.5 2.143.319 2.178 1.232-1.824-.661 2.101 1.902-1.11-1.506 1.607 2.196-.175-2.053.794 2.053.795-2.196-.176 1.506 1.607-1.902-1.11.66 2.102-1.232-1.825-.318 2.179-.319-2.179-1.232 1.825.661-2.102-1.902 1.11 1.506-1.607-2.196.176 2.053-.795-2.053-.794 2.196.175-1.506-1.607 1.902 1.11-.66-2.101 1.232 1.824zm-1.786.09a3.81 3.81 0 1 0 0 6.963 4.286 4.286 0 1 1 0-6.964"/></g><defs><clipPath id="a"><path fill="#fff" d="M0 0h40v20H0z"/></clipPath></defs></svg>