<svg xmlns="http://www.w3.org/2000/svg" width="200" height="200" fill="none" viewBox="0 0 200 200"><rect width="200" height="200" fill="#ffcf00" rx="40"/><path fill="#000" fill-rule="evenodd" d="M99.97 50C72.373 50 50 72.384 50 100.003 50 127.589 72.373 150 99.97 150c27.595 0 49.983-22.411 49.983-49.997C149.953 72.384 127.565 50 99.97 50m0 96c-25.39 0-45.979-20.62-45.979-45.997 0-25.393 20.59-46.002 45.98-46.002 25.404 0 45.975 20.61 45.975 46.002 0 25.377-20.571 45.997-45.976 45.997" clip-rule="evenodd"/><path fill="#000" fill-rule="evenodd" d="M80.042 97.69c-3.576-.887-6.713 3.286-8.48 6.452.61-4.328 5.914-11.392 8.48-6.452m-7.888.07c1.209-4.106 4.06-5.6 5.556-4.418-2.025.644-3.565 1.879-5.556 4.418m9.156 6.592c1.835-1.564 1.652-3.843-1.198-4.59-2.133-.558-6.68 3.252-7.156 7.461 1.799-2.332 7.086-6.611 8.354-2.871m28.666 10.94c.358-5.41-4.894-7.966-5.93-13.478-.982-5.55 8.208-14.401 2.4-23.482 10.957 8.836 2.375 14.07 7.911 21.43-2.138-.61-4.278-2.577-4.894-3.55-3.104 4.053 7.566 9.636.513 19.08M92.361 71.705l2.626 1.914c-3.053 2.819-7.165 1.69-10.425 4.54 1.34-3.548 7.304-4.069 7.8-6.454" clip-rule="evenodd"/><path fill="#000" fill-rule="evenodd" d="M102.211 75.689c1.262-1.391.105-3.392-5.111-4.053 5.433 2.696-3.315 3.234-3.636 7.791-2.825 1.132-5.119-.728-6.546.557l-2.496-1.076c-1.652.85-1.337 3.112.287 3.791l.355.712c-1.763 1.635-2.58 3.096-.728 4.73 1-1.86 1.497-2.487 2.635-3.426 1.05.73 2.904.226 5.39-2.486l.216.07c-1.99 6.817-7.033 7.912-8.649 7.583.99 1.477 7.407 2.381 8.188-.507 1.855-6.487 8.087-9.268 2.705-9.165 1.444-1.703 6.357-3.34 7.39-4.521m-13.587 7.914-.872-1.271c.497 1.34 1.835.696 1.07-1.2l2.583-.016zm16.293-11.392c2.599 1.67 3.834 2.818 5.537 4.816.339-2.746-1.242-8.26-3.557-9.532z" clip-rule="evenodd"/><path fill="#000" fill-rule="evenodd" d="M63.304 94.37c1.676-4.401 5.79-9.689 12.433-13.654 1.514-3.948 1.007-6.643 17.092-12.836.41-2.384.341-5.235.993-5.235.695 0 3.086 1.026 4.755 3.496l1.783-.207c.285-1.412 1.226-5.237 2.494-7.135 1.159-1.84 3.4-2 6.27.368 3.008 2.434 5.104 3.478 9.225 8.713 3.451 1.566 8.877 3.547 13.563 9.253-2.027-1.288-4.347-1.808-6.232-2 3.832 3.288 6.354 8.852 4.417 16.958-.731-7.583-6.305-10.749-9.704-13.166 1.851 6.417-6.165 4.19-8.582-.593l2.121-.12c-.271-9.74-4.843-15.342-6.896-17.044-2.615-2.193-4.026 3.043-4.911 6.99l-2.834 2.174.746-2.12c-4.06.328-8.615 2.712-11.413 3.98-7.105 3.236-8.904 4.802-10.47 10.23-5.625 2.364-12.12 8.852-14.85 11.948" clip-rule="evenodd"/><path fill="#000" fill-rule="evenodd" d="M98.812 93.046c.747.87 5.452 7.931.017 16.995 1.496-6.663-2.633-19.324-7.19-12.855 3.077 1.34 4.097 3.86 3.27 6.297-1.263-2.331-4.487-4.904-7.67-3.828-1.608.524-3.704.541-5.278-1.773-2.042-3.009 1.392-6.73-4.485-6.436 7.129-3.617 5.059 3.39 8.476 4.21 3.976.972 4.436-1.495 5.808-3.044 1.122-1.374 3.148-2.348 5.27-.937 1.034-3.113-.444-8.002 2.443-10.628 1.087-.956 4.487-.818 6.242.557-2.486-.036-5.443 2.974-6.903 11.442" clip-rule="evenodd"/><path fill="#000" fill-rule="evenodd" d="M135.086 80.629c3.609 12.607 2.6 24.748-1.122 31.984.444-4.54-3.529-11.166-1.929-18.89-7.547 7.323 4.261 25.325-12.886 37.117 2.565-4.123 3.72-14.383 2.827-18.088l2.407 2.454c1.426-4.698 1.599-11.412-1.086-18.124l3.737 1.825c.428-10.435-7.191-11.2-8.615-14.052 0 3.043 3.557 5.583 4.198 9.601-2.496-1.22-4.311-1.34-5.589-1.22 1.921 1.41 6.216 9.724 4.948 16.367-1.855-1.547-3.557-2.278-5.428-2.397 2.298 3.443 3.219 12.504.375 16.59l-1.477-4.748c-1.357 5.08-5.314 7.183-8.019 7.792 3.385-3.478 2.705-9.723-2.206-11.392-4.417-1.53-10.062 1.497-12.303 12.018-3.225.94-12.806-1.097-7.085-7.286 3.502 1.199 12.389-4.768 11.788-8.958-.843-5.792-6.13-7.827-10.328-7.775-5.183.052-8.711 4.871-12.946 7.009-3.55-.538-4.758-1.026-6.556-5.774-.226-2.887 2.85-4.888 2.797-7.862-2.529.54-3.137-3.305-8.048.68l.268-2.419c-1.818 1.636-2.156 3.584-2.192 3.985.871 1.721 2.123 3.284 4.54 4.92 2.886 7.704 5.86 8.574 8.92 8.889.54.728 2.8 3.425 5.678 3.878l-.262-6.593c6.288-6.296 10.93-2.452 11.555-.799-5.572 1.147-1.633 13.079-10.876 7.756-.39 1.235.14 4.279 1.295 6.054.95 8.173 11.217 6.172 14.409 7.617-.341-7.948 4.06-13.757 7.833-13.253 3.772.434 4.755 6.679-1.714 12.471 1.608.834 8.529-.331 12.042-2.888.34 2.018-2.26 8.001-5.503 12.19a40.097 40.097 0 0 0 26.553-58.68M66.582 102.89l-3.505-3.74 2.688-1.86 1.497.625-1.288 1.096 1.139 2.034zm9.007 9.009 2.26-1.687c-.242 2.052.504 4.801.504 4.801zm14.12 1.965 1.965.156-.52-2.974 2.973 1.026c-.305 2.349-1.766 3.08-5.304 4.783zm-7.138 7.793-1.175-2.818 2.81 1.129z" clip-rule="evenodd"/></svg>