<svg xmlns="http://www.w3.org/2000/svg" width="40" height="40" fill="none" viewBox="0 0 40 40"><rect width="40" height="40" fill="#4c2a86" rx="8"/><path fill="#fff" d="M19.87 24.588c-.089-.012-.179-.016-.268-.03a1.67 1.67 0 0 1-1.056-.603 3 3 0 0 1-.472-.863c-.114-.302-.197-.614-.287-.924l-.462-1.598-.717-2.476a1 1 0 0 0-.182-.366.58.58 0 0 0-.453-.207q-.413-.005-.824 0c-.032 0-.044-.005-.043-.042q.003-.3 0-.603c0-.031.009-.039.04-.039l.914.001c.202 0 .399.026.584.115.235.112.396.296.507.527.08.165.12.344.171.52q.241.84.479 1.68l.802 2.809c.08.28.18.553.337.802.154.243.352.44.634.525.39.116.77.098 1.118-.136.205-.138.343-.336.454-.553a4.3 4.3 0 0 0 .287-.789l.604-2.117.718-2.511c.067-.233.178-.441.362-.604a1.05 1.05 0 0 1 .546-.249c.107-.017.214-.018.322-.019h.863c.03 0 .039.007.039.038q-.003.304 0 .607c0 .033-.012.037-.04.037h-.792a.615.615 0 0 0-.6.387c-.07.152-.107.314-.153.473l-.61 2.103q-.314 1.091-.631 2.182a4.4 4.4 0 0 1-.402.983c-.179.309-.41.566-.73.734a1.8 1.8 0 0 1-.65.19l-.156.016z"/><path fill="#fff" d="M15.714 15.806h.548c.24.002.478.029.708.104.414.134.721.398.947.765.162.265.267.554.352.851l.548 1.9.82 2.84c.03.101.055.203.1.297.041.088.093.165.195.19a.25.25 0 0 0 .27-.097c.07-.095.1-.206.133-.316l.64-2.22.7-2.42c.07-.245.138-.492.244-.726.118-.26.268-.5.479-.698.233-.219.51-.353.82-.419a2.7 2.7 0 0 1 .555-.051h1.072c.032 0 .042.006.042.04q-.003.303 0 .606c0 .031-.01.036-.038.036-.34 0-.682-.004-1.024.002-.245.004-.483.05-.703.168-.262.142-.433.365-.556.63-.1.217-.156.449-.223.677l-.651 2.224q-.315 1.083-.633 2.166a3 3 0 0 1-.283.703.87.87 0 0 1-.413.383 1 1 0 0 1-.4.066.82.82 0 0 1-.56-.211 1.2 1.2 0 0 1-.235-.326 4 4 0 0 1-.273-.742l-.645-2.206q-.351-1.208-.705-2.413a1.9 1.9 0 0 0-.324-.657 1.2 1.2 0 0 0-.683-.417 2 2 0 0 0-.468-.048l-.926.001c-.031 0-.038-.008-.038-.038v-.603c0-.032.007-.042.04-.042q.285.002.568.001M34 19.97c-.008-.013-.004-.028-.004-.042q.004-.171-.01-.342a5 5 0 0 0-.15-.828 4.3 4.3 0 0 0-.636-1.36 4 4 0 0 0-.647-.728 4.3 4.3 0 0 0-1.634-.895 4.4 4.4 0 0 0-1.294-.174c-.053.002-.105-.003-.157.003a5 5 0 0 0-.74.062 4.3 4.3 0 0 0-1.35.45 4 4 0 0 0-1.662 1.63c-.38.688-.55 1.43-.572 2.21q-.012.432.044.86.061.485.223.945a4.1 4.1 0 0 0 2.183 2.413c.512.237 1.05.363 1.612.399l.255.015h.236c.01-.007.02-.004.03-.004a4 4 0 0 0 1-.114 4.24 4.24 0 0 0 1.903-1 4 4 0 0 0 .532-.6q.278-.389.468-.824a4.4 4.4 0 0 0 .296-.987 4 4 0 0 0 .07-.782c0-.013-.004-.027.004-.039zm-.734.224c-.012.599-.12 1.178-.376 1.723a3.28 3.28 0 0 1-1.517 1.574 3.6 3.6 0 0 1-1.02.333 4.6 4.6 0 0 1-1.11.054 3.7 3.7 0 0 1-1.551-.434c-.707-.385-1.202-.958-1.511-1.697a4 4 0 0 1-.268-1.032 5 5 0 0 1-.038-.612c.002-.485.064-.96.22-1.422.148-.44.367-.84.669-1.193q.413-.477.971-.768c.379-.2.782-.322 1.205-.38a4.5 4.5 0 0 1 1.012-.025c.687.061 1.318.275 1.878.683.425.31.752.701.993 1.166.2.385.326.793.39 1.222q.06.402.053.808M14.78 19.24a4.4 4.4 0 0 0-.445-1.352 4.13 4.13 0 0 0-2.076-1.927 4.5 4.5 0 0 0-1.766-.357h-.175a5 5 0 0 0-.786.07q-.669.114-1.273.425a4.02 4.02 0 0 0-1.77 1.797q-.266.526-.384 1.102c-.062.297-.1.597-.105.9v.412c.004.222.028.442.063.66q.11.696.43 1.324c.255.5.593.937 1.028 1.296.789.65 1.703.96 2.718.99h.38c.168 0 .333-.017.498-.038q.515-.064.999-.247a4.06 4.06 0 0 0 1.749-1.251c.626-.775.93-1.67.978-2.66q.03-.576-.062-1.144m-.875 2.268a3.5 3.5 0 0 1-.72 1.253 3.36 3.36 0 0 1-1.752 1.015 4.4 4.4 0 0 1-1.285.104 3.8 3.8 0 0 1-1.413-.34 3.3 3.3 0 0 1-.897-.607 3.5 3.5 0 0 1-.954-1.615 4.3 4.3 0 0 1-.153-1.004q-.016-.39.028-.777c.083-.724.326-1.385.783-1.959a3.3 3.3 0 0 1 1.44-1.035c.314-.12.64-.19.975-.223q.425-.042.849-.005c.728.065 1.392.302 1.971.755.377.295.67.659.891 1.081.195.372.32.765.388 1.179.042.257.06.515.062.744-.001.51-.062.979-.213 1.434"/><path fill="#fff" d="M32.794 18.994a3.2 3.2 0 0 0-.775-1.391 3 3 0 0 0-1.004-.696 3.4 3.4 0 0 0-.987-.255 4.4 4.4 0 0 0-.687-.018 3.5 3.5 0 0 0-.933.17 3.04 3.04 0 0 0-1.784 1.5 3.6 3.6 0 0 0-.388 1.262 4.6 4.6 0 0 0-.025.786c.017.345.075.683.184 1.012.148.444.375.842.694 1.185.371.399.82.675 1.338.841.42.135.851.18 1.29.167.291-.008.578-.045.858-.12.522-.14.984-.388 1.375-.762.324-.31.56-.68.725-1.096a3.9 3.9 0 0 0 .262-1.47c0-.407-.04-.739-.144-1.116m-.608 1.483c-.059.558-.244 1.066-.605 1.502a2.4 2.4 0 0 1-1.138.757 2.9 2.9 0 0 1-.985.125 2.6 2.6 0 0 1-1.427-.451 2.4 2.4 0 0 1-.864-1.085c-.164-.391-.23-.8-.23-1.2 0-.468.072-.9.26-1.308.36-.775.959-1.26 1.795-1.434a2.75 2.75 0 0 1 1.65.146q.817.343 1.23 1.129c.17.323.268.668.31 1.03q.045.395.004.789m-18.429-.918a3.7 3.7 0 0 0-.222-.9 3.1 3.1 0 0 0-.914-1.29c-.517-.428-1.116-.656-1.78-.721a4 4 0 0 0-1.043.028c-.342.054-.67.153-.978.31-.723.364-1.217.936-1.51 1.685a3.9 3.9 0 0 0-.253 1.39 4.5 4.5 0 0 0 .046.69c.06.399.177.777.366 1.132.25.469.593.852 1.039 1.142.452.295.95.46 1.486.514q.488.051.977-.012a3.4 3.4 0 0 0 1.129-.349c.403-.21.746-.494 1.018-.86.415-.56.614-1.198.661-1.887q.031-.437-.022-.872m-.982 1.882c-.327.684-.86 1.124-1.59 1.327a2.9 2.9 0 0 1-.97.089 2.6 2.6 0 0 1-1.129-.32 2.4 2.4 0 0 1-1.066-1.212 2.9 2.9 0 0 1-.207-.81 3.4 3.4 0 0 1 .112-1.365c.137-.451.372-.844.721-1.164a2.47 2.47 0 0 1 1.211-.607q.44-.086.885-.038a2.5 2.5 0 0 1 1.542.715c.342.34.558.755.675 1.22.072.284.097.524.097.83.002.465-.08.913-.281 1.335"/></svg>