<svg xmlns="http://www.w3.org/2000/svg" width="200" height="200" fill="none" viewBox="0 0 200 200"><rect width="200" height="200" fill="#2ff19e" rx="40"/><path fill="#fff" d="M122.016 66c-7.533 0-15.197 3.151-20.086 8.146l2.774 5.517-1.173.932C98.348 71.709 88.818 66 78.673 66c-15.853 0-28.67 13.793-28.67 29.95v34.812a2.12 2.12 0 0 0 .626 1.61 2.16 2.16 0 0 0 1.618.626h11.498c.557 0 1.092-.22 1.486-.612.395-.392.616-.924.616-1.478v-35.22c0-8.013 4.89-14.579 13.213-14.579 7.794 0 13.343 5.776 13.343 14.315v28.901a2.08 2.08 0 0 0 .563 1.571 2.1 2.1 0 0 0 1.54.661h10.989a2.11 2.11 0 0 0 1.985-1.388c.096-.27.136-.557.117-.844V95.424c0-8.539 5.814-14.315 13.608-14.315 8.324 0 12.948 6.566 12.948 14.578v35.209c.026.57.276 1.108.695 1.498.419.391.976.603 1.55.591h11.351a2.16 2.16 0 0 0 1.621-.624 2.15 2.15 0 0 0 .628-1.612V95.951C149.998 79.793 137.71 66 121.987 66"/></svg>