<svg xmlns="http://www.w3.org/2000/svg" width="200" height="200" fill="none" viewBox="0 0 200 200"><rect width="200" height="200" fill="#013089" rx="40"/><path fill="#feffff" d="m77.898 155.932 2.08-13.21-4.633-.107H53.22l15.376-97.477a1.256 1.256 0 0 1 1.248-1.066h37.306c12.385 0 20.932 2.577 25.394 7.663 2.092 2.386 3.425 4.88 4.069 7.623.676 2.88.688 6.319.028 10.514l-.048.306v2.688l2.092 1.185a14.7 14.7 0 0 1 4.236 3.23c1.79 2.04 2.947 4.632 3.436 7.706.505 3.161.338 6.923-.489 11.182-.955 4.899-2.498 9.166-4.582 12.657a26 26 0 0 1-7.258 7.953c-2.768 1.965-6.057 3.456-9.776 4.41-3.603.939-7.712 1.412-12.218 1.412h-2.903a8.8 8.8 0 0 0-5.676 2.088 8.8 8.8 0 0 0-2.959 5.28l-.218 1.189-3.675 23.283-.167.855c-.044.27-.12.405-.231.497a.62.62 0 0 1-.382.139z"/><path fill="#7590bd" d="M140.666 70.488q-.167 1.067-.382 2.187c-4.92 25.255-21.751 33.98-43.248 33.98H86.091a5.315 5.315 0 0 0-5.254 4.501l-5.603 35.535-1.587 10.072A2.797 2.797 0 0 0 76.41 160h19.412a4.67 4.67 0 0 0 4.614-3.937l.191-.986 3.655-23.191.234-1.273a4.67 4.67 0 0 1 4.614-3.944h2.903c18.808 0 33.532-7.635 37.835-29.729 1.798-9.23.867-16.936-3.89-22.356a18.6 18.6 0 0 0-5.313-4.096"/><path fill="#afc2d9" d="M135.519 68.436a39 39 0 0 0-4.785-1.062 61 61 0 0 0-9.648-.704h-29.24a4.66 4.66 0 0 0-4.61 3.945l-6.22 39.392-.18 1.149a5.314 5.314 0 0 1 5.255-4.502h10.945c21.497 0 38.328-8.728 43.248-33.98.147-.747.27-1.474.381-2.186a26 26 0 0 0-4.044-1.706 37 37 0 0 0-1.102-.346"/><path fill="#feffff" d="M87.236 70.615a4.65 4.65 0 0 1 4.61-3.94h29.24c3.464 0 6.697.226 9.648.703a39 39 0 0 1 5.891 1.404q2.177.722 4.044 1.706c1.464-9.333-.012-15.687-5.059-21.441C130.046 42.712 120.004 40 107.154 40H69.848a5.33 5.33 0 0 0-5.27 4.505L49.04 142.984a3.204 3.204 0 0 0 3.162 3.706h23.032l5.783-36.683z"/></svg>