<svg xmlns="http://www.w3.org/2000/svg" width="40" height="20" fill="none" viewBox="0 0 40 20"><g clip-path="url(#a)"><path fill="#0038a8" d="M0 0h40v10L6.222 19.778z"/><path fill="#ce1126" d="M6.222 10H40v10H0z"/><path fill="#fff" d="M17.32 10 0 20V0z"/><path fill="#fcd116" d="M6.222 12a2 2 0 1 0 0-4 2 2 0 0 0 0 4"/><path fill="#fcd116" d="M6.222 10 5.52 6.465l.21-.21zm0 0-.26-3.962.26-.26.26.26zm0 0 .493-3.746.21.21zm0 0 .703 3.535-.21.21zm0 0 .26 3.962-.26.26-.26-.26zm0 0-.493 3.746-.21-.21zm0 0 3.536-.703.21.21zm0 0 3.963-.26.26.26-.26.26zm0 0 3.746.493-.21.21zm0 0-3.535.703-.21-.21zm0 0-3.962.26L2 10l.26-.26zm0 0-3.745-.493.21-.21zm0 0 2.003-2.997h.297zm0 0L8.84 7.014h.368v.368zm0 0L9.22 7.7v.297zm0 0L4.22 12.997h-.298zm0 0-2.618 2.986h-.367v-.368zm0 0-2.997 2.3v-.297zm0 0 2.997 2.003v.297zm0 0 2.986 2.618v.368H8.84zm0 0 2.3 2.997h-.297zm0 0L3.225 7.997V7.7zm0 0L3.237 7.382v-.368h.367zm0 0-2.3-2.997h.298zm9.098 0-.751.261-.016.796-.481-.634-.762.23.455-.653-.455-.653.762.23.48-.634.017.796zM1 18.268l.15-.782-.681-.411.79-.1.18-.774.339.72.793-.067-.58.544.308.733-.697-.383zM1 1.732l.602.52.697-.383-.309.733.58.544-.792-.067-.338.72-.182-.774-.79-.1.682-.411z"/></g><defs><clipPath id="a"><path fill="#fff" d="M0 0h40v20H0z"/></clipPath></defs></svg>