<svg width="40" height="20" viewBox="0 0 40 20" fill="none" xmlns="http://www.w3.org/2000/svg">
<g clip-path="url(#clip0_1790_17650)">
<path d="M1.52588e-05 7.62939e-06H40V10L6.22224 19.7778L1.52588e-05 7.62939e-06Z" fill="#0038A8"/>
<path d="M6.22222 10H40V20H0L6.22222 10Z" fill="#CE1126"/>
<path d="M17.3205 10L1.52588e-05 20V7.62939e-06L17.3205 10Z" fill="white"/>
<path d="M6.22223 12C7.3268 12 8.22223 11.1046 8.22223 10C8.22223 8.89543 7.3268 8 6.22223 8C5.11766 8 4.22223 8.89543 4.22223 10C4.22223 11.1046 5.11766 12 6.22223 12Z" fill="#FCD116"/>
<path d="M6.22222 9.99999L5.5191 6.46466L5.7291 6.25444L6.22222 9.99999ZM6.22222 9.99999L5.96244 6.03755L6.22222 5.77777L6.48199 6.03755L6.22222 9.99999ZM6.22222 9.99999L6.71533 6.25444L6.92533 6.46466L6.22222 9.99999Z" fill="#FCD116"/>
<path d="M6.22221 10L6.92532 13.5353L6.71532 13.7456L6.22221 10ZM6.22221 10L6.48199 13.9624L6.22221 14.2222L5.96243 13.9624L6.22221 10ZM6.22221 10L5.7291 13.7456L5.5191 13.5353L6.22221 10Z" fill="#FCD116"/>
<path d="M6.22222 10L9.75755 9.2969L9.96778 9.5069L6.22222 10ZM6.22222 10L10.1847 9.74023L10.4444 10L10.1847 10.2598L6.22222 10ZM6.22222 10L9.96778 10.4931L9.75755 10.7031L6.22222 10Z" fill="#FCD116"/>
<path d="M6.22222 10L2.68689 10.7031L2.47667 10.4931L6.22222 10ZM6.22222 10L2.25978 10.2598L2 10L2.25978 9.74022L6.22222 10ZM6.22222 10L2.47667 9.50689L2.68689 9.29689L6.22222 10Z" fill="#FCD116"/>
<path d="M6.22223 10L8.22491 7.00297L8.52206 7.00281L6.22223 10ZM6.22223 10L8.84041 7.01444L9.20779 7.01444L9.20779 7.38182L6.22223 10ZM6.22223 10L9.21942 7.70018L9.21926 7.99732L6.22223 10Z" fill="#FCD116"/>
<path d="M6.22223 10L4.21954 12.997L3.9224 12.9972L6.22223 10ZM6.22223 10L3.60405 12.9856L3.23667 12.9856L3.23667 12.6182L6.22223 10ZM6.22223 10L3.22504 12.2998L3.2252 12.0027L6.22223 10Z" fill="#FCD116"/>
<path d="M6.22222 10L9.21925 12.0027L9.21941 12.2998L6.22222 10ZM6.22222 10L9.20778 12.6182L9.20778 12.9856L8.8404 12.9856L6.22222 10ZM6.22222 10L8.52204 12.9972L8.2249 12.997L6.22222 10Z" fill="#FCD116"/>
<path d="M6.22222 10L3.22519 7.99732L3.22503 7.70018L6.22222 10ZM6.22222 10L3.23666 7.38182L3.23666 7.01444L3.60404 7.01444L6.22222 10ZM6.22222 10L3.9224 7.00281L4.21954 7.00297L6.22222 10Z" fill="#FCD116"/>
<path d="M15.3204 10L14.5689 10.2613L14.5527 11.0567L14.072 10.4227L13.3104 10.6531L13.7649 10L13.3104 9.34689L14.072 9.57733L14.5527 8.94333L14.5689 9.73867L15.3204 10Z" fill="#FCD116"/>
<path d="M1.00011 18.2678L1.14957 17.4863L0.4689 17.0746L1.25829 16.9753L1.4395 16.2006L1.77789 16.9207L2.57072 16.8537L1.99037 17.398L2.2991 18.1313L1.60221 17.7476L1.00011 18.2678Z" fill="#FCD116"/>
<path d="M1.00011 1.73215L1.60221 2.25235L2.2991 1.86874L1.99037 2.602L2.57072 3.14631L1.77789 3.0793L1.4395 3.79942L1.25829 3.02467L0.4689 2.9254L1.14957 2.51369L1.00011 1.73215Z" fill="#FCD116"/>
</g>
<defs>
<clipPath id="clip0_1790_17650">
<rect width="40" height="20" fill="white"/>
</clipPath>
</defs>
</svg>
