<svg xmlns="http://www.w3.org/2000/svg" width="200" height="200" fill="none" viewBox="0 0 200 200"><rect width="199" height="199" x=".5" y=".5" fill="#fff" rx="39.5"/><rect width="199" height="199" x=".5" y=".5" stroke="#8d8d8d" rx="39.5"/><path fill="#e42126" fill-rule="evenodd" d="m148 96.64-4.012 3.567 4.012 3.591v29.432L120.771 160H79.695L52 132.791v-28.553l4.478-4.031L52 96.202V67.649L80.135 40h40.17L148 67.21zm-14.287 21.861-4.012-4.031-8.93 8.941H79.695l-8.93-8.476-3.572 3.566 33.027 32.998zm-33.493-3.566 15.193-14.702-15.193-14.73-14.727 14.73zm33.493-33.023L100.22 48.915 67.193 81.912l3.572 4.005 9.37-9.354h40.17l9.396 8.915z" clip-rule="evenodd"/></svg>