<svg width="200" height="200" viewBox="0 0 200 200" fill="none" xmlns="http://www.w3.org/2000/svg">
<rect x="0.5" y="0.5" width="199" height="199" rx="39.5" fill="white"/>
<rect x="0.5" y="0.5" width="199" height="199" rx="39.5" stroke="#8D8D8D"/>
<path fill-rule="evenodd" clip-rule="evenodd" d="M148 96.6408L143.988 100.207L148 103.798V133.23L120.771 160H79.6948L52 132.791V104.238L56.4778 100.207L52 96.2015V67.6486L80.1348 40H120.305L148 67.2093V96.6408ZM133.713 118.501L129.701 114.47L120.771 123.411H79.6948L70.7652 114.935L67.1933 118.501L100.22 151.499L133.713 118.501ZM100.22 114.935L115.413 100.233L100.22 85.5039L85.4926 100.233L100.22 114.935ZM133.713 81.9121L100.22 48.9147L67.1933 81.9121L70.7652 85.9173L80.1348 76.5633H120.305L129.701 85.478L133.713 81.9121Z" fill="#E42126"/>
</svg>
