<svg xmlns="http://www.w3.org/2000/svg" width="200" height="200" fill="none" viewBox="0 0 200 200"><rect width="199" height="199" x=".5" y=".5" fill="#fff" rx="39.5"/><rect width="199" height="199" x=".5" y=".5" stroke="#fcfcfc" rx="39.5"/><g fill="#010101" clip-path="url(#a)"><path d="M173.445 106.165V90.939h-25.397V85.86h25.397V75.708h-40.634v25.378h25.397v5.079h-25.397v10.152h40.634zm-45.712-30.457h-10.16v40.603h10.16zm-55.872 0V85.86h30.475v5.079H71.861v25.378h10.155V101.24l15.243 15.077h15.237l-15.899-15.231h15.899V75.708zm-30.48 25.378h10.134V90.96H41.38zm2.544-7.61h5.078v5.073h-5.078z"/><path d="M36.304 75.708h-8.89a1.29 1.29 0 0 0-1.173.786q-.096.234-.097.488v38.061a1.27 1.27 0 0 0 .373.901c.24.235.561.367.896.367h24.128v-10.125H36.304zm29.206 0H41.38V85.86h15.243v15.226h10.133V76.982a1.28 1.28 0 0 0-.357-.9 1.3 1.3 0 0 0-.89-.374m1.275 30.456h-10.16v22.841h10.16z"/><path d="M40.32 70H21.27A1.275 1.275 0 0 0 20 71.268v19.036h2.539v-16.52a1.273 1.273 0 0 1 1.269-1.247h16.533zm137.141 32.988v16.521a1.27 1.27 0 0 1-1.269 1.268h-16.533v2.516h19.05a1.27 1.27 0 0 0 1.291-1.269v-19.036z"/></g><defs><clipPath id="a"><path fill="#fff" d="M20 70h160v59H20z"/></clipPath></defs></svg>