<svg xmlns="http://www.w3.org/2000/svg" width="200" height="200" fill="none" viewBox="0 0 200 200"><rect width="200" height="200" fill="#81cde5" rx="40"/><path fill="#005fa9" d="M48.188 83.837c-1.668 0-3.337 1.668-3.67 3.836l-1.336 9.504c-.333 2.168.835 3.836 2.503 3.836s3.338-1.668 3.671-3.836l1.335-9.504c.334-2.001-.834-3.836-2.503-3.836M30 122.19l4.505-31.683c1.002-7.003 8.344-13.173 16.353-13.173s11.848 5.503 11.013 11.006l-.667 4.669c-.5 3.835-3.337 7.67-8.51 10.338l5.172 8.838c.668 1.001.835 2.502.668 4.002-.5 3.335-3.004 6.17-5.84 6.17-1.502 0-2.67-.834-3.338-2.001l-7.675-13.173-1.335 9.171c-.5 3.335-3.004 6.003-5.674 6.003H30zm37.044-37.852c.5-3.836 3.504-7.004 6.675-7.004s5.172 3.168 4.672 7.004l-2.17 16.008h6.175l2.336-16.008c.5-3.836 3.504-7.004 6.674-7.004s5.173 3.168 4.672 7.004L91.74 115.02c-.5 3.835-3.504 7.004-6.675 7.004s-5.172-3.169-4.672-7.004l1.335-10.005h-6.34l-1.336 10.005c-.5 3.835-3.504 7.004-6.674 7.004h-5.674zm47.39-.501c-2.003 0-3.838 2-4.172 4.502l-.667 4.336c-.501 2.501 1.001 4.502 3.003 4.502s3.838-2.001 4.172-4.502l.667-4.336c.334-2.334-1.168-4.502-3.003-4.502m-2.503 16.342c-2.003 0-3.838 2.001-4.172 4.502l-.834 6.336c-.334 2.502 1.001 4.503 2.837 4.503 2.002 0 3.837-2.001 4.171-4.503l.834-6.336c.501-2.501-.834-4.502-2.836-4.502m15.351-10.006q-.75 4.503-5.006 8.505a8.44 8.44 0 0 1 2.337 7.504l-.334 2.668c-1.001 7.003-8.343 13.173-16.353 13.173H95.411l4.672-31.85C101.085 83.17 108.427 77 116.436 77s11.848 5.503 11.013 11.006z"/><path fill="#e63137" d="m170 99.679-20.524 20.51-20.525-20.51 20.525-20.344z"/></svg>