<svg xmlns="http://www.w3.org/2000/svg" width="40" height="40" fill="none" viewBox="0 0 40 40"><rect width="40" height="40" fill="#ee4e2c" rx="8"/><path fill="#fff" fill-rule="evenodd" d="M12.36 13.811h15.737A1.91 1.91 0 0 1 30 15.714v11.01a1.91 1.91 0 0 1-1.903 1.902H11.903A1.91 1.91 0 0 1 10 26.723v-13.6c0-.494.408-.837.899-.898l14.51-1.851a.9.9 0 0 1 .9.899v1.539H11.452c0 .645.192 1 .906 1zm8.825 12.063c-1.323.253-3.025-.188-3.95-1.182-.417-.449.256-1.127.676-.674.622.671 1.732.983 2.638.962 1.155-.026 2.18-1.075 1.526-2.248-.909-1.623-3.143-1.168-4.293-2.445-.93-1.03-.488-2.649.603-3.364 1.139-.749 3.103-.72 4.04.354.403.46-.273 1.138-.677.673-.755-.865-2.541-.748-3.224.143-.97 1.275.48 1.96 1.495 2.267 1.394.422 2.94 1.194 3.194 2.792.202 1.286-.793 2.485-2.028 2.722" clip-rule="evenodd"/></svg>