<svg xmlns="http://www.w3.org/2000/svg" width="200" height="200" fill="none" viewBox="0 0 200 200"><rect width="200" height="200" fill="#ee4e2c" rx="40"/><path fill="#fff" fill-rule="evenodd" d="M61.805 71.056h78.678c5.234 0 9.517 4.282 9.517 9.515v55.045c0 5.232-4.283 9.514-9.517 9.514H59.517c-5.234 0-9.517-4.282-9.517-9.514V67.619c0-2.476 2.042-4.188 4.494-4.493l72.554-9.257a4.5 4.5 0 0 1 4.494 4.493v7.696H57.264c0 3.227.962 4.998 4.529 4.998zm44.121 60.313c-6.618 1.267-15.126-.938-19.749-5.913-2.089-2.24 1.279-5.631 3.38-3.367 3.109 3.356 8.66 4.916 13.189 4.81 5.773-.129 10.901-5.373 7.627-11.239-4.541-8.118-15.712-5.842-21.462-12.224-4.647-5.15-2.44-13.245 3.016-16.824 5.69-3.742 15.513-3.601 20.195 1.772 2.018 2.3-1.362 5.69-3.38 3.367-3.778-4.329-12.708-3.743-16.123.716-4.846 6.37 2.406 9.796 7.475 11.332 6.97 2.112 14.703 5.972 15.97 13.961 1.009 6.429-3.966 12.424-10.138 13.609" clip-rule="evenodd"/></svg>