<svg xmlns="http://www.w3.org/2000/svg" width="200" height="200" fill="none" viewBox="0 0 200 200"><rect width="200" height="200" fill="#0047ba" rx="40"/><path fill="#fff" d="M86.06 102.858h-6.976c-2.049 0-4.698 1.46-5.457 3.402l.689-3.723h-8.53l-3.763 21.408h8.53l2.367-13.554h9.184s-1.166 6.715-1.695 9.725c-.513 3.01 1.5 3.74 2.507 3.74h4.469l2.914-16.653c-.283-2.386-1.872-4.345-4.239-4.345m-26.403-.321-1.608 9.19 6.482-9.19z"/><path fill="#ffcd00" d="M69.776 69h-28.54L40 76.088h9.96l-3.99 22.868h8.6l3.992-22.868h9.978z"/><path fill="#ffcd00" d="m75.675 91.939 1.254-7.16H69.28l-1.254 7.16zM63.63 98.956c-2.367 0-3.956-1.96-3.55-4.346l2.208-12.52c.406-2.387 2.684-4.328 5.05-4.328h13.988c2.367 0 3.956 1.941 3.532 4.328l-2.19 12.52c-.424 2.386-2.702 4.346-5.068 4.346zm56.304-7.017 1.254-7.16h11.073l1.236-7.017h-14.252c-2.367 0-4.645 1.941-5.069 4.328l-2.19 12.52c-.406 2.386 1.184 4.346 3.55 4.346H129.4l1.219-7.017zm-17.413 0h-9.378l2.472-14.177h-7.47l-2.95 16.848c-.424 2.386 1.184 4.346 3.55 4.346h7.276c2.367 0 4.292-1.425 5.829-3.26 0 0 .83 2.458 2.03 3.01 1.202.552 4.857.428 4.857.428l3.745-21.354h-7.471zm53.866-14.069h-6.976c-2.049 0-4.027 1.46-4.804 3.402l2.013-11.505h-7.859l-5.104 29.19h7.877l2.367-13.553h8.53s-1.166 6.714-1.696 9.724c-.529 2.992 1.502 3.722 2.491 3.722h3.797l2.914-16.652c.406-2.386-1.183-4.328-3.55-4.328m-28.011 53.198c-3.179 0-5.334-2.636-4.769-5.842l2.95-16.831c.547-3.205 3.62-5.841 6.817-5.841h17.802c3.179 0 5.333 2.636 4.768 5.841l-2.931 16.831c-.565 3.206-3.621 5.842-6.818 5.842zm16.583-7.872 2.243-12.77h-12.627l-2.243 12.77zm-33.856 0H98.476l2.243-12.77h20.469l1.342-7.872H99.5c-3.18 0-6.252 2.636-6.8 5.841l-2.949 16.831c-.547 3.206 1.59 5.842 4.768 5.842h17.803c3.179 0 6.252-2.636 6.799-5.842l1.802-10.33h-8.389z"/></svg>