<svg xmlns="http://www.w3.org/2000/svg" width="30" height="20" fill="none" viewBox="0 0 30 20"><g clip-path="url(#a)"><path fill="#012169" d="M0 0v20h30V0z"/><path fill="#000" d="m0 0 30 20zm30 0L0 20z"/><path fill="#fff" d="M30.403 1.073 17.013 10l13.39 8.927-.806 2.146L15 11.342.403 21.073l-.806-2.146L12.987 10-.403 1.073l.806-2.146L15 8.658l14.597-9.731z"/><path fill="#c8102e" d="M30.202.537 16.007 10l14.195 9.463-.403 1.074L15 10.671.202 20.537l-.403-1.074L13.993 10-.2.537.202-.537 15 9.328 29.8-.537z"/><path fill="#000" d="M15 0v20zM0 10h30z"/><path stroke="#fff" stroke-width="4" d="M15 0v20M0 10h30"/><path fill="#000" d="M15 0v20zM0 10h30z"/><path stroke="#c8102e" stroke-width="2.4" d="M15 0v20M0 10h30"/></g><rect width="29.6" height="19.6" x=".2" y=".2" stroke="#8d8d8d" stroke-width=".4" rx="3.8"/><defs><clipPath id="a"><rect width="30" height="20" fill="#fff" rx="4"/></clipPath></defs></svg>