<svg xmlns="http://www.w3.org/2000/svg" width="200" height="200" fill="none" viewBox="0 0 200 200"><rect width="200" height="200" fill="#ff8000" rx="40"/><path fill="#fff" fill-rule="evenodd" d="M119.304 102.642c-4.111-.545-5.902-.765-5.902-.765v-14.97c1.015.256 7.703 1.92 7.703 1.92 4.096.828 6.181 3.874 6.181 7.525s-3.178 6.927-7.982 6.29m16.5 6.189s4.746-4.825 4.746-13.913c0-7.586-5-15.993-13.807-19.157L97.79 65.257l-.094 51.371s.01 7.44-8.105 9.013c-5.433 1.053-10.73-3.976-10.73-10.227.008.001.03-40.487.009-57.08L56 50v67.631c0 24.157 21.432 34.375 34.598 32.046 15.716-2.781 22.804-15.199 22.804-28.638v-4.772l11.088.387c3.668 0 6.395 3.271 6.395 6.699 0 3.04-2.076 6.313-6.349 6.692l-6.093.475c-.977 4.102-3.094 9.764-7.847 15.422l17.853-3.229C135.639 141.383 144 135 144 124.454c0-4.493-1.485-11.069-8.196-15.623" clip-rule="evenodd"/></svg>