<svg xmlns="http://www.w3.org/2000/svg" width="30" height="20" fill="none" viewBox="0 0 30 20"><g clip-path="url(#a)"><path fill="#b31942" d="M0 0h30v20H0"/><path fill="#000" d="M0 2.308h30zm30 3.077H0zM0 8.46h30zm30 3.077H0zM0 14.615h30zm30 3.077H0z"/><path fill="#fff" d="M30 16.942v1.5H0v-1.5zm0-3.077v1.5H0v-1.5zm0-3.077v1.5H0v-1.5zm0-3.076v1.5H0v-1.5zm0-3.077v1.5H0v-1.5zm0-3.077v1.5H0v-1.5z"/><path fill="#0a3161" d="M0 0h12v10.77H0"/><path fill="#fff" d="m1 .461.286 1.114L.538.887h.924l-.747.688zm0 2.154.286 1.113-.748-.688h.924l-.747.688zm0 2.154.286 1.113-.748-.688h.924l-.747.688zm0 2.154.286 1.113-.748-.688h.924l-.747.688zm0 2.154.286 1.113-.748-.688h.924l-.747.688zm1-7.538.286 1.113-.748-.688h.924l-.747.688zm0 2.153.286 1.114-.748-.688h.924l-.747.688zm0 2.154.286 1.113-.748-.688h.924l-.747.688zM2 8l.286 1.113-.748-.688h.924l-.747.688zM3 .461l.286 1.114-.748-.688h.924l-.747.688zm0 2.154.286 1.113-.748-.688h.924l-.747.688zm0 2.154.286 1.113-.748-.688h.924l-.747.688zm0 2.154.286 1.113-.748-.688h.924l-.747.688zm0 2.154.286 1.113-.748-.688h.924l-.747.688zm1-7.538.286 1.113-.748-.688h.924l-.747.688zm0 2.153.286 1.114-.748-.688h.924l-.747.688zm0 2.154.286 1.113-.748-.688h.924l-.747.688zM4 8l.286 1.113-.748-.688h.924l-.747.688zM5 .461l.286 1.114-.748-.688h.924l-.747.688zm0 2.154.286 1.113-.748-.688h.924l-.747.688zm0 2.154.286 1.113-.748-.688h.924l-.747.688zm0 2.154.286 1.113-.748-.688h.924l-.747.688zm0 2.154.286 1.113-.748-.688h.924l-.747.688zm1-7.538.286 1.113-.748-.688h.924l-.747.688zm0 2.153.286 1.114-.748-.688h.924l-.747.688zm0 2.154.286 1.113-.748-.688h.924l-.747.688zM6 8l.286 1.113-.748-.688h.924l-.747.688zM7 .461l.286 1.114-.748-.688h.924l-.747.688zm0 2.154.286 1.113-.748-.688h.924l-.747.688zm0 2.154.286 1.113-.748-.688h.924l-.747.688zm0 2.154.286 1.113-.748-.688h.924l-.747.688zm0 2.154.286 1.113-.748-.688h.924l-.747.688zm1-7.538.286 1.113-.748-.688h.924l-.747.688zm0 2.153.286 1.114-.748-.688h.924l-.747.688zm0 2.154.286 1.113-.748-.688h.924l-.747.688zM8 8l.286 1.113-.748-.688h.924l-.747.688zM9 .461l.286 1.114-.748-.688h.924l-.747.688zm0 2.154.286 1.113-.748-.688h.924l-.747.688zm0 2.154.286 1.113-.748-.688h.924l-.747.688zm0 2.154.286 1.113-.748-.688h.924l-.747.688zm0 2.154.286 1.113-.748-.688h.924l-.747.688zm1-7.538.286 1.113-.748-.688h.924l-.747.688zm0 2.153.286 1.114-.748-.688h.924l-.747.688zm0 2.154.286 1.113-.748-.688h.924l-.747.688zM10 8l.286 1.113-.748-.688h.924l-.747.688zm1-7.539.286 1.114-.748-.688h.924l-.747.688zm0 2.154.286 1.113-.748-.688h.924l-.747.688zm0 2.154.286 1.113-.748-.688h.924l-.747.688zm0 2.154.286 1.113-.748-.688h.924l-.747.688zm0 2.154.286 1.113-.748-.688h.924l-.747.688z"/></g><rect width="29.6" height="19.6" x=".2" y=".2" stroke="#8d8d8d" stroke-width=".4" rx="3.8"/><defs><clipPath id="a"><rect width="30" height="20" fill="#fff" rx="4"/></clipPath></defs></svg>