<svg xmlns="http://www.w3.org/2000/svg" width="200" height="200" fill="none" viewBox="0 0 200 200"><rect width="199" height="199" x=".5" y=".5" fill="#fff" rx="39.5"/><rect width="199" height="199" x=".5" y=".5" stroke="#8d8d8d" rx="39.5"/><path fill="url(#a)" fill-rule="evenodd" d="M83.277 43.383c-8.422 1.76-11.439 5.53-11.187 11.061.377 7.667 8.924 22.374 12.947 28.91 7.038 11.438 15.46 21.745 24.762 31.298 7.541 7.416 12.318 9.05 20.362-1.885 6.914-9.05 13.198-18.1 18.729-29.287 2.388-4.902 4.651-10.307 6.536-16.34 2.137-7.04 1.383-13.324-5.53-17.975 6.661 3.268 9.552 9.176 10.055 15.837.377 6.411-1.508 13.324-3.016 18.478-3.646 12.695-8.296 25.642-14.204 37.08-4.399 8.673-10.056 19.231-15.712 27.025-12.444 17.22-24.511 11.689-38.589 0-8.924-7.416-17.472-16.718-24.888-26.899-7.416-10.307-15.586-25.517-20.488-37.206-6.662-16.09-1.508-24.26 6.662-29.413 9.176-6.033 22.625-9.176 33.56-10.684" clip-rule="evenodd"/><path fill="url(#b)" fill-rule="evenodd" d="M83.025 79.96c13.073-1.885 46.885-4.022 58.7 2.137 4.023 2.011 4.023 4.776 3.646 8.044 1.131-2.136 2.388-4.399 3.519-6.661 2.388-4.903 4.651-10.308 6.536-16.34 2.137-7.04 1.383-13.325-5.53-17.975-2.514-1.383-5.531-2.263-8.171-3.143-7.793-2.262-16.466-3.142-25.265-3.77C112.815 42 109.044 42 105.274 42c-6.914 0-14.455.503-21.997 1.508-8.422 1.76-11.439 5.531-11.187 11.062.377 6.41 6.536 17.974 10.935 25.39" clip-rule="evenodd"/><defs><linearGradient id="a" x1="145.314" x2="49.787" y1="116.626" y2="49.738" gradientUnits="userSpaceOnUse"><stop stop-color="#006840"/><stop offset=".4" stop-color="#007a48"/><stop offset="1" stop-color="#86c440"/></linearGradient><linearGradient id="b" x1="85.397" x2="141.926" y1="42.768" y2="82.35" gradientUnits="userSpaceOnUse"><stop stop-color="#006840"/><stop offset=".3" stop-color="#007a48"/><stop offset="1" stop-color="#86c440"/></linearGradient></defs></svg>