<svg xmlns="http://www.w3.org/2000/svg" width="200" height="200" fill="none" viewBox="0 0 200 200"><rect width="199" height="199" x=".5" y=".5" fill="#fff" rx="39.5"/><rect width="199" height="199" x=".5" y=".5" stroke="#8d8d8d" rx="39.5"/><path fill="#005992" d="M100.033 82.466H87.847c-6.358 0-5.299-.636-5.299 5.192v22.888c0 2.12-.423 3.285-2.755 3.603-10.914 1.378-21.193 5.193-30.941 9.961-2.967 1.483-3.603.53-4.663-2.225-5.404-14.094-5.616-28.293-.424-42.386 6.252-16.849 17.908-28.61 34.439-35.392 23.524-9.537 52.346-2.014 68.135 17.908 14.411 18.12 17.06 38.147 9.643 59.764-1.06 3.073-2.225 3.497-5.086 2.119-9.749-4.662-19.816-8.477-30.624-9.855-2.331-.318-2.649-1.589-2.649-3.602.106-8.266 0-16.531.106-24.796 0-2.437-.636-3.391-3.179-3.285-4.875.212-9.643 0-14.517 0z"/><path fill="#d61549" d="M99.715 160.032c-20.028-.742-36.134-8.901-48.32-24.902-1.166-1.59-1.484-2.437.742-3.497 20.239-10.067 41.432-13.351 63.684-10.067 11.021 1.59 21.511 4.769 31.472 9.749 2.437 1.272 2.755 2.12 1.06 4.451-12.398 15.788-28.611 23.736-48.638 24.372z"/></svg>