<svg width="55" height="22" viewBox="0 0 55 22" fill="none" xmlns="http://www.w3.org/2000/svg">
<path d="M10.4119 4.26758C10.9173 4.26758 12.7254 4.3125 13.9046 6.03076C13.8035 6.10938 12.0066 7.12012 12.0066 9.38867C12.0066 12.0166 14.2977 12.9487 14.365 12.9712C14.3538 13.0273 13.9944 14.2402 13.1634 15.4868C12.4109 16.5649 11.6136 17.6543 10.4119 17.6543C9.21026 17.6543 8.89581 16.958 7.52569 16.958C6.1668 16.958 5.68389 17.6768 4.59454 17.6768C3.49395 17.6768 2.71905 16.666 1.8543 15.4419C0.832329 13.9707 0.00127411 11.7134 0.00127411 9.56836C0.00127411 6.14307 2.23614 4.3125 4.43731 4.3125C5.59405 4.3125 6.5711 5.07617 7.30108 5.07617C7.99737 5.07617 9.07549 4.26758 10.4119 4.26758ZM9.79424 2.81885C9.19903 3.5376 8.18829 4.07666 7.39092 4.07666C7.30108 4.07666 7.21124 4.06543 7.15508 4.0542C7.14385 4.00928 7.12139 3.86328 7.12139 3.72852C7.12139 2.81885 7.59307 1.90918 8.08721 1.33643C8.72735 0.583984 9.80547 0.0336914 10.6814 0C10.7039 0.101074 10.7151 0.224609 10.7151 0.348145C10.7151 1.25781 10.3333 2.15625 9.79424 2.81885ZM18.7796 1.26904H25.3157C28.5501 1.26904 30.7625 3.48145 30.7625 6.74951C30.7625 9.96143 28.4715 12.1626 25.1922 12.1626H21.677V17.4746H18.7796V1.26904ZM21.677 3.69482V9.75928H24.5408C26.6072 9.75928 27.8201 8.68115 27.8201 6.74951C27.8201 4.76172 26.6409 3.69482 24.552 3.69482H21.677ZM36.199 15.4868C37.8835 15.4868 39.1413 14.3975 39.1413 12.9712V11.9941L36.3674 12.1738C34.8064 12.2749 34.0764 12.8364 34.0764 13.8359C34.0764 14.8691 34.9636 15.4868 36.199 15.4868ZM35.3791 17.6768C33.0095 17.6768 31.3137 16.2393 31.3137 13.9932C31.3137 11.7695 32.987 10.4893 35.9743 10.3096L39.1413 10.1187V9.08545C39.1413 7.88379 38.3327 7.20996 36.8279 7.20996C35.5476 7.20996 34.6716 7.65918 34.4133 8.49023H31.7854C32.01 6.32275 34.0427 4.94141 36.9626 4.94141C40.1184 4.94141 41.8928 6.47998 41.8928 9.08545V17.4746H39.2087V15.79H39.0178C38.3327 16.9805 36.9851 17.6768 35.3791 17.6768ZM44.9934 21.9331C44.8249 21.9331 44.0725 21.9219 43.8928 21.8882V19.6084C44.05 19.6421 44.4655 19.6533 44.6564 19.6533C45.8356 19.6533 46.4982 19.2041 46.8576 18.0698L47.0036 17.5308L42.6125 5.18848H45.6672L48.5422 14.7793H48.7331L51.5969 5.18848H54.5392L50.1032 17.8677C49.0588 20.9224 47.7448 21.9331 44.9934 21.9331Z" fill="white"/>
</svg>
