<svg width="20" height="20" viewBox="0 0 20 20" fill="none" xmlns="http://www.w3.org/2000/svg">
<rect width="20" height="20" rx="4" fill="url(#paint0_linear_3716_9098)"/>
<path d="M9.16196 10.1622C9.30938 10.3096 9.42732 10.4865 9.57474 10.6044H9.42732C9.33887 10.516 9.25041 10.4275 9.16196 10.3096C8.66073 9.7199 8.13002 8.9828 7.65828 8.30467V8.12776C8.1595 8.8059 8.66073 9.543 9.16196 10.1327V10.1622ZM10.2824 9.66093C9.98751 9.33661 9.78113 8.89435 9.60422 8.39312C9.33886 7.65602 9.16196 6.83047 8.83764 6.12285C8.66073 5.76904 8.45434 5.44472 8.1595 5.14988C8.01208 5.00246 7.86466 4.88452 7.65828 4.79607V4.94349C7.74673 5.00246 7.86466 5.06142 7.95312 5.14988C8.39538 5.53317 8.69022 6.0344 8.8966 6.59459C9.07351 7.00737 9.19144 7.47912 9.30938 7.89189C9.51577 8.54054 9.72216 9.18919 10.1349 9.66093C10.3413 9.89681 10.5772 10.1032 10.9015 10.2506C11.0489 10.3096 11.1964 10.3686 11.3733 10.398C11.4322 10.3686 11.5207 10.3391 11.5797 10.3096C11.3438 10.2801 11.1374 10.2211 10.9605 10.1327C10.6951 10.0147 10.4887 9.86732 10.3118 9.66093H10.2824ZM9.30938 9.92629C8.77867 9.21867 8.27744 8.33415 7.74673 7.59705C7.71724 7.53808 7.68776 7.5086 7.65828 7.44963V7.65602C7.65828 7.6855 7.71724 7.71499 7.74673 7.77396C8.24796 8.54054 8.74918 9.42506 9.30938 10.1032C9.4568 10.2801 9.60422 10.457 9.75164 10.6339H9.92855C9.72216 10.4275 9.51577 10.1916 9.30938 9.95577V9.92629ZM9.57474 9.45455C9.13248 8.71744 8.77867 7.80344 8.36589 7.00737C8.1595 6.62408 7.92363 6.27027 7.65828 5.97543V6.15233C7.89415 6.44717 8.13002 6.80098 8.30692 7.15479C8.7197 7.95086 9.07351 8.86486 9.54525 9.60197C9.78113 9.95577 10.0465 10.2801 10.4003 10.516C10.4298 10.516 10.4593 10.5749 10.4887 10.5749C10.5772 10.5749 10.6362 10.5749 10.7246 10.5749C10.2529 10.3391 9.92855 9.95577 9.60422 9.45455H9.57474ZM9.72216 9.21867C9.30938 8.48157 9.07351 7.53808 8.66073 6.71253C8.45434 6.29975 8.24796 5.91646 7.92363 5.59214C7.83518 5.50369 7.74673 5.41523 7.62879 5.32678V5.50369C8.04157 5.85749 8.33641 6.32924 8.57228 6.88943C8.95557 7.71499 9.19144 8.65848 9.63371 9.39558C9.84009 9.77887 10.1055 10.1032 10.4593 10.3096C10.5772 10.398 10.7246 10.4865 10.9015 10.5455C10.99 10.5455 11.0489 10.516 11.1374 10.4865C11.0195 10.457 10.9015 10.398 10.7836 10.3685C10.3118 10.1327 9.95803 9.7199 9.69267 9.24816L9.72216 9.21867ZM11.4912 7.30221C11.786 7.65602 12.0809 7.95086 12.3757 8.18673C12.4052 8.18673 12.4347 8.2457 12.4937 8.2457C12.4937 8.18673 12.4937 8.12776 12.4642 8.09828C12.1398 7.86241 11.8155 7.53808 11.4912 7.12531C10.931 6.41769 10.4298 5.50369 9.89906 4.7371C9.72216 4.47174 9.51577 4.23587 9.33886 4H9.19144C9.42732 4.26536 9.66319 4.5602 9.89906 4.914C10.4298 5.68059 10.9605 6.59459 11.5207 7.30221H11.4912ZM7.65828 9.45455C8.01208 9.83784 8.39538 10.2506 8.74918 10.6044H8.8966C8.51331 10.2211 8.07105 9.74939 7.65828 9.30713V9.45455ZM9.42732 9.69042C8.92609 8.9828 8.51331 8.0688 8.04157 7.30221C7.92363 7.09582 7.77621 6.88943 7.62879 6.71253V6.91892C7.74673 7.09582 7.86466 7.27273 7.9826 7.47912C8.45434 8.2457 8.86712 9.15971 9.36835 9.86732C9.57474 10.1622 9.78113 10.398 10.0465 10.6044H10.1939C10.1939 10.6044 10.2234 10.6044 10.2529 10.6044C9.92855 10.3686 9.66319 10.0442 9.42732 9.69042ZM7.65828 10.3685C7.74673 10.457 7.83518 10.516 7.92363 10.6044H8.04157C7.89415 10.4865 7.77621 10.3686 7.62879 10.2506V10.3685H7.65828ZM7.65828 8.77641V8.92383C8.13002 9.48403 8.60176 10.0737 9.04402 10.5455C9.04402 10.5455 9.07351 10.5749 9.10299 10.6044H9.25041C9.19145 10.5455 9.10299 10.457 9.04402 10.398C8.60176 9.89681 8.13002 9.33661 7.65828 8.77641ZM7.65828 9.92629C7.86466 10.1327 8.07105 10.3096 8.24796 10.4865C8.27744 10.516 8.30692 10.5455 8.36589 10.5749H8.48383C8.21847 10.3096 7.92363 10.0442 7.65828 9.77887V9.89681V9.92629ZM11.6681 4.85504C11.4617 4.67813 11.2848 4.50123 11.1079 4.29484C11.0195 4.23587 10.931 4.20639 10.8426 4.1769C11.1669 4.47174 11.4912 4.79607 11.8155 5.12039C11.786 5.03194 11.7271 4.94349 11.6681 4.85504ZM11.6681 6.7715C11.6681 6.74201 11.6976 6.71253 11.7271 6.68305C11.1669 6.00491 10.6067 5.17936 10.0465 4.47174C9.92855 4.32432 9.81061 4.14742 9.66319 4.02948H9.51577C9.69267 4.23587 9.86958 4.44226 10.017 4.64865C10.5477 5.32678 11.0784 6.12285 11.6386 6.7715H11.6681ZM10.4003 9.42506C10.1054 9.07125 9.92855 8.62899 9.78113 8.12776C9.57474 7.39066 9.4568 6.53563 9.13248 5.79853C8.98506 5.41523 8.74918 5.09091 8.45434 4.79607C8.21847 4.58968 7.95312 4.41278 7.62879 4.26536V4.41278C7.86466 4.53071 8.07105 4.64865 8.24796 4.79607C8.7197 5.17936 8.98506 5.71007 9.16196 6.29975C9.30938 6.74201 9.39783 7.18428 9.48628 7.62654C9.57474 7.95086 9.63371 8.30467 9.75164 8.59951C9.92855 9.07125 10.1644 9.48403 10.5477 9.77887C10.8426 9.98526 11.1964 10.1622 11.6386 10.2211C11.6976 10.1916 11.7566 10.1327 11.786 10.1032C11.4912 10.0737 11.2258 9.98526 10.99 9.89681C10.7246 9.77887 10.5182 9.60197 10.3413 9.42506H10.4003ZM12.3462 8.57002C11.904 8.33415 11.5502 7.95086 11.1964 7.44963C10.6951 6.71253 10.2529 5.79853 9.78113 5.03194C9.54525 4.64865 9.30938 4.29484 9.01454 4.02948H8.83764C9.16196 4.35381 9.4568 4.76658 9.75164 5.20885C10.2234 6.00491 10.6656 6.91892 11.1964 7.62654C11.4617 7.98034 11.7566 8.30467 12.0809 8.54054C12.2283 8.62899 12.3757 8.71744 12.5526 8.77641C12.5526 8.74693 12.5526 8.68796 12.5526 8.65848C12.4937 8.65848 12.4347 8.59951 12.3757 8.57002H12.3462ZM11.9629 5.82801C11.9629 5.79853 11.9629 5.73956 11.9629 5.71007C11.4617 5.17936 10.9015 4.58968 10.4298 4.08845C10.3708 4.08845 10.3413 4.08845 10.2824 4.08845C10.2824 4.08845 10.3118 4.11794 10.3413 4.14742C10.872 4.70762 11.4322 5.32678 11.9924 5.88698L11.9629 5.82801ZM11.8745 6.35872C11.8745 6.32924 11.8745 6.27027 11.904 6.24079C11.3143 5.59214 10.7246 4.82555 10.1644 4.20639C10.1055 4.14742 10.0465 4.08845 10.017 4.02948C9.98751 4.02948 9.92855 4.02948 9.89906 4.02948C9.98751 4.14742 10.1054 4.26536 10.1939 4.38329C10.7246 5.00246 11.3143 5.73956 11.8745 6.35872ZM10.6067 8.09828C10.1939 7.36118 9.92855 6.41769 9.54525 5.59214C9.33887 5.17936 9.10299 4.79607 8.80815 4.47174C8.63125 4.29484 8.45434 4.14742 8.24796 4.02948H7.95312C8.1595 4.11794 8.33641 4.23587 8.48383 4.35381C8.92609 4.70762 9.22093 5.20885 9.48628 5.76904C9.86958 6.59459 10.1349 7.53808 10.5772 8.27518C10.7836 8.65848 11.0489 8.9828 11.4027 9.21867C11.6681 9.39558 11.9629 9.51351 12.3168 9.57248C12.3168 9.543 12.3462 9.48403 12.3757 9.45455C12.1398 9.42506 11.904 9.36609 11.7271 9.24816C11.2553 9.01228 10.9015 8.59951 10.6362 8.12776L10.6067 8.09828ZM10.7246 9.10074C10.4298 8.74693 10.2234 8.30467 10.0465 7.83292C9.78113 7.09582 9.60422 6.27027 9.25041 5.56265C9.07351 5.20885 8.86712 4.88452 8.57228 4.58968C8.33641 4.35381 8.01208 4.1769 7.65828 4.02948V4.1769C7.92363 4.29484 8.1595 4.41278 8.36589 4.58968C8.80815 4.97297 9.10299 5.4742 9.30938 6.0344C9.48628 6.44717 9.60422 6.91892 9.72216 7.3317C9.92855 7.98034 10.1349 8.62899 10.5477 9.10074C10.7541 9.33661 10.99 9.543 11.3143 9.69042C11.5207 9.77887 11.7566 9.86732 12.0219 9.89681C12.0514 9.86732 12.0809 9.80835 12.1104 9.77887C11.8155 9.74938 11.5502 9.69042 11.3438 9.57248C11.0784 9.45455 10.872 9.30712 10.6951 9.10074H10.7246ZM10.9015 7.77396C10.4298 7.03685 10.1054 6.12285 9.66319 5.2973C9.42732 4.88452 9.19144 4.53071 8.8966 4.20639C8.83764 4.14742 8.74918 4.05897 8.66073 4H8.45434C8.48383 4.02948 8.5428 4.05897 8.57228 4.08845C8.98506 4.44226 9.30938 4.914 9.60422 5.44472C10.0465 6.24079 10.3708 7.18428 10.872 7.92138C11.1079 8.27518 11.3733 8.59951 11.7271 8.83538C11.9335 8.9828 12.1693 9.10074 12.4642 9.1597C12.4642 9.13022 12.4642 9.07125 12.4937 9.04177C12.3168 9.01228 12.1693 8.95332 12.0514 8.89435C11.5797 8.65848 11.2258 8.27518 10.931 7.77396H10.9015ZM6.47891 14.8796C6.21356 14.8796 6.00717 15.086 6.00717 15.3514C6.00717 15.6167 6.21356 15.8231 6.47891 15.8231C6.74427 15.8231 6.95066 15.6167 6.95066 15.3514C6.95066 15.086 6.74427 14.8796 6.47891 14.8796ZM6.47891 16C6.09562 16 5.80078 15.7346 5.80078 15.3514V14.231H6.00717V14.8796C6.12511 14.7617 6.30201 14.7027 6.47891 14.7027C6.86221 14.7027 7.15705 14.9681 7.15705 15.3514C7.15705 15.7346 6.86221 16 6.47891 16ZM8.42486 15.2334C8.39538 14.9975 8.21847 14.8796 7.9826 14.8796C7.74673 14.8796 7.59931 15.027 7.54034 15.2334H8.42486ZM7.54034 15.4103C7.56982 15.6462 7.74673 15.7936 7.9826 15.7936C8.21847 15.7936 8.30692 15.7052 8.36589 15.5872H8.57228C8.45434 15.8526 8.24796 16 7.9826 16C7.71724 16 7.33395 15.7052 7.33395 15.3514C7.33395 14.9975 7.59931 14.7027 7.9826 14.7027C8.36589 14.7027 8.60176 14.9975 8.60176 15.3514C8.60176 15.7052 8.60176 15.4103 8.60176 15.4103H7.54034ZM9.84009 15.2629C9.84009 14.9975 9.72216 14.8796 9.51577 14.8796C9.30938 14.8796 9.13248 15.0565 9.13248 15.2924V15.9705H8.92609V14.7027H9.07351V14.9091C9.22093 14.7617 9.36835 14.6732 9.57474 14.6732C9.86958 14.6732 10.0465 14.9091 10.0465 15.2039V15.9705H9.84009V15.2629ZM11.4322 15.2334C11.4027 14.9975 11.2258 14.8796 10.99 14.8796C10.7541 14.8796 10.6067 15.027 10.5477 15.2334H11.4322ZM10.5477 15.4103C10.5772 15.6462 10.7541 15.7936 10.99 15.7936C11.2258 15.7936 11.3143 15.7052 11.3733 15.5872H11.5797C11.4617 15.8526 11.2553 16 10.99 16C10.7246 16 10.3413 15.7052 10.3413 15.3514C10.3413 14.9975 10.6067 14.7027 10.99 14.7027C11.3733 14.7027 11.6091 14.9975 11.6091 15.3514C11.6091 15.7052 11.6091 15.4103 11.6091 15.4103H10.5477ZM12.5821 14.7322V14.9091H12.1988V16H11.9924V14.9091H11.7566V14.7322H11.9924V14.6437C11.9924 14.3784 12.1104 14.231 12.4052 14.231H12.5821V14.3784H12.4347C12.2578 14.3784 12.1988 14.4373 12.1988 14.6143V14.7027H12.5821V14.7322ZM12.818 14.7027H13.0244V15.9705H12.818V14.7027ZM13.9973 15.7936H14.1448V15.9705H13.9679C13.7025 15.9705 13.5256 15.7936 13.5256 15.5283V14.8796H13.2602V14.7027H13.5256V14.3194H13.732V14.7027H14.1448V14.8796H13.732V15.5283C13.732 15.7052 13.8204 15.7936 13.9973 15.7936ZM9.57474 12.7862C9.57474 12.8747 9.57474 12.9631 9.66319 13.0516C9.72216 13.14 9.78113 13.199 9.86958 13.2285C9.95803 13.199 10.017 13.14 10.076 13.0516C10.1349 12.9631 10.1644 12.8747 10.1644 12.7862C10.1644 12.6978 10.1644 12.5799 10.076 12.5209C10.017 12.4619 9.95803 12.4324 9.84009 12.4324C9.75164 12.4324 9.66319 12.4619 9.60422 12.5209C9.54525 12.5799 9.51577 12.6683 9.51577 12.7862H9.57474ZM14.1448 12.4324V12.9337C14.1448 13.0811 14.1153 13.199 14.0268 13.2875C13.9384 13.3759 13.8499 13.4054 13.7025 13.4054H12.4642C12.3168 13.4054 12.1988 13.3464 12.1104 13.258C12.0219 13.3759 11.904 13.4054 11.7566 13.4054H10.076C9.98751 13.4054 9.95803 13.4054 9.89906 13.3759C9.84009 13.3759 9.81061 13.4054 9.72216 13.4054H8.30692C8.1595 13.4054 8.04157 13.3464 7.95312 13.258C7.86466 13.3759 7.74673 13.4054 7.59931 13.4054H6.24304C6.12511 13.4054 6.00717 13.3759 5.91872 13.2875C5.83027 13.199 5.80078 13.0811 5.80078 12.9631V12.5209H5.97769V12.9337C5.97769 13.14 6.06614 13.2285 6.27253 13.2285H7.56982C7.77621 13.2285 7.86466 13.14 7.86466 12.9337V12.4324H8.04157V12.9337C8.04157 13.14 8.13002 13.2285 8.33641 13.2285H9.60422C9.4568 13.1106 9.39783 12.9631 9.39783 12.7862C9.39783 12.6093 9.4568 12.4619 9.54525 12.3735C9.63371 12.285 9.75164 12.226 9.89906 12.226C10.076 12.226 10.1939 12.285 10.2824 12.4029C10.3708 12.4914 10.4003 12.6388 10.4003 12.7862C10.4003 12.9631 10.3413 13.1106 10.1939 13.2285H11.6976C11.904 13.2285 11.9924 13.14 11.9924 12.9337V12.4324H12.1693V12.9337C12.1693 13.14 12.2578 13.2285 12.4642 13.2285H13.6435C13.8499 13.2285 13.9384 13.14 13.9384 12.9337V12.4324H14.1153H14.1448ZM12.818 14.3194C12.818 14.3489 12.818 14.3784 12.818 14.4079C12.818 14.4079 12.8769 14.4373 12.9064 14.4373C12.9359 14.4373 12.9654 14.4373 12.9949 14.4079C12.9949 14.4079 12.9949 14.3489 12.9949 14.3194C12.9949 14.2899 12.9949 14.2604 12.9949 14.231C12.9949 14.231 12.9359 14.231 12.9064 14.231C12.8769 14.231 12.8475 14.231 12.818 14.231C12.818 14.231 12.818 14.2899 12.818 14.3194ZM13.8204 13.8182C13.8204 13.8477 13.8204 13.8771 13.8204 13.9066C13.8204 13.9066 13.8794 13.9361 13.9089 13.9361C13.9384 13.9361 13.9679 13.9361 13.9973 13.9066C13.9973 13.9066 13.9973 13.8477 13.9973 13.8182C13.9973 13.7887 13.9973 13.7592 13.9973 13.7297C13.9973 13.7297 13.9384 13.7297 13.9089 13.7297C13.8794 13.7297 13.8499 13.7297 13.8204 13.7297C13.8204 13.7297 13.8204 13.7887 13.8204 13.8182ZM11.9629 11.9312C11.9629 11.9607 11.9629 11.9902 11.9629 12.0197C11.9629 12.0197 12.0219 12.0491 12.0514 12.0491C12.0809 12.0491 12.1104 12.0491 12.1398 12.0197C12.1398 12.0197 12.1398 11.9607 12.1398 11.9312C12.1398 11.9017 12.1398 11.8722 12.1398 11.8428C12.1398 11.8428 12.0809 11.8428 12.0514 11.8428C12.0219 11.8428 11.9924 11.8428 11.9629 11.8428C11.9629 11.8428 11.9629 11.9017 11.9629 11.9312ZM9.75164 11.9312C9.75164 11.9607 9.75164 11.9902 9.75164 12.0197C9.75164 12.0197 9.81061 12.0491 9.84009 12.0491C9.86958 12.0491 9.89906 12.0491 9.92855 12.0197C9.92855 12.0197 9.92855 11.9607 9.92855 11.9312C9.92855 11.9017 9.92855 11.8722 9.92855 11.8428C9.92855 11.8428 9.86958 11.8428 9.84009 11.8428C9.81061 11.8428 9.78113 11.8428 9.75164 11.8428C9.75164 11.8428 9.75164 11.9017 9.75164 11.9312ZM7.03911 12.1376C7.03911 12.1671 7.03911 12.1966 7.03911 12.226C7.03911 12.226 7.09808 12.2555 7.12756 12.2555C7.15705 12.2555 7.18653 12.2555 7.21602 12.226C7.21602 12.226 7.21602 12.1671 7.21602 12.1376C7.21602 12.1081 7.21602 12.0786 7.21602 12.0491C7.21602 12.0491 7.15705 12.0491 7.12756 12.0491C7.09808 12.0491 7.06859 12.0491 7.03911 12.0491C7.03911 12.0491 7.03911 12.1081 7.03911 12.1376ZM6.71479 12.1376C6.71479 12.1671 6.71479 12.1966 6.71479 12.226C6.71479 12.226 6.77375 12.2555 6.80324 12.2555C6.83272 12.2555 6.86221 12.2555 6.89169 12.226C6.89169 12.226 6.89169 12.1671 6.89169 12.1376C6.89169 12.1081 6.89169 12.0786 6.89169 12.0491C6.89169 12.0491 6.83272 12.0491 6.80324 12.0491C6.77375 12.0491 6.74427 12.0491 6.71479 12.0491C6.71479 12.0491 6.71479 12.1081 6.71479 12.1376Z" fill="white"/>
<defs>
<linearGradient id="paint0_linear_3716_9098" x1="0" y1="0" x2="20" y2="20" gradientUnits="userSpaceOnUse">
<stop stop-color="#EA5646"/>
<stop offset="1" stop-color="#E60C32"/>
</linearGradient>
</defs>
</svg>
