<svg width="24" height="16" viewBox="0 0 24 16" fill="none" xmlns="http://www.w3.org/2000/svg">
<rect width="24" height="16" rx="4" fill="white"/>
<mask id="mask0_3716_8539" style="mask-type:luminance" maskUnits="userSpaceOnUse" x="6" y="3" width="12" height="10">
<path d="M6.36328 3.12793H17.5449V12.752H6.36328V3.12793Z" fill="white"/>
</mask>
<g mask="url(#mask0_3716_8539)">
<path fill-rule="evenodd" clip-rule="evenodd" d="M11.2379 12.752C8.56407 12.7642 6.36328 10.6076 6.36328 7.98178C6.36328 5.1121 8.56407 3.12715 11.2379 3.12769H12.4913C15.1333 3.12715 17.5449 5.11104 17.5449 7.98178C17.5449 10.6063 15.1333 12.752 12.4913 12.752H11.2379Z" fill="#004C97"/>
</g>
<mask id="mask1_3716_8539" style="mask-type:luminance" maskUnits="userSpaceOnUse" x="6" y="3" width="11" height="10">
<path d="M6.36328 3.12793H16.263V12.752H6.36328V3.12793Z" fill="white"/>
</mask>
<g mask="url(#mask1_3716_8539)">
<path fill-rule="evenodd" clip-rule="evenodd" d="M11.2379 12.752C8.56407 12.7642 6.36328 10.6076 6.36328 7.98178C6.36328 5.1121 8.56407 3.12715 11.2379 3.12769H11.3081C13.9499 3.12715 16.263 5.11104 16.263 7.98178C16.263 10.6063 13.9499 12.752 11.3081 12.752H11.2379Z" fill="#004C97"/>
</g>
<path fill-rule="evenodd" clip-rule="evenodd" d="M11.2475 3.52588C8.8041 3.52668 6.82422 5.49835 6.82422 7.9315C6.82422 10.3641 8.8041 12.3355 11.2475 12.3358C13.6912 12.3358 15.6713 10.3641 15.6721 7.9315C15.6713 5.49809 13.6909 3.52641 11.2475 3.52588Z" fill="#FEFEFE"/>
<path fill-rule="evenodd" clip-rule="evenodd" d="M10.2412 10.5365V5.32573C9.18966 5.72908 8.44405 6.74225 8.44141 7.93163C8.44405 9.12047 9.18992 10.1342 10.2412 10.5365ZM14.0502 7.93163C14.0481 6.74172 13.3015 5.72723 12.2489 5.3252V10.5378C13.3015 10.1352 14.0484 9.1218 14.0502 7.93163Z" fill="#004C97"/>
</svg>
