<svg width="20" height="20" viewBox="0 0 20 20" fill="none" xmlns="http://www.w3.org/2000/svg">
<rect width="20" height="20" rx="4" fill="#FFD401"/>
<path d="M14.9973 10.0021C14.9973 12.7649 12.7628 15 10.0008 15C9.47325 15 8.96717 14.9185 8.4954 14.7683C7.78345 14.5453 7.13584 14.1592 6.59544 13.6529C5.60901 12.7477 5 11.4436 5 9.99785C5 7.23509 7.23448 5 9.99649 5C10.5969 5 11.1673 5.10296 11.6949 5.29601C12.3854 5.54483 13.0072 5.9438 13.5133 6.45002C14.4311 7.36379 14.9973 8.61647 14.9973 10.0021Z" fill="white"/>
<path d="M12.3158 12.1258L11.6425 11.7912C11.6425 11.7912 10.4974 13.8804 8.48589 14.7727C7.77394 14.5497 7.12633 14.1636 6.58594 13.6573C7.02769 13.593 7.73963 13.3699 8.48589 12.632C9.7125 11.4308 9.99127 10.7659 9.99127 10.7659L9.46374 10.4141C9.27932 10.294 9.31792 10.0194 9.5195 9.95078L11.8269 9.14855C11.9856 9.09278 12.1571 9.19574 12.17 9.36305L12.5131 11.9757C12.5474 12.0915 12.4273 12.1816 12.3158 12.1258Z" fill="#006E9C"/>
<path d="M13.0114 9.2299C12.9557 9.37576 12.7455 9.35002 12.7241 9.19987L12.574 8.32042L11.4374 8.6722C11.3088 8.71081 11.1973 8.58211 11.253 8.46199C11.4031 8.14024 11.6218 7.60399 11.7977 6.91759C11.9564 6.26122 11.8449 5.68207 11.7076 5.30884C12.3981 5.55766 13.02 5.95663 13.5261 6.46285C13.6119 7.50103 13.2516 8.61643 13.0114 9.2299Z" fill="#006E9C"/>
</svg>
