<svg width="20" height="20" viewBox="0 0 20 20" fill="none" xmlns="http://www.w3.org/2000/svg">
<g clip-path="url(#clip0_3716_9030)">
<rect width="20" height="20" rx="4" fill="#0872B9"/>
<path d="M16 12.1108H4V14.362H16V12.1108Z" fill="#0872B9"/>
<path d="M16 5.69995H4V7.9511H16V5.69995Z" fill="#0872B9"/>
<path d="M16 8.14673H4V11.9394H16V8.14673Z" fill="#0872B9"/>
<path d="M15.2899 6.48303H14.2858L14.3593 6.60537H15.3634L15.7062 6.82559C15.7062 6.82559 15.7797 6.899 15.7307 6.94794L15.3389 7.24156H13.4287L13.2818 7.04581V7.58413H10.9062V6.53196H12.645V7.07028H11.6409V7.26603H12.8165H12.8654V6.55643H13.5267L13.9185 6.94794H15.045V6.75219H13.9185L13.3797 6.21387H15.1185L15.2899 6.48303Z" fill="white"/>
<path d="M13.8465 7.38843H13.6016V7.60865H13.8465V7.38843Z" fill="white"/>
<path d="M14.4324 7.38843H14.1875V7.60865H14.4324V7.38843Z" fill="white"/>
<path d="M5.78817 6.33618H5.44531V6.65428H5.78817V6.33618Z" fill="white"/>
<path d="M6.22958 6.33618H5.88672V6.65428H6.22958V6.33618Z" fill="white"/>
<path d="M9.04598 6.33618H8.70312V6.65428H9.04598V6.33618Z" fill="white"/>
<path d="M10.3426 6.8501H9.46094V7.16819H10.3426V6.8501Z" fill="white"/>
<path d="M8.53181 6.72772H9.14405V7.43732H4.58895L4.24609 6.99688L4.83385 6.21387H5.29915L4.9563 6.99688H7.96854V6.75219H8.38487V6.99688H8.53181V6.72772Z" fill="white"/>
<path d="M6.66905 13.9217H6.27722V13.261C6.27722 13.1142 6.27722 13.0408 6.25273 12.9918C6.22824 12.9429 6.20375 12.9184 6.17926 12.894C6.15477 12.8695 6.10579 12.8695 6.05681 12.8695C5.98334 12.8695 5.93436 12.894 5.88538 12.9184C5.8364 12.9429 5.78742 12.9918 5.78742 13.0408C5.76293 13.0897 5.73844 13.1876 5.73844 13.3344V13.9217H5.37109V12.6248H5.71395V12.8206C5.8364 12.6737 6.00783 12.6003 6.17926 12.6003C6.25273 12.6003 6.3262 12.6248 6.39967 12.6493C6.47313 12.6737 6.52211 12.7227 6.5466 12.7472C6.57109 12.7961 6.59558 12.845 6.62007 12.894C6.64456 12.9429 6.64456 13.0163 6.64456 13.1142V13.9217H6.66905Z" fill="white"/>
<path d="M10.1962 13.5057L10.5636 13.5546C10.5146 13.677 10.4411 13.7749 10.3432 13.8483C10.2452 13.9217 10.0983 13.9461 9.95134 13.9461C9.70644 13.9461 9.51052 13.8727 9.41256 13.7259C9.3146 13.6036 9.26562 13.4568 9.26562 13.2855C9.26562 13.0653 9.33909 12.894 9.46154 12.7716C9.58399 12.6493 9.73093 12.6003 9.92685 12.6003C10.1473 12.6003 10.2942 12.6737 10.4166 12.7961C10.5391 12.9184 10.5881 13.1142 10.5881 13.3833H9.65746C9.65746 13.4812 9.68195 13.5546 9.75542 13.628C9.8044 13.677 9.87787 13.7014 9.97583 13.7014C10.0248 13.7014 10.0738 13.677 10.1228 13.6525C10.1473 13.628 10.1717 13.5791 10.1962 13.5057ZM10.2207 13.1631C10.2207 13.0653 10.1962 12.9918 10.1473 12.9429C10.0983 12.894 10.0248 12.8695 9.95134 12.8695C9.87787 12.8695 9.8044 12.894 9.75542 12.9429C9.70644 12.9918 9.68195 13.0653 9.68195 13.1631H10.2207Z" fill="white"/>
<path d="M14.605 12.6247V12.8939H14.3601V13.4077C14.3601 13.5056 14.3601 13.579 14.3601 13.6035C14.3601 13.6279 14.3846 13.6279 14.3846 13.6524C14.4091 13.6524 14.4336 13.6769 14.4581 13.6769C14.4826 13.6769 14.5316 13.6769 14.605 13.6524L14.6295 13.9216C14.5316 13.946 14.4336 13.9705 14.3357 13.9705C14.2622 13.9705 14.2132 13.9705 14.1642 13.946C14.1152 13.9216 14.0663 13.8971 14.0418 13.8726C14.0173 13.8482 13.9928 13.7992 13.9928 13.7503C13.9928 13.7013 13.9683 13.6279 13.9683 13.5056V12.9428H13.7969V12.6737H13.9683V12.4045L14.3357 12.2087V12.6737H14.605V12.6247Z" fill="white"/>
<path d="M8.458 8.44067H5.61719V11.4748H8.458V8.44067Z" fill="#FBED1F"/>
<path d="M8.35938 9.78641L10.4655 8.46509H14.2124L12.1553 9.78641L14.3839 11.4258H10.3675L8.40835 9.90876L8.35938 9.78641Z" fill="#FBED1F"/>
</g>
<defs>
<clipPath id="clip0_3716_9030">
<rect width="20" height="20" rx="4" fill="white"/>
</clipPath>
</defs>
</svg>
