<svg width="19" height="13" viewBox="0 0 19 13" fill="none" xmlns="http://www.w3.org/2000/svg">
<g clip-path="url(#clip0_2094_16537)">
<path d="M0 0V12.6667H19V0H0Z" fill="white"/>
<path d="M4.88903 1.35742L3.13232 3.99235L4.88903 1.35742ZM3.79099 4.43146L5.54757 1.79653L3.79099 4.43146ZM6.20623 2.23578L4.44979 4.87057L6.20623 2.23578ZM12.7934 10.433L13.5984 9.2254L12.7934 10.433ZM13.7449 9.00585L14.5499 7.79816L13.7449 9.00585ZM15.2087 8.23727L14.4035 9.44496L15.2087 8.23727ZM14.2571 9.66451L13.4521 10.8721L14.2571 9.66451ZM14.1108 11.3113L14.9159 10.1036L14.1108 11.3113ZM15.0623 9.88407L15.8672 8.67638L15.0623 9.88407ZM3.13246 8.67638L4.88903 11.3113L3.13246 8.67638ZM5.5477 10.8721L4.74257 9.66451L5.5477 10.8721ZM4.59625 9.44496L3.79112 8.23727L4.59625 9.44496ZM4.44992 7.79816L6.20637 10.4331L4.44992 7.79816ZM14.55 4.87057L13.745 3.66289L14.55 4.87057ZM13.5986 3.44333L12.7936 2.23578L13.5986 3.44333ZM13.4522 1.79667L15.2088 4.43146L13.4522 1.79667ZM15.8675 3.99235L15.0623 2.78467L15.8675 3.99235ZM14.9159 2.56511L14.111 1.35742L14.9159 2.56511Z" fill="black"/>
<path d="M5.09971 11.1708L4.8888 11.3112L4.67852 11.4516L2.92139 8.8168L3.13229 8.6764L3.3432 8.53538L5.09971 11.1708ZM15.1267 10.2437L14.3214 11.4516L14.1105 11.3112L13.9002 11.1708L14.7049 9.96286L15.1267 10.2437ZM5.7584 10.731L5.54749 10.872L5.33659 11.0124L4.53193 9.80453L4.74284 9.66413L4.95312 9.52373L5.7584 10.731ZM14.468 9.80453L13.6627 11.0124L13.4518 10.872L13.2415 10.731L14.0462 9.52373L14.468 9.80453ZM6.41709 10.2925L5.99528 10.5733L4.23939 7.93854L4.66058 7.65713L6.41709 10.2925ZM13.8093 9.3654L13.004 10.5733L12.7931 10.4329L12.5828 10.2925L13.3875 9.0846L13.8093 9.3654ZM15.867 8.6764L16.0779 8.8168L15.2732 10.0241L14.8514 9.74329L15.6561 8.53538L15.867 8.6764ZM4.80716 9.30417L4.38535 9.58496L3.58008 8.37767L3.79098 8.23727L4.00189 8.09626L4.80716 9.30417ZM15.4192 8.37767L14.6146 9.58496L14.1927 9.30417L14.998 8.09626L15.4192 8.37767ZM14.5496 7.79815L14.7605 7.93854L13.9559 9.14583L13.534 8.86504L14.3393 7.65713L14.5496 7.79815ZM6.41709 2.37585L4.66058 5.01061L4.23877 4.72982L5.99528 2.09505L6.41709 2.37585ZM14.7605 4.72982L14.5502 4.87022L14.3393 5.01061L13.534 3.80332L13.745 3.66292L13.9559 3.52191L14.7605 4.72982ZM5.7584 1.93672L4.00189 4.57148L3.58008 4.29069L5.33659 1.65592L5.7584 1.93672ZM15.4198 4.29069L14.998 4.57148L13.2415 1.93672L13.4524 1.79632L13.6627 1.65592L15.4198 4.29069ZM4.8888 1.35719L5.09971 1.49759L3.3432 4.13236L2.92139 3.85156L4.67852 1.2168L4.8888 1.35719ZM16.0785 3.85156L15.6567 4.13236L14.8514 2.92507L15.0623 2.78467L15.2732 2.64365L16.0785 3.85156ZM13.8093 3.30234L13.5984 3.44336L13.3875 3.58376L12.5828 2.37585L13.0046 2.09505L13.8093 3.30234ZM15.1267 2.42409L14.9158 2.5651L14.7049 2.7055L13.9002 1.49759L14.322 1.2168L15.1267 2.42409Z" fill="black"/>
<path d="M10.8176 7.21113C10.6446 7.47065 10.4221 7.69355 10.163 7.86711C9.90385 8.04066 9.61306 8.16148 9.30722 8.22265C8.68955 8.3462 8.0481 8.21932 7.52398 7.86993C6.99986 7.52053 6.636 6.97724 6.51245 6.35957C6.3889 5.7419 6.51578 5.10045 6.86518 4.57633C7.0954 4.22928 7.39181 3.93105 7.73745 3.69871C8.08309 3.46638 8.47116 3.30451 8.87945 3.22236C9.28774 3.14022 9.70822 3.13942 10.1168 3.22001C10.5254 3.3006 10.9141 3.461 11.2606 3.69202C11.6071 3.92304 11.9047 4.22014 12.1362 4.56631C12.3677 4.91249 12.5287 5.30093 12.6099 5.70941C12.6911 6.11788 12.691 6.53837 12.6094 6.94677C12.5279 7.35518 12.3666 7.7435 12.1348 8.08948" fill="#CD2E3A"/>
<path d="M9.49979 6.33275C9.73273 5.98333 10.0949 5.74077 10.5067 5.6584C10.9185 5.57604 11.3461 5.66063 11.6955 5.89357C12.045 6.12651 12.2875 6.48871 12.3699 6.90049C12.4522 7.31227 12.3677 7.73991 12.1347 8.08932C11.904 8.43535 11.6075 8.73255 11.2619 8.96396C10.9164 9.19537 10.5287 9.35645 10.1209 9.43801C9.29731 9.60274 8.44204 9.43355 7.74321 8.96768C7.04439 8.50181 6.55925 7.77741 6.39452 6.95384C6.2298 6.13027 6.39899 5.275 6.86486 4.57617C6.63192 4.92559 6.54733 5.35322 6.62969 5.76501C6.71205 6.17679 6.95462 6.53899 7.30404 6.77193C7.65345 7.00486 8.08108 7.08945 8.49287 7.00709C8.90465 6.92473 9.26685 6.68216 9.49979 6.33275Z" fill="#0047A0"/>
</g>
<defs>
<clipPath id="clip0_2094_16537">
<rect width="19" height="12.6667" rx="2" fill="white"/>
</clipPath>
</defs>
</svg>
