<svg width="20" height="20" viewBox="0 0 20 20" fill="none" xmlns="http://www.w3.org/2000/svg">
<rect width="20" height="20" rx="4" fill="white"/>
<path d="M4.13439 9.06196L4.00559 10.9132C3.94119 11.5893 4.44029 12.185 5.11649 12.2493C5.14869 12.2493 5.19699 12.2493 5.22918 12.2493H5.79268C6.53328 12.2332 7.14507 11.6537 7.19337 10.9132L7.40267 7.72583H5.55118C4.79449 7.74193 4.18269 8.32145 4.13439 9.06196ZM6.06638 10.9132C6.05028 11.0098 5.96978 11.0903 5.87318 11.0903H5.30968C5.21309 11.0903 5.14869 11.0259 5.14869 10.9293V10.9132L5.27749 9.06196C5.29359 8.96537 5.37408 8.88488 5.47068 8.88488H6.21128L6.06638 10.9132Z" fill="#510C76"/>
<path d="M14.5819 7.72581H12.6983L12.489 10.9132C12.489 11.042 12.489 11.1547 12.5212 11.2674H12.4407C11.845 11.2674 11.5552 10.8488 11.6035 10.0761L11.7001 8.72389L11.7323 8.24095C11.7484 7.96728 11.5391 7.74191 11.2654 7.70972C11.2493 7.70972 11.2493 7.70972 11.2332 7.70972H10.5892L10.557 8.24095L10.4765 9.52878V9.60927V9.73805L10.4604 9.88293V9.94733V10.0278V10.0761L10.4443 10.3981C10.4282 10.6556 10.4443 10.9132 10.4926 11.1708C10.3477 11.2513 10.2028 11.2835 10.0418 11.2835C9.52658 11.2835 8.86648 11.1225 8.86648 10.221L8.96308 8.25705C8.99528 7.98338 8.78598 7.74191 8.51229 7.72581C8.49619 7.72581 8.48009 7.72581 8.48009 7.72581H7.83609L7.80389 8.25705L7.49799 12.8771C7.48189 13.1669 7.43359 13.8913 7.43359 13.8913H8.06149C8.35129 13.8913 8.60889 13.6498 8.62499 13.3601L8.68938 12.2332C8.86648 12.3298 9.31728 12.3781 9.59098 12.3781C10.0418 12.3781 10.4604 12.1849 10.7502 11.8469C11.0239 12.1849 11.4425 12.3781 11.9899 12.3781C12.3602 12.3781 12.7144 12.2654 13.0042 12.0562C13.1169 12.1688 13.2457 12.2493 13.4067 12.2976C13.5032 12.3298 13.6159 12.3298 13.7125 12.3298H14.276C15.0166 12.3137 15.6284 11.7342 15.6928 10.9937L15.8216 9.07804C15.886 8.40193 15.3869 7.8063 14.7107 7.74191C14.6624 7.72581 14.6141 7.72581 14.5819 7.72581ZM14.5497 10.9776C14.5497 11.0742 14.4531 11.1547 14.3565 11.1547H13.793C13.6964 11.1547 13.632 11.0903 13.632 10.9937V10.9776L13.7608 8.88486H14.5014C14.598 8.88486 14.6624 8.94926 14.6624 9.04584V9.06194L14.5497 10.9776Z" fill="#510C76"/>
<path d="M4.79446 6.63137L4.77836 6.88894C4.76226 7.13041 4.93936 7.35578 5.18086 7.37188C5.19696 7.37188 5.21306 7.37188 5.21306 7.37188H5.42235C5.69605 7.37188 5.90535 7.16261 5.93755 6.88894L5.98585 6.14844H5.29356C5.03596 6.14844 4.81056 6.35771 4.79446 6.63137Z" fill="#510C76"/>
<path d="M6.09915 6.63137L6.08305 6.88894C6.06695 7.13041 6.24404 7.35578 6.50164 7.37188C6.51774 7.37188 6.51774 7.37188 6.53384 7.37188H6.72704C7.00074 7.37188 7.21004 7.16261 7.24224 6.88894L7.29054 6.14844H6.61434C6.34064 6.14844 6.11525 6.35771 6.09915 6.63137Z" fill="#510C76"/>
<path d="M8.31933 7.35578H8.57693C8.81843 7.37188 9.04382 7.1948 9.05992 6.93723V6.92114L9.07602 6.71186C9.09212 6.4382 8.94722 6.14844 8.68963 6.14844H7.90073L7.85243 6.82455C7.83633 7.09821 8.04563 7.33968 8.31933 7.35578Z" fill="#EB6B24"/>
<path d="M8.91555 13.1509L8.89945 13.4085C8.88335 13.6499 9.06045 13.8753 9.30195 13.8914C9.31805 13.8914 9.33415 13.8914 9.35025 13.8914H9.55955C9.83325 13.8914 10.0425 13.6821 10.0747 13.4085L10.123 12.668H9.44685C9.15705 12.668 8.93165 12.8933 8.91555 13.1509Z" fill="#510C76"/>
<path d="M10.3023 13.1509L10.2862 13.4085C10.2701 13.6499 10.4472 13.8753 10.6887 13.8914C10.7048 13.8914 10.7209 13.8914 10.7209 13.8914H10.9302C11.2039 13.8914 11.4132 13.6821 11.4454 13.4085L11.4937 12.668H10.8175C10.5438 12.668 10.3184 12.8933 10.3023 13.1509Z" fill="#510C76"/>
<path d="M11.1394 7.33964H10.9945C10.9623 7.33964 10.9623 7.32354 10.9623 7.30744L11.0106 6.69572C11.0106 6.64743 11.0106 6.59913 11.0106 6.55084C11.0106 6.48645 10.9784 6.45425 10.914 6.45425C10.8496 6.45425 10.8013 6.45425 10.753 6.45425C10.7369 6.45425 10.7369 6.45425 10.7369 6.47035C10.753 6.56694 10.753 6.66352 10.7369 6.74401C10.7208 6.8728 10.7208 7.01768 10.7047 7.14646C10.7047 7.19476 10.7047 7.24305 10.6886 7.29134C10.6725 7.33964 10.6725 7.32354 10.6403 7.32354H10.3505C10.3183 7.32354 10.3183 7.32354 10.3183 7.29134C10.3344 7.08207 10.3505 6.8728 10.3666 6.66352C10.3666 6.61523 10.3666 6.56694 10.3666 6.51864C10.3666 6.47035 10.3344 6.43815 10.3022 6.43815H10.2861C10.2378 6.43815 10.1734 6.43815 10.1251 6.43815C10.109 6.43815 10.109 6.43815 10.109 6.45425C10.0929 6.58303 10.0929 6.71182 10.0768 6.8406C10.0607 6.96938 10.0607 7.13036 10.0446 7.27524C10.0446 7.30744 10.0285 7.32354 9.99628 7.32354H9.70648C9.67428 7.32354 9.65819 7.30744 9.67428 7.27524C9.69038 7.06597 9.70648 6.8406 9.72258 6.63133C9.73868 6.48645 9.73868 6.34157 9.75478 6.19669C9.75478 6.16449 9.77088 6.16449 9.80308 6.14839C9.88358 6.13229 9.94798 6.13229 10.0285 6.1162C10.1573 6.1001 10.27 6.1001 10.3988 6.1162C10.4632 6.1162 10.5437 6.14839 10.6081 6.16449C10.6242 6.16449 10.6242 6.16449 10.6403 6.16449C10.7691 6.1162 10.914 6.1001 11.0428 6.1001C11.1072 6.1001 11.1555 6.1162 11.2199 6.13229C11.3165 6.16449 11.397 6.24498 11.4131 6.34157C11.4292 6.42206 11.4292 6.51864 11.4131 6.59913L11.3809 7.13036C11.3809 7.17866 11.3809 7.22695 11.3648 7.27524C11.3487 7.32354 11.3487 7.30744 11.3165 7.30744L11.1394 7.33964Z" fill="#510C76"/>
<path d="M13.345 6.85663H13.023C13.0069 6.85663 12.9908 6.85663 12.9908 6.88882C12.9908 6.98541 13.023 7.0337 13.1196 7.0337C13.2001 7.0337 13.2645 7.0337 13.345 7.0337H13.5704C13.6026 7.0337 13.6187 7.0337 13.6187 7.082C13.6187 7.14639 13.6187 7.21078 13.6026 7.29127C13.6026 7.30737 13.5865 7.32347 13.5704 7.32347C13.4577 7.33956 13.3611 7.35566 13.2484 7.35566C13.1518 7.35566 13.0552 7.35566 12.9586 7.35566C12.8942 7.35566 12.8298 7.32347 12.7654 7.29127C12.701 7.24298 12.6527 7.17859 12.6527 7.0981C12.6366 6.98541 12.6366 6.87273 12.6527 6.76004C12.6527 6.66345 12.6688 6.56686 12.701 6.47028C12.7171 6.37369 12.7815 6.2771 12.8781 6.22881C12.9264 6.19661 12.9908 6.18052 13.0552 6.16442C13.2001 6.14832 13.345 6.14832 13.4738 6.16442C13.5382 6.18052 13.6026 6.19661 13.6509 6.24491C13.6992 6.2932 13.7475 6.37369 13.7475 6.45418C13.7636 6.58296 13.7636 6.71175 13.7475 6.84053C13.7475 6.85663 13.7314 6.87273 13.7153 6.87273H13.6509L13.345 6.85663ZM13.023 6.63126H13.3128C13.3933 6.63126 13.3933 6.63126 13.3772 6.55077C13.3772 6.50247 13.3289 6.47028 13.2806 6.45418C13.2484 6.45418 13.2001 6.45418 13.1679 6.45418C13.1035 6.45418 13.0552 6.48638 13.0391 6.55077C13.023 6.56686 13.023 6.59906 13.023 6.63126Z" fill="#510C76"/>
<path d="M12.1853 6.85661C12.0726 6.85661 11.976 6.85661 11.8794 6.85661C11.8472 6.85661 11.8472 6.87271 11.8472 6.88881C11.8472 6.9854 11.8794 7.01759 11.976 7.03369C12.0082 7.03369 12.0404 7.03369 12.0565 7.03369H12.4268C12.459 7.03369 12.4751 7.03369 12.459 7.06588C12.459 7.13028 12.4429 7.21077 12.4429 7.27516C12.4429 7.29126 12.4268 7.30735 12.4107 7.30735C12.3141 7.32345 12.2014 7.32345 12.1048 7.33955C11.9921 7.33955 11.8794 7.33955 11.7506 7.32345C11.7023 7.32345 11.654 7.29126 11.6057 7.27516C11.5413 7.22686 11.493 7.16247 11.4769 7.06588C11.4608 6.9371 11.4608 6.82442 11.4769 6.69563C11.4769 6.61514 11.493 6.53465 11.5091 6.45416C11.5252 6.34148 11.5896 6.24489 11.6862 6.1966C11.7345 6.1644 11.7989 6.1483 11.8633 6.1483C12.0082 6.13221 12.1531 6.13221 12.298 6.1483C12.3624 6.1644 12.4268 6.1805 12.4751 6.22879C12.5395 6.27709 12.5717 6.35758 12.5717 6.43807C12.5717 6.53465 12.5717 6.63124 12.5717 6.71173C12.5717 6.74393 12.5717 6.77612 12.5717 6.79222C12.5717 6.80832 12.5556 6.84051 12.5234 6.84051L12.1853 6.85661ZM12.2175 6.63124C12.2175 6.59905 12.2175 6.56685 12.2175 6.53465C12.2175 6.48636 12.1692 6.45416 12.137 6.45416C12.1048 6.45416 12.0565 6.45416 12.0243 6.45416C11.9277 6.45416 11.8794 6.53465 11.8794 6.63124H12.2175Z" fill="#510C76"/>
<path d="M15.274 6.43815H15.0647C15.0325 6.43815 15.0164 6.42205 15.0325 6.40596C15.0325 6.34156 15.0486 6.26108 15.0486 6.19668C15.0486 6.18059 15.0647 6.16449 15.0808 6.16449C15.2418 6.13229 15.4189 6.11619 15.5799 6.13229C15.6604 6.13229 15.7248 6.14839 15.8053 6.16449C15.918 6.19668 15.9985 6.30937 15.9985 6.42205C15.9985 6.56694 15.9824 6.71182 15.9663 6.8728L15.9502 7.21085C15.9502 7.27524 15.9341 7.29134 15.8697 7.30744C15.6604 7.33964 15.4511 7.35573 15.2418 7.33964C15.1935 7.33964 15.1291 7.32354 15.0808 7.32354C15.0003 7.30744 14.9359 7.22695 14.9198 7.14646C14.9037 7.03377 14.9037 6.92109 14.952 6.8245C14.9842 6.72791 15.0808 6.64743 15.1935 6.64743C15.2579 6.63133 15.3062 6.63133 15.3706 6.63133C15.4511 6.63133 15.5316 6.63133 15.6121 6.63133C15.6282 6.63133 15.6282 6.63133 15.6282 6.61523V6.59913C15.6282 6.51864 15.596 6.47035 15.4994 6.47035L15.274 6.43815ZM15.596 6.8245C15.5155 6.8245 15.435 6.8245 15.3706 6.8245C15.3223 6.8245 15.274 6.8567 15.274 6.90499C15.274 6.92109 15.274 6.93719 15.274 6.95329C15.274 7.00158 15.3062 7.03377 15.3384 7.03377C15.3384 7.03377 15.3384 7.03377 15.3545 7.03377C15.435 7.03377 15.5155 7.03377 15.5799 7.01768C15.5799 7.01768 15.596 7.01768 15.596 7.00158C15.5799 6.95329 15.5799 6.88889 15.596 6.8245Z" fill="#510C76"/>
<path d="M14.3091 7.01746H14.7921C14.8082 7.01746 14.8082 7.03356 14.8082 7.04966C14.8082 7.13015 14.7921 7.21064 14.7921 7.29113C14.7921 7.32333 14.776 7.32333 14.7438 7.32333H13.81C13.7617 7.32333 13.7617 7.30723 13.7617 7.27503C13.7617 7.24284 13.7617 7.16235 13.7778 7.11405C13.7778 7.09795 13.7939 7.08186 13.7939 7.06576L14.2447 6.53453L14.3252 6.43794H13.8905C13.8422 6.43794 13.8422 6.43794 13.8422 6.38965L13.8583 6.18037C13.8583 6.14818 13.8744 6.13208 13.9066 6.13208H14.8082C14.8404 6.13208 14.8565 6.14818 14.8404 6.18037C14.8404 6.24477 14.8404 6.29306 14.8243 6.35745C14.8243 6.37355 14.8243 6.38965 14.8082 6.40574C14.6472 6.59892 14.4862 6.80819 14.3252 7.00137L14.3091 7.01746Z" fill="#510C76"/>
<path d="M12.3765 12.7324C12.0867 12.7485 11.8613 12.9739 11.8452 13.2637L11.7969 13.8915H15.0169C15.3066 13.8754 15.532 13.65 15.5481 13.3602L15.5964 12.7324H12.3765Z" fill="#EB6B24"/>
</svg>
