<svg width="20" height="20" viewBox="0 0 20 20" fill="none" xmlns="http://www.w3.org/2000/svg">
<rect width="20" height="20" rx="4" fill="white"/>
<path d="M10.138 5.00003C9.06276 4.99639 8.01469 5.33581 7.14764 5.96845C6.28057 6.60109 5.6402 7.49363 5.32052 8.51505C5.31623 8.52898 5.31528 8.54371 5.31774 8.55809C5.3202 8.57246 5.326 8.58605 5.33469 8.59779C5.34337 8.60952 5.3547 8.61911 5.36776 8.6257C5.38082 8.63234 5.39525 8.63581 5.4099 8.63586H7.34365C7.36089 8.63603 7.37783 8.63142 7.39259 8.62254C7.40735 8.6137 7.41937 8.60095 7.4273 8.5857C7.69388 8.08706 8.09456 7.67195 8.58456 7.38676C9.07458 7.10156 9.63464 6.95754 10.2022 6.97073C11.8379 7.00036 13.1042 8.33888 13.1632 9.88144C13.1893 10.5675 12.9805 11.242 12.5709 11.7945C12.1614 12.347 11.5755 12.7448 10.9091 12.9228C10.2427 13.1007 9.53528 13.0483 8.90277 12.7741C8.27021 12.4998 7.75 12.02 7.4273 11.4132C7.41946 11.3982 7.40762 11.3855 7.39308 11.3767C7.37853 11.3678 7.36184 11.3631 7.34479 11.3631H5.4099C5.39525 11.3631 5.38082 11.3666 5.36776 11.3732C5.3547 11.3798 5.34337 11.3894 5.33469 11.4011C5.326 11.4129 5.3202 11.4265 5.31774 11.4408C5.31528 11.4552 5.31623 11.4699 5.32052 11.4839C5.59616 12.3663 6.11219 13.1555 6.81132 13.7638C7.51046 14.3721 8.36536 14.7758 9.28108 14.9299C10.1968 15.0841 11.1376 14.9828 11.999 14.6372C12.8603 14.2916 13.6086 13.7153 14.1607 12.9722C14.7128 12.2292 15.0471 11.3484 15.1266 10.4277C15.206 9.50705 15.0275 8.58249 14.6108 7.75662C14.194 6.93081 13.5555 6.23603 12.7659 5.74942C11.9764 5.26281 11.0667 5.00341 10.138 5.00003Z" fill="#1DCF9F"/>
<path fill-rule="evenodd" clip-rule="evenodd" d="M7.27187 10.9424H4.90113C4.88791 10.9424 4.87481 10.9397 4.8626 10.9345C4.85039 10.9293 4.8393 10.9218 4.82997 10.9122C4.82065 10.9027 4.81327 10.8914 4.80826 10.879C4.80325 10.8665 4.80071 10.8532 4.80078 10.8397V9.21638C4.80071 9.20293 4.80325 9.18961 4.80826 9.17717C4.81327 9.16472 4.82065 9.15343 4.82997 9.14389C4.8393 9.13434 4.85039 9.12678 4.8626 9.1216C4.87481 9.11645 4.88791 9.11377 4.90113 9.11377H7.27187C7.28509 9.11377 7.29819 9.11645 7.3104 9.1216C7.32261 9.12678 7.3337 9.13434 7.34302 9.14389C7.35235 9.15343 7.35973 9.16472 7.36474 9.17717C7.36975 9.18961 7.37229 9.20293 7.37221 9.21638V10.8397C7.37229 10.8532 7.36975 10.8665 7.36474 10.879C7.35973 10.8914 7.35235 10.9027 7.34302 10.9122C7.3337 10.9218 7.32261 10.9293 7.3104 10.9345C7.29819 10.9397 7.28509 10.9424 7.27187 10.9424Z" fill="#210F60"/>
</svg>
