<svg width="25" height="24" viewBox="0 0 25 24" fill="none" xmlns="http://www.w3.org/2000/svg">
<rect width="25" height="24" rx="4" fill="#333333"/>
<path fill-rule="evenodd" clip-rule="evenodd" d="M6.96875 6.50003V19.0816H9.20875V13.5216L14.1287 13.5816C15.4621 13.5816 16.4754 13.2083 17.1687 12.4616C17.8754 11.7149 18.2287 10.6883 18.2287 9.3816C18.2287 8.07493 17.8754 7.04826 17.1687 6.3016C16.4754 5.55493 15.4621 5.1816 14.1287 5.1816L8.24884 5.13232L6.96875 6.50003ZM13.7887 11.7216L9.20875 11.6616V6.9816L13.7887 7.0416C15.1754 7.0416 15.8687 7.67493 15.8687 8.9416V9.8016C15.8687 11.0816 15.1754 11.7216 13.7887 11.7216Z" fill="white"/>
</svg>
