<svg width="25" height="24" viewBox="0 0 25 24" fill="none" xmlns="http://www.w3.org/2000/svg">
<rect width="25" height="24" rx="4" fill="#333333"/>
<path d="M18.1953 14.4062C18.1953 14.8073 18.1432 15.1693 18.0391 15.4922C17.9401 15.8099 17.8073 16.0911 17.6406 16.3359C17.474 16.5807 17.2786 16.7891 17.0547 16.9609C16.8307 17.1328 16.599 17.2734 16.3594 17.3828C16.1198 17.4922 15.875 17.5729 15.625 17.625C15.3802 17.6771 15.1484 17.7031 14.9297 17.7031H7.09375V15.6719H14.9297C15.3203 15.6719 15.6224 15.5573 15.8359 15.3281C16.0547 15.099 16.1641 14.7917 16.1641 14.4062C16.1641 14.2188 16.1354 14.0469 16.0781 13.8906C16.0208 13.7344 15.9375 13.599 15.8281 13.4844C15.724 13.3698 15.5938 13.2812 15.4375 13.2188C15.2865 13.1562 15.1172 13.125 14.9297 13.125H10.2578C9.92969 13.125 9.57552 13.0677 9.19531 12.9531C8.8151 12.8333 8.46094 12.6432 8.13281 12.3828C7.8099 12.1224 7.53906 11.7812 7.32031 11.3594C7.10677 10.9375 7 10.4219 7 9.8125C7 9.20312 7.10677 8.6901 7.32031 8.27344C7.53906 7.85156 7.8099 7.51042 8.13281 7.25C8.46094 6.98438 8.8151 6.79427 9.19531 6.67969C9.57552 6.5599 9.92969 6.5 10.2578 6.5H17.1719V8.53125H10.2578C9.8724 8.53125 9.57031 8.64844 9.35156 8.88281C9.13802 9.11719 9.03125 9.42708 9.03125 9.8125C9.03125 10.2031 9.13802 10.513 9.35156 10.7422C9.57031 10.9661 9.8724 11.0781 10.2578 11.0781H14.9297H14.9453C15.1641 11.0833 15.3958 11.1146 15.6406 11.1719C15.8854 11.224 16.1276 11.3073 16.3672 11.4219C16.612 11.5365 16.8438 11.6823 17.0625 11.8594C17.2812 12.0312 17.474 12.2396 17.6406 12.4844C17.8125 12.7292 17.9479 13.0104 18.0469 13.3281C18.1458 13.6458 18.1953 14.0052 18.1953 14.4062Z" fill="white"/>
</svg>
