<svg width="20" height="20" viewBox="0 0 20 20" fill="none" xmlns="http://www.w3.org/2000/svg">
<g clip-path="url(#clip0_3716_9064)">
<rect width="20" height="10" fill="#4F008C"/>
<rect y="10" width="20" height="10" fill="#00C48C"/>
<path d="M3.94256 8.87165C4.45889 8.89039 4.9625 8.70938 5.34839 8.36636C5.47355 8.24348 5.57246 8.09655 5.63915 7.93442C5.70584 7.77231 5.73892 7.59839 5.7364 7.42315C5.73795 7.25974 5.70694 7.09767 5.64514 6.94634C5.58337 6.79502 5.49205 6.65745 5.37652 6.5417C5.10307 6.28461 4.758 6.11626 4.38682 6.05886L3.69233 5.92413C3.41116 5.86797 3.24246 5.7248 3.24246 5.52831C3.24246 5.26723 3.49551 5.08758 3.90038 5.08758C4.12636 5.07882 4.34667 5.15953 4.51333 5.31215C4.6069 5.41398 4.66594 5.54265 4.68204 5.6799L5.68298 5.45532C5.65106 5.17059 5.51965 4.9062 5.31186 4.70861C4.93006 4.35643 4.42561 4.16706 3.90602 4.18086C3.42179 4.16566 2.94939 4.33189 2.58171 4.64685C2.44765 4.77058 2.34089 4.92086 2.26827 5.0881C2.19566 5.25535 2.15877 5.43586 2.15996 5.61814C2.15496 5.77042 2.18105 5.9221 2.23664 6.064C2.29222 6.20588 2.37615 6.33499 2.48331 6.44346C2.74687 6.68722 3.07288 6.85337 3.42522 6.92347L4.10846 7.08629C4.45148 7.1649 4.60331 7.29122 4.60331 7.51579C4.60331 7.7965 4.35307 7.95651 3.93975 7.95651C3.81227 7.96271 3.68486 7.94275 3.56541 7.89784C3.44596 7.85294 3.337 7.78406 3.24527 7.69545C3.13567 7.58524 3.07145 7.43798 3.06532 7.2828L2.03906 7.50737C2.07047 7.80878 2.20796 8.08929 2.42707 8.299C2.62887 8.48871 2.8667 8.63613 3.1265 8.73255C3.38631 8.82898 3.66284 8.87245 3.93975 8.86042L3.94256 8.87165ZM11.5313 8.86042C11.8124 8.86823 12.0922 8.8204 12.3548 8.71969C12.6173 8.61901 12.8572 8.46744 13.0608 8.27373C13.3212 8.02659 13.5089 7.71303 13.6035 7.36702L12.5491 7.01611C12.4999 7.19502 12.4026 7.35711 12.2679 7.48491C12.0698 7.6712 11.8061 7.77205 11.5341 7.76562C11.3858 7.76723 11.2386 7.73953 11.1011 7.68412C10.9636 7.62872 10.8384 7.54671 10.7328 7.4428C10.5113 7.18941 10.3955 6.86087 10.4094 6.52487C10.3941 6.18459 10.5133 5.85195 10.7412 5.59849C10.9539 5.39379 11.2387 5.28085 11.5341 5.28409C11.6656 5.27997 11.7965 5.30275 11.9188 5.35102C12.0412 5.3993 12.1523 5.47205 12.2454 5.5648C12.3769 5.69845 12.4735 5.86235 12.5266 6.04202L13.5978 5.68271C13.5083 5.34831 13.3351 5.04211 13.0945 4.79283C12.8844 4.59362 12.6368 4.43796 12.3661 4.33485C12.0954 4.23174 11.8068 4.18322 11.5172 4.19209C11.216 4.18852 10.9172 4.24447 10.6378 4.35673C10.3584 4.46899 10.104 4.63532 9.88925 4.84616C9.4615 5.30403 9.22503 5.9077 9.22818 6.53381C9.23131 7.15993 9.47382 7.76121 9.90611 8.21478C10.3418 8.63801 10.9262 8.87383 11.5341 8.87165L11.5313 8.86042ZM7.89858 8.87165C8.23597 8.88536 8.56834 8.78661 8.84332 8.59094V7.63089C8.6664 7.7519 8.45603 7.81472 8.24161 7.81055C8.16079 7.82541 8.07755 7.82031 7.99917 7.79567C7.92079 7.77101 7.84965 7.72757 7.79195 7.66915C7.73427 7.6107 7.69177 7.53907 7.66821 7.46046C7.64466 7.38186 7.64074 7.2987 7.65678 7.21823V3.1001H6.47308V4.31561H8.84894V5.46374H6.47308V7.50456C6.45688 7.86452 6.58312 8.21642 6.82453 8.48428C6.96958 8.61739 7.1398 8.72023 7.32521 8.78674C7.51061 8.85327 7.70746 8.88214 7.90421 8.87165" fill="white"/>
<path d="M4.43359 16.9392V11.778H5.30163V12.1862C5.43921 12.0183 5.61364 11.8847 5.81122 11.796C6.00877 11.7073 6.22412 11.6658 6.44032 11.6748C7.43902 11.6748 8.15772 12.4771 8.15772 13.6267C8.15772 14.7762 7.46237 15.602 6.44032 15.602C6.22336 15.6099 6.00754 15.5669 5.8099 15.4766C5.61228 15.3862 5.43827 15.2508 5.30163 15.0812V16.958L4.43359 16.9392ZM5.30163 13.1856V14.124C5.38321 14.3205 5.52057 14.4884 5.69651 14.6069C5.87246 14.7254 6.07922 14.7892 6.291 14.7903C6.86968 14.7903 7.25236 14.3539 7.25236 13.6501C7.25236 12.9463 6.86968 12.5194 6.291 12.5194C6.0789 12.5163 5.87088 12.5778 5.69428 12.6959C5.51767 12.814 5.38079 12.9831 5.30163 13.1809" fill="white"/>
<path d="M8.74722 14.2617C8.73382 13.9803 8.8401 13.7054 9.04302 13.4966C9.24593 13.2878 9.52907 13.162 9.83095 13.1466L11.3876 12.963V12.7795C11.3946 12.7358 11.3908 12.6912 11.3764 12.649C11.3621 12.6069 11.3375 12.5684 11.3047 12.5365C11.2719 12.5046 11.2316 12.4802 11.1871 12.465C11.1425 12.4498 11.0948 12.4444 11.0477 12.4491H9.07728V11.6736H11.0477C11.8358 11.6736 12.2742 12.0315 12.2742 12.674V15.2942H11.3876V14.8353C11.2383 15.0184 11.0429 15.1644 10.8187 15.2605C10.5944 15.3565 10.3482 15.3996 10.1019 15.386C9.9308 15.4027 9.75783 15.3857 9.59425 15.3361C9.43068 15.2865 9.2801 15.2055 9.15236 15.0981C9.02459 14.9908 8.9225 14.8596 8.85272 14.7132C8.78294 14.5667 8.74697 14.4082 8.74722 14.2479V14.2617ZM10.3285 14.7068C10.5488 14.7112 10.7658 14.6564 10.9536 14.5491C11.1414 14.4416 11.2921 14.2861 11.3876 14.1011V13.6422L10.2004 13.7982C9.87036 13.8395 9.70779 14.0001 9.70779 14.2571C9.70779 14.5141 9.93932 14.716 10.3482 14.716" fill="white"/>
<path d="M13.0128 16.139H13.5939C13.6839 16.1491 13.774 16.1204 13.8461 16.0588C13.9182 15.9972 13.967 15.9071 13.9827 15.8067L14.0895 15.4743L12.8633 11.6736H13.6922L14.4526 14.3182L15.1832 11.6736H15.9994L14.6536 16.0379C14.4699 16.64 14.2262 16.958 13.6366 16.958H13.0128V16.139Z" fill="white"/>
</g>
<defs>
<clipPath id="clip0_3716_9064">
<rect width="20" height="20" rx="4" fill="white"/>
</clipPath>
</defs>
</svg>
