<svg width="30" height="20" viewBox="0 0 30 20" fill="none" xmlns="http://www.w3.org/2000/svg">
<rect width="30" height="20" fill="#F4F5F7"/>
<path d="M22.7205 15.0909V4.18182H23.4194V15.0909H22.7205ZM24.5742 7.78267C24.5401 7.43892 24.3938 7.17188 24.1353 6.98153C23.8768 6.79119 23.5259 6.69602 23.0827 6.69602C22.7816 6.69602 22.5273 6.73864 22.32 6.82386C22.1126 6.90625 21.9535 7.02131 21.8427 7.16903C21.7347 7.31676 21.6808 7.48438 21.6808 7.67188C21.6751 7.82812 21.7077 7.96449 21.7788 8.08097C21.8526 8.19744 21.9535 8.2983 22.0813 8.38352C22.2092 8.46591 22.3569 8.53835 22.5245 8.60085C22.6921 8.66051 22.8711 8.71165 23.0614 8.75426L23.8455 8.94176C24.2262 9.02699 24.5756 9.14062 24.8938 9.28267C25.212 9.42472 25.4876 9.59943 25.7205 9.80682C25.9535 10.0142 26.1339 10.2585 26.2617 10.5398C26.3924 10.821 26.4592 11.1435 26.462 11.5071C26.4592 12.0412 26.3228 12.5043 26.0529 12.8963C25.7859 13.2855 25.3995 13.5881 24.8938 13.804C24.391 14.017 23.7844 14.1236 23.0742 14.1236C22.3697 14.1236 21.756 14.0156 21.2333 13.7997C20.7134 13.5838 20.3072 13.2642 20.0146 12.8409C19.7248 12.4148 19.5728 11.8878 19.5586 11.2599H21.3441C21.364 11.5526 21.4478 11.7969 21.5955 11.9929C21.7461 12.1861 21.9464 12.3324 22.1964 12.4318C22.4492 12.5284 22.7347 12.5767 23.0529 12.5767C23.3654 12.5767 23.6367 12.5313 23.8668 12.4403C24.0998 12.3494 24.2802 12.223 24.408 12.0611C24.5359 11.8991 24.5998 11.7131 24.5998 11.5028C24.5998 11.3068 24.5415 11.142 24.4251 11.0085C24.3114 10.875 24.1438 10.7614 23.9222 10.6676C23.7035 10.5739 23.435 10.4886 23.1168 10.4119L22.1665 10.1733C21.4308 9.99432 20.8498 9.71449 20.4237 9.33381C19.9975 8.95312 19.7859 8.44034 19.7887 7.79545C19.7859 7.26705 19.9265 6.8054 20.2106 6.41051C20.4975 6.01562 20.891 5.70739 21.391 5.4858C21.891 5.2642 22.4592 5.15341 23.0955 5.15341C23.7433 5.15341 24.3086 5.2642 24.7915 5.4858C25.2773 5.70739 25.6552 6.01562 25.9251 6.41051C26.195 6.8054 26.3342 7.26278 26.3427 7.78267H24.5742Z" fill="#2F3A66"/>
<path d="M11.4919 6.79404V5.27273H18.6595V6.79404H15.9876V14H14.1637V6.79404H11.4919Z" fill="#2F3A66"/>
<path d="M10.2997 5.27273V14H8.70597L4.90909 8.5071H4.84517V14H3V5.27273H4.61932L8.38636 10.7614H8.46307V5.27273H10.2997Z" fill="#2F3A66"/>
</svg>
