<svg width="19" height="10" viewBox="0 0 19 10" fill="none" xmlns="http://www.w3.org/2000/svg">
<g clip-path="url(#clip0_2171_16145)">
<path d="M0 0H19V10H0" fill="#B31942"/>
<path d="M0 1.15381H19H0ZM19 2.69227H0H19ZM0 4.23073H19H0ZM19 5.76919H0H19ZM0 7.30765H19H0ZM19 8.84612H0H19Z" fill="black"/>
<path d="M19 8.47119V9.22119H0V8.47119H19ZM19 6.93262V7.68262H0V6.93262H19ZM19 5.39404V6.14404H0V5.39404H19ZM19 3.85596V4.60596H0V3.85596H19ZM19 2.31738V3.06738H0V2.31738H19ZM19 0.778809V1.52881H0V0.778809H19Z" fill="white"/>
<path d="M0 0H7.6V5.38462H0" fill="#0A3161"/>
<path d="M0.632475 0.230713L0.813331 0.787333L0.339844 0.443323H0.925108L0.451618 0.787333L0.632475 0.230713Z" fill="white"/>
<path d="M0.632475 1.30762L0.813331 1.86424L0.339844 1.52023H0.925108L0.451618 1.86424L0.632475 1.30762Z" fill="white"/>
<path d="M0.632475 2.38452L0.813331 2.94114L0.339844 2.59713H0.925108L0.451618 2.94114L0.632475 2.38452Z" fill="white"/>
<path d="M0.632475 3.46143L0.813331 4.01805L0.339844 3.67404H0.925108L0.451618 4.01805L0.632475 3.46143Z" fill="white"/>
<path d="M0.632475 4.53833L0.813331 5.09495L0.339844 4.75094H0.925108L0.451618 5.09495L0.632475 4.53833Z" fill="white"/>
<path d="M1.26529 0.769287L1.44614 1.32591L0.972656 0.981897H1.55792L1.08443 1.32591L1.26529 0.769287Z" fill="white"/>
<path d="M1.26529 1.84619L1.44614 2.40281L0.972656 2.0588H1.55792L1.08443 2.40281L1.26529 1.84619Z" fill="white"/>
<path d="M1.26529 2.9231L1.44614 3.47972L0.972656 3.13571H1.55792L1.08443 3.47972L1.26529 2.9231Z" fill="white"/>
<path d="M1.26529 4L1.44614 4.55662L0.972656 4.21261H1.55792L1.08443 4.55662L1.26529 4Z" fill="white"/>
<path d="M1.8981 0.230713L2.07896 0.787333L1.60547 0.443323H2.19073L1.71724 0.787333L1.8981 0.230713Z" fill="white"/>
<path d="M1.8981 1.30762L2.07896 1.86424L1.60547 1.52023H2.19073L1.71724 1.86424L1.8981 1.30762Z" fill="white"/>
<path d="M1.8981 2.38452L2.07896 2.94114L1.60547 2.59713H2.19073L1.71724 2.94114L1.8981 2.38452Z" fill="white"/>
<path d="M1.8981 3.46143L2.07896 4.01805L1.60547 3.67404H2.19073L1.71724 4.01805L1.8981 3.46143Z" fill="white"/>
<path d="M1.8981 4.53833L2.07896 5.09495L1.60547 4.75094H2.19073L1.71724 5.09495L1.8981 4.53833Z" fill="white"/>
<path d="M2.53091 0.769287L2.71177 1.32591L2.23828 0.981897H2.82355L2.35006 1.32591L2.53091 0.769287Z" fill="white"/>
<path d="M2.53091 1.84619L2.71177 2.40281L2.23828 2.0588H2.82355L2.35006 2.40281L2.53091 1.84619Z" fill="white"/>
<path d="M2.53091 2.9231L2.71177 3.47972L2.23828 3.13571H2.82355L2.35006 3.47972L2.53091 2.9231Z" fill="white"/>
<path d="M2.53091 4L2.71177 4.55662L2.23828 4.21261H2.82355L2.35006 4.55662L2.53091 4Z" fill="white"/>
<path d="M3.16763 0.230713L3.34849 0.787333L2.875 0.443323H3.46026L2.98677 0.787333L3.16763 0.230713Z" fill="white"/>
<path d="M3.16763 1.30762L3.34849 1.86424L2.875 1.52023H3.46026L2.98677 1.86424L3.16763 1.30762Z" fill="white"/>
<path d="M3.16763 2.38452L3.34849 2.94114L2.875 2.59713H3.46026L2.98677 2.94114L3.16763 2.38452Z" fill="white"/>
<path d="M3.16763 3.46143L3.34849 4.01805L2.875 3.67404H3.46026L2.98677 4.01805L3.16763 3.46143Z" fill="white"/>
<path d="M3.16763 4.53833L3.34849 5.09495L2.875 4.75094H3.46026L2.98677 5.09495L3.16763 4.53833Z" fill="white"/>
<path d="M3.80044 0.769287L3.9813 1.32591L3.50781 0.981897H4.09308L3.61959 1.32591L3.80044 0.769287Z" fill="white"/>
<path d="M3.80044 1.84619L3.9813 2.40281L3.50781 2.0588H4.09308L3.61959 2.40281L3.80044 1.84619Z" fill="white"/>
<path d="M3.80044 2.9231L3.9813 3.47972L3.50781 3.13571H4.09308L3.61959 3.47972L3.80044 2.9231Z" fill="white"/>
<path d="M3.80044 4L3.9813 4.55662L3.50781 4.21261H4.09308L3.61959 4.55662L3.80044 4Z" fill="white"/>
<path d="M4.43326 0.230713L4.61411 0.787333L4.14062 0.443323H4.72589L4.2524 0.787333L4.43326 0.230713Z" fill="white"/>
<path d="M4.43326 1.30762L4.61411 1.86424L4.14062 1.52023H4.72589L4.2524 1.86424L4.43326 1.30762Z" fill="white"/>
<path d="M4.43326 2.38452L4.61411 2.94114L4.14062 2.59713H4.72589L4.2524 2.94114L4.43326 2.38452Z" fill="white"/>
<path d="M4.43326 3.46143L4.61411 4.01805L4.14062 3.67404H4.72589L4.2524 4.01805L4.43326 3.46143Z" fill="white"/>
<path d="M4.43326 4.53833L4.61411 5.09495L4.14062 4.75094H4.72589L4.2524 5.09495L4.43326 4.53833Z" fill="white"/>
<path d="M5.06607 0.769287L5.24692 1.32591L4.77344 0.981897H5.3587L4.88521 1.32591L5.06607 0.769287Z" fill="white"/>
<path d="M5.06607 1.84619L5.24692 2.40281L4.77344 2.0588H5.3587L4.88521 2.40281L5.06607 1.84619Z" fill="white"/>
<path d="M5.06607 2.9231L5.24692 3.47972L4.77344 3.13571H5.3587L4.88521 3.47972L5.06607 2.9231Z" fill="white"/>
<path d="M5.06607 4L5.24692 4.55662L4.77344 4.21261H5.3587L4.88521 4.55662L5.06607 4Z" fill="white"/>
<path d="M5.69888 0.230713L5.87974 0.787333L5.40625 0.443323H5.99151L5.51802 0.787333L5.69888 0.230713Z" fill="white"/>
<path d="M5.69888 1.30762L5.87974 1.86424L5.40625 1.52023H5.99151L5.51802 1.86424L5.69888 1.30762Z" fill="white"/>
<path d="M5.69888 2.38452L5.87974 2.94114L5.40625 2.59713H5.99151L5.51802 2.94114L5.69888 2.38452Z" fill="white"/>
<path d="M5.69888 3.46143L5.87974 4.01805L5.40625 3.67404H5.99151L5.51802 4.01805L5.69888 3.46143Z" fill="white"/>
<path d="M5.69888 4.53833L5.87974 5.09495L5.40625 4.75094H5.99151L5.51802 5.09495L5.69888 4.53833Z" fill="white"/>
<path d="M6.33169 0.769287L6.51255 1.32591L6.03906 0.981897H6.62433L6.15084 1.32591L6.33169 0.769287Z" fill="white"/>
<path d="M6.33169 1.84619L6.51255 2.40281L6.03906 2.0588H6.62433L6.15084 2.40281L6.33169 1.84619Z" fill="white"/>
<path d="M6.33169 2.9231L6.51255 3.47972L6.03906 3.13571H6.62433L6.15084 3.47972L6.33169 2.9231Z" fill="white"/>
<path d="M6.33169 4L6.51255 4.55662L6.03906 4.21261H6.62433L6.15084 4.55662L6.33169 4Z" fill="white"/>
<path d="M6.96451 0.230713L7.14536 0.787333L6.67188 0.443323H7.25714L6.78365 0.787333L6.96451 0.230713Z" fill="white"/>
<path d="M6.96451 1.30762L7.14536 1.86424L6.67188 1.52023H7.25714L6.78365 1.86424L6.96451 1.30762Z" fill="white"/>
<path d="M6.96451 2.38452L7.14536 2.94114L6.67188 2.59713H7.25714L6.78365 2.94114L6.96451 2.38452Z" fill="white"/>
<path d="M6.96451 3.46143L7.14536 4.01805L6.67188 3.67404H7.25714L6.78365 4.01805L6.96451 3.46143Z" fill="white"/>
<path d="M6.96451 4.53833L7.14536 5.09495L6.67188 4.75094H7.25714L6.78365 5.09495L6.96451 4.53833Z" fill="white"/>
</g>
<defs>
<clipPath id="clip0_2171_16145">
<rect width="19" height="10" rx="2" fill="white"/>
</clipPath>
</defs>
</svg>
