<svg width="20" height="20" viewBox="0 0 20 20" fill="none" xmlns="http://www.w3.org/2000/svg">
<rect width="20" height="20" rx="4" fill="#ED1E24"/>
<path fill-rule="evenodd" clip-rule="evenodd" d="M9.99981 15C12.761 15 14.9993 12.7618 14.9993 10.0001C14.9993 7.73685 13.4959 5.82494 11.4335 5.20861C11.437 5.20651 11.4388 5.20547 11.4388 5.20547C11.4336 5.20547 11.4283 5.20548 11.423 5.2055C10.972 5.07178 10.4943 5 9.99981 5C7.23834 5 5 7.23849 5 10.0001C5 12.7618 7.23834 15 9.99981 15ZM11.423 5.2055C9.34718 5.21423 7.55805 6.93978 7.20882 9.12217C7.17697 9.32793 7.20882 9.97852 7.20882 9.97852C7.20882 11.5197 8.45848 12.7694 9.99981 12.7694C11.5414 12.7694 12.7911 11.5199 12.7911 9.97852C12.7911 8.43855 11.5443 7.19027 10.0054 7.18705C10.4147 5.83757 11.3541 5.25579 11.4335 5.20861L11.423 5.2055Z" fill="white"/>
</svg>
