<svg width="40" height="40" viewBox="0 0 40 40" fill="none" xmlns="http://www.w3.org/2000/svg">
<g clip-path="url(#clip0_1736_17237)">
<path d="M15.3308 5.61279H12.218C11.3584 5.61279 10.6616 6.30959 10.6616 7.1692C10.6616 8.02881 11.3584 8.72561 12.218 8.72561H15.3308C16.1904 8.72561 16.8872 8.02881 16.8872 7.1692C16.8872 6.30959 16.1905 5.61279 15.3308 5.61279Z" fill="#7A49E9"/>
<path d="M12.2178 32.8499C12.2178 33.0543 12.258 33.2566 12.3362 33.4455C12.4145 33.6343 12.5291 33.8059 12.6736 33.9504C12.8182 34.0949 12.9897 34.2096 13.1786 34.2878C13.3674 34.366 13.5698 34.4063 13.7742 34.4063C13.9786 34.4063 14.181 34.366 14.3698 34.2878C14.5586 34.2096 14.7302 34.0949 14.8747 33.9504C15.0193 33.8059 15.1339 33.6343 15.2121 33.4455C15.2903 33.2566 15.3306 33.0543 15.3306 32.8499C15.3306 32.6455 15.2903 32.4431 15.2121 32.2543C15.1339 32.0654 15.0193 31.8938 14.8747 31.7493C14.7302 31.6048 14.5586 31.4901 14.3698 31.4119C14.181 31.3337 13.9786 31.2935 13.7742 31.2935C13.5698 31.2935 13.3674 31.3337 13.1786 31.4119C12.9897 31.4901 12.8182 31.6048 12.6736 31.7493C12.5291 31.8938 12.4145 32.0654 12.3362 32.2543C12.258 32.4431 12.2178 32.6455 12.2178 32.8499Z" fill="#7A49E9"/>
<path d="M27.5487 7.10326V6.30334C27.5487 2.87053 24.7559 0.0776367 21.323 0.0776367H6.2257C2.79281 0.0776367 0 2.87045 0 6.30334V33.6963C0 37.1291 2.79281 39.922 6.2257 39.922H21.323C24.7558 39.922 27.5487 37.1292 27.5487 33.6963V33.0703C29.4836 32.9887 31.3894 32.4758 33.0918 31.5717C33.851 31.1685 34.1397 30.2262 33.7365 29.4671C33.3333 28.7079 32.391 28.4193 31.6319 28.8224C30.2177 29.5733 28.6173 29.9704 27.0039 29.9704C21.5543 29.9704 17.1206 25.5368 17.1206 20.0871C17.1206 14.6374 21.5542 10.2038 27.0039 10.2038C32.4536 10.2038 36.8872 14.6374 36.8872 20.0871C36.8872 21.481 36.6034 22.8277 36.0434 24.0897C35.6949 24.8755 36.0493 25.7951 36.835 26.1436C37.6209 26.4919 38.5404 26.1377 38.8889 25.352C39.6262 23.6901 40 21.9187 40 20.0872C40 13.1037 34.463 7.38982 27.5487 7.10326ZM24.4358 7.34639C18.4955 8.54178 14.0078 13.8 14.0078 20.0872C14.0078 26.3744 18.4955 31.6325 24.4358 32.8279V33.6964C24.4358 35.4128 23.0394 36.8092 21.323 36.8092H6.2257C4.5093 36.8092 3.11289 35.4128 3.11289 33.6964V6.30334C3.11289 4.58693 4.5093 3.19053 6.2257 3.19053H21.323C23.0394 3.19053 24.4358 4.58693 24.4358 6.30334V7.34639Z" fill="#7A49E9"/>
<path d="M27.0037 27.8696C27.8633 27.8696 28.5601 27.1728 28.5601 26.3132V26.0477C30.1236 25.6538 31.2838 24.2441 31.2838 22.5701V21.9462C31.2838 19.9724 29.6639 18.3664 27.6728 18.3664H26.6373C26.3752 18.3664 26.1453 18.1161 26.1453 17.8307V17.765C26.1453 17.4919 26.3568 17.286 26.6373 17.286H28.5601C29.4197 17.286 30.1165 16.5892 30.1165 15.7296C30.1165 14.8699 29.4197 14.1731 28.5601 14.1731V13.9397C28.5601 13.0801 27.8633 12.3833 27.0037 12.3833C26.1441 12.3833 25.4473 13.0801 25.4473 13.9397V14.3752C24.0427 14.8662 23.0325 16.1999 23.0325 17.7651V17.8308C23.0325 19.8426 24.6496 21.4794 26.6373 21.4794H27.6728C27.9569 21.4794 28.171 21.6802 28.171 21.9463V22.5703C28.171 22.8409 27.9569 23.0449 27.6728 23.0449H24.5134C23.6538 23.0449 22.957 23.7417 22.957 24.6013C22.957 25.461 23.6538 26.1578 24.5134 26.1578H25.4473V26.3134C25.4473 27.1728 26.1441 27.8696 27.0037 27.8696Z" fill="#7CD0E8"/>
</g>
<defs>
<clipPath id="clip0_1736_17237">
<rect width="40" height="40" fill="white"/>
</clipPath>
</defs>
</svg>
