<svg width="40" height="40" viewBox="0 0 40 40" fill="none" xmlns="http://www.w3.org/2000/svg">
<path d="M6.15625 33.8434C2.97291 30.6568 6.58624 21.8768 14.2312 14.2318C21.8762 6.58676 30.6562 2.97176 33.8429 6.15676C37.0262 9.34342 33.4129 18.1234 25.7679 25.7684C18.1229 33.4134 9.34291 37.0284 6.15625 33.8434ZM8.46625 31.5334C9.82458 32.8934 16.9696 29.9501 23.4612 23.4584C29.9529 16.9668 32.8946 9.82176 31.5362 8.46342C30.1779 7.10342 23.0329 10.0468 16.5412 16.5384C10.0496 23.0301 7.10791 30.1751 8.46625 31.5334ZM14.2329 25.7668C6.58624 18.1234 2.97124 9.34342 6.15625 6.15676C9.34291 2.97342 18.1229 6.58676 25.7679 14.2318C33.4129 21.8768 37.0279 30.6568 33.8429 33.8434C30.6562 37.0268 21.8762 33.4134 14.2312 25.7684L14.2329 25.7668ZM16.5412 23.4584C23.0329 29.9501 30.1779 32.8918 31.5362 31.5334C32.8962 30.1751 29.9529 23.0301 23.4612 16.5384C16.9696 10.0468 9.82458 7.10509 8.46625 8.46342C7.10625 9.82176 10.0496 16.9668 16.5412 23.4584Z" fill="#7A49E9"/>
<path d="M18.7237 23.0799C19.1282 23.2474 19.5616 23.3337 19.9993 23.3337C20.8834 23.3337 21.7313 22.9825 22.3564 22.3573C22.9815 21.7322 23.3327 20.8844 23.3327 20.0003C23.3327 19.1163 22.9815 18.2684 22.3564 17.6433C21.7313 17.0182 20.8834 16.667 19.9993 16.667C19.5616 16.667 19.1282 16.7532 18.7237 16.9207C18.3193 17.0882 17.9519 17.3338 17.6423 17.6433C17.3328 17.9528 17.0873 18.3203 16.9198 18.7247C16.7522 19.1291 16.666 19.5626 16.666 20.0003C16.666 20.4381 16.7522 20.8715 16.9198 21.2759C17.0873 21.6804 17.3328 22.0478 17.6423 22.3573C17.9519 22.6669 18.3193 22.9124 18.7237 23.0799Z" fill="#7CD0E8"/>
</svg>
