<svg width="40" height="40" viewBox="0 0 40 40" fill="none" xmlns="http://www.w3.org/2000/svg">
<path d="M3.3418 31.6667H36.6751V35H3.3418V31.6667ZM18.3418 13.3333H21.6751V26.6667H18.3418V13.3333ZM28.3418 23.3333V26.6667H25.0085V13.3333H31.6751C33.0012 13.3333 34.273 13.8601 35.2107 14.7978C36.1483 15.7355 36.6751 17.0073 36.6751 18.3333C36.6751 19.6594 36.1483 20.9312 35.2107 21.8689C34.273 22.8065 33.0012 23.3333 31.6751 23.3333H28.3418ZM28.3418 16.6667V20H31.6751C31.894 20 32.1108 19.9569 32.313 19.8732C32.5153 19.7895 32.699 19.6667 32.8538 19.5119C33.0086 19.3572 33.1314 19.1734 33.2152 18.9712C33.2989 18.769 33.3421 18.5522 33.3421 18.3333C33.3421 18.1144 33.2989 17.8977 33.2152 17.6955C33.1314 17.4932 33.0086 17.3095 32.8538 17.1547C32.699 17 32.5153 16.8772 32.313 16.7935C32.1108 16.7097 31.894 16.6666 31.6751 16.6667H28.3418ZM3.3418 5H36.6751V8.33333H3.3418V5Z" fill="#7A49E9"/>
<path d="M10.1831 21.8552L13.2831 13.3335H16.8248L11.8481 26.6068H8.51475L3.53809 13.3335H7.07809L10.1831 21.8552Z" fill="#7CD0E8"/>
</svg>
