<svg width="20" height="20" viewBox="0 0 20 20" fill="none" xmlns="http://www.w3.org/2000/svg">
<rect width="20" height="20" rx="4" fill="#010101"/>
<path d="M12.8181 9.5144C12.8348 11.0274 14.1916 11.5299 14.2027 11.5355C14.1916 11.569 13.985 12.2557 13.4881 12.9592C13.0582 13.5678 12.6115 14.1764 11.908 14.1875C11.2157 14.1987 10.9923 13.7911 10.2051 13.7911C9.41226 13.7911 9.1666 14.1764 8.51335 14.1987C7.83219 14.221 7.31852 13.5399 6.88303 12.9313C5.99528 11.6918 5.3197 9.42507 6.22978 7.89528C6.68203 7.13597 7.49161 6.65582 8.36818 6.63907C9.0326 6.6279 9.66351 7.07455 10.0711 7.07455C10.4787 7.07455 11.2436 6.53857 12.0476 6.61673C12.3826 6.6279 13.3317 6.75073 13.9347 7.61054C13.8845 7.63845 12.8069 8.24702 12.8181 9.5144ZM11.5172 5.79601C11.8801 5.37169 12.1202 4.78545 12.0532 4.19922C11.5339 4.22155 10.903 4.53421 10.5345 4.95853C10.1995 5.3326 9.90917 5.93 9.98734 6.50507C10.568 6.54974 11.1598 6.22033 11.5172 5.79601Z" fill="white"/>
</svg>
