<svg width="20" height="20" viewBox="0 0 20 20" fill="none" xmlns="http://www.w3.org/2000/svg">
<rect width="20" height="20" rx="4" fill="url(#paint0_linear_2094_17577)"/>
<path d="M9.16123 10.1622C9.30865 10.3096 9.42658 10.4865 9.57401 10.6044H9.42658C9.33813 10.516 9.24968 10.4275 9.16123 10.3096C8.66 9.7199 8.12929 8.9828 7.65754 8.30467V8.12776C8.15877 8.8059 8.66 9.543 9.16123 10.1327V10.1622ZM10.2816 9.66093C9.98678 9.33661 9.78039 8.89435 9.60349 8.39312C9.33813 7.65602 9.16123 6.83047 8.8369 6.12285C8.66 5.76904 8.45361 5.44472 8.15877 5.14988C8.01135 5.00246 7.86393 4.88452 7.65754 4.79607V4.94349C7.746 5.00246 7.86393 5.06142 7.95238 5.14988C8.39464 5.53317 8.68948 6.0344 8.89587 6.59459C9.07278 7.00737 9.19071 7.47912 9.30865 7.89189C9.51504 8.54054 9.72143 9.18919 10.1342 9.66093C10.3406 9.89681 10.5765 10.1032 10.9008 10.2506C11.0482 10.3096 11.1956 10.3686 11.3725 10.398C11.4315 10.3686 11.52 10.3391 11.5789 10.3096C11.343 10.2801 11.1367 10.2211 10.9598 10.1327C10.6944 10.0147 10.488 9.86732 10.3111 9.66093H10.2816ZM9.30865 9.92629C8.77794 9.21867 8.27671 8.33415 7.74599 7.59705C7.71651 7.53808 7.68703 7.5086 7.65754 7.44963V7.65602C7.65754 7.6855 7.71651 7.71499 7.74599 7.77396C8.24722 8.54054 8.74845 9.42506 9.30865 10.1032C9.45607 10.2801 9.60349 10.457 9.75091 10.6339H9.92781C9.72142 10.4275 9.51504 10.1916 9.30865 9.95577V9.92629ZM9.57401 9.45455C9.13174 8.71744 8.77794 7.80344 8.36516 7.00737C8.15877 6.62408 7.9229 6.27027 7.65754 5.97543V6.15233C7.89342 6.44717 8.12929 6.80098 8.30619 7.15479C8.71897 7.95086 9.07278 8.86486 9.54452 9.60197C9.78039 9.95577 10.0457 10.2801 10.3996 10.516C10.429 10.516 10.4585 10.5749 10.488 10.5749C10.5765 10.5749 10.6354 10.5749 10.7239 10.5749C10.2521 10.3391 9.92781 9.95577 9.60349 9.45455H9.57401ZM9.72143 9.21867C9.30865 8.48157 9.07278 7.53808 8.66 6.71253C8.45361 6.29975 8.24722 5.91646 7.9229 5.59214C7.83445 5.50369 7.746 5.41523 7.62806 5.32678V5.50369C8.04084 5.85749 8.33568 6.32924 8.57155 6.88943C8.95484 7.71499 9.19071 8.65848 9.63297 9.39558C9.83936 9.77887 10.1047 10.1032 10.4585 10.3096C10.5765 10.398 10.7239 10.4865 10.9008 10.5455C10.9892 10.5455 11.0482 10.516 11.1367 10.4865C11.0187 10.457 10.9008 10.398 10.7828 10.3685C10.3111 10.1327 9.9573 9.7199 9.69194 9.24816L9.72143 9.21867ZM11.4905 7.30221C11.7853 7.65602 12.0801 7.95086 12.375 8.18673C12.4045 8.18673 12.434 8.2457 12.4929 8.2457C12.4929 8.18673 12.4929 8.12776 12.4634 8.09828C12.1391 7.86241 11.8148 7.53808 11.4905 7.12531C10.9303 6.41769 10.429 5.50369 9.89833 4.7371C9.72142 4.47174 9.51504 4.23587 9.33813 4H9.19071C9.42658 4.26536 9.66246 4.5602 9.89833 4.914C10.429 5.68059 10.9598 6.59459 11.52 7.30221H11.4905ZM7.65754 9.45455C8.01135 9.83784 8.39464 10.2506 8.74845 10.6044H8.89587C8.51258 10.2211 8.07032 9.74939 7.65754 9.30713V9.45455ZM9.42658 9.69042C8.92536 8.9828 8.51258 8.0688 8.04084 7.30221C7.9229 7.09582 7.77548 6.88943 7.62806 6.71253V6.91892C7.746 7.09582 7.86393 7.27273 7.98187 7.47912C8.45361 8.2457 8.86639 9.15971 9.36762 9.86732C9.574 10.1622 9.78039 10.398 10.0457 10.6044H10.1932C10.1932 10.6044 10.2227 10.6044 10.2521 10.6044C9.92781 10.3686 9.66246 10.0442 9.42658 9.69042ZM7.65754 10.3685C7.746 10.457 7.83445 10.516 7.9229 10.6044H8.04084C7.89342 10.4865 7.77548 10.3686 7.62806 10.2506V10.3685H7.65754ZM7.65754 8.77641V8.92383C8.12929 9.48403 8.60103 10.0737 9.04329 10.5455C9.04329 10.5455 9.07278 10.5749 9.10226 10.6044H9.24968C9.19071 10.5455 9.10226 10.457 9.04329 10.398C8.60103 9.89681 8.12929 9.33661 7.65754 8.77641ZM7.65754 9.92629C7.86393 10.1327 8.07032 10.3096 8.24722 10.4865C8.27671 10.516 8.30619 10.5455 8.36516 10.5749H8.4831C8.21774 10.3096 7.9229 10.0442 7.65754 9.77887V9.89681V9.92629ZM11.6674 4.85504C11.461 4.67813 11.2841 4.50123 11.1072 4.29484C11.0187 4.23587 10.9303 4.20639 10.8418 4.1769C11.1661 4.47174 11.4905 4.79607 11.8148 5.12039C11.7853 5.03194 11.7263 4.94349 11.6674 4.85504ZM11.6674 6.7715C11.6674 6.74201 11.6969 6.71253 11.7263 6.68305C11.1661 6.00491 10.6059 5.17936 10.0457 4.47174C9.92781 4.32432 9.80988 4.14742 9.66246 4.02948H9.51504C9.69194 4.23587 9.86885 4.44226 10.0163 4.64865C10.547 5.32678 11.0777 6.12285 11.6379 6.7715H11.6674ZM10.3996 9.42506C10.1047 9.07125 9.92781 8.62899 9.78039 8.12776C9.574 7.39066 9.45607 6.53563 9.13174 5.79853C8.98432 5.41523 8.74845 5.09091 8.45361 4.79607C8.21774 4.58968 7.95238 4.41278 7.62806 4.26536V4.41278C7.86393 4.53071 8.07032 4.64865 8.24722 4.79607C8.71897 5.17936 8.98432 5.71007 9.16123 6.29975C9.30865 6.74201 9.3971 7.18428 9.48555 7.62654C9.574 7.95086 9.63297 8.30467 9.75091 8.59951C9.92781 9.07125 10.1637 9.48403 10.547 9.77887C10.8418 9.98526 11.1956 10.1622 11.6379 10.2211C11.6969 10.1916 11.7558 10.1327 11.7853 10.1032C11.4905 10.0737 11.2251 9.98526 10.9892 9.89681C10.7239 9.77887 10.5175 9.60197 10.3406 9.42506H10.3996ZM12.3455 8.57002C11.9032 8.33415 11.5494 7.95086 11.1956 7.44963C10.6944 6.71253 10.2521 5.79853 9.78039 5.03194C9.54452 4.64865 9.30865 4.29484 9.01381 4.02948H8.8369C9.16123 4.35381 9.45607 4.76658 9.75091 5.20885C10.2227 6.00491 10.6649 6.91892 11.1956 7.62654C11.461 7.98034 11.7558 8.30467 12.0801 8.54054C12.2276 8.62899 12.375 8.71744 12.5519 8.77641C12.5519 8.74693 12.5519 8.68796 12.5519 8.65848C12.4929 8.65848 12.434 8.59951 12.375 8.57002H12.3455ZM11.9622 5.82801C11.9622 5.79853 11.9622 5.73956 11.9622 5.71007C11.461 5.17936 10.9008 4.58968 10.429 4.08845C10.3701 4.08845 10.3406 4.08845 10.2816 4.08845C10.2816 4.08845 10.3111 4.11794 10.3406 4.14742C10.8713 4.70762 11.4315 5.32678 11.9917 5.88698L11.9622 5.82801ZM11.8738 6.35872C11.8738 6.32924 11.8738 6.27027 11.9032 6.24079C11.3136 5.59214 10.7239 4.82555 10.1637 4.20639C10.1047 4.14742 10.0457 4.08845 10.0163 4.02948C9.98678 4.02948 9.92781 4.02948 9.89833 4.02948C9.98678 4.14742 10.1047 4.26536 10.1932 4.38329C10.7239 5.00246 11.3136 5.73956 11.8738 6.35872ZM10.6059 8.09828C10.1932 7.36118 9.92781 6.41769 9.54452 5.59214C9.33813 5.17936 9.10226 4.79607 8.80742 4.47174C8.63052 4.29484 8.45361 4.14742 8.24722 4.02948H7.95238C8.15877 4.11794 8.33568 4.23587 8.4831 4.35381C8.92536 4.70762 9.2202 5.20885 9.48555 5.76904C9.86884 6.59459 10.1342 7.53808 10.5765 8.27518C10.7829 8.65848 11.0482 8.9828 11.402 9.21867C11.6674 9.39558 11.9622 9.51351 12.316 9.57248C12.316 9.543 12.3455 9.48403 12.375 9.45455C12.1391 9.42506 11.9032 9.36609 11.7263 9.24816C11.2546 9.01228 10.9008 8.59951 10.6354 8.12776L10.6059 8.09828ZM10.7239 9.10074C10.429 8.74693 10.2227 8.30467 10.0457 7.83292C9.78039 7.09582 9.60349 6.27027 9.24968 5.56265C9.07278 5.20885 8.86639 4.88452 8.57155 4.58968C8.33568 4.35381 8.01135 4.1769 7.65754 4.02948V4.1769C7.9229 4.29484 8.15877 4.41278 8.36516 4.58968C8.80742 4.97297 9.10226 5.4742 9.30865 6.0344C9.48555 6.44717 9.60349 6.91892 9.72143 7.3317C9.92781 7.98034 10.1342 8.62899 10.547 9.10074C10.7534 9.33661 10.9892 9.543 11.3136 9.69042C11.52 9.77887 11.7558 9.86732 12.0212 9.89681C12.0507 9.86732 12.0801 9.80835 12.1096 9.77887C11.8148 9.74938 11.5494 9.69042 11.343 9.57248C11.0777 9.45455 10.8713 9.30712 10.6944 9.10074H10.7239ZM10.9008 7.77396C10.429 7.03685 10.1047 6.12285 9.66246 5.2973C9.42658 4.88452 9.19071 4.53071 8.89587 4.20639C8.8369 4.14742 8.74845 4.05897 8.66 4H8.45361C8.4831 4.02948 8.54206 4.05897 8.57155 4.08845C8.98432 4.44226 9.30865 4.914 9.60349 5.44472C10.0457 6.24079 10.3701 7.18428 10.8713 7.92138C11.1072 8.27518 11.3725 8.59951 11.7263 8.83538C11.9327 8.9828 12.1686 9.10074 12.4634 9.1597C12.4634 9.13022 12.4634 9.07125 12.4929 9.04177C12.316 9.01228 12.1686 8.95332 12.0507 8.89435C11.5789 8.65848 11.2251 8.27518 10.9303 7.77396H10.9008ZM6.47818 14.8796C6.21283 14.8796 6.00644 15.086 6.00644 15.3514C6.00644 15.6167 6.21283 15.8231 6.47818 15.8231C6.74354 15.8231 6.94993 15.6167 6.94993 15.3514C6.94993 15.086 6.74354 14.8796 6.47818 14.8796ZM6.47818 16C6.09489 16 5.80005 15.7346 5.80005 15.3514V14.231H6.00644V14.8796C6.12437 14.7617 6.30128 14.7027 6.47818 14.7027C6.86147 14.7027 7.15631 14.9681 7.15631 15.3514C7.15631 15.7346 6.86147 16 6.47818 16ZM8.42413 15.2334C8.39464 14.9975 8.21774 14.8796 7.98187 14.8796C7.74599 14.8796 7.59857 15.027 7.53961 15.2334H8.42413ZM7.53961 15.4103C7.56909 15.6462 7.74599 15.7936 7.98187 15.7936C8.21774 15.7936 8.30619 15.7052 8.36516 15.5872H8.57155C8.45361 15.8526 8.24722 16 7.98187 16C7.71651 16 7.33322 15.7052 7.33322 15.3514C7.33322 14.9975 7.59857 14.7027 7.98187 14.7027C8.36516 14.7027 8.60103 14.9975 8.60103 15.3514C8.60103 15.7052 8.60103 15.4103 8.60103 15.4103H7.53961ZM9.83936 15.2629C9.83936 14.9975 9.72143 14.8796 9.51504 14.8796C9.30865 14.8796 9.13174 15.0565 9.13174 15.2924V15.9705H8.92536V14.7027H9.07278V14.9091C9.2202 14.7617 9.36762 14.6732 9.57401 14.6732C9.86885 14.6732 10.0457 14.9091 10.0457 15.2039V15.9705H9.83936V15.2629ZM11.4315 15.2334C11.402 14.9975 11.2251 14.8796 10.9892 14.8796C10.7534 14.8796 10.6059 15.027 10.547 15.2334H11.4315ZM10.547 15.4103C10.5765 15.6462 10.7534 15.7936 10.9892 15.7936C11.2251 15.7936 11.3136 15.7052 11.3725 15.5872H11.5789C11.461 15.8526 11.2546 16 10.9892 16C10.7239 16 10.3406 15.7052 10.3406 15.3514C10.3406 14.9975 10.6059 14.7027 10.9892 14.7027C11.3725 14.7027 11.6084 14.9975 11.6084 15.3514C11.6084 15.7052 11.6084 15.4103 11.6084 15.4103H10.547ZM12.5814 14.7322V14.9091H12.1981V16H11.9917V14.9091H11.7558V14.7322H11.9917V14.6437C11.9917 14.3784 12.1096 14.231 12.4045 14.231H12.5814V14.3784H12.434C12.2571 14.3784 12.1981 14.4373 12.1981 14.6143V14.7027H12.5814V14.7322ZM12.8172 14.7027H13.0236V15.9705H12.8172V14.7027ZM13.9966 15.7936H14.144V15.9705H13.9671C13.7018 15.9705 13.5249 15.7936 13.5249 15.5283V14.8796H13.2595V14.7027H13.5249V14.3194H13.7313V14.7027H14.144V14.8796H13.7313V15.5283C13.7313 15.7052 13.8197 15.7936 13.9966 15.7936ZM9.57401 12.7862C9.57401 12.8747 9.574 12.9631 9.66246 13.0516C9.72143 13.14 9.78039 13.199 9.86885 13.2285C9.9573 13.199 10.0163 13.14 10.0752 13.0516C10.1342 12.9631 10.1637 12.8747 10.1637 12.7862C10.1637 12.6978 10.1637 12.5799 10.0752 12.5209C10.0163 12.4619 9.9573 12.4324 9.83936 12.4324C9.75091 12.4324 9.66246 12.4619 9.60349 12.5209C9.54452 12.5799 9.51504 12.6683 9.51504 12.7862H9.57401ZM14.144 12.4324V12.9337C14.144 13.0811 14.1145 13.199 14.0261 13.2875C13.9376 13.3759 13.8492 13.4054 13.7018 13.4054H12.4634C12.316 13.4054 12.1981 13.3464 12.1096 13.258C12.0212 13.3759 11.9032 13.4054 11.7558 13.4054H10.0752C9.98678 13.4054 9.9573 13.4054 9.89833 13.3759C9.83936 13.3759 9.80988 13.4054 9.72143 13.4054H8.30619C8.15877 13.4054 8.04084 13.3464 7.95238 13.258C7.86393 13.3759 7.74599 13.4054 7.59857 13.4054H6.24231C6.12437 13.4054 6.00644 13.3759 5.91799 13.2875C5.82953 13.199 5.80005 13.0811 5.80005 12.9631V12.5209H5.97695V12.9337C5.97695 13.14 6.06541 13.2285 6.27179 13.2285H7.56909C7.77548 13.2285 7.86393 13.14 7.86393 12.9337V12.4324H8.04084V12.9337C8.04084 13.14 8.12929 13.2285 8.33568 13.2285H9.60349C9.45607 13.1106 9.3971 12.9631 9.3971 12.7862C9.3971 12.6093 9.45607 12.4619 9.54452 12.3735C9.63297 12.285 9.75091 12.226 9.89833 12.226C10.0752 12.226 10.1932 12.285 10.2816 12.4029C10.3701 12.4914 10.3996 12.6388 10.3996 12.7862C10.3996 12.9631 10.3406 13.1106 10.1932 13.2285H11.6969C11.9032 13.2285 11.9917 13.14 11.9917 12.9337V12.4324H12.1686V12.9337C12.1686 13.14 12.2571 13.2285 12.4634 13.2285H13.6428C13.8492 13.2285 13.9376 13.14 13.9376 12.9337V12.4324H14.1145H14.144ZM12.8172 14.3194C12.8172 14.3489 12.8172 14.3784 12.8172 14.4079C12.8172 14.4079 12.8762 14.4373 12.9057 14.4373C12.9352 14.4373 12.9647 14.4373 12.9942 14.4079C12.9942 14.4079 12.9942 14.3489 12.9942 14.3194C12.9942 14.2899 12.9942 14.2604 12.9942 14.231C12.9942 14.231 12.9352 14.231 12.9057 14.231C12.8762 14.231 12.8467 14.231 12.8172 14.231C12.8172 14.231 12.8172 14.2899 12.8172 14.3194ZM13.8197 13.8182C13.8197 13.8477 13.8197 13.8771 13.8197 13.9066C13.8197 13.9066 13.8787 13.9361 13.9082 13.9361C13.9376 13.9361 13.9671 13.9361 13.9966 13.9066C13.9966 13.9066 13.9966 13.8477 13.9966 13.8182C13.9966 13.7887 13.9966 13.7592 13.9966 13.7297C13.9966 13.7297 13.9376 13.7297 13.9082 13.7297C13.8787 13.7297 13.8492 13.7297 13.8197 13.7297C13.8197 13.7297 13.8197 13.7887 13.8197 13.8182ZM11.9622 11.9312C11.9622 11.9607 11.9622 11.9902 11.9622 12.0197C11.9622 12.0197 12.0212 12.0491 12.0507 12.0491C12.0801 12.0491 12.1096 12.0491 12.1391 12.0197C12.1391 12.0197 12.1391 11.9607 12.1391 11.9312C12.1391 11.9017 12.1391 11.8722 12.1391 11.8428C12.1391 11.8428 12.0801 11.8428 12.0507 11.8428C12.0212 11.8428 11.9917 11.8428 11.9622 11.8428C11.9622 11.8428 11.9622 11.9017 11.9622 11.9312ZM9.75091 11.9312C9.75091 11.9607 9.75091 11.9902 9.75091 12.0197C9.75091 12.0197 9.80988 12.0491 9.83936 12.0491C9.86885 12.0491 9.89833 12.0491 9.92781 12.0197C9.92781 12.0197 9.92781 11.9607 9.92781 11.9312C9.92781 11.9017 9.92781 11.8722 9.92781 11.8428C9.92781 11.8428 9.86885 11.8428 9.83936 11.8428C9.80988 11.8428 9.78039 11.8428 9.75091 11.8428C9.75091 11.8428 9.75091 11.9017 9.75091 11.9312ZM7.03838 12.1376C7.03838 12.1671 7.03838 12.1966 7.03838 12.226C7.03838 12.226 7.09735 12.2555 7.12683 12.2555C7.15631 12.2555 7.1858 12.2555 7.21528 12.226C7.21528 12.226 7.21528 12.1671 7.21528 12.1376C7.21528 12.1081 7.21528 12.0786 7.21528 12.0491C7.21528 12.0491 7.15631 12.0491 7.12683 12.0491C7.09735 12.0491 7.06786 12.0491 7.03838 12.0491C7.03838 12.0491 7.03838 12.1081 7.03838 12.1376ZM6.71405 12.1376C6.71405 12.1671 6.71405 12.1966 6.71405 12.226C6.71405 12.226 6.77302 12.2555 6.80251 12.2555C6.83199 12.2555 6.86147 12.2555 6.89096 12.226C6.89096 12.226 6.89096 12.1671 6.89096 12.1376C6.89096 12.1081 6.89096 12.0786 6.89096 12.0491C6.89096 12.0491 6.83199 12.0491 6.80251 12.0491C6.77302 12.0491 6.74354 12.0491 6.71405 12.0491C6.71405 12.0491 6.71405 12.1081 6.71405 12.1376Z" fill="white"/>
<defs>
<linearGradient id="paint0_linear_2094_17577" x1="0" y1="0" x2="20" y2="20" gradientUnits="userSpaceOnUse">
<stop stop-color="#EA5646"/>
<stop offset="1" stop-color="#E60C32"/>
</linearGradient>
</defs>
</svg>
