<svg width="20" height="20" viewBox="0 0 20 20" fill="none" xmlns="http://www.w3.org/2000/svg">
<rect width="20" height="20" rx="4" fill="#FFD401"/>
<path d="M14.9973 10.0021C14.9973 12.7649 12.7628 15 10.0008 15C9.47325 15 8.96717 14.9185 8.4954 14.7683C7.78345 14.5453 7.13584 14.1592 6.59544 13.6529C5.60901 12.7477 5 11.4436 5 9.99785C5 7.23509 7.23448 5 9.99649 5C10.5969 5 11.1673 5.10296 11.6949 5.29601C12.3854 5.54483 13.0072 5.9438 13.5133 6.45002C14.4311 7.36379 14.9973 8.61647 14.9973 10.0021Z" fill="white"/>
<path d="M12.3168 12.1253L11.6434 11.7907C11.6434 11.7907 10.4983 13.8799 8.48687 14.7723C7.77492 14.5492 7.12731 14.1631 6.58691 13.6569C7.02866 13.5925 7.74061 13.3694 8.48687 12.6315C9.71347 11.4303 9.99225 10.7654 9.99225 10.7654L9.46472 10.4136C9.2803 10.2935 9.3189 10.0189 9.52047 9.9503L11.8279 9.14807C11.9866 9.0923 12.1581 9.19526 12.171 9.36257L12.5141 11.9752C12.5484 12.091 12.4283 12.1811 12.3168 12.1253Z" fill="#006E9C"/>
<path d="M13.0114 9.22966C12.9557 9.37552 12.7455 9.34978 12.7241 9.19963L12.574 8.32018L11.4374 8.67196C11.3088 8.71057 11.1973 8.58187 11.253 8.46175C11.4031 8.14 11.6218 7.60375 11.7977 6.91735C11.9564 6.26097 11.8449 5.68182 11.7076 5.30859C12.3981 5.55741 13.02 5.95638 13.5261 6.4626C13.6119 7.50079 13.2516 8.61619 13.0114 9.22966Z" fill="#006E9C"/>
</svg>
