<svg width="20" height="20" viewBox="0 0 20 20" fill="none" xmlns="http://www.w3.org/2000/svg">
<g clip-path="url(#clip0_2094_17562)">
<rect width="20" height="20" rx="4" fill="#0872B9"/>
<path d="M16 12.1094H4V14.3605H16V12.1094Z" fill="#0872B9"/>
<path d="M16 5.69922H4V7.95037H16V5.69922Z" fill="#0872B9"/>
<path d="M16 8.14648H4V11.9392H16V8.14648Z" fill="#0872B9"/>
<path d="M15.2897 6.48205H14.2856L14.3591 6.60439H15.3631L15.706 6.82462C15.706 6.82462 15.7795 6.89802 15.7305 6.94696L15.3387 7.24059H13.4285L13.2815 7.04484V7.58315H10.906V6.53099H12.6448V7.06931H11.6407V7.26506H12.8162H12.8652V6.55546H13.5264L13.9183 6.94696H15.0448V6.75121H13.9183L13.3795 6.21289H15.1183L15.2897 6.48205Z" fill="white"/>
<path d="M13.8448 7.38672H13.5999V7.60694H13.8448V7.38672Z" fill="white"/>
<path d="M14.4326 7.38672H14.1877V7.60694H14.4326V7.38672Z" fill="white"/>
<path d="M5.78768 6.33594H5.44482V6.65403H5.78768V6.33594Z" fill="white"/>
<path d="M6.2286 6.33594H5.88574V6.65403H6.2286V6.33594Z" fill="white"/>
<path d="M9.04476 6.33594H8.7019V6.65403H9.04476V6.33594Z" fill="white"/>
<path d="M10.3428 6.84961H9.46118V7.16771H10.3428V6.84961Z" fill="white"/>
<path d="M8.53059 6.72674H9.14283V7.43634H4.58773L4.24487 6.9959L4.83263 6.21289H5.29793L4.95508 6.9959H7.96732V6.75121H8.38365V6.9959H8.53059V6.72674Z" fill="white"/>
<path d="M6.6693 13.919H6.27746V13.2583C6.27746 13.1115 6.27746 13.0381 6.25297 12.9892C6.22848 12.9402 6.20399 12.9158 6.1795 12.8913C6.15501 12.8668 6.10603 12.8668 6.05705 12.8668C5.98358 12.8668 5.9346 12.8913 5.88562 12.9158C5.83664 12.9402 5.78766 12.9892 5.78766 13.0381C5.76317 13.087 5.73868 13.1849 5.73868 13.3317V13.919H5.37134V12.6221H5.7142V12.8179C5.83664 12.6711 6.00807 12.5977 6.1795 12.5977C6.25297 12.5977 6.32644 12.6221 6.39991 12.6466C6.47338 12.6711 6.52236 12.72 6.54685 12.7445C6.57134 12.7934 6.59583 12.8423 6.62032 12.8913C6.64481 12.9402 6.64481 13.0136 6.64481 13.1115V13.919H6.6693Z" fill="white"/>
<path d="M10.1957 13.503L10.5631 13.5519C10.5141 13.6743 10.4406 13.7722 10.3427 13.8456C10.2447 13.919 10.0978 13.9435 9.95085 13.9435C9.70595 13.9435 9.51003 13.87 9.41208 13.7232C9.31412 13.6009 9.26514 13.4541 9.26514 13.2828C9.26514 13.0626 9.33861 12.8913 9.46105 12.7689C9.5835 12.6466 9.73044 12.5977 9.92636 12.5977C10.1468 12.5977 10.2937 12.6711 10.4162 12.7934C10.5386 12.9158 10.5876 13.1115 10.5876 13.3807H9.65697C9.65697 13.4785 9.68146 13.5519 9.75493 13.6254C9.80391 13.6743 9.87738 13.6988 9.97534 13.6988C10.0243 13.6988 10.0733 13.6743 10.1223 13.6498C10.1468 13.6254 10.1713 13.5764 10.1957 13.503ZM10.2202 13.1604C10.2202 13.0626 10.1957 12.9892 10.1468 12.9402C10.0978 12.8913 10.0243 12.8668 9.95085 12.8668C9.87738 12.8668 9.80391 12.8913 9.75493 12.9402C9.70595 12.9892 9.68146 13.0626 9.68146 13.1604H10.2202Z" fill="white"/>
<path d="M14.6038 12.623V12.8922H14.3589V13.406C14.3589 13.5039 14.3589 13.5773 14.3589 13.6018C14.3589 13.6262 14.3834 13.6262 14.3834 13.6507C14.4079 13.6507 14.4324 13.6752 14.4569 13.6752C14.4814 13.6752 14.5303 13.6752 14.6038 13.6507L14.6283 13.9199C14.5303 13.9443 14.4324 13.9688 14.3344 13.9688C14.261 13.9688 14.212 13.9688 14.163 13.9443C14.114 13.9199 14.065 13.8954 14.0406 13.8709C14.0161 13.8465 13.9916 13.7975 13.9916 13.7486C13.9916 13.6996 13.9671 13.6262 13.9671 13.5039V12.9411H13.7957V12.6719H13.9671V12.4028L14.3344 12.207V12.6719H14.6038V12.623Z" fill="white"/>
<path d="M8.45727 8.43945H5.61646V11.4736H8.45727V8.43945Z" fill="#FBED1F"/>
<path d="M8.35938 9.78422L10.4655 8.46289H14.2124L12.1553 9.78422L14.3839 11.4236H10.3675L8.40835 9.90656L8.35938 9.78422Z" fill="#FBED1F"/>
</g>
<defs>
<clipPath id="clip0_2094_17562">
<rect width="20" height="20" rx="4" fill="white"/>
</clipPath>
</defs>
</svg>
