<svg width="20" height="20" viewBox="0 0 20 20" fill="none" xmlns="http://www.w3.org/2000/svg">
<rect width="20" height="20" rx="4" fill="white"/>
<path d="M4.13439 9.06269L4.00559 10.9139C3.94119 11.5901 4.44029 12.1857 5.11649 12.2501C5.14869 12.2501 5.19699 12.2501 5.22918 12.2501H5.79268C6.53328 12.234 7.14507 11.6545 7.19337 10.9139L7.40267 7.72656H5.55118C4.79449 7.74266 4.18269 8.32218 4.13439 9.06269ZM6.06638 10.9139C6.05028 11.0105 5.96978 11.091 5.87318 11.091H5.30968C5.21309 11.091 5.14869 11.0266 5.14869 10.93V10.9139L5.27749 9.06269C5.29359 8.9661 5.37408 8.88561 5.47068 8.88561H6.21128L6.06638 10.9139Z" fill="#510C76"/>
<path d="M14.5832 7.72508H12.6995L12.4902 10.9125C12.4902 11.0413 12.4902 11.1539 12.5224 11.2666H12.4419C11.8462 11.2666 11.5564 10.8481 11.6047 10.0754L11.7013 8.72315L11.7335 8.24022C11.7496 7.96655 11.5403 7.74118 11.2666 7.70898C11.2505 7.70898 11.2505 7.70898 11.2344 7.70898H10.5904L10.5582 8.24022L10.4777 9.52805V9.60854V9.73732L10.4616 9.8822V9.94659V10.0271V10.0754L10.4455 10.3973C10.4294 10.6549 10.4455 10.9125 10.4938 11.17C10.3489 11.2505 10.204 11.2827 10.043 11.2827C9.5278 11.2827 8.8677 11.1217 8.8677 10.2203L8.9643 8.25631C8.9965 7.98265 8.7872 7.74118 8.51351 7.72508C8.49741 7.72508 8.48131 7.72508 8.48131 7.72508H7.83731L7.80511 8.25631L7.49921 12.8764C7.48311 13.1662 7.43481 13.8906 7.43481 13.8906H8.06271C8.35251 13.8906 8.61011 13.6491 8.62621 13.3593L8.6906 12.2325C8.8677 12.3291 9.3185 12.3774 9.5922 12.3774C10.043 12.3774 10.4616 12.1842 10.7514 11.8461C11.0251 12.1842 11.4437 12.3774 11.9911 12.3774C12.3614 12.3774 12.7156 12.2647 13.0054 12.0554C13.1181 12.1681 13.2469 12.2486 13.4079 12.2969C13.5045 12.3291 13.6172 12.3291 13.7138 12.3291H14.2773C15.0179 12.313 15.6297 11.7335 15.6941 10.993L15.8229 9.07731C15.8873 8.40119 15.3882 7.80557 14.712 7.74118C14.6637 7.72508 14.6154 7.72508 14.5832 7.72508ZM14.551 10.9769C14.551 11.0734 14.4544 11.1539 14.3578 11.1539H13.7943C13.6977 11.1539 13.6333 11.0895 13.6333 10.993V10.9769L13.7621 8.88413H14.5027C14.5993 8.88413 14.6637 8.94852 14.6637 9.04511V9.06121L14.551 10.9769Z" fill="#510C76"/>
<path d="M4.79446 6.63137L4.77836 6.88894C4.76226 7.13041 4.93936 7.35578 5.18086 7.37188C5.19696 7.37188 5.21306 7.37188 5.21306 7.37188H5.42235C5.69605 7.37188 5.90535 7.16261 5.93755 6.88894L5.98585 6.14844H5.29356C5.03596 6.14844 4.81056 6.35771 4.79446 6.63137Z" fill="#510C76"/>
<path d="M6.09866 6.63137L6.08256 6.88894C6.06646 7.13041 6.24356 7.35578 6.50115 7.37188C6.51725 7.37188 6.51725 7.37188 6.53335 7.37188H6.72655C7.00025 7.37188 7.20955 7.16261 7.24175 6.88894L7.29005 6.14844H6.61385C6.34016 6.14844 6.11476 6.35771 6.09866 6.63137Z" fill="#510C76"/>
<path d="M8.32031 7.35578H8.5779C8.8194 7.37188 9.0448 7.1948 9.0609 6.93723V6.92114L9.077 6.71186C9.0931 6.4382 8.9482 6.14844 8.6906 6.14844H7.90171L7.85341 6.82455C7.83731 7.09821 8.04661 7.33968 8.32031 7.35578Z" fill="#EB6B24"/>
<path d="M8.91604 13.1509L8.89994 13.4085C8.88384 13.6499 9.06094 13.8753 9.30244 13.8914C9.31854 13.8914 9.33464 13.8914 9.35074 13.8914H9.56004C9.83373 13.8914 10.043 13.6821 10.0752 13.4085L10.1235 12.668H9.44734C9.15754 12.668 8.93214 12.8933 8.91604 13.1509Z" fill="#510C76"/>
<path d="M10.3006 13.1509L10.2845 13.4085C10.2684 13.6499 10.4455 13.8753 10.687 13.8914C10.7031 13.8914 10.7192 13.8914 10.7192 13.8914H10.9285C11.2022 13.8914 11.4115 13.6821 11.4437 13.4085L11.492 12.668H10.8158C10.5421 12.668 10.3167 12.8933 10.3006 13.1509Z" fill="#510C76"/>
<path d="M11.1379 7.33915H10.993C10.9608 7.33915 10.9608 7.32305 10.9608 7.30695L11.0091 6.69523C11.0091 6.64694 11.0091 6.59864 11.0091 6.55035C11.0091 6.48596 10.9769 6.45376 10.9125 6.45376C10.8481 6.45376 10.7998 6.45376 10.7515 6.45376C10.7354 6.45376 10.7354 6.45376 10.7354 6.46986C10.7515 6.56645 10.7515 6.66304 10.7354 6.74353C10.7193 6.87231 10.7193 7.01719 10.7032 7.14597C10.7032 7.19427 10.7032 7.24256 10.6871 7.29085C10.671 7.33915 10.671 7.32305 10.6388 7.32305H10.349C10.3168 7.32305 10.3168 7.32305 10.3168 7.29085C10.3329 7.08158 10.349 6.87231 10.3651 6.66304C10.3651 6.61474 10.3651 6.56645 10.3651 6.51816C10.3651 6.46986 10.3329 6.43767 10.3007 6.43767H10.2846C10.2363 6.43767 10.1719 6.43767 10.1236 6.43767C10.1075 6.43767 10.1075 6.43767 10.1075 6.45376C10.0914 6.58255 10.0914 6.71133 10.0753 6.84011C10.0592 6.9689 10.0592 7.12988 10.0431 7.27476C10.0431 7.30695 10.027 7.32305 9.99482 7.32305H9.70502C9.67282 7.32305 9.65672 7.30695 9.67282 7.27476C9.68892 7.06548 9.70502 6.84011 9.72112 6.63084C9.73722 6.48596 9.73722 6.34108 9.75332 6.1962C9.75332 6.164 9.76942 6.164 9.80162 6.1479C9.88212 6.13181 9.94652 6.13181 10.027 6.11571C10.1558 6.09961 10.2685 6.09961 10.3973 6.11571C10.4617 6.11571 10.5422 6.1479 10.6066 6.164C10.6227 6.164 10.6227 6.164 10.6388 6.164C10.7676 6.11571 10.9125 6.09961 11.0413 6.09961C11.1057 6.09961 11.154 6.11571 11.2184 6.13181C11.315 6.164 11.3955 6.24449 11.4116 6.34108C11.4277 6.42157 11.4277 6.51816 11.4116 6.59864L11.3794 7.12988C11.3794 7.17817 11.3794 7.22646 11.3633 7.27476C11.3472 7.32305 11.3472 7.30695 11.315 7.30695L11.1379 7.33915Z" fill="#510C76"/>
<path d="M13.3435 6.85663H13.0215C13.0054 6.85663 12.9893 6.85663 12.9893 6.88882C12.9893 6.98541 13.0215 7.0337 13.1181 7.0337C13.1986 7.0337 13.263 7.0337 13.3435 7.0337H13.5689C13.6011 7.0337 13.6172 7.0337 13.6172 7.082C13.6172 7.14639 13.6172 7.21078 13.6011 7.29127C13.6011 7.30737 13.585 7.32347 13.5689 7.32347C13.4562 7.33956 13.3596 7.35566 13.2469 7.35566C13.1503 7.35566 13.0537 7.35566 12.9571 7.35566C12.8927 7.35566 12.8283 7.32347 12.7639 7.29127C12.6995 7.24298 12.6512 7.17859 12.6512 7.0981C12.6351 6.98541 12.6351 6.87273 12.6512 6.76004C12.6512 6.66345 12.6673 6.56686 12.6995 6.47028C12.7156 6.37369 12.78 6.2771 12.8766 6.22881C12.9249 6.19661 12.9893 6.18052 13.0537 6.16442C13.1986 6.14832 13.3435 6.14832 13.4723 6.16442C13.5367 6.18052 13.6011 6.19661 13.6494 6.24491C13.6977 6.2932 13.746 6.37369 13.746 6.45418C13.7621 6.58296 13.7621 6.71175 13.746 6.84053C13.746 6.85663 13.7299 6.87273 13.7138 6.87273H13.6494L13.3435 6.85663ZM13.0215 6.63126H13.3113C13.3918 6.63126 13.3918 6.63126 13.3757 6.55077C13.3757 6.50247 13.3274 6.47028 13.2791 6.45418C13.2469 6.45418 13.1986 6.45418 13.1664 6.45418C13.102 6.45418 13.0537 6.48638 13.0376 6.55077C13.0215 6.56686 13.0215 6.59906 13.0215 6.63126Z" fill="#510C76"/>
<path d="M12.1843 6.8571C12.0716 6.8571 11.975 6.8571 11.8784 6.8571C11.8462 6.8571 11.8462 6.8732 11.8462 6.8893C11.8462 6.98588 11.8784 7.01808 11.975 7.03418C12.0072 7.03418 12.0394 7.03418 12.0555 7.03418H12.4258C12.458 7.03418 12.4741 7.03418 12.458 7.06637C12.458 7.13076 12.4419 7.21125 12.4419 7.27565C12.4419 7.29174 12.4258 7.30784 12.4097 7.30784C12.3131 7.32394 12.2004 7.32394 12.1038 7.34004C11.9911 7.34004 11.8784 7.34004 11.7496 7.32394C11.7013 7.32394 11.653 7.29174 11.6047 7.27565C11.5403 7.22735 11.492 7.16296 11.4759 7.06637C11.4598 6.93759 11.4598 6.8249 11.4759 6.69612C11.4759 6.61563 11.492 6.53514 11.5081 6.45465C11.5242 6.34197 11.5886 6.24538 11.6852 6.19709C11.7335 6.16489 11.7979 6.14879 11.8623 6.14879C12.0072 6.13269 12.1521 6.13269 12.297 6.14879C12.3614 6.16489 12.4258 6.18099 12.4741 6.22928C12.5385 6.27758 12.5707 6.35807 12.5707 6.43855C12.5707 6.53514 12.5707 6.63173 12.5707 6.71222C12.5707 6.74441 12.5707 6.77661 12.5707 6.79271C12.5707 6.80881 12.5546 6.841 12.5224 6.841L12.1843 6.8571ZM12.2165 6.63173C12.2165 6.59953 12.2165 6.56734 12.2165 6.53514C12.2165 6.48685 12.1682 6.45465 12.136 6.45465C12.1038 6.45465 12.0555 6.45465 12.0233 6.45465C11.9267 6.45465 11.8784 6.53514 11.8784 6.63173H12.2165Z" fill="#510C76"/>
<path d="M15.2754 6.43718H15.0661C15.034 6.43718 15.0179 6.42108 15.034 6.40498C15.034 6.34059 15.05 6.2601 15.05 6.19571C15.05 6.17961 15.0661 6.16351 15.0822 6.16351C15.2432 6.13132 15.4203 6.11522 15.5813 6.13132C15.6618 6.13132 15.7262 6.14741 15.8067 6.16351C15.9194 6.19571 15.9999 6.30839 15.9999 6.42108C15.9999 6.56596 15.9838 6.71084 15.9677 6.87182L15.9516 7.20988C15.9516 7.27427 15.9355 7.29036 15.8711 7.30646C15.6618 7.33866 15.4525 7.35476 15.2432 7.33866C15.1949 7.33866 15.1305 7.32256 15.0822 7.32256C15.0017 7.30646 14.9373 7.22597 14.9212 7.14548C14.9051 7.0328 14.9052 6.92011 14.9535 6.82353C14.9857 6.72694 15.0823 6.64645 15.1949 6.64645C15.2593 6.63035 15.3076 6.63035 15.372 6.63035C15.4525 6.63035 15.533 6.63035 15.6135 6.63035C15.6296 6.63035 15.6296 6.63035 15.6296 6.61425V6.59815C15.6296 6.51767 15.5974 6.46937 15.5008 6.46937L15.2754 6.43718ZM15.5974 6.82353C15.5169 6.82353 15.4364 6.82353 15.372 6.82353C15.3237 6.82353 15.2754 6.85572 15.2754 6.90402C15.2754 6.92011 15.2754 6.93621 15.2754 6.95231C15.2754 7.0006 15.3076 7.0328 15.3398 7.0328C15.3398 7.0328 15.3398 7.0328 15.3559 7.0328C15.4364 7.0328 15.5169 7.0328 15.5813 7.0167C15.5813 7.0167 15.5974 7.0167 15.5974 7.0006C15.5813 6.95231 15.5813 6.88792 15.5974 6.82353Z" fill="#510C76"/>
<path d="M14.3096 7.0182H14.7926C14.8087 7.0182 14.8087 7.0343 14.8087 7.05039C14.8087 7.13088 14.7926 7.21137 14.7926 7.29186C14.7926 7.32406 14.7765 7.32406 14.7443 7.32406H13.8105C13.7622 7.32406 13.7622 7.30796 13.7622 7.27576C13.7622 7.24357 13.7622 7.16308 13.7783 7.11478C13.7783 7.09869 13.7944 7.08259 13.7944 7.06649L14.2452 6.53526L14.3257 6.43867H13.891C13.8427 6.43867 13.8427 6.43867 13.8427 6.39038L13.8588 6.18111C13.8588 6.14891 13.8749 6.13281 13.9071 6.13281H14.8087C14.8409 6.13281 14.857 6.14891 14.8409 6.18111C14.8409 6.2455 14.8409 6.29379 14.8248 6.35818C14.8248 6.37428 14.8248 6.39038 14.8087 6.40648C14.6477 6.59965 14.4867 6.80892 14.3257 7.0021L14.3096 7.0182Z" fill="#510C76"/>
<path d="M12.3774 12.7324C12.0876 12.7485 11.8623 12.9739 11.8462 13.2637L11.7979 13.8915H15.0178C15.3076 13.8754 15.533 13.65 15.5491 13.3602L15.5974 12.7324H12.3774Z" fill="#EB6B24"/>
</svg>
