<svg width="20" height="20" viewBox="0 0 20 20" fill="none" xmlns="http://www.w3.org/2000/svg">
<rect width="20" height="20" rx="4" fill="white"/>
<path d="M10.1358 5.00003C9.06056 4.99639 8.01249 5.33581 7.14544 5.96845C6.27838 6.60109 5.638 7.49363 5.31832 8.51505C5.31403 8.52898 5.31308 8.54371 5.31554 8.55809C5.318 8.57246 5.32381 8.58605 5.33249 8.59779C5.34118 8.60952 5.3525 8.61911 5.36556 8.6257C5.37862 8.63234 5.39305 8.63581 5.40771 8.63586H7.34145C7.35869 8.63603 7.37563 8.63142 7.39039 8.62254C7.40515 8.6137 7.41717 8.60095 7.4251 8.5857C7.69169 8.08706 8.09236 7.67195 8.58236 7.38676C9.07239 7.10156 9.63244 6.95754 10.2 6.97073C11.8357 7.00036 13.102 8.33888 13.161 9.88144C13.1871 10.5675 12.9783 11.242 12.5687 11.7945C12.1592 12.347 11.5733 12.7448 10.9069 12.9228C10.2405 13.1007 9.53308 13.0483 8.90057 12.7741C8.26801 12.4998 7.7478 12.02 7.4251 11.4132C7.41726 11.3982 7.40542 11.3855 7.39088 11.3767C7.37634 11.3678 7.35964 11.3631 7.34259 11.3631H5.40771C5.39305 11.3631 5.37862 11.3666 5.36556 11.3732C5.3525 11.3798 5.34118 11.3894 5.33249 11.4011C5.32381 11.4129 5.318 11.4265 5.31554 11.4408C5.31308 11.4552 5.31403 11.4699 5.31832 11.4839C5.59396 12.3663 6.10999 13.1555 6.80912 13.7638C7.50826 14.3721 8.36316 14.7758 9.27888 14.9299C10.1947 15.0841 11.1354 14.9828 11.9968 14.6372C12.8581 14.2916 13.6064 13.7153 14.1585 12.9722C14.7106 12.2292 15.0449 11.3484 15.1244 10.4277C15.2038 9.50705 15.0253 8.58249 14.6086 7.75662C14.1919 6.93081 13.5533 6.23603 12.7637 5.74942C11.9742 5.26281 11.0645 5.00341 10.1358 5.00003Z" fill="#1DCF9F"/>
<path fill-rule="evenodd" clip-rule="evenodd" d="M7.27089 10.9419H4.90016C4.88693 10.9419 4.87383 10.9392 4.86162 10.934C4.84941 10.9289 4.83832 10.9213 4.829 10.9118C4.81967 10.9022 4.81229 10.8909 4.80728 10.8785C4.80227 10.866 4.79973 10.8527 4.79981 10.8393V9.21589C4.79973 9.20244 4.80227 9.18912 4.80728 9.17668C4.81229 9.16424 4.81967 9.15294 4.829 9.1434C4.83832 9.13386 4.84941 9.12629 4.86162 9.12111C4.87383 9.11596 4.88693 9.11328 4.90016 9.11328H7.27089C7.28411 9.11328 7.29721 9.11596 7.30942 9.12111C7.32163 9.12629 7.33272 9.13386 7.34205 9.1434C7.35137 9.15294 7.35875 9.16424 7.36376 9.17668C7.36877 9.18912 7.37131 9.20244 7.37124 9.21589V10.8393C7.37131 10.8527 7.36877 10.866 7.36376 10.8785C7.35875 10.8909 7.35137 10.9022 7.34205 10.9118C7.33272 10.9213 7.32163 10.9289 7.30942 10.934C7.29721 10.9392 7.28411 10.9419 7.27089 10.9419Z" fill="#210F60"/>
</svg>
