<svg width="20" height="20" viewBox="0 0 20 20" fill="none" xmlns="http://www.w3.org/2000/svg">
<g clip-path="url(#clip0_2094_17568)">
<rect width="20" height="10" fill="#4F008C"/>
<rect y="10" width="20" height="10" fill="#00C48C"/>
<path d="M3.94329 8.87117C4.45962 8.8899 4.96324 8.70889 5.34913 8.36588C5.47428 8.24299 5.57319 8.09606 5.63988 7.93393C5.70657 7.77182 5.73965 7.59791 5.73714 7.42267C5.73868 7.25925 5.70767 7.09718 5.64588 6.94585C5.5841 6.79453 5.49278 6.65697 5.37725 6.54121C5.1038 6.28412 4.75873 6.11577 4.38755 6.05837L3.69306 5.92364C3.41189 5.86748 3.24319 5.72432 3.24319 5.52782C3.24319 5.26674 3.49624 5.08709 3.90111 5.08709C4.1271 5.07834 4.3474 5.15904 4.51406 5.31167C4.60763 5.41349 4.66667 5.54217 4.68277 5.67941L5.68372 5.45483C5.65179 5.1701 5.52039 4.90571 5.31259 4.70812C4.93079 4.35594 4.42634 4.16657 3.90675 4.18037C3.42252 4.16517 2.95012 4.3314 2.58245 4.64637C2.44838 4.77009 2.34163 4.92037 2.26901 5.08761C2.19639 5.25486 2.1595 5.43537 2.1607 5.61765C2.15569 5.76993 2.18178 5.92161 2.23737 6.06351C2.29296 6.20539 2.37688 6.3345 2.48404 6.44297C2.7476 6.68673 3.07361 6.85288 3.42595 6.92298L4.10919 7.0858C4.45221 7.16442 4.60404 7.29073 4.60404 7.5153C4.60404 7.79602 4.3538 7.95602 3.94048 7.95602C3.813 7.96222 3.68559 7.94226 3.56614 7.89735C3.44669 7.85245 3.33773 7.78358 3.246 7.69496C3.1364 7.58476 3.07219 7.43749 3.06605 7.28231L2.03979 7.50689C2.0712 7.80829 2.20869 8.0888 2.42781 8.29851C2.62961 8.48822 2.86743 8.63564 3.12724 8.73206C3.38704 8.8285 3.66357 8.87197 3.94048 8.85993L3.94329 8.87117ZM11.532 8.85993C11.8131 8.86774 12.093 8.81991 12.3555 8.71921C12.618 8.61852 12.858 8.46695 13.0616 8.27324C13.3219 8.02611 13.5096 7.71254 13.6042 7.36653L12.5498 7.01562C12.5006 7.19453 12.4034 7.35662 12.2686 7.48443C12.0705 7.67071 11.8069 7.77156 11.5348 7.76514C11.3865 7.76674 11.2394 7.73904 11.1018 7.68364C10.9643 7.62823 10.8391 7.54622 10.7335 7.44231C10.512 7.18893 10.3963 6.86039 10.4101 6.52438C10.3949 6.1841 10.514 5.85147 10.7419 5.598C10.9546 5.3933 11.2394 5.28036 11.5348 5.2836C11.6663 5.27948 11.7972 5.30226 11.9196 5.35054C12.0419 5.39881 12.153 5.47156 12.2462 5.56431C12.3776 5.69796 12.4742 5.86186 12.5273 6.04153L13.5986 5.68222C13.509 5.34782 13.3358 5.04163 13.0953 4.79234C12.8852 4.59313 12.6376 4.43748 12.3668 4.33437C12.0961 4.23125 11.8076 4.18273 11.5179 4.1916C11.2168 4.18803 10.9179 4.24399 10.6385 4.35624C10.3591 4.4685 10.1047 4.63484 9.88998 4.84567C9.46223 5.30355 9.22577 5.90721 9.22891 6.53332C9.23204 7.15944 9.47455 7.76072 9.90684 8.21429C10.3425 8.63752 10.927 8.87334 11.5348 8.87117L11.532 8.85993ZM7.89932 8.87117C8.2367 8.88487 8.56908 8.78612 8.84405 8.59045V7.63041C8.66713 7.75141 8.45676 7.81423 8.24234 7.81006C8.16152 7.82492 8.07828 7.81982 7.9999 7.79518C7.92152 7.77052 7.85038 7.72709 7.79268 7.66866C7.735 7.61022 7.69251 7.53859 7.66894 7.45997C7.6454 7.38137 7.64147 7.29821 7.65751 7.21774V3.09961H6.47381V4.31512H8.84967V5.46325H6.47381V7.50407C6.45761 7.86403 6.58385 8.21593 6.82526 8.48379C6.97031 8.6169 7.14053 8.71975 7.32594 8.78626C7.51134 8.85278 7.7082 8.88165 7.90494 8.87117" fill="white"/>
<path d="M4.43555 16.9394V11.7783H5.30359V12.1865C5.44116 12.0185 5.61559 11.885 5.81317 11.7962C6.01073 11.7075 6.22607 11.666 6.44227 11.675C7.44098 11.675 8.15967 12.4774 8.15967 13.6269C8.15967 14.7764 7.46432 15.6022 6.44227 15.6022C6.22532 15.6101 6.0095 15.5672 5.81185 15.4768C5.61424 15.3864 5.44022 15.251 5.30359 15.0814V16.9582L4.43555 16.9394ZM5.30359 13.1858V14.1242C5.38517 14.3207 5.52252 14.4887 5.69847 14.6072C5.87441 14.7257 6.08117 14.7894 6.29295 14.7905C6.87163 14.7905 7.25431 14.3541 7.25431 13.6504C7.25431 12.9466 6.87163 12.5196 6.29295 12.5196C6.08086 12.5165 5.87283 12.5781 5.69623 12.6962C5.51962 12.8142 5.38274 12.9833 5.30359 13.1812" fill="white"/>
<path d="M8.74893 14.2619C8.73553 13.9806 8.84181 13.7056 9.04473 13.4968C9.24764 13.2881 9.53078 13.1623 9.83266 13.1469L11.3893 12.9633V12.7797C11.3963 12.736 11.3925 12.6914 11.3782 12.6493C11.3638 12.6072 11.3393 12.5687 11.3064 12.5368C11.2736 12.5049 11.2334 12.4804 11.1888 12.4652C11.1442 12.4501 11.0965 12.4446 11.0494 12.4493H9.07898V11.6738H11.0494C11.8375 11.6738 12.2759 12.0318 12.2759 12.6742V15.2944H11.3893V14.8355C11.24 15.0186 11.0446 15.1647 10.8204 15.2607C10.5961 15.3568 10.35 15.3998 10.1036 15.3862C9.93251 15.4029 9.75953 15.386 9.59596 15.3364C9.43238 15.2868 9.28181 15.2057 9.15407 15.0984C9.0263 14.991 8.92421 14.8599 8.85443 14.7134C8.78464 14.5669 8.74868 14.4084 8.74893 14.2482V14.2619ZM10.3302 14.7071C10.5505 14.7115 10.7675 14.6567 10.9554 14.5493C11.1432 14.4419 11.2938 14.2864 11.3893 14.1013V13.6425L10.2021 13.7985C9.87206 13.8398 9.7095 14.0004 9.7095 14.2574C9.7095 14.5143 9.94103 14.7162 10.3499 14.7162" fill="white"/>
<path d="M13.0136 16.1393H13.5946C13.6847 16.1493 13.7748 16.1207 13.8469 16.059C13.9189 15.9974 13.9677 15.9074 13.9835 15.8069L14.0903 15.4745L12.864 11.6738H13.6929L14.4533 14.3184L15.184 11.6738H16.0001L14.6543 16.0381C14.4707 16.6403 14.227 16.9582 13.6374 16.9582H13.0136V16.1393Z" fill="white"/>
</g>
<defs>
<clipPath id="clip0_2094_17568">
<rect width="20" height="20" rx="4" fill="white"/>
</clipPath>
</defs>
</svg>
