<svg width="20" height="20" viewBox="0 0 20 20" fill="none" xmlns="http://www.w3.org/2000/svg">
<rect width="20" height="20" rx="4" fill="#ED1E24"/>
<path fill-rule="evenodd" clip-rule="evenodd" d="M10 15C12.7612 15 14.9996 12.7618 14.9996 10.0001C14.9996 7.73685 13.4962 5.82494 11.4337 5.20861C11.4373 5.20651 11.4391 5.20547 11.4391 5.20547C11.4338 5.20547 11.4285 5.20548 11.4233 5.2055C10.9722 5.07178 10.4945 5 10 5C7.23858 5 5.00024 7.23849 5.00024 10.0001C5.00024 12.7618 7.23858 15 10 15ZM11.4233 5.2055C9.34742 5.21423 7.55829 6.93978 7.20907 9.12217C7.17721 9.32793 7.20907 9.97852 7.20907 9.97852C7.20907 11.5197 8.45873 12.7694 10 12.7694C11.5417 12.7694 12.7913 11.5199 12.7913 9.97852C12.7913 8.43855 11.5446 7.19027 10.0056 7.18705C10.4149 5.83757 11.3543 5.25579 11.4337 5.20861L11.4233 5.2055Z" fill="white"/>
</svg>
