<svg width="20" height="20" viewBox="0 0 20 20" fill="none" xmlns="http://www.w3.org/2000/svg">
<rect width="20" height="20" rx="4" fill="#FAE100"/>
<path d="M5.73472 11.2428C5.73378 11.2277 5.73332 11.2104 5.73332 11.193C5.73332 10.9417 5.84867 10.7171 6.02919 10.5699L6.0306 10.569C6.24583 10.4218 6.51217 10.3336 6.79867 10.3336C6.83102 10.3336 6.86338 10.3346 6.89526 10.3369H6.89104H7.45607V10.1503C7.45607 9.69923 7.2571 9.47371 6.85916 9.47371C6.71567 9.47464 6.57734 9.49434 6.44558 9.5295L6.45684 9.52669C6.30772 9.5642 6.17878 9.60968 6.05592 9.66594L6.07046 9.65985L5.9265 9.31335C6.06202 9.23599 6.2191 9.17129 6.38416 9.12721L6.39822 9.12393C6.54593 9.08267 6.7152 9.05829 6.8901 9.05735H6.89057C7.58018 9.05735 7.92482 9.4251 7.92451 10.1606V12.0258H7.56204L7.50343 11.706C7.36979 11.8152 7.21552 11.9071 7.04906 11.9737L7.03734 11.9779C6.89808 12.0361 6.7363 12.0712 6.56656 12.0741H6.56562C6.54499 12.0759 6.52108 12.0773 6.49716 12.0773C6.07421 12.0773 5.73097 11.7346 5.73097 11.3112C5.73097 11.2873 5.73191 11.2634 5.73425 11.2399V11.2428H5.73472ZM6.65518 11.6797C6.72974 11.6793 6.80195 11.6694 6.87088 11.6516L6.86478 11.653C6.95106 11.6319 7.02327 11.608 7.09361 11.5799L7.08236 11.5841C7.16113 11.5531 7.22818 11.5184 7.29149 11.4772L7.2868 11.48C7.35057 11.4392 7.40637 11.3961 7.45748 11.3487L7.45654 11.3497V10.6674H6.94684C6.92433 10.6656 6.89854 10.6646 6.87229 10.6646C6.69129 10.6646 6.52201 10.7153 6.37759 10.8034L6.38181 10.8011C6.27209 10.892 6.20269 11.0285 6.20269 11.1809C6.20269 11.1954 6.20316 11.2095 6.20457 11.224V11.2221C6.20175 11.2399 6.19988 11.261 6.19988 11.2821C6.19988 11.5039 6.37994 11.684 6.60173 11.684C6.62048 11.684 6.63924 11.6825 6.65753 11.6802L6.65518 11.6797ZM9.28808 12.0262H8.79761V7.90721L9.28808 7.80078V12.0262ZM10.5991 9.03672L10.9832 9.31382L10.0402 10.4968L11.1323 11.8077L10.7539 12.1008L9.46439 10.523L10.5991 9.03672ZM11.566 11.2428C11.5651 11.2277 11.5646 11.2109 11.5646 11.193C11.5646 10.9417 11.68 10.7171 11.8605 10.5695L11.8619 10.5685C12.0776 10.4213 12.3435 10.3331 12.6304 10.3331C12.6628 10.3331 12.6951 10.3341 12.727 10.3364H12.7228H13.2878V10.1498C13.2878 9.69876 13.0889 9.47324 12.6909 9.47324C12.5474 9.47418 12.4086 9.49387 12.2769 9.52903L12.2881 9.52622C12.139 9.56373 12.0105 9.60921 11.8877 9.66547L11.9018 9.65985L11.7578 9.31335C11.8933 9.23646 12.0499 9.17176 12.2155 9.12721L12.2295 9.12393C12.3772 9.08267 12.547 9.05829 12.7219 9.05735C13.4108 9.05735 13.756 9.4251 13.7563 10.1606V12.0258H13.3938L13.3352 11.706C13.2016 11.8152 13.0473 11.9071 12.8804 11.9737L12.8686 11.9779C12.7294 12.0361 12.5676 12.0712 12.3983 12.0741H12.3974C12.3768 12.0759 12.3528 12.0773 12.3285 12.0773C11.9055 12.0773 11.5627 11.7346 11.5627 11.3117C11.5627 11.2873 11.5637 11.2634 11.566 11.2399V11.2428ZM12.4865 11.6797C12.561 11.6793 12.6333 11.6694 12.7022 11.6516L12.6961 11.653C12.7824 11.6319 12.8546 11.608 12.9249 11.5799L12.9137 11.5841C12.9924 11.5531 13.0595 11.518 13.1228 11.4772L13.1181 11.48C13.1819 11.4392 13.2372 11.3961 13.2888 11.3487L13.2878 11.3497V10.6674H12.7786C12.7561 10.6656 12.7298 10.6646 12.7036 10.6646C12.5226 10.6646 12.3533 10.7153 12.2094 10.8034L12.2136 10.8011C12.1039 10.892 12.034 11.028 12.034 11.1804C12.034 11.1949 12.0345 11.2095 12.0359 11.2235V11.2217C12.0331 11.2395 12.0312 11.2606 12.0312 11.2817C12.0312 11.5034 12.2112 11.6835 12.433 11.6835C12.4518 11.6835 12.4705 11.6821 12.4888 11.6797H12.4865ZM15.729 9.06345C15.7472 9.06251 15.7688 9.06204 15.7904 9.06204C16.1439 9.06204 16.4619 9.21442 16.6818 9.45683L16.6827 9.45777C16.9012 9.73627 17.033 10.0912 17.033 10.4776C17.033 10.5165 17.0316 10.5549 17.0292 10.5929L17.0297 10.5877C17.032 10.6201 17.0335 10.6576 17.0335 10.696C17.0335 11.0772 16.9026 11.4275 16.6832 11.7051L16.686 11.7018C16.4398 11.9423 16.1027 12.0905 15.7308 12.0905C15.359 12.0905 15.0219 11.9423 14.7752 11.7013L14.7757 11.7018C14.5576 11.428 14.4254 11.0772 14.4254 10.6956C14.4254 10.6576 14.4268 10.6201 14.4292 10.5831L14.4287 10.5882C14.4263 10.5554 14.4249 10.5169 14.4249 10.4785C14.4249 10.0921 14.5576 9.73627 14.7804 9.45495L14.7776 9.45823C14.9989 9.21489 15.3173 9.06251 15.6708 9.06251C15.6914 9.06251 15.7116 9.06298 15.7318 9.06392H15.729V9.06345ZM15.729 9.45777C15.7191 9.4573 15.7074 9.45683 15.6957 9.45683C15.4668 9.45683 15.2643 9.56982 15.1414 9.74331L15.14 9.74565C15.0092 9.95852 14.9314 10.2164 14.9314 10.4926C14.9314 10.5258 14.9323 10.5591 14.9346 10.592L14.9342 10.5877C14.9323 10.6163 14.9309 10.6496 14.9309 10.6834C14.9309 10.9549 15.0087 11.2081 15.1428 11.4223L15.1395 11.4167C15.2812 11.5883 15.4936 11.6966 15.7313 11.6966C15.969 11.6966 16.1815 11.5883 16.3217 11.4181L16.3226 11.4167C16.4534 11.2081 16.5308 10.9549 16.5308 10.6834C16.5308 10.6496 16.5294 10.6163 16.527 10.5835L16.5275 10.5877C16.5294 10.5591 16.5308 10.5263 16.5308 10.493C16.5308 10.2169 16.4534 9.95899 16.3188 9.73956L16.3226 9.74565C16.1969 9.56982 15.9934 9.45683 15.7637 9.45683C15.751 9.45683 15.7388 9.4573 15.7266 9.45777H15.729ZM3.45678 12.0262H2.96631V7.90721L3.45678 7.80078V12.0262ZM4.76784 9.03672L5.15187 9.31382L4.20844 10.4968L5.30099 11.8077L4.92258 12.1008L3.63309 10.523L4.76784 9.03672Z" fill="black"/>
</svg>
