<svg width="20" height="20" viewBox="0 0 20 20" fill="none" xmlns="http://www.w3.org/2000/svg">
<path fill-rule="evenodd" clip-rule="evenodd" d="M3.18537 14.2001C3.18547 14.5305 3.45082 14.7991 3.7777 14.7991H16.2223C16.5485 14.7991 16.8145 14.5305 16.8146 14.2001V8.80058H3.18537V14.2001ZM4.37003 12.9993H6.74006V11.7999H4.37003V12.9993Z" fill="black"/>
<path d="M3.7777 5.20086C3.45078 5.20086 3.18537 5.46894 3.18537 5.80058V7.59971H16.8146V5.80058C16.8146 5.46899 16.5486 5.20094 16.2223 5.20086H3.7777Z" fill="black"/>
<path fill-rule="evenodd" clip-rule="evenodd" d="M16.2223 4C17.2025 4.00007 18 4.80808 18 5.80058V7.59971H16.8146V5.80058C16.8146 5.46899 16.5486 5.20094 16.2223 5.20086H3.7777C3.45078 5.20086 3.18537 5.46894 3.18537 5.80058V7.59971H2V5.80058C2 4.80804 2.79738 4 3.7777 4H16.2223ZM2 14.2001V8.80058H3.18537V14.2001C3.18547 14.5305 3.45082 14.7991 3.7777 14.7991H16.2223C16.5485 14.7991 16.8145 14.5305 16.8146 14.2001V8.80058H18V14.2001C17.9999 15.1919 17.2024 15.9999 16.2223 16H3.7777C2.79744 16 2.00009 15.192 2 14.2001Z" fill="black"/>
</svg>
