<svg width="20" height="20" viewBox="0 0 20 20" fill="none" xmlns="http://www.w3.org/2000/svg">
<rect width="20" height="20" rx="4" fill="#1E4BC6"/>
<path d="M4.25 9.375H5.71422C5.94541 9.375 6.13807 9.41376 6.33073 9.49127C6.52339 9.56878 6.67752 9.68505 6.81239 9.8207C6.94725 9.95634 7.06284 10.1114 7.13991 10.3051C7.21697 10.4989 7.2555 10.6927 7.2555 10.9059C7.2555 11.119 7.21697 11.3128 7.13991 11.5066C7.06284 11.7004 6.94725 11.8556 6.81239 11.991C6.67752 12.1265 6.50413 12.2431 6.33073 12.3203C6.15734 12.3978 5.94541 12.4369 5.71422 12.4369H5.05917V13.6576H4.26927V9.375H4.25ZM5.03991 10.1116V11.6812H5.65642C5.77202 11.6812 5.88761 11.6618 5.98394 11.6231C6.08028 11.5843 6.15734 11.5262 6.2344 11.4486C6.31147 11.3711 6.35 11.2936 6.38853 11.1967C6.42706 11.0998 6.44633 11.003 6.44633 10.8867C6.44633 10.7704 6.42706 10.6735 6.38853 10.5766C6.35 10.4797 6.2922 10.4022 6.2344 10.3247C6.15734 10.2472 6.08028 10.1891 5.98394 10.1503C5.88761 10.1116 5.77202 10.0922 5.65642 10.0922H5.03991V10.1116ZM9.08578 13.6576C8.87385 13.6576 8.68119 13.619 8.46927 13.5413C8.27661 13.4638 8.08395 13.3475 7.92982 13.2121C7.77569 13.0568 7.64083 12.8824 7.5445 12.6693C7.44817 12.4561 7.39037 12.2042 7.39037 11.9329C7.39037 11.6616 7.4289 11.4097 7.52523 11.1965C7.62156 10.9834 7.75642 10.809 7.91055 10.654C8.06468 10.4989 8.25734 10.402 8.45 10.3245C8.66193 10.247 8.85459 10.2083 9.08578 10.2083C9.31697 10.2083 9.5289 10.247 9.70229 10.3245C9.89495 10.402 10.0491 10.5183 10.1839 10.654V10.2083H10.9739V13.6574H10.1839V13.1729C10.0683 13.3281 9.89495 13.4442 9.70229 13.5411C9.50963 13.619 9.31697 13.6576 9.08578 13.6576ZM9.22064 12.9408C9.37477 12.9408 9.50963 12.9214 9.62523 12.8632C9.74083 12.8051 9.85642 12.747 9.95275 12.6501C10.0491 12.5532 10.1069 12.4563 10.1647 12.34C10.2225 12.2234 10.2417 12.0879 10.2417 11.9525C10.2417 11.8166 10.2225 11.681 10.1647 11.5649C10.1069 11.4486 10.0491 11.3324 9.95275 11.2549C9.85642 11.158 9.76009 11.0998 9.62523 11.0417C9.49037 10.9642 9.3555 10.9448 9.22064 10.9448C9.08578 10.9448 8.95092 10.9642 8.81606 11.0223C8.68119 11.0805 8.58486 11.1386 8.48853 11.2355C8.3922 11.3324 8.31514 11.4293 8.27661 11.5455C8.21881 11.6618 8.19954 11.7975 8.19954 11.9331C8.19954 12.0687 8.21881 12.2042 8.27661 12.3205C8.3344 12.4371 8.41147 12.5532 8.48853 12.6501C8.58486 12.747 8.70046 12.8049 8.81606 12.8632C8.93165 12.9018 9.06651 12.9408 9.22064 12.9408ZM12.072 10.2276L13.0353 12.5724L13.9216 10.2276H14.75L12.7271 15.2272H11.9179L12.6307 13.5027L11.2436 10.2276H12.072Z" fill="white"/>
<path d="M15.0548 6.87584V4.77632H14.5586L14.5851 6.44056H14.5784L14.1153 4.77632H13.3743V6.87584H13.8639L13.8374 5.14847H13.8507L14.3403 6.87584H15.0548Z" fill="#6F9DE4"/>
<path d="M5.14367 4.77632L4.77316 6.89698H5.30907L5.58696 4.96591H5.59357L5.86484 6.89698H6.40076L6.03025 4.77632H5.14367Z" fill="#6F9DE4"/>
<path d="M9.02741 6.89698L8.9811 4.77632H8.1673L7.91588 6.39843H7.90926L7.66446 4.77632H6.84405L6.79773 6.89698H7.30057L7.3138 4.98697H7.32703L7.65784 6.89698H8.1673L8.49811 4.98697H8.51134L8.52457 6.89698H9.02741Z" fill="#6F9DE4"/>
<path d="M12.3025 6.41942C12.2958 6.47567 12.2496 6.57397 12.1106 6.57397C11.9716 6.57397 11.9319 6.47567 11.9253 6.43354C11.9186 6.40545 11.9186 6.37729 11.9186 6.34921V4.77639H11.4092V6.30012C11.4092 6.34225 11.4158 6.41942 11.4158 6.44056C11.4489 6.84073 11.74 6.9672 12.1105 6.9672C12.4811 6.9672 12.7788 6.83378 12.8119 6.44056C12.8119 6.41942 12.8185 6.34225 12.8185 6.30012V4.77639H12.3091V6.33523C12.3091 6.36332 12.3091 6.39843 12.3025 6.41942Z" fill="#6F9DE4"/>
<path d="M3.93289 6.44751C3.93951 6.4124 3.94612 6.34218 3.92628 6.2931C3.82703 6.01925 3.11248 5.89981 3.03308 5.45758C3.01323 5.34523 3.01323 5.26096 3.02646 5.16968C3.07939 4.82561 3.37051 4.69922 3.72779 4.69922C4.01229 4.69922 4.40265 4.76944 4.40265 5.23288V5.38034H3.90643V5.24692C3.90643 5.13457 3.84026 5.05733 3.72117 5.05733C3.59546 5.05733 3.54915 5.12755 3.53592 5.19777C3.5293 5.22586 3.5293 5.26799 3.53592 5.31012C3.58885 5.56283 4.34972 5.69632 4.43573 6.13862C4.44234 6.18784 4.46219 6.30715 4.43573 6.48971C4.38941 6.8408 4.09168 6.97422 3.72779 6.97422C3.35066 6.97422 3 6.83378 3 6.35623V6.1948H3.53592V6.39843C3.53592 6.51071 3.6087 6.58795 3.7344 6.58795C3.87335 6.58795 3.91304 6.51773 3.93289 6.44751Z" fill="#6F9DE4"/>
<path d="M10.4367 6.44751C10.4433 6.40545 10.4499 6.34218 10.4301 6.2931C10.3308 6.01925 9.62949 5.89981 9.55678 5.47155C9.53031 5.36622 9.53693 5.28196 9.55016 5.19068C9.60309 4.84661 9.89421 4.72724 10.2449 4.72724C10.5228 4.72724 10.9131 4.79745 10.9131 5.25387V5.40133H10.4169V5.26792C10.4169 5.15557 10.3507 5.07833 10.2316 5.07833C10.1125 5.07833 10.0662 5.14855 10.053 5.21876C10.0464 5.24685 10.0398 5.28898 10.053 5.33111C10.1059 5.57688 10.8535 5.70327 10.9395 6.14557L10.9398 6.14755C10.9468 6.19141 10.9656 6.30985 10.9395 6.48964C10.8932 6.84073 10.5955 6.9672 10.2382 6.9672C9.86767 6.9672 9.51701 6.82676 9.51701 6.35623V6.1948H10.0463V6.39843C10.0463 6.51071 10.1191 6.58795 10.2448 6.58795C10.3771 6.58795 10.4234 6.51773 10.4367 6.44751Z" fill="#6F9DE4"/>
<path d="M16.4905 6.39843C16.4773 6.45453 16.4309 6.55284 16.2854 6.55284C16.1399 6.55284 16.087 6.46156 16.087 6.39127C16.0803 6.37027 16.0803 6.34211 16.0803 6.31403V5.34509C16.0803 5.30998 16.0803 5.27487 16.087 5.24678C16.1001 5.19763 16.1399 5.0923 16.2854 5.0923C16.4376 5.0923 16.4773 5.19763 16.4839 5.24678C16.4905 5.28189 16.4905 5.33104 16.4905 5.33104V5.45041H16.9934V5.38019C16.9934 5.38019 16.9934 5.30295 16.9868 5.23976C16.9537 4.83951 16.6427 4.71312 16.2854 4.71312C15.9281 4.71312 15.6304 4.83951 15.5841 5.23976C15.5841 5.27487 15.5774 5.34509 15.5774 5.38019V6.27197C15.5774 6.3141 15.5774 6.34218 15.5841 6.4124C15.6171 6.7986 15.9347 6.93904 16.2854 6.93904C16.6427 6.93904 16.9602 6.7986 16.9933 6.4124C17 6.34219 17 6.31411 17 6.27198V6.27197V5.7032H16.2921V6.01223H16.4972V6.32105V6.32107C16.4972 6.3422 16.4972 6.3773 16.4905 6.39843Z" fill="#6F9DE4"/>
</svg>
