<svg width="20" height="20" viewBox="0 0 20 20" fill="none" xmlns="http://www.w3.org/2000/svg">
<rect width="20" height="20" rx="4" fill="#EA5404"/>
<path d="M6.47141 10.1906C6.39786 10.4656 6.28782 10.7162 6.14447 10.9353C5.71511 11.5911 5.1465 11.8438 4.7503 11.8664C4.32149 11.8456 4.27641 11.5926 4.44958 10.947C5.0468 8.71584 6.39269 8.21157 7.03689 8.07902L6.47141 10.1906ZM16.2094 9.16683C15.6342 10.0451 14.9727 10.9702 14.434 11.477C14.0811 11.8095 13.3371 12.2822 13.6356 11.1672C13.7209 10.8482 14.6169 7.50283 14.6169 7.50283C14.3763 7.50283 13.18 7.43819 12.78 8.92888C12.78 8.92888 12.5258 9.8755 12.4181 10.2746C12.3453 10.5167 12.2441 10.7388 12.1153 10.9353C11.6861 11.5911 11.1174 11.8438 10.7213 11.8664H10.7211C10.4886 11.8552 10.3772 11.7728 10.337 11.6059C10.2972 11.4439 10.3768 11.1107 10.4201 10.9485L11.3428 7.50276C11.2144 7.50092 9.92117 7.38212 9.50598 8.92881L9.06879 10.5526C9.03951 10.6515 8.96508 10.8529 8.83944 11.0335C8.55922 11.4368 8.06122 11.8666 7.79727 11.8666C7.60932 11.8666 7.53482 11.6512 7.66441 11.1671L8.64563 7.50283H8.21049C6.67161 7.50283 5.57524 7.75064 4.76065 8.28247C3.39434 9.1737 3.04956 10.9385 3.04956 11.3016C3.04956 11.6891 3.16894 12.4994 4.51394 12.4994C5.35345 12.4994 5.94596 12.0587 6.30184 11.6525L6.34257 11.6056C6.37069 11.7968 6.43756 12.0051 6.58091 12.1726C6.7583 12.3794 7.09348 12.4994 7.41477 12.4994C8.12312 12.4994 8.72817 12.0247 9.05 11.6067L9.05034 11.608C9.13369 12.0085 9.43782 12.5 10.4854 12.5C11.3247 12.5 11.9173 12.0594 12.2731 11.6529C12.2866 11.6375 12.3002 11.6222 12.3132 11.6067C12.3416 11.7975 12.4082 12.0054 12.5516 12.1726L12.5669 12.189L12.5713 12.1937C12.748 12.3824 13.0932 12.4992 13.3735 12.4992C13.9819 12.4992 14.5814 12.1513 15.0864 11.6192C15.7416 10.9284 16.6029 9.68382 16.9504 9.16676" fill="white"/>
</svg>
