<svg width="20" height="20" viewBox="0 0 20 20" fill="none" xmlns="http://www.w3.org/2000/svg">
<rect width="20" height="20" rx="4" fill="#005BAC"/>
<path d="M10 11.4156H10.2163C10.2278 11.4156 10.2412 11.4082 10.2473 11.3987L11.145 9.92824L11.6329 11.6111C11.6349 11.6165 11.6385 11.6211 11.6432 11.6245C11.6479 11.6279 11.6534 11.6298 11.6592 11.63H12.6013C12.6121 11.63 12.6189 11.6212 12.6155 11.6111L11.6214 8.46242C11.618 8.45229 11.6066 8.44286 11.5951 8.44286H11.2413C11.2306 8.44286 11.2164 8.45095 11.2103 8.46042L10 10.3388L8.78898 8.46034C8.7829 8.45095 8.76943 8.44282 8.75865 8.44282H8.40416C8.39339 8.44282 8.38196 8.45225 8.37857 8.46238L7.38388 11.6111C7.38118 11.6212 7.38727 11.63 7.39804 11.63H8.34082C8.35163 11.63 8.36375 11.6212 8.36645 11.6111L8.85502 9.92819L9.75269 11.3987C9.75808 11.4081 9.7722 11.4155 9.78302 11.4155L10 11.4156ZM7.42702 9.8473V9.84664C7.42596 9.84224 7.42345 9.83831 7.4199 9.8355C7.41635 9.83269 7.41196 9.83115 7.40743 9.83113H4.72265C4.58045 9.83113 4.46522 9.94641 4.46522 10.088C4.46522 10.1218 4.47187 10.1553 4.48481 10.1866C4.49774 10.2178 4.5167 10.2462 4.54061 10.2701C4.56451 10.2941 4.59289 10.313 4.62413 10.326C4.65537 10.3389 4.68884 10.3456 4.72265 10.3456H6.31776C6.12841 10.8479 5.48551 11.2174 4.72265 11.2174C3.80951 11.2174 3.0702 10.6888 3.0702 10.0368C3.0702 9.38479 3.80951 8.8562 4.72265 8.8562C5.22135 8.8562 5.66812 9.01395 5.97139 9.26342C5.97208 9.26477 5.97343 9.26477 5.97408 9.26546C5.97747 9.26812 5.98151 9.26947 5.98555 9.26947H7.08269C7.08793 9.2693 7.0929 9.26709 7.09655 9.26332C7.10019 9.25954 7.10222 9.2545 7.1022 9.24925C7.1023 9.24691 7.10194 9.24457 7.10113 9.24237C7.10033 9.24017 7.0991 9.23815 7.09751 9.23643L7.09547 9.23439C6.6291 8.73688 5.7409 8.40039 4.72261 8.40039C3.2191 8.40039 2 9.13328 2 10.0368C2 10.9402 3.2191 11.6732 4.72261 11.6732C6.22608 11.6732 7.44518 10.9402 7.44518 10.0368C7.44518 9.97271 7.43914 9.90937 7.42702 9.8473ZM15.2774 11.2174C14.3642 11.2174 13.6243 10.6888 13.6243 10.0368C13.6243 9.38479 14.3642 8.8562 15.2774 8.8562C16.1899 8.8562 16.9298 9.38479 16.9298 10.0368C16.9298 10.6888 16.1898 11.2174 15.2774 11.2174ZM15.2774 8.40039C13.7732 8.40039 12.5541 9.13328 12.5541 10.0368C12.5541 10.9402 13.7732 11.6732 15.2774 11.6732C16.7809 11.6732 18 10.9402 18 10.0368C18 9.13328 16.7809 8.40039 15.2774 8.40039Z" fill="white"/>
</svg>
