<svg width="20" height="20" viewBox="0 0 20 20" fill="none" xmlns="http://www.w3.org/2000/svg">
<rect width="20" height="20" rx="4" fill="white"/>
<path fill-rule="evenodd" clip-rule="evenodd" d="M4.07459 5.1403C4.07459 5.12965 4.07459 5.12965 4.08525 5.11899C4.08525 5.11899 6.37658 4 9.97872 4C13.5915 4 16 5.12965 16 5.12965L14.5187 9.95741L15.968 14.8491C15.968 14.8491 13.8898 16 9.82946 16C5.7691 16 4 14.9237 4 14.9237L5.51327 9.94676L4.07459 5.1403Z" fill="#497DBB"/>
<path fill-rule="evenodd" clip-rule="evenodd" d="M5.72653 9.96865L4.26654 14.7112C4.25588 14.7324 4.25588 14.775 4.26654 14.7964C4.26654 14.8071 4.27719 14.8284 4.29851 14.839C4.29851 14.839 6.71772 15.7982 10.0107 15.7982C13.3039 15.7982 15.7124 14.7112 15.7124 14.7112L14.3056 9.91537L15.7337 5.3008C15.7337 5.29015 15.7231 5.25818 15.7123 5.24752C15.7123 5.24752 13.4956 4.20312 9.95739 4.20312C6.84552 4.20312 4.31975 5.26883 4.31975 5.26883C4.30909 5.27949 4.30909 5.31146 4.30909 5.33277L5.72653 9.96865Z" fill="white"/>
<path fill-rule="evenodd" clip-rule="evenodd" d="M4.67143 5.51332C4.67143 5.50266 4.66078 5.48135 4.67143 5.46004C4.68209 5.43872 4.7034 5.41748 4.72471 5.41748C4.72471 5.41748 6.83482 4.49023 9.97873 4.49023C13.1226 4.49023 15.3819 5.40675 15.3819 5.40675C15.3819 5.40675 15.3925 5.41741 15.3925 5.42807V5.492L14.0284 9.89344C14.0284 9.91476 14.0072 9.94672 14.0178 9.96804L15.3819 14.508C15.3819 14.5187 15.3819 14.5294 15.3713 14.5401C15.3713 14.5401 13.2078 15.5204 9.95735 15.5204C6.70687 15.5204 4.67136 14.6573 4.67136 14.6573C4.6607 14.6573 4.63939 14.6359 4.62873 14.6253C4.61808 14.6146 4.60742 14.6039 4.60742 14.5827L6.01428 10.0106C6.02494 9.98935 6.01428 9.95738 6.01428 9.92541L4.67143 5.51332Z" fill="#497DBB"/>
<path fill-rule="evenodd" clip-rule="evenodd" d="M9.72305 6.37611C9.79765 6.36545 9.91487 6.36545 9.96815 6.35479C9.98946 6.35479 10.0108 6.32283 10.0321 6.31217C10.0321 6.30151 10.0427 6.29086 10.0427 6.2802C10.0533 6.22692 10.0533 6.16298 10.0427 6.12036C10.0429 6.10937 10.04 6.09856 10.0344 6.08914C10.0287 6.07972 10.0206 6.07207 10.0108 6.06707C9.9788 6.04576 9.92552 6.0351 9.90421 6.01379C9.89355 6.00314 9.89355 6.00314 9.90421 5.99248L10.1919 5.32106C10.2041 5.30791 10.2185 5.29708 10.2346 5.28909C10.2559 5.27843 10.2986 5.27843 10.3198 5.26777C10.3412 5.25712 10.3731 5.24646 10.3838 5.22515C10.3945 5.21449 10.4051 5.19318 10.4051 5.17194C10.4157 5.12931 10.4051 5.07603 10.4051 5.03341C10.4051 5.02275 10.3945 5.00144 10.3945 5.00144C10.3838 4.98013 10.3624 4.96947 10.3412 4.95881C10.3305 4.94816 10.3092 4.94816 10.2986 4.94816C10.1814 4.9375 10.0534 4.9375 9.93618 4.9375C9.90421 4.9375 9.86158 4.9375 9.82962 4.94816C9.80987 4.94854 9.79095 4.95612 9.77641 4.96947C9.76575 4.99078 9.74444 5.02275 9.74444 5.04406C9.73378 5.08669 9.73378 5.1399 9.74444 5.17194C9.74444 5.19325 9.76575 5.23588 9.78706 5.24646C9.80838 5.26777 9.851 5.25712 9.87231 5.27843C9.89363 5.27843 9.89363 5.28909 9.89363 5.29974C9.88297 5.34237 9.86166 5.37434 9.851 5.41696C9.79772 5.53418 9.72313 5.69403 9.70181 5.73665C9.70181 5.74731 9.69116 5.73665 9.69116 5.73665C9.6805 5.73665 9.66984 5.74731 9.66984 5.73665C9.64853 5.70468 9.60591 5.61943 9.56328 5.5555C9.53131 5.48097 9.47803 5.38499 9.45672 5.33171C9.44606 5.32106 9.44606 5.3104 9.45672 5.29974C9.45672 5.29974 9.55262 5.27843 9.58459 5.16121C9.58459 5.04399 9.57394 4.99071 9.51 4.9694C9.4354 4.94808 9.00908 4.9694 8.95579 5.01202C8.90251 5.04399 8.90251 5.0653 8.91317 5.18252C8.91317 5.29974 9.04105 5.32106 9.04105 5.32106C9.0517 5.33171 9.0517 5.32106 9.0517 5.33171L8.87054 5.80066L8.60414 5.38499C8.60414 5.37434 8.60414 5.37434 8.61479 5.37434C8.61479 5.37434 8.7107 5.33171 8.73201 5.27843C8.75332 5.2358 8.75332 5.0653 8.66807 5.04399C8.59348 5.02268 8.16723 5.0653 8.10329 5.10793C8.05001 5.1399 8.07132 5.27843 8.07132 5.27843L8.10329 5.37434C8.11394 5.38499 8.13526 5.39565 8.1565 5.40631C8.18847 5.40631 8.22043 5.40631 8.2524 5.41696C8.28437 5.41696 8.29503 5.42762 8.30568 5.44893L8.68931 6.07773V6.1097C8.67866 6.12036 8.67866 6.1097 8.668 6.12036C8.65734 6.13101 8.63603 6.13101 8.62538 6.14167C8.60406 6.15232 8.58275 6.17364 8.58275 6.19495C8.57209 6.23757 8.57209 6.30151 8.58275 6.35479C8.58275 6.35479 8.57209 6.37611 8.63603 6.42939C8.71063 6.47201 9.19023 6.36545 9.19023 6.36545C9.20089 6.36545 9.2222 6.34414 9.2222 6.33348C9.23286 6.31217 9.24352 6.26954 9.24352 6.24823C9.24352 6.20561 9.23286 6.16298 9.21155 6.12036C9.21155 6.1097 9.19023 6.09904 9.17958 6.08839C9.15827 6.07773 9.11564 6.07773 9.09433 6.05642L9.25417 5.61943L9.49927 6.01372V6.03503C9.47796 6.067 9.43533 6.067 9.41402 6.08824C9.39271 6.12021 9.38205 6.17349 9.38205 6.20546C9.38205 6.24809 9.40336 6.29071 9.41402 6.32268C9.41402 6.33334 9.43533 6.34399 9.44599 6.35465C9.48861 6.36531 9.53124 6.37596 9.58452 6.37596H9.72305V6.37611ZM11.3322 6.42939C11.3643 6.42939 11.4175 6.41873 11.4601 6.39742C11.4922 6.38676 11.5241 6.35479 11.5454 6.32283C11.556 6.31217 11.5667 6.2802 11.5667 6.26954C11.5881 6.16298 11.5987 6.06707 11.6094 5.96051C11.62 5.88592 11.6094 5.79001 11.6094 5.73673C11.5987 5.71541 11.5881 5.6941 11.5881 5.68344C11.5667 5.65148 11.5349 5.61951 11.5029 5.60885C11.4815 5.58754 11.4389 5.57688 11.407 5.57688L10.7888 5.51302C10.7782 5.51302 10.7674 5.51302 10.7568 5.50236L10.7462 5.4917V5.35317C10.7462 5.34251 10.7462 5.34251 10.7568 5.33186C10.7674 5.3212 10.7674 5.31055 10.7888 5.31055L11.2363 5.33186C11.2684 5.34251 11.3003 5.34251 11.3322 5.35317C11.3536 5.36383 11.3536 5.36383 11.3643 5.38514C11.3749 5.42777 11.3749 5.48105 11.3962 5.51302C11.4069 5.53433 11.4495 5.54499 11.4601 5.54499H11.5454C11.556 5.54499 11.5881 5.54499 11.5986 5.53433C11.62 5.51302 11.6307 5.47039 11.6413 5.43842C11.6627 5.3958 11.6627 5.33186 11.6627 5.27858C11.6627 5.23595 11.652 5.19333 11.6413 5.1507C11.6413 5.14004 11.6307 5.11873 11.62 5.10807C11.5986 5.08676 11.5774 5.06545 11.556 5.05479C11.5348 5.04414 11.5028 5.02282 11.4708 5.02282L10.7461 4.95889C10.7247 4.95889 10.6929 4.95889 10.6609 4.96954C10.6502 4.96954 10.6183 4.9802 10.6076 4.99085C10.5756 5.00151 10.5543 5.01217 10.5329 5.03348C10.5117 5.06545 10.4903 5.10807 10.4797 5.1507C10.4691 5.20398 10.4477 5.47039 10.4477 5.52367C10.4477 5.5663 10.4583 5.61958 10.4797 5.65155C10.4903 5.68352 10.5117 5.71549 10.5329 5.7368C10.565 5.74746 10.5969 5.76877 10.6396 5.76877C10.7036 5.77942 11.1191 5.81139 11.2577 5.83271C11.2791 5.83271 11.2897 5.84336 11.311 5.84336V5.85402C11.3217 5.88599 11.3217 5.89664 11.3217 5.91796C11.3217 5.97124 11.3217 6.02452 11.3003 6.06715C11.3003 6.0778 11.2896 6.08846 11.279 6.08846L10.7461 6.04583H10.7141C10.7035 6.03518 10.7035 6.03518 10.7035 6.01386C10.6929 5.97124 10.6929 5.9073 10.6821 5.85402C10.6821 5.84336 10.6609 5.82205 10.6502 5.82205C10.6182 5.81139 10.5755 5.81139 10.5542 5.81139C10.5329 5.81139 10.501 5.80074 10.4797 5.81139C10.4583 5.82205 10.4371 5.85402 10.4264 5.87533C10.4158 5.92861 10.4051 6.02452 10.4051 6.09912C10.4051 6.14174 10.4157 6.18437 10.4157 6.22699C10.4157 6.23765 10.4264 6.25896 10.4264 6.26962C10.4476 6.29093 10.4797 6.3229 10.5116 6.34421L11.3322 6.42939ZM13.0161 5.44893C13.0267 5.41696 13.0054 5.37441 12.9948 5.34237C12.9842 5.32106 12.9735 5.29974 12.9628 5.28909C12.9416 5.26777 12.8989 5.2358 12.8776 5.2358L12.057 5.09727C12.0356 5.09727 12.025 5.10793 12.0037 5.10793C11.9931 5.11858 11.9611 5.11858 11.9504 5.12924C11.9292 5.15055 11.8972 5.17187 11.8866 5.20384C11.8652 5.2358 11.8545 5.28909 11.844 5.33171L11.684 6.26954C11.684 6.30151 11.7054 6.34414 11.7161 6.37611C11.7161 6.39742 11.7587 6.4507 11.7799 6.46136L12.5686 6.59989C12.6033 6.61055 12.6405 6.61055 12.6752 6.59989C12.6965 6.59989 12.7285 6.57858 12.7391 6.56792C12.7711 6.54661 12.8031 6.5253 12.8243 6.49333C12.835 6.46136 12.8564 6.41873 12.8564 6.38676L13.0161 5.44893ZM7.83673 6.54661C7.90067 6.56792 8.39086 6.51464 8.42283 6.42946C8.4548 6.34421 8.44414 6.36552 8.43349 6.33356C8.43349 6.29093 8.42283 6.23765 8.40152 6.20568C8.39086 6.18437 8.34824 6.18437 8.33758 6.17371C8.29496 6.16305 8.26299 6.17371 8.23102 6.1524L8.08183 5.9819L7.70886 5.50236C7.70886 5.48105 7.71951 5.48105 7.73017 5.47039C7.74083 5.45973 7.76214 5.45973 7.77279 5.44908C7.77279 5.44908 7.83673 5.37456 7.80476 5.28923C7.80476 5.21464 7.77279 5.18267 7.73017 5.16136C7.6982 5.1507 7.21866 5.21464 7.17604 5.25726C7.13341 5.28923 7.14407 5.28923 7.13341 5.35317C7.13341 5.42777 7.16538 5.50236 7.16538 5.50236C7.17604 5.52367 7.19735 5.53433 7.21866 5.54499C7.23998 5.55564 7.26129 5.54499 7.2826 5.5663C7.29326 5.5663 7.29326 5.57695 7.29326 5.58761L6.99488 6.37625C6.97357 6.40822 6.93094 6.40822 6.89897 6.42954C6.88832 6.42954 6.87766 6.45085 6.867 6.4615C6.867 6.4615 6.84569 6.55741 6.867 6.58938C6.88832 6.63201 6.88832 6.66398 6.92029 6.69594C6.95226 6.72791 7.48515 6.65332 7.52777 6.56807C7.52777 6.56807 7.53843 6.37625 7.4958 6.35494C7.45318 6.33363 7.44259 6.32297 7.42121 6.31232C7.39989 6.31232 7.37858 6.31232 7.35727 6.30166C7.34661 6.30166 7.34661 6.30166 7.34661 6.291C7.35727 6.25903 7.35727 6.23772 7.37858 6.22706L7.79425 6.15247C7.81557 6.15247 7.83688 6.15247 7.85819 6.16313C7.86885 6.17378 7.8795 6.17378 7.89016 6.1951C7.89016 6.20575 7.90082 6.20575 7.89016 6.21641C7.85819 6.24838 7.81557 6.24838 7.7836 6.28035C7.77294 6.291 7.76228 6.32297 7.76228 6.34428C7.76206 6.34414 7.77279 6.51464 7.83673 6.54661ZM14.1245 5.5555C14.0712 5.59812 14.0819 5.59812 14.0712 5.61943C14.0506 5.66273 14.0397 5.71001 14.0392 5.75797C14.0392 5.77928 14.0499 5.81125 14.0605 5.83256C14.0925 5.85387 14.1351 5.86453 14.1671 5.88577C14.1778 5.89643 14.1778 5.90708 14.1778 5.91774L14.0925 6.25874C14.0819 6.2694 14.0925 6.28005 14.0819 6.29071H14.0499C14.0285 6.28005 14.0285 6.2694 14.0179 6.24809L13.7302 5.78979C13.7195 5.77913 13.7088 5.77913 13.7088 5.75782C13.7088 5.74716 13.7195 5.75782 13.7302 5.74716C13.7409 5.73651 13.7728 5.73651 13.7942 5.72585C13.8048 5.70454 13.8262 5.68323 13.8262 5.66191C13.8474 5.61929 13.8474 5.57666 13.8582 5.53404C13.8582 5.51272 13.8475 5.4701 13.8155 5.44879C13.7729 5.41682 13.304 5.32091 13.304 5.32091C13.2934 5.32091 13.2614 5.32091 13.2507 5.33157C13.2401 5.34222 13.2187 5.37419 13.2081 5.3955C13.1867 5.43813 13.1867 5.48075 13.1761 5.52338C13.1761 5.54469 13.1867 5.56601 13.1975 5.58732C13.1975 5.59797 13.2187 5.60863 13.2294 5.61929C13.2615 5.6406 13.2934 5.62994 13.3147 5.66191C13.3361 5.68323 13.3253 5.69388 13.3147 5.71519L13.1442 6.34399C13.1336 6.36531 13.1229 6.37596 13.1016 6.37596C13.0696 6.38662 13.0377 6.37596 13.0056 6.37596C12.9951 6.37596 12.9737 6.37596 12.9737 6.38662C12.963 6.39727 12.9417 6.40793 12.9417 6.41859C12.9311 6.4399 12.9097 6.48253 12.9097 6.50384C12.8991 6.54639 12.8991 6.58909 12.9097 6.62106C12.9097 6.64237 12.9417 6.66368 12.9524 6.66368C13.0056 6.685 13.0802 6.70631 13.1335 6.72762C13.2293 6.74893 13.3785 6.7809 13.4319 6.79156C13.4426 6.79156 13.4851 6.7809 13.4958 6.77025C13.5172 6.74893 13.5384 6.71704 13.549 6.685C13.5597 6.65303 13.5704 6.6104 13.5704 6.57843C13.5704 6.56778 13.5598 6.53581 13.549 6.52515C13.5383 6.51449 13.5171 6.49318 13.5064 6.49318C13.485 6.48253 13.4638 6.48253 13.4426 6.47187C13.4319 6.46121 13.4319 6.45056 13.4212 6.4399V6.40793C13.4318 6.35465 13.5064 6.08817 13.5277 6.04554C13.5277 6.03489 13.5277 6.03489 13.5383 6.03489L13.5597 6.0562L13.89 6.5677C13.89 6.57836 13.89 6.57836 13.8794 6.58902C13.858 6.59967 13.8366 6.58902 13.8154 6.61033C13.7941 6.62098 13.7728 6.65295 13.7621 6.67427C13.7514 6.71689 13.7301 6.75944 13.7301 6.80214C13.7301 6.82346 13.7514 6.86608 13.7621 6.87666L14.263 7.02593C14.2843 7.02593 14.3056 7.01527 14.3269 7.00461C14.3375 7.00461 14.3589 6.9833 14.3589 6.96199C14.3802 6.91936 14.4016 6.86608 14.4121 6.82346C14.4121 6.80214 14.4016 6.78083 14.3909 6.77017C14.3802 6.74886 14.3483 6.72755 14.3269 6.71696C14.3269 6.71696 14.3056 6.71696 14.3056 6.70631C14.2843 6.69565 14.2843 6.69565 14.2737 6.67434V6.63171L14.4442 6.02423C14.4548 6.01357 14.4548 6.00292 14.4654 5.99226C14.4761 5.9816 14.4868 5.9816 14.508 5.9816C14.5401 5.97095 14.5613 5.9816 14.5933 5.9816C14.604 5.9816 14.6253 5.97095 14.6253 5.97095C14.6466 5.94963 14.668 5.92832 14.6785 5.90701C14.6892 5.87504 14.7106 5.82183 14.7106 5.77913C14.7106 5.75782 14.7106 5.73651 14.6892 5.70461C14.6786 5.68337 14.2097 5.49156 14.1245 5.5555ZM5.58802 5.98182C5.60934 5.99248 5.61999 6.00314 5.61999 6.01379C5.64131 6.07773 5.77984 6.59996 5.79049 6.6639C5.79049 6.67456 5.79049 6.68521 5.76918 6.69587C5.76918 6.69587 5.64131 6.72784 5.64131 6.82375C5.65196 6.91965 5.7159 7.01556 5.7159 7.01556C5.73721 7.02622 5.76918 7.03687 5.77984 7.03687L6.73898 6.79178C6.7603 6.78112 6.79226 6.77047 6.81358 6.74915C6.82423 6.72784 6.83489 6.68521 6.83489 6.65325C6.82423 6.59996 6.74964 6.33356 6.72833 6.26962C6.72833 6.26962 6.70701 6.18437 6.57914 6.21634C6.46192 6.2483 6.46192 6.3229 6.46192 6.3229C6.47257 6.37618 6.49389 6.41881 6.49389 6.47209C6.49389 6.48274 6.49389 6.4934 6.48323 6.50406L6.13157 6.61062C6.12091 6.61062 6.11026 6.59996 6.0996 6.59996C6.08894 6.58931 6.08894 6.58931 6.08894 6.57865L5.90779 5.92854C5.90779 5.91788 5.90779 5.90723 5.91844 5.89657C5.91844 5.89657 6.06763 5.87526 6.05698 5.71541C6.04632 5.54491 5.90779 5.55557 5.90779 5.55557L5.42825 5.68344C5.42825 5.68344 5.38563 5.6941 5.37497 5.74738C5.35366 5.81132 5.40694 5.9392 5.44956 5.97117C5.48146 6.00314 5.58802 5.98182 5.58802 5.98182ZM12.6432 5.51287C12.6752 5.51287 12.6964 5.52353 12.7177 5.54484C12.7284 5.5555 12.7389 5.58746 12.7284 5.60878L12.6111 6.23757C12.6111 6.24823 12.6005 6.26954 12.5898 6.2802C12.5792 6.29086 12.5578 6.29086 12.5365 6.29086L12.025 6.20561C12.0037 6.19495 11.9824 6.18429 11.9718 6.16298C11.9611 6.13101 11.9718 6.1097 11.9718 6.08839L12.0889 5.45959L12.1209 5.42762L12.6432 5.51287ZM7.57025 5.77928C7.59156 5.78994 7.60222 5.81125 7.62353 5.8219C7.63419 5.84322 7.63419 5.86453 7.64485 5.88577C7.64485 5.89643 7.6555 5.90708 7.64485 5.90708C7.61288 5.92839 7.55959 5.93905 7.51697 5.93905H7.49566C7.485 5.92839 7.47434 5.92839 7.47434 5.91774V5.86446C7.485 5.83249 7.49566 5.80052 7.50631 5.77921C7.51697 5.76855 7.52763 5.76855 7.53828 5.76855C7.54894 5.7687 7.55959 5.7687 7.57025 5.77928ZM8.47619 12.8131C8.47619 12.8131 8.50816 12.9517 8.65734 13.0369C8.96638 13.186 11.0766 13.1114 11.311 13.0369C11.5348 12.9622 11.5241 12.8558 11.5241 12.8558C11.5241 12.8558 11.7372 10.3726 11.5561 9.52002C11.4708 8.95516 10.8953 8.49694 10.8953 8.49694C10.8847 8.48628 10.8847 8.46497 10.8847 8.44366C10.8847 8.433 10.9167 8.433 10.9272 8.433C10.9593 8.42235 10.9805 8.433 11.0231 8.44366C11.0445 8.44366 11.0552 8.46497 11.0658 8.47563C11.0871 8.48628 11.0978 8.5076 11.119 8.51825C11.1297 8.52891 11.1617 8.53957 11.1723 8.52891C11.1936 8.52891 11.2149 8.5076 11.2256 8.48628C11.2468 8.47563 11.2468 8.44373 11.2682 8.42242C11.2789 8.40111 11.3002 8.40111 11.3215 8.39045C11.3427 8.36914 11.3747 8.33717 11.3854 8.3052C11.396 8.28389 11.3854 8.25192 11.3854 8.2306C11.3747 8.19864 11.3641 8.17732 11.3427 8.15601C11.3001 8.1028 11.2468 8.0601 11.2149 8.00682C11.2149 7.99616 11.2149 7.97485 11.2255 7.9642C11.2361 7.91091 11.3108 7.7191 11.3534 7.60188L11.4493 7.34613C11.4599 7.32481 11.4599 7.29285 11.4599 7.26088C11.4599 7.23956 11.4599 7.20759 11.4493 7.18628C11.438 7.15433 11.4198 7.12523 11.396 7.10103C11.3699 7.08263 11.3412 7.06827 11.3108 7.05841C11.2255 7.02644 11.1403 6.99447 11.055 6.97316C10.9058 6.94119 10.746 6.91987 10.5967 6.8879C10.4901 6.87725 10.3836 6.86659 10.277 6.86659C10.1384 6.85594 9.9999 6.86659 9.86137 6.86659C9.79743 6.86659 9.72283 6.86659 9.6589 6.87725C9.50142 6.88879 9.34483 6.91014 9.19002 6.94119C9.06214 6.9625 8.92361 7.00512 8.80639 7.04775C8.77442 7.05841 8.74245 7.06906 8.71048 7.0903C8.68917 7.11161 8.66785 7.14358 8.6572 7.1649C8.63589 7.19687 8.62523 7.22883 8.62523 7.2608C8.63589 7.31409 8.6572 7.37802 8.66785 7.44196C8.68917 7.49524 8.72114 7.54853 8.74245 7.60181L8.80639 7.79362C8.8277 7.85756 8.85967 7.93215 8.87033 7.97478C8.87033 7.99609 8.85967 8.02806 8.84901 8.03872C8.81704 8.092 8.76376 8.12397 8.73179 8.17725C8.72201 8.18224 8.71382 8.18988 8.70817 8.19931C8.70251 8.20873 8.69962 8.21955 8.69982 8.23053C8.68917 8.25184 8.69982 8.28381 8.69982 8.30513C8.69982 8.32644 8.71048 8.35841 8.73179 8.36906C8.75311 8.39038 8.78507 8.40103 8.80639 8.41169C8.81704 8.433 8.8277 8.44366 8.84901 8.46497C8.84901 8.47563 8.84901 8.50752 8.85967 8.51825C8.88098 8.52891 8.90229 8.53957 8.92361 8.52891C8.94492 8.52891 8.97689 8.5076 8.9982 8.49694C9.00886 8.48628 9.01951 8.46497 9.04083 8.45431C9.05148 8.45431 9.06214 8.44366 9.0728 8.44366C9.11542 8.433 9.13673 8.44366 9.1687 8.44366C9.17936 8.44366 9.20067 8.46497 9.20067 8.46497C9.21133 8.48628 9.19002 8.48628 9.19002 8.49694C9.19002 8.49694 8.63581 8.93385 8.50794 9.54134C8.38021 10.1487 8.47619 12.8131 8.47619 12.8131ZM10.7141 8.31571C10.7247 8.31571 10.7247 8.32637 10.7355 8.33702V8.3903C10.7248 8.3903 10.7248 8.40096 10.7141 8.40096H9.38198C9.37132 8.40096 9.36066 8.3903 9.36066 8.3903C9.35001 8.36899 9.35001 8.34775 9.35001 8.33702C9.36066 8.32637 9.37132 8.31571 9.38198 8.31571H10.7141ZM9.33935 7.70822C9.35001 7.71888 9.35001 7.72954 9.35001 7.74019L9.36066 8.01733L9.26476 8.18783C9.2541 8.20915 9.26476 8.24112 9.24344 8.26243H9.12622C9.11289 8.24784 9.10531 8.22891 9.10491 8.20915L8.94507 7.72961L8.78522 7.25V7.22869C8.78522 7.22869 9.2541 6.99425 9.9788 6.98359C10.565 6.97294 11.0446 7.10081 11.0446 7.10081L11.2896 7.20738C11.3003 7.21803 11.311 7.22869 11.311 7.23935L10.97 8.26243H10.8527C10.8421 8.26243 10.8421 8.26243 10.8315 8.25177C10.8315 8.23046 10.8315 8.19849 10.8208 8.17718L10.7356 8.08127V7.75092L10.8101 7.58042C10.7994 7.55911 10.7888 7.54845 10.7781 7.54845C10.7355 7.52714 10.7036 7.52714 10.6715 7.52714C10.5224 7.51648 10.3624 7.50583 10.2133 7.50583C10.0321 7.50583 9.85093 7.49517 9.66977 7.50583C9.56321 7.50583 9.39271 7.52714 9.33942 7.5378C9.31811 7.5378 9.2968 7.55911 9.28614 7.58042L9.33935 7.70822ZM8.92375 8.25177C8.92375 8.26243 8.92375 8.26243 8.9131 8.26243C8.9131 8.25177 8.90244 8.25177 8.90244 8.24112C8.90244 8.23046 8.89178 8.23046 8.90244 8.2198C8.9131 8.2198 8.93441 8.20915 8.93441 8.2198C8.94507 8.23046 8.93441 8.25177 8.92375 8.25177ZM11.1936 8.25177C11.1936 8.25177 11.183 8.26243 11.1724 8.26243C11.1617 8.26243 11.1617 8.25177 11.1511 8.24112V8.2198C11.1617 8.2198 11.1724 8.2198 11.1831 8.23046C11.1936 8.23046 11.1936 8.24111 11.1936 8.25177ZM14.1884 13.4205C14.1884 13.3992 14.1778 13.3886 14.1884 13.3673C14.1884 13.3566 14.1884 13.346 14.199 13.3353C14.2311 13.3139 14.263 13.3139 14.2843 13.2927C14.3056 13.282 14.3163 13.2607 14.3269 13.2394V13.1649C14.3163 13.1222 14.3056 13.069 14.2843 13.037C14.2737 13.0263 14.1884 13.0049 14.1778 13.0049L13.6768 13.1435C13.6556 13.1541 13.6449 13.1968 13.6449 13.218C13.6449 13.2608 13.6555 13.3034 13.6768 13.3246C13.6768 13.3566 13.6982 13.3886 13.7195 13.4099C13.7409 13.4205 13.7728 13.4205 13.7941 13.4313C13.8261 13.4313 13.858 13.4206 13.8899 13.4206C13.9006 13.4206 13.9006 13.4313 13.9006 13.442C13.9112 13.4846 13.9858 13.783 13.9965 13.8363C13.9965 13.8469 14.0071 13.8469 13.9965 13.8469C13.9858 13.8575 13.9751 13.8575 13.9645 13.8469L13.4102 13.5592C13.3996 13.5592 13.3996 13.5592 13.3996 13.5486C13.3996 13.5379 13.4102 13.5486 13.4102 13.5379C13.4209 13.5273 13.4423 13.5167 13.4635 13.4953C13.4635 13.474 13.4742 13.4527 13.4742 13.4314C13.4635 13.3781 13.4422 13.3035 13.4209 13.2609C13.4209 13.2503 13.3889 13.2395 13.3783 13.2289H13.3037L12.8773 13.3355C12.8667 13.3462 12.8454 13.3567 12.8347 13.3567L12.7921 13.3994V13.4953C12.8027 13.5379 12.8135 13.5912 12.8347 13.6232C12.8454 13.6338 12.8773 13.6445 12.8987 13.6552H13.0159C13.0265 13.6552 13.0265 13.6552 13.0265 13.6658L13.1863 14.3906C13.1651 14.4118 13.1224 14.4118 13.0904 14.4332C13.0798 14.4438 13.0691 14.4546 13.0584 14.4652V14.5824C13.0691 14.6144 13.0904 14.657 13.101 14.6889C13.1117 14.6996 13.1331 14.7103 13.1437 14.7103C13.1543 14.7209 13.1756 14.7209 13.1863 14.7209L13.6553 14.6144C13.6659 14.6038 13.6873 14.593 13.6979 14.5824C13.7085 14.5824 13.7192 14.5611 13.7192 14.5504V14.4119C13.7085 14.3906 13.6979 14.3587 13.6872 14.3374C13.6766 14.3267 13.6446 14.3054 13.6339 14.3054C13.5913 14.3054 13.538 14.316 13.4954 14.3054C13.4847 14.3054 13.4847 14.2947 13.4742 14.284C13.4635 14.2308 13.3889 13.943 13.3783 13.9004C13.3783 13.8897 13.3783 13.8791 13.3889 13.8791C13.3995 13.8685 13.3995 13.8685 13.4101 13.8791L13.9537 14.1561C13.9749 14.1668 13.9749 14.1775 13.9749 14.1882C13.9856 14.1987 13.9749 14.1987 13.9749 14.1987C13.9644 14.2201 13.9323 14.2308 13.9323 14.2628C13.9217 14.284 13.9217 14.316 13.9323 14.3373C13.9323 14.3799 13.9537 14.4225 13.9749 14.4652C13.9856 14.4758 13.9963 14.4972 14.007 14.4972C14.0417 14.5078 14.0788 14.5078 14.1135 14.4972L14.5504 14.3587C14.561 14.3587 14.5824 14.3373 14.593 14.316C14.6037 14.284 14.593 14.2414 14.593 14.2094C14.5824 14.1774 14.5718 14.1349 14.5504 14.1029C14.5504 14.0923 14.5291 14.0709 14.5184 14.0709C14.4758 14.0602 14.4118 14.0709 14.3691 14.0602C14.3586 14.0602 14.3586 14.0496 14.3479 14.039L14.1884 13.4205ZM5.61999 13.6017V13.6976C5.63065 13.7188 5.63065 13.7508 5.64131 13.7721C5.67327 13.8041 5.70524 13.8466 5.73721 13.8574C5.81181 13.8788 6.33404 14.0279 6.39798 14.0493C6.40864 14.0493 6.40864 14.0598 6.41929 14.0705C6.41929 14.0812 6.42995 14.0919 6.42995 14.1025C6.41929 14.1558 6.40864 14.1983 6.38732 14.2409C6.37667 14.2623 6.37667 14.2836 6.35535 14.2942C6.32338 14.3049 6.31273 14.2942 6.28076 14.2836L5.82246 14.1664C5.80115 14.1558 5.79049 14.1558 5.77984 14.1344C5.76918 14.1238 5.76918 14.1238 5.76918 14.1131C5.76918 14.0704 5.79049 14.0385 5.79049 14.0066C5.79049 13.9852 5.79049 13.9639 5.77984 13.9533C5.77984 13.9319 5.75853 13.9213 5.73721 13.9107C5.70532 13.8904 5.66844 13.8793 5.63065 13.8787C5.60934 13.868 5.57737 13.8787 5.56671 13.8893C5.55605 13.8999 5.53474 13.9213 5.52409 13.9426C5.51343 13.9958 5.48146 14.0811 5.4708 14.1451C5.46015 14.1771 5.44949 14.209 5.46015 14.2516C5.46015 14.2836 5.4708 14.3261 5.48146 14.3475C5.50277 14.3795 5.53467 14.422 5.56671 14.4327L6.29142 14.6351C6.33404 14.6351 6.37667 14.6458 6.41929 14.6351C6.45126 14.6351 6.48323 14.6246 6.5152 14.6032C6.54717 14.5819 6.57914 14.5499 6.58979 14.5179L6.71767 13.9638C6.70701 13.9424 6.69636 13.8998 6.6857 13.8785C6.66439 13.8572 6.63242 13.8253 6.61111 13.8145L5.93968 13.6226C5.92903 13.6226 5.91837 13.6226 5.91837 13.6121C5.90771 13.58 5.90771 13.5588 5.91837 13.5374C5.92903 13.4948 5.93968 13.4735 5.95034 13.4416C5.961 13.431 5.961 13.4202 5.97165 13.4202C5.98231 13.4096 5.99296 13.3989 6.00362 13.4096L6.48316 13.5375C6.50447 13.5375 6.51513 13.5481 6.52578 13.5481C6.54709 13.5588 6.55775 13.5588 6.55775 13.5801C6.56841 13.6121 6.54709 13.6548 6.55775 13.6974C6.55775 13.7186 6.56841 13.74 6.58972 13.7506C6.62169 13.772 6.67497 13.7826 6.7176 13.7934C6.73891 13.7934 6.76022 13.7827 6.77088 13.772C6.78153 13.7613 6.80285 13.74 6.8135 13.7187C6.82416 13.6761 6.84547 13.6228 6.85613 13.5696C6.86679 13.5375 6.87744 13.4949 6.87744 13.4629C6.87744 13.4417 6.86679 13.4097 6.85613 13.3884L6.82416 13.3244L6.78153 13.2818L6.03552 13.0687C6.00355 13.058 5.96092 13.058 5.92895 13.058C5.90764 13.058 5.87567 13.0687 5.85436 13.0687C5.83305 13.0793 5.81173 13.0793 5.80108 13.0899C5.79042 13.1113 5.75845 13.1327 5.7478 13.1539L5.61999 13.6017ZM7.63419 14.9018C7.64485 14.9018 7.67681 14.8913 7.68747 14.8806C7.69813 14.8699 7.71944 14.8486 7.7301 14.8273C7.75141 14.7847 7.75141 14.7421 7.76206 14.7102C7.76206 14.6781 7.75141 14.6462 7.74075 14.6249C7.7301 14.6143 7.70878 14.6035 7.69813 14.5929C7.67681 14.5823 7.64485 14.5823 7.62353 14.5716C7.61288 14.561 7.61288 14.5503 7.61288 14.5397C7.60222 14.529 7.60222 14.529 7.60222 14.5183L7.71944 13.9109C7.7301 13.8789 7.7301 13.8576 7.75141 13.8256C7.76206 13.815 7.77272 13.815 7.79403 13.815C7.84724 13.8256 7.93257 13.8469 7.98585 13.8576C7.9965 13.8576 7.9965 13.8576 7.9965 13.8683C8.00716 13.9002 7.9965 13.9428 7.9965 13.9747V14.0814C8.00716 14.1028 8.02847 14.124 8.03913 14.1347C8.0711 14.1453 8.10307 14.1453 8.13504 14.1453C8.14569 14.1559 8.17766 14.1559 8.19897 14.1453C8.20963 14.1347 8.2416 14.1027 8.2416 14.0813C8.26291 14.028 8.29488 13.9108 8.31619 13.8256C8.32685 13.7829 8.32685 13.7296 8.32685 13.687V13.6337C8.3162 13.6125 8.29488 13.5805 8.28423 13.5805L7.15458 13.3567C7.11195 13.3461 7.07999 13.3567 7.03736 13.3567L7.01605 13.3673C6.99473 13.3887 6.97342 13.41 6.96277 13.442C6.95211 13.4952 6.92014 13.7083 6.89883 13.8256C6.89883 13.8469 6.89883 13.8789 6.90948 13.8895C6.90948 13.9109 6.94145 13.9321 6.95211 13.9321C6.97342 13.9428 7.01605 13.9535 7.04802 13.9535C7.05867 13.9535 7.09064 13.9535 7.1013 13.9428C7.12261 13.9216 7.14392 13.879 7.16524 13.8576L7.19721 13.7297L7.20786 13.7191H7.23983C7.29311 13.7297 7.38902 13.751 7.4423 13.7617C7.45296 13.7617 7.45296 13.7617 7.45296 13.7723L7.33574 14.4117C7.32508 14.4331 7.32508 14.465 7.31443 14.4864C7.31443 14.4971 7.31443 14.497 7.30377 14.497C7.26114 14.5076 7.20786 14.5076 7.16524 14.5183C7.15458 14.5183 7.13327 14.5289 7.13327 14.5289C7.11195 14.5716 7.1013 14.6142 7.09064 14.6461C7.07999 14.678 7.07999 14.7101 7.09064 14.7313C7.09064 14.7527 7.1013 14.7846 7.11195 14.7954L7.63419 14.9018ZM12.7284 13.5591C12.7178 13.5377 12.6964 13.5058 12.6858 13.4951C12.6752 13.4738 12.6432 13.4524 12.6218 13.4419C12.5898 13.4312 12.5473 13.4205 12.5152 13.4098L11.7691 13.5271C11.7265 13.5377 11.6734 13.5591 11.6413 13.5803C11.62 13.591 11.6093 13.6124 11.5986 13.6229C11.5881 13.655 11.5667 13.6869 11.556 13.7188C11.556 13.7721 11.556 13.8361 11.5667 13.8893L11.7052 14.7739C11.7052 14.8165 11.7372 14.8591 11.7691 14.8805C11.7905 14.9018 11.8331 14.9232 11.865 14.9232L12.7922 14.7739C12.8028 14.7739 12.8241 14.7527 12.8241 14.7419C12.8455 14.7205 12.8667 14.6886 12.8667 14.6674C12.8774 14.6248 12.8881 14.5822 12.8774 14.5395L12.7284 13.5591ZM9.4673 15.0404C9.47796 15.0297 9.48861 15.0084 9.48861 14.9871C9.49927 14.9551 9.50993 14.9018 9.49927 14.8592C9.49927 14.838 9.48861 14.806 9.47796 14.7954C9.47796 14.7847 9.45664 14.774 9.43533 14.7634C9.41402 14.7527 9.37139 14.7634 9.35008 14.742C9.31811 14.71 9.30745 14.678 9.2968 14.6461L9.00908 13.9961C8.99842 13.9747 9.00908 13.9747 9.00908 13.9534H9.01973C9.04105 13.9428 9.06236 13.9428 9.08367 13.932C9.09433 13.9215 9.1263 13.9108 9.1263 13.8894C9.14761 13.8575 9.15827 13.7937 9.15827 13.7509C9.15827 13.7296 9.13695 13.687 9.1263 13.6656C9.1263 13.6551 9.09433 13.6337 9.08367 13.6337L8.55085 13.591C8.52954 13.6017 8.50823 13.6337 8.49757 13.6551C8.48692 13.687 8.47626 13.7296 8.47626 13.7615C8.47626 13.7936 8.48692 13.8256 8.49757 13.8574C8.50823 13.8681 8.51888 13.8894 8.5402 13.8894C8.55085 13.9108 8.57217 13.9001 8.58282 13.9215C8.59348 13.932 8.58282 13.932 8.58282 13.9427L8.10329 14.6354C8.10329 14.6354 8.09263 14.6354 8.08197 14.646C8.03935 14.646 7.98607 14.646 7.94344 14.6567C7.92213 14.6673 7.91147 14.71 7.90082 14.7312C7.89016 14.7632 7.8795 14.7952 7.8795 14.8271C7.8795 14.8485 7.90082 14.8911 7.91147 14.9124C7.91147 14.923 7.93279 14.9443 7.9541 14.955L8.47633 14.9976C8.49764 14.9976 8.51896 14.9764 8.51896 14.955C8.54027 14.9124 8.55093 14.8591 8.56158 14.8164C8.56158 14.7952 8.55093 14.7632 8.54027 14.7526C8.52961 14.7312 8.49764 14.71 8.47633 14.6993C8.46568 14.6886 8.44436 14.6993 8.44436 14.6779C8.43371 14.6673 8.43371 14.6567 8.44436 14.6459C8.45502 14.6247 8.46568 14.614 8.48699 14.6033C8.5083 14.5821 8.51896 14.5821 8.55093 14.5821C8.60421 14.5927 8.93456 14.6141 8.97718 14.6247C8.99849 14.6353 8.99849 14.6567 9.00915 14.6779C9.01981 14.6993 9.03046 14.6993 9.01981 14.7205C9.01981 14.7312 9.01981 14.7312 9.00915 14.7312C8.96652 14.7526 8.91324 14.7526 8.88127 14.7632C8.85996 14.7738 8.8493 14.8059 8.8493 14.8164C8.83865 14.8728 8.83865 14.9306 8.8493 14.987C8.8493 15.0083 8.88127 15.0402 8.90259 15.051L9.4673 15.0404ZM11.5241 14.9232C11.5348 14.8806 11.5348 14.8061 11.5241 14.7635C11.5241 14.7421 11.5029 14.6994 11.4815 14.6888C11.4389 14.6676 11.3749 14.6781 11.3322 14.6676V14.6462L11.2684 13.9961C11.2684 13.9747 11.2684 13.9535 11.279 13.9321C11.279 13.9215 11.2896 13.9215 11.3003 13.9109C11.3322 13.9002 11.3748 13.8895 11.4069 13.8789C11.4175 13.8683 11.4389 13.8575 11.4389 13.8469C11.4495 13.8256 11.4601 13.7937 11.4601 13.7616C11.4601 13.7296 11.4495 13.6871 11.4389 13.6445C11.4389 13.6338 11.4282 13.6125 11.4069 13.6018C11.3962 13.5912 11.3643 13.5805 11.3322 13.5805L10.8421 13.6337C10.8315 13.6337 10.8101 13.6551 10.7993 13.6657C10.7888 13.6871 10.7781 13.7297 10.7781 13.7616C10.7888 13.8042 10.7993 13.8575 10.8101 13.8895C10.8101 13.9109 10.8421 13.9215 10.8527 13.9215C10.8953 13.9428 10.9379 13.9321 10.97 13.9535C10.9912 13.9535 10.9912 13.9642 10.9912 13.9855L11.0445 14.6462C11.0445 14.6676 11.0339 14.6782 11.0231 14.6889V14.6995C10.9805 14.7208 10.9379 14.7208 10.906 14.7421C10.8953 14.7421 10.874 14.7741 10.874 14.7848C10.8634 14.8167 10.874 14.8593 10.874 14.8914C10.874 14.9234 10.8634 14.934 10.906 14.9979C10.9486 15.0723 11.5454 14.9871 11.5241 14.9232ZM10.2665 15.0618C10.2771 15.0618 10.2878 15.0511 10.2985 15.0404L10.3411 14.9978C10.3518 14.9765 10.3518 14.9445 10.3518 14.9125C10.3518 14.8805 10.3411 14.8273 10.3304 14.7954C10.3197 14.7847 10.3092 14.774 10.2984 14.7634C10.2558 14.7527 10.2132 14.7527 10.1705 14.742C10.1599 14.7313 10.1599 14.7313 10.1599 14.71L10.1813 13.9746C10.2345 13.964 10.373 13.964 10.4156 13.9746C10.4263 13.9746 10.4263 13.9853 10.4263 14.0066C10.437 14.0598 10.437 14.1452 10.4583 14.1878C10.4689 14.209 10.5009 14.2198 10.5223 14.2304C10.5435 14.241 10.5755 14.2304 10.6075 14.2304C10.6182 14.2304 10.6288 14.2198 10.6395 14.2198L10.6821 14.1771L10.7035 13.7402C10.7035 13.7188 10.6929 13.6976 10.6821 13.6869C10.6714 13.6763 10.6609 13.655 10.6502 13.655L9.44584 13.6336C9.43518 13.6336 9.41387 13.6336 9.40322 13.6443C9.38053 13.6563 9.36197 13.6748 9.34993 13.6975C9.34993 13.7081 9.33928 13.7295 9.33928 13.7402V14.1238C9.33928 14.1452 9.34993 14.1771 9.36059 14.1878C9.37125 14.1984 9.39256 14.2198 9.40322 14.2198C9.44584 14.2304 9.48847 14.2304 9.52044 14.2198C9.54175 14.2091 9.58437 14.1878 9.58437 14.1665C9.60569 14.1239 9.60569 14.0386 9.61634 13.9853V13.9747C9.65897 13.9641 9.71225 13.9641 9.76553 13.9641C9.7975 13.9641 9.82947 13.9641 9.86144 13.9747C9.87209 13.9747 9.8721 13.9747 9.8721 13.9853V14.6141C9.8721 14.6567 9.88275 14.6886 9.86144 14.7206C9.86144 14.7313 9.85078 14.7313 9.84013 14.742C9.7975 14.7634 9.74422 14.7634 9.71225 14.7846C9.69094 14.806 9.68028 14.8591 9.68028 14.8913C9.68028 14.9232 9.69094 14.9765 9.70159 15.0191L9.74422 15.0618H10.2665ZM12.0037 14.6035C11.993 14.6035 11.9398 14.5928 11.9398 14.5822L11.8439 13.9215C11.8332 13.9108 11.8332 13.8894 11.8439 13.8682C11.8439 13.8575 11.8545 13.8362 11.8651 13.8362L12.4299 13.7403H12.4727L12.5047 13.7723L12.6006 14.4437C12.6006 14.4649 12.5899 14.4863 12.5899 14.5076C12.5792 14.5182 12.5792 14.5289 12.5685 14.5289L12.0037 14.6035ZM8.80653 14.1772C8.82785 14.2198 8.84916 14.2731 8.85981 14.3157C8.85981 14.3263 8.87047 14.3477 8.85981 14.3477C8.82785 14.3584 8.77456 14.3584 8.7426 14.3584C8.72128 14.3584 8.69997 14.3584 8.67866 14.3477C8.668 14.3371 8.65734 14.3263 8.65734 14.3157C8.668 14.2944 8.67866 14.2731 8.69997 14.2411C8.71063 14.2305 8.72128 14.2091 8.73194 14.1879C8.74259 14.1772 8.76391 14.1665 8.77456 14.1665C8.78522 14.1666 8.7958 14.1666 8.80653 14.1772Z" fill="white"/>
</svg>
