<svg width="20" height="20" viewBox="0 0 20 20" fill="none" xmlns="http://www.w3.org/2000/svg">
<rect width="20" height="20" rx="4" fill="white"/>
<path fill-rule="evenodd" clip-rule="evenodd" d="M14.3551 7.73087V12.3368C14.3541 12.4821 14.3125 12.6242 14.235 12.747C14.1575 12.8699 14.0471 12.9686 13.9164 13.0321L10.0121 14.9161C9.90672 14.967 9.79125 14.9934 9.67427 14.9934C9.55728 14.9934 9.44181 14.967 9.33647 14.9161L7.02895 13.7997L5.43869 13.0211C5.30734 12.9585 5.19641 12.86 5.11876 12.7369C5.04112 12.6138 4.99994 12.4713 5 12.3258V7.7199C5.00092 7.57546 5.04258 7.43422 5.12018 7.31239C5.19778 7.19057 5.30818 7.0931 5.43869 7.03121L9.34086 5.08137C9.44855 5.02785 9.56717 5 9.68743 5C9.80768 5 9.9263 5.02785 10.034 5.08137L13.9296 7.03998C14.0575 7.1045 14.165 7.20324 14.2401 7.32522C14.3152 7.44719 14.355 7.58761 14.3551 7.73087Z" fill="#FF0211"/>
<path d="M12.9031 9.93771C14.0612 9.93771 15.0001 8.99895 15.0001 7.84093C15.0001 6.6829 14.0612 5.74414 12.9031 5.74414C11.745 5.74414 10.8062 6.6829 10.8062 7.84093C10.8062 8.99895 11.745 9.93771 12.9031 9.93771Z" fill="#4DC9FF"/>
<path d="M6.28762 11.6788L5.87744 11.477V10.2641C5.87744 9.90878 6.07705 9.55346 6.48942 9.59514C6.6585 9.624 6.81784 9.69415 6.95329 9.79937C7.08875 9.90458 7.19613 10.0416 7.2659 10.1983C7.3275 10.1405 7.40211 10.0983 7.48343 10.0754C7.56475 10.0525 7.65039 10.0495 7.73311 10.0667C7.95246 10.0952 8.73991 10.3913 8.73991 11.4682V12.896L8.29025 12.6767V11.3344C8.3041 11.1616 8.25451 10.9897 8.15075 10.8508C8.04699 10.7119 7.89617 10.6156 7.72653 10.5799C7.59273 10.5668 7.47647 10.6742 7.47428 10.9045C7.47209 11.1348 7.47428 12.2666 7.47428 12.2666L7.06191 12.0648V10.7949C7.06191 10.2356 6.69999 10.0623 6.54206 10.0448C6.45213 10.0448 6.28762 10.0908 6.28762 10.3781V11.6788Z" fill="white"/>
</svg>
