<svg width="20" height="20" viewBox="0 0 20 20" fill="none" xmlns="http://www.w3.org/2000/svg">
<rect width="20" height="20" rx="4" fill="#FFCB01"/>
<path d="M4.38545 10.7151C4.38545 10.7041 4.37648 10.6951 4.3655 10.6951H3.67552C3.30245 10.6951 3 10.3921 3 10.0197C3 9.83917 3.05998 9.6564 3.19787 9.51873L6.96726 5.59867C7.23171 5.3343 7.6603 5.3343 7.92475 5.59867L8.80318 6.45219L10.5778 6.44941C10.6957 5.72298 11.6472 5.402 12.2889 5.402C13.3709 5.402 14.2761 6.1573 14.5065 7.16897C14.5105 7.18666 14.5148 7.20418 14.5177 7.2219C14.5195 7.23126 14.5247 7.23924 14.5327 7.24342C15.3106 7.67129 15.8556 8.46976 15.9296 9.40108C15.9306 9.41268 15.9358 9.4226 15.9454 9.4278C15.9511 9.43109 15.9568 9.43474 15.9627 9.43824C16.5841 9.81143 17 10.4917 17 11.2692C17 12.1594 16.4549 12.9221 15.6803 13.2425C15.6732 13.2455 15.668 13.2526 15.668 13.2609V13.9591C15.668 14.3321 15.3654 14.6347 14.9922 14.6347H5.06243C4.68912 14.6347 4.38649 14.3321 4.38649 13.9591L4.38545 10.7151Z" fill="white"/>
<path d="M9.79672 10.5443C10.0366 10.5443 10.2314 10.3499 10.2314 10.1098V8.52822C10.2314 8.28833 10.0366 8.09375 9.79672 8.09375C9.55649 8.09375 9.36206 8.28833 9.36206 8.52822V10.1098C9.36206 10.3498 9.55652 10.5443 9.79672 10.5443Z" fill="#003894"/>
<path d="M13.2181 10.5443C13.4581 10.5443 13.6528 10.3499 13.6528 10.1098V8.52822C13.6528 8.28833 13.4581 8.09375 13.2181 8.09375C12.9781 8.09375 12.7834 8.28833 12.7834 8.52822V10.1098C12.7834 10.3498 12.9781 10.5443 13.2181 10.5443Z" fill="#003894"/>
<path d="M8.40074 11.5459C8.40074 11.5327 8.39001 11.5219 8.37668 11.5219L8.26285 11.5216C8.06212 11.5216 7.89941 11.359 7.89941 11.1583C7.89941 10.9576 8.06209 10.7949 8.26285 10.7949H9.28839C9.48918 10.7949 9.65195 10.9576 9.65195 11.1583C9.65195 11.3589 9.48918 11.5216 9.28839 11.5216L9.22946 11.5219C9.21612 11.5219 9.20536 11.5327 9.20536 11.5459L9.20494 12.84C9.20494 13.0618 9.02493 13.2415 8.80317 13.2415C8.5813 13.2415 8.4014 13.0618 8.4014 12.84L8.40074 11.5459Z" fill="#003894"/>
<path d="M12.0849 8.09375C11.8535 8.09375 11.6659 8.2814 11.6659 8.5128L11.6621 8.82054L11.6619 8.81866C11.6619 8.82335 11.6581 8.82733 11.6531 8.82733C11.65 8.82733 11.6474 8.8258 11.6458 8.82335L11.2716 8.28143V8.28175C11.1961 8.17275 11.07 8.10143 10.9273 8.10143C10.6957 8.10143 10.5083 8.2889 10.5083 8.52045V10.1211C10.5083 10.3525 10.6957 10.5402 10.9273 10.5402C11.1587 10.5402 11.3464 10.3525 11.3464 10.1211L11.3508 9.80674V9.8074C11.3508 9.80256 11.3548 9.79873 11.3595 9.79873C11.3626 9.79873 11.365 9.79996 11.3666 9.80238L11.7329 10.3407C11.8076 10.4561 11.9373 10.5325 12.0849 10.5325C12.3162 10.5325 12.5038 10.3448 12.5038 10.1134V8.5128C12.5039 8.2814 12.3163 8.09375 12.0849 8.09375Z" fill="#003894"/>
<path d="M8.65296 8.09378C8.51857 8.09378 8.39877 8.15487 8.31927 8.2507V8.25001L7.85337 8.77786C7.85337 8.77786 7.84799 8.79017 7.836 8.79017C7.82404 8.79017 7.81384 8.77786 7.81384 8.77786L7.34071 8.25435C7.26127 8.15643 7.14015 8.09375 7.00402 8.09375C6.76478 8.09375 6.5708 8.28782 6.5708 8.52703V10.1228C6.5708 10.354 6.7585 10.5417 6.98979 10.5417C7.22126 10.5417 7.40893 10.354 7.40893 10.1228L7.41919 9.54856C7.41996 9.54231 7.42508 9.53729 7.43163 9.53729C7.43482 9.53729 7.43793 9.53869 7.44024 9.54076L7.81659 9.96154C7.81659 9.96154 7.82631 9.97666 7.83949 9.97666C7.85256 9.97666 7.86207 9.96154 7.86207 9.96154L8.21627 9.53331C8.21854 9.53104 8.22156 9.52982 8.22506 9.52982C8.23206 9.52982 8.23762 9.5352 8.23762 9.54213H8.2378L8.24823 10.1228C8.24823 10.354 8.43575 10.5417 8.66725 10.5417C8.89866 10.5417 9.08642 10.354 9.08642 10.1228V8.52703C9.08639 8.28785 8.89223 8.09378 8.65296 8.09378Z" fill="#003894"/>
<path d="M13.2693 11.7942L13.0531 11.7941C13.046 11.7941 13.0403 11.7887 13.0403 11.7816V11.4257C13.0403 11.4188 13.046 11.4134 13.0531 11.4134L13.2693 11.4136C13.3746 11.4136 13.4598 11.4986 13.4598 11.6038C13.4598 11.7089 13.3745 11.7942 13.2693 11.7942ZM13.2708 10.7953L12.4476 10.7949C12.3088 10.7949 12.1965 10.9074 12.1965 11.0459L12.1982 12.8205C12.1982 13.053 12.3866 13.2415 12.6193 13.2415C12.852 13.2415 13.0406 13.0529 13.0406 12.8205L13.0408 12.409C13.0408 12.402 13.0463 12.3965 13.0534 12.3965L13.2439 12.3966C13.8327 12.3966 14.114 11.9993 14.114 11.604C14.1139 11.1574 13.7363 10.7953 13.2708 10.7953Z" fill="#003894"/>
<path d="M14.9733 10.163C14.9737 10.1632 14.974 10.1632 14.9744 10.1632C15.5494 10.2178 15.9992 10.7049 15.9992 11.2884C15.9992 11.8614 15.5671 12.3342 15.0068 12.4024C14.8126 12.4262 14.6621 12.5852 14.6621 12.7847V13.5981C14.6621 13.6155 14.6481 13.6292 14.631 13.6292H5.42446C5.40739 13.6292 5.39331 13.6155 5.39331 13.5981L5.39262 10.0413C5.39262 9.84482 5.23323 9.68527 5.03665 9.68527H4.48835C4.48468 9.68527 4.48103 9.68389 4.47843 9.68129C4.47287 9.67594 4.47287 9.66707 4.47843 9.66166L7.43807 6.59668C7.44366 6.59127 7.45248 6.59127 7.45777 6.59668L8.3551 7.46009C8.47807 7.58318 8.70763 7.59444 8.84184 7.46009C8.97614 7.32559 8.97512 7.10665 8.84082 6.97251L7.68906 5.85165C7.55458 5.71748 7.33683 5.71748 7.20229 5.85165L3.40177 9.79236C3.35055 9.85399 3.31958 9.93401 3.31958 10.0206C3.31958 10.2172 3.48572 10.3706 3.67561 10.3706H4.6754C4.6925 10.3706 4.7064 10.3845 4.7064 10.4017V13.9595C4.7064 14.1562 4.86579 14.3156 5.06252 14.3156H14.9936C15.1902 14.3156 15.3495 14.1562 15.3495 13.9595V13.0479C15.3495 13.0385 15.3555 13.0312 15.3639 13.0288C16.1214 12.8125 16.6754 12.1152 16.6754 11.2884C16.6754 10.5788 16.2668 9.96477 15.672 9.66811C15.6601 9.66201 15.6481 9.65649 15.6363 9.65057C15.6236 9.64471 15.6149 9.63186 15.6149 9.61691C15.6068 8.67432 15.0522 7.86228 14.252 7.4823C14.2396 7.4762 14.2328 7.46335 14.231 7.44876C14.11 6.48435 13.2865 5.73828 12.2891 5.73828C11.8532 5.73828 11.4503 5.88044 11.125 6.12155C10.9716 6.23507 10.9303 6.44564 11.0395 6.60185C11.1488 6.75805 11.3688 6.8027 11.5201 6.68727C11.7335 6.52425 12.0001 6.42759 12.2891 6.42759C12.7855 6.42759 13.2149 6.71277 13.4232 7.12814C13.5084 7.29863 13.5844 7.54061 13.5844 7.94786C13.5844 7.96274 13.5948 7.97527 13.6088 7.97804C13.6313 7.98274 13.6529 7.9886 13.6749 7.99469C14.3084 8.16653 14.7944 8.7043 14.9019 9.36187C14.9165 9.45141 14.9459 9.69116 14.9459 10.1326C14.9458 10.1486 14.9578 10.1612 14.9733 10.163Z" fill="#003894"/>
<path d="M7.86943 12.4715C7.86943 12.9279 7.50001 13.2978 7.0435 13.2978C6.72461 13.2978 6.48231 13.172 6.29539 12.9718C6.23825 12.9107 6.20605 12.8267 6.20605 12.7364C6.20605 12.5425 6.36323 12.3852 6.55727 12.3852C6.63375 12.3852 6.72939 12.4231 6.77821 12.4491C6.80321 12.4625 6.92776 12.5477 6.97889 12.5477C7.01728 12.5477 7.04837 12.5168 7.04837 12.4785C7.04837 12.4288 6.98029 12.3856 6.94923 12.37C6.59637 12.1936 6.27219 11.9537 6.27219 11.5149C6.27219 11.0762 6.58752 10.7305 7.08554 10.7305C7.35336 10.7305 7.58839 10.8511 7.75639 11.0339C7.80727 11.0893 7.83711 11.1623 7.83711 11.2432C7.83711 11.4147 7.69797 11.5538 7.52638 11.5538C7.40867 11.5538 7.25186 11.4567 7.23781 11.4491C7.19649 11.4264 7.17897 11.4054 7.13798 11.4054C7.09702 11.4054 7.06401 11.4384 7.06401 11.4793C7.06401 11.5345 7.12949 11.58 7.28415 11.6557C7.70999 11.8641 7.86943 12.165 7.86943 12.4715Z" fill="#003894"/>
<path d="M10.7545 12.5089C10.48 12.5089 10.2577 12.2866 10.2577 12.0121C10.2577 11.7378 10.48 11.5155 10.7545 11.5155C11.0288 11.5155 11.2514 11.7378 11.2514 12.0121C11.2514 12.2866 11.0288 12.5089 10.7545 12.5089ZM10.7549 10.7344C10.0582 10.7344 9.49341 11.3067 9.49341 12.0121C9.49341 12.7179 10.0582 13.2899 10.7549 13.2899C11.4516 13.2899 12.0165 12.7179 12.0165 12.0121C12.0165 11.3067 11.4517 10.7344 10.7549 10.7344Z" fill="#003894"/>
</svg>
