<svg xmlns="http://www.w3.org/2000/svg" width="52" height="52" fill="none" viewBox="0 0 52 52"><g clip-path="url(#a)"><path fill="#0060aa" d="M0 52h52V0H0z"/><path fill="#fff" d="M9.906 11.248H5.631v21.064h4.275zm18.507-.495H18.002c-1.003 0-2.486 1.125-2.486 2.713v15.442c0 1.26 1.144 3.37 3.102 3.37h9.997v-1.779h-7.092c-1.256 0-1.855-.606-1.855-1.37v-5.762c0-.602-.256-1.59.498-1.59h6.238v-1.591h-6.086c-.805 0-.65-.577-.65-1.068v-4.855c0-.549-.018-1.494 1.04-1.494h7.705zm18.358 3.511s-2.316-3.95-7.546-3.95c-4.272 0-9.856 4.004-9.856 11.41 0 8.062 6.335 11.024 10.159 11.024 5.833 0 7.947-5.43 7.947-5.43l-1.007-.934s-2.68 4.802-6.677 4.802c-2.464 0-6.4-2.442-6.4-9.462 0-7.792 3.334-9.765 6.4-9.765 3.773 0 5.923 3.401 5.923 3.401zm-2.723 29.218c1.627 0 2.947-1.378 2.947-3.08s-1.32-3.085-2.947-3.085c-1.63 0-2.948 1.382-2.948 3.085 0 1.702 1.317 3.08 2.948 3.08m-38.417-1.02v.89l35.3.015a4.6 4.6 0 0 1-.647-.89zm34.156-2.634H5.631v1.014h34.14c-.014-.148-.042-.289-.042-.44 0-.199.032-.386.057-.574M5.63 37.436v.906h34.628s.022-.029.058-.072c.173-.3.371-.585.61-.834z"/></g><defs><clipPath id="a"><rect width="52" height="52" fill="#fff" rx="8"/></clipPath></defs></svg>