<svg xmlns="http://www.w3.org/2000/svg" width="52" height="52" fill="none" viewBox="0 0 52 52"><rect width="52" height="52" fill="#0063ad" rx="8"/><path fill="#fff" d="M25.94 7.223c10.329.01 18.693 8.425 18.683 18.795s-8.39 18.77-18.718 18.76c-10.316-.01-18.675-8.405-18.683-18.764C7.212 15.645 15.574 7.233 25.9 7.223zm-6.286 28.42a18.66 18.66 0 0 1 12.538-.003l.583-2.202c.27 0 .516-.006.764.002q.385-.03.765.045a27 27 0 0 1-.665 2.709c.69.382 1.377.73 2.03 1.132s1.27.854 1.9 1.284c7.582-6.977 7.11-18.843-.029-25.235a19.4 19.4 0 0 1-3.91 2.4c.264.941.517 1.844.683 2.775h-1.552c-.095-.376-.18-.734-.276-1.09a8 8 0 0 0-.324-1.092 18.62 18.62 0 0 1-12.507-.006l-.585 2.208c-.27 0-.517.002-.765 0-.252-.002-.505-.006-.806-.01l.705-2.793a19 19 0 0 1-3.898-2.398c-7.534 6.899-7.217 18.764 0 25.256a19.6 19.6 0 0 1 3.918-2.404 27 27 0 0 1-.694-2.773h1.548zm12.001-20.74a2 2 0 0 0-.038-.182 14.8 14.8 0 0 0-1.933-3.602 6.9 6.9 0 0 0-1.93-1.816 3.34 3.34 0 0 0-3.489-.096c-.7.395-1.318.922-1.818 1.553a13.3 13.3 0 0 0-1.946 3.295c-.114.266-.219.536-.34.836a17 17 0 0 0 11.494.012M20.18 37.098c.026.09.037.142.056.19a15 15 0 0 0 1.763 3.365 7.8 7.8 0 0 0 1.727 1.8c1.402 1.027 2.923 1.04 4.339.039a7 7 0 0 0 1.303-1.218 14 14 0 0 0 2.256-4.01q.023-.084.03-.17a17.04 17.04 0 0 0-11.474.004m10.118 5.524a16.4 16.4 0 0 0 6.048-2.954 16.5 16.5 0 0 0-3.18-1.947c-.43.878-.824 1.735-1.262 2.568a13.6 13.6 0 0 1-1.606 2.333m-8.731.007a12.8 12.8 0 0 1-1.614-2.321c-.446-.84-.84-1.708-1.269-2.589-1.13.528-2.2 1.18-3.183 1.949a16.5 16.5 0 0 0 6.066 2.96m11.542-28.355c.826-.28 2.9-1.571 3.19-1.982a16.4 16.4 0 0 0-6.014-2.922c1.26 1.45 2.124 3.117 2.824 4.904M21.535 9.382a16.3 16.3 0 0 0-6.017 2.935c.64.598 2.623 1.793 3.229 1.944a16.8 16.8 0 0 1 2.788-4.88"/><path fill="#fff" d="M40.428 26.017a5.65 5.65 0 0 1-.564 2.524 4.4 4.4 0 0 1-2.307 2.1 6.8 6.8 0 0 1-2.275.479 7.3 7.3 0 0 1-2.694-.293c-1.886-.607-3.015-1.883-3.303-3.872a6.3 6.3 0 0 1 .169-2.711 4.39 4.39 0 0 1 2.68-2.912 7.4 7.4 0 0 1 3.51-.432 6 6 0 0 1 1.979.48 4.45 4.45 0 0 1 2.71 3.599c.05.343.065.692.095 1.038m-3.704 0c-.03-.465-.045-.933-.097-1.396a4 4 0 0 0-.414-1.496c-.26-.52-.798-.84-1.377-.82a1.51 1.51 0 0 0-1.415.815 3.5 3.5 0 0 0-.368 1.174A11.6 11.6 0 0 0 33 27.346c.036.466.147.924.329 1.354a1.615 1.615 0 0 0 2.944.063q.151-.325.232-.675c.147-.681.22-1.375.22-2.071m-10.442-1.578c-.065-.179-.114-.322-.166-.464-.355-.959-1.07-1.446-2.057-1.552a2.7 2.7 0 0 0-1.127.06 1.4 1.4 0 0 0-.629.39c-.351.39-.313.83.133 1.103.26.154.542.271.834.348.614.17 1.242.292 1.86.458.716.174 1.4.46 2.027.85a2.48 2.48 0 0 1 1.162 1.937 2.94 2.94 0 0 1-.623 2.259 3.3 3.3 0 0 1-1.463.993 6 6 0 0 1-2.366.302 7.1 7.1 0 0 1-2.715-.704c-.037-.018-.079-.029-.142-.05l-.361.51h-1.277v-3.545q.331-.051.667-.027c.215-.006.43-.001.674-.001.045.117.084.226.128.333.445 1.063 1.191 1.776 2.343 1.998.382.088.78.08 1.158-.026.206-.06.4-.16.57-.292a.74.74 0 0 0 0-1.203 3.4 3.4 0 0 0-.914-.479c-.633-.221-1.285-.383-1.923-.587a13 13 0 0 1-1.312-.475c-.814-.363-1.41-.954-1.59-1.852-.29-1.434.311-2.681 1.62-3.375a4.3 4.3 0 0 1 1.808-.473 7 7 0 0 1 3.476.632c.04.019.08.032.151.06l.265-.445h1.344v3.309l-.758.008zm-8.052 5.049v1.333h-5.679v-1.333c.176 0 .347.003.516-.001q.178 0 .355-.03a.386.386 0 0 0 .344-.34q.04-.209.05-.419.005-2.707 0-5.416c-.001-.639-.152-.784-.789-.795-.15-.002-.301 0-.476 0V21.16h5.64a4.2 4.2 0 0 1 .018 1.305q-.117.014-.245.023c-.084.006-.173 0-.26.002-.58.021-.717.146-.717.72a949 949 0 0 0 0 5.546c.002.593.14.72.735.732.16.002.32 0 .508 0"/></svg>