<svg width="40" height="40" viewBox="0 0 40 40" fill="none" xmlns="http://www.w3.org/2000/svg">
<rect x="0.5" y="0.5" width="39" height="39" rx="7.5" fill="white"/>
<rect x="0.5" y="0.5" width="39" height="39" rx="7.5" stroke="#8D8D8D"/>
<path d="M10 29.7188L19.3398 10.4511C19.4821 10.1487 19.8913 10.1131 20.087 10.38L29.0887 22.5846C31.2769 25.5379 29.1599 29.7188 25.4951 29.7366C24.0364 29.7366 22.6665 29.025 21.8304 27.833L20.2649 25.6091C19.7312 24.8619 18.7171 24.6306 17.9166 25.0932L10.0178 29.7188H10Z" fill="url(#paint0_linear_3981_9414)"/>
<path d="M29.0887 22.6024L20.087 10.38C19.8913 10.1131 19.4821 10.1487 19.3398 10.4511L10 29.7188L21.6347 22.9049C22.4352 22.4423 23.6094 22.6558 24.1431 23.4208L25.7086 25.6447C26.5447 26.8367 27.879 27.5483 29.3556 27.5483C30.2273 26.0895 30.2807 24.168 29.1065 22.6024H29.0887Z" fill="url(#paint1_linear_3981_9414)"/>
<defs>
<linearGradient id="paint0_linear_3981_9414" x1="23.556" y1="19.7736" x2="19.0373" y2="21.3569" gradientUnits="userSpaceOnUse">
<stop stop-color="#EE3123"/>
<stop offset="1" stop-color="#9E1B0D"/>
</linearGradient>
<linearGradient id="paint1_linear_3981_9414" x1="14.9812" y1="20.0049" x2="29.4093" y2="27.352" gradientUnits="userSpaceOnUse">
<stop stop-color="#9E1B0D"/>
<stop offset="0.4" stop-color="#EE3123"/>
</linearGradient>
</defs>
</svg>
