<svg width="120" height="40" viewBox="0 0 120 40" fill="none" xmlns="http://www.w3.org/2000/svg">
<g clip-path="url(#clip0_3981_9174)">
<path d="M39.079 16.5646C39.1312 21.2799 43.3595 22.8459 43.3943 22.8633C43.3595 22.9677 42.7157 25.1079 41.167 27.3003C39.8272 29.1968 38.4352 31.0934 36.2428 31.1282C34.0852 31.163 33.3892 29.8928 30.9357 29.8928C28.4649 29.8928 27.6993 31.0934 25.6635 31.163C23.5407 31.2326 21.9399 29.1098 20.5826 27.2133C17.816 23.3505 15.7106 16.2862 18.5468 11.5187C19.9562 9.15228 22.4793 7.6559 25.2111 7.6037C27.2817 7.56891 29.2479 8.96089 30.5181 8.96089C31.7884 8.96089 34.1722 7.29051 36.6778 7.5341C37.7218 7.5689 40.6798 7.9517 42.5591 10.6313C42.4025 10.7183 39.0442 12.6148 39.079 16.5646ZM35.0248 4.97634C36.1558 3.65395 36.904 1.82698 36.6952 0C35.077 0.0695991 33.1108 1.04399 31.9624 2.36637C30.9183 3.53216 30.0135 5.39393 30.2571 7.18611C32.0668 7.32531 33.9112 6.29872 35.0248 4.97634ZM51.3028 2.71698C52.1304 2.57952 53.0634 2.45894 54.067 2.33853C55.0706 2.21812 56.1796 2.16662 57.3767 2.16662C59.1021 2.16662 60.5809 2.37298 61.831 2.76865C63.081 3.1812 64.102 3.74878 64.9118 4.52255C65.5984 5.19331 66.1443 6.00153 66.5316 6.91293C66.9189 7.84156 67.1126 8.90782 67.1126 10.1115C67.1126 11.5733 66.8485 12.8459 66.3204 13.9464C65.7923 15.047 65.0703 15.9586 64.1549 16.698C63.2395 17.4375 62.1478 17.9879 60.8802 18.3662C59.6126 18.7272 58.2394 18.9165 56.743 18.9165C55.3875 18.9165 54.2607 18.8133 53.3451 18.6242V30.7308H51.3206V2.71698H51.3028ZM53.3275 16.8527C53.8204 16.9904 54.3663 17.0935 54.9649 17.145C55.5634 17.1966 56.2147 17.2312 56.9015 17.2312C59.4894 17.2312 61.4788 16.6465 62.9049 15.4599C64.3308 14.2906 65.035 12.5536 65.035 10.2834C65.035 9.18291 64.8415 8.23723 64.4718 7.42884C64.102 6.62044 63.5739 5.94985 62.8873 5.43412C62.2007 4.9184 61.3732 4.52255 60.4402 4.26469C59.4894 4.00665 58.4506 3.86919 57.2886 3.86919C56.3734 3.86919 55.581 3.90347 54.912 3.97237C54.2429 4.04127 53.7148 4.12723 53.3275 4.19596V16.8527ZM83.2039 25.9326C83.2039 26.741 83.2215 27.5665 83.2391 28.3747C83.2744 29.1831 83.3623 29.9741 83.5032 30.7306H81.6019L81.3026 27.8762H81.2146C80.9504 28.2717 80.6334 28.6674 80.2285 29.0455C79.8102 29.4564 79.3432 29.8146 78.8377 30.1119C78.3096 30.4385 77.711 30.6965 77.0244 30.8856C76.3554 31.0748 75.6159 31.178 74.8061 31.178C73.8026 31.178 72.9223 31.0231 72.1653 30.6965C71.4082 30.3699 70.7745 29.957 70.2991 29.4411C69.8062 28.9252 69.4364 28.3234 69.2076 27.6526C68.9612 26.982 68.8378 26.3112 68.8378 25.6407C68.8378 23.2503 69.859 21.4273 71.9189 20.1376C73.9787 18.848 77.0596 18.2289 81.1968 18.2804V17.73C81.1968 17.1969 81.1441 16.595 81.0385 15.9072C80.9329 15.2194 80.7216 14.5657 80.3694 13.9468C80.0173 13.3279 79.5067 12.8116 78.8201 12.3989C78.1335 11.9862 77.2005 11.7628 76.021 11.7628C75.1231 11.7628 74.2427 11.9002 73.3801 12.1583C72.5297 12.4065 71.7223 12.7835 70.9859 13.276L70.3344 11.797C71.2497 11.178 72.2006 10.748 73.1689 10.4729C74.1371 10.2149 75.1583 10.0774 76.2322 10.0774C77.6757 10.0774 78.8377 10.3182 79.7356 10.7995C80.6334 11.2808 81.3553 11.9002 81.8659 12.6569C82.3764 13.4137 82.7286 14.2563 82.9222 15.202C83.1159 16.1477 83.2039 17.0765 83.2039 18.0051V25.9326ZM81.1792 19.9311C80.0877 19.8966 78.9433 19.9483 77.7638 20.0515C76.5666 20.1717 75.4751 20.4125 74.4717 20.791C73.4682 21.1694 72.6406 21.7196 71.9716 22.4589C71.3203 23.1812 70.9857 24.1615 70.9857 25.3652C70.9857 26.7927 71.4084 27.8416 72.2357 28.5123C73.0631 29.1831 73.9963 29.5269 75.0351 29.5269C75.8625 29.5269 76.6195 29.4065 77.271 29.1831C77.9225 28.9597 78.5033 28.65 78.9962 28.2715C79.4892 27.8931 79.8941 27.4633 80.2285 26.9818C80.5629 26.5004 80.8097 26.0188 80.9856 25.5029C81.1265 24.9354 81.1968 24.5398 81.1968 24.2819L81.1792 19.9311ZM87.1475 10.5415L92.394 23.6627C92.6755 24.3851 92.9572 25.1416 93.2214 25.9156C93.4855 26.6895 93.7143 27.3946 93.908 28.0479H93.996C94.1897 27.4288 94.4185 26.7412 94.6826 25.9673C94.9468 25.1933 95.2285 24.4023 95.5453 23.5939L100.457 10.5587H102.605L96.6193 25.3652C96.0207 26.9302 95.4396 28.3576 94.9115 29.6301C94.3834 30.9025 93.8375 32.0549 93.2919 33.0867C92.7462 34.1185 92.2003 35.0129 91.6369 35.8039C91.0735 36.5949 90.4572 37.2829 89.7708 37.8675C88.9609 38.5725 88.2214 39.0884 87.5524 39.398C86.8834 39.7247 86.4257 39.9311 86.1969 40L85.5101 38.3662C86.0208 38.1426 86.6018 37.8503 87.2355 37.4892C87.8693 37.1282 88.4856 36.6465 89.0841 36.0617C89.5947 35.5631 90.1757 34.8925 90.7918 34.0669C91.4079 33.2412 91.9538 32.244 92.4467 31.0574C92.6228 30.6102 92.7109 30.3179 92.7109 30.1804C92.7109 29.9913 92.6228 29.6818 92.4467 29.3035L84.9998 10.593H87.1477L87.1475 10.5415Z" fill="#010101"/>
</g>
<defs>
<clipPath id="clip0_3981_9174">
<rect width="120" height="40" fill="white"/>
</clipPath>
</defs>
</svg>
