<svg width="40" height="40" viewBox="0 0 40 40" fill="none" xmlns="http://www.w3.org/2000/svg">
<rect width="40" height="40" rx="8" fill="#010101"/>
<path d="M25.6352 19.0303C25.6687 22.0563 28.3822 23.0613 28.4045 23.0725C28.3822 23.1395 27.969 24.5129 26.9752 25.9199C26.1153 27.137 25.222 28.3542 23.815 28.3765C22.4304 28.3988 21.9837 27.5837 20.4092 27.5837C18.8235 27.5837 18.3322 28.3542 17.0257 28.3988C15.6634 28.4435 14.6361 27.0812 13.7651 25.8641C11.9896 23.3851 10.6384 18.8516 12.4586 15.792C13.3631 14.2734 14.9822 13.3131 16.7354 13.2796C18.0642 13.2573 19.326 14.1506 20.1412 14.1506C20.9564 14.1506 22.4862 13.0786 24.0942 13.2349C24.7642 13.2573 26.6625 13.5029 27.8685 15.2225C27.768 15.2784 25.6128 16.4955 25.6352 19.0303ZM23.0333 11.5935C23.7592 10.7448 24.2393 9.57237 24.1053 8.3999C23.0669 8.44457 21.805 9.06988 21.068 9.91853C20.398 10.6667 19.8174 11.8615 19.9737 13.0116C21.135 13.1009 22.3187 12.4421 23.0333 11.5935Z" fill="white"/>
</svg>
