<svg width="153" height="40" viewBox="0 0 153 40" fill="none" xmlns="http://www.w3.org/2000/svg">
<g clip-path="url(#clip0_4707_11239)">
<path d="M0 39.996L19.1383 0.514221C19.4299 -0.10553 20.2684 -0.178442 20.6694 0.368397L39.1151 25.3772C43.5989 31.4289 39.2609 39.996 31.7514 40.0325C28.7621 40.0325 25.9552 38.5742 24.2419 36.1317L21.0339 31.5747C19.9403 30.0435 17.8624 29.5696 16.222 30.5175L0.0364561 39.996H0Z" fill="url(#paint0_linear_4707_11239)"/>
<path d="M39.1151 25.4136L20.6694 0.368397C20.2684 -0.178442 19.4299 -0.10553 19.1383 0.514221L0 39.996L23.8409 26.0334C25.4813 25.0855 27.8873 25.523 28.9809 27.0906L32.1888 31.6476C33.9021 34.0901 36.6362 35.5484 39.6619 35.5484C41.4481 32.559 41.5575 28.6217 39.1515 25.4136H39.1151Z" fill="url(#paint1_linear_4707_11239)"/>
<path d="M98.5938 28.116C99.979 24.3975 102.02 19.2572 103.369 16.2314L102.932 15.1741C103.515 15.0283 104.208 14.9554 104.9 14.9189C106.723 19.1478 108.473 23.7048 110.004 28.116H108.072L106.942 24.8714H101.51C101.109 25.9651 100.672 27.1681 100.38 28.116H98.5938ZM106.468 23.4861C105.702 21.4081 105.046 19.6582 104.317 17.7261C103.624 19.4395 102.822 21.481 102.057 23.4861H106.504H106.468Z" fill="#221E1F"/>
<path d="M113.03 28.1162H111.243V16.2316C110.988 15.6848 110.697 14.9192 110.551 14.4453C111.243 14.1536 112.191 13.8984 112.993 13.7891V28.1162H113.03Z" fill="#221E1F"/>
<path d="M117.845 19.7675V28.0795H116.058V19.7675H114.236C114.236 19.6217 114.199 19.3665 114.199 19.2571C114.199 19.1478 114.199 18.8926 114.236 18.7467C114.746 18.6374 115.329 18.5645 116.058 18.4916V17.2885C116.058 14.9918 117.225 13.7158 119.339 13.7158C121.454 13.7158 121.089 13.8981 122.219 14.2627C122.146 14.5908 121.855 15.3563 121.636 15.8303C120.214 15.3199 119.193 15.0647 118.464 15.0647C118.063 15.5022 117.845 16.4136 117.845 17.4343V18.4551H121.016V19.804H117.845V19.7675Z" fill="#221E1F"/>
<path d="M126.958 27.0587C125.937 27.8242 124.697 28.3346 123.75 28.3346C122.109 28.3346 121.016 27.2045 121.016 25.6004C121.016 23.9964 122.364 22.7569 124.369 22.6475L126.666 22.5017V21.8455C126.666 20.3508 126.046 19.6216 124.734 19.6216C123.422 19.6216 123.021 19.8768 122.146 20.3143C121.963 19.9862 121.781 19.5123 121.708 19.1477C122.838 18.4915 124.041 18.127 125.244 18.127C127.249 18.127 128.343 19.33 128.343 21.5538V25.965L129.436 27.4232C128.963 27.7149 128.088 28.1159 127.504 28.2617L126.958 27.0587ZM126.63 25.965V23.7412C125.755 23.7412 123.859 23.887 123.13 23.9599C122.911 24.3245 122.765 24.7984 122.765 25.2723C122.765 26.2931 123.276 26.8764 124.187 26.8764C125.098 26.8764 125.828 26.5483 126.63 26.0014V25.965Z" fill="#221E1F"/>
<path d="M132.752 28.1162H130.966V16.2316C130.711 15.6848 130.419 14.9192 130.273 14.4453C130.966 14.1536 131.914 13.8984 132.716 13.7891V28.1162H132.752Z" fill="#221E1F"/>
<path d="M140.481 27.0587C139.46 27.8242 138.221 28.3346 137.273 28.3346C135.633 28.3346 134.539 27.2045 134.539 25.6004C134.539 23.9964 135.888 22.7569 137.893 22.6475L140.189 22.5017V21.8455C140.189 20.3508 139.57 19.6216 138.257 19.6216C136.945 19.6216 136.544 19.8768 135.669 20.3143C135.487 19.9862 135.305 19.5123 135.232 19.1477C136.362 18.4915 137.565 18.127 138.768 18.127C140.773 18.127 141.866 19.33 141.866 21.5538V25.965L142.96 27.4232C142.486 27.7149 141.611 28.1159 141.028 28.2617L140.481 27.0587ZM140.153 25.965V23.7412C139.278 23.7412 137.382 23.887 136.653 23.9599C136.435 24.3245 136.289 24.7984 136.289 25.2723C136.289 26.2931 136.799 26.8764 137.711 26.8764C138.622 26.8764 139.351 26.5483 140.153 26.0014V25.965Z" fill="#221E1F"/>
<path d="M146.315 19.7675C147.664 18.7467 149.012 18.127 149.96 18.127C151.418 18.127 152.439 19.4759 152.439 21.3716V28.0795H150.653V21.9913C150.653 20.8247 150.252 19.9133 149.632 19.5852C148.575 19.7675 147.19 20.3508 146.315 21.007V28.043H144.529V16.1584C144.273 15.6115 143.982 14.846 143.836 14.372C144.529 14.0804 145.476 13.8252 146.278 13.7158V19.6946L146.315 19.7675Z" fill="#221E1F"/>
<path d="M87.4048 21.6991C87.1861 21.4075 87.1861 21.2617 87.4413 21.0065C88.5349 20.0586 89.5921 19.0743 90.6857 18.1265C90.9044 17.9077 90.9044 17.7984 90.6857 17.6161C90.3941 17.3609 90.1024 17.1057 89.7744 16.887C89.5192 16.6682 89.3369 16.6682 89.0453 16.9234C87.3319 18.6368 85.6915 20.3867 84.0511 22.3189V21.7356C84.0511 19.0379 84.0511 16.3037 84.0511 13.6059C84.0511 13.0591 84.0511 12.5122 84.0511 11.9654C84.0511 11.7102 83.9782 11.6738 83.7595 11.7102C83.1762 11.7831 82.6294 11.929 82.0826 12.1112C80.989 12.4758 81.1348 12.33 81.5358 13.2778C81.9003 14.1892 82.0097 15.0642 82.0097 16.0485C82.0097 19.8399 82.0097 23.6678 82.0097 27.4592C82.0097 27.5685 82.0097 27.6779 82.0097 27.7873C82.0097 28.006 82.0826 28.0789 82.3013 28.0789C82.7752 28.0789 83.2856 28.0789 83.7595 28.0789C84.0511 28.0789 84.0875 27.9696 84.0875 27.7144C84.0875 26.6936 84.0875 25.6364 84.0875 24.6156C84.0875 24.4698 84.0511 24.2875 84.1969 24.1781C84.7073 23.7042 85.2541 23.2303 85.7644 22.7564C86.8945 24.3604 88.0975 26.0739 89.3004 27.7508C89.3734 27.8602 89.4463 28.0789 89.6285 28.0789C90.467 28.0789 91.269 28.0789 92.1803 28.0789C90.5399 25.8916 88.9724 23.7771 87.4048 21.6991Z" fill="#000201"/>
<path d="M78.4012 17.8712C77.8544 17.0691 77.1253 16.6317 76.1411 16.6681C75.4485 16.6681 74.7923 16.9233 74.1726 17.215C73.4435 17.5431 72.7873 17.9805 72.0582 18.4545C72.0582 17.9441 72.0582 17.5066 72.0582 17.0691C72.0582 16.7775 71.9853 16.7046 71.6937 16.7775C71.1104 16.8869 70.5636 16.9962 70.0168 17.215C69.1055 17.5431 69.2148 17.4702 69.5429 18.2357C69.9804 19.22 70.0897 20.2044 70.0533 21.2251C70.0168 23.3396 70.0533 25.4905 70.0533 27.6049C70.0533 28.0059 70.1262 28.1517 70.5272 28.1153C70.8917 28.0788 71.2563 28.1153 71.6208 28.1153C72.0218 28.1517 72.1312 28.0059 72.1312 27.6049C72.1312 25.1988 72.1312 22.7927 72.1312 20.3866C72.1312 20.0585 72.2405 19.9127 72.4957 19.7304C73.3341 19.22 74.1726 18.819 75.1204 18.5638C75.9953 18.3086 76.3234 18.4545 76.6879 19.3294C76.9795 19.9856 77.016 20.7147 77.016 21.4074C77.016 23.4854 77.016 25.5998 77.016 27.6778C77.016 28.0059 77.1253 28.1153 77.4534 28.1153C77.8909 28.1153 78.3283 28.1153 78.7658 28.1153C79.0209 28.1153 79.1303 28.0424 79.1303 27.7507C79.1303 25.2353 79.1303 22.6834 79.1303 20.1679C79.1303 19.3659 78.9116 18.5638 78.4741 17.8712H78.4012Z" fill="#000201"/>
<path d="M55.2517 20.9337C54.8143 20.6421 54.3768 20.4233 53.8665 20.2046C54.5955 19.5849 55.1423 18.8922 55.434 18.0173C56.1631 16.0486 55.3611 14.1165 53.4655 13.4238C52.9187 13.2051 52.3354 13.0957 51.7886 13.0957C49.8565 13.0957 47.9609 13.0957 46.0289 13.0957C45.7372 13.0957 45.6643 13.1322 45.7372 13.4603C46.2476 15.0279 46.2476 16.6319 46.2476 18.2724C46.2476 21.4077 46.2476 24.5429 46.2476 27.6416C46.2476 28.0062 46.3205 28.1156 46.685 28.0791C48.2526 28.0791 49.8565 28.0791 51.424 28.0791C52.4812 28.0791 53.5384 27.8604 54.5226 27.4229C57.038 26.2928 57.2202 22.3555 55.2517 20.9337ZM48.3255 19.3297C48.3255 18.637 48.3255 17.9079 48.3255 17.2152C48.3255 16.4132 48.3255 15.6476 48.3255 14.8456C48.3255 14.6633 48.3255 14.5539 48.5806 14.5539C49.5284 14.5904 50.4398 14.5539 51.3876 14.6633C53.1009 14.882 53.8665 16.1215 53.429 17.835C53.429 17.9808 53.3561 18.1266 53.3197 18.236C52.8458 19.6942 52.7364 19.7671 51.2418 19.7671C49.7472 19.7671 49.6014 19.7671 48.7629 19.7671C48.3619 19.7671 48.3255 19.6578 48.3255 19.2932V19.3297ZM54.4133 24.397C54.4133 24.5793 54.3768 24.7616 54.3404 24.9074C54.1216 26.074 53.7571 26.4021 52.5906 26.4386C51.2418 26.475 49.9294 26.4386 48.5806 26.2563C48.3619 26.2563 48.3255 26.1469 48.3255 25.9646C48.3255 25.1991 48.3255 24.4335 48.3255 23.7044C48.3255 22.9753 48.3255 22.2461 48.3255 21.517C48.3255 21.4077 48.2526 21.1889 48.5077 21.1889C49.7836 21.2254 51.0595 21.0796 52.2989 21.3347C53.9394 21.6629 54.4862 22.8294 54.3768 24.3606L54.4133 24.397Z" fill="#000201"/>
<path d="M67.2074 26.1833C66.8793 25.8187 66.7699 25.4177 66.7699 24.9073C66.7699 23.1939 66.8428 21.444 66.697 19.7306C66.5512 17.8713 65.3117 16.7412 63.4891 16.6318C62.2861 16.5954 61.1195 16.8141 60.0259 17.3245C58.9323 17.8349 59.0417 17.5797 59.4427 18.7827C59.552 19.0744 59.6614 19.1108 59.953 18.965C60.7186 18.6004 61.557 18.3817 62.3954 18.3453C63.5984 18.2723 64.4004 18.8192 64.6191 19.8764C64.7285 20.3503 64.7285 20.7878 64.7285 21.2617C64.7285 21.5169 64.6191 21.5898 64.4004 21.5898C63.7442 21.5898 63.1245 21.6627 62.4683 21.6992C61.557 21.7721 60.6456 21.9179 59.8437 22.3919C58.422 23.2303 57.8751 24.9073 58.4949 26.402C59.0417 27.7873 60.5727 28.5165 62.1038 28.1884C63.1974 27.9696 64.1452 27.4592 65.0566 26.8395C65.2388 27.204 65.4211 27.5686 65.5669 27.8967C65.6763 28.1519 65.7856 28.1884 66.0044 28.079C66.4418 27.8967 66.8793 27.7509 67.2803 27.5322C67.9729 27.204 67.9364 27.204 67.499 26.6208C67.3896 26.4385 67.2438 26.2562 67.1344 26.1104L67.2074 26.1833ZM63.7078 26.1833C63.2703 26.3291 62.7964 26.5114 62.3225 26.5843C61.0466 26.7666 60.2447 26.001 60.354 24.725C60.354 24.6157 60.354 24.5063 60.3905 24.3969C60.4998 23.4855 60.6821 23.3397 61.5934 23.2668C62.5048 23.2303 63.3797 23.1574 64.291 23.0845C64.6556 23.0845 64.8378 23.0845 64.7649 23.522C64.7285 23.7772 64.7649 24.0688 64.7649 24.324C64.7649 24.5792 64.7649 24.4699 64.7649 24.5792C64.9472 25.4906 64.4733 25.9281 63.7078 26.1833Z" fill="#000201"/>
</g>
<defs>
<linearGradient id="paint0_linear_4707_11239" x1="27.7779" y1="19.6171" x2="18.5185" y2="22.8614" gradientUnits="userSpaceOnUse">
<stop stop-color="#EE3123"/>
<stop offset="1" stop-color="#9E1B0D"/>
</linearGradient>
<linearGradient id="paint1_linear_4707_11239" x1="10.2071" y1="20.0911" x2="39.7719" y2="35.146" gradientUnits="userSpaceOnUse">
<stop stop-color="#9E1B0D"/>
<stop offset="0.4" stop-color="#EE3123"/>
</linearGradient>
<clipPath id="clip0_4707_11239">
<rect width="152.512" height="40" fill="white"/>
</clipPath>
</defs>
</svg>
