<svg width="40" height="40" viewBox="0 0 40 40" fill="none" xmlns="http://www.w3.org/2000/svg">
<rect width="40" height="40" rx="8" fill="url(#paint0_linear_3981_7469)"/>
<path d="M31.2293 20.4224C31.4217 20.8643 31.6126 21.3065 31.8078 21.7472C31.8327 21.8034 31.828 21.8408 31.7934 21.89C31.2757 22.6279 30.7591 23.367 30.2452 24.1075C30.2069 24.1629 30.1681 24.1818 30.102 24.1813C29.6383 24.1783 29.1747 24.1797 28.7076 24.1797C28.7048 24.1399 28.7339 24.1194 28.7507 24.0952C29.2594 23.3651 29.7679 22.6353 30.2802 21.9077C30.3249 21.8441 30.3297 21.7973 30.2982 21.7263C29.7114 20.395 29.1276 19.0625 28.5434 17.7302C28.5354 17.7118 28.5276 17.6933 28.5195 17.6746C28.5432 17.6557 28.5673 17.664 28.5891 17.664C29.0382 17.6633 29.4873 17.6647 29.9362 17.6621C29.9946 17.6619 30.0218 17.6777 30.046 17.7333C30.3141 18.3508 30.5859 18.9665 30.8569 19.5828C30.8687 19.6098 30.882 19.6358 30.8945 19.6625C30.9174 19.6727 30.9307 19.6916 30.9399 19.7136C31.0313 19.9317 31.1318 20.146 31.2232 20.364C31.231 20.3827 31.2392 20.4021 31.2298 20.4229L31.2293 20.4224Z" fill="white"/>
<path d="M12.5532 19.8742C12.5532 20.5818 12.552 21.2897 12.5551 21.9974C12.5554 22.0702 12.5386 22.0906 12.464 22.0896C12.1065 22.0856 11.749 22.0868 11.3917 22.0889C11.3363 22.0891 11.3162 22.0783 11.3164 22.0175C11.3183 20.5901 11.3181 19.163 11.3166 17.7356C11.3166 17.6789 11.3299 17.6609 11.3893 17.6614C11.7527 17.6642 12.1162 17.6647 12.4794 17.6611C12.5457 17.6604 12.5546 17.6839 12.5546 17.742C12.5528 18.4528 12.5535 19.1635 12.5535 19.8742H12.5532Z" fill="white"/>
<path d="M31.2298 20.4224C31.1181 20.1689 31.0065 19.9156 30.8945 19.6621C31.0365 19.4636 31.1801 19.2659 31.3204 19.0663C31.6356 18.6179 31.9491 18.1685 32.2629 17.7191C32.2854 17.6869 32.3053 17.6619 32.3528 17.6621C32.8873 17.664 33.4219 17.6633 33.9564 17.6635C33.967 17.6635 33.9777 17.6659 34.0018 17.669C33.8987 17.8177 33.8024 17.9573 33.7051 18.0963C33.1793 18.8468 32.6524 19.5968 32.1283 20.3484C32.0895 20.404 32.0488 20.422 31.9827 20.4213C31.7319 20.4184 31.4809 20.4215 31.2298 20.4224Z" stroke="white"/>
<path d="M17.9972 20.0495C17.9972 19.8846 18.0012 19.7198 17.9818 19.5549C17.9049 18.9052 17.6108 18.3825 17.0713 18.0058C16.669 17.7245 16.214 17.5926 15.7278 17.5663C14.8899 17.5209 14.1777 17.7979 13.6188 18.4263C13.1484 18.9551 12.9898 19.5814 13.1077 20.2749C13.2174 20.9215 13.54 21.434 14.1093 21.7753C14.6088 22.0749 15.1566 22.1594 15.7282 22.0974C16.1127 22.0558 16.4712 21.9378 16.7824 21.6497C16.7824 21.7795 16.7824 21.89 16.7824 22.0004C16.7824 22.6684 16.3811 23.1523 15.7197 23.2445C14.9713 23.349 14.3364 22.8999 14.2915 22.1457C14.2886 22.0986 14.2721 22.0877 14.2281 22.0877C13.8795 22.0891 13.5307 22.0894 13.1822 22.0877C13.1344 22.0877 13.1174 22.0967 13.119 22.1502C13.123 22.2743 13.1349 22.3973 13.1573 22.5189C13.2693 23.127 13.5693 23.6165 14.1112 23.9278C14.8312 24.341 15.6028 24.3973 16.3853 24.1518C17.3611 23.8457 18.0135 23.0148 17.9993 21.9607C17.9908 21.3238 17.9981 20.6866 17.9974 20.0497L17.9972 20.0495ZM15.573 21.0267C14.8908 21.0426 14.3279 20.5438 14.309 19.9068C14.2879 19.1975 14.7834 18.6685 15.4843 18.6521C16.2303 18.6349 16.7424 19.1058 16.762 19.8269C16.78 20.4858 16.2599 21.0109 15.573 21.0267Z" fill="white"/>
<path d="M22.6999 18.145C21.7875 17.3653 20.2984 17.3627 19.3694 18.1323C18.8484 18.5641 18.5311 19.1098 18.5256 19.7945C18.5143 21.2308 18.5226 22.6672 18.5209 24.1037C18.5209 24.1664 18.5389 24.1823 18.6002 24.1818C18.9518 24.1789 19.3034 24.1782 19.655 24.1823C19.7317 24.1832 19.7577 24.1685 19.7575 24.0841C19.7537 23.3407 19.7554 22.5976 19.7554 21.8543C19.7554 21.8226 19.7554 21.7909 19.7554 21.7469C20.3384 22.1175 20.9574 22.197 21.6045 22.0515C22.6443 21.8178 23.4305 20.9226 23.4455 19.8796C23.4552 19.1923 23.2301 18.5984 22.7001 18.1453L22.6999 18.145ZM20.9803 21.0267C20.2868 21.0243 19.7511 20.5005 19.7554 19.829C19.7599 19.1455 20.2851 18.6498 21.0023 18.6521C21.707 18.6545 22.2124 19.1521 22.211 19.8425C22.2096 20.5234 21.684 21.0291 20.9803 21.0267Z" fill="white"/>
<path d="M10.9054 19.4968C10.8223 18.8889 10.5592 18.383 10.0599 18.0126C9.67921 17.7302 9.2443 17.5943 8.77556 17.5671C8.21264 17.5342 7.68213 17.6224 7.23445 18.0271V17.9173C7.23445 17.239 7.2335 16.5609 7.2361 15.8826C7.23634 15.8173 7.22167 15.7994 7.15447 15.8001C6.80001 15.8039 6.44532 15.8041 6.09086 15.7998C6.01491 15.7989 6 15.8216 6 15.8935C6.00237 17.1614 6.00142 18.4296 6.00189 19.6976C6.00189 19.8066 6.00142 19.9159 6.0097 20.0244C6.06034 20.6959 6.33931 21.2495 6.89277 21.6431C7.50396 22.0778 8.19347 22.1928 8.92321 22.0714C10.023 21.8886 11.0954 20.8851 10.9054 19.4968ZM8.31628 21.0149C7.81086 20.9567 7.45048 20.6885 7.29431 20.1992C7.0513 19.4374 7.57282 18.6479 8.46629 18.6515C9.0621 18.6515 9.52257 18.984 9.65247 19.5299C9.8607 20.4045 9.19296 21.1159 8.31604 21.0147L8.31628 21.0149Z" fill="white"/>
<path d="M28.6715 19.8087C28.6592 18.9965 28.322 18.3544 27.6185 17.9237C27.2487 17.6974 26.8398 17.5905 26.4094 17.5666C25.575 17.5202 24.8638 17.792 24.3039 18.4152C23.8264 18.9469 23.6646 19.5776 23.7836 20.2789C23.8764 20.8255 24.1274 21.2843 24.5687 21.6289C24.9142 21.8988 25.3115 22.0461 25.7457 22.0937C26.3639 22.1613 26.9458 22.0797 27.4585 21.6533C27.4585 21.7765 27.4619 21.8851 27.4571 21.9934C27.4545 22.0539 27.4706 22.0731 27.5343 22.0726C27.889 22.0693 28.2437 22.0693 28.5983 22.0726C28.6615 22.0733 28.6752 22.0558 28.6752 21.9946C28.6729 21.2659 28.6823 20.5372 28.6715 19.8087ZM26.2113 21.0268C25.5164 21.026 24.9804 20.506 24.9828 19.8345C24.9852 19.1522 25.5064 18.6515 26.2142 18.6519C26.9259 18.6524 27.4351 19.1427 27.4356 19.8281C27.4361 20.5209 26.9188 21.027 26.2116 21.0265L26.2113 21.0268Z" fill="white"/>
<defs>
<linearGradient id="paint0_linear_3981_7469" x1="0" y1="0" x2="40" y2="40" gradientUnits="userSpaceOnUse">
<stop stop-color="#5A7FE8"/>
<stop offset="1" stop-color="#19F2E0"/>
</linearGradient>
</defs>
</svg>
