<svg width="132" height="40" viewBox="0 0 132 40" fill="none" xmlns="http://www.w3.org/2000/svg">
<g clip-path="url(#clip0_3981_7458)">
<path d="M118.699 21.76C119.604 23.8397 120.502 25.9216 121.421 27.9957C121.538 28.2606 121.515 28.4365 121.353 28.6681C118.917 32.1416 116.487 35.6207 114.069 39.1065C113.888 39.367 113.706 39.456 113.395 39.4538C111.213 39.4393 109.032 39.446 106.834 39.446C106.821 39.259 106.958 39.1621 107.037 39.0486C109.431 35.6118 111.823 32.1761 114.233 28.7516C114.444 28.4521 114.466 28.2317 114.318 27.8977C111.557 21.6309 108.81 15.3585 106.062 9.08725C106.024 9.00041 105.987 8.91357 105.949 8.82562C106.061 8.73655 106.174 8.77552 106.277 8.77552C108.39 8.77218 110.503 8.77886 112.615 8.76661C112.89 8.7655 113.018 8.84009 113.131 9.10172C114.393 12.0086 115.672 14.9065 116.946 17.8078C117.002 17.9347 117.064 18.0572 117.123 18.183C117.231 18.2308 117.294 18.3199 117.337 18.4234C117.767 19.4499 118.24 20.4586 118.67 21.485C118.707 21.573 118.746 21.6643 118.701 21.7622L118.699 21.76Z" fill="#00465A"/>
<path d="M30.8271 19.18C30.8271 22.511 30.8215 25.8431 30.836 29.1741C30.8371 29.517 30.7581 29.6128 30.4074 29.6083C28.7252 29.5894 27.0429 29.595 25.3619 29.605C25.1013 29.6061 25.0067 29.5549 25.0078 29.2688C25.0167 22.55 25.0156 15.8323 25.0089 9.11346C25.0089 8.84627 25.0713 8.76166 25.3507 8.76388C27.0608 8.77724 28.7708 8.77947 30.4797 8.76277C30.7915 8.75943 30.8338 8.86965 30.8338 9.14352C30.8249 12.489 30.8282 15.8345 30.8282 19.18H30.8271Z" fill="#00465A"/>
<path d="M118.699 21.76C118.173 20.5665 117.648 19.3742 117.121 18.1807C117.789 17.2467 118.465 16.3159 119.125 15.3763C120.608 13.2655 122.083 11.1502 123.559 9.03492C123.665 8.88351 123.759 8.7655 123.982 8.76661C126.497 8.77552 129.012 8.77218 131.527 8.77329C131.577 8.77329 131.627 8.78442 131.741 8.7989C131.256 9.49917 130.803 10.156 130.345 10.8106C127.871 14.3432 125.392 17.8735 122.926 21.4115C122.743 21.6732 122.552 21.7578 122.241 21.7544C121.061 21.7411 119.88 21.7556 118.699 21.76Z" fill="#5BCEDD"/>
<path d="M56.4506 20.0012C56.4506 19.2252 56.4695 18.4492 56.3782 17.6733C56.0164 14.615 54.6326 12.1546 52.0942 10.3811C50.2016 9.05738 48.0607 8.43615 45.7729 8.31257C41.8307 8.09882 38.4796 9.4025 35.85 12.3606C33.6367 14.8499 32.8908 17.7979 33.4452 21.0622C33.9618 24.1059 35.4793 26.5185 38.1579 28.125C40.5081 29.5355 43.0854 29.933 45.7751 29.6413C47.5842 29.4454 49.2709 28.8898 50.7349 27.5338C50.7349 28.145 50.7349 28.6649 50.7349 29.1849C50.7349 32.3288 48.8467 34.6067 45.735 35.0408C42.2136 35.5329 39.2266 33.4188 39.0151 29.8684C39.0018 29.6469 38.9238 29.5957 38.7167 29.5957C37.0768 29.6023 35.4358 29.6035 33.7959 29.5957C33.571 29.5957 33.4909 29.638 33.4987 29.8896C33.5176 30.4741 33.5733 31.053 33.679 31.6252C34.2056 34.4875 35.6173 36.7921 38.1668 38.2572C41.5546 40.2021 45.1851 40.4671 48.8668 39.3115C53.458 37.8709 56.5274 33.9598 56.4606 28.9978C56.4206 25.9997 56.4551 23.0004 56.4517 20.0023L56.4506 20.0012ZM45.0448 24.6014C41.8351 24.676 39.1866 22.328 39.0975 19.3299C38.9984 15.9911 41.3297 13.5006 44.6273 13.4238C48.1375 13.3425 50.5467 15.5591 50.6391 18.9536C50.7238 22.0552 48.2767 24.5268 45.0448 24.6014Z" fill="#00465A"/>
<path d="M78.567 11.0376C74.2741 7.36699 67.2681 7.35475 62.8972 10.9774C60.4457 13.0103 58.9528 15.5787 58.9272 18.8018C58.8737 25.5629 58.9127 32.324 58.9049 39.0862C58.9049 39.3812 58.9895 39.4558 59.2779 39.4536C60.9323 39.4403 62.5866 39.4369 64.241 39.4558C64.6017 39.4603 64.7242 39.3913 64.7231 38.9938C64.7052 35.4947 64.713 31.9967 64.713 28.4976C64.713 28.3484 64.713 28.1992 64.713 27.9921C67.4562 29.7367 70.3686 30.1107 73.4135 29.4261C78.3054 28.3261 82.0049 24.1122 82.0751 19.2026C82.1207 15.9673 81.0619 13.1718 78.5681 11.0387L78.567 11.0376ZM70.4766 24.6021C67.2135 24.591 64.693 22.125 64.713 18.9643C64.7342 15.7469 67.2057 13.4134 70.5802 13.4245C73.8956 13.4356 76.2736 15.778 76.2669 19.0278C76.2603 22.233 73.7876 24.6132 70.4766 24.6021Z" fill="#00465A"/>
<path d="M23.08 17.4022C22.6892 14.541 21.4512 12.1597 19.1021 10.4162C17.3108 9.08694 15.2645 8.44679 13.0591 8.31876C10.4105 8.16401 7.9145 8.57927 5.80812 10.4841V9.96757C5.80812 6.7746 5.80367 3.58275 5.81591 0.38979C5.81703 0.0825174 5.748 -0.00209396 5.43182 0.00124596C3.76409 0.0190589 2.09524 0.0201722 0.42751 0.00013265C0.0701383 -0.00432058 0 0.102557 0 0.441002C0.0111331 6.40944 0.00667984 12.379 0.00890645 18.3474C0.00890645 18.8607 0.00667984 19.375 0.0456456 19.886C0.283893 23.0467 1.59648 25.6529 4.20051 27.5055C7.07618 29.5517 10.3204 30.0928 13.7538 29.5217C18.9284 28.6611 23.9739 23.9373 23.08 17.4022ZM10.8982 24.5485C8.52014 24.2747 6.82457 23.0122 6.08979 20.7088C4.94642 17.1228 7.40015 13.4066 11.604 13.4233C14.4073 13.4233 16.5738 14.9886 17.185 17.5581C18.1647 21.6751 15.023 25.0239 10.897 24.5474L10.8982 24.5485Z" fill="#00465A"/>
<path d="M106.67 18.868C106.612 15.0449 105.026 12.0223 101.716 9.99492C99.9758 8.92949 98.052 8.42627 96.0269 8.31383C92.1014 8.09562 88.7548 9.37481 86.1207 12.3084C83.8741 14.8111 83.1125 17.7803 83.6725 21.0812C84.109 23.6541 85.2902 25.8139 87.3665 27.436C88.9919 28.7063 90.8612 29.3999 92.9041 29.6236C95.8132 29.942 98.5508 29.5579 100.963 27.5507C100.963 28.1307 100.979 28.6417 100.957 29.1516C100.944 29.4366 101.02 29.5268 101.32 29.5246C102.988 29.509 104.657 29.509 106.326 29.5246C106.623 29.5279 106.688 29.4455 106.688 29.1572C106.677 25.7271 106.721 22.297 106.67 18.868ZM95.0951 24.6015C91.8253 24.5982 89.3036 22.15 89.3148 18.9893C89.3259 15.7774 91.7785 13.4206 95.1084 13.4228C98.4573 13.425 100.853 15.7329 100.855 18.9593C100.858 22.2201 98.4239 24.6026 95.0962 24.6004L95.0951 24.6015Z" fill="#00465A"/>
</g>
<defs>
<clipPath id="clip0_3981_7458">
<rect width="131.74" height="40" fill="white"/>
</clipPath>
</defs>
</svg>
