<svg width="40" height="40" viewBox="0 0 40 40" fill="none" xmlns="http://www.w3.org/2000/svg">
<rect width="40" height="40" rx="8" fill="#108DE8"/>
<path fill-rule="evenodd" clip-rule="evenodd" d="M19.2419 10.0363C15.9322 10.3515 13.2529 12.1016 11.6271 14.8056C10.5736 16.5639 10.0759 18.6375 10.2252 20.7775C10.6068 26.0029 15.0944 30.4238 20.8346 29.9676C25.9941 29.5529 30.2412 24.9163 29.8098 19.2181C29.6522 17.128 28.9223 15.411 27.761 13.8517C27.2301 13.1467 27.1305 13.1384 26.5831 12.5661C25.8946 11.8528 24.4512 11.0316 23.5305 10.6667C22.3028 10.1773 20.7268 9.89532 19.2419 10.0363Z" fill="white"/>
<path fill-rule="evenodd" clip-rule="evenodd" d="M14.3337 17.0861C14.2093 17.4511 14.2839 21.4738 14.2839 22.2203C14.2839 23.0249 14.1263 23.282 15.3872 23.7133C18.7384 24.8579 22.0481 20.9762 25.3744 22.8921C25.5237 22.9834 25.7145 23.1659 25.756 22.8756L25.7643 17.6916C25.7643 17.1359 25.8141 16.9617 25.4408 16.7046C22.4629 14.631 19.2444 18.181 16.225 17.7828C15.1051 17.6336 14.6406 17.0612 14.3337 17.0861Z" fill="#108DE8"/>
</svg>
