<svg width="138" height="40" viewBox="0 0 138 40" fill="none" xmlns="http://www.w3.org/2000/svg">
<g clip-path="url(#clip0_3981_9329)">
<path fill-rule="evenodd" clip-rule="evenodd" d="M18.0899 0.0667871C11.4702 0.697231 6.11145 4.19785 2.85969 9.6064C0.752683 13.1236 -0.242755 17.2713 0.0558763 21.5516C0.819045 32.0037 9.79457 40.8465 21.2753 39.9341C31.5947 39.1045 40.0891 29.8304 39.2263 18.4326C38.9111 14.2518 37.4511 10.8175 35.1285 7.69848C34.0667 6.28827 33.8676 6.27168 32.7726 5.12693C31.3956 3.70013 28.5088 2.05766 26.6672 1.32767C24.2118 0.348828 21.0596 -0.215254 18.0899 0.0667871Z" fill="#108DE8"/>
<path fill-rule="evenodd" clip-rule="evenodd" d="M8.26897 14.1686C8.02011 14.8986 8.16942 22.945 8.16942 24.4382C8.16942 26.0475 7.8542 26.5618 10.376 27.4245C17.0786 29.714 23.6983 21.9496 30.3511 25.782C30.6497 25.9645 31.0313 26.3295 31.1143 25.7488L31.1309 15.3797C31.1309 14.2681 31.2304 13.9197 30.4838 13.4054C24.5278 9.25777 18.0906 16.3586 12.0516 15.5622C9.8119 15.2636 8.88282 14.1188 8.26897 14.1686Z" fill="white"/>
<path fill-rule="evenodd" clip-rule="evenodd" d="M54.2402 30.1288C56.8449 30.3113 59.881 28.3038 60.9594 27.1425C64.6757 23.111 64.7586 17.2877 61.0258 13.0736C59.6321 11.5141 56.3638 9.7721 54.2734 10.021H46.7578V30.1122L54.2402 30.1288ZM50.9884 25.7821C51.5359 25.8816 53.8088 25.8484 54.4393 25.7821C59.5658 25.3175 61.3907 18.2997 57.0772 15.3466C56.3472 14.8654 55.5508 14.4672 54.5056 14.3511C53.9416 14.3013 51.4861 14.2516 50.9884 14.3511V25.7821Z" fill="#108DE8"/>
<path fill-rule="evenodd" clip-rule="evenodd" d="M120.071 30.1791L124.352 30.1625V25.8324L132.846 25.849L132.863 30.1625H137.143C137.143 27.7569 137.143 25.3844 137.143 22.9954C137.143 20.8386 137.325 18.1509 136.794 16.2098C135.899 12.9083 132.763 9.97174 128.632 9.95515C124.451 9.93856 121.415 12.8585 120.453 16.1103C119.889 18.0348 120.071 20.8054 120.071 22.9124C120.071 25.3347 120.055 27.7569 120.071 30.1791ZM124.352 21.4856H132.863C132.879 19.6275 133.078 17.8191 132.249 16.4089C131.651 15.3803 130.391 14.3185 128.632 14.3185C126.824 14.3019 125.629 15.3305 124.982 16.3757C124.136 17.7693 124.335 19.6773 124.352 21.4856Z" fill="#108DE8"/>
<path fill-rule="evenodd" clip-rule="evenodd" d="M71.1823 30.1618H75.4295C75.4461 29.2659 75.3134 26.4953 75.4793 25.8317L83.9239 25.8483L83.9571 30.1618L88.2209 30.1784C88.2043 27.7728 88.2209 25.3837 88.2209 22.9947C88.2209 20.9374 88.42 18.0175 87.8725 16.1925C85.4337 7.9304 74.0691 7.88063 71.5473 16.1096C70.9667 17.9843 71.1658 20.8379 71.1658 22.9117C71.1658 25.3174 71.116 27.7728 71.1823 30.1618ZM75.4461 21.4849H83.9571C83.9737 19.66 84.1728 17.8184 83.3433 16.4082C81.8003 13.8035 77.9181 13.4219 76.0766 16.3916C75.2305 17.7355 75.413 19.7097 75.4461 21.4849Z" fill="#108DE8"/>
<path fill-rule="evenodd" clip-rule="evenodd" d="M95.7181 17.8689L95.6684 20.8552C95.6684 23.377 95.5356 28.0721 95.6684 30.1128H99.8492C99.9487 28.686 99.6999 18.4827 99.9653 18.1509C99.9653 16.16 102.039 14.3185 104.13 14.3185C105.407 14.3019 106.353 14.8328 107.033 15.4466C107.564 15.9444 108.377 17.0393 108.36 18.1675C108.559 18.267 108.41 28.9182 108.46 30.1128H112.657L112.624 17.9186C112.724 16.973 112.143 15.4964 111.778 14.7498C108.675 8.4454 99.7994 8.36244 96.614 14.6337C96.2324 15.3637 95.6352 16.89 95.7181 17.8689Z" fill="#108DE8"/>
<path fill-rule="evenodd" clip-rule="evenodd" d="M54.242 30.1289L46.7596 30.1123V10.0211H54.2752C54.1425 9.82201 51.0068 9.93814 50.5755 9.93814C49.4805 9.93814 47.7551 9.8386 46.7265 9.95474C46.6435 10.27 46.5937 29.6644 46.7265 30.1787C47.4233 30.2617 52.2511 30.1953 53.7609 30.1953L54.1922 30.1621C54.1922 30.1621 54.2254 30.1455 54.242 30.1289Z" fill="#79BBE7"/>
<path fill-rule="evenodd" clip-rule="evenodd" d="M108.359 18.1668C108.409 19.8093 108.276 29.5978 108.425 30.1784L112.689 30.195C112.805 29.7305 112.722 22.0988 112.722 20.9375C112.722 20.39 112.871 18.2166 112.623 17.918L112.656 30.1121H108.458C108.409 28.9176 108.558 18.2664 108.359 18.1668Z" fill="#79BBE7"/>
<path fill-rule="evenodd" clip-rule="evenodd" d="M99.9663 18.1502C99.7009 18.482 99.9497 28.6853 99.8502 30.112H95.6693C95.5366 28.0714 95.6693 23.3763 95.6693 20.8545L95.7191 17.8682C95.4868 17.9677 95.5864 23.3099 95.5864 23.9735C95.5864 24.9524 95.4703 29.6309 95.6362 30.1784L99.9 30.195L99.9663 18.1502Z" fill="#79BBE7"/>
</g>
<defs>
<clipPath id="clip0_3981_9329">
<rect width="137.188" height="40" fill="white"/>
</clipPath>
</defs>
</svg>
