<svg width="40" height="40" viewBox="0 0 40 40" fill="none" xmlns="http://www.w3.org/2000/svg">
<rect x="0.5" y="0.5" width="39" height="39" rx="7.5" fill="white"/>
<rect x="0.5" y="0.5" width="39" height="39" rx="7.5" stroke="#8D8D8D"/>
<path d="M20.3958 10C24.8752 10 28.5049 13.0037 28.5049 16.7147C28.5049 20.4257 24.8752 22.6778 20.3958 22.6778C15.9791 22.5885 12.9038 21.149 11.1602 18.3593C12.0992 13.0664 15.1833 10.2856 20.3958 10ZM20.0916 14.1753C17.5168 14.4343 15.9429 15.6598 15.3619 17.85C16.1489 18.5388 17.7219 18.9226 20.0916 19.0031C22.4701 18.9677 23.9087 18.27 23.9361 16.6608C23.7841 14.8817 22.059 14.1036 20.0916 14.1753Z" fill="black"/>
<path d="M10.8208 20.1211C12.1436 23.9294 15.8095 26.0489 19.5736 26.0489C22.694 26.0489 24.7684 24.6987 25.8498 22.6606L29.3459 24.8507C28.1302 27.8367 24.5093 30.0004 20.2447 30.0004C14.9695 30.0004 10.4547 26.4512 10.8217 20.2732V20.1211H10.8208Z" fill="#00C252"/>
</svg>
