<svg width="191" height="40" viewBox="0 0 191 40" fill="none" xmlns="http://www.w3.org/2000/svg">
<g clip-path="url(#clip0_3981_7964)">
<path d="M69.9775 31.6518C73.6202 36.1654 77.0859 36.0755 79.8933 34.8505C82.4639 33.7152 83.8078 30.6962 83.359 27.3179C83.2991 27.3479 83.1795 27.3478 83.1795 27.4077C81.5364 31.4148 77.385 31.9812 74.1288 31.0854C71.2316 30.307 69.7381 28.2161 69.2893 25.3468C69.1397 24.3014 69.05 23.2235 69.05 22.1482C69.02 17.8143 69.05 13.5103 69.05 9.08658H74.2161C74.246 9.47581 74.2759 9.89248 74.2759 10.3117V20.8907C74.2759 21.6392 74.3357 22.3852 74.4554 23.1337C74.8743 25.9431 76.6046 27.0484 79.4121 26.3024C81.6835 25.7036 83.2044 23.6128 83.3565 20.5339C83.5061 17.2454 83.4762 13.9594 83.5061 10.6709V9.05664H88.5226C88.5824 9.23628 88.6123 9.41593 88.6423 9.62551C88.6423 16.0528 88.7919 22.4775 88.5824 28.9048C88.3131 36.4972 81.8605 41.128 74.3956 39.3665C71.9173 38.7677 69.6459 37.7821 67.8532 35.8984C67.3146 35.3295 67.2249 34.9128 67.7934 34.2841C68.5688 33.5056 69.1971 32.6099 69.9725 31.6543L69.9775 31.6518Z" fill="black"/>
<path d="M38.8579 9.32681V12.6153C37.2447 10.2849 34.9459 8.82031 32.3778 8.82031C27.5682 8.82031 23.6562 13.9901 23.6562 20.3574C23.6562 26.7248 27.5682 31.8945 32.3778 31.8945C34.9459 31.8945 37.2447 30.4299 38.8579 28.0996V31.8945H44.1137V9.3293H38.8579V9.32681ZM33.8688 27.1415C31.0314 27.1415 28.7027 24.0925 28.7027 20.3275C28.7027 16.5625 31.0015 13.511 33.8688 13.511C36.7361 13.511 39.0349 16.56 39.0349 20.3275C39.0349 24.095 36.7361 27.1415 33.8688 27.1415Z" fill="black"/>
<path d="M130.432 9.32681V12.6153C128.849 10.2849 126.52 8.82031 123.952 8.82031C119.142 8.82031 115.23 13.9901 115.23 20.3574C115.23 26.7248 119.145 31.8945 123.952 31.8945C126.52 31.8945 128.821 30.4299 130.432 28.0996V31.8945H135.688V9.3293H130.432V9.32681ZM125.473 27.1415C122.636 27.1415 120.307 24.0925 120.307 20.3275C120.307 16.5625 122.606 13.511 125.473 13.511C128.34 13.511 130.639 16.56 130.639 20.3275C130.639 24.095 128.31 27.1415 125.473 27.1415Z" fill="black"/>
<path d="M185.388 9.32681V12.6153C183.804 10.2849 181.473 8.82031 178.905 8.82031C174.096 8.82031 170.184 13.9901 170.184 20.3574C170.184 26.7248 174.096 31.8945 178.905 31.8945C181.473 31.8945 183.775 30.4299 185.388 28.0996V31.8945H190.644V9.3293H185.388V9.32681ZM180.429 27.1415C177.591 27.1415 175.262 24.0925 175.262 20.3275C175.262 16.5625 177.561 13.511 180.429 13.511C183.296 13.511 185.595 16.56 185.595 20.3275C185.595 24.095 183.266 27.1415 180.429 27.1415Z" fill="black"/>
<path d="M139.57 31.8916H144.946V8.81738H139.57V31.8916Z" fill="black"/>
<path d="M145.574 3.31842C145.574 1.48705 144.088 0 142.257 0C140.427 0 138.941 1.48456 138.941 3.31842C138.941 5.15228 140.425 6.63683 142.257 6.63683C144.09 6.63683 145.574 5.15228 145.574 3.31842Z" fill="#26B15D"/>
<path d="M104.386 9.17667C101.875 9.17667 99.606 10.4916 97.9928 12.6124V8.81738H92.707V40.0504H97.9928V28.4834C99.606 30.6067 101.875 31.9215 104.386 31.9215C109.312 31.9215 113.317 26.8391 113.317 20.5641C113.317 14.289 109.315 9.17667 104.386 9.17667ZM102.892 27.1385C100.653 27.1385 98.7707 25.4344 97.9928 22.9843V18.1414C98.7682 15.7212 100.681 13.9871 102.892 13.9871C105.819 13.9871 108.178 16.9163 108.178 20.5616C108.178 24.2069 105.789 27.1385 102.892 27.1385Z" fill="black"/>
<path d="M62.2728 16.9759L66.0351 15.0023C65.9753 13.2682 64.8109 11.6839 63.3474 10.7582C61.8838 9.83255 60.1211 9.44332 58.3583 9.26368C55.5509 8.96427 52.534 9.2038 50.2351 10.7882C47.9338 12.3725 46.56 15.6585 47.8765 18.1411C48.9511 20.202 51.3422 21.1601 53.6111 21.5768C55.88 21.9959 58.271 22.1456 60.3006 23.1911C60.8092 23.4605 61.3453 23.8497 61.3752 24.4186C61.4051 24.9875 61.0161 25.4341 60.6297 25.7934C57.9419 28.0339 53.9402 27.6772 51.6987 24.9875C51.0704 24.2115 50.5942 23.3133 50.3847 22.3278L46.2334 24.5084C45.3658 24.9875 48.5921 28.992 49.0109 29.3513C52.0877 32.041 56.7177 32.4602 60.51 31.2051C63.1679 30.3069 65.6761 28.3358 66.2147 25.5863C66.5438 23.8223 66.0351 22.0009 64.8409 20.6561C63.5568 19.2514 61.6744 18.5927 59.7919 18.2034C57.9095 17.8142 56.0296 17.6945 54.207 17.1281C53.4316 16.8886 52.534 16.3521 52.5639 15.5138C52.5938 14.7678 53.4291 14.2887 54.1471 14.0492C55.6705 13.5402 57.3435 13.3331 58.8969 13.7797C60.4502 14.2288 61.8539 15.4539 62.2728 16.9784V16.9759Z" fill="black"/>
<path d="M163.764 16.9759L167.527 15.0023C167.467 13.2682 166.302 11.6839 164.839 10.7582C163.375 9.83255 161.613 9.44332 159.85 9.26368C157.042 8.96427 154.025 9.2038 151.727 10.7882C149.428 12.3725 148.054 15.6585 149.368 18.1411C150.443 20.202 152.831 21.1601 155.103 21.5768C157.371 21.9959 159.763 22.1456 161.792 23.1911C162.301 23.4605 162.837 23.8497 162.867 24.4186C162.897 24.9875 162.508 25.4341 162.121 25.7934C159.433 28.0339 155.429 27.6772 153.19 24.9875C152.562 24.2115 152.086 23.3133 151.876 22.3278L147.725 24.5084C146.86 24.9875 150.084 28.992 150.502 29.3513C153.579 32.041 158.207 32.4602 162.002 31.2051C164.659 30.3069 167.168 28.3358 167.706 25.5863C168.035 23.8223 167.527 22.0009 166.302 20.6561C165.018 19.2514 163.136 18.5927 161.256 18.2034C159.374 17.8142 157.494 17.7269 155.701 17.158C154.926 16.9185 154.028 16.3821 154.058 15.5437C154.088 14.7977 154.923 14.3187 155.641 14.0791C157.165 13.5701 158.838 13.363 160.391 13.8097C161.944 14.2588 163.348 15.4539 163.767 16.9784L163.764 16.9759Z" fill="black"/>
<path d="M19.1709 12.7323C19.1709 12.7323 15.259 6.75412 6.77677 9.74319C6.77677 9.74319 2.17665 10.9982 0.117188 18.3511C0.117188 18.3511 4.35828 25.1376 14.693 22.9545C14.693 22.9545 23.5342 20.654 19.1734 12.7323H19.1709ZM13.6159 18.7104C11.883 19.5163 9.25511 19.3092 7.43251 18.8302C7.31283 18.8002 4.95417 17.9644 5.07385 17.7548C6.80669 14.5561 11.3171 11.6269 14.4536 14.8855C14.7827 15.1849 15.0221 15.6016 15.1393 16.0207C15.4086 17.156 14.6007 18.2613 13.6159 18.7104Z" fill="black"/>
<path d="M0.1482 20.5645C0.1482 20.5645 -0.86657 28.5761 6.57092 31.2058C14.0084 33.8356 19.8627 29.0252 21.593 26.0361L17.3519 23.5261C17.3519 23.5261 14.0358 30.3999 4.50897 25.9463C4.50897 25.9463 1.04329 23.9128 0.1482 20.5645Z" fill="#26B15D"/>
</g>
<defs>
<clipPath id="clip0_3981_7964">
<rect width="190.6" height="40" fill="white"/>
</clipPath>
</defs>
</svg>
