<svg width="142" height="40" viewBox="0 0 142 40" fill="none" xmlns="http://www.w3.org/2000/svg">
<g clip-path="url(#clip0_3981_8950)">
<path d="M87.8529 21.1583C88.2132 20.0086 88.522 18.8589 88.8822 17.6577C89.3283 16.1476 89.74 14.6719 90.2032 13.1789C90.5291 12.115 91.061 11.7032 92.1589 11.7032C92.9309 11.7032 93.7029 11.7032 94.4577 11.7032C95.4527 11.7032 96.036 12.115 96.3105 13.076C97.0482 15.5127 97.7515 17.9837 98.4549 20.4205C98.5235 20.6435 98.6093 20.9009 98.7809 21.124C98.9009 20.7465 99.0039 20.3861 99.1411 20.0086C99.7759 17.8293 100.428 15.6157 101.097 13.4363C101.474 12.1493 102.126 11.6689 103.43 11.6689C104.271 11.6689 105.094 11.6689 105.9 11.6689C106.604 11.6689 106.895 11.9949 106.741 12.6641C106.518 13.5221 106.226 14.3973 105.969 15.221C104.717 19.1335 103.43 23.0803 102.195 26.9756C101.835 28.0395 101.165 28.4857 100.085 28.52C99.4842 28.52 98.8666 28.52 98.2662 28.52C97.1854 28.52 96.4649 28.0052 96.1561 26.9756C95.2983 24.1957 94.3891 21.3986 93.5313 18.6187C93.497 18.4642 93.4284 18.3269 93.3426 18.0352C93.2397 18.2926 93.2225 18.4127 93.1539 18.55C92.2618 21.3299 91.3869 24.1613 90.4948 26.9413C90.1689 28.0052 89.4655 28.4857 88.3504 28.4857C87.7157 28.4857 87.0981 28.4857 86.4633 28.4857C85.434 28.4857 84.765 27.9709 84.439 27.0099C83.0666 22.7542 81.7113 18.5157 80.3389 14.26C80.2188 13.8139 80.0472 13.402 79.9272 12.9387C79.8585 12.7156 79.8242 12.4925 79.8242 12.2695C79.8242 11.8233 80.0472 11.6002 80.4933 11.6002C81.5226 11.6002 82.5176 11.5659 83.5298 11.6002C84.4562 11.6345 85.1252 12.1837 85.4169 13.076C86.1545 15.5813 86.8922 18.0695 87.6642 20.5749C87.6985 20.7293 87.7671 20.8666 87.7843 21.0211C87.7671 21.1583 87.8015 21.1583 87.8529 21.1583Z" fill="#006E9C"/>
<path d="M73.4404 27.2501C73.1831 27.4046 72.9601 27.5418 72.7371 27.662C71.1416 28.6572 69.3403 28.9833 67.4875 28.9146C66.2695 28.846 65.1201 28.6572 63.9879 28.1424C61.9635 27.2158 60.8484 25.4826 60.9171 23.4234C60.9857 21.124 62.1694 19.6139 64.2795 18.7731C65.3946 18.3269 66.5783 18.1381 67.7963 18.1381C69.3746 18.1381 70.9701 18.1381 72.5312 18.1381C72.9429 18.1381 73.0459 18.018 73.0116 17.6233C72.7885 15.6671 71.9822 14.8949 69.9922 14.8949C69.1859 14.8949 68.4139 14.9979 67.7106 15.3754C67.4532 15.5298 67.1959 15.7357 66.9729 15.9588C66.4925 16.5079 65.9093 16.7653 65.2059 16.7653C64.5368 16.7653 63.8678 16.7653 63.1816 16.7653C62.3753 16.7653 62.0321 16.3535 62.1008 15.547C62.2209 13.9683 63.0615 12.9558 64.4682 12.3037C65.6176 11.7889 66.8356 11.6002 68.088 11.4629C69.8207 11.3428 71.5534 11.2741 73.2517 11.7203C75.1045 12.1665 76.6142 13.0931 77.5062 14.8606C77.9866 15.8215 78.1753 16.8168 78.1753 17.8807C78.1753 21.0897 78.1753 24.2986 78.1753 27.5247C78.1753 28.2969 77.8494 28.5886 77.1117 28.5886C76.2711 28.5886 75.4476 28.5886 74.6413 28.5886C73.8007 28.5886 73.5262 28.3312 73.4919 27.4732C73.4748 27.4389 73.4748 27.3702 73.4404 27.2501ZM70.404 21.6388C69.632 21.6731 68.8257 21.6388 68.0708 21.6731C67.2988 21.7074 66.6641 22.0506 66.3038 22.7885C65.7892 23.8696 66.4239 25.0708 67.6762 25.3282C69.5633 25.7057 71.2617 25.1051 72.8743 24.1442C72.9772 24.0755 73.0287 23.8868 73.0287 23.7323C73.063 23.1832 73.0287 22.6169 73.0287 22.0678C73.0287 21.7418 72.9086 21.656 72.617 21.656C71.8621 21.6388 71.1416 21.6388 70.404 21.6388Z" fill="#006E9C"/>
<path d="M131.976 27.3362C131.462 27.2675 131.016 27.2332 130.604 27.1474C129.163 26.89 128.013 26.1521 127.104 25.0024C126.109 23.7154 125.509 22.274 125.028 20.7639C124.188 18.1041 123.399 15.4443 122.627 12.7845C122.438 12.1496 122.73 11.7549 123.399 11.7549C124.359 11.7549 125.354 11.7549 126.315 11.7549C127.087 11.7549 127.602 12.1324 127.825 12.9046C128.562 15.2727 129.266 17.6408 130.004 20.026C130.295 20.987 130.673 21.9136 131.324 22.7201C131.668 23.132 132.096 23.458 132.645 23.561C132.971 23.6296 133.126 23.561 133.229 23.2006C134.086 20.0603 134.961 16.9201 135.819 13.7798C135.922 13.4537 136.008 13.1105 136.111 12.7845C136.3 12.1152 136.78 11.7549 137.483 11.7549C138.444 11.7549 139.405 11.7549 140.365 11.7549C141.103 11.7549 141.395 12.1324 141.206 12.8188C139.834 17.8124 138.478 22.8574 137.072 27.851C136.746 29.0007 136.231 30.1333 135.699 31.18C134.67 33.1363 132.971 34.1659 130.758 34.1316C129.42 34.1316 128.065 33.9771 126.727 33.8055C126.058 33.7369 125.766 33.3593 125.766 32.6901C125.766 32.1753 125.766 31.6948 125.766 31.18C125.766 30.5794 126.126 30.2191 126.727 30.2191C127.362 30.2534 128.048 30.322 128.683 30.4078C129.609 30.5623 130.415 30.3049 131.016 29.6013C131.462 28.9835 131.753 28.2113 131.976 27.3362Z" fill="#006E9C"/>
<path d="M48.0358 20.1284C48.0358 17.6917 47.9672 15.2893 48.0702 12.8526C48.1045 11.8916 48.3275 10.8964 48.6191 9.96971C49.2539 8.04779 50.7635 7.05251 52.6506 6.60635C54.7264 6.09155 56.8537 6.12587 58.9638 6.31463C59.5128 6.34895 60.0446 6.43475 60.5592 6.53771C61.2283 6.65783 61.5199 7.01819 61.5199 7.68743C61.5199 8.16791 61.5199 8.61407 61.5199 9.09455C61.4856 9.76379 61.1597 10.1242 60.4563 10.1242C59.976 10.1242 59.4956 10.0898 59.0152 10.004C57.7286 9.74664 56.4591 9.8496 55.2068 10.1585C53.9887 10.4502 53.4055 11.1881 53.2511 12.5952C53.1824 13.007 53.1824 13.4532 53.1481 13.8822C53.1138 14.2597 53.2511 14.397 53.6628 14.397C55.2411 14.3627 56.8365 14.397 58.3977 14.397C59.2383 14.397 59.5128 14.6887 59.5471 15.5124C59.5471 16.0272 59.5471 16.542 59.5471 17.0568C59.5471 17.726 59.1868 18.0864 58.4834 18.0864C56.888 18.0864 55.2411 18.0864 53.6456 18.0864C53.2682 18.0864 53.131 18.2065 53.131 18.6012C53.131 21.5527 53.131 24.5042 53.131 27.4729C53.131 28.3653 52.8393 28.657 51.9473 28.657C51.0209 28.657 50.0602 28.657 49.1338 28.657C48.276 28.657 47.9844 28.3653 47.9844 27.5073C48.0015 25.0019 48.0015 22.5652 48.0358 20.1284Z" fill="#006E9C"/>
<path d="M114.136 13.6248C114.616 13.2987 114.976 13.0413 115.319 12.8183C116.983 11.7372 118.836 11.4111 120.792 11.4111C121.341 11.4111 121.684 11.7715 121.718 12.3378C121.753 13.11 121.753 13.9165 121.718 14.6715C121.684 15.2721 121.358 15.5982 120.758 15.5982C120.054 15.5982 119.316 15.5982 118.613 15.5295C117.206 15.4094 116.057 15.9071 114.993 16.8509C114.359 17.4343 114.067 18.0349 114.101 18.9272C114.17 21.7415 114.136 24.5729 114.136 27.4214C114.136 28.3138 113.844 28.6055 112.918 28.6055C111.923 28.6055 110.962 28.6055 109.967 28.6055C109.298 28.6055 108.938 28.2451 108.938 27.5759C108.938 22.6338 108.938 17.7089 108.938 12.7668C108.938 12.0975 109.298 11.7372 109.967 11.7372C111.03 11.7372 112.077 11.7372 113.141 11.7372C113.775 11.7372 114.101 12.0975 114.136 12.7325C114.136 12.9899 114.136 13.2473 114.136 13.6248Z" fill="#006E9C"/>
<path d="M39.9891 20.0086C39.9891 31.0596 31.0511 40 20.0031 40C17.893 40 15.8687 39.674 13.9816 39.0734C11.1338 38.181 8.54335 36.6366 6.38178 34.6118C2.43606 30.991 0 25.7743 0 19.9914C0 8.94037 8.93792 0 19.986 0C22.3877 0 24.6694 0.411845 26.7795 1.18405C29.5415 2.17933 32.029 3.77521 34.0533 5.80009C37.7246 9.45517 39.9891 14.4659 39.9891 20.0086Z" fill="#FFD200"/>
<path d="M29.2672 28.5023L26.5738 27.1638C26.5738 27.1638 21.9933 35.5207 13.9475 39.09C11.0997 38.1977 8.50923 36.6533 6.34766 34.6284C8.11465 34.371 10.9624 33.4787 13.9475 30.5272C18.8539 25.7224 19.969 23.0626 19.969 23.0626L17.8589 21.6554C17.1212 21.175 17.2756 20.0767 18.0819 19.8022L27.3115 16.5932C27.9462 16.3702 28.6324 16.782 28.6839 17.4512L30.0563 27.9017C30.1936 28.365 29.7132 28.7254 29.2672 28.5023Z" fill="#006E9C"/>
<path d="M32.0457 16.9196C31.8227 17.503 30.9821 17.4001 30.8963 16.7995L30.2959 13.2817L25.7497 14.6888C25.235 14.8432 24.789 14.3284 25.012 13.848C25.6125 12.561 26.4874 10.416 27.1908 7.67036C27.8255 5.04488 27.3795 2.72827 26.8305 1.23535C29.5925 2.23063 32.08 3.82651 34.1044 5.8514C34.4475 10.0041 33.0064 14.4657 32.0457 16.9196Z" fill="#006E9C"/>
</g>
<defs>
<clipPath id="clip0_3981_8950">
<rect width="141.3" height="40" fill="white"/>
</clipPath>
</defs>
</svg>
