<svg width="40" height="40" viewBox="0 0 40 40" fill="none" xmlns="http://www.w3.org/2000/svg">
<rect width="40" height="40" rx="8" fill="#FFD401"/>
<path d="M29.9945 20.0043C29.9945 25.5298 25.5256 30 20.0016 30C18.9465 30 17.9343 29.837 16.9908 29.5367C15.5669 29.0905 14.2717 28.3183 13.1909 27.3059C11.218 25.4955 10 22.8872 10 19.9957C10 14.4702 14.469 10 19.993 10C21.1938 10 22.3347 10.2059 23.3897 10.592C24.7707 11.0897 26.0145 11.8876 27.0267 12.9C28.8623 14.7276 29.9945 17.2329 29.9945 20.0043Z" fill="white"/>
<path d="M24.6316 24.2516L23.2849 23.5824C23.2849 23.5824 20.9947 27.7609 16.9718 29.5455C15.5479 29.0993 14.2527 28.3271 13.1719 27.3147C14.0554 27.186 15.4793 26.7398 16.9718 25.2641C19.425 22.8617 19.9825 21.5318 19.9825 21.5318L18.9275 20.8282C18.5586 20.588 18.6358 20.0388 19.039 19.9016L23.6538 18.2971C23.9712 18.1856 24.3143 18.3915 24.34 18.7261L25.0262 23.9513C25.0948 24.183 24.8547 24.3632 24.6316 24.2516Z" fill="#006E9C"/>
<path d="M26.0229 18.4603C25.9113 18.752 25.491 18.7005 25.4482 18.4002L25.1479 16.6413L22.8749 17.3449C22.6175 17.4221 22.3945 17.1647 22.506 16.9245C22.8062 16.281 23.2437 15.2085 23.5954 13.8357C23.9127 12.5229 23.6897 11.3646 23.4152 10.6182C24.7963 11.1158 26.04 11.9137 27.0522 12.9262C27.2237 15.0025 26.5032 17.2334 26.0229 18.4603Z" fill="#006E9C"/>
</svg>
