<svg width="40" height="40" viewBox="0 0 40 40" fill="none" xmlns="http://www.w3.org/2000/svg">
<rect width="40" height="40" rx="8" fill="#007DFE"/>
<path d="M15.7921 12.017C16.8074 11.6857 17.8865 11.5481 18.9548 11.6169C20.5197 11.7016 22.0486 12.2553 23.3224 13.1655C23.4601 13.2661 23.6094 13.3593 23.7269 13.4893C23.9291 13.72 24.0097 14.0471 23.9375 14.3466C23.8645 14.6704 23.6103 14.9448 23.2948 15.0421C22.9876 15.1394 22.6352 15.0748 22.3893 14.8684C21.4394 14.1369 20.2823 13.6755 19.0899 13.5623C18.6535 13.5136 18.2079 13.5136 17.7716 13.5623C16.5137 13.6873 15.297 14.1931 14.3186 14.9976C13.2143 15.8994 12.4095 17.1687 12.0949 18.5596C11.8037 19.8213 11.8926 21.171 12.3617 22.3799C12.8551 23.6651 13.7731 24.7775 14.9295 25.5207C15.7946 26.0744 16.794 26.4183 17.8127 26.5148C18.2088 26.5635 18.6132 26.5635 19.0059 26.519C20.2395 26.4141 21.4319 25.941 22.4111 25.1852C22.6578 24.9914 23.0094 24.9343 23.309 25.0358C23.7219 25.1776 24.0164 25.618 23.9644 26.0543C23.94 26.3093 23.8066 26.5517 23.6044 26.7052C22.8282 27.3118 21.9463 27.7765 21.0081 28.076C19.7989 28.4644 18.4966 28.5651 17.2396 28.3914C15.8441 28.1976 14.5015 27.6398 13.3779 26.7908C12.2862 25.9746 11.3967 24.8865 10.8102 23.6533C10.2362 22.4445 9.95676 21.0947 10.0054 19.7558C10.0499 18.1108 10.5962 16.485 11.5587 15.1469C12.5941 13.6915 14.0945 12.5715 15.7963 12.0179L15.7921 12.017Z" fill="#022DB8" stroke="#007CFF" stroke-width="0.03" stroke-miterlimit="1.09"/>
<path d="M27.6257 14.3136C28.0461 14.1886 28.5395 14.3866 28.7418 14.7826C29.7127 16.6785 30.1372 18.8453 29.9627 20.9677C29.841 22.4794 29.4248 23.9718 28.725 25.3174C28.4699 25.7981 27.7868 25.9524 27.3463 25.637C26.9376 25.3744 26.8042 24.7881 27.0467 24.3636C28.3977 21.7118 28.4095 18.425 27.0753 15.7649C26.9536 15.5468 26.889 15.2876 26.9502 15.0409C27.019 14.697 27.2901 14.4059 27.6257 14.3136Z" fill="#70BAF7" stroke="#6FBAF7" stroke-width="0.03" stroke-miterlimit="1.09"/>
<path d="M15.6646 15.4497C17.379 14.4145 19.6966 14.443 21.3623 15.5714C21.7752 15.8742 21.8599 16.521 21.5402 16.922C21.2532 17.3137 20.6583 17.4312 20.2505 17.1686C19.6035 16.7559 18.8189 16.578 18.0587 16.667C17.2984 16.7475 16.5709 17.0998 16.0363 17.6451C15.5027 18.1744 15.1544 18.8858 15.0697 19.6341C14.9925 20.2406 15.094 20.8673 15.3449 21.4252C15.6764 22.1609 16.2789 22.7716 17.0148 23.1113C17.7666 23.467 18.6486 23.5241 19.4407 23.2774C20.5005 22.9536 21.3774 22.077 21.6812 21.0133C20.9209 21.0175 20.1607 21.0133 19.4004 21.0133C19.0362 21.0133 18.6846 20.7868 18.5353 20.4596C18.349 20.0838 18.4463 19.5947 18.7618 19.3195C18.9238 19.1744 19.1378 19.0771 19.356 19.0687C20.5047 19.0603 21.6485 19.0645 22.7972 19.0645C23.1732 19.0528 23.5373 19.2868 23.6867 19.6308C23.8159 19.8975 23.7757 20.2004 23.7597 20.4881C23.659 21.733 23.0968 22.9343 22.2065 23.8152C21.3531 24.6725 20.201 25.2262 18.996 25.347C17.8111 25.4762 16.586 25.1893 15.579 24.5467C14.5637 23.9041 13.7715 22.905 13.383 21.7649C12.9869 20.6131 13.0071 19.3229 13.4191 18.1786C13.8236 17.047 14.6325 16.068 15.6638 15.4497H15.6646Z" fill="white" stroke="#002CB8" stroke-width="0.03" stroke-miterlimit="1.09"/>
<path d="M24.995 15.9796C25.4112 15.8705 25.8845 16.0844 26.0792 16.4686C27.1306 18.6917 27.1306 21.3846 26.0792 23.6076C25.9457 23.8702 25.6789 24.0648 25.3835 24.1127C25.0395 24.1731 24.6719 24.0279 24.4571 23.7528C24.2347 23.4659 24.1945 23.0531 24.3564 22.7302C25.141 21.028 25.1284 18.987 24.3363 17.2891C24.098 16.7673 24.437 16.1004 24.9958 15.9796H24.995Z" fill="#70BAF7" stroke="#6FBAF7" stroke-width="0.03" stroke-miterlimit="1.09"/>
</svg>
