<svg width="172" height="40" viewBox="0 0 172 40" fill="none" xmlns="http://www.w3.org/2000/svg">
<g clip-path="url(#clip0_3981_3860)">
<path d="M13.7985 0.993898C16.2173 0.204885 18.7881 -0.122707 21.3329 0.0410885C25.0612 0.242836 28.7035 1.56119 31.7381 3.72848C32.0659 3.96818 32.4217 4.1899 32.7016 4.49952C33.1834 5.04883 33.3753 5.82786 33.2034 6.54097C33.0295 7.312 32.4237 7.96518 31.6721 8.19689C30.9404 8.4286 30.1008 8.2748 29.5151 7.78341C27.2522 6.04159 24.4955 4.94296 21.6548 4.6733C20.6153 4.55744 19.5538 4.55744 18.5143 4.6733C15.5177 4.97093 12.619 6.17542 10.2881 8.09103C7.65735 10.2383 5.74025 13.2606 4.9906 16.5724C4.29693 19.5767 4.50883 22.7907 5.6263 25.6691C6.80175 28.7292 8.98873 31.3779 11.7434 33.1477C13.8045 34.4661 16.1854 35.285 18.6122 35.5147C19.5558 35.6306 20.5193 35.6306 21.4549 35.5247C24.3935 35.2751 27.2342 34.1485 29.5671 32.3487C30.1548 31.8873 30.9924 31.7515 31.7061 31.9931C32.6896 32.3307 33.3913 33.3794 33.2674 34.4181C33.2094 35.0254 32.8915 35.6026 32.4098 35.9682C30.5606 37.4124 28.4596 38.519 26.2247 39.2321C23.344 40.1569 20.2415 40.3966 17.2469 39.9832C13.9224 39.5217 10.7239 38.1934 8.04717 36.1719C5.44639 34.2284 3.32738 31.6376 1.93003 28.7013C0.562674 25.8229 -0.103014 22.6089 0.0129321 19.4209C0.118882 15.5038 1.42027 11.6326 3.7132 8.44658C6.18004 4.98091 9.75437 2.31425 13.8085 0.995895L13.7985 0.993898Z" fill="#007CFF" stroke="#007CFF" stroke-width="0.03" stroke-miterlimit="1.09"/>
<path opacity="0.4" d="M18.5117 4.67088C19.5512 4.55502 20.6127 4.55502 21.6522 4.67088C20.6027 4.64291 19.5612 4.64291 18.5117 4.67088Z" fill="#001934" stroke="#001934" stroke-width="0.03" stroke-miterlimit="1.09"/>
<path d="M41.9878 6.46075C42.9893 6.16312 44.1648 6.63453 44.6466 7.57735C46.9595 12.0917 47.971 17.2513 47.5552 22.3049C47.2653 25.9044 46.2738 29.458 44.6066 32.662C43.9989 33.8066 42.3716 34.1741 41.3221 33.423C40.3486 32.7978 40.0307 31.4016 40.6084 30.3908C43.8269 24.0767 43.8549 16.2505 40.6764 9.91643C40.3866 9.39708 40.2326 8.77985 40.3786 8.19258C40.5425 7.37361 41.1882 6.68047 41.9878 6.46075Z" fill="#6FBAF7" stroke="#6FBAF7" stroke-width="0.03" stroke-miterlimit="1.09"/>
<path d="M153.773 7.07808C153.879 6.65461 154.303 6.337 154.757 6.35698C155.625 6.35698 156.49 6.34699 157.358 6.35698C157.86 6.337 158.321 6.78045 158.321 7.28182C158.341 9.82265 158.311 12.3635 158.331 14.8963C159.593 13.7597 161.232 13.1065 162.907 12.9427C164.804 12.751 166.809 13.0766 168.419 14.1452C170.432 15.4536 171.539 17.8326 171.723 20.1717C171.781 22.4249 171.743 24.6761 171.751 26.9293C171.741 28.5652 171.771 30.2112 171.731 31.8491C171.605 32.2626 171.181 32.5323 170.757 32.5143C169.92 32.5143 169.072 32.5243 168.233 32.5143C167.781 32.5343 167.355 32.1967 167.259 31.7632C167.269 28.8369 167.259 25.9105 167.259 22.9842C167.259 22.3969 167.279 21.8097 167.221 21.2224C167.105 19.7882 166.565 18.2681 165.352 17.3912C164.368 16.6601 163.059 16.4963 161.874 16.6981C160.948 16.8618 160.082 17.3532 159.485 18.0843C158.657 19.105 158.339 20.4434 158.329 21.7318C158.319 25.0037 158.329 28.2876 158.319 31.5595C158.329 32.0409 157.923 32.4743 157.442 32.5023C156.768 32.5303 156.102 32.5023 155.429 32.5123C155.111 32.5123 154.803 32.5323 154.495 32.4843C154.139 32.4064 153.849 32.1088 153.773 31.7632V7.08207V7.07808Z" fill="#002CB8" stroke="#002CB8" stroke-width="0.03" stroke-miterlimit="1.09"/>
<path opacity="0.52" d="M153.719 7.47168C153.729 7.34583 153.747 7.212 153.777 7.07617V31.7573C153.691 31.3339 153.729 30.9104 153.729 30.4869C153.719 22.8145 153.739 15.1421 153.719 7.47168Z" fill="#000B31" stroke="#000B31" stroke-width="0.03" stroke-miterlimit="1.09"/>
<path d="M13.4903 9.16532C17.5743 6.7004 23.0958 6.76832 27.0639 9.45496C28.0474 10.1761 28.2493 11.7161 27.4877 12.6709C26.804 13.6038 25.3867 13.8834 24.4151 13.2582C22.8739 12.2754 21.0047 11.852 19.1936 12.0637C17.3824 12.2555 15.6492 13.0944 14.3758 14.3928C13.1044 15.6532 12.2748 17.3471 12.0729 19.1289C11.889 20.5731 12.1309 22.0652 12.7286 23.3935C13.5182 25.1453 14.9536 26.5995 16.7068 27.4085C18.4979 28.2555 20.5989 28.3913 22.486 27.804C25.0109 27.033 27.0999 24.9456 27.8235 22.4128C26.0124 22.4227 24.2012 22.4128 22.3901 22.4128C21.5225 22.4128 20.6849 21.8734 20.3291 21.0944C19.8853 20.1995 20.1172 19.035 20.8688 18.3798C21.2546 18.0342 21.7644 17.8025 22.2841 17.7825C25.0209 17.7626 27.7456 17.7726 30.4823 17.7726C31.3779 17.7446 32.2455 18.3019 32.6013 19.1209C32.9092 19.7561 32.8132 20.4772 32.7752 21.1623C32.5353 24.1266 31.196 26.987 29.075 29.0844C27.0419 31.1259 24.2972 32.4442 21.4265 32.7319C18.6039 33.0395 15.6852 32.3563 13.2864 30.8262C10.8675 29.2962 8.98037 26.9171 8.05481 24.2025C7.11125 21.4599 7.15922 18.3878 8.14077 15.6632C9.10431 12.9686 11.0314 10.6375 13.4883 9.16532H13.4903Z" fill="#002CB8" stroke="#002CB8" stroke-width="0.03" stroke-miterlimit="1.09"/>
<path d="M69.0959 7.52978C71.0809 7.30806 73.122 7.47185 75.0111 8.12704C77.266 8.90606 79.3071 10.3223 80.7344 12.2379C81.0423 12.5935 81.1862 13.1228 80.9743 13.5662C80.7244 14.1435 80.0587 14.3273 79.567 14.6549C79.0072 14.9345 78.4695 15.4739 77.7838 15.3101C77.254 15.2421 76.9942 14.7328 76.6663 14.3672C75.4049 12.971 73.5938 12.124 71.7246 11.9323C70.2413 11.7885 68.71 11.9523 67.3227 12.5295C65.6955 13.2127 64.3361 14.4731 63.4885 16.0132C62.6509 17.5433 62.381 19.335 62.5449 21.0569C62.6609 22.4232 63.1227 23.7715 63.9223 24.8981C65.0198 26.4481 66.659 27.6127 68.5081 28.1041C69.8175 28.4317 71.2149 28.5475 72.5443 28.2099C74.2295 27.8064 75.8387 26.9675 77.0341 25.6871C77.8817 24.7822 78.4595 23.6277 78.7014 22.4152C78.7114 22.3672 78.7294 22.2614 78.7393 22.2134C76.3884 22.2234 74.0376 22.2134 71.6967 22.2234C71.1869 22.1275 70.7431 21.6841 70.7131 21.1548C70.6851 20.6734 70.7131 20.192 70.7031 19.7106C70.7031 19.365 70.6651 18.9795 70.867 18.6719C71.0989 18.2763 71.5507 18.0646 71.9945 18.0946H81.648C82.5056 18.0666 83.2672 18.8556 83.1993 19.7126C83.1613 20.925 83.1893 22.1675 82.8914 23.352C82.5356 24.8641 81.9279 26.3163 81.0603 27.6067C80.3386 28.6953 79.3651 29.5902 78.2956 30.3313C76.8982 31.2841 75.3389 31.9872 73.6997 32.3907C71.5027 32.95 69.1718 32.8142 66.9948 32.2269C63.9983 31.4079 61.3875 29.3785 59.7602 26.7498C58.0071 23.9393 57.5733 20.4356 58.247 17.2297C58.9026 14.0716 60.9357 11.2811 63.6024 9.48933C65.2297 8.40069 67.1388 7.74751 69.0939 7.53578L69.0959 7.52978Z" fill="#002CB8" stroke="#002CB8" stroke-width="0.03" stroke-miterlimit="1.09"/>
<path d="M97.1777 7.50166C98.9309 7.33787 100.732 7.46371 102.419 7.99305C104.982 8.78206 107.323 10.428 108.806 12.6812C109.096 13.1047 108.96 13.7598 108.508 14.0195C107.873 14.405 107.207 14.7706 106.563 15.1561C106.273 15.3199 105.976 15.5316 105.63 15.4837C105.302 15.4737 105.042 15.244 104.868 14.9823C103.847 13.4622 102.179 12.4315 100.408 12.056C98.9629 11.7663 97.4416 11.8342 96.0243 12.2298C94.453 12.6732 93.0577 13.644 92.0841 14.9344C91.1506 16.1369 90.6208 17.621 90.4949 19.1311C90.3309 20.855 90.5808 22.6547 91.4104 24.1948C92.2101 25.6869 93.4915 26.9194 95.0427 27.5925C96.4881 28.2278 98.1053 28.3915 99.6566 28.2377C101.536 28.036 103.357 27.1311 104.55 25.657C104.782 25.3773 104.936 25.0218 105.244 24.82C105.552 24.6283 105.966 24.6562 106.275 24.848C107.007 25.2714 107.749 25.6849 108.482 26.1084C108.858 26.3102 109.05 26.7915 108.934 27.205C108.818 27.5226 108.588 27.7823 108.394 28.052C106.15 31.0362 102.411 32.7781 98.693 32.7301C95.7924 32.7781 92.8358 31.8832 90.5728 30.0355C89.2534 28.9668 88.136 27.6485 87.3363 26.1464C86.4987 24.5763 86.0449 22.8245 85.939 21.0447C85.8131 19.1291 86.045 17.1656 86.7286 15.3558C87.7302 12.7371 89.6852 10.4939 92.1141 9.08968C93.6554 8.19479 95.4086 7.67544 97.1817 7.50166H97.1777Z" fill="#002CB8" stroke="#002CB8" stroke-width="0.03" stroke-miterlimit="1.09"/>
<path d="M35.7249 10.428C36.7165 10.1683 37.844 10.6777 38.3077 11.5925C40.8126 16.8859 40.8126 23.2979 38.3077 28.5913C37.9899 29.2165 37.3542 29.6799 36.6505 29.7938C35.8309 29.9376 34.9553 29.592 34.4435 28.9368C33.9138 28.2537 33.8178 27.2709 34.2037 26.5019C36.0728 22.449 36.0428 17.589 34.1557 13.5461C33.5879 12.3036 34.3956 10.7156 35.7269 10.428H35.7249Z" fill="#6FBAF7" stroke="#6FBAF7" stroke-width="0.03" stroke-miterlimit="1.09"/>
<path d="M118.497 12.7571C120.318 12.3915 122.283 12.4974 123.959 13.3344C125.21 13.9496 126.271 15.0183 126.723 16.3566C126.781 15.4897 126.713 14.6148 126.751 13.7379C126.761 13.2664 127.213 12.8709 127.685 12.8709C128.59 12.8609 129.486 12.8609 130.392 12.8709C130.901 12.8609 131.355 13.3144 131.335 13.8337V30.9683C131.335 31.218 131.345 31.4777 131.315 31.7394C131.247 32.1828 130.823 32.5104 130.382 32.5104C129.64 32.5204 128.908 32.5004 128.167 32.5104C127.917 32.5104 127.665 32.5304 127.435 32.4724C127.059 32.3666 126.769 32.029 126.751 31.6455C126.723 31.0582 126.761 30.4709 126.731 29.8937C126.229 30.3371 125.768 30.8185 125.218 31.202C123.851 32.2227 122.163 32.82 120.458 32.82C118.579 32.84 116.702 32.2527 115.189 31.1361C113.715 30.0674 112.606 28.5374 111.952 26.8535C111.163 24.842 110.999 22.6188 111.354 20.4994C111.692 18.5259 112.588 16.6203 114.003 15.186C115.217 13.9536 116.806 13.1066 118.493 12.7611M120.4 16.6782C119.023 16.8799 117.761 17.6789 116.98 18.8335C115.554 20.9029 115.497 23.7813 116.7 25.9666C117.356 27.199 118.491 28.2098 119.86 28.5753C121.604 29.0767 123.599 28.5953 124.908 27.3329C126.054 26.2742 126.641 24.7141 126.719 23.1741C126.835 21.3923 126.353 19.4767 125.062 18.1883C123.877 16.9558 122.075 16.4065 120.4 16.6762V16.6782Z" fill="#002CB8"/>
<path d="M118.497 12.7571C120.318 12.3915 122.283 12.4974 123.959 13.3344C125.21 13.9496 126.271 15.0183 126.723 16.3566C126.781 15.4897 126.713 14.6148 126.751 13.7379C126.761 13.2664 127.213 12.8709 127.685 12.8709C128.59 12.8609 129.486 12.8609 130.392 12.8709C130.901 12.8609 131.355 13.3144 131.335 13.8337V30.9683C131.335 31.218 131.345 31.4777 131.315 31.7394C131.247 32.1828 130.823 32.5104 130.382 32.5104C129.64 32.5204 128.908 32.5004 128.167 32.5104C127.917 32.5104 127.665 32.5304 127.435 32.4724C127.059 32.3666 126.769 32.029 126.751 31.6455C126.723 31.0582 126.761 30.4709 126.731 29.8937C126.229 30.3371 125.768 30.8185 125.218 31.202C123.851 32.2227 122.163 32.82 120.458 32.82C118.579 32.84 116.702 32.2527 115.189 31.1361C113.715 30.0674 112.606 28.5374 111.952 26.8535C111.163 24.842 110.999 22.6188 111.354 20.4994C111.692 18.5259 112.588 16.6203 114.003 15.186C115.217 13.9536 116.806 13.1066 118.493 12.7611M120.4 16.6782C119.023 16.8799 117.761 17.6789 116.98 18.8335C115.554 20.9029 115.497 23.7813 116.7 25.9666C117.356 27.199 118.491 28.2098 119.86 28.5753C121.604 29.0767 123.599 28.5953 124.908 27.3329C126.054 26.2742 126.641 24.7141 126.719 23.1741C126.835 21.3923 126.353 19.4767 125.062 18.1883C123.877 16.9558 122.075 16.4065 120.4 16.6762V16.6782Z" stroke="#002CB8" stroke-width="0.03" stroke-miterlimit="1.09"/>
<path d="M141.302 12.6134C143.325 12.4296 145.464 12.6913 147.207 13.7879C148.769 14.7507 149.798 16.4546 150.02 18.2643C150.078 18.7937 149.616 19.313 149.086 19.2951C148.249 19.305 147.401 19.2951 146.572 19.305C146.282 19.315 145.974 19.2771 145.762 19.0733C145.464 18.8336 145.444 18.4281 145.29 18.1005C145 17.4274 144.385 16.936 143.691 16.7143C142.959 16.4826 142.178 16.4746 141.428 16.5705C140.812 16.6564 140.177 16.8501 139.751 17.3315C139.289 17.8409 139.269 18.7078 139.723 19.2271C140.195 19.7765 140.898 20.0461 141.562 20.2858C143.459 20.921 145.464 21.2586 147.255 22.1914C148.295 22.7308 149.258 23.5198 149.788 24.5784C150.626 26.2444 150.482 28.3417 149.422 29.8718C148.527 31.2002 147.071 32.0371 145.55 32.4526C143.691 32.954 141.688 32.944 139.837 32.4246C138.421 32.0211 137.082 31.2701 136.088 30.1814C135.309 29.3345 134.749 28.2658 134.567 27.1213C134.471 26.5819 134.943 26.0426 135.493 26.0426C136.426 26.0326 137.362 26.0426 138.287 26.0426C138.731 26.0226 139.145 26.3223 139.261 26.7457C139.405 27.2371 139.695 27.6886 140.089 28.0162C140.888 28.6893 141.978 28.931 143.007 28.8631C143.807 28.8251 144.644 28.6613 145.27 28.132C145.81 27.6806 146.012 26.8316 145.626 26.2264C145.288 25.717 144.692 25.4474 144.133 25.2157C142.513 24.6084 140.8 24.3308 139.181 23.7235C137.996 23.2901 136.82 22.6928 135.973 21.73C134.739 20.3437 134.479 18.2544 135.125 16.5505C135.665 15.1442 136.85 14.0776 138.187 13.4504C139.161 12.979 140.231 12.7193 141.3 12.6134H141.302Z" fill="#002CB8" stroke="#002CB8" stroke-width="0.03" stroke-miterlimit="1.09"/>
<path opacity="0.48" d="M167.225 21.2188C167.283 21.806 167.263 22.3933 167.263 22.9805C167.263 25.9069 167.273 28.8332 167.263 31.7596C167.167 31.2782 167.225 30.7868 167.215 30.2974C167.215 27.2752 167.205 24.253 167.225 21.2207V21.2188Z" fill="#000A2B" stroke="#000A2B" stroke-width="0.03" stroke-miterlimit="1.09"/>
<path opacity="0.27" d="M71.6992 22.219C74.0401 22.209 76.391 22.219 78.7419 22.209C78.7319 22.2569 78.7139 22.3628 78.7039 22.4107C78.512 22.3049 78.2901 22.2669 78.0782 22.2669C76.1231 22.2869 74.1581 22.2569 72.201 22.2869C72.0271 22.2869 71.8631 22.2489 71.6992 22.219Z" fill="#00030E" stroke="#00030E" stroke-width="0.03" stroke-miterlimit="1.09"/>
<path opacity="0.46" d="M18.6055 35.5127C19.559 35.5327 20.5026 35.5327 21.4481 35.5227C20.5146 35.6285 19.551 35.6286 18.6055 35.5127Z" fill="#001E3E" stroke="#001E3E" stroke-width="0.03" stroke-miterlimit="1.09"/>
</g>
<defs>
<clipPath id="clip0_3981_3860">
<rect width="171.685" height="40" fill="white"/>
</clipPath>
</defs>
</svg>
