<svg width="40" height="40" viewBox="0 0 40 40" fill="none" xmlns="http://www.w3.org/2000/svg">
<rect x="0.5" y="0.5" width="39" height="39" rx="7.5" fill="white"/>
<rect x="0.5" y="0.5" width="39" height="39" rx="7.5" stroke="#8D8D8D"/>
<path d="M29.9983 20.1751C29.9983 19.4337 29.9315 18.7242 29.8075 18.042H20.2109V21.9505L25.7378 21.9517C25.5136 23.2521 24.7922 24.3607 23.6868 25.0998V27.6356H26.9767C28.8977 25.8696 29.9983 23.2592 29.9983 20.1751Z" fill="#4285F4"/>
<path d="M23.6898 25.1004C22.774 25.7139 21.5947 26.0728 20.2151 26.0728C17.55 26.0728 15.2892 24.2891 14.4796 21.8848H11.0859V24.4999C12.7672 27.8138 16.2229 30.0879 20.2151 30.0879C22.9743 30.0879 25.2924 29.1866 26.9797 27.635L23.6898 25.1004Z" fill="#34A853"/>
<path d="M14.1603 19.945C14.1603 19.2699 14.2736 18.6173 14.4799 18.0038V15.3887H11.0863C10.3911 16.759 10 18.3058 10 19.945C10 21.5842 10.3923 23.131 11.0863 24.5014L14.4799 21.8863C14.2736 21.2727 14.1603 20.6201 14.1603 19.945Z" fill="#FABB05"/>
<path d="M20.2151 13.8149C21.7211 13.8149 23.0697 14.3301 24.1346 15.3368L27.05 12.4434C25.2793 10.8054 22.9708 9.7998 20.2151 9.7998C16.2241 9.7998 12.7672 12.0738 11.0859 15.3878L14.4796 18.0029C15.2892 15.5986 17.55 13.8149 20.2151 13.8149Z" fill="#E94235"/>
</svg>
