<svg width="103" height="40" viewBox="0 0 103 40" fill="none" xmlns="http://www.w3.org/2000/svg">
<path d="M48.0742 19.4538V31.2474H44.293V2.12402H54.3172C56.8577 2.12402 59.0241 2.96225 60.7965 4.6387C62.6084 6.31514 63.5143 8.36197 63.5143 10.7792C63.5143 13.2548 62.6084 15.3017 60.7965 16.9586C59.0438 18.6156 56.8774 19.4343 54.3172 19.4343H48.0742V19.4538ZM48.0742 5.71084V15.867H54.396C55.8927 15.867 57.1531 15.3602 58.1378 14.366C59.1422 13.3718 59.6543 12.1632 59.6543 10.7987C59.6543 9.4536 59.1422 8.2645 58.1378 7.27033C57.1531 6.23717 55.9124 5.73033 54.396 5.73033H48.0742V5.71084Z" fill="#5F6368"/>
<path d="M73.4007 10.6626C76.1973 10.6626 78.403 11.4034 80.0179 12.8849C81.6328 14.3664 82.4403 16.3937 82.4403 18.9669V31.2478H78.8363V28.4797H78.6787C77.1229 30.7605 75.0353 31.8911 72.4357 31.8911C70.2103 31.8911 68.3591 31.2478 66.8623 29.9417C65.3656 28.6357 64.6172 27.0177 64.6172 25.0683C64.6172 23.002 65.4049 21.3646 66.9805 20.156C68.556 18.9279 70.6633 18.3236 73.2826 18.3236C75.5277 18.3236 77.3789 18.7329 78.8166 19.5517V18.6939C78.8166 17.3879 78.3045 16.2962 77.2608 15.38C76.217 14.4638 74.996 14.0155 73.5977 14.0155C71.4904 14.0155 69.8164 14.8927 68.5954 16.6666L65.2671 14.6003C67.0986 11.9687 69.8164 10.6626 73.4007 10.6626ZM68.5166 25.1268C68.5166 26.1015 68.9302 26.9202 69.777 27.5635C70.6042 28.2068 71.5889 28.5382 72.7114 28.5382C74.3067 28.5382 75.7246 27.9534 76.9654 26.7838C78.2061 25.6142 78.8363 24.2496 78.8363 22.6706C77.6546 21.7544 76.02 21.2866 73.9128 21.2866C72.3766 21.2866 71.0965 21.657 70.0724 22.3782C69.0287 23.1385 68.5166 24.0547 68.5166 25.1268Z" fill="#5F6368"/>
<path d="M103.002 11.3057L90.3981 40.0002H86.4987L91.1859 29.961L82.875 11.3057H86.9911L92.978 25.6139H93.0568L98.8862 11.3057H103.002Z" fill="#5F6368"/>
<path d="M33.032 17.0752C33.032 15.8549 32.9217 14.6873 32.7169 13.5645H16.8672V19.9973L25.9954 19.9993C25.6251 22.1397 24.4336 23.9643 22.608 25.1807V29.3542H28.0416C31.2143 26.4477 33.032 22.1514 33.032 17.0752Z" fill="#4285F4"/>
<path d="M22.6095 25.1822C21.097 26.1919 19.1493 26.7826 16.8707 26.7826C12.4691 26.7826 8.7351 23.8468 7.39788 19.8896H1.79297V24.1938C4.56982 29.6481 10.2771 33.3909 16.8707 33.3909C21.4279 33.3909 25.2564 31.9074 28.0431 29.3538L22.6095 25.1822Z" fill="#34A853"/>
<path d="M6.87123 16.6969C6.87123 15.5858 7.05833 14.5117 7.39903 13.5019V9.19775H1.79412C0.64596 11.4532 0 13.999 0 16.6969C0 19.3948 0.64793 21.9407 1.79412 24.1961L7.39903 19.8919C7.05833 18.8822 6.87123 17.8081 6.87123 16.6969Z" fill="#FABB05"/>
<path d="M16.8707 6.60831C19.358 6.60831 21.5854 7.45628 23.3441 9.11324L28.1593 4.35096C25.2347 1.655 21.422 0 16.8707 0C10.2791 0 4.56982 3.74276 1.79297 9.19706L7.39788 13.5012C8.7351 9.54405 12.4691 6.60831 16.8707 6.60831Z" fill="#E94235"/>
</svg>
