<svg width="40" height="40" viewBox="0 0 40 40" fill="none" xmlns="http://www.w3.org/2000/svg">
<rect width="40" height="40" rx="8" fill="#1899D6"/>
<path d="M14.4323 27.3996C10.3224 27.3996 7.89102 24.6292 8.00376 21.0287C8.14803 16.4185 12.2203 12.5996 17.0771 12.5996C19.161 12.5996 20.827 13.137 21.9348 13.7017L21.2876 17.1108C19.8982 16.3579 18.7045 15.9037 16.7774 15.9037C13.7494 15.9037 11.7513 18.1598 11.6757 20.5935C11.6144 22.5313 12.7844 24.1348 15.0451 24.1348C15.5568 24.1348 16.1488 24.0562 16.5454 23.9572L17.4306 19.2948L20.8747 19.2952L19.5391 26.3308C18.0824 27.0042 16.1627 27.3996 14.4323 27.3996ZM32 19.4885L24.9586 15.326L23.0974 25.0626L32 19.4885Z" fill="white"/>
</svg>
