<svg width="170" height="40" viewBox="0 0 170 40" fill="none" xmlns="http://www.w3.org/2000/svg">
<g clip-path="url(#clip0_3981_7779)">
<path d="M122.663 40C111.59 40 105.038 32.5125 105.342 22.7813C105.731 10.3212 116.703 0 129.79 0C135.405 0 139.893 1.4525 142.878 2.97875L141.135 12.1925C137.391 10.1575 134.175 8.93 128.982 8.93C120.823 8.93 115.44 15.0275 115.236 21.605C115.071 26.8425 118.223 31.1762 124.315 31.1762C125.693 31.1762 127.288 30.9637 128.357 30.6962L130.742 18.095L140.022 18.0963L136.423 37.1112C132.498 38.9312 127.326 40 122.663 40ZM169.998 18.6188L151.026 7.36875L146.011 33.6838L169.998 18.6188Z" fill="#1899D6"/>
<path d="M30.0434 26.0279C32.1247 26.0279 34.3559 24.1841 34.3559 21.2454C34.3559 19.3391 33.1497 18.1829 31.5209 18.1829C29.4709 18.1829 27.1784 20.1204 27.1784 23.0579C27.1784 24.9329 28.3847 26.0279 30.0434 26.0279ZM31.5822 13.6841C36.2559 13.6841 39.6322 16.5279 39.6322 20.9016C39.6322 26.5891 34.7772 30.5266 29.9547 30.5266C25.2797 30.5266 21.9022 27.7141 21.9022 23.3079C21.9022 17.6529 26.7272 13.6841 31.5822 13.6841ZM52.1584 19.0566C52.8559 19.0566 53.5234 18.9329 54.0297 18.5929C55.0759 17.9129 55.7422 16.6454 55.7422 15.1929C55.7422 13.8929 54.9797 13.0591 53.4584 13.0591H50.6684L49.4647 19.0566H52.1584ZM46.0397 8.42164H54.6947C56.0272 8.42164 57.1684 8.63664 58.1509 9.10164C60.2759 10.0904 61.4484 12.1304 61.4484 14.6966C61.4484 18.4091 59.2934 21.5616 56.2484 22.9516C55.1527 23.4469 53.9633 23.7005 52.7609 23.6954H48.5434L47.1809 30.5266H41.6322L46.0397 8.42164ZM68.1184 26.4029C69.4909 26.4029 70.9847 24.8716 71.2297 23.5591L71.2909 23.2141H70.8022C69.6734 23.2141 66.8397 23.4641 66.8397 25.3716C66.8397 25.9641 67.2334 26.4029 68.1184 26.4029ZM71.6259 20.1216H71.8384C71.8697 19.9029 71.8997 19.6216 71.8997 19.5279C71.8997 18.4654 71.1684 18.0591 69.9172 18.0591C67.9347 18.0591 65.3734 19.5279 65.3734 19.5279L64.2447 15.4654C64.2447 15.4654 67.4784 13.6841 70.9547 13.6841C73.6072 13.6841 77.1759 14.7466 77.1759 18.8091C77.1759 19.2779 77.1147 19.8091 77.0234 20.3716L75.1947 30.1516H70.3747L70.5572 29.1829C70.6509 28.6529 70.8322 28.1829 70.8322 28.1829H70.7709C70.7709 28.1829 69.0634 30.5266 66.1359 30.5266C63.7884 30.5266 61.5309 29.0891 61.5309 26.3704C61.5309 21.4954 67.6009 20.1216 71.6259 20.1216ZM80.1784 33.2966C81.1422 33.2966 82.2984 33.0404 83.1659 31.6341L83.6472 30.8679L79.7622 14.7379H85.5422L86.8909 22.8829C87.0509 23.7779 87.0509 25.3116 87.0509 25.3116H87.1159C87.1159 25.3116 87.6947 23.8716 88.1109 22.9791L91.8047 14.7379H98.0347L87.6947 32.9429C85.6384 36.5541 82.7809 37.8954 80.4684 37.8954C78.0272 37.8954 76.1334 36.6179 76.1334 36.6179L78.5409 32.7841C78.5409 32.7841 79.2159 33.2966 80.1784 33.2966ZM10.1184 31.5791C3.65217 31.5791 -0.17158 27.0479 0.00592049 21.1566C0.23092 13.6154 6.63842 7.36914 14.2809 7.36914C17.5584 7.36914 20.1584 8.23164 21.9009 9.15664L20.8897 14.7516C18.7047 13.5179 16.8397 12.7741 13.8084 12.7741C9.04342 12.7741 5.90092 16.4641 5.78217 20.4441C5.68592 23.6166 7.52592 26.2391 11.0834 26.2391C11.8884 26.2391 12.8209 26.1091 13.4434 25.9479L14.8359 18.3216H20.2434L18.1534 29.8304C15.8609 30.9329 12.8409 31.5791 10.1184 31.5791Z" fill="#2F4049"/>
<path fill-rule="evenodd" clip-rule="evenodd" d="M1.22804 39.9995C0.99679 39.9995 0.79054 39.9558 0.60554 39.8695C0.425966 39.7894 0.272605 39.6603 0.16304 39.497C0.0503293 39.3154 -0.00620323 39.1045 0.000540051 38.8908C0.000540051 38.6858 0.0405401 38.5158 0.11929 38.3833C0.196136 38.2529 0.306101 38.145 0.43804 38.0708C0.57179 37.9908 0.72179 37.9308 0.88804 37.892C1.05304 37.852 1.22179 37.8233 1.39554 37.8045C1.61429 37.7795 1.79179 37.7583 1.92429 37.7395C2.02756 37.7316 2.12844 37.7044 2.22179 37.6595C2.28429 37.6195 2.31429 37.5583 2.31429 37.4758V37.4595C2.31429 37.2495 2.25679 37.0895 2.14054 36.9783C2.02554 36.8633 1.85304 36.8045 1.62179 36.8045C1.38429 36.8045 1.19679 36.857 1.05929 36.962C0.9354 37.0506 0.838479 37.1717 0.77929 37.312L0.10804 37.162C0.18804 36.9383 0.30554 36.7583 0.46054 36.6208C0.61054 36.4883 0.78554 36.3883 0.98429 36.3233C1.33843 36.2161 1.71413 36.2015 2.07554 36.2808C2.24179 36.317 2.39554 36.3808 2.53554 36.4695C2.68416 36.5646 2.80527 36.6969 2.88679 36.8533C2.98054 37.0195 3.02804 37.2358 3.02804 37.5033V39.9183H2.33554V39.4208H2.30804C2.25493 39.5227 2.18378 39.6142 2.09804 39.6908C1.99732 39.7881 1.8778 39.8638 1.74679 39.9133C1.58085 39.9745 1.40485 40.0037 1.22804 39.9995ZM1.38429 39.432C1.57929 39.432 1.74679 39.392 1.88679 39.3133C2.01967 39.2449 2.13026 39.1399 2.20554 39.0108C2.28029 38.8885 2.31967 38.7479 2.31929 38.6045V38.1345C2.27645 38.1686 2.22645 38.1926 2.17304 38.2045C2.09147 38.2285 2.00836 38.2469 1.92429 38.2595C1.8365 38.2769 1.74811 38.2911 1.65929 38.302L1.44429 38.3295C1.31482 38.3446 1.18765 38.3752 1.06554 38.4208C0.962427 38.4552 0.869595 38.515 0.79554 38.5945C0.724335 38.6808 0.687401 38.7903 0.69179 38.902C0.687712 38.9791 0.703504 39.0559 0.737652 39.125C0.7718 39.1942 0.823156 39.2534 0.88679 39.297C1.03475 39.3922 1.20851 39.4394 1.38429 39.432Z" fill="#2F4049"/>
<path d="M6.74469 39.9192L5.39844 35.0654H6.16594L7.11219 38.8279H7.16094L8.14469 35.0654H8.90719L9.88969 38.8279H9.93344L10.8797 35.0654H11.6522L10.3022 39.9192H9.56594L8.54469 36.2867H8.50719L7.48469 39.9192H6.74469Z" fill="#2F4049"/>
<path fill-rule="evenodd" clip-rule="evenodd" d="M13.4442 39.9949C13.1017 39.9949 12.8042 39.9149 12.5517 39.7574C12.2944 39.601 12.0877 39.3735 11.9567 39.1024C11.8107 38.7954 11.7388 38.4585 11.7467 38.1187C11.7467 37.7399 11.8167 37.4087 11.9567 37.1237C12.0979 36.8437 12.2954 36.6237 12.5517 36.4649C12.8042 36.3099 13.1017 36.2324 13.4429 36.2324C13.7854 36.2324 14.0829 36.3099 14.3354 36.4649C14.5917 36.6237 14.7892 36.8437 14.9304 37.1237C15.0704 37.4087 15.1404 37.7399 15.1404 38.1187C15.1404 38.4937 15.0704 38.8212 14.9304 39.1024C14.7992 39.3731 14.5926 39.6001 14.3354 39.7562C14.0829 39.9149 13.7854 39.9949 13.4442 39.9949ZM13.4442 39.3999C13.6429 39.4075 13.8379 39.3442 13.9942 39.2212C14.1434 39.0992 14.2559 38.9382 14.3192 38.7562C14.393 38.5501 14.4294 38.3325 14.4267 38.1137C14.4267 37.8824 14.3917 37.6687 14.3192 37.4699C14.2549 37.287 14.1427 37.1247 13.9942 36.9999C13.8363 36.8805 13.642 36.8195 13.4442 36.8274C13.2457 36.8201 13.0507 36.881 12.8917 36.9999C12.7414 37.1228 12.6292 37.2858 12.5679 37.4699C12.4954 37.6687 12.4592 37.8824 12.4592 38.1137C12.4592 38.3474 12.4967 38.5624 12.5679 38.7562C12.6367 38.9512 12.7442 39.1062 12.8929 39.2212C13.0497 39.3432 13.2443 39.4065 13.4429 39.3999H13.4442Z" fill="#2F4049"/>
<path d="M15.9297 39.9192V36.2817H16.6159V36.8604H16.6534C16.7129 36.6693 16.8371 36.5049 17.0047 36.3954C17.1749 36.2834 17.3747 36.2251 17.5784 36.2279H17.7347C17.7837 36.2301 17.8326 36.2355 17.8809 36.2442V36.9192C17.7581 36.8922 17.6329 36.8776 17.5072 36.8754C17.3513 36.8735 17.1974 36.9109 17.0597 36.9842C16.9302 37.052 16.8221 37.1546 16.7477 37.2805C16.6733 37.4064 16.6355 37.5505 16.6384 37.6967V39.9192H15.9297ZM19.2047 35.0654V39.9192H18.4972V35.0654H19.2047Z" fill="#2F4049"/>
<path fill-rule="evenodd" clip-rule="evenodd" d="M21.5196 39.9892C21.2283 39.9892 20.9671 39.9154 20.7358 39.7679C20.4977 39.6075 20.3104 39.3824 20.1958 39.1192C20.0583 38.8002 19.9918 38.4552 20.0008 38.1079C20.0008 37.7154 20.0658 37.3792 20.1958 37.0979C20.3283 36.8167 20.5108 36.6017 20.7408 36.4542C20.9721 36.3067 21.2333 36.2329 21.5246 36.2329C21.7521 36.2329 21.9346 36.2704 22.0708 36.3454C22.2083 36.4217 22.3158 36.5079 22.3958 36.6054C22.4708 36.7067 22.5308 36.7954 22.5733 36.8704H22.6171V35.0654H23.3246V39.9192H22.6333V39.3517H22.5733C22.5195 39.4465 22.458 39.5368 22.3896 39.6217C22.2977 39.7292 22.1856 39.8175 22.0596 39.8817C21.8908 39.9602 21.7056 39.9971 21.5196 39.9892ZM21.6758 39.3892C21.8625 39.3955 22.0459 39.3382 22.1958 39.2267C22.344 39.1084 22.4565 38.9513 22.5208 38.7729C22.5921 38.5829 22.6283 38.3567 22.6283 38.0979C22.6283 37.8454 22.5908 37.6254 22.5196 37.4379C22.4586 37.2626 22.3478 37.1088 22.2008 36.9954C22.0492 36.8835 21.8642 36.8262 21.6758 36.8329C21.4836 36.8265 21.295 36.8855 21.1408 37.0004C20.995 37.1196 20.8847 37.2766 20.8221 37.4542C20.7476 37.6605 20.7111 37.8786 20.7146 38.0979C20.7146 38.3429 20.7508 38.5629 20.8221 38.7567C20.8845 38.9378 20.9972 39.0974 21.1471 39.2167C21.2979 39.3339 21.4849 39.3949 21.6758 39.3892Z" fill="#2F4049"/>
<path d="M25.0447 35.0652V39.9189H24.3359V35.0652H25.0447ZM26.3522 35.7189C26.2944 35.7198 26.2371 35.7091 26.1834 35.6877C26.1298 35.6662 26.0809 35.6344 26.0397 35.5939C25.9969 35.5573 25.9626 35.5119 25.9391 35.4607C25.9156 35.4096 25.9034 35.354 25.9034 35.2977C25.9034 35.1789 25.9484 35.0777 26.0384 34.9952C26.0798 34.9546 26.1289 34.9226 26.1828 34.9012C26.2366 34.8797 26.2942 34.8692 26.3522 34.8702C26.4772 34.8702 26.5847 34.9114 26.6709 34.9952C26.7584 35.0777 26.8009 35.1764 26.8009 35.2927C26.8017 35.3494 26.7906 35.4057 26.7682 35.4578C26.7458 35.5099 26.7126 35.5567 26.6709 35.5952C26.6287 35.6361 26.5788 35.6682 26.5241 35.6897C26.4694 35.7111 26.4109 35.7202 26.3522 35.7189ZM25.9959 39.9189V36.2814H26.7034V39.9189H25.9959ZM28.3684 37.7564V39.9189H27.6597V36.2814H28.3359V36.8702H28.3847C28.4673 36.6794 28.6048 36.5176 28.7797 36.4052C28.9833 36.2838 29.2178 36.2239 29.4547 36.2327C29.7034 36.2327 29.9209 36.2852 30.1084 36.3889C30.2959 36.4902 30.4409 36.6439 30.5409 36.8489C30.6535 37.0847 30.7075 37.3441 30.6984 37.6052V39.9189H29.9897V37.6927C29.9897 37.4252 29.9209 37.2177 29.7847 37.0702C29.7118 36.9941 29.6234 36.9346 29.5255 36.8955C29.4276 36.8565 29.3225 36.8389 29.2172 36.8439C29.0644 36.8406 28.9135 36.8777 28.7797 36.9514C28.6497 37.0232 28.544 37.132 28.4759 37.2639C28.4004 37.4169 28.3635 37.5859 28.3684 37.7564ZM33.2172 39.9952C32.8572 39.9952 32.5472 39.9177 32.2872 39.7627C32.0309 39.6073 31.8244 39.3817 31.6922 39.1127C31.5461 38.8044 31.4742 38.4662 31.4822 38.1252C31.4822 37.7502 31.5522 37.4202 31.6922 37.1352C31.8334 36.8502 32.0297 36.6289 32.2822 36.4702C32.5309 36.3114 32.8247 36.2327 33.1634 36.2327C33.3684 36.2327 33.5684 36.2664 33.7634 36.3352C33.9563 36.4049 34.1329 36.5133 34.2822 36.6539C34.4322 36.7989 34.5534 36.9877 34.6447 37.2214C34.7347 37.4527 34.7797 37.7314 34.7797 38.0589V38.3139H31.8822V37.7839H34.0822C34.0858 37.6113 34.0467 37.4404 33.9684 37.2864C33.8951 37.1445 33.785 37.025 33.6497 36.9402C33.5039 36.8551 33.3372 36.8122 33.1684 36.8164C32.9848 36.8124 32.8042 36.8633 32.6497 36.9627C32.5047 37.0563 32.387 37.1865 32.3084 37.3402C32.2293 37.498 32.1886 37.6724 32.1897 37.8489V38.2652C32.1897 38.5064 32.2334 38.7139 32.3197 38.8864C32.4022 39.0564 32.5222 39.1864 32.6759 39.2764C32.8309 39.3664 33.0134 39.4114 33.2222 39.4114C33.3472 39.4126 33.4715 39.3923 33.5897 39.3514C33.6967 39.3151 33.7948 39.2563 33.8772 39.1789C33.9584 39.0958 34.0207 38.996 34.0597 38.8864L34.7309 39.0114C34.6789 39.2052 34.5802 39.3834 34.4434 39.5302C34.3059 39.6777 34.1347 39.7914 33.9247 39.8702C33.6989 39.9562 33.4588 39.9986 33.2172 39.9952Z" fill="#2F4049"/>
<path fill-rule="evenodd" clip-rule="evenodd" d="M37.3906 39.9192V35.0654H38.0994V36.8704H38.1419C38.196 36.7785 38.2557 36.6901 38.3206 36.6054C38.4114 36.4992 38.5218 36.4114 38.6456 36.3467C38.815 36.264 39.0023 36.2249 39.1906 36.2329C39.4831 36.2329 39.7444 36.3067 39.9744 36.4542C40.2056 36.6017 40.3869 36.8167 40.5206 37.0979C40.6544 37.3792 40.7206 37.7154 40.7206 38.1079C40.7206 38.5017 40.6544 38.8379 40.5206 39.1204C40.4058 39.3832 40.2185 39.6078 39.9806 39.7679C39.7465 39.9174 39.4734 39.9944 39.1956 39.9892C39.0097 39.9963 38.8247 39.9595 38.6556 39.8817C38.5296 39.8175 38.4175 39.7292 38.3256 39.6217C38.2571 39.5368 38.1957 39.4465 38.1419 39.3517H38.0831V39.9192H37.3906ZM38.0881 38.0979C38.0881 38.3567 38.1244 38.5829 38.1956 38.7729C38.2597 38.9518 38.3722 39.1093 38.5206 39.2279C38.6702 39.3391 38.8531 39.3964 39.0394 39.3904C39.2309 39.3961 39.4184 39.3347 39.5694 39.2167C39.717 39.0953 39.8293 38.9364 39.8944 38.7567C39.9688 38.5452 40.0052 38.3221 40.0019 38.0979C40.0019 37.8604 39.9656 37.6454 39.8931 37.4542C39.8304 37.2766 39.7202 37.1197 39.5744 37.0004C39.4202 36.8855 39.2315 36.8265 39.0394 36.8329C38.8512 36.8274 38.6665 36.8845 38.5144 36.9954C38.3674 37.1088 38.2566 37.2626 38.1956 37.4379C38.1244 37.6254 38.0881 37.8454 38.0881 38.0979Z" fill="#2F4049"/>
<path d="M41.5117 39.9189V36.2814H42.193V36.8601H42.2305C42.2928 36.6701 42.4169 36.5065 42.583 36.3951C42.7528 36.2833 42.9522 36.225 43.1555 36.2276H43.313C43.3616 36.2298 43.41 36.2353 43.458 36.2439V36.9189C43.3372 36.8926 43.2141 36.8779 43.0905 36.8751C42.934 36.8721 42.7794 36.9096 42.6417 36.9839C42.5122 37.0517 42.4042 37.1543 42.3297 37.2802C42.2553 37.4061 42.2175 37.5502 42.2205 37.6964V39.9189H41.5117Z" fill="#2F4049"/>
<path fill-rule="evenodd" clip-rule="evenodd" d="M45.1041 40C44.888 40.0027 44.6739 39.9584 44.4766 39.87C44.2971 39.7898 44.1437 39.6607 44.0341 39.4975C43.9214 39.3158 43.8649 39.1049 43.8716 38.8912C43.8716 38.6862 43.9116 38.5162 43.9904 38.3837C44.0673 38.2533 44.1772 38.1455 44.3091 38.0712C44.451 37.9892 44.6044 37.9289 44.7641 37.8925C44.9291 37.8525 45.0991 37.8237 45.2716 37.805C45.4879 37.78 45.6641 37.7587 45.8016 37.74C45.9049 37.732 46.0058 37.7049 46.0991 37.66C46.1604 37.62 46.1904 37.5587 46.1904 37.4762V37.46C46.1904 37.25 46.1329 37.09 46.0179 36.9787C45.8991 36.8637 45.7254 36.805 45.4991 36.805C45.2616 36.805 45.0741 36.8575 44.9366 36.9625C44.8115 37.0516 44.7122 37.1724 44.6491 37.3125L43.9854 37.1625C44.0641 36.9387 44.1804 36.7587 44.3316 36.6212C44.4864 36.4879 44.6661 36.3868 44.8604 36.3237C45.0638 36.2619 45.2753 36.2311 45.4879 36.2325C45.6316 36.2325 45.7879 36.2487 45.9529 36.2812C46.1154 36.3175 46.2679 36.3812 46.4116 36.47C46.5607 36.5648 46.6822 36.6972 46.7641 36.8537C46.8541 37.02 46.8991 37.2362 46.8991 37.5037V39.9187H46.2066V39.4212H46.1804C46.1276 39.5224 46.0579 39.6137 45.9741 39.6912C45.8726 39.7869 45.7538 39.8624 45.6241 39.9137C45.4578 39.9749 45.2813 40.0041 45.1041 40ZM45.2554 39.4325C45.4324 39.4378 45.6078 39.3968 45.7641 39.3137C45.8956 39.2432 46.0056 39.1388 46.0829 39.0112C46.1541 38.8877 46.1912 38.7475 46.1904 38.605V38.135C46.1475 38.169 46.0975 38.193 46.0441 38.205C45.8755 38.2479 45.7043 38.2805 45.5316 38.3025L45.3154 38.33C45.1779 38.3475 45.0529 38.3787 44.9366 38.4212C44.8335 38.4556 44.7407 38.5154 44.6666 38.595C44.599 38.6828 44.5644 38.7917 44.5691 38.9025C44.5651 38.9795 44.5808 39.0563 44.615 39.1255C44.6491 39.1946 44.7005 39.2539 44.7641 39.2975C44.9101 39.392 45.0816 39.4392 45.2554 39.4325Z" fill="#2F4049"/>
<path d="M48.5513 37.7561V39.9186H47.8438V36.2811H48.525V36.8698H48.5688C48.6514 36.6791 48.7889 36.5173 48.9637 36.4048C49.1691 36.2832 49.4052 36.2233 49.6438 36.2323C49.8938 36.2323 50.1088 36.2848 50.2938 36.3886C50.4813 36.4898 50.6263 36.6436 50.7313 36.8486C50.8313 37.0498 50.8813 37.3023 50.8813 37.6048V39.9186H50.1738V37.6923C50.1738 37.4248 50.105 37.2173 49.9688 37.0698C49.8962 36.9932 49.8079 36.9333 49.7099 36.8943C49.6119 36.8552 49.5066 36.8379 49.4013 36.8436C49.2506 36.8363 49.101 36.872 48.97 36.9466C48.8389 37.0212 48.7318 37.1316 48.6613 37.2648C48.5854 37.4173 48.5469 37.5859 48.5513 37.7561Z" fill="#2F4049"/>
<path fill-rule="evenodd" clip-rule="evenodd" d="M53.1938 39.9892C52.8975 39.9892 52.635 39.9154 52.4038 39.7679C52.1675 39.6055 51.9807 39.381 51.8638 39.1192C51.7263 38.8002 51.6598 38.4552 51.6688 38.1079C51.6688 37.7154 51.735 37.3792 51.8688 37.0979C51.9988 36.8167 52.1788 36.6017 52.4088 36.4542C52.64 36.3067 52.9025 36.2329 53.1988 36.2329C53.4225 36.2329 53.6038 36.2704 53.745 36.3454C53.8825 36.4217 53.9875 36.5079 54.0638 36.6054C54.1425 36.7067 54.2013 36.7954 54.2413 36.8704H54.285V35.0654H54.9975V39.9192H54.3013V39.3517H54.2413C54.1908 39.4485 54.1291 39.5392 54.0575 39.6217C53.9668 39.7283 53.8565 39.8166 53.7325 39.8817C53.5639 39.9593 53.3793 39.9961 53.1938 39.9892ZM53.35 39.3892C53.5513 39.3892 53.725 39.3354 53.8688 39.2267C54.0161 39.1089 54.1267 38.9515 54.1875 38.7729C54.2625 38.5829 54.3013 38.3567 54.3013 38.0979C54.3013 37.8454 54.2638 37.6254 54.1888 37.4379C54.1274 37.2625 54.0162 37.1087 53.8688 36.9954C53.7192 36.8842 53.5363 36.8269 53.35 36.8329C53.1577 36.8252 52.9686 36.8844 52.815 37.0004C52.6692 37.1196 52.5589 37.2766 52.4963 37.4542C52.4213 37.6604 52.3845 37.8785 52.3875 38.0979C52.3875 38.3429 52.4238 38.5629 52.4963 38.7567C52.5586 38.9378 52.6714 39.0974 52.8213 39.2167C52.9715 39.335 53.1589 39.3961 53.35 39.3892Z" fill="#2F4049"/>
</g>
<defs>
<clipPath id="clip0_3981_7779">
<rect width="170" height="40" fill="white"/>
</clipPath>
</defs>
</svg>
