<svg width="104" height="40" viewBox="0 0 104 40" fill="none" xmlns="http://www.w3.org/2000/svg">
<g clip-path="url(#clip0_3981_9238)">
<path d="M82.6405 12.5987V0.000976562H85.2237V10.8303C84.5084 11.188 83.5347 11.8635 82.6405 12.5987ZM78.1499 16.394C78.9447 15.4402 79.7594 14.4864 80.733 13.6717V0.000976562H78.1499V16.394ZM48.2252 26.4086C48.2252 29.7667 49.5565 32.9658 52.0006 35.4098C54.4247 37.834 57.6239 39.1852 61.0018 39.1852C62.4325 39.1852 63.9029 38.8872 64.9361 38.3705V35.7874C63.724 36.304 62.2536 36.6021 61.0018 36.6021C55.4779 36.6021 50.8282 31.9524 50.8282 26.4285V24.1036C50.8282 18.5797 55.4977 13.9301 61.0018 13.9301C63.7439 13.9301 66.3072 14.9832 68.2147 16.8907C70.1223 18.7983 71.1754 21.3615 71.1754 24.1036V39.2051H73.7585V23.6069C73.5996 20.3084 72.1888 17.2285 69.8043 14.9236C67.4 12.6186 64.2804 11.3469 61.0018 11.3469C57.6437 11.3469 54.4446 12.6782 52.0006 15.1223C49.5764 17.5464 48.2252 20.7456 48.2252 24.1235V26.4086ZM86.8928 20.2091C88.0651 19.0367 89.5753 18.381 91.0656 18.381C94.2647 18.381 96.7485 20.8847 96.7485 24.0639V26.3887C96.7485 29.5879 94.2448 32.0716 91.0656 32.0716C89.5157 32.0716 88.0254 31.2172 86.8531 29.6872C85.8198 28.336 85.1442 26.4881 85.0449 24.8388L82.9585 27.422C83.3757 29.3693 84.3891 31.257 85.8397 32.5684C87.3299 33.9196 89.1977 34.6746 91.0656 34.6746C95.6357 34.6746 99.3515 30.9589 99.3515 26.4086V24.0838C99.3515 21.9179 98.4772 19.8514 96.8876 18.2817C95.2979 16.692 93.2314 15.8177 91.0656 15.8177C89.6945 15.8177 87.5286 16.3145 84.9455 18.6393C84.25 19.3348 82.6207 20.9641 81.6272 22.1166C79.9581 23.9447 77.5538 26.6669 75.4872 29.4289V33.4626C77.7723 30.5218 79.0838 28.8725 81.2496 26.3887C83.1572 24.1235 85.5416 21.4013 86.8928 20.2091ZM25.8513 15.3408V12.2808C23.5066 11.029 20.9632 10.4726 17.5852 10.4726C14.1278 10.4726 10.8492 11.7443 8.36539 14.0294C5.86174 16.3344 4.49069 19.3546 4.49069 22.5736V23.4082C4.49069 30.0846 9.83579 35.5092 16.4327 35.5092C21.7778 35.5092 23.9834 33.7606 24.5398 33.2042V25.435H15.7969V28.0181H22.1156V31.9127H22.0958C21.2811 32.2306 19.5921 32.9062 16.4327 32.9062C13.9291 32.9062 11.5645 31.9325 9.81593 30.1442C8.04747 28.3559 7.09369 25.9715 7.09369 23.3883V22.5538C7.09369 17.4074 11.9023 13.0359 17.6051 13.0359C21.5195 13.0558 23.8642 13.7115 25.8513 15.3408ZM44.6883 18.381C45.6619 18.381 46.4965 18.54 47.1721 18.8579C47.49 18.0631 47.8278 17.3875 48.3047 16.5927C47.6092 16.0959 45.9202 15.778 44.6883 15.778C39.979 15.778 36.4222 19.3348 36.4222 24.0639V39.1653H39.0054V24.0639C39.0054 20.7257 41.3302 18.381 44.6883 18.381ZM0 22.5736V23.4082C0 27.8989 1.70885 32.0716 4.78874 35.1913C7.86864 38.291 12.0017 39.9999 16.4129 39.9999C19.9696 39.9999 23.1092 39.2051 25.7718 37.6155C27.9575 36.304 28.9311 34.9926 29.0106 34.8733V20.9641H15.7969V23.5473H26.4275V34.0984C25.1757 35.3502 22.215 37.4366 16.4327 37.4366C12.6574 37.4366 9.1602 35.9861 6.57707 33.3632C4.0138 30.7602 2.60301 27.2233 2.60301 23.4281V22.5935C2.60301 18.997 4.2125 15.4203 7.03408 12.7776C9.91528 10.0752 13.6708 8.58495 17.6051 8.58495C21.2811 8.58495 23.8245 9.14131 25.8711 10.3931V7.47221C23.7251 6.55817 21.1619 6.16077 17.5852 6.16077C8.04747 6.16077 0 13.6717 0 22.5736ZM69.248 39.1653V24.0639C69.248 19.4143 65.6117 15.778 60.9621 15.778C58.7962 15.778 56.7297 16.6523 55.1401 18.2419C53.5504 19.8315 52.6761 21.898 52.6761 24.044V26.3689C52.6761 30.8595 56.4714 34.6349 60.9422 34.6349C62.1741 34.6349 63.8433 34.3369 64.8765 33.4824V30.7999C63.8631 31.6146 62.4126 32.0915 60.9422 32.0915C57.7629 32.0915 55.2593 29.5878 55.2593 26.4086V24.0838C55.2593 20.8847 57.7629 18.4009 60.9422 18.4009C64.1413 18.4009 66.6251 20.9045 66.6251 24.0838V39.1852H69.248V39.1653ZM44.6883 13.8903C46.4369 13.8903 47.9669 14.2678 49.3379 15.0428C49.9738 14.2281 50.6295 13.5923 51.1263 13.0955C49.6757 11.9828 47.2118 11.3072 44.7082 11.3072C41.1116 11.3072 37.8529 12.5987 35.5281 14.9633C33.2231 17.2881 31.9514 20.527 31.9514 24.0838V39.1852H34.5346V24.0838C34.5147 18.0829 38.6875 13.8903 44.6883 13.8903ZM100.067 15.0825C97.6426 12.6584 94.4435 11.3072 91.0656 11.3072C88.6016 11.3072 86.1377 12.2212 84.7667 13.1352C81.9451 15.0031 79.6401 17.0497 75.4674 22.4345V26.3092C79.0043 21.6993 82.3425 18.0829 84.8859 16.076C86.555 14.7447 88.9196 13.9102 91.0656 13.9102C96.5895 13.9102 101.239 18.5797 101.239 24.0838V26.4086C101.239 29.1308 100.166 31.6941 98.2189 33.6215C96.2914 35.5291 93.748 36.5822 91.0656 36.5822C86.5351 36.5822 82.5412 33.4626 81.4682 29.2302L79.6401 31.4358C80.9714 35.8867 85.7801 39.1653 91.0656 39.1653C94.4435 39.1653 97.6228 37.8142 100.067 35.39C102.491 32.9459 103.842 29.7667 103.842 26.3887V24.0639C103.842 20.7058 102.491 17.5067 100.067 15.0825Z" fill="#00B45E"/>
</g>
<defs>
<clipPath id="clip0_3981_9238">
<rect width="103.842" height="40" fill="white"/>
</clipPath>
</defs>
</svg>
