<svg width="40" height="40" viewBox="0 0 40 40" fill="none" xmlns="http://www.w3.org/2000/svg">
<rect width="40" height="40" rx="8" fill="#00B45E"/>
<path d="M28.2928 18.0011V14.5996H28.99V17.5236C28.7969 17.6202 28.5341 17.8026 28.2928 18.0011ZM27.0808 19.0258C27.2953 18.7683 27.5152 18.5108 27.7779 18.2908V14.5996H27.0808V19.0258ZM19.0042 21.7299C19.0042 22.6366 19.3635 23.5004 20.0231 24.1603C20.6774 24.8148 21.5408 25.1796 22.4525 25.1796C22.8387 25.1796 23.2355 25.0992 23.5144 24.9597V24.2622C23.1873 24.4017 22.7904 24.4822 22.4525 24.4822C20.9616 24.4822 19.7067 23.2267 19.7067 21.7352V21.1075C19.7067 19.616 20.967 18.3606 22.4525 18.3606C23.1926 18.3606 23.8844 18.6449 24.3993 19.16C24.9141 19.675 25.1984 20.3671 25.1984 21.1075V25.185H25.8955V20.9734C25.8526 20.0828 25.4719 19.2512 24.8283 18.6288C24.1794 18.0065 23.3374 17.6631 22.4525 17.6631C21.5462 17.6631 20.6828 18.0226 20.0231 18.6825C19.3688 19.337 19.0042 20.2008 19.0042 21.1129V21.7299ZM29.4405 20.0559C29.7569 19.7394 30.1644 19.5624 30.5667 19.5624C31.4301 19.5624 32.1005 20.2384 32.1005 21.0968V21.7245C32.1005 22.5883 31.4247 23.2589 30.5667 23.2589C30.1484 23.2589 29.7461 23.0282 29.4297 22.6151C29.1509 22.2503 28.9685 21.7513 28.9417 21.306L28.3786 22.0035C28.4912 22.5293 28.7647 23.039 29.1562 23.3931C29.5584 23.7579 30.0626 23.9618 30.5667 23.9618C31.8001 23.9618 32.803 22.9585 32.803 21.7299V21.1021C32.803 20.5173 32.5671 19.9594 32.138 19.5355C31.709 19.1063 31.1512 18.8702 30.5667 18.8702C30.1966 18.8702 29.6121 19.0044 28.9149 19.6321C28.7272 19.8199 28.2874 20.2598 28.0193 20.571C27.5688 21.0646 26.9199 21.7996 26.3621 22.5454V23.6345C26.9789 22.8404 27.3328 22.3951 27.9174 21.7245C28.4322 21.1129 29.0758 20.3779 29.4405 20.0559ZM12.9655 18.7415V17.9153C12.3326 17.5773 11.6462 17.427 10.7345 17.427C9.80134 17.427 8.91645 17.7704 8.24608 18.3874C7.57035 19.0097 7.20031 19.8252 7.20031 20.6944V20.9197C7.20031 22.7224 8.64294 24.1871 10.4234 24.1871C11.8661 24.1871 12.4614 23.715 12.6115 23.5647V21.467H10.2518V22.1644H11.9572V23.216H11.9519C11.732 23.3018 11.2761 23.4843 10.4234 23.4843C9.74771 23.4843 9.10952 23.2214 8.63758 22.7385C8.16028 22.2556 7.90285 21.6118 7.90285 20.9144V20.689C7.90285 19.2995 9.20069 18.1191 10.7399 18.1191C11.7964 18.1245 12.4292 18.3015 12.9655 18.7415ZM18.0496 19.5624C18.3123 19.5624 18.5376 19.6053 18.7199 19.6911C18.8057 19.4765 18.8969 19.2941 19.0256 19.0795C18.8379 18.9454 18.3821 18.8595 18.0496 18.8595C16.7785 18.8595 15.8186 19.8199 15.8186 21.0968V25.1743H16.5157V21.0968C16.5157 20.1954 17.1432 19.5624 18.0496 19.5624ZM5.98828 20.6944V20.9197C5.98828 22.1322 6.44949 23.2589 7.28075 24.1012C8.11201 24.9382 9.2275 25.3996 10.4181 25.3996C11.378 25.3996 12.2254 25.185 12.944 24.7558C13.5339 24.4017 13.7967 24.0476 13.8182 24.0154V20.2598H10.2518V20.9573H13.121V23.8062C12.7831 24.1442 11.9841 24.7075 10.4234 24.7075C9.40448 24.7075 8.4606 24.3159 7.76342 23.6077C7.0716 22.9048 6.69083 21.9498 6.69083 20.9251V20.6998C6.69083 19.7287 7.12523 18.7629 7.88676 18.0494C8.66439 17.3197 9.67799 16.9173 10.7399 16.9173C11.732 16.9173 12.4185 17.0676 12.9708 17.4056V16.6169C12.3916 16.3701 11.6998 16.2628 10.7345 16.2628C8.16028 16.2628 5.98828 18.2908 5.98828 20.6944ZM24.6782 25.1743V21.0968C24.6782 19.8413 23.6967 18.8595 22.4418 18.8595C21.8572 18.8595 21.2995 19.0956 20.8705 19.5248C20.4414 19.954 20.2055 20.512 20.2055 21.0914V21.7191C20.2055 22.9317 21.2298 23.951 22.4364 23.951C22.7689 23.951 23.2194 23.8705 23.4983 23.6398V22.9156C23.2248 23.1355 22.8333 23.2643 22.4364 23.2643C21.5784 23.2643 20.9026 22.5883 20.9026 21.7299V21.1021C20.9026 20.2384 21.5784 19.5677 22.4364 19.5677C23.2999 19.5677 23.9702 20.2437 23.9702 21.1021V25.1796H24.6782V25.1743ZM18.0496 18.3498C18.5215 18.3498 18.9344 18.4518 19.3045 18.661C19.4761 18.441 19.6531 18.2694 19.7871 18.1352C19.3956 17.8348 18.7306 17.6524 18.0549 17.6524C17.0842 17.6524 16.2047 18.0011 15.5772 18.6395C14.9551 19.2673 14.6119 20.1418 14.6119 21.1021V25.1796H15.3091V21.1021C15.3037 19.4819 16.4299 18.3498 18.0496 18.3498ZM32.9961 18.6717C32.3418 18.0172 31.4784 17.6524 30.5667 17.6524C29.9017 17.6524 29.2367 17.8992 28.8666 18.146C28.1051 18.6503 27.483 19.2029 26.3568 20.6568V21.703C27.3114 20.4583 28.2123 19.4819 28.8988 18.94C29.3493 18.5805 29.9875 18.3552 30.5667 18.3552C32.0576 18.3552 33.3125 19.616 33.3125 21.1021V21.7299C33.3125 22.4649 33.0229 23.157 32.4973 23.6774C31.9771 24.1925 31.2907 24.4768 30.5667 24.4768C29.3439 24.4768 28.266 23.6345 27.9764 22.4917L27.483 23.0872C27.8423 24.289 29.1401 25.1743 30.5667 25.1743C31.4784 25.1743 32.3364 24.8094 32.9961 24.1549C33.6504 23.495 34.015 22.6366 34.015 21.7245V21.0968C34.015 20.1901 33.6504 19.3263 32.9961 18.6717Z" fill="white"/>
</svg>
