<svg width="256" height="40" viewBox="0 0 256 40" fill="none" xmlns="http://www.w3.org/2000/svg">
<g clip-path="url(#clip0_4707_1958)">
<path d="M8.20875 0H0V35.3456H8.20875V0Z" fill="#008269"/>
<path d="M28.4043 0.0564175V13.591H17.5834L10.4297 20.8068H28.4607V35.3456H36.6695V0H28.4607L28.4043 0.0564175Z" fill="#008269"/>
<path d="M75.8422 16.4236C79.0072 14.6464 80.0058 12.2036 79.8929 8.87492C79.7857 4.77337 77.3429 0.164062 69.9635 0.164062H45.2188V35.5096H71.1257C81.6137 35.2332 85.7547 20.0287 75.8422 16.4236ZM69.2921 29.1796L53.5967 29.3093V6.70849H68.7561C69.6292 6.76944 70.4437 7.1695 71.0257 7.82314C71.6076 8.47678 71.9108 9.33215 71.8704 10.2064C71.8704 13.5125 68.2371 13.834 68.2371 13.834H62.6235L55.7406 20.9652L69.2244 20.7057C68.9028 20.7677 73.3372 21.2191 73.3372 25.1344C73.3372 29.0498 69.2921 29.1796 69.2921 29.1796Z" fill="#008269"/>
<path d="M102.307 28.3497H96.1523V0.276367H88.0508V35.5655H88.1072H102.364H113.185L120.339 28.3497H102.307Z" fill="#008269"/>
<path d="M141.101 0.288086H138.398V4.9256H133.321L131.809 7.44182H138.398V12.5815H141.219V0.288086H141.117H141.101Z" fill="#576268"/>
<path d="M131.126 0.292969H128.406V12.5807H131.227V0.292969H131.024H131.126Z" fill="#576268"/>
<path d="M176.258 0.292969H173.438V12.5807H176.258V0.292969Z" fill="#576268"/>
<path d="M156.913 12.5807H153.59L152.682 10.0588H147.948L149.156 7.84727H151.779L149.962 2.91074L146.335 12.5807H143.012L148.151 0.292969H151.779L156.913 12.5807Z" fill="#576268"/>
<path d="M169.106 5.82827C169.709 5.52362 170.516 4.9256 170.516 3.31206C170.516 1.90162 169.912 0.186523 166.888 0.186523H158.629V12.5984H166.787C170.11 12.5984 171.024 10.2796 171.024 8.86917C171.071 8.22391 170.91 7.58061 170.565 7.03343C170.219 6.48624 169.708 6.06391 169.106 5.82827ZM165.879 10.3135L165.986 10.4094H161.472V2.4545H165.704C167.317 2.4545 167.616 2.95662 167.616 3.66184C167.616 4.79019 166.911 4.86916 166.206 4.97072H163.486L162.076 7.3854H166.307C167.114 7.3854 168 7.59413 168 8.80147C167.994 10.1104 167.171 10.3135 165.879 10.3135Z" fill="#576268"/>
<path d="M189.861 5.82827C190.465 5.52362 191.266 4.9256 191.266 3.31206C191.266 1.90162 190.668 0.186523 187.644 0.186523H179.379V12.5984H187.543C190.865 12.5984 191.774 10.2796 191.774 8.86917C191.822 8.22443 191.662 7.58123 191.318 7.03394C190.974 6.48666 190.463 6.0641 189.861 5.82827ZM186.533 10.3135L186.736 10.4094H182.222V2.4545H186.459C188.067 2.4545 188.372 2.95662 188.372 3.66184C188.372 4.79019 187.667 4.86916 186.961 4.97072H184.141L182.73 7.3854H186.916C187.723 7.3854 188.609 7.59413 188.609 8.80147C188.648 10.1104 187.842 10.3135 186.533 10.3135Z" fill="#576268"/>
<path d="M208.688 5.89545C209.252 5.57387 210.008 4.95891 210.008 3.41871C210.008 2.01392 209.405 0.298828 206.381 0.298828H198.121V12.5922H206.279C209.602 12.5922 210.51 10.2735 210.51 8.86302C210.551 8.24058 210.398 7.62081 210.071 7.08926C209.745 6.55771 209.262 6.14058 208.688 5.89545ZM205.275 10.3242L205.472 10.4201H200.959V2.45398H205.19C206.804 2.45398 207.103 2.9561 207.103 3.66132C207.103 4.78967 206.398 4.86864 205.692 4.9702H202.871L201.461 7.38488H205.692C206.499 7.38488 207.385 7.59361 207.385 8.80095C207.391 10.1098 206.584 10.3129 205.275 10.3129V10.3242Z" fill="#576268"/>
<path d="M236.805 0.292969H239.625V12.5807H236.398L230.057 4.01652V12.5807H227.23V0.292969H230.661L236.805 8.8515V0.292969Z" fill="#576268"/>
<path d="M251.113 0.191406H255.243L249.9 5.12229L255.745 12.4791H251.615L247.587 7.04049L245.77 8.75558V12.5807H242.746V0.292958H245.77V5.63005L251.214 0.292958L251.113 0.191406Z" fill="#576268"/>
<path d="M225.421 12.5807H222.098L221.189 10.0588H216.456L217.663 7.84163H220.281L218.47 2.91074L214.843 12.5807H211.52L216.654 0.292969H220.281L225.421 12.5807Z" fill="#576268"/>
<path d="M163.264 27.1027L164.754 24.5244H161.278L159.789 27.1027H163.264Z" fill="#576268"/>
<path d="M170.311 40.0002L171.801 37.4219H168.325L166.836 40.0002H170.311Z" fill="#576268"/>
<path d="M175.276 40.0002L176.766 37.4219H173.29L171.801 40.0002H175.276Z" fill="#576268"/>
<path d="M220.034 40.0002L221.518 37.4219H218.048L216.559 40.0002H220.034Z" fill="#576268"/>
<path d="M224.994 40.0002L226.483 37.4219H223.025L221.535 40.0002H224.994Z" fill="#576268"/>
<path d="M234.522 40.0002L236.012 37.4219H232.536L231.047 40.0002H234.522Z" fill="#576268"/>
<path d="M183.114 40.0002L184.604 37.4219H181.134L179.645 40.0002H183.114Z" fill="#576268"/>
<path d="M206.138 40.0002L207.627 37.4219H204.152L202.668 40.0002H206.138Z" fill="#576268"/>
<path d="M171.898 19.6611H155.92L153.246 22.2394H169.319L171.898 19.6611Z" fill="#576268"/>
<path d="M184.105 32.3612H178.153V27.6954L175.574 30.2737V32.2652H169.617V27.5995L166.937 30.1778V32.1637H155.918V22.7363H153.244V32.1637H130.914V27.498L128.336 30.0762V34.7476H184.206L186.784 32.1637V27.498L184.206 30.0762V32.0678L184.105 32.3612Z" fill="#576268"/>
<path d="M249.205 25.3146H240.573L237.989 27.9944H249.307C249.541 27.9929 249.774 28.038 249.991 28.127C250.208 28.2161 250.405 28.3473 250.571 28.5132C250.737 28.679 250.868 28.8762 250.957 29.0932C251.046 29.3102 251.091 29.5426 251.09 29.7772V32.3611H234.92V27.6954L232.336 30.2737V32.2595H227.671V27.5994L225.092 30.1552V32.1411H219.039V27.4753L216.359 30.0536V32.0395H194.723V27.3738L192.145 29.9577V34.6686H251.09L253.769 32.0846V29.5064C253.76 28.351 253.298 27.2454 252.481 26.4284C251.664 25.6114 250.558 25.1485 249.403 25.1396L249.205 25.3146Z" fill="#576268"/>
</g>
<defs>
<clipPath id="clip0_4707_1958">
<rect width="255.8" height="40" fill="white"/>
</clipPath>
</defs>
</svg>
