<svg width="40" height="40" viewBox="0 0 40 40" fill="none" xmlns="http://www.w3.org/2000/svg">
<rect width="40" height="40" rx="8" fill="#029791"/>
<path d="M6.18284 15.2002H4V24.6021H6.18284V15.2002Z" fill="white"/>
<path d="M11.5532 15.2152V18.8154H8.67573L6.77344 20.7348H11.5682V24.6021H13.751V15.2002H11.5682L11.5532 15.2152Z" fill="white"/>
<path d="M24.1667 19.5682C25.0083 19.0955 25.2739 18.4457 25.2439 17.5602C25.2154 16.4692 24.5658 15.2432 22.6035 15.2432H16.0234V24.645H22.9125C25.7014 24.5715 26.8026 20.5271 24.1667 19.5682ZM22.4249 22.9613L18.2513 22.9958V16.984H22.2824C22.5146 17.0002 22.7312 17.1066 22.8859 17.2805C23.0407 17.4543 23.1213 17.6819 23.1105 17.9144C23.1105 18.7938 22.1444 18.8794 22.1444 18.8794H20.6517L18.8214 20.7762L22.4069 20.7072C22.3214 20.7237 23.5006 20.8438 23.5006 21.8853C23.5006 22.9267 22.4249 22.9613 22.4249 22.9613Z" fill="white"/>
<path d="M31.2052 22.7409H29.5684V15.2734H27.4141V24.6603H27.4291H31.2202H34.0976L35.9999 22.7409H31.2052Z" fill="white"/>
</svg>
