<svg width="134" height="40" viewBox="0 0 134 40" fill="none" xmlns="http://www.w3.org/2000/svg">
<g clip-path="url(#clip0_3981_676)">
<path d="M116.736 25.6557H113.794V27.6759H116.736C117.429 27.6766 118.093 27.9522 118.583 28.4422C119.073 28.9322 119.349 29.5966 119.35 30.2896V31.2113H111.016V19.8477H108.996V33.2315H121.37V30.2896C121.368 29.061 120.88 27.8832 120.011 27.0144C119.142 26.1457 117.965 25.6571 116.736 25.6557Z" fill="black"/>
<path d="M104.197 33.572C104.197 34.0174 104.02 34.4445 103.705 34.7594C103.39 35.0744 102.963 35.2513 102.518 35.2513H101.672V37.2715H102.518C103.499 37.2708 104.439 36.8809 105.133 36.1872C105.827 35.4936 106.217 34.553 106.217 33.572V26.918H104.197V33.572Z" fill="black"/>
<path d="M94.231 24.0647L93.4911 25.6556C93.7664 25.8147 94.077 25.9991 94.4103 26.2086C95.7765 27.0597 97.5138 28.297 98.5618 29.6203C98.678 29.7652 98.7539 29.9383 98.7819 30.1219C98.8098 30.3056 98.7888 30.4934 98.7209 30.6663C98.653 30.8393 98.5406 30.9912 98.3952 31.1068C98.2498 31.2225 98.0764 31.2976 97.8926 31.3248C97.224 31.4253 96.5485 31.4735 95.8724 31.4687H94.3345C93.5385 31.4679 92.7703 31.176 92.1745 30.6481C91.5787 30.1202 91.1964 29.3927 91.0997 28.6026V26.9182H89.0795V30.9586C89.0795 31.0256 89.0529 31.0898 89.0055 31.1372C88.9582 31.1846 88.8939 31.2112 88.827 31.2112H86.3017C85.8735 31.2108 85.4594 31.0582 85.1332 30.7806C84.8071 30.5031 84.5903 30.1187 84.5214 29.696V26.9182H82.4785V29.4056C82.4793 29.5465 82.4877 29.6873 82.5037 29.8273V31.148C82.5031 31.165 82.4959 31.1811 82.4836 31.1928C82.4714 31.2046 82.4551 31.2112 82.4381 31.2112H81.9962C81.3783 31.211 80.7815 30.9862 80.317 30.5788C79.8524 30.1714 79.5517 29.6091 79.4709 28.9965V26.9182H77.428V28.6632C77.4274 28.821 77.4359 28.9786 77.4532 29.1354V30.9586C77.4532 31.0256 77.4266 31.0898 77.3793 31.1372C77.3319 31.1846 77.2677 31.2112 77.2007 31.2112H76.1906C75.7119 31.2105 75.2531 31.0201 74.9146 30.6816C74.5762 30.3431 74.3857 29.8843 74.385 29.4056V26.9182H72.3648V29.4056C72.3648 29.4056 72.3648 29.4309 72.3648 29.4435V32.095C72.3643 32.5038 72.2594 32.9057 72.0602 33.2626C71.8609 33.6195 71.5738 33.9196 71.2261 34.1346C70.8784 34.3495 70.4816 34.4721 70.0732 34.4909C69.6649 34.5096 69.2585 34.4237 68.8926 34.2415C68.3919 33.9689 68.0079 33.5229 67.8126 32.9873C67.6174 32.4517 67.6243 31.8633 67.832 31.3324C67.9705 30.9345 68.1394 30.5478 68.3371 30.1758L66.5694 29.191C66.313 29.6576 66.0943 30.144 65.9154 30.6455C65.6614 31.3022 65.5721 32.011 65.6551 32.7102C65.7382 33.4094 65.9912 34.0775 66.392 34.6564C66.7927 35.2353 67.3291 35.7072 67.9543 36.0311C68.5795 36.3549 69.2744 36.5208 69.9785 36.5142C71.0365 36.5129 72.0591 36.1327 72.861 35.4425C73.6628 34.7522 74.191 33.7976 74.3497 32.7516C74.9164 33.0676 75.5544 33.2337 76.2032 33.2339H77.2133C77.5914 33.2331 77.9633 33.138 78.2953 32.9572C78.6273 32.7764 78.909 32.5157 79.1148 32.1985C79.9293 32.8687 80.9515 33.2347 82.0063 33.2339H82.4482C82.7539 33.2328 83.0557 33.1644 83.3319 33.0334C83.6082 32.9025 83.8522 32.7123 84.0467 32.4763C84.7029 32.9669 85.5 33.2326 86.3194 33.2339H88.8446C89.2402 33.2335 89.6288 33.1298 89.9721 32.9332C90.3153 32.7366 90.6013 32.4537 90.8017 32.1127C91.7678 32.9952 93.0286 33.4851 94.3371 33.4864H95.8623C96.6476 33.4922 97.432 33.4356 98.2083 33.3172C98.7419 33.2367 99.2448 33.0171 99.6667 32.6807C100.089 32.3442 100.415 31.9027 100.612 31.4004C100.809 30.8981 100.871 30.3528 100.791 29.8191C100.71 29.2855 100.491 28.7823 100.155 28.3602C99.2159 27.1733 97.8547 26.0874 96.5946 25.2137L101.554 22.941V20.7188L94.5517 23.9157L94.231 24.0647Z" fill="black"/>
<path d="M116.825 37.2713C117.522 37.2713 118.088 36.706 118.088 36.0087C118.088 35.3114 117.522 34.7461 116.825 34.7461C116.128 34.7461 115.562 35.3114 115.562 36.0087C115.562 36.706 116.128 37.2713 116.825 37.2713Z" fill="black"/>
<path d="M105.208 25.4032C105.905 25.4032 106.471 24.8379 106.471 24.1406C106.471 23.4432 105.905 22.8779 105.208 22.8779C104.511 22.8779 103.945 23.4432 103.945 24.1406C103.945 24.8379 104.511 25.4032 105.208 25.4032Z" fill="black"/>
<path d="M89.0439 37.2713C89.7412 37.2713 90.3065 36.706 90.3065 36.0087C90.3065 35.3114 89.7412 34.7461 89.0439 34.7461C88.3465 34.7461 87.7812 35.3114 87.7812 36.0087C87.7812 36.706 88.3465 37.2713 89.0439 37.2713Z" fill="black"/>
<path d="M85.7626 37.2713C86.46 37.2713 87.0253 36.706 87.0253 36.0087C87.0253 35.3114 86.46 34.7461 85.7626 34.7461C85.0653 34.7461 84.5 35.3114 84.5 36.0087C84.5 36.706 85.0653 37.2713 85.7626 37.2713Z" fill="black"/>
<path d="M80.2079 25.1503C80.9053 25.1503 81.4706 24.585 81.4706 23.8876C81.4706 23.1903 80.9053 22.625 80.2079 22.625C79.5106 22.625 78.9453 23.1903 78.9453 23.8876C78.9453 24.585 79.5106 25.1503 80.2079 25.1503Z" fill="black"/>
<path d="M76.9228 25.1503C77.6201 25.1503 78.1854 24.585 78.1854 23.8876C78.1854 23.1903 77.6201 22.625 76.9228 22.625C76.2255 22.625 75.6602 23.1903 75.6602 23.8876C75.6602 24.585 76.2255 25.1503 76.9228 25.1503Z" fill="black"/>
<path d="M78.6923 22.6249C79.3896 22.6249 79.9549 22.0596 79.9549 21.3622C79.9549 20.6649 79.3896 20.0996 78.6923 20.0996C77.995 20.0996 77.4297 20.6649 77.4297 21.3622C77.4297 22.0596 77.995 22.6249 78.6923 22.6249Z" fill="black"/>
<path d="M23.3508 34.6183C22.6842 35.1461 22.0478 35.7168 21.3458 36.1915C18.7347 37.9592 15.7397 38.7521 12.7195 39.4239C8.95526 40.2799 5.02001 39.9761 1.43166 38.5526C0.762469 38.3001 0.00489378 37.9996 -0.08349 37.189C-0.189551 36.3304 0.547823 35.9087 1.15136 35.492C2.00489 34.9062 2.97712 34.5451 3.91146 34.1107C6.76922 32.824 9.21608 30.773 10.9822 28.184C12.1892 26.4011 12.4973 24.3961 12.4519 22.2875C12.3887 19.1057 12.3913 15.9213 12.3786 12.7395C12.3652 9.26477 12.3601 5.79003 12.3635 2.31528C12.3635 0.466794 13.6261 -0.437246 15.3711 0.206693C18.0616 1.22021 20.5475 2.71036 22.7094 4.60568C22.8458 4.72184 22.9897 4.82538 23.1312 4.93649C23.9317 5.34053 24.4847 6.0375 25.0428 6.68902C27.5049 9.57538 29.1665 12.8633 29.7928 16.6259C30.4594 20.6385 29.7801 24.4542 28.1059 28.1436C27.1197 30.2578 25.8197 32.2108 24.2498 33.9365C23.9897 34.2168 23.7599 34.54 23.3508 34.6183Z" fill="#FEC50A"/>
<path d="M23.3509 34.6181C25.1842 32.7191 26.7676 30.6383 27.8585 28.2217C31.2246 20.7646 30.3383 13.8101 25.3559 7.35046C24.6842 6.47672 23.8408 5.75197 23.1211 4.93632C24.4469 4.01965 25.7928 3.13076 27.1867 2.31763C29.409 1.02217 31.8509 0.499446 34.3585 0.229244C37.3004 -0.0864124 40.2246 -0.00813094 43.0832 0.863081C45.063 1.46409 46.7852 2.555 48.414 3.78985C49.2625 4.43126 49.1716 4.75702 48.1943 5.14844C42.4342 7.44389 38.8231 11.6459 37.4721 17.6636C36.6337 21.401 37.7802 24.8202 39.6867 28.055C41.5933 31.2899 44.5554 33.1939 47.8862 34.6055C48.9292 35.0449 49.2852 35.752 48.1085 36.5828C46.5756 37.6712 44.8256 38.3353 43.0403 38.8555C35.7297 40.9363 29.1261 39.6989 23.3509 34.6181Z" fill="#ED2327"/>
<path d="M97.8835 2.62843C100.204 2.64864 102.113 3.50722 103.545 5.37338C103.815 5.72439 103.848 5.96429 103.383 6.13096C103.256 6.19093 103.134 6.26102 103.017 6.34056C102.57 6.59308 102.146 6.99712 101.671 7.07541C101.166 7.15621 101.027 6.46934 100.661 6.17389C100.078 5.70724 99.386 5.39753 98.6497 5.27424C97.9133 5.15095 97.1577 5.21819 96.4548 5.46957C95.7518 5.72094 95.1248 6.14806 94.6336 6.71028C94.1425 7.2725 93.8033 7.9511 93.6486 8.68146C93.3077 10.3658 93.6133 11.9289 94.9517 13.1183C96.2345 14.2572 97.7547 14.439 99.3683 13.9668C100.146 13.7548 100.822 13.2699 101.272 12.6007C101.459 12.3254 101.593 12.2774 101.876 12.4567C102.409 12.7976 102.954 13.1209 103.517 13.4087C103.871 13.588 103.785 13.7496 103.608 13.9946C102.229 15.9062 100.325 16.8052 98.0072 16.8532C96.4568 16.9125 94.932 16.4459 93.6804 15.5289C92.4288 14.612 91.5241 13.2988 91.1133 11.8027C90.1941 8.55268 91.4567 5.22187 94.2471 3.5552C95.3529 2.92263 96.6098 2.6023 97.8835 2.62843Z" fill="black"/>
<path d="M73.1486 8.48412C73.1486 7.94624 73.3329 7.23917 73.0602 6.92099C72.7445 6.54725 72.0046 6.87553 71.4617 6.78715C70.7344 6.66846 70.492 6.96392 70.6057 7.65079C70.6057 7.67352 70.5577 7.71139 70.5324 7.73917C68.1158 5.60785 65.2294 6.6129 63.9213 8.18866C63.0781 9.235 62.6413 10.5508 62.6914 11.8937C62.7415 13.2366 63.2751 14.5162 64.194 15.4967C65.7673 17.1281 68.7395 17.4387 70.5653 15.575C70.6637 16.6079 70.6637 16.6079 71.7016 16.6079C71.9816 16.5902 72.2625 16.5902 72.5425 16.6079C73.0476 16.6735 73.1663 16.4892 73.1637 15.9967C73.136 13.4917 73.1511 10.9841 73.1486 8.48412ZM67.8935 14.4159C66.3153 14.4159 65.2269 13.3048 65.2319 11.6962C65.237 10.0877 66.3329 8.96391 67.8986 8.96391C69.4642 8.96391 70.6233 10.1205 70.6132 11.7417C70.623 12.0992 70.5589 12.4548 70.425 12.7864C70.2911 13.118 70.0903 13.4185 69.8351 13.669C69.5798 13.9195 69.2757 14.1146 68.9416 14.2423C68.6076 14.3699 68.2508 14.4273 67.8935 14.4109V14.4159Z" fill="black"/>
<path d="M114.995 7.33816C114.995 6.93159 114.929 6.73462 114.464 6.78008C113.998 6.82301 113.529 6.82301 113.063 6.78008C112.573 6.73462 112.363 6.89119 112.447 7.39119C112.452 7.53821 112.443 7.6854 112.419 7.83058C110.727 6.08563 107.962 6.1917 106.323 7.63614C104.368 9.35584 103.926 12.4897 105.391 14.6715C106.181 15.8457 107.242 16.6311 108.694 16.8154C109.377 16.9131 110.074 16.8532 110.73 16.6405C111.387 16.4278 111.986 16.0679 112.482 15.5882C112.161 16.6412 112.735 16.6664 113.399 16.5983C113.748 16.5642 114.1 16.5642 114.449 16.5983C114.909 16.6488 114.987 16.4493 114.987 16.0377C114.975 13.142 114.978 10.2422 114.995 7.33816ZM109.793 14.4089C108.174 14.4089 107.065 13.2978 107.078 11.6639C107.078 10.073 108.207 8.94674 109.775 8.95432C111.343 8.96189 112.449 10.0806 112.452 11.6791C112.454 13.2776 111.376 14.4038 109.793 14.4139V14.4089Z" fill="black"/>
<path d="M127.146 7.75199C128.52 6.41866 130.002 6.21159 131.547 6.82775C133.093 7.44391 133.709 8.76462 133.727 10.3631C133.744 12.2646 133.727 14.151 133.742 16.0651C133.742 16.5121 133.593 16.6308 133.176 16.603C132.547 16.5575 131.734 16.7924 131.34 16.4793C130.946 16.1661 131.214 15.2949 131.201 14.6712C131.179 13.4288 131.201 12.1838 131.201 10.9414C131.201 9.69896 130.573 8.95906 129.467 8.89088C128.204 8.81512 127.28 9.51462 127.217 10.7747C127.133 12.507 127.153 14.2444 127.169 15.9793C127.169 16.4692 127.042 16.6586 126.542 16.6005C125.921 16.5272 125.09 16.8707 124.732 16.4515C124.424 16.0954 124.621 15.2899 124.621 14.6838C124.621 10.9767 124.621 7.26966 124.605 3.57269C124.605 3.00451 124.765 2.82775 125.313 2.88078C125.861 2.93381 126.664 2.70401 127.012 2.99694C127.424 3.34542 127.136 4.14088 127.151 4.74189C127.176 5.70653 127.146 6.65098 127.146 7.75199Z" fill="#010101"/>
<path d="M119.9 16.8651C118.276 16.8348 116.9 16.4106 115.983 14.9939C115.743 14.6227 115.786 14.4232 116.188 14.2565C116.401 14.1621 116.607 14.0498 116.801 13.9207C117.4 13.5469 117.92 13.0924 118.493 14.0697C118.824 14.6378 120.079 14.701 120.721 14.403C120.841 14.3587 120.947 14.2816 121.027 14.1803C121.106 14.0791 121.156 13.9577 121.17 13.8298C121.191 13.6889 121.163 13.545 121.091 13.4226C121.018 13.3001 120.905 13.2066 120.771 13.1581C120.365 12.9788 119.943 12.8373 119.526 12.6934C118.973 12.5015 118.4 12.3601 117.865 12.1328C116.832 11.6959 116.198 10.9232 116.155 9.77169C116.113 9.25416 116.217 8.73518 116.455 8.27365C116.692 7.81212 117.055 7.42651 117.501 7.16058C119.352 5.99138 122.074 6.46866 123.327 8.17068C123.556 8.48633 123.602 8.67572 123.188 8.84492C122.95 8.94343 122.722 9.06524 122.508 9.20855C121.935 9.57471 121.448 9.94088 120.852 9.12269C120.524 8.67067 119.842 8.68078 119.279 8.90553C119.144 8.9457 119.024 9.02494 118.934 9.13326C118.844 9.24158 118.788 9.37411 118.774 9.51411C118.763 9.65645 118.801 9.7983 118.881 9.91596C118.962 10.0336 119.081 10.12 119.218 10.1606C119.579 10.3197 119.955 10.4535 120.332 10.5772C120.865 10.7515 121.415 10.8777 121.938 11.0823C123.072 11.5141 123.736 12.3449 123.796 13.5646C123.851 14.1178 123.736 14.6744 123.469 15.1616C123.201 15.6487 122.792 16.0436 122.296 16.2944C121.555 16.6734 120.733 16.8691 119.9 16.8651Z" fill="black"/>
<path d="M62.179 8.07273C62.179 9.43131 62.1462 10.7899 62.179 12.1485C62.2699 15.3783 59.9063 16.9667 57.0729 16.8556C55.4138 16.7924 54.0275 16.1914 53.0957 14.7343C52.8835 14.401 52.8154 14.1687 53.2548 13.9919C53.4678 13.8936 53.6736 13.7805 53.8709 13.6535C54.2346 13.4439 54.5755 13.1485 54.9694 13.0449C55.4745 12.9263 55.5149 13.55 55.8583 13.7646C56.2516 14.0244 56.7052 14.1785 57.1753 14.2121C57.6455 14.2458 58.1164 14.1577 58.5426 13.9566C59.3659 13.5828 59.4896 12.8227 59.4846 12.0045C59.4846 9.16869 59.4846 6.33536 59.4694 3.4995C59.4694 3.00707 59.6007 2.8404 60.0931 2.88081C60.6075 2.92122 61.1242 2.92122 61.6386 2.88081C62.0856 2.84545 62.1866 3.0096 62.1815 3.43384C62.1638 4.97929 62.179 6.52475 62.179 8.07273Z" fill="black"/>
<path d="M85.9766 14.2112C87.3705 14.2112 88.5852 14.2264 89.7998 14.2112C90.1988 14.2112 90.3049 14.3248 90.3049 14.7163C90.3377 16.6052 90.3503 16.6052 88.4968 16.6052C86.714 16.6052 84.9311 16.59 83.1508 16.6052C82.6938 16.6052 82.57 16.489 82.5523 16.0218C82.5074 15.2776 82.7405 14.5433 83.2064 13.9612C84.373 12.4461 85.4614 10.8577 86.6736 9.16324C85.5145 9.16324 84.4766 9.14051 83.4412 9.16324C82.9362 9.18091 82.714 9.09253 82.7266 8.49657C82.7645 6.76172 82.7266 6.76172 84.4766 6.76172C86.1635 6.76172 87.8528 6.76172 89.5397 6.76172C89.9513 6.76172 90.0826 6.84 90.1104 7.2895C90.1681 8.05859 89.9286 8.82051 89.4412 9.41829C88.2897 10.9562 87.1938 12.5243 85.9766 14.2112Z" fill="black"/>
<path d="M78.4235 9.18139C77.2164 9.18139 76.1508 9.16372 75.075 9.18139C74.6685 9.18139 74.4715 9.12583 74.5169 8.65614C74.575 8.05513 74.3351 7.25715 74.6407 6.88846C74.9462 6.51977 75.7871 6.77988 76.3882 6.77483C78.0296 6.75968 79.671 6.77483 81.3124 6.75968C81.7265 6.75968 81.8629 6.84301 81.8806 7.29503C81.9312 8.03945 81.7005 8.77575 81.2341 9.35816C80.0498 10.8935 78.9437 12.492 77.7164 14.1915C79.0195 14.1915 80.2013 14.2142 81.378 14.1789C81.8831 14.1637 82.1104 14.2521 82.0447 14.8177C81.9791 15.3834 82.219 16.1157 81.9361 16.4491C81.6003 16.843 80.8351 16.5703 80.2568 16.5753C78.4892 16.5955 76.6937 16.5753 74.9109 16.593C74.4614 16.593 74.3124 16.492 74.3023 16.0147C74.2594 15.3057 74.4727 14.6049 74.9033 14.04C76.0977 12.4895 77.1988 10.8859 78.4235 9.18139Z" fill="black"/>
</g>
<defs>
<clipPath id="clip0_3981_676">
<rect width="133.737" height="40" fill="white"/>
</clipPath>
</defs>
</svg>
