<svg width="40" height="40" viewBox="0 0 40 40" fill="none" xmlns="http://www.w3.org/2000/svg">
<rect x="0.5" y="0.5" width="39" height="39" rx="7.5" fill="white"/>
<rect x="0.5" y="0.5" width="39" height="39" rx="7.5" stroke="#8D8D8D"/>
<path d="M19.3533 27.3526C19.0191 27.6172 18.7001 27.9033 18.3482 28.1412C17.0394 29.0273 15.5382 29.4247 14.0243 29.7615C12.1374 30.1905 10.1649 30.0383 8.36618 29.3248C8.03075 29.1982 7.65101 29.0475 7.60671 28.6412C7.55354 28.2109 7.92315 27.9995 8.22568 27.7906C8.65352 27.4969 9.14085 27.3159 9.6092 27.0982C11.0417 26.4532 12.2682 25.4252 13.1534 24.1274C13.7585 23.2337 13.9129 22.2287 13.8901 21.1717C13.8585 19.5768 13.8597 17.9807 13.8534 16.3858C13.8467 14.644 13.8441 12.9023 13.8458 11.1605C13.8458 10.234 14.4787 9.78083 15.3534 10.1036C16.702 10.6116 17.9481 11.3586 19.0318 12.3086C19.1001 12.3669 19.1723 12.4188 19.2432 12.4744C19.6444 12.677 19.9216 13.0263 20.2014 13.3529C21.4355 14.7997 22.2684 16.4478 22.5823 18.3338C22.9165 20.3452 22.576 22.2578 21.7368 24.1071C21.2424 25.1669 20.5908 26.1458 19.8039 27.0109C19.6735 27.1514 19.5583 27.3134 19.3533 27.3526Z" fill="#FEC50A"/>
<path d="M19.3535 27.353C20.2724 26.4011 21.0661 25.3581 21.6129 24.1467C23.3002 20.4088 22.8559 16.9228 20.3585 13.6849C20.0218 13.2469 19.599 12.8836 19.2383 12.4748C19.9028 12.0153 20.5775 11.5697 21.2762 11.1621C22.3901 10.5128 23.6141 10.2508 24.8711 10.1153C26.3457 9.9571 27.8115 9.99634 29.2444 10.433C30.2368 10.7343 31.1001 11.2811 31.9165 11.9001C32.3418 12.2216 32.2962 12.3849 31.8064 12.5811C28.9191 13.7317 27.109 15.838 26.4318 18.8544C26.0116 20.7278 26.5862 22.4417 27.5419 24.0632C28.4976 25.6846 29.9824 26.6391 31.6519 27.3466C32.1747 27.5669 32.3532 27.9213 31.7633 28.3378C30.995 28.8833 30.1178 29.2162 29.2229 29.477C25.5584 30.52 22.2483 29.8998 19.3535 27.353Z" fill="#ED2327"/>
</svg>
