<svg width="52" height="40" viewBox="0 0 52 40" fill="none" xmlns="http://www.w3.org/2000/svg">
<path d="M50.944 32.0874C50.944 36.4469 47.3941 39.9968 43.0346 39.9968H0V8.67063C0 4.31112 3.54989 0.76123 7.9094 0.76123H50.944V32.0874Z" fill="white"/>
<path d="M36.9297 24.0533H40.1993C40.2927 24.0533 40.5107 24.0222 40.6041 24.0222C41.2269 23.8976 41.7563 23.3371 41.7563 22.5587C41.7563 21.8113 41.2269 21.2508 40.6041 21.0951C40.5107 21.064 40.3239 21.064 40.1993 21.064H36.9297V24.0533Z" fill="url(#paint0_linear_3981_5084)"/>
<path d="M39.8274 3.40771C36.7135 3.40771 34.16 5.93 34.16 9.07508V14.9604H42.1629C42.3497 14.9604 42.5677 14.9604 42.7234 14.9916C44.5295 15.085 45.8684 16.0192 45.8684 17.6384C45.8684 18.9151 44.9654 20.005 43.2839 20.223V20.2852C45.1211 20.4098 46.5224 21.4374 46.5224 23.0255C46.5224 24.7382 44.9654 25.8592 42.9102 25.8592H34.1289V37.3807H42.4431C45.557 37.3807 48.1105 34.8585 48.1105 31.7134V3.40771H39.8274Z" fill="url(#paint1_linear_3981_5084)"/>
<path d="M41.3515 18.0122C41.3515 17.2649 40.8221 16.7666 40.1993 16.6732C40.137 16.6732 39.9813 16.6421 39.8879 16.6421H36.9297V19.3824H39.8879C39.9813 19.3824 40.1682 19.3824 40.1993 19.3512C40.8221 19.2578 41.3515 18.7596 41.3515 18.0122Z" fill="url(#paint2_linear_3981_5084)"/>
<path d="M8.49928 3.40771C5.38535 3.40771 2.83192 5.93 2.83192 9.07508V23.0566C4.42003 23.8351 6.07041 24.3334 7.7208 24.3334C9.68258 24.3334 10.7413 23.1501 10.7413 21.5308V14.9293H15.5991V21.4997C15.5991 24.0531 14.0109 26.1394 8.62384 26.1394C5.35421 26.1394 2.80078 25.4232 2.80078 25.4232V37.3496H11.115C14.2289 37.3496 16.7823 34.8273 16.7823 31.6822V3.40771H8.49928Z" fill="url(#paint3_linear_3981_5084)"/>
<path d="M24.1635 3.40771C21.0495 3.40771 18.4961 5.93 18.4961 9.07508V16.4862C19.9285 15.2718 22.4197 14.4933 26.4366 14.6802C28.5852 14.7736 30.8896 15.3652 30.8896 15.3652V17.763C29.7374 17.1713 28.3673 16.6419 26.5923 16.5174C23.5407 16.2994 21.7034 17.7941 21.7034 20.4098C21.7034 23.0566 23.5407 24.5513 26.5923 24.3022C28.3673 24.1777 29.7374 23.6172 30.8896 23.0566V25.4544C30.8896 25.4544 28.6164 26.046 26.4366 26.1394C22.4197 26.3263 19.9285 25.5478 18.4961 24.3334V37.4119H26.8103C29.9242 37.4119 32.4777 34.8896 32.4777 31.7445V3.40771H24.1635Z" fill="url(#paint4_linear_3981_5084)"/>
<defs>
<linearGradient id="paint0_linear_3981_5084" x1="34.153" y1="22.5624" x2="48.1464" y2="22.5624" gradientUnits="userSpaceOnUse">
<stop stop-color="#007940"/>
<stop offset="0.229" stop-color="#00873F"/>
<stop offset="0.743" stop-color="#40A737"/>
<stop offset="1" stop-color="#5CB531"/>
</linearGradient>
<linearGradient id="paint1_linear_3981_5084" x1="34.1544" y1="20.3805" x2="48.1488" y2="20.3805" gradientUnits="userSpaceOnUse">
<stop stop-color="#007940"/>
<stop offset="0.229" stop-color="#00873F"/>
<stop offset="0.743" stop-color="#40A737"/>
<stop offset="1" stop-color="#5CB531"/>
</linearGradient>
<linearGradient id="paint2_linear_3981_5084" x1="34.1527" y1="18.0082" x2="48.1464" y2="18.0082" gradientUnits="userSpaceOnUse">
<stop stop-color="#007940"/>
<stop offset="0.229" stop-color="#00873F"/>
<stop offset="0.743" stop-color="#40A737"/>
<stop offset="1" stop-color="#5CB531"/>
</linearGradient>
<linearGradient id="paint3_linear_3981_5084" x1="2.82538" y1="20.3805" x2="17.0352" y2="20.3805" gradientUnits="userSpaceOnUse">
<stop stop-color="#1F286F"/>
<stop offset="0.475" stop-color="#004E94"/>
<stop offset="0.826" stop-color="#0066B1"/>
<stop offset="1" stop-color="#006FBC"/>
</linearGradient>
<linearGradient id="paint4_linear_3981_5084" x1="18.4154" y1="20.3805" x2="32.2167" y2="20.3805" gradientUnits="userSpaceOnUse">
<stop stop-color="#6C2C2F"/>
<stop offset="0.173" stop-color="#882730"/>
<stop offset="0.573" stop-color="#BE1833"/>
<stop offset="0.859" stop-color="#DC0436"/>
<stop offset="1" stop-color="#E60039"/>
</linearGradient>
</defs>
</svg>
