<svg width="40" height="40" viewBox="0 0 40 40" fill="none" xmlns="http://www.w3.org/2000/svg">
<rect x="0.5" y="0.5" width="39" height="39" rx="7.5" fill="white"/>
<rect x="0.5" y="0.5" width="39" height="39" rx="7.5" stroke="#8D8D8D"/>
<path d="M32 25.5539C32 27.6071 30.3276 29.2791 28.2738 29.2791H8V14.525C8 12.4717 9.67237 10.7998 11.7262 10.7998H32V25.5539Z" fill="white"/>
<path d="M25.3984 21.7702H26.9388C26.9828 21.7702 27.0855 21.7556 27.1295 21.7556C27.4229 21.6969 27.6723 21.4329 27.6723 21.0663C27.6723 20.7143 27.4229 20.4503 27.1295 20.377C27.0855 20.3623 26.9975 20.3623 26.9388 20.3623H25.3984V21.7702Z" fill="url(#paint0_linear_3981_5094)"/>
<path d="M26.7627 12.0464C25.2957 12.0464 24.0928 13.2343 24.0928 14.7156V17.4875H27.863C27.951 17.4875 28.0537 17.4875 28.127 17.5022C28.9779 17.5462 29.6087 17.9861 29.6087 18.7488C29.6087 19.3501 29.1833 19.8634 28.3911 19.9661V19.9954C29.2566 20.0541 29.9168 20.538 29.9168 21.286C29.9168 22.0926 29.1833 22.6206 28.215 22.6206H24.0781V28.0471H27.995C29.462 28.0471 30.6649 26.8591 30.6649 25.3778V12.0464H26.7627Z" fill="url(#paint1_linear_3981_5094)"/>
<path d="M27.4816 18.9246C27.4816 18.5726 27.2322 18.338 26.9388 18.294C26.9094 18.294 26.8361 18.2793 26.7921 18.2793H25.3984V19.5699H26.7921C26.8361 19.5699 26.9241 19.5699 26.9388 19.5552C27.2322 19.5112 27.4816 19.2766 27.4816 18.9246Z" fill="url(#paint2_linear_3981_5094)"/>
<path d="M12.0049 12.0464C10.5379 12.0464 9.33498 13.2343 9.33498 14.7156V21.3007C10.0831 21.6673 10.8607 21.902 11.6382 21.902C12.5624 21.902 13.0611 21.3447 13.0611 20.582V17.4728H15.3497V20.5674C15.3497 21.77 14.6015 22.7526 12.0636 22.7526C10.5232 22.7526 9.32031 22.4153 9.32031 22.4153V28.0324H13.2372C14.7042 28.0324 15.9071 26.8445 15.9071 25.3632V12.0464H12.0049Z" fill="url(#paint3_linear_3981_5094)"/>
<path d="M19.3848 12.0464C17.9178 12.0464 16.7148 13.2343 16.7148 14.7156V18.2061C17.3897 17.6342 18.5633 17.2675 20.4557 17.3555C21.4679 17.3995 22.5535 17.6782 22.5535 17.6782V18.8074C22.0107 18.5288 21.3652 18.2795 20.529 18.2208C19.0914 18.1181 18.2258 18.8221 18.2258 20.0541C18.2258 21.3007 19.0914 22.0047 20.529 21.8873C21.3652 21.8287 22.0107 21.5647 22.5535 21.3007V22.43C22.5535 22.43 21.4826 22.7086 20.4557 22.7526C18.5633 22.8406 17.3897 22.474 16.7148 21.902V28.0617H20.6317C22.0987 28.0617 23.3016 26.8738 23.3016 25.3925V12.0464H19.3848Z" fill="url(#paint4_linear_3981_5094)"/>
<defs>
<linearGradient id="paint0_linear_3981_5094" x1="24.0903" y1="21.068" x2="30.6827" y2="21.068" gradientUnits="userSpaceOnUse">
<stop stop-color="#007940"/>
<stop offset="0.229" stop-color="#00873F"/>
<stop offset="0.743" stop-color="#40A737"/>
<stop offset="1" stop-color="#5CB531"/>
</linearGradient>
<linearGradient id="paint1_linear_3981_5094" x1="24.0902" y1="20.0403" x2="30.683" y2="20.0403" gradientUnits="userSpaceOnUse">
<stop stop-color="#007940"/>
<stop offset="0.229" stop-color="#00873F"/>
<stop offset="0.743" stop-color="#40A737"/>
<stop offset="1" stop-color="#5CB531"/>
</linearGradient>
<linearGradient id="paint2_linear_3981_5094" x1="24.0902" y1="18.9227" x2="30.6827" y2="18.9227" gradientUnits="userSpaceOnUse">
<stop stop-color="#007940"/>
<stop offset="0.229" stop-color="#00873F"/>
<stop offset="0.743" stop-color="#40A737"/>
<stop offset="1" stop-color="#5CB531"/>
</linearGradient>
<linearGradient id="paint3_linear_3981_5094" x1="9.3319" y1="20.0403" x2="16.0262" y2="20.0403" gradientUnits="userSpaceOnUse">
<stop stop-color="#1F286F"/>
<stop offset="0.475" stop-color="#004E94"/>
<stop offset="0.826" stop-color="#0066B1"/>
<stop offset="1" stop-color="#006FBC"/>
</linearGradient>
<linearGradient id="paint4_linear_3981_5094" x1="16.6768" y1="20.0403" x2="23.1787" y2="20.0403" gradientUnits="userSpaceOnUse">
<stop stop-color="#6C2C2F"/>
<stop offset="0.173" stop-color="#882730"/>
<stop offset="0.573" stop-color="#BE1833"/>
<stop offset="0.859" stop-color="#DC0436"/>
<stop offset="1" stop-color="#E60039"/>
</linearGradient>
</defs>
</svg>
