<svg width="44" height="40" viewBox="0 0 44 40" fill="none" xmlns="http://www.w3.org/2000/svg">
<g clip-path="url(#clip0_3981_9348)">
<path d="M1.44548 39.2146C0.620479 38.7848 -0.0295209 38.4083 0.0010347 38.3778C0.106405 38.2724 4.054 37.43 6.81067 36.9248C12.7759 35.8313 19.8681 34.9561 26.9323 34.4417C29.8416 34.2298 40.3666 34.2228 42.192 34.4315L43.3888 34.5683L42.0397 34.5893C39.6449 34.6265 34.1529 35.0107 29.8497 35.4422C21.7046 36.2589 12.6496 37.7648 6.09881 39.3919C4.76085 39.7241 3.50418 39.9957 3.30585 39.9957C3.1077 39.9957 2.27048 39.6443 1.44548 39.2146ZM12.8331 31.0163C12.7107 30.6782 13.2227 30.5269 13.446 30.4307C14.4488 30.0007 15.1546 29.3 15.3907 28.4996C15.5036 28.1167 15.8479 25.9519 16.1555 23.6891C16.4631 21.4263 16.7396 19.6761 16.7697 19.5733C16.7921 19.4974 16.8527 19.2274 17.1773 19.1983C18.0059 19.1904 18.621 19.2009 19.4701 19.2009C19.9392 19.1559 19.847 19.6691 19.8101 19.998C19.7733 20.4132 19.6616 21.215 19.5312 22.193C19.3725 23.3861 19.1353 25.1693 19.004 26.1556C18.709 28.3724 18.5455 29.055 18.0355 30.1969C17.4284 31.5556 16.5007 32.345 14.8188 32.9067C14.4792 33.0132 13.5051 33.3444 13.3992 33.05C13.1794 32.3452 13.0233 31.7326 12.8331 31.0163ZM32.1471 30.273C31.0264 29.8206 31.0792 28.0732 32.2549 27.3563C32.999 26.9026 34.0444 26.9796 34.5816 27.5169C35.9051 28.8406 33.9588 31.0039 32.1471 30.273ZM23.6757 29.2291C20.3805 28.6663 20.4025 24.7374 21.1407 22.4922C22.0651 19.8935 24.3177 19.1385 26.1692 19.0726C27.7316 19.0191 29.8977 19.3096 30.4414 19.6457C30.5918 19.7385 30.521 20.6393 30.1016 23.9791C29.8103 26.298 29.4918 28.292 29.3936 28.4102C28.872 29.0389 25.3764 29.5394 23.6757 29.2291ZM26.5503 26.1198C26.904 24.8037 27.0533 23.6156 27.3062 22.2272C27.2747 21.7487 26.4671 21.7454 26.2616 21.7443C25.1918 21.7443 24.5599 22.3448 24.2249 23.68C23.7657 25.5113 24.2453 26.5315 25.5657 26.5315C25.9831 26.4928 26.4186 26.5159 26.5503 26.1198ZM2.46715 28.1689C3.36789 25.9685 6.98567 18.0894 7.854 16.4578C8.01807 16.0509 8.45029 15.9707 8.74622 15.9422C9.59715 15.9033 10.3327 15.9137 11.0799 15.9191C11.8499 15.9259 11.8612 16.1961 11.9603 16.7683C12.0814 17.3385 13.5836 26.3074 13.9236 28.4604C13.967 28.8178 14.0546 28.9291 13.5892 28.9298C12.9444 28.9317 11.3923 29.0156 10.8657 28.9757C10.6973 28.9539 10.5877 28.8435 10.5616 28.7193C10.5134 28.4883 10.4592 28.092 10.4221 27.6787L10.3262 26.6063H8.39326H6.46011L6.03752 27.6376C5.88715 28.0043 5.72289 28.3661 5.60048 28.6063C5.51474 28.8265 5.38696 28.928 5.19567 28.9696C4.72252 28.9656 3.04548 29.0278 2.41492 28.9722C2.10307 28.8289 2.38511 28.3693 2.46715 28.1689ZM9.98548 23.62C9.93066 23.0406 9.56085 20.0522 9.474 19.6106C9.45122 19.5632 9.44048 19.5787 9.41696 19.6067C9.18863 19.9494 7.95289 22.9826 7.74252 23.687C7.71715 23.7841 7.7803 23.8198 7.87215 23.8119C8.18567 23.7904 9.46678 23.7665 9.85641 23.7515C9.96752 23.743 9.97844 23.7041 9.98548 23.62ZM32.2959 25.073C32.3459 24.682 32.4553 23.6219 32.5392 22.7167C32.6231 21.8115 32.7573 20.3978 32.8375 19.575C32.8984 18.9506 32.9521 18.3444 32.9753 18.0256C33.0221 17.7396 33.3679 17.7059 33.5949 17.7037C34.3521 17.7117 35.0651 17.6669 35.7462 17.7296C36.0681 17.7626 36.2025 17.8337 36.2038 18.0252C35.8968 19.6004 34.7933 25.0354 34.7084 25.372C34.6351 25.6622 34.6055 25.7478 34.1625 25.773C33.6197 25.7643 33.1671 25.7926 32.6166 25.7898C32.3009 25.7857 32.2164 25.6932 32.2959 25.073ZM17.0164 16.9983C17.0164 16.0382 17.6342 15.3063 18.4079 14.9983C19.0764 14.7641 19.8257 14.765 20.2246 15.2207C20.9325 16.0437 20.4679 17.2596 19.641 17.8932C18.5814 18.622 17.0336 18.1913 17.0164 16.9983ZM35.999 14.9746C35.7677 14.4604 35.0253 12.838 34.3494 11.3693C33.6734 9.90056 33.156 8.60593 33.1997 8.49204C33.2434 8.37834 33.9968 7.44241 34.874 6.4126L36.3016 4.73593C36.3949 4.62315 36.5021 4.48482 36.6316 4.48315C37.4921 4.48741 38.3836 4.53889 39.2047 4.53074C39.8162 4.52556 40.124 4.48593 39.6703 4.9463C39.3799 5.30593 38.8073 5.96426 38.1527 6.68667C37.2064 7.73056 36.4323 8.6126 36.4323 8.64686C36.4323 8.68093 37.1418 10.2398 38.009 12.1111C38.6905 13.5813 39.2533 14.8963 39.4429 15.4456C39.524 15.632 39.4529 15.7917 39.2796 15.8352C39.0501 15.8885 38.637 15.9096 37.9266 15.9096H36.8625C36.6027 15.9369 36.4114 15.8913 36.3114 15.6689L35.999 14.9746ZM4.15381 13.88C3.19622 13.4028 2.74363 12.7989 2.66104 11.8887C2.61159 11.3432 3.50418 4.00963 3.89937 1.67778C3.99585 1.13019 4.0377 1.09889 4.5627 1.09889H5.59567C6.13826 1.09889 6.63215 1.08982 6.94289 1.10741C7.36733 1.11371 7.28974 1.38111 7.25733 1.70148C7.18437 2.41648 6.95696 3.96556 6.67159 5.96019C6.16511 9.49908 6.03622 10.7478 6.15733 10.9404C6.29918 11.1652 6.65918 11.2022 9.04492 11.238L11.179 11.27C11.6871 11.2417 11.7923 11.3665 11.7421 11.8228C11.6177 12.5783 11.5496 13.1802 11.4257 13.857C11.3407 14.2794 11.0681 14.1689 10.6434 14.1948L8.14863 14.2294C4.94955 14.2696 4.93252 14.268 4.15381 13.88ZM28.7614 14.1519C28.729 14.0902 28.8183 13.2319 28.9597 12.2444C29.101 11.257 29.3964 9.1363 29.6159 7.53186C30.2392 2.97686 30.4438 1.60445 30.5307 1.07945C30.6223 0.46667 30.6229 0.500559 31.2233 0.500559H32.1753C32.5468 0.500559 32.8368 0.495744 33.0607 0.502966C33.9157 0.530744 33.8068 0.457041 33.591 1.78111C33.5096 2.28149 33.2381 4.48371 32.9877 6.335C32.3573 10.9972 31.9438 13.8559 31.8681 14.077C31.797 14.2843 28.8677 14.3548 28.7614 14.1519ZM12.4957 13.797C12.8927 10.4654 13.272 7.94611 13.7131 4.84574C13.746 4.47463 14.1109 4.43167 14.5371 4.43111C15.022 4.43074 15.5147 4.42426 15.9764 4.43963C16.8707 4.4426 17.1059 4.56241 17.0131 5.16074C16.617 8.0713 16.1273 10.6689 15.6131 13.6282C15.517 14.1293 15.3997 14.1144 14.9209 14.1144C14.3634 14.1163 13.3742 14.135 12.8688 14.1209C12.5731 14.0687 12.5059 14.0352 12.4957 13.797ZM18.8075 6.33852C19.0529 5.05019 19.2229 4.84908 19.5792 4.61556C20.019 4.3276 23.2675 4.02741 24.389 4.17111C24.5457 4.19352 24.6947 4.22167 24.8366 4.25556C28.1225 5.03593 27.6118 8.75649 27.3981 10.4682C27.1729 12.1033 26.952 13.5928 26.907 13.7778C26.8286 14.1 26.7586 14.1144 25.2705 14.1144C24.7707 14.1144 24.5094 14.0972 24.2249 14.0706C23.7653 14.0406 23.7227 13.9372 23.7686 13.603C23.936 12.2369 24.162 11.0587 24.3303 9.7826C24.557 8.04111 24.4966 6.32186 22.3359 6.69149C21.9655 6.78537 21.8642 6.81519 21.8131 7.18445C21.5434 8.90463 21.3066 10.6817 21.0599 12.3643C21.0057 12.7657 20.9301 13.1854 20.8525 13.5574C20.8323 13.652 20.8214 13.7369 20.8042 13.7996C20.7821 13.8739 20.731 13.9509 20.6821 13.8746C20.3349 13.2422 18.7012 13.3476 18.0196 13.8117C17.6775 14.0494 17.6071 14.1772 17.7468 13.4526C17.7714 13.2989 17.7953 13.1454 17.8186 12.992C18.157 10.7722 18.3849 8.58852 18.8075 6.33852ZM14.1431 2.52574C13.7781 1.28093 14.8647 0.0505591 16.0816 0.00778131C17.7307 -0.102404 18.1859 2.16556 16.4988 3.19426C15.5218 3.6413 14.4947 3.54648 14.1431 2.52574Z" fill="#E9232A"/>
</g>
<defs>
<clipPath id="clip0_3981_9348">
<rect width="43.3889" height="40" fill="white"/>
</clipPath>
</defs>
</svg>
