<svg width="232" height="40" viewBox="0 0 232 40" fill="none" xmlns="http://www.w3.org/2000/svg">
<g clip-path="url(#clip0_3981_9157)">
<path d="M20.005 40.01C31.0534 40.01 40.01 31.0534 40.01 20.005C40.01 8.95654 31.0534 0 20.005 0C8.95654 0 0 8.95654 0 20.005C0 31.0534 8.95654 40.01 20.005 40.01Z" fill="#EB001B"/>
<path d="M44.169 40.01C55.2175 40.01 64.174 31.0534 64.174 20.005C64.174 8.95654 55.2175 0 44.169 0C33.1206 0 24.1641 8.95654 24.1641 20.005C24.1641 31.0534 33.1206 40.01 44.169 40.01Z" fill="#F79E1B"/>
<path d="M32.0823 4.02881C36.899 7.67877 40.0005 13.4629 40.0005 19.965C40.0005 26.4671 36.899 32.2612 32.0823 35.9111C27.2655 32.2612 24.1641 26.4771 24.1641 19.965C24.1641 13.4529 27.2755 7.67877 32.0823 4.02881Z" fill="#FF5F00"/>
<path d="M62.9253 33.2886V33.4581H62.5563V34.4155H62.3768V33.4581H62.0078V33.2886H62.9253ZM64.3314 33.2886V34.4155H64.1519V33.488L63.8228 34.3058H63.6234L63.2943 33.498V34.4155H63.1148V33.2886H63.394L63.7231 34.0964L64.0522 33.2886H64.3314Z" fill="#F79E1B"/>
<path d="M88.4407 16.1338C91.7164 16.1338 94.0367 18.381 94.0367 21.6043V30.2527H91.0112V22.6031C91.0112 20.2877 89.8055 18.9939 87.8037 18.9939C85.8701 18.9939 84.2323 20.265 84.2323 22.6258V30.2527H81.2068V22.6031C81.2068 20.2877 80.0239 18.9939 77.9993 18.9939C76.0657 18.9939 74.4278 20.265 74.4278 22.6258V30.2527H71.4023V16.497H74.4051V18.1767C75.5198 16.5424 77.2259 16.1338 78.6362 16.1338C80.7291 16.1338 82.4579 17.0645 83.3906 18.5853C84.5962 16.6332 86.7346 16.1338 88.4407 16.1338ZM111.302 16.497V30.2527H108.3V28.5956C107.344 29.8214 105.934 30.6159 103.978 30.6159C100.11 30.6159 97.0849 27.5969 97.0849 23.3748C97.0849 19.1528 100.133 16.1338 103.978 16.1338C105.934 16.1338 107.367 16.9283 108.3 18.154V16.497H111.302ZM104.319 18.9712C101.726 18.9712 100.156 20.9687 100.156 23.3748C100.156 25.7809 101.726 27.7785 104.319 27.7785C106.798 27.7785 108.482 25.8717 108.482 23.3748C108.482 20.8552 106.821 18.9712 104.319 18.9712ZM126.157 17.6092L124.86 19.9473C124.019 19.4252 122.313 18.7669 120.606 18.7669C118.969 18.7669 117.99 19.4252 117.99 20.4012C117.99 21.3546 118.991 21.627 120.265 21.8313L121.698 22.0583C124.701 22.4896 126.498 23.7607 126.498 26.1214C126.498 28.7545 124.201 30.6159 120.22 30.6159C118.787 30.6159 116.33 30.3435 114.305 28.8453L115.693 26.5981C116.694 27.3699 117.99 28.0055 120.243 28.0055C122.29 28.0055 123.382 27.3699 123.382 26.3257C123.382 25.5539 122.631 25.0319 120.993 24.8049L119.56 24.6233C116.512 24.2147 114.874 22.8073 114.874 20.5828C114.874 17.8589 117.058 16.1792 120.584 16.1792C122.722 16.1565 124.724 16.6786 126.157 17.6092ZM138.873 16.497V19.2209H133.596V25.2135C133.596 27.0748 134.574 27.7785 135.779 27.7785C136.712 27.7785 137.736 27.3699 138.555 26.8478L139.738 29.2539C138.623 30.003 137.235 30.6159 135.506 30.6159C132.39 30.6159 130.547 28.9361 130.547 25.2816V19.2209H127.795V16.497H130.547V12.343H133.573V16.497H138.873ZM147.859 16.1338C151.726 16.1338 154.365 19.062 154.387 23.3521C154.387 23.738 154.365 24.1239 154.319 24.4644H144.128C144.537 26.9386 146.266 27.9601 148.223 27.9601C149.61 27.9601 151.066 27.4153 152.204 26.5073L153.705 28.641C152.022 30.0711 150.111 30.5705 148.041 30.5705C143.901 30.5705 140.989 27.6877 140.989 23.3294C141.012 19.062 143.81 16.1338 147.859 16.1338ZM147.813 18.8123C145.675 18.8123 144.469 20.1969 144.151 22.1945H151.294C150.975 20.0607 149.724 18.8123 147.813 18.8123ZM164.533 16.1338C165.443 16.1338 166.148 16.2473 166.853 16.5197L166.125 19.4933C165.488 19.1528 164.579 18.9939 163.828 18.9939C161.917 18.9939 160.552 20.3331 160.552 22.6938V30.2527H157.549V16.497H160.529V18.0405C161.439 16.7467 162.85 16.1338 164.533 16.1338ZM175.065 16.1338C177.113 16.1338 179.001 16.8829 180.206 18.3356L178.273 20.3785C177.317 19.4706 176.294 18.9485 174.952 18.9485C172.631 18.9485 170.88 20.7644 170.88 23.3521C170.88 25.9398 172.631 27.7558 174.952 27.7558C176.271 27.7558 177.454 27.1429 178.341 26.3257L180.206 28.3913C178.955 29.8441 177.113 30.5932 175.065 30.5932C170.675 30.5932 167.809 27.4834 167.809 23.3521C167.809 19.2436 170.675 16.1338 175.065 16.1338ZM195.971 16.497V30.2527H192.968V28.5956C192.013 29.8214 190.602 30.6159 188.646 30.6159C184.779 30.6159 181.753 27.5969 181.753 23.3748C181.753 19.1528 184.779 16.1338 188.646 16.1338C190.602 16.1338 192.035 16.9283 192.968 18.154V16.497H195.971ZM189.01 18.9712C186.417 18.9712 184.847 20.9687 184.847 23.3748C184.847 25.7809 186.417 27.7785 189.01 27.7785C191.49 27.7785 193.173 25.8717 193.173 23.3748C193.15 20.8552 191.49 18.9712 189.01 18.9712ZM207.14 16.1338C208.05 16.1338 208.755 16.2473 209.461 16.5197L208.733 19.4933C208.096 19.1528 207.186 18.9939 206.435 18.9939C204.524 18.9939 203.159 20.3331 203.159 22.6938V30.2527H200.157V16.497H203.137V18.0405C204.024 16.7467 205.434 16.1338 207.14 16.1338ZM217.855 16.1338C219.811 16.1338 221.244 16.9283 222.177 18.154V9.57373H225.179V30.2527H222.177V28.5956C221.221 29.8214 219.811 30.6159 217.855 30.6159C213.987 30.6159 210.962 27.5969 210.962 23.3748C210.962 19.1528 214.01 16.1338 217.855 16.1338ZM218.219 18.9712C215.625 18.9712 214.056 20.9687 214.056 23.3748C214.056 25.7809 215.625 27.7785 218.219 27.7785C220.698 27.7785 222.381 25.8717 222.381 23.3748C222.381 20.8552 220.721 18.9712 218.219 18.9712Z" fill="black"/>
</g>
<defs>
<clipPath id="clip0_3981_9157">
<rect width="231.055" height="40" fill="white"/>
</clipPath>
</defs>
</svg>
