<svg width="40" height="40" viewBox="0 0 40 40" fill="none" xmlns="http://www.w3.org/2000/svg">
<rect width="40" height="40" rx="8" fill="black"/>
<path d="M15.4816 27.5668C19.6136 27.5668 22.9633 24.2164 22.9633 20.0835C22.9633 15.9505 19.6136 12.6001 15.4816 12.6001C11.3496 12.6001 8 15.9505 8 20.0835C8 24.2164 11.3496 27.5668 15.4816 27.5668Z" fill="#EB001B"/>
<path d="M24.5168 27.5668C28.6488 27.5668 31.9984 24.2164 31.9984 20.0835C31.9984 15.9505 28.6488 12.6001 24.5168 12.6001C20.3848 12.6001 17.0352 15.9505 17.0352 20.0835C17.0352 24.2164 20.3848 27.5668 24.5168 27.5668Z" fill="#F79E1B"/>
<path d="M19.9965 14.1069C21.7979 15.4723 22.9578 17.636 22.9578 20.0682C22.9578 22.5005 21.7979 24.6679 19.9965 26.0333C18.1951 24.6679 17.0352 22.5043 17.0352 20.0682C17.0352 17.6322 18.1988 15.4723 19.9965 14.1069Z" fill="#FF5F00"/>
</svg>
