<svg width="137" height="40" viewBox="0 0 137 40" fill="none" xmlns="http://www.w3.org/2000/svg">
<g clip-path="url(#clip0_3981_9257)">
<mask id="mask0_3981_9257" style="mask-type:luminance" maskUnits="userSpaceOnUse" x="0" y="0" width="137" height="40">
<path d="M136.632 0.228516H0V39.5206H136.632V0.228516Z" fill="white"/>
</mask>
<g mask="url(#mask0_3981_9257)">
<path d="M30.162 0.228516C27.0068 0.228516 23.797 1.5561 21.7493 3.66015L22.9114 5.98429L22.4202 6.37693C20.2492 2.63366 16.2577 0.228516 12.009 0.228516C5.36938 0.228516 0.000949649 6.03887 0.000949649 12.8458V27.5108C-0.00479645 27.6359 0.0155818 27.7608 0.0607757 27.8775C0.105969 27.9943 0.17499 28.1004 0.263445 28.189C0.3519 28.2776 0.45784 28.3468 0.574526 28.3922C0.691211 28.4376 0.816087 28.4583 0.941181 28.4528H5.75674C5.99021 28.4528 6.21414 28.3601 6.37924 28.1949C6.54434 28.0298 6.63709 27.8059 6.63709 27.5724V12.7348C6.63709 9.35959 8.6848 6.5935 12.171 6.5935C15.4354 6.5935 17.7595 9.02681 17.7595 12.624V24.7993C17.7513 24.9199 17.768 25.0408 17.8086 25.1546C17.8491 25.2684 17.9127 25.3727 17.9953 25.4609C18.0778 25.5491 18.1777 25.6193 18.2886 25.6672C18.3994 25.7152 18.5191 25.7398 18.6399 25.7395H23.2424C23.3633 25.7398 23.4828 25.7152 23.5938 25.6672C23.7047 25.6193 23.8045 25.5491 23.8871 25.4609C23.9697 25.3727 24.0332 25.2684 24.0738 25.1546C24.1143 25.0408 24.131 24.9199 24.1228 24.7993V12.624C24.1228 9.02681 26.5579 6.5935 29.8222 6.5935C33.3084 6.5935 35.2452 9.35959 35.2452 12.7348V27.5671C35.2562 27.8075 35.3607 28.0341 35.5363 28.1986C35.7119 28.363 35.9448 28.4523 36.1854 28.4475H40.9394C41.0646 28.4533 41.1897 28.4328 41.3065 28.3875C41.4234 28.3422 41.5296 28.2731 41.6182 28.1844C41.7069 28.0958 41.7761 27.9896 41.8214 27.8727C41.8667 27.7558 41.8871 27.6308 41.8813 27.5055V12.8458C41.8813 6.03887 36.7348 0.228516 30.1497 0.228516" fill="#2FF19E"/>
<path d="M58.6674 22.8074C53.9135 22.8074 50.5892 19.4303 50.5892 14.6711C50.5892 9.85732 53.9082 6.42566 58.6674 6.42566C63.483 6.42566 66.9146 9.85732 66.9146 14.6711C66.9146 19.425 63.483 22.8074 58.6674 22.8074ZM73.2233 0.780806H68.8443C68.7237 0.772336 68.6025 0.788833 68.4885 0.829267C68.3745 0.869701 68.27 0.933201 68.1816 1.01582C68.0932 1.09842 68.0228 1.19836 67.9747 1.3094C67.9267 1.42043 67.9021 1.54018 67.9024 1.66116V2.27037L69.4518 4.70544L69.0345 5.12449C66.478 2.22107 62.8245 0.222656 58.6604 0.222656C50.8023 0.222656 44.3281 6.64222 44.3281 14.6605C44.3379 18.4588 45.851 22.0988 48.5367 24.7848C51.2223 27.4707 54.8621 28.9843 58.6604 28.9945C62.8561 28.9945 66.536 27.0102 69.0926 24.1067L69.4448 24.4008L67.9094 26.9539V27.5067C67.9082 27.6307 67.9317 27.7538 67.9787 27.8686C68.0256 27.9834 68.095 28.0877 68.1827 28.1754C68.2704 28.2631 68.3747 28.3325 68.4895 28.3794C68.6043 28.4263 68.7274 28.4499 68.8514 28.4487H73.2233C73.3483 28.4542 73.4732 28.4336 73.5899 28.3882C73.7065 28.3428 73.8125 28.2735 73.901 28.185C73.9894 28.0963 74.0585 27.9903 74.1037 27.8734C74.1489 27.7567 74.1692 27.6317 74.1635 27.5067V1.66645C74.1635 1.11358 73.7761 0.786088 73.2233 0.786088" fill="#2FF19E"/>
<path d="M121.138 22.8074C116.383 22.8074 113.06 19.4303 113.06 14.6711C113.06 9.85732 116.378 6.42566 121.138 6.42566C125.953 6.42566 129.384 9.85732 129.384 14.6711C129.384 19.425 125.953 22.8074 121.138 22.8074ZM135.693 0.780806H131.321C131.201 0.772336 131.079 0.788833 130.966 0.829267C130.851 0.869701 130.747 0.933201 130.659 1.01582C130.57 1.09842 130.5 1.19836 130.452 1.3094C130.404 1.42043 130.379 1.54018 130.38 1.66116V2.27037L131.928 4.70544L131.512 5.12449C128.955 2.22107 125.301 0.222656 121.138 0.222656C113.279 0.222656 106.805 6.64222 106.805 14.6605C106.815 18.4588 108.327 22.0988 111.014 24.7848C113.7 27.4707 117.339 28.9843 121.138 28.9945C125.333 28.9945 129.013 27.0102 131.569 24.1067L131.922 24.4008L130.372 26.9468V27.4996C130.371 27.6236 130.394 27.7467 130.442 27.8615C130.488 27.9763 130.558 28.0807 130.646 28.1684C130.733 28.256 130.837 28.3254 130.953 28.3723C131.067 28.4193 131.19 28.4428 131.314 28.4416H135.687C135.811 28.4472 135.936 28.4265 136.053 28.3811C136.169 28.3357 136.275 28.2665 136.364 28.1779C136.452 28.0892 136.521 27.9832 136.567 27.8664C136.612 27.7496 136.632 27.6248 136.626 27.4996V1.66645C136.626 1.11358 136.239 0.786088 135.687 0.786088" fill="#2FF19E"/>
<path d="M103.165 0.78125H98.6838C97.9638 0.78125 97.5759 1.16861 97.5759 1.55596V15.0589C97.5759 19.2652 94.8085 22.1986 90.5475 22.1986C86.6194 22.1986 84.0733 19.2652 84.0733 15.0589V1.55596C84.0733 1.16861 83.4641 0.78125 83.0768 0.78125H78.263C78.062 0.794845 77.8727 0.880832 77.7303 1.02328C77.5878 1.16572 77.5019 1.35497 77.4883 1.55596V15.0043C77.4883 22.1986 83.1331 28.4527 90.5475 28.4527C93.9006 28.4524 97.1378 27.2313 99.6559 25.0175L99.9043 25.2429L97.9108 27.9543V29.0108C97.9108 31.7768 93.761 33.3263 91.3257 33.3263H89.7763C89.2234 33.3263 88.7797 33.7137 88.7797 34.2067V38.6349C88.7797 39.0768 89.2234 39.5153 89.7763 39.5153H91.3257C98.7415 39.5153 104.165 35.198 104.165 27.0635V1.55596C104.165 1.16861 103.778 0.78125 103.168 0.78125" fill="#2FF19E"/>
</g>
</g>
<defs>
<clipPath id="clip0_3981_9257">
<rect width="136.744" height="40" fill="white"/>
</clipPath>
</defs>
</svg>
