<svg width="150" height="40" viewBox="0 0 150 40" fill="none" xmlns="http://www.w3.org/2000/svg">
<g clip-path="url(#clip0_3981_9273)">
<path d="M66.758 13.3891C66.5357 13.6669 66.6468 13.9817 66.6468 14.2595C66.6468 16.4817 66.6283 18.7039 66.6468 20.9076C66.6468 21.5558 66.5357 21.8336 65.795 21.8336C63.332 21.8336 63.332 21.8521 63.332 19.3891C63.332 16.3336 63.3691 13.278 63.332 10.241C63.332 9.70394 63.4617 9.53727 63.9987 9.55579C65.332 9.57431 66.6468 9.59283 67.9802 9.55579C68.5728 9.53727 68.6839 9.92616 68.8691 10.2965C69.9061 12.4262 70.9431 14.5558 71.9802 16.6854L72.3135 17.3151L72.7765 16.5743C73.7765 14.5373 74.8135 12.4447 75.7765 10.3891C76.0542 9.79653 76.3876 9.50024 77.0913 9.53728C78.3135 9.61135 79.5543 9.57431 80.795 9.55579C81.2209 9.55579 81.3876 9.6669 81.3876 10.1299C81.3876 13.8336 81.3876 17.5188 81.3876 21.2225C81.3876 21.6484 81.2765 21.7965 80.832 21.8336C78.1283 22.0188 78.1283 22.0373 78.1283 19.2965V13.5002C77.6839 13.3521 77.7024 13.7225 77.6098 13.9076C76.3876 16.2965 75.1654 18.6669 73.9987 21.0743C73.7024 21.6669 73.3512 21.8151 72.7209 21.8151C72.412 21.8151 72.1002 21.8151 71.795 21.8151C71.2674 21.8151 70.9802 21.6113 70.7394 21.1484C69.5357 18.7225 68.3135 16.3151 67.0913 13.8891C66.9987 13.7039 66.9617 13.4817 66.7209 13.3891H66.758Z" fill="#3090F9"/>
<path d="M95.3707 18.241C95.3707 15.704 95.3707 13.2225 95.3707 10.741C95.3707 9.33362 95.1855 9.53733 96.5929 9.53733C98.704 9.53733 98.704 9.53733 98.704 11.6484C98.704 14.7596 98.6855 17.8707 98.704 20.9818C98.704 21.6484 98.5188 21.8151 97.8707 21.7966C96.667 21.741 95.4632 21.7595 94.2595 21.7966C93.667 21.8151 93.3151 21.6114 92.9632 21.1299C91.204 18.5929 89.4077 16.0929 87.6114 13.5929C87.4818 13.4077 87.4262 13.1299 87.0188 13.1114C87.0188 15.4818 87.0188 17.8521 87.0188 20.204C87.0188 21.2657 86.4818 21.7966 85.4077 21.7966C84.3336 21.7966 83.7472 21.2102 83.6484 20.0373C83.6484 16.8336 83.667 13.6299 83.6484 10.4262C83.6484 9.75955 83.7781 9.50029 84.5003 9.51881C85.9447 9.59289 87.5744 9.14844 88.7966 9.68548C90.0188 10.2225 90.5744 11.8892 91.4262 13.0558C92.5188 14.5373 93.5744 16.0744 94.6484 17.5558C94.8151 17.7966 94.9077 18.1114 95.3521 18.241H95.3707Z" fill="#3090F9"/>
<path d="M134.5 9.53711C135.852 9.53711 136.944 9.55563 138.056 9.53711C138.5 9.53711 138.722 9.77785 138.944 10.0742C139.889 11.3704 140.87 12.6297 141.796 13.9445C142.148 14.4445 142.352 14.5556 142.759 13.9816C143.685 12.6667 144.667 11.4075 145.611 10.1112C145.889 9.7223 146.167 9.53711 146.667 9.55563C147.741 9.59267 148.796 9.55563 150.056 9.55563C149.074 10.8519 148.222 11.9816 147.352 13.1297C146.426 14.3519 145.519 15.5927 144.537 16.7964C144.111 17.3149 143.944 17.8334 143.981 18.4816C144.019 19.3704 143.981 20.2779 143.981 21.1667C144 21.7038 143.796 21.9075 143.278 21.8334C143.241 21.8334 143.222 21.8334 143.185 21.8334C142.352 21.7779 141.296 22.1853 140.778 21.6667C140.241 21.1482 140.574 20.0741 140.63 19.2593C140.704 18.0741 140.37 17.1482 139.63 16.2408C137.907 14.1297 136.296 11.9075 134.519 9.57415L134.5 9.53711Z" fill="#3090F9"/>
<path d="M104.575 15.7036C104.575 17.4999 104.556 19.2777 104.575 21.074C104.575 21.6295 104.426 21.7962 103.852 21.8147C101.223 21.8703 101.223 21.8888 101.223 19.2962C101.223 16.3147 101.223 13.3147 101.223 10.3332C101.223 9.74063 101.371 9.48137 102 9.55545C102.815 9.62952 103.871 9.22211 104.408 9.72211C104.926 10.1851 104.556 11.2406 104.575 12.0184C104.612 13.2592 104.575 14.4814 104.575 15.7221V15.7036Z" fill="#3090F8"/>
<path fill-rule="evenodd" clip-rule="evenodd" d="M39.4074 15.2407C39.3519 15.5 39.2778 15.7593 39.2222 16C39.7778 21.5556 38.2037 26.3519 34.1481 30.2593C28.8889 35.3148 19.9074 36.1852 13.8148 32.2407C13.3889 31.963 13.2593 31.7778 13.6667 31.3519C14.7778 30.1667 15.8704 28.9444 16.9259 27.6852C17.3333 27.2037 17.6296 27.2407 18.1667 27.5C25.8333 31.3704 34.9444 27.6852 37.4259 19.7407C38.2963 16.9815 38.2593 14.2222 37.4259 11.463L36.9444 9.90741C35.6296 7.44444 33.963 5.37037 31.6667 3.74074C31.2407 3.42593 30.9815 3.42593 30.6111 3.85186C29.6667 4.98149 28.6296 6.03704 27.6852 7.18519C27.2222 7.75926 26.8704 7.81482 26.1667 7.48149C21.1481 5.14815 16.2963 5.40741 11.7593 8.66667C6.40741 12.5 4.9074 19.9815 7.9074 25.5926C8.27777 26.2778 8.68518 26.963 9.07407 27.6296C8.07407 26.7037 7.51852 25.5185 6.9074 24.3704C3.83333 18.5185 4.85185 10.6852 9.31481 5.83333C12.9815 1.85185 17.537 0.12963 22.8889 0.37037C22.9444 0.314815 23.0185 0.25926 23.0741 0.203705C22.8889 0.12443 22.7778 0.0925926 22.5926 0.0925926L17.5741 0C16.2037 0.0925926 14.8148 0.148152 13.5 0.611115C9.46296 2 6.11111 4.38889 3.59259 7.81482C1.85185 10.1852 0.444446 12.7407 0.203705 15.7593C0.166668 16.2963 0 16.8519 0 17.3889V22.5741C0 22.963 0.0562767 23.3333 0.0925926 23.7963C0.166667 24.7407 0.333332 25.6296 0.629629 26.5556C1.83333 30.3519 4.12963 33.3889 7.14815 35.8889C9.12963 37.537 11.3519 38.7593 13.8704 39.4815C14.9074 39.7778 16.0185 39.6296 17.037 39.963H22.963C23.0185 39.7222 23.2407 39.7593 23.4074 39.7222C25.0185 39.4074 26.5741 38.963 28.0741 38.3148C37.2037 34.3148 41.7963 24.3519 39.4259 15.1852L39.4074 15.2407ZM23.3519 11.3148C23.3704 11.2407 23.3704 11.1482 23.3704 11.1482C23.3303 11.1231 23.2903 11.0964 23.2499 11.0694C22.991 10.8967 22.7152 10.7127 22.3148 10.8889C22.6481 11.0185 23 11.1667 23.3519 11.3148ZM31.1111 21.0741C29.537 23.6296 27.1481 24.7407 24.1667 24.6852V24.6667C23.4444 24.6667 22.8333 24.2037 21.9444 24.3333C22.4815 24.7778 22.9815 24.7963 23.4444 24.9074C27.3889 25.8889 31.2778 24.537 33.537 21.4074C35.7778 18.2778 35.8704 14.0926 33.7407 10.7222C33.2963 10.0185 32.8025 9.96296 32.2593 10.5556C31.9074 10.9444 31.5926 11.3704 31.2037 11.7222C30.7037 12.1667 30.7222 12.5185 31.0741 13.1111C32.6111 15.7407 32.7037 18.4444 31.1111 21.0741ZM10.963 24.7593C11.3518 25.3889 11.6481 25.2778 12.037 24.7963L12.0556 24.7778C12.463 24.2778 12.8704 23.7778 13.3333 23.3333C13.7778 22.9259 13.7593 22.6111 13.4444 22.0926C10.8333 17.6667 12.7593 12.3519 17.5 10.7963C18.6712 10.4059 19.8595 10.4066 21.081 10.4073C21.1342 10.4074 21.1874 10.4074 21.2407 10.4074C20.8733 10.0879 20.4371 10.0303 20.0032 9.97289C19.9341 9.96376 19.865 9.95463 19.7963 9.94445C16.037 9.46297 12.3518 11.1667 10.5185 14.3889C8.51852 17.9074 8.79629 21.3889 10.963 24.7593Z" fill="#FE5019"/>
<path d="M61.092 12.4264C60.8328 10.7041 59.8142 9.70414 58.092 9.55599C55.2031 9.27821 52.2957 9.27821 49.4253 9.55599C47.3513 9.74117 46.2587 10.9078 46.1476 13.0004C46.055 14.7782 46.055 16.5745 46.1476 18.3523C46.2402 20.4634 47.3698 21.6671 49.4624 21.8523C50.8328 21.9634 52.2402 21.9449 53.6106 21.9449C54.9995 21.9449 56.3883 21.9634 57.7587 21.8523C59.8698 21.6856 60.9068 20.7227 61.1291 18.6115C61.3328 16.5745 61.3698 14.4819 61.0735 12.4449L61.092 12.4264ZM57.7216 17.3708C57.5735 18.3523 57.129 18.7597 56.1105 18.7967C55.2772 18.8338 54.4439 18.7967 53.6105 18.7967C52.8142 18.7967 52.0179 18.8152 51.2031 18.7967C50.1661 18.7597 49.7217 18.3893 49.592 17.3893C49.4439 16.2597 49.4624 15.1115 49.592 13.9819C49.6846 13.2041 50.1661 12.6671 50.9624 12.593C52.7402 12.4264 54.5365 12.4634 56.3142 12.593C57.2587 12.6486 57.6846 13.3708 57.7402 14.2412C57.8142 15.2782 57.8513 16.3338 57.7031 17.3708H57.7216Z" fill="#3090F9"/>
<path d="M120.203 12.5926C119.889 10.5371 118.777 9.57411 116.685 9.53707C113.722 9.50003 110.759 9.53707 107.796 9.51855C107.166 9.51855 107.018 9.74078 107.037 10.3334C107.074 12.1111 107.037 13.9074 107.037 15.6852C107.037 17.463 107.037 19.2593 107.037 21.0371C107.037 21.5741 107.148 21.8334 107.759 21.7963C108.463 21.7408 109.185 21.7593 109.889 21.7963C110.296 21.7963 110.444 21.6482 110.426 21.2593C110.426 20.6482 110.444 20.0186 110.426 19.4074C110.389 18.8519 110.592 18.6852 111.166 18.6852C113.166 18.7223 115.166 18.7037 117.185 18.6852C118.722 18.6852 119.74 17.8519 120.092 16.3519C120.389 15.1111 120.389 13.8334 120.203 12.5926ZM115.574 15.6667C114.796 15.6852 114.037 15.6667 113.259 15.6667C112.574 15.6667 111.907 15.6297 111.222 15.6667C110.648 15.7037 110.426 15.5926 110.407 14.9445C110.389 12.5371 110.351 12.5371 112.777 12.5371C113.703 12.5371 114.629 12.5371 115.555 12.5371C116.518 12.5741 116.851 12.963 116.851 14.0371C116.851 15.2223 116.574 15.5926 115.574 15.6297V15.6667Z" fill="#2F90F9"/>
<path d="M136.165 21.056C134.332 17.4264 132.554 13.7967 130.758 10.1486C130.535 9.70415 130.276 9.50044 129.776 9.53748C128.758 9.57451 127.739 9.57451 126.721 9.53748C126.221 9.53748 125.961 9.68563 125.739 10.1486C124.109 13.5375 122.461 16.8893 120.813 20.2597C120.307 21.2844 120.646 21.7967 121.832 21.7967C121.924 21.7967 122.017 21.7967 122.109 21.7967C123.406 22.0745 124.221 21.593 124.517 20.2782C124.646 19.7597 124.961 19.593 125.517 19.593C127.239 19.6301 128.961 19.6486 130.684 19.593C131.424 19.5745 131.924 19.7412 132.128 20.4819C132.406 21.556 133.072 21.9819 134.165 21.7782C134.276 21.7597 134.406 21.7782 134.535 21.7782C134.906 21.7782 135.276 21.7782 135.646 21.7782C136.258 21.8153 136.498 21.7041 136.146 21.019L136.165 21.056ZM129.924 17.0004C128.85 17.0004 127.776 17.0004 126.702 17.0004C126.184 17.0004 126.146 16.7967 126.35 16.3893C126.961 15.1301 127.535 13.8338 128.221 12.3338C128.943 13.8523 129.572 15.1671 130.221 16.4819C130.387 16.8338 130.332 17.0004 129.924 17.0004Z" fill="#2F90F9"/>
<path d="M124.899 25.7676C125.103 25.771 125.309 25.7796 125.518 25.7934C125.726 25.8072 125.935 25.8297 126.143 25.8607L126.112 26.109C125.929 26.0986 125.733 26.09 125.524 26.0831C125.316 26.0762 125.113 26.0728 124.917 26.0728C124.747 26.0728 124.598 26.0779 124.473 26.0883C124.352 26.0986 124.252 26.1228 124.173 26.1607C124.094 26.1986 124.036 26.2607 123.998 26.3469C123.965 26.4331 123.948 26.5538 123.948 26.709C123.948 26.9297 123.994 27.0866 124.086 27.1797C124.177 27.2694 124.33 27.3315 124.542 27.366L125.449 27.5211C125.774 27.5763 126 27.6815 126.125 27.8367C126.254 27.9919 126.319 28.2126 126.319 28.4988C126.319 28.7092 126.289 28.8781 126.231 29.0057C126.173 29.1299 126.085 29.2247 125.968 29.2902C125.856 29.3558 125.712 29.4006 125.537 29.4247C125.362 29.4489 125.155 29.4609 124.917 29.4609C124.767 29.4609 124.582 29.4558 124.361 29.4454C124.14 29.4351 123.888 29.4109 123.604 29.373L123.635 29.1247C123.848 29.1316 124.025 29.1385 124.167 29.1454C124.313 29.1488 124.444 29.1523 124.561 29.1557C124.678 29.1557 124.801 29.1557 124.93 29.1557C125.172 29.1523 125.364 29.1351 125.505 29.104C125.647 29.073 125.747 29.0109 125.806 28.9178C125.868 28.8247 125.9 28.6833 125.9 28.4936C125.9 28.3384 125.879 28.2177 125.837 28.1315C125.799 28.0419 125.735 27.9746 125.643 27.9298C125.555 27.8815 125.441 27.847 125.299 27.8263L124.38 27.666C124.071 27.6143 123.852 27.5108 123.723 27.3556C123.598 27.197 123.535 26.9797 123.535 26.7038C123.535 26.4935 123.562 26.3262 123.616 26.2021C123.675 26.0745 123.758 25.9797 123.867 25.9176C123.979 25.8555 124.121 25.8159 124.292 25.7986C124.463 25.7779 124.665 25.7676 124.899 25.7676Z" fill="#FF5019"/>
<path d="M120.828 25.7627C121.171 25.7627 121.447 25.7945 121.657 25.8581C121.866 25.9181 122.018 26.0241 122.111 26.176C122.209 26.3243 122.258 26.5363 122.258 26.8118C122.258 27.0167 122.229 27.1862 122.172 27.3205C122.114 27.4512 122.022 27.5518 121.897 27.6225C121.773 27.6931 121.61 27.7408 121.41 27.7656V27.7868C121.485 27.8044 121.559 27.8362 121.63 27.8821C121.701 27.928 121.766 27.9863 121.824 28.057C121.882 28.1276 121.926 28.2106 121.958 28.306L122.425 29.4664H121.958L121.516 28.3166C121.454 28.1647 121.367 28.057 121.256 27.9934C121.149 27.9298 121.013 27.898 120.848 27.898C120.585 27.898 120.351 27.898 120.146 27.898C119.946 27.8945 119.779 27.891 119.645 27.8874C119.511 27.8839 119.411 27.8804 119.344 27.8768L119.364 27.596H120.815C121.064 27.5925 121.26 27.5695 121.403 27.5271C121.55 27.4812 121.655 27.4035 121.717 27.294C121.779 27.1809 121.811 27.0255 121.811 26.8277C121.811 26.6264 121.779 26.4709 121.717 26.3614C121.655 26.2519 121.55 26.176 121.403 26.1336C121.26 26.0912 121.064 26.07 120.815 26.07C120.458 26.07 120.151 26.0718 119.892 26.0753C119.634 26.0753 119.46 26.0771 119.371 26.0806L119.277 25.8104C119.442 25.7963 119.596 25.7857 119.739 25.7786C119.881 25.7715 120.037 25.768 120.206 25.768C120.38 25.7645 120.587 25.7627 120.828 25.7627ZM119.712 25.8104V29.4664H119.277V25.8104H119.712Z" fill="#FF5019"/>
<path d="M116.333 25.8252C116.538 25.8252 116.744 25.8252 116.953 25.8252C117.161 25.8252 117.368 25.8286 117.572 25.8355C117.78 25.839 117.983 25.8459 118.179 25.8562L118.16 26.12H116.402C116.265 26.12 116.158 26.1511 116.083 26.2132C116.012 26.2752 115.977 26.3666 115.977 26.4873V28.7426C115.977 28.8633 116.012 28.9564 116.083 29.022C116.158 29.084 116.265 29.1151 116.402 29.1151H118.16L118.179 29.3737C117.983 29.3841 117.78 29.391 117.572 29.3944C117.368 29.3979 117.161 29.3996 116.953 29.3996C116.744 29.403 116.538 29.4048 116.333 29.4048C116.104 29.4048 115.919 29.3513 115.777 29.2444C115.639 29.134 115.57 28.9909 115.57 28.8151V26.4149C115.57 26.2356 115.639 26.0925 115.777 25.9856C115.919 25.8786 116.104 25.8252 116.333 25.8252ZM115.677 27.3667H117.91V27.6408H115.677V27.3667Z" fill="#FF5019"/>
<path d="M112.63 25.7627C112.93 25.7627 113.185 25.7955 113.393 25.861C113.602 25.9231 113.771 26.0248 113.9 26.1662C114.029 26.3076 114.123 26.4955 114.181 26.73C114.24 26.9645 114.269 27.2525 114.269 27.5939C114.269 27.9353 114.24 28.2232 114.181 28.4577C114.123 28.6922 114.029 28.8802 113.9 29.0215C113.771 29.1629 113.602 29.2664 113.393 29.3319C113.185 29.394 112.93 29.425 112.63 29.425C112.338 29.425 112.069 29.4198 111.823 29.4095C111.577 29.4026 111.346 29.3923 111.129 29.3785L111.31 29.1095C111.494 29.1129 111.692 29.1164 111.905 29.1198C112.121 29.1233 112.363 29.125 112.63 29.125C112.93 29.125 113.168 29.0784 113.343 28.9853C113.522 28.8888 113.65 28.7284 113.725 28.5043C113.804 28.2801 113.844 27.9766 113.844 27.5939C113.844 27.2111 113.804 26.9076 113.725 26.6834C113.65 26.4593 113.522 26.2989 113.343 26.2024C113.168 26.1058 112.93 26.0575 112.63 26.0575C112.367 26.0575 112.13 26.0593 111.917 26.0627C111.704 26.0662 111.5 26.0713 111.304 26.0782L111.129 25.8093C111.346 25.7955 111.577 25.7851 111.823 25.7782C112.073 25.7679 112.342 25.7627 112.63 25.7627ZM111.535 25.8093V29.3785H111.129V25.8093H111.535Z" fill="#FF5019"/>
<path d="M108.234 25.7627C108.577 25.7627 108.854 25.7945 109.063 25.8581C109.273 25.9181 109.424 26.0241 109.518 26.176C109.616 26.3243 109.665 26.5363 109.665 26.8118C109.665 27.0167 109.636 27.1862 109.578 27.3205C109.52 27.4512 109.428 27.5518 109.304 27.6225C109.179 27.6931 109.016 27.7408 108.816 27.7656V27.7868C108.892 27.8044 108.965 27.8362 109.036 27.8821C109.108 27.928 109.172 27.9863 109.23 28.057C109.288 28.1276 109.333 28.2106 109.364 28.306L109.832 29.4664H109.364L108.923 28.3166C108.86 28.1647 108.773 28.057 108.662 27.9934C108.555 27.9298 108.419 27.898 108.254 27.898C107.991 27.898 107.757 27.898 107.553 27.898C107.352 27.8945 107.185 27.891 107.051 27.8874C106.918 27.8839 106.817 27.8804 106.75 27.8768L106.77 27.596H108.221C108.47 27.5925 108.667 27.5695 108.809 27.5271C108.956 27.4812 109.061 27.4035 109.123 27.294C109.186 27.1809 109.217 27.0255 109.217 26.8277C109.217 26.6264 109.186 26.4709 109.123 26.3614C109.061 26.2519 108.956 26.176 108.809 26.1336C108.667 26.0912 108.47 26.07 108.221 26.07C107.864 26.07 107.557 26.0718 107.299 26.0753C107.04 26.0753 106.866 26.0771 106.777 26.0806L106.684 25.8104C106.848 25.7963 107.002 25.7857 107.145 25.7786C107.287 25.7715 107.443 25.768 107.613 25.768C107.786 25.7645 107.994 25.7627 108.234 25.7627ZM107.118 25.8104V29.4664H106.684V25.8104H107.118Z" fill="#FF5019"/>
<path d="M103.815 25.7627C104.107 25.7627 104.353 25.7955 104.554 25.861C104.754 25.9231 104.916 26.0265 105.038 26.1713C105.16 26.3127 105.249 26.5024 105.304 26.7403C105.359 26.9783 105.386 27.2697 105.386 27.6145C105.386 27.9594 105.359 28.2508 105.304 28.4887C105.249 28.7267 105.16 28.9181 105.038 29.0629C104.916 29.2043 104.754 29.3078 104.554 29.3733C104.353 29.4354 104.107 29.4664 103.815 29.4664C103.524 29.4664 103.278 29.4354 103.077 29.3733C102.876 29.3078 102.715 29.2043 102.593 29.0629C102.471 28.9181 102.38 28.7267 102.321 28.4887C102.266 28.2508 102.238 27.9594 102.238 27.6145C102.238 27.2697 102.266 26.9783 102.321 26.7403C102.38 26.5024 102.471 26.3127 102.593 26.1713C102.715 26.0265 102.876 25.9231 103.077 25.861C103.278 25.7955 103.524 25.7627 103.815 25.7627ZM103.815 26.0679C103.524 26.0679 103.292 26.1179 103.118 26.2179C102.949 26.3145 102.829 26.4748 102.758 26.699C102.687 26.9231 102.652 27.2283 102.652 27.6145C102.652 28.0008 102.687 28.306 102.758 28.5301C102.829 28.7543 102.949 28.9164 103.118 29.0164C103.292 29.1129 103.524 29.1612 103.815 29.1612C104.107 29.1612 104.337 29.1129 104.506 29.0164C104.676 28.9164 104.796 28.7543 104.867 28.5301C104.941 28.306 104.979 28.0008 104.979 27.6145C104.979 27.2283 104.941 26.9231 104.867 26.699C104.796 26.4748 104.676 26.3145 104.506 26.2179C104.337 26.1179 104.107 26.0679 103.815 26.0679Z" fill="#FF5019"/>
<path d="M99.3495 25.7627C99.7094 25.7627 99.9943 25.7907 100.204 25.8466C100.419 25.8991 100.573 25.9935 100.667 26.1299C100.761 26.2663 100.808 26.4587 100.808 26.707C100.808 26.9658 100.748 27.1634 100.628 27.2998C100.513 27.4362 100.322 27.5149 100.056 27.5359V27.5568C100.386 27.5813 100.616 27.6758 100.744 27.8401C100.877 28.0045 100.943 28.2318 100.943 28.5221C100.943 28.7704 100.896 28.9628 100.802 29.0992C100.712 29.2356 100.564 29.3318 100.359 29.3877C100.153 29.4402 99.8829 29.4664 99.5487 29.4664C99.3045 29.4664 99.0945 29.4647 98.9188 29.4612C98.7475 29.4612 98.5889 29.4577 98.4432 29.4507C98.2975 29.4437 98.1433 29.4349 97.9805 29.4244L98.0704 29.1516C98.1604 29.1551 98.334 29.1586 98.5911 29.1621C98.8481 29.1656 99.1481 29.1674 99.4909 29.1674C99.748 29.1674 99.9494 29.1499 100.095 29.1149C100.245 29.0764 100.352 29.0082 100.416 28.9103C100.481 28.8089 100.513 28.662 100.513 28.4697C100.513 28.2633 100.479 28.1042 100.41 27.9923C100.346 27.8803 100.234 27.8017 100.076 27.7562C99.9215 27.7107 99.7094 27.6862 99.4395 27.6827H98.064V27.4152H99.4395C99.6751 27.4117 99.8615 27.3925 99.9986 27.3575C100.14 27.319 100.241 27.2508 100.301 27.1529C100.365 27.055 100.397 26.9168 100.397 26.7385C100.397 26.5531 100.363 26.4115 100.294 26.3135C100.23 26.2156 100.119 26.1492 99.9601 26.1142C99.8058 26.0792 99.5959 26.0617 99.3302 26.0617C99.1288 26.0617 98.9467 26.0617 98.7839 26.0617C98.6211 26.0617 98.4797 26.0635 98.3597 26.067C98.2397 26.067 98.1433 26.0705 98.0704 26.0775L97.9805 25.8047C98.1219 25.7907 98.2568 25.7819 98.3854 25.7784C98.5139 25.7714 98.6532 25.7679 98.8032 25.7679C98.9574 25.7644 99.1395 25.7627 99.3495 25.7627ZM98.3918 25.8047V29.4244H97.9805V25.8047H98.3918Z" fill="#FF5019"/>
<path d="M92.4426 25.7832C92.7428 25.7832 92.9972 25.816 93.2057 25.8815C93.4142 25.9436 93.5831 26.0453 93.7123 26.1867C93.8416 26.3281 93.9354 26.516 93.9938 26.7505C94.0522 26.985 94.0814 27.273 94.0814 27.6144C94.0814 27.9558 94.0522 28.2437 93.9938 28.4782C93.9354 28.7127 93.8416 28.9007 93.7123 29.042C93.5831 29.1834 93.4142 29.2869 93.2057 29.3524C92.9972 29.4145 92.7428 29.4455 92.4426 29.4455C92.1507 29.4455 91.8817 29.4404 91.6357 29.43C91.3897 29.4231 91.1582 29.4128 90.9414 29.399L91.1228 29.13C91.3063 29.1334 91.5043 29.1369 91.717 29.1403C91.9338 29.1438 92.1757 29.1455 92.4426 29.1455C92.7428 29.1455 92.9805 29.0989 93.1556 29.0058C93.3349 28.9093 93.4621 28.7489 93.5372 28.5248C93.6164 28.3006 93.656 27.9971 93.656 27.6144C93.656 27.2316 93.6164 26.9281 93.5372 26.704C93.4621 26.4798 93.3349 26.3194 93.1556 26.2229C92.9805 26.1263 92.7428 26.0781 92.4426 26.0781C92.1799 26.0781 91.9422 26.0798 91.7295 26.0832C91.5169 26.0867 91.3125 26.0918 91.1165 26.0987L90.9414 25.8298C91.1582 25.816 91.3897 25.8056 91.6357 25.7987C91.8859 25.7884 92.1549 25.7832 92.4426 25.7832ZM91.348 25.8298V29.399H90.9414V25.8298H91.348Z" fill="#FF5019"/>
<path d="M89.3377 25.8301V29.2545C89.3377 29.351 89.2814 29.3993 89.1688 29.3993H88.7309C88.6809 29.3993 88.6392 29.3907 88.6058 29.3734C88.5767 29.3527 88.5516 29.3234 88.5308 29.2855L86.8795 26.575C86.842 26.5094 86.8003 26.4387 86.7544 26.3629C86.7085 26.2836 86.671 26.2111 86.6418 26.1456H86.523C86.5271 26.2146 86.5292 26.2853 86.5292 26.3577C86.5334 26.4301 86.5355 26.5025 86.5355 26.575V29.3993H86.1289V25.9749C86.1289 25.8784 86.1873 25.8301 86.304 25.8301H86.7231C86.7732 25.8301 86.8128 25.8404 86.842 25.8611C86.8753 25.8784 86.9024 25.9059 86.9233 25.9439L88.5245 28.5923C88.5704 28.6648 88.6184 28.7423 88.6684 28.8251C88.7184 28.9079 88.7664 28.9906 88.8123 29.0734H88.9436C88.9436 28.9872 88.9415 28.901 88.9374 28.8148C88.9332 28.7286 88.9311 28.6441 88.9311 28.5613V25.8301H89.3377Z" fill="#FF5019"/>
<path d="M83.3536 25.7627C83.6622 25.7627 83.9228 25.7955 84.1355 25.861C84.3482 25.9231 84.5191 26.0265 84.6484 26.1713C84.7777 26.3127 84.8715 26.5024 84.9299 26.7403C84.9883 26.9783 85.0174 27.2697 85.0174 27.6145C85.0174 27.9594 84.9883 28.2508 84.9299 28.4887C84.8715 28.7267 84.7777 28.9181 84.6484 29.0629C84.5191 29.2043 84.3482 29.3078 84.1355 29.3733C83.9228 29.4354 83.6622 29.4664 83.3536 29.4664C83.0451 29.4664 82.7845 29.4354 82.5718 29.3733C82.3591 29.3078 82.1882 29.2043 82.0589 29.0629C81.9296 28.9181 81.8337 28.7267 81.7712 28.4887C81.7128 28.2508 81.6836 27.9594 81.6836 27.6145C81.6836 27.2697 81.7128 26.9783 81.7712 26.7403C81.8337 26.5024 81.9296 26.3127 82.0589 26.1713C82.1882 26.0265 82.3591 25.9231 82.5718 25.861C82.7845 25.7955 83.0451 25.7627 83.3536 25.7627ZM83.3536 26.0679C83.0451 26.0679 82.799 26.1179 82.6156 26.2179C82.4363 26.3145 82.3091 26.4748 82.234 26.699C82.159 26.9231 82.1214 27.2283 82.1214 27.6145C82.1214 28.0008 82.159 28.306 82.234 28.5301C82.3091 28.7543 82.4363 28.9164 82.6156 29.0164C82.799 29.1129 83.0451 29.1612 83.3536 29.1612C83.6622 29.1612 83.9062 29.1129 84.0855 29.0164C84.2648 28.9164 84.392 28.7543 84.467 28.5301C84.5462 28.306 84.5859 28.0008 84.5859 27.6145C84.5859 27.2283 84.5462 26.9231 84.467 26.699C84.392 26.4748 84.2648 26.3145 84.0855 26.2179C83.9062 26.1179 83.6622 26.0679 83.3536 26.0679Z" fill="#FF5019"/>
<path d="M80.7284 25.8301L79.2585 28.1578H78.9019L77.4258 25.8301H77.8636L78.8519 27.4129C78.8894 27.475 78.9249 27.5388 78.9582 27.6043C78.9916 27.6699 79.0249 27.7337 79.0583 27.7957H79.1021C79.1313 27.7337 79.1646 27.6699 79.2022 27.6043C79.2397 27.5388 79.2751 27.4767 79.3085 27.4181L80.2905 25.8301H80.7284ZM79.2835 27.894V29.3993H78.8707V27.894H79.2835Z" fill="#FF5019"/>
<path d="M74.8529 25.8252C75.0573 25.8252 75.2637 25.8252 75.4722 25.8252C75.6807 25.8252 75.8871 25.8286 76.0914 25.8355C76.2999 25.839 76.5021 25.8459 76.6981 25.8562L76.6794 26.12H74.9217C74.7841 26.12 74.6778 26.1511 74.6027 26.2132C74.5319 26.2752 74.4964 26.3666 74.4964 26.4873V28.7426C74.4964 28.8633 74.5319 28.9564 74.6027 29.022C74.6778 29.084 74.7841 29.1151 74.9217 29.1151H76.6794L76.6981 29.3737C76.5021 29.3841 76.2999 29.391 76.0914 29.3944C75.8871 29.3979 75.6807 29.3996 75.4722 29.3996C75.2637 29.403 75.0573 29.4048 74.8529 29.4048C74.6236 29.4048 74.438 29.3513 74.2963 29.2444C74.1586 29.134 74.0898 28.9909 74.0898 28.8151V26.4149C74.0898 26.2356 74.1586 26.0925 74.2963 25.9856C74.438 25.8786 74.6236 25.8252 74.8529 25.8252ZM74.1962 27.3667H76.4292V27.6408H74.1962V27.3667Z" fill="#FF5019"/>
<path d="M71.1643 25.7881C71.5146 25.7881 71.7919 25.8157 71.9962 25.8709C72.2047 25.9226 72.3548 26.0157 72.4466 26.1502C72.5383 26.2847 72.5842 26.4743 72.5842 26.7192C72.5842 26.9744 72.5258 27.1692 72.409 27.3037C72.2965 27.4382 72.1109 27.5158 71.8524 27.5365V27.5572C72.1734 27.5813 72.3965 27.6744 72.5216 27.8365C72.6509 27.9986 72.7155 28.2227 72.7155 28.509C72.7155 28.7538 72.6697 28.9435 72.5779 29.078C72.4904 29.2125 72.3465 29.3073 72.1463 29.3625C71.9462 29.4142 71.6835 29.4401 71.3582 29.4401C71.1205 29.4401 70.9162 29.4383 70.7452 29.4349C70.5784 29.4349 70.4242 29.4314 70.2824 29.4245C70.1406 29.4176 69.9905 29.409 69.832 29.3987L69.9196 29.1297C70.0072 29.1331 70.1761 29.1366 70.4262 29.14C70.6764 29.1435 70.9683 29.1452 71.3019 29.1452C71.5521 29.1452 71.7481 29.128 71.8899 29.0935C72.0358 29.0556 72.1401 28.9883 72.2026 28.8917C72.2652 28.7917 72.2965 28.6469 72.2965 28.4572C72.2965 28.2538 72.2631 28.0969 72.1964 27.9865C72.1338 27.8762 72.0254 27.7986 71.8711 27.7537C71.721 27.7089 71.5146 27.6848 71.2519 27.6813H69.9133V27.4175H71.2519C71.4812 27.4141 71.6626 27.3951 71.7961 27.3606C71.9337 27.3227 72.0317 27.2554 72.09 27.1589C72.1526 27.0623 72.1839 26.9261 72.1839 26.7502C72.1839 26.5675 72.1505 26.4278 72.0838 26.3312C72.0212 26.2347 71.9128 26.1691 71.7585 26.1347C71.6084 26.1002 71.4041 26.0829 71.1456 26.0829C70.9496 26.0829 70.7723 26.0829 70.6139 26.0829C70.4554 26.0829 70.3178 26.0847 70.2011 26.0881C70.0843 26.0881 69.9905 26.0916 69.9196 26.0985L69.832 25.8295C69.9696 25.8157 70.101 25.8071 70.2261 25.8036C70.3512 25.7967 70.4867 25.7933 70.6327 25.7933C70.7828 25.7898 70.96 25.7881 71.1643 25.7881ZM70.2323 25.8295V29.3987H69.832V25.8295H70.2323Z" fill="#FF5019"/>
</g>
<defs>
<clipPath id="clip0_3981_9273">
<rect width="150" height="40" fill="white"/>
</clipPath>
</defs>
</svg>
