<svg width="40" height="40" viewBox="0 0 40 40" fill="none" xmlns="http://www.w3.org/2000/svg">
<rect width="40" height="40" rx="8" fill="#FE5019"/>
<path fill-rule="evenodd" clip-rule="evenodd" d="M29.6822 17.6121C29.6545 17.7416 29.6175 17.871 29.5897 17.9913C29.8672 20.766 29.081 23.1616 27.0555 25.1131C24.4287 27.6382 19.9429 28.0729 16.8999 26.1028C16.6871 25.9641 16.6224 25.8716 16.8259 25.6588C17.3808 25.0669 17.9265 24.4564 18.4537 23.8275C18.6572 23.587 18.8052 23.6055 19.0734 23.735C22.9026 25.6681 27.4532 23.8275 28.6926 19.8596C29.1273 18.4815 29.1088 17.1034 28.6926 15.7252L28.4521 14.9483C27.7954 13.7182 26.963 12.6823 25.8161 11.8683C25.6033 11.7111 25.4739 11.7111 25.2889 11.9238C24.8172 12.488 24.2992 13.0152 23.8275 13.5887C23.5963 13.8754 23.4205 13.9031 23.0691 13.7367C20.5625 12.5713 18.1393 12.7008 15.8732 14.3286C13.2002 16.2432 12.451 19.9799 13.9494 22.7823C14.1344 23.1246 14.3379 23.4668 14.5321 23.7998C14.0326 23.3373 13.7552 22.7453 13.4499 22.1719C11.9146 19.2492 12.4233 15.3368 14.6523 12.9135C16.4837 10.9249 18.759 10.0647 21.432 10.185C21.4597 10.1572 21.4967 10.1295 21.5245 10.1017C21.432 10.0621 21.3765 10.0462 21.284 10.0462L18.7775 10C18.093 10.0462 17.3993 10.074 16.7426 10.3052C14.7263 10.9989 13.0522 12.1921 11.7943 13.9031C10.9249 15.087 10.222 16.3634 10.1017 17.871C10.0832 18.1393 10 18.4167 10 18.685V21.2747C10 21.469 10.0281 21.6539 10.0462 21.8852C10.0832 22.3569 10.1665 22.8008 10.3145 23.2633C10.9157 25.1594 12.0626 26.6762 13.5702 27.9249C14.5598 28.7481 15.6697 29.3585 16.9276 29.7192C17.4456 29.8672 18.0005 29.7932 18.5092 29.9597H21.469C21.4967 29.8395 21.6077 29.858 21.6909 29.8395C22.4956 29.6822 23.2726 29.4602 24.0217 29.1365C28.5816 27.1387 30.8754 22.1627 29.6915 17.5843L29.6822 17.6121ZM21.6632 15.6512C21.6724 15.6142 21.6724 15.568 21.6724 15.568C21.6524 15.5555 21.6325 15.5422 21.6123 15.5287C21.4829 15.4424 21.3452 15.3505 21.1452 15.4385C21.3117 15.5033 21.4875 15.5772 21.6632 15.6512ZM25.5386 20.5256C24.7524 21.8019 23.5593 22.3569 22.0702 22.3291V22.3199C21.7094 22.3199 21.4042 22.0887 20.9603 22.1534C21.2285 22.3754 21.4782 22.3846 21.7094 22.4401C23.6795 22.9303 25.6218 22.2551 26.7502 20.692C27.8694 19.1289 27.9156 17.0386 26.852 15.3553C26.63 15.0038 26.3834 14.9761 26.112 15.272C25.9363 15.4663 25.7791 15.679 25.5848 15.8547C25.3351 16.0767 25.3444 16.2524 25.5201 16.5484C26.2878 17.8618 26.334 19.2122 25.5386 20.5256ZM15.4755 22.3661C15.6697 22.6806 15.8177 22.6251 16.012 22.3846L16.0212 22.3754C16.2247 22.1257 16.4282 21.8759 16.6594 21.6539C16.8814 21.4505 16.8721 21.2932 16.7149 21.0343C15.4108 18.8237 16.3727 16.1692 18.7405 15.3923C19.3254 15.1973 19.9189 15.1976 20.529 15.198C20.5556 15.198 20.5822 15.198 20.6088 15.198C20.4253 15.0385 20.2074 15.0097 19.9907 14.981C19.9562 14.9764 19.9217 14.9719 19.8874 14.9668C18.0098 14.7263 16.1692 15.5772 15.2535 17.1866C14.2546 18.9439 14.3934 20.6828 15.4755 22.3661Z" fill="white"/>
</svg>
