<svg width="40" height="40" viewBox="0 0 40 40" fill="none" xmlns="http://www.w3.org/2000/svg">
<rect width="40" height="40" rx="8" fill="#4C2A86"/>
<path d="M19.8701 24.5883C19.7807 24.5762 19.6907 24.5722 19.6014 24.5579C19.1736 24.4891 18.8208 24.2902 18.5453 23.9555C18.3331 23.6978 18.1913 23.4017 18.0741 23.0922C17.9597 22.7903 17.8767 22.4785 17.787 22.1689C17.6327 21.636 17.4785 21.103 17.3243 20.5701C17.0855 19.7449 16.8468 18.9196 16.6078 18.0945C16.5693 17.9617 16.516 17.8359 16.4257 17.7286C16.3074 17.588 16.1516 17.5247 15.9725 17.5218C15.6981 17.5175 15.4236 17.5197 15.1491 17.5206C15.1169 17.5207 15.105 17.5164 15.1055 17.4794C15.1078 17.2786 15.1073 17.0776 15.1058 16.8766C15.1056 16.8452 15.1145 16.8377 15.1452 16.8379C15.4499 16.839 15.7546 16.8384 16.0593 16.8387C16.2614 16.8389 16.4587 16.8646 16.6438 16.953C16.8787 17.0653 17.0392 17.2491 17.1507 17.4801C17.2308 17.6459 17.2715 17.8246 17.3219 17.9999C17.4828 18.5596 17.6411 19.12 17.8007 19.68C18.0676 20.6165 18.3336 21.5532 18.6024 22.4892C18.6829 22.7695 18.7828 23.043 18.94 23.2914C19.0942 23.5349 19.2915 23.7319 19.5735 23.8162C19.9632 23.9328 20.3429 23.914 20.6913 23.6805C20.897 23.5427 21.0343 23.3447 21.1454 23.1277C21.2739 22.8766 21.3565 22.6088 21.4332 22.3386C21.6337 21.6329 21.8356 20.9275 22.037 20.222C22.276 19.3847 22.5141 18.5471 22.7545 17.7103C22.8213 17.4775 22.933 17.2695 23.1169 17.1061C23.2732 16.9673 23.4581 16.8912 23.6627 16.8578C23.7694 16.8404 23.8769 16.8392 23.9843 16.8389C24.272 16.8381 24.5596 16.8392 24.8472 16.838C24.878 16.8378 24.8867 16.8456 24.8864 16.8769C24.885 17.0791 24.8848 17.2813 24.8866 17.4836C24.8869 17.5168 24.8752 17.5207 24.8469 17.5206C24.5829 17.5197 24.3189 17.5199 24.055 17.5202C23.7716 17.5204 23.5724 17.6507 23.4541 17.9077C23.3844 18.0594 23.348 18.2217 23.3016 18.3807C23.0975 19.0813 22.8953 19.7825 22.6925 20.4834C22.482 21.2107 22.273 21.9385 22.0605 22.6652C21.9607 23.0067 21.8389 23.3398 21.6591 23.6489C21.4798 23.9572 21.2489 24.2146 20.9287 24.3826C20.7248 24.4896 20.5066 24.5494 20.2781 24.573C20.2262 24.5784 20.1742 24.5833 20.1223 24.5884H19.8701V24.5883Z" fill="white"/>
<path d="M15.7135 15.8056C15.896 15.8056 16.0786 15.8046 16.2612 15.8058C16.5019 15.8074 16.739 15.8344 16.9694 15.909C17.3833 16.0431 17.6909 16.3078 17.9162 16.6747C18.079 16.9397 18.1831 17.2287 18.2685 17.5257C18.4507 18.1591 18.6334 18.7924 18.8163 19.4257C19.0899 20.3727 19.3639 21.3194 19.6373 22.2664C19.6663 22.3667 19.692 22.4681 19.7366 22.5629C19.7776 22.65 19.829 22.7276 19.9312 22.7531C20.0369 22.7796 20.1365 22.7441 20.2014 22.6552C20.2705 22.5604 20.3022 22.4495 20.334 22.3392C20.5479 21.5993 20.7606 20.859 20.9743 20.119C21.2072 19.3126 21.441 18.5064 21.674 17.7C21.745 17.4543 21.8124 17.2076 21.9184 16.9736C22.0369 16.7126 22.1864 16.473 22.397 16.2755C22.6302 16.0567 22.9069 15.9229 23.2182 15.8567C23.4012 15.8177 23.5865 15.8055 23.7729 15.8055C24.1302 15.8055 24.4874 15.8059 24.8446 15.8048C24.8765 15.8047 24.8866 15.8116 24.8862 15.8453C24.8846 16.0475 24.8846 16.2497 24.8862 16.4519C24.8865 16.4829 24.8769 16.4875 24.849 16.4875C24.5075 16.4868 24.1661 16.4832 23.8247 16.4891C23.5794 16.4933 23.3412 16.5392 23.1219 16.6578C22.8592 16.7999 22.6884 17.0229 22.5654 17.2882C22.465 17.5048 22.4094 17.7363 22.3427 17.9641C22.1253 18.7057 21.9082 19.4473 21.6914 20.189C21.4805 20.9106 21.2711 21.6328 21.0589 22.3541C20.9873 22.5974 20.9053 22.8371 20.7752 23.0571C20.6758 23.2254 20.5482 23.3642 20.3629 23.4406C20.2346 23.4935 20.1 23.5097 19.9628 23.5062C19.7521 23.5008 19.5602 23.4429 19.4029 23.2954C19.3032 23.202 19.2296 23.0897 19.1673 22.969C19.0455 22.7332 18.9683 22.481 18.8941 22.2279C18.6786 21.4925 18.4647 20.7567 18.25 20.0212C18.0152 19.2168 17.7808 18.4121 17.5449 17.608C17.4753 17.3706 17.3773 17.1465 17.2206 16.9517C17.0429 16.7307 16.8116 16.5974 16.5375 16.5346C16.3836 16.4994 16.2272 16.4865 16.0695 16.4867C15.7608 16.4872 15.4522 16.4864 15.1436 16.4877C15.1124 16.4878 15.1052 16.4794 15.1055 16.4491C15.1068 16.2482 15.1069 16.0472 15.1055 15.8463C15.1052 15.8142 15.1125 15.8044 15.146 15.8047C15.3351 15.8064 15.5243 15.8055 15.7134 15.8055L15.7135 15.8056Z" fill="white"/>
<path d="M33.9988 19.9699C33.9906 19.9565 33.9949 19.9418 33.995 19.9278C33.9964 19.8136 33.9946 19.6993 33.9841 19.5859C33.9581 19.3058 33.9096 19.0293 33.8349 18.7578C33.7689 18.5181 33.6854 18.2847 33.5793 18.0596C33.4706 17.8288 33.3445 17.6077 33.1984 17.3984C33.0113 17.1303 32.7974 16.8858 32.5517 16.6699C32.3083 16.4559 32.0436 16.2722 31.7579 16.1183C31.4898 15.9737 31.2103 15.858 30.9176 15.7747C30.4947 15.6544 30.0639 15.5909 29.6234 15.6006C29.5711 15.6022 29.5188 15.5974 29.4665 15.6032C29.2182 15.604 28.9719 15.6266 28.7268 15.6659C28.252 15.7421 27.801 15.8894 27.3759 16.1149C26.6609 16.4941 26.1075 17.038 25.7151 17.7458C25.3339 18.4333 25.1641 19.1756 25.1427 19.956C25.1348 20.2435 25.1499 20.53 25.187 20.8155C25.229 21.1382 25.3011 21.4536 25.4099 21.7602C25.6227 22.3596 25.9468 22.8906 26.3962 23.3425C26.7441 23.6923 27.1455 23.9668 27.593 24.1737C28.1046 24.4101 28.6437 24.5367 29.2051 24.5726C29.2899 24.5779 29.3747 24.5826 29.4594 24.5876H29.6959C29.7052 24.5802 29.7161 24.5837 29.7263 24.5837C29.8601 24.5836 29.9936 24.5811 30.127 24.5678C30.3285 24.5477 30.528 24.5155 30.725 24.4694C31.1069 24.38 31.4705 24.2429 31.8144 24.0531C32.109 23.8905 32.3824 23.6982 32.6287 23.4693C32.8251 23.2867 33.0035 23.0873 33.1607 22.8689C33.3463 22.6109 33.5017 22.336 33.629 22.0453C33.7676 21.7287 33.8631 21.3987 33.9249 21.0588C33.954 20.8987 33.9763 20.7375 33.9867 20.5749C33.993 20.4754 33.995 20.3759 33.9949 20.2761C33.9949 20.2634 33.9907 20.25 33.9987 20.2379V19.97L33.9988 19.9699ZM33.2646 20.1932C33.2527 20.7922 33.1455 21.371 32.8887 21.9169C32.5611 22.6132 32.0586 23.1411 31.3714 23.4901C31.0488 23.6539 30.7073 23.7617 30.351 23.8238C29.9834 23.8878 29.6132 23.9025 29.2417 23.8772C28.695 23.8399 28.1739 23.7068 27.6904 23.4434C26.9843 23.0587 26.4885 22.4858 26.1798 21.747C26.0414 21.4157 25.956 21.0707 25.9117 20.7147C25.8864 20.5114 25.8749 20.3074 25.8735 20.1026C25.8759 19.6176 25.9382 19.142 26.0937 18.6806C26.2418 18.241 26.4606 17.8409 26.7628 17.488C27.0363 17.1687 27.3625 16.9149 27.7341 16.719C28.1125 16.5194 28.5159 16.3973 28.9386 16.3387C29.2749 16.2922 29.613 16.2847 29.9512 16.3147C30.6377 16.3755 31.2689 16.5895 31.8292 16.9976C32.2533 17.3066 32.5804 17.6985 32.8218 18.1631C33.0219 18.5481 33.1481 18.9568 33.2121 19.3856C33.2522 19.6536 33.2699 19.9229 33.2645 20.1933L33.2646 20.1932Z" fill="white"/>
<path d="M14.7808 19.2397C14.7039 18.7653 14.5583 18.3137 14.3352 17.8881C13.8703 17.0016 13.1779 16.3577 12.259 15.9609C11.6963 15.718 11.1048 15.6096 10.4934 15.6037C10.435 15.6037 10.3766 15.6035 10.3183 15.6035C10.0543 15.6049 9.79255 15.6299 9.5323 15.6743C9.08604 15.7505 8.66138 15.8903 8.25949 16.0992C7.47525 16.507 6.8876 17.1083 6.48872 17.8956C6.31134 18.2458 6.18505 18.6141 6.10486 18.9979C6.04278 19.2947 6.00546 19.5948 6 19.8983V20.3101C6.00387 20.5319 6.02792 20.7517 6.06295 20.9706C6.1372 21.4342 6.27797 21.8762 6.49212 22.2942C6.7485 22.7946 7.08586 23.2314 7.52056 23.5899C8.30963 24.2407 9.22396 24.5496 10.2393 24.5809C10.3661 24.5809 10.4929 24.5808 10.6197 24.5807C10.7865 24.5791 10.9521 24.5627 11.1174 24.5416C11.4597 24.4978 11.7934 24.4181 12.1159 24.2955C12.8086 24.0321 13.3977 23.6213 13.8645 23.044C14.4911 22.269 14.7949 21.3731 14.843 20.384C14.8616 20.0003 14.8423 19.619 14.7808 19.2396V19.2397ZM13.9046 21.5083C13.7493 21.9743 13.516 22.3964 13.1846 22.761C12.7086 23.2847 12.118 23.6127 11.433 23.7765C11.0103 23.8777 10.5814 23.9042 10.1483 23.8801C9.65637 23.8528 9.18315 23.7479 8.73492 23.5398C8.40342 23.3859 8.10283 23.1858 7.83807 22.9331C7.36802 22.4845 7.06023 21.9398 6.88428 21.3179C6.79152 20.99 6.74589 20.6546 6.7315 20.3143C6.7205 20.0541 6.72865 19.7948 6.75854 19.5366C6.84237 18.8134 7.08475 18.152 7.54168 17.5783C7.92372 17.0985 8.40919 16.7597 8.9811 16.543C9.29608 16.4235 9.62237 16.3533 9.95735 16.3203C10.2402 16.2923 10.5233 16.29 10.806 16.3153C11.5343 16.3802 12.1979 16.6166 12.7774 17.0703C13.1537 17.365 13.4467 17.729 13.6682 18.1515C13.8629 18.5227 13.9886 18.9164 14.056 19.3297C14.0979 19.5867 14.1161 19.8451 14.1179 20.0742C14.1166 20.5835 14.0561 21.053 13.9045 21.5082L13.9046 21.5083Z" fill="white"/>
<path d="M32.7921 18.9935C32.6475 18.4671 32.3935 17.9999 32.0171 17.6027C31.7315 17.3012 31.3945 17.0715 31.0138 16.9066C30.6984 16.77 30.3686 16.6885 30.0269 16.6516C29.7979 16.6268 29.5687 16.6225 29.3391 16.634C29.0212 16.6499 28.7093 16.7024 28.407 16.8034C27.6149 17.0681 27.0164 17.5646 26.6229 18.3035C26.4124 18.6991 26.2888 19.1216 26.2347 19.5659C26.2029 19.8272 26.1965 20.0891 26.2094 20.3516C26.2263 20.6969 26.2846 21.035 26.394 21.3637C26.5418 21.8078 26.7682 22.2065 27.0877 22.5494C27.4588 22.9477 27.9083 23.2242 28.4257 23.3904C28.8454 23.5252 29.2768 23.5709 29.7163 23.5574C30.007 23.5485 30.2932 23.5116 30.5739 23.4367C31.0954 23.2976 31.5578 23.0492 31.9486 22.6747C32.2721 22.3645 32.5082 21.9946 32.6733 21.5794C32.8611 21.1071 32.9357 20.6142 32.9356 20.1082C32.9355 19.702 32.8955 19.3705 32.7919 18.9934L32.7921 18.9935ZM32.1848 20.4769C32.1258 21.0345 31.9405 21.5429 31.5799 21.9788C31.2771 22.3449 30.8927 22.5913 30.4419 22.7357C30.1216 22.8384 29.7919 22.8733 29.457 22.8614C28.9396 22.8431 28.4591 22.7065 28.0297 22.4098C27.6324 22.1353 27.3517 21.7677 27.1659 21.3248C27.0021 20.934 26.9347 20.525 26.9359 20.1257C26.9354 19.6568 27.0072 19.2244 27.196 18.8174C27.5557 18.0421 28.1542 17.5566 28.991 17.3827C29.5521 17.266 30.1072 17.3064 30.6406 17.5286C31.1859 17.7557 31.5951 18.135 31.8705 18.6577C32.0408 18.9807 32.1384 19.3256 32.1797 19.6877C32.2097 19.9507 32.2126 20.214 32.1848 20.4769H32.1848Z" fill="white"/>
<path d="M13.7553 19.5573C13.7173 19.2484 13.647 18.9477 13.5332 18.6579C13.3348 18.1525 13.0377 17.716 12.6184 17.368C12.1022 16.9394 11.5027 16.7114 10.839 16.6464C10.4905 16.6123 10.1423 16.6204 9.79564 16.6747C9.45377 16.7284 9.12646 16.8279 8.81741 16.9839C8.09446 17.3487 7.60076 17.9202 7.30761 18.6699C7.13292 19.1165 7.05945 19.5823 7.05486 20.0602C7.05289 20.2913 7.06752 20.5212 7.10128 20.7502C7.15996 21.1481 7.27827 21.5265 7.46719 21.8818C7.71629 22.3504 8.05966 22.7336 8.50552 23.0238C8.95833 23.3185 9.45638 23.4827 9.99136 23.5379C10.3173 23.5715 10.6432 23.5676 10.9687 23.5253C11.3652 23.4737 11.7424 23.3615 12.0974 23.1767C12.5013 22.9663 12.8436 22.6827 13.1154 22.3164C13.5311 21.756 13.7297 21.1187 13.777 20.4294C13.7969 20.1384 13.7909 19.8475 13.7553 19.5574V19.5573ZM12.7727 21.4398C12.4456 22.1239 11.9127 22.5639 11.1837 22.7666C10.8663 22.8549 10.5417 22.8761 10.2136 22.8554C9.81375 22.8303 9.43535 22.7306 9.08407 22.535C8.58531 22.2573 8.23712 21.8468 8.01743 21.3236C7.90838 21.064 7.84132 20.7934 7.81064 20.5134C7.76003 20.0511 7.78636 19.5949 7.92254 19.1483C8.06014 18.6972 8.29461 18.3045 8.64399 17.9848C8.98989 17.6683 9.39565 17.4683 9.85527 17.3778C10.148 17.3201 10.4433 17.3084 10.7398 17.3391C11.3354 17.401 11.8555 17.6305 12.2819 18.0546C12.6243 18.3951 12.8398 18.8091 12.9571 19.275C13.0285 19.5585 13.0539 19.799 13.0542 20.104C13.0553 20.5693 12.9745 21.0177 12.7726 21.4398H12.7727Z" fill="white"/>
</svg>
