<svg width="125" height="40" viewBox="0 0 125 40" fill="none" xmlns="http://www.w3.org/2000/svg">
<g clip-path="url(#clip0_3981_9305)">
<path d="M61.7412 39.9999C61.3436 39.9461 60.9429 39.9285 60.5457 39.8648C58.6426 39.5587 57.073 38.6738 55.8469 37.1849C54.9029 36.0386 54.2721 34.721 53.7506 33.3442C53.2419 32.0009 52.8725 30.614 52.4735 29.2365C51.787 26.8655 51.101 24.4945 50.4149 22.1234C49.3523 18.4524 48.2905 14.7809 47.2269 11.1102C47.0555 10.5191 46.8184 9.95937 46.417 9.48228C45.8906 8.85672 45.1971 8.57489 44.4006 8.56223C43.1797 8.54288 41.9585 8.55273 40.7372 8.55695C40.594 8.5573 40.5409 8.53795 40.543 8.37364C40.5532 7.47998 40.5511 6.58596 40.5444 5.69194C40.5434 5.55191 40.5831 5.51884 40.7197 5.51954C42.0753 5.52447 43.4309 5.52165 44.7865 5.52306C45.6858 5.52412 46.5637 5.63846 47.387 6.03182C48.4323 6.53143 49.1461 7.34874 49.6426 8.37681C49.9986 9.11426 50.1798 9.90941 50.404 10.6891C51.12 13.179 51.8243 15.6722 52.5343 18.1635C53.7218 22.33 54.905 26.4975 56.1013 30.6615C56.4594 31.9084 56.9038 33.125 57.6033 34.2301C58.289 35.3135 59.1668 36.1899 60.4215 36.5653C62.1557 37.0839 63.8448 37.0002 65.3947 35.9615C66.3098 35.3483 66.921 34.4676 67.4153 33.5018C67.987 32.3851 68.3543 31.1934 68.6956 29.9916C69.5875 26.8518 70.4858 23.7137 71.3819 20.575C72.4451 16.8501 73.5045 13.1238 74.5741 9.40066C74.8714 8.3652 75.3686 7.43952 76.1866 6.71262C76.8818 6.09515 77.7048 5.75668 78.615 5.6082C79.0896 5.5308 79.5677 5.52552 80.0459 5.52412C81.3255 5.5206 82.6051 5.52517 83.8848 5.51989C84.022 5.51919 84.0603 5.55402 84.0593 5.693C84.053 6.59264 84.0519 7.49229 84.06 8.39229C84.0614 8.54006 84.0093 8.5573 83.8834 8.55695C82.7089 8.55273 81.5345 8.55378 80.3601 8.55484C79.0994 8.5559 78.2132 9.13572 77.6868 10.2792C77.3765 10.954 77.2147 11.676 77.0085 12.3832C76.1 15.5001 75.2007 18.6195 74.2983 21.7378C73.3617 24.9737 72.4318 28.2113 71.4864 31.4447C71.0424 32.9635 70.5005 34.4458 69.7008 35.8208C68.9029 37.1926 67.8755 38.3375 66.4513 39.0851C65.5439 39.5612 64.5731 39.8272 63.5563 39.932C63.3255 39.9559 63.094 39.9778 62.8632 40.0006H61.7412V39.9999Z" fill="#4C2A86"/>
<path d="M0 19.1413C0.0116106 19.1466 0.0221657 19.1452 0.0316653 19.1367C0.100625 19.1993 0.0925331 19.2845 0.092885 19.3644C0.0953478 19.8232 0.0953478 20.2823 0.092885 20.7411C0.0925331 20.821 0.100274 20.9061 0.0316653 20.9687L0.0165363 20.9613L0 20.9642L0 19.1413Z" fill="#B0AFAE"/>
<path d="M18.8998 40.0004C18.9005 39.9898 18.8984 39.9793 18.8945 39.9694C18.9512 39.9044 19.03 39.9082 19.1042 39.9075C19.5285 39.9044 19.9529 39.9047 20.3768 39.9075C20.4514 39.9079 20.5299 39.9044 20.5869 39.9687C20.5802 39.9786 20.5784 39.9891 20.5823 40.0004H18.8995H18.8998Z" fill="#ACABAA"/>
<path d="M19.2461 0.0295543C19.2479 0.0197029 19.2493 0.00985144 19.2503 0H20.0215C20.0191 0.0105551 20.0201 0.0207584 20.0251 0.030258C19.8516 0.148827 19.656 0.0759968 19.4709 0.0911258C19.3928 0.0974589 19.3073 0.100274 19.2464 0.0292025L19.2461 0.0295543Z" fill="#7F7F7F"/>
<path d="M105.182 0C105.188 0.00844409 105.189 0.0179437 105.187 0.0277951C104.939 0.0284988 104.69 0.0288506 104.441 0.0295543C104.443 0.0197029 104.444 0.00985144 104.446 0H105.182L105.182 0Z" fill="#7F7F7F"/>
<path d="M43.2522 0.930661C44.0642 0.930661 44.8766 0.926439 45.6886 0.931716C46.7596 0.938753 47.8148 1.05908 48.8397 1.39086C50.6812 1.98723 52.0495 3.16483 53.0522 4.79735C53.7763 5.97636 54.2393 7.26197 54.6193 8.58312C55.43 11.4013 56.2431 14.2188 57.0569 17.0364C58.2739 21.2492 59.493 25.4611 60.7096 29.674C60.8384 30.1201 60.9527 30.5715 61.1512 30.9934C61.3334 31.3807 61.5621 31.7259 62.0171 31.8395C62.4875 31.9571 62.9304 31.7994 63.2189 31.404C63.5268 30.9821 63.6675 30.4885 63.8093 29.998C64.7607 26.7062 65.7071 23.4127 66.6578 20.1206C67.6939 16.5329 68.7343 12.9462 69.7708 9.35892C70.0868 8.26576 70.3866 7.16803 70.8584 6.12729C71.3854 4.96588 72.0504 3.90017 72.9877 3.02128C74.0252 2.0481 75.2563 1.45279 76.6412 1.15795C77.4553 0.984844 78.2797 0.930309 79.1093 0.930309C80.6985 0.930309 82.2878 0.932068 83.877 0.927142C84.0192 0.926791 84.0639 0.9574 84.0625 1.10728C84.0551 2.00693 84.0551 2.90658 84.0625 3.80622C84.0635 3.94414 84.0209 3.96455 83.8967 3.96455C82.3775 3.96138 80.8583 3.94555 79.3394 3.97159C78.248 3.99024 77.1883 4.1943 76.2126 4.72206C75.0438 5.35431 74.2838 6.34649 73.7367 7.52655C73.2899 8.49023 73.0429 9.52041 72.746 10.5337C71.7788 13.8329 70.813 17.1321 69.8482 20.4319C68.9099 23.6424 67.9782 26.8554 67.0342 30.0642C66.7158 31.1464 66.351 32.2132 65.7722 33.1917C65.3296 33.9404 64.7621 34.5582 63.9377 34.8981C63.367 35.1334 62.7679 35.2052 62.1574 35.1897C61.2201 35.1658 60.3666 34.9083 59.6664 34.2521C59.2231 33.8366 58.8956 33.3366 58.6183 32.7997C58.0765 31.7509 57.7331 30.6289 57.4031 29.5026C56.444 26.2313 55.4922 22.9578 54.537 19.6857C53.4924 16.1068 52.4495 12.5269 51.4 8.94938C51.0904 7.89352 50.6545 6.89641 49.9575 6.02983C49.1666 5.04645 48.1378 4.4536 46.9183 4.17425C46.2333 4.01733 45.5377 3.95998 44.8358 3.96103C43.4626 3.96314 42.0897 3.95963 40.7165 3.96526C40.5779 3.96596 40.5458 3.92831 40.5469 3.79356C40.5529 2.89989 40.5532 2.00587 40.5469 1.11186C40.5458 0.969011 40.5782 0.925383 40.7274 0.926791C41.5686 0.934531 42.4102 0.930309 43.2515 0.930309L43.2522 0.930661Z" fill="#4C2A86"/>
<path d="M124.606 19.4566C124.57 19.3971 124.589 19.3313 124.589 19.2691C124.595 18.7614 124.588 18.2526 124.541 17.7481C124.425 16.5019 124.209 15.2718 123.877 14.064C123.583 12.9976 123.212 11.9593 122.74 10.958C122.256 9.93095 121.695 8.94756 121.045 8.01625C120.213 6.82352 119.261 5.73564 118.168 4.77513C117.085 3.82306 115.907 3.00609 114.636 2.32106C113.444 1.67791 112.2 1.16317 110.898 0.792684C109.016 0.25754 107.099 -0.0249851 105.139 0.017939C104.907 0.0249757 104.674 0.00386552 104.441 0.0295496C103.337 0.0334198 102.241 0.133693 101.151 0.308556C99.0379 0.647375 97.0318 1.30285 95.1403 2.30594C91.959 3.99335 89.4972 6.41293 87.751 9.56187C86.0551 12.6204 85.2997 15.9227 85.2044 19.3947C85.1692 20.6736 85.2364 21.9483 85.4018 23.2184C85.5886 24.6539 85.9091 26.0574 86.3933 27.4211C87.3401 30.088 88.7822 32.4503 90.7814 34.4607C92.3295 36.0172 94.115 37.2381 96.1061 38.1585C98.3825 39.2105 100.781 39.7738 103.279 39.9331C103.656 39.9571 104.033 39.9778 104.41 40H105.462C105.504 39.9673 105.552 39.9828 105.597 39.9828C106.193 39.9821 106.787 39.9711 107.38 39.912C108.277 39.8227 109.164 39.6791 110.041 39.474C111.74 39.0764 113.358 38.4663 114.887 37.6223C116.198 36.8989 117.415 36.0432 118.51 35.025C119.384 34.2126 120.178 33.3253 120.877 32.3539C121.703 31.2058 122.395 29.9828 122.961 28.6895C123.578 27.2811 124.003 25.8129 124.277 24.301C124.407 23.5886 124.506 22.8715 124.552 22.1481C124.58 21.7055 124.589 21.2626 124.589 20.8189C124.589 20.7622 124.57 20.7024 124.606 20.649V19.4569L124.606 19.4566ZM121.339 20.4502C121.287 23.115 120.81 25.6897 119.667 28.1185C118.21 31.2164 115.974 33.5649 112.916 35.1176C111.481 35.8462 109.962 36.3258 108.377 36.602C106.741 36.8869 105.094 36.952 103.441 36.8394C101.009 36.6737 98.6907 36.0816 96.5395 34.9096C93.398 33.1983 91.1923 30.6492 89.8187 27.3627C89.203 25.8889 88.823 24.3538 88.626 22.7702C88.5134 21.8656 88.4621 20.9579 88.4561 20.047C88.4666 17.8891 88.7439 15.7732 89.4356 13.7206C90.0946 11.7647 91.0681 9.98478 92.4125 8.41488C93.6295 6.99416 95.0805 5.86512 96.7337 4.99362C98.4176 4.10558 100.212 3.56235 102.093 3.30199C103.589 3.09475 105.093 3.06168 106.598 3.19503C109.652 3.46559 112.461 4.41766 114.953 6.23314C116.84 7.60777 118.295 9.35147 119.37 11.4182C120.26 13.1313 120.821 14.9495 121.106 16.8572C121.284 18.0492 121.363 19.2472 121.339 20.4505L121.339 20.4502Z" fill="#4C2A86"/>
<path d="M39.0978 16.2064C38.7555 14.0957 38.1081 12.0864 37.1152 10.1932C35.0468 6.24907 31.9664 3.38441 27.8781 1.61925C25.3748 0.538405 22.743 0.0563883 20.0226 0.0300006C19.763 0.0300006 19.5033 0.0292969 19.2437 0.0292969C18.0692 0.0352781 16.9047 0.146459 15.7468 0.344191C13.7613 0.683362 11.872 1.30506 10.0839 2.23461C6.59477 4.04868 3.98027 6.7237 2.2056 10.2266C1.41643 11.7845 0.854549 13.423 0.497786 15.1305C0.221594 16.4509 0.0555268 17.7858 0.03125 19.1362V20.9682C0.04849 21.9551 0.155448 22.9328 0.311312 23.9067C0.641687 25.9692 1.26796 27.9356 2.22073 29.7954C3.36139 32.0215 4.86232 33.9647 6.79637 35.5596C10.307 38.4548 14.3749 39.8295 18.8922 39.9684C19.4565 39.9684 20.0205 39.9681 20.5849 39.9677C21.3269 39.9607 22.0636 39.8875 22.799 39.7936C24.3221 39.599 25.8065 39.2443 27.2416 38.6987C30.3234 37.527 32.9442 35.6992 35.0211 33.1308C37.809 29.6832 39.1605 25.6976 39.3744 21.2971C39.4574 19.59 39.3716 17.8938 39.0978 16.2057V16.2064ZM35.1995 26.2989C34.5088 28.3722 33.4705 30.25 31.9963 31.872C29.8786 34.2018 27.2508 35.6609 24.2032 36.3899C22.3226 36.8399 20.4142 36.9578 18.4876 36.8508C16.2988 36.7294 14.1934 36.2625 12.1992 35.3368C10.7243 34.6522 9.38695 33.762 8.209 32.6376C6.11768 30.6419 4.74833 28.2185 3.96549 25.4516C3.55279 23.9929 3.34978 22.5011 3.28574 20.9868C3.23684 19.8293 3.27308 18.676 3.40607 17.5272C3.77902 14.3097 4.8574 11.3672 6.89031 8.81467C8.59004 6.68042 10.75 5.17315 13.2945 4.20877C14.6958 3.67749 16.1475 3.36506 17.6379 3.218C18.8964 3.0938 20.1556 3.08359 21.4138 3.19583C24.6539 3.48469 27.6065 4.53633 30.1847 6.55482C31.8588 7.86576 33.1623 9.48527 34.1478 11.3648C35.0141 13.0163 35.5735 14.7681 35.8732 16.6068C36.0597 17.7499 36.1406 18.8997 36.1484 19.9186C36.1428 22.1845 35.8736 24.2733 35.1991 26.2985L35.1995 26.2989Z" fill="#4C2A86"/>
<path d="M119.237 15.1098C118.593 12.768 117.464 10.6897 115.789 8.92243C114.518 7.58122 113.019 6.55914 111.325 5.82556C109.922 5.21793 108.454 4.85519 106.934 4.69123C105.915 4.58111 104.896 4.56176 103.874 4.61278C102.46 4.68349 101.072 4.91747 99.7271 5.36676C96.2028 6.54436 93.5401 8.75284 91.7897 12.0404C90.8527 13.8003 90.3028 15.6802 90.0625 17.6564C89.9211 18.8192 89.8922 19.9842 89.9496 21.1519C90.0249 22.6884 90.2845 24.1925 90.7711 25.6547C91.4287 27.6307 92.436 29.4043 93.8574 30.9298C95.5086 32.7017 97.5084 33.9317 99.8105 34.6713C101.678 35.2711 103.597 35.4745 105.553 35.4143C106.846 35.3746 108.119 35.2103 109.368 34.8771C111.688 34.2582 113.745 33.1534 115.484 31.4871C116.924 30.1072 117.974 28.4617 118.708 26.6142C119.544 24.5134 119.876 22.3204 119.875 20.0693C119.875 18.2619 119.697 16.7874 119.236 15.1095L119.237 15.1098ZM116.535 21.7096C116.273 24.19 115.448 26.452 113.844 28.3913C112.496 30.02 110.786 31.1163 108.781 31.7588C107.356 32.2154 105.889 32.3706 104.398 32.3178C102.097 32.2366 99.959 31.6286 98.0485 30.3088C96.2809 29.0876 95.0319 27.4523 94.2054 25.4816C93.4764 23.7432 93.1766 21.9235 93.1819 20.1471C93.1798 18.061 93.4993 16.1372 94.3394 14.3266C95.9396 10.8776 98.6023 8.71766 102.325 7.94362C104.822 7.42466 107.291 7.60445 109.664 8.59276C112.091 9.60323 113.911 11.2906 115.137 13.6159C115.894 15.0532 116.329 16.5875 116.512 18.1983C116.646 19.3685 116.659 20.5401 116.535 21.7096H116.535Z" fill="#4C2A86"/>
<path d="M34.5421 17.6211C34.3732 16.2468 34.0604 14.9091 33.5541 13.6196C32.6713 11.3714 31.3495 9.42962 29.484 7.88118C27.1873 5.97458 24.52 4.96023 21.5674 4.67102C20.0168 4.51903 18.4677 4.55527 16.9252 4.79698C15.4042 5.03553 13.948 5.47849 12.573 6.17231C9.3565 7.79534 7.15998 10.3377 5.85572 13.6731C5.07852 15.6603 4.75166 17.7323 4.73125 19.8584C4.72246 20.8868 4.78755 21.9096 4.93778 22.9282C5.19884 24.6983 5.72519 26.3818 6.56573 27.9626C7.67402 30.0473 9.20169 31.7519 11.1853 33.0432C13.2 34.3545 15.4158 35.0845 17.796 35.3305C19.2459 35.48 20.6962 35.4624 22.1444 35.2742C23.9081 35.0448 25.5864 34.5455 27.1661 33.7233C28.963 32.7874 30.4861 31.5257 31.695 29.896C33.5446 27.4029 34.4284 24.5674 34.6385 21.5008C34.7271 20.2064 34.7004 18.9123 34.5421 17.6214V17.6211ZM30.1705 25.9962C28.7149 29.0396 26.3442 30.9972 23.101 31.899C21.6887 32.2916 20.2444 32.3859 18.7847 32.2941C17.0058 32.1822 15.3222 31.7385 13.7594 30.8685C11.5404 29.6332 9.99122 27.8068 9.01381 25.4794C8.52863 24.3243 8.23027 23.1203 8.09376 21.8748C7.86858 19.818 7.98574 17.7882 8.59161 15.8017C9.2038 13.7949 10.247 12.0476 11.8014 10.6255C13.3404 9.21746 15.1456 8.32766 17.1905 7.92481C18.493 7.66832 19.8068 7.6159 21.1258 7.75276C23.7758 8.0279 26.0895 9.04893 27.987 10.9358C29.5101 12.4505 30.4688 14.2927 30.991 16.3654C31.3087 17.6264 31.4216 18.6967 31.423 20.0533C31.4279 22.1232 31.0684 24.1181 30.1701 25.9962H30.1705Z" fill="#4C2A86"/>
</g>
<defs>
<clipPath id="clip0_3981_9305">
<rect width="124.606" height="40" fill="white"/>
</clipPath>
</defs>
</svg>
