<svg width="40" height="40" viewBox="0 0 40 40" fill="none" xmlns="http://www.w3.org/2000/svg">
<rect width="40" height="40" rx="8" fill="url(#paint0_linear_3981_9218)"/>
<path fill-rule="evenodd" clip-rule="evenodd" d="M34.5268 18.9236C34.2295 19.0569 33.9196 19.1602 33.6018 19.2318L33.0536 19.3688C32.7795 19.4375 32.5739 19.5402 32.4368 19.677C32.3342 19.8485 32.2657 20.0197 32.2657 20.1902C32.2659 20.4021 32.3383 20.6075 32.471 20.7726C32.608 20.9096 32.8136 20.9782 33.0877 20.9782C33.5333 20.9782 33.8759 20.8411 34.1156 20.6014C34.3553 20.3617 34.4924 19.9847 34.4924 19.5391L34.5268 18.9226V18.9236ZM34.9035 21.87C34.5724 22.0396 34.2119 22.1442 33.8415 22.1782C33.5118 22.2194 33.1802 22.2422 32.848 22.2468C32.3179 22.2508 31.8009 22.0824 31.3748 21.7671C30.9636 21.4589 30.7236 20.9447 30.7236 20.2253C30.7236 19.54 30.9292 19.0606 31.3062 18.7865C31.6833 18.5124 32.1971 18.3068 32.7794 18.2039C32.8821 18.2039 32.985 18.2039 33.0536 18.1698C33.1906 18.1354 33.2933 18.1354 33.4303 18.1012C34.1156 17.9984 34.4577 17.7928 34.4567 17.4845C34.4567 17.2448 34.3197 17.0733 34.08 17.0048C33.8584 16.9347 33.6271 16.9001 33.3947 16.9021C33.1958 16.8999 32.9982 16.9347 32.8121 17.0048C32.6414 17.0742 32.5063 17.2101 32.4378 17.3812H30.8607C30.9293 16.9018 31.1349 16.4562 31.5119 16.148C31.9246 15.7713 32.5395 15.6001 33.3277 15.6001C34.2183 15.6001 34.8695 15.7371 35.3147 16.0454C35.76 16.3536 36 16.7992 36 17.3812V19.5741C36 20.225 35.8974 20.7047 35.6574 21.0815C35.5203 21.4245 35.2453 21.6983 34.9035 21.87ZM27.1949 22.1442V19.0607C27.1949 18.444 27.2975 17.8957 27.469 17.4845C27.6405 17.0734 27.8802 16.7298 28.2237 16.4581C28.5371 16.2133 28.8992 16.0383 29.2858 15.9449C29.6969 15.8419 30.1081 15.7735 30.5193 15.7735H30.7246V17.4845H30.1757C29.7301 17.4845 29.3875 17.5872 29.1478 17.8272C28.9422 18.0669 28.8052 18.4095 28.8052 18.8892V22.1798L27.195 22.1457L27.1949 22.1442ZM25.4138 18.9236C25.1165 19.057 24.8066 19.1603 24.4887 19.2318L23.9406 19.3688C23.6664 19.4375 23.461 19.5402 23.3241 19.677C23.2211 19.8485 23.1526 20.0197 23.1526 20.1902C23.1529 20.4021 23.2253 20.6076 23.3582 20.7726C23.4953 20.9096 23.7008 20.9782 23.975 20.9782C24.4203 20.9782 24.7629 20.8411 25.0029 20.6014C25.2429 20.3617 25.3796 19.9847 25.3796 19.5391L25.4138 18.9226V18.9236ZM25.7908 21.87C25.4597 22.0396 25.0992 22.1442 24.7287 22.1782C24.399 22.2193 24.0672 22.2422 23.735 22.2468C23.2049 22.2508 22.6879 22.0824 22.2618 21.7671C21.8506 21.4589 21.6109 20.9447 21.6109 20.2253C21.6109 19.54 21.8165 19.0606 22.1932 18.7865C22.57 18.5124 23.0841 18.3068 23.6664 18.2039C23.7694 18.2039 23.872 18.2039 23.9406 18.1698C24.0776 18.1354 24.182 18.1354 24.3176 18.1012C25.0029 17.9984 25.345 17.7928 25.344 17.4845C25.344 17.2448 25.2073 17.0733 24.9673 17.0048C24.7457 16.9347 24.5143 16.9001 24.282 16.9021C24.0831 16.8999 23.8857 16.9347 23.6996 17.0048C23.5282 17.0739 23.3924 17.2098 23.3234 17.3812H21.8158C21.8844 16.9018 22.09 16.4562 22.4667 16.148C22.8779 15.7713 23.4946 15.6001 24.2825 15.6001C25.1734 15.6001 25.8243 15.7371 26.2699 16.0454C26.7155 16.3536 26.9552 16.8001 26.9552 17.3816V19.5745C26.9552 20.2254 26.8522 20.7051 26.6126 21.0818C26.407 21.4245 26.1328 21.6986 25.7902 21.87H25.7908ZM19.8974 18.9578C19.8974 18.341 19.7944 17.8613 19.5548 17.5187C19.3151 17.1761 18.9722 17.0055 18.5269 17.0055C18.1157 17.0055 17.7722 17.1769 17.5334 17.5187C17.3278 17.8272 17.1908 18.3069 17.1908 18.9578C17.1908 19.5745 17.2934 20.0198 17.5334 20.3283C17.7731 20.6705 18.1152 20.8416 18.5598 20.8416C18.9368 20.8416 19.3145 20.6704 19.5192 20.3283C19.7592 19.9857 19.8962 19.5402 19.8962 18.9578H19.8974ZM17.1906 23.6515C17.1935 23.8702 17.1068 24.0807 16.9509 24.2341C16.8139 24.4053 16.6083 24.4738 16.3686 24.4738H15.5804V18.5125C15.5804 17.3816 15.8886 16.6281 16.5394 16.2181C17.1562 15.8058 17.91 15.6002 18.6294 15.6002C19.0406 15.6002 19.4517 15.6687 19.8288 15.8399C20.1993 15.9708 20.5296 16.1951 20.7879 16.491C21.2679 17.1078 21.5076 17.9298 21.5076 18.8908C21.5076 19.8843 21.2661 20.7066 20.7879 21.3233C20.3097 21.9401 19.7259 22.2468 18.9736 22.2468C18.631 22.2468 18.2542 22.1782 17.9472 22.0412C17.6386 21.87 17.3646 21.63 17.1925 21.2865V23.6515H17.1906ZM13.833 18.9236C13.5356 19.057 13.2257 19.1602 12.9077 19.2318L12.3598 19.3344C12.0857 19.4028 11.8801 19.5057 11.7431 19.643C11.6401 19.8141 11.5716 19.9856 11.5716 20.1562C11.5718 20.3682 11.6444 20.5737 11.7772 20.7388C11.9142 20.8758 12.1198 20.9443 12.394 20.9441C12.8395 20.9441 13.1819 20.8074 13.4219 20.5674C13.6619 20.3274 13.7986 19.9506 13.7986 19.5053L13.833 18.923V18.9236ZM14.2098 21.87C13.8785 22.0397 13.5178 22.1443 13.1472 22.1782C12.8175 22.2194 12.4858 22.2422 12.1537 22.2468C11.6236 22.2508 11.1066 22.0824 10.6805 21.7671C10.2693 21.4589 10.0293 20.9447 10.0293 20.2253C10.0293 19.54 10.2349 19.0606 10.6119 18.7865C10.9889 18.5124 11.5025 18.3068 12.0851 18.2039C12.1877 18.2039 12.2907 18.2039 12.3593 18.1698C12.4619 18.1354 12.599 18.1354 12.736 18.1012C13.4213 17.9984 13.7639 17.7928 13.7639 17.4845C13.7639 17.2448 13.6269 17.0733 13.3869 17.0048C13.1654 16.9347 12.9342 16.9001 12.7019 16.9021C12.503 16.8999 12.3054 16.9347 12.1193 17.0048C11.9479 17.0739 11.8121 17.2098 11.7431 17.3812H10.1669C10.2354 16.9018 10.441 16.4562 10.8181 16.148C11.2289 15.7713 11.8457 15.6001 12.6339 15.6001C13.5245 15.6001 14.1756 15.7371 14.6209 16.0454C15.0662 16.3536 15.3062 16.8001 15.3062 17.3816V19.5745C15.3062 20.2254 15.2032 20.7051 14.9636 21.0818C14.8265 21.4245 14.5524 21.6986 14.2089 21.87H14.2098ZM5.61024 23.6512C5.61308 23.8701 5.52654 24.0806 5.37052 24.2342C5.23349 24.4054 5.02791 24.4739 4.78791 24.4739H4V18.5125C4 17.3814 4.3082 16.6282 4.95943 16.217C5.57618 15.8058 6.32967 15.6002 7.0491 15.6002C7.46027 15.6002 7.87115 15.6688 8.24818 15.84C8.61867 15.9709 8.94912 16.1952 9.20761 16.4911C9.68704 17.1079 9.92704 17.9299 9.92704 18.8893C9.92704 19.8828 9.68555 20.7052 9.20761 21.3219C8.72974 21.9387 8.14528 22.2469 7.39179 22.2469C7.04917 22.2469 6.67207 22.1784 6.36537 22.0413C6.05682 21.8702 5.78276 21.6302 5.61067 21.2866V23.6517L5.61024 23.6512ZM8.2826 18.9575C8.2826 18.3407 8.17998 17.861 7.93998 17.5184C7.69998 17.1758 7.35765 17.0052 6.91356 17.0052C6.5024 17.0052 6.15886 17.1766 5.91979 17.5184C5.71449 17.8269 5.57746 18.3066 5.57746 18.9575C5.57746 19.5742 5.68007 20.0195 5.91979 20.3281C6.15972 20.6702 6.50233 20.8413 6.9477 20.8413C7.32473 20.8413 7.7024 20.6701 7.90713 20.3281C8.18126 19.9854 8.28388 19.5399 8.28388 18.9575H8.2826Z" fill="white"/>
<defs>
<linearGradient id="paint0_linear_3981_9218" x1="8.36952" y1="65.3249" x2="55.0447" y2="49.8996" gradientUnits="userSpaceOnUse">
<stop stop-color="#E14A55"/>
<stop offset="1" stop-color="#8E278F"/>
</linearGradient>
</defs>
</svg>
