<svg width="144" height="40" viewBox="0 0 144 40" fill="none" xmlns="http://www.w3.org/2000/svg">
<g clip-path="url(#clip0_3981_9211)">
<path fill-rule="evenodd" clip-rule="evenodd" d="M137.371 14.9812C136.033 15.5819 134.638 16.0477 133.208 16.3705L130.741 16.9882C129.508 17.2975 128.582 17.7607 127.966 18.3774C127.504 19.1502 127.196 19.9218 127.196 20.6908C127.196 21.6457 127.522 22.5714 128.119 23.3157C128.736 23.9334 129.661 24.2424 130.895 24.2424C132.9 24.2424 134.442 23.6247 135.52 22.5442C136.599 21.4636 137.216 19.7641 137.216 17.7556L137.371 14.9768V14.9812ZM139.066 28.2627C137.576 29.0271 135.954 29.4987 134.287 29.6519C132.803 29.8375 131.311 29.9404 129.816 29.9609C127.431 29.9788 125.104 29.2201 123.187 27.7985C121.336 26.4093 120.256 24.0917 120.256 20.8488C120.256 17.7597 121.181 15.5989 122.878 14.3632C124.575 13.1275 126.887 12.2009 129.508 11.737C129.969 11.737 130.433 11.737 130.741 11.5832C131.358 11.428 131.82 11.428 132.436 11.2742C135.52 10.8107 137.06 9.88396 137.055 8.49408C137.055 7.41353 136.439 6.6407 135.36 6.3317C134.363 6.01596 133.322 5.85986 132.276 5.86915C131.381 5.8589 130.492 6.01596 129.654 6.3317C128.886 6.64487 128.278 7.25743 127.97 8.02866H120.873C121.182 5.86755 122.107 3.85903 123.804 2.46979C125.66 0.771549 128.428 0 131.975 0C135.982 0 138.913 0.617685 140.916 2.00724C142.92 3.39648 144 5.40501 144 8.02866V17.9136C144 20.8475 143.538 23.0099 142.458 24.7081C141.841 26.2541 140.604 27.4885 139.066 28.2627ZM104.377 29.4983V15.5993C104.377 12.8192 104.839 10.3478 105.611 8.49441C106.382 6.64102 107.461 5.09247 109.007 3.86768C110.417 2.76405 112.046 1.97519 113.786 1.55432C115.636 1.09017 117.486 0.781486 119.337 0.781486H120.26V8.49441H117.791C115.786 8.49441 114.244 8.95695 113.165 10.0388C112.24 11.1193 111.623 12.6637 111.623 14.8261V29.6589L104.377 29.5051L104.377 29.4983ZM96.3619 14.9812C95.0243 15.5826 93.6298 16.048 92.1994 16.3705L89.7325 16.9882C88.4989 17.2975 87.5744 17.7607 86.9584 18.3774C86.495 19.1502 86.1869 19.9218 86.1869 20.6908C86.1878 21.6457 86.5139 22.572 87.112 23.3157C87.7286 23.9334 88.6538 24.2424 89.8874 24.2424C91.8912 24.2424 93.433 23.6247 94.513 22.5442C95.593 21.4636 96.2083 19.7641 96.2083 17.7556L96.3619 14.9768V14.9812ZM98.0586 28.2627C96.5686 29.0271 94.9462 29.4987 93.2794 29.6519C91.7955 29.8372 90.3024 29.9404 88.8074 29.9609C86.4221 29.9788 84.0954 29.2201 82.1779 27.7985C80.3277 26.4093 79.249 24.0917 79.249 20.8488C79.249 17.7597 80.1741 15.5989 81.8694 14.3632C83.5648 13.1275 85.8784 12.2009 88.4989 11.737C88.9622 11.737 89.424 11.737 89.7325 11.5832C90.3491 11.428 90.8192 11.428 91.4291 11.2742C94.513 10.8107 96.0525 9.88396 96.048 8.49408C96.048 7.41353 95.4326 6.6407 94.3526 6.3317C93.3555 6.01596 92.3146 5.85986 91.2688 5.86915C90.3741 5.8589 89.4854 6.01596 88.6483 6.3317C87.8771 6.64326 87.2659 7.25582 86.9555 8.02866H80.1712C80.4797 5.86755 81.4048 3.85903 83.1002 2.46979C84.9504 0.771549 87.7258 0 91.2714 0C95.2803 0 98.2093 0.617685 100.214 2.00724C102.22 3.39648 103.298 5.40917 103.298 8.03026V17.9152C103.298 20.8491 102.835 23.0115 101.756 24.7097C100.831 26.2541 99.5978 27.4898 98.056 28.2627H98.0586ZM71.5382 15.1351C71.5382 12.355 71.0749 10.1926 69.9965 8.64827C68.9178 7.10389 67.3747 6.3349 65.3709 6.3349C63.5206 6.3349 61.9747 7.10773 60.9002 8.64827C59.975 10.0391 59.3584 12.2012 59.3584 15.1351C59.3584 17.9152 59.8202 19.9224 60.9002 21.3133C61.9789 22.8554 63.5184 23.6266 65.519 23.6266C67.2157 23.6266 68.9152 22.8551 69.8365 21.3133C70.9165 19.7689 71.5331 17.7604 71.5331 15.1351H71.5382ZM59.3578 36.2929C59.3706 37.2789 58.9808 38.2277 58.279 38.9191C57.6624 39.6907 56.7373 39.9997 55.6586 39.9997H52.1117V13.1279C52.1117 8.03026 53.4986 4.63378 56.4275 2.78584C59.2029 0.92701 62.5952 0.000317922 65.8323 0.000317922C67.6826 0.000317922 69.5328 0.309323 71.2298 1.08087C72.8966 1.67099 74.383 2.68199 75.5456 4.01609C77.7056 6.79616 78.7843 10.5016 78.7843 14.8332C78.7843 19.3115 77.6976 23.0182 75.5456 25.7983C73.3936 28.5784 70.7664 29.9609 67.3811 29.9609C65.8394 29.9609 64.1437 29.6519 62.7622 29.0342C61.3738 28.2626 60.1405 27.1808 59.3661 25.6323V36.2929H59.3578ZM44.2486 14.9812C42.9104 15.5823 41.5155 16.0477 40.0848 16.3705L37.6192 16.833C36.3856 17.1414 35.4605 17.6049 34.8438 18.2239C34.3805 18.9954 34.0723 19.7682 34.0723 20.5372C34.0733 21.4928 34.3997 22.4191 34.9974 23.1634C35.6141 23.7811 36.5392 24.0898 37.7728 24.0889C39.7779 24.0889 41.3184 23.4724 42.3984 22.3906C43.4784 21.3088 44.0938 19.6105 44.0938 17.6033L44.2486 14.9784V14.9812ZM45.944 28.2627C44.4531 29.0275 42.8301 29.499 41.1622 29.6519C39.6787 29.8375 38.1862 29.9404 36.6915 29.9609C34.3062 29.9788 31.9795 29.2201 30.0621 27.7985C28.2118 26.4093 27.1318 24.0917 27.1318 20.8488C27.1318 17.7597 28.057 15.5989 29.7536 14.3632C31.4502 13.1275 33.7613 12.2009 36.383 11.737C36.8448 11.737 37.3082 11.737 37.6166 11.5832C38.0784 11.428 38.6954 11.428 39.312 11.2742C42.3958 10.8107 43.9376 9.88396 43.9376 8.49408C43.9376 7.41353 43.321 6.6407 42.241 6.3317C41.2442 6.01596 40.2038 5.85986 39.1584 5.86915C38.2634 5.8589 37.3741 6.01596 36.5366 6.3317C35.7654 6.64326 35.1542 7.25582 34.8438 8.02866H27.751C28.0595 5.86755 28.9846 3.85903 30.6813 2.46979C32.5302 0.771549 35.3056 0 38.8525 0C42.8602 0 45.7904 0.617685 47.7939 2.00724C49.7978 3.39648 50.8778 5.40917 50.8778 8.03026V17.9152C50.8778 20.8491 50.4144 23.0115 49.336 24.7097C48.7194 26.2541 47.4858 27.4898 45.9398 28.2627H45.944ZM7.24608 36.2916C7.25888 37.2783 6.86944 38.2271 6.16736 38.9194C5.55072 39.691 4.6256 40 3.5456 40H0V13.1282C0 8.0293 1.38688 4.6341 4.31744 2.78072C7.0928 0.927334 10.4835 0.000640735 13.721 0.000640735C15.5712 0.000640735 17.4202 0.309645 19.1168 1.08119C20.784 1.67131 22.271 2.68231 23.4342 4.01641C25.5917 6.79649 26.6717 10.502 26.6717 14.8267C26.6717 19.3051 25.585 23.0118 23.4342 25.7919C21.2838 28.572 18.6538 29.9615 15.263 29.9615C13.7213 29.9615 12.0243 29.6525 10.6442 29.0348C9.25568 28.2633 8.0224 27.1815 7.248 25.6329V36.2935L7.24608 36.2916ZM19.2717 15.1338C19.2717 12.3538 18.8099 10.1914 17.7299 8.64698C16.6499 7.1026 15.1094 6.33362 13.111 6.33362C11.2608 6.33362 9.71488 7.10645 8.63904 8.64698C7.7152 10.0378 7.09856 12.1999 7.09856 15.1338C7.09856 17.9139 7.56032 19.9211 8.63904 21.312C9.71872 22.8541 11.2605 23.6253 13.2646 23.6253C14.9613 23.6253 16.6608 22.8538 17.5821 21.312C18.8157 19.7676 19.2774 17.7591 19.2774 15.1338H19.2717Z" fill="url(#paint0_linear_3981_9211)"/>
</g>
<defs>
<linearGradient id="paint0_linear_3981_9211" x1="30.1303" y1="65.3249" x2="107.293" y2="-26.4776" gradientUnits="userSpaceOnUse">
<stop stop-color="#E14A55"/>
<stop offset="1" stop-color="#8E278F"/>
</linearGradient>
<clipPath id="clip0_3981_9211">
<rect width="144" height="40" fill="white"/>
</clipPath>
</defs>
</svg>
