<svg width="40" height="40" viewBox="0 0 40 40" fill="none" xmlns="http://www.w3.org/2000/svg">
<rect width="40" height="40" rx="8" fill="#2FF19E"/>
<path d="M24.4033 12.7637C22.8965 12.7637 21.3638 13.3974 20.3859 14.4017L20.9408 15.5111L20.7063 15.6985C19.6696 13.9117 17.7635 12.7637 15.7347 12.7637C12.564 12.7637 10.0005 15.5372 10.0005 18.7863V25.7864C9.99771 25.8461 10.0074 25.9058 10.029 25.9615C10.0506 26.0172 10.0836 26.0679 10.1258 26.1102C10.168 26.1525 10.2186 26.1855 10.2744 26.2072C10.3301 26.2289 10.3897 26.2387 10.4494 26.2361H12.749C12.8605 26.2361 12.9674 26.1918 13.0463 26.113C13.1251 26.0342 13.1694 25.9273 13.1694 25.8159V18.7334C13.1694 17.1222 14.1472 15.8019 15.812 15.8019C17.3708 15.8019 18.4807 16.9634 18.4807 18.6804V24.4922C18.4768 24.5497 18.4847 24.6074 18.5041 24.6617C18.5235 24.7161 18.5538 24.7659 18.5933 24.808C18.6327 24.85 18.6804 24.8836 18.7333 24.9064C18.7863 24.9293 18.8434 24.9411 18.9011 24.9409H21.0989C21.1566 24.9411 21.2137 24.9293 21.2667 24.9064C21.3197 24.8836 21.3673 24.85 21.4068 24.808C21.4462 24.7659 21.4766 24.7161 21.4959 24.6617C21.5153 24.6074 21.5232 24.5497 21.5193 24.4922V18.6804C21.5193 16.9634 22.6822 15.8019 24.241 15.8019C25.9057 15.8019 26.8306 17.1222 26.8306 18.7334V25.8133C26.8359 25.9281 26.8857 26.0362 26.9696 26.1147C27.0535 26.1932 27.1647 26.2359 27.2796 26.2336H29.5497C29.6095 26.2363 29.6693 26.2265 29.7251 26.2049C29.7809 26.1833 29.8316 26.1503 29.8739 26.108C29.9163 26.0657 29.9493 26.015 29.9709 25.9592C29.9926 25.9034 30.0023 25.8437 29.9995 25.7839V18.7863C29.9995 15.5372 27.5419 12.7637 24.3973 12.7637" fill="white"/>
</svg>
