<svg width="151" height="40" viewBox="0 0 151 40" fill="none" xmlns="http://www.w3.org/2000/svg">
<g clip-path="url(#clip0_3981_8372)">
<path d="M56.2394 9.85547H47.921C47.6456 9.8553 47.3793 9.95348 47.1699 10.1323C46.9604 10.3112 46.8218 10.5589 46.7789 10.831L43.4146 32.1616C43.3991 32.2606 43.4053 32.3617 43.4326 32.4581C43.46 32.5544 43.508 32.6437 43.5732 32.7198C43.6384 32.7959 43.7193 32.8569 43.8103 32.8987C43.9014 32.9405 44.0004 32.9621 44.1006 32.9619H48.0719C48.3474 32.962 48.614 32.8637 48.8234 32.6846C49.0328 32.5055 49.1713 32.2574 49.214 31.9852L50.1214 26.232C50.164 25.96 50.3023 25.7121 50.5115 25.533C50.7207 25.354 50.9869 25.2555 51.2623 25.2553H53.8956C59.3751 25.2553 62.5376 22.6037 63.3634 17.3492C63.7356 15.0504 63.3792 13.2441 62.3028 11.9792C61.1205 10.5901 59.0236 9.85547 56.2394 9.85547ZM57.1991 17.646C56.7442 20.6309 54.4636 20.6309 52.2584 20.6309H51.0032L51.8838 15.0565C51.9096 14.8934 51.9927 14.7448 52.1183 14.6376C52.2438 14.5303 52.4035 14.4714 52.5686 14.4714H53.1439C54.6461 14.4714 56.0631 14.4714 56.7953 15.3277C57.232 15.8385 57.3658 16.5975 57.1991 17.646ZM81.1047 17.5499H77.1212C76.9561 17.5499 76.7964 17.6088 76.6709 17.7161C76.5454 17.8233 76.4622 17.9719 76.4365 18.135L76.2601 19.2491L75.9815 18.8453C75.1192 17.5937 73.1962 17.1753 71.2768 17.1753C66.875 17.1753 63.1153 20.5092 62.3831 25.186C62.0024 27.5189 62.5436 29.7496 63.867 31.3053C65.0809 32.7357 66.8178 33.3317 68.8843 33.3317C72.4311 33.3317 74.3979 31.0511 74.3979 31.0511L74.2203 32.1579C74.2045 32.2569 74.2103 32.3581 74.2374 32.4546C74.2644 32.5511 74.3121 32.6406 74.3771 32.7169C74.442 32.7932 74.5228 32.8545 74.6137 32.8966C74.7047 32.9387 74.8037 32.9605 74.9039 32.9607H78.492C78.7676 32.9608 79.0341 32.8625 79.2436 32.6834C79.453 32.5043 79.5915 32.2562 79.6342 31.984L81.787 18.3503C81.8029 18.2515 81.7971 18.1505 81.7701 18.0542C81.7431 17.9579 81.6955 17.8687 81.6306 17.7926C81.5657 17.7165 81.4851 17.6553 81.3943 17.6135C81.3035 17.5716 81.2047 17.5499 81.1047 17.5499ZM75.5522 25.3027C75.1678 27.5785 73.3616 29.1062 71.0579 29.1062C69.9012 29.1062 68.9768 28.7352 68.3832 28.0322C67.7945 27.334 67.5707 26.3403 67.758 25.2334C68.1168 22.9771 69.9535 21.3996 72.2219 21.3996C73.3531 21.3996 74.2726 21.7754 74.8783 22.4845C75.4853 23.2009 75.7261 24.2008 75.5522 25.3027ZM102.32 17.5499H98.3168C98.1281 17.5502 97.9422 17.5966 97.7754 17.685C97.6086 17.7733 97.4659 17.9011 97.3596 18.0571L91.8387 26.1894L89.4985 18.3746C89.4267 18.1362 89.28 17.9273 89.0802 17.7788C88.8805 17.6303 88.6382 17.55 88.3892 17.5499H84.4556C84.3452 17.5496 84.2363 17.5757 84.138 17.626C84.0397 17.6763 83.9549 17.7493 83.8905 17.839C83.8261 17.9288 83.7841 18.0325 83.768 18.1418C83.7518 18.251 83.762 18.3625 83.7976 18.467L88.2068 31.4062L84.0616 37.258C83.9879 37.3617 83.9442 37.4837 83.9353 37.6107C83.9263 37.7376 83.9525 37.8645 84.0109 37.9776C84.0693 38.0906 84.1577 38.1854 84.2664 38.2516C84.3751 38.3177 84.4999 38.3527 84.6272 38.3526H88.6252C88.8119 38.3529 88.9958 38.3079 89.1613 38.2214C89.3267 38.135 89.4687 38.0097 89.5751 37.8564L102.889 18.6385C102.961 18.5345 103.003 18.4128 103.011 18.2865C103.019 18.1602 102.992 18.0341 102.934 17.922C102.875 17.8098 102.787 17.7158 102.679 17.6503C102.57 17.5847 102.446 17.55 102.32 17.5499Z" fill="#253B80"/>
<path d="M115.572 9.85571H107.252C106.977 9.85582 106.711 9.95414 106.502 10.133C106.292 10.3118 106.154 10.5594 106.111 10.8312L102.747 32.1618C102.731 32.2606 102.737 32.3616 102.764 32.4579C102.791 32.5542 102.839 32.6435 102.904 32.7195C102.969 32.7956 103.05 32.8567 103.141 32.8986C103.231 32.9405 103.33 32.9621 103.43 32.9621H107.7C107.892 32.9619 108.078 32.8929 108.225 32.7676C108.371 32.6422 108.468 32.4689 108.498 32.2786L109.452 26.2322C109.495 25.9602 109.633 25.7123 109.843 25.5333C110.052 25.3542 110.318 25.2557 110.593 25.2555H113.225C118.706 25.2555 121.867 22.604 122.694 17.3495C123.068 15.0506 122.709 13.2444 121.633 11.9794C120.452 10.5904 118.356 9.85571 115.572 9.85571ZM116.531 17.6462C116.078 20.6311 113.797 20.6311 111.591 20.6311H110.337L111.218 15.0567C111.244 14.8936 111.327 14.7449 111.452 14.6376C111.577 14.5303 111.737 14.4714 111.902 14.4716H112.477C113.978 14.4716 115.397 14.4716 116.129 15.3279C116.565 15.8388 116.698 16.5978 116.531 17.6462ZM140.436 17.5502H136.455C136.29 17.5497 136.13 17.6085 136.004 17.7158C135.879 17.8232 135.796 17.972 135.771 18.1352L135.595 19.2494L135.315 18.8455C134.453 17.5939 132.531 17.1755 130.611 17.1755C126.21 17.1755 122.451 20.5095 121.719 25.1862C121.339 27.5191 121.878 29.7498 123.202 31.3055C124.418 32.7359 126.152 33.3319 128.219 33.3319C131.766 33.3319 133.733 31.0513 133.733 31.0513L133.555 32.1582C133.539 32.2573 133.545 32.3587 133.572 32.4554C133.599 32.5521 133.647 32.6417 133.713 32.718C133.778 32.7944 133.859 32.8556 133.95 32.8976C134.041 32.9395 134.141 32.9611 134.241 32.9609H137.828C138.103 32.9608 138.37 32.8623 138.579 32.6832C138.788 32.5041 138.926 32.2563 138.969 31.9842L141.123 18.3505C141.138 18.2514 141.132 18.1503 141.104 18.0539C141.077 17.9575 141.029 17.8683 140.963 17.7922C140.898 17.7162 140.817 17.6552 140.726 17.6134C140.635 17.5716 140.536 17.55 140.436 17.5502ZM134.883 25.303C134.501 27.5787 132.693 29.1064 130.389 29.1064C129.235 29.1064 128.308 28.7354 127.714 28.0324C127.126 27.3342 126.904 26.3405 127.089 25.2336C127.45 22.9774 129.284 21.3998 131.553 21.3998C132.684 21.3998 133.604 21.7756 134.209 22.4848C134.819 23.2012 135.06 24.201 134.883 25.303ZM145.132 10.4408L141.718 32.1618C141.702 32.2606 141.708 32.3616 141.735 32.4579C141.762 32.5542 141.81 32.6435 141.875 32.7195C141.94 32.7956 142.021 32.8567 142.112 32.8986C142.202 32.9405 142.301 32.9621 142.401 32.9621H145.834C146.404 32.9621 146.888 32.5486 146.976 31.9854L150.343 10.656C150.358 10.5572 150.352 10.4561 150.325 10.3597C150.298 10.2634 150.25 10.1741 150.185 10.0979C150.12 10.0218 150.04 9.96056 149.949 9.91854C149.858 9.87652 149.759 9.85467 149.659 9.85449H145.815C145.65 9.85508 145.491 9.91439 145.366 10.0218C145.241 10.1292 145.158 10.2778 145.132 10.4408Z" fill="#179BD7"/>
<path d="M8.87149 37.1072L9.50762 33.0666L8.09061 33.0337H1.32422L6.02651 3.21807C6.04051 3.12697 6.08678 3.04393 6.15689 2.9841C6.227 2.92426 6.31627 2.89161 6.40844 2.8921H17.8175C21.6051 2.8921 24.219 3.68027 25.5837 5.23594C26.2235 5.96574 26.631 6.72837 26.828 7.56763C27.0348 8.44825 27.0384 9.50036 26.8365 10.7836L26.8219 10.8772V11.6995L27.4617 12.0619C27.9501 12.3094 28.3892 12.6441 28.7571 13.0496C29.3045 13.6736 29.6584 14.4666 29.808 15.4068C29.9625 16.3738 29.9114 17.5244 29.6584 18.8271C29.3665 20.3256 28.8946 21.6307 28.2572 22.6987C27.6949 23.6554 26.9388 24.4839 26.0374 25.1313C25.1909 25.7322 24.185 26.1883 23.0477 26.4802C21.9457 26.7673 20.6893 26.912 19.3112 26.912H18.4233C17.7883 26.912 17.1717 27.1407 16.6876 27.5506C16.2042 27.9648 15.8835 28.5372 15.7826 29.1658L15.7157 29.5295L14.5918 36.6511L14.5408 36.9126C14.5274 36.9953 14.5043 37.0366 14.4702 37.0646C14.4372 37.0916 14.3961 37.1066 14.3534 37.1072H8.87149Z" fill="#253B80"/>
<path d="M28.0653 10.9722C28.0313 11.1899 27.9923 11.4125 27.9486 11.6411C26.444 19.366 21.2965 22.0346 14.7223 22.0346H11.375C10.571 22.0346 9.8935 22.6184 9.76822 23.4115L8.05442 34.2805L7.56911 37.3615C7.54978 37.4837 7.55716 37.6086 7.59075 37.7277C7.62433 37.8468 7.68333 37.9572 7.76367 38.0513C7.84401 38.1454 7.94379 38.2209 8.05613 38.2728C8.16848 38.3246 8.29073 38.3515 8.41445 38.3515H14.3513C15.0543 38.3515 15.6516 37.8407 15.7622 37.1474L15.8206 36.8457L16.9384 29.7522L17.0102 29.3629C17.1197 28.6672 17.7181 28.1563 18.4211 28.1563H19.309C25.061 28.1563 29.5638 25.821 30.8799 19.0631C31.4297 16.2401 31.1451 13.8828 29.6903 12.225C29.2293 11.7121 28.6786 11.2876 28.0653 10.9722Z" fill="#179BD7"/>
<path d="M26.4927 10.3447C26.0123 10.2057 25.5236 10.0972 25.0295 10.0199C24.0532 9.86988 23.0665 9.79789 22.0787 9.80463H13.1363C12.796 9.80437 12.4668 9.92587 12.2083 10.1472C11.9497 10.3685 11.7789 10.6749 11.7266 11.0112L9.82427 23.0601L9.76953 23.4116C9.82879 23.028 10.0234 22.6784 10.3181 22.4258C10.6128 22.1733 10.9882 22.0345 11.3763 22.0347H14.7236C21.2978 22.0347 26.4453 19.3649 27.9499 11.6413C27.9949 11.4126 28.0326 11.19 28.0666 10.9723C27.6696 10.7641 27.2558 10.5896 26.8296 10.4505C26.7179 10.4134 26.6056 10.3781 26.4927 10.3447Z" fill="#222D65"/>
<path d="M11.7248 11.0109C11.7767 10.6746 11.9474 10.3679 12.2061 10.1467C12.4648 9.92556 12.7942 9.80451 13.1346 9.80556H22.077C23.1364 9.80556 24.1252 9.87489 25.0277 10.0209C25.6385 10.1168 26.2408 10.2604 26.8291 10.4502C27.2731 10.5974 27.6854 10.7713 28.0661 10.972C28.5137 8.11731 28.0625 6.17363 26.519 4.41361C24.8173 2.47602 21.7461 1.64648 17.8162 1.64648H6.40709C5.60432 1.64648 4.91953 2.23032 4.79547 3.02458L0.0433034 33.1468C0.0211686 33.2866 0.0295901 33.4296 0.0679887 33.5659C0.106387 33.7022 0.173852 33.8285 0.265741 33.9362C0.35763 34.044 0.471764 34.1305 0.60029 34.1899C0.728817 34.2493 0.868687 34.2802 1.01028 34.2804H8.05399L9.82252 23.0598L11.7248 11.0109Z" fill="#253B80"/>
</g>
<defs>
<clipPath id="clip0_3981_8372">
<rect width="150.376" height="40" fill="white"/>
</clipPath>
</defs>
</svg>
