<svg width="40" height="40" viewBox="0 0 40 40" fill="none" xmlns="http://www.w3.org/2000/svg">
<rect width="40" height="40" rx="8" fill="#013089"/>
<path d="M15.5802 31.1864L15.9962 28.5444L15.0695 28.5229H10.6445L13.7197 9.0276C13.7288 8.96803 13.7591 8.91374 13.8049 8.87461C13.8508 8.83549 13.9092 8.81414 13.9694 8.81446H21.4306C23.9076 8.81446 25.617 9.32982 26.5095 10.347C26.9279 10.8242 27.1943 11.3229 27.3232 11.8716C27.4584 12.4474 27.4608 13.1354 27.3288 13.9744L27.3192 14.0356V14.5733L27.7376 14.8103C28.057 14.9721 28.3441 15.1909 28.5847 15.4561C28.9427 15.8641 29.1742 16.3826 29.272 16.9974C29.373 17.6296 29.3396 18.382 29.1742 19.2338C28.9833 20.2136 28.6746 21.0669 28.2578 21.7652C27.8901 22.3908 27.3956 22.9326 26.8062 23.3558C26.2525 23.7487 25.5947 24.047 24.851 24.2378C24.1303 24.4255 23.3086 24.5202 22.4074 24.5202H21.8267C21.4115 24.5202 21.0082 24.6697 20.6917 24.9377C20.3755 25.2086 20.1658 25.5829 20.0999 25.9939L20.0561 26.2317L19.3211 30.8882L19.2877 31.0592C19.279 31.1133 19.2639 31.1403 19.2416 31.1586C19.22 31.1762 19.1931 31.186 19.1652 31.1864H15.5802Z" fill="#FEFFFF"/>
<path d="M28.1334 14.0977C28.1111 14.24 28.0857 14.3856 28.057 14.5351C27.0731 19.5861 23.7068 21.331 19.4075 21.331H17.2184C16.6927 21.331 16.2496 21.7127 16.1677 22.2313L15.0469 29.3381L14.7295 31.3526C14.7169 31.4325 14.7217 31.5142 14.7437 31.5921C14.7656 31.67 14.8042 31.7421 14.8568 31.8037C14.9093 31.8652 14.9746 31.9146 15.048 31.9485C15.1215 31.9824 15.2014 32 15.2824 32H19.1649C19.6246 32 20.0152 31.666 20.0876 31.2127L20.1258 31.0154L20.8568 26.3772L20.9037 26.1227C20.9753 25.6678 21.3666 25.3337 21.8264 25.3337H22.4071C26.1687 25.3337 29.1134 23.8068 29.974 19.388C30.3336 17.5421 30.1474 16.0008 29.1961 14.9168C28.8946 14.5815 28.5344 14.3039 28.1334 14.0977Z" fill="#7590BD"/>
<path d="M27.1044 13.6874C26.7902 13.5965 26.4706 13.5256 26.1475 13.475C25.509 13.3769 24.8637 13.3299 24.2178 13.3343H18.3697C18.1472 13.3341 17.9319 13.4135 17.7628 13.5582C17.5937 13.7029 17.482 13.9033 17.4478 14.1232L16.2038 22.0015L16.168 22.2314C16.2067 21.9806 16.334 21.7519 16.5267 21.5868C16.7194 21.4217 16.9649 21.3309 17.2187 21.3311H19.4078C23.7071 21.3311 27.0734 19.5854 28.0573 14.5352C28.0867 14.3857 28.1114 14.2401 28.1337 14.0978C27.874 13.9616 27.6034 13.8475 27.3247 13.7566C27.2517 13.7323 27.1782 13.7093 27.1044 13.6874Z" fill="#AFC2D9"/>
<path d="M17.448 14.1231C17.4819 13.9031 17.5936 13.7026 17.7627 13.558C17.9319 13.4134 18.1473 13.3342 18.3699 13.3349H24.2179C24.9108 13.3349 25.5575 13.3802 26.1477 13.4757C26.5471 13.5384 26.9409 13.6323 27.3257 13.7564C27.616 13.8527 27.8857 13.9664 28.1347 14.0976C28.4274 12.231 28.1323 10.9601 27.1229 9.80932C26.0101 8.5424 24.0016 8 21.4315 8H13.9704C13.4454 8 12.9976 8.38175 12.9164 8.90108L9.80866 28.5968C9.79419 28.6883 9.7997 28.7818 9.82481 28.8709C9.84992 28.96 9.89404 29.0426 9.95413 29.1131C10.0142 29.1835 10.0889 29.2401 10.1729 29.2789C10.257 29.3178 10.3484 29.3379 10.441 29.3381H15.0474L16.204 22.0014L17.448 14.1231Z" fill="#FEFFFF"/>
</svg>
