<svg width="40" height="40" viewBox="0 0 40 40" fill="none" xmlns="http://www.w3.org/2000/svg">
<rect width="40" height="40" rx="8" fill="#32BCAD"/>
<path d="M25.603 25.2998C24.8182 25.2998 24.08 24.9941 23.5249 24.4399L20.5242 21.4398C20.3134 21.2286 19.9463 21.2294 19.7358 21.4398L16.7242 24.4506C16.4518 24.7241 16.128 24.941 15.7713 25.0887C15.4146 25.2363 15.0321 25.3118 14.6461 25.3108H14.0547L17.8552 29.1101C19.042 30.2966 20.9662 30.2966 22.1533 29.1101L25.9645 25.2995L25.603 25.2998ZM14.6461 14.6892C15.4308 14.6892 16.169 14.9947 16.7242 15.5492L19.7358 18.5605C19.8404 18.6648 19.9822 18.7234 20.13 18.7234C20.2778 18.7234 20.4195 18.6648 20.5242 18.5605L23.5249 15.5601C23.7972 15.2866 24.1211 15.0698 24.4778 14.9222C24.8345 14.7746 25.2169 14.6991 25.603 14.7002H25.9645L22.1533 10.8899C20.9662 9.70338 19.042 9.70338 17.8549 10.8899L14.0549 14.6892H14.6461Z" fill="white"/>
<path d="M29.1157 17.8519L26.8126 15.5492C26.7619 15.5696 26.7071 15.5823 26.649 15.5823H25.6018C25.0568 15.5839 24.5344 15.8004 24.148 16.1847L21.1475 19.184C21.0139 19.3178 20.8551 19.4239 20.6804 19.4962C20.5056 19.5685 20.3183 19.6056 20.1291 19.6053C19.94 19.6057 19.7527 19.5686 19.5779 19.4964C19.4032 19.4241 19.2444 19.3181 19.1107 19.1843L16.0988 16.1735C15.7125 15.7891 15.19 15.5726 14.645 15.5711H13.3572C13.3024 15.5711 13.251 15.5584 13.2026 15.54L10.8903 17.8519C9.70323 19.0383 9.70323 20.962 10.8903 22.149L13.2026 24.4603C13.251 24.4419 13.3024 24.4292 13.3572 24.4292H14.645C15.19 24.4277 15.7124 24.2113 16.0988 23.8271L19.1105 20.8163C19.6547 20.2725 20.6036 20.2722 21.1475 20.8163L24.148 23.8158C24.5344 24.2002 25.0568 24.4167 25.6018 24.4183H26.649C26.7071 24.4183 26.7619 24.431 26.8126 24.4514L29.116 22.1487C30.3028 20.9622 30.3028 19.0386 29.116 17.8516" fill="white"/>
</svg>
