<svg width="113" height="40" viewBox="0 0 113 40" fill="none" xmlns="http://www.w3.org/2000/svg">
<g clip-path="url(#clip0_3981_9223)">
<path d="M75.869 26.6957V9.82734C75.869 9.19425 75.6176 8.58705 75.17 8.13936C74.7364 7.70565 74.153 7.45609 73.5414 7.44082L73.4821 7.44004H70.5897C70.2032 7.44002 69.8897 7.12663 69.8897 6.74004C69.8897 6.35345 70.2032 6.04006 70.5897 6.04004H73.4823L73.5764 6.04121C74.5466 6.06543 75.472 6.46148 76.16 7.14951C76.8701 7.85975 77.269 8.82299 77.269 9.82734V26.6957C77.269 27.0823 76.9556 27.3957 76.569 27.3957C76.1825 27.3957 75.8691 27.0823 75.869 26.6957ZM68.0268 19.0715V14.2651C68.0268 10.5083 64.9851 7.46075 61.2287 7.45313V7.45303L54.5627 7.44287C50.7944 7.44306 47.7399 10.4977 47.7398 14.266V36.8469C47.7398 37.2335 47.4264 37.5469 47.0398 37.5469C46.6533 37.5469 46.3399 37.2335 46.3398 36.8469V14.266C46.3399 9.7244 50.0214 6.0429 54.563 6.04287H54.5642L61.2312 6.05313H61.2316C65.7601 6.06234 69.4268 9.7362 69.4268 14.2651V19.0715C69.4268 23.6126 65.7452 27.2947 61.2035 27.2947H51.7827C51.3961 27.2947 51.0827 26.9813 51.0827 26.5947C51.0827 26.2081 51.3961 25.8947 51.7827 25.8947H61.2035C64.9719 25.8947 68.0268 22.8395 68.0268 19.0715Z" fill="#939598"/>
<path d="M75.9503 4.12616L74.6387 2.8145C74.5613 2.73713 74.4999 2.64527 74.458 2.54417C74.4161 2.44307 74.3945 2.3347 74.3945 2.22527C74.3945 2.11583 74.4161 2.00746 74.458 1.90636C74.4999 1.80526 74.5613 1.7134 74.6387 1.63603L75.9494 0.325308C76.1059 0.16891 76.3181 0.0810547 76.5393 0.0810547C76.7606 0.0810547 76.9728 0.16891 77.1293 0.325308L78.44 1.63603C78.5174 1.7134 78.5788 1.80526 78.6207 1.90636C78.6626 2.00746 78.6841 2.11583 78.6841 2.22527C78.6841 2.3347 78.6626 2.44307 78.6207 2.54417C78.5788 2.64527 78.5174 2.73713 78.44 2.8145L77.1288 4.12616C77.0514 4.20355 76.9596 4.26495 76.8585 4.30684C76.7574 4.34873 76.649 4.37029 76.5396 4.37029C76.4301 4.37029 76.3218 4.34873 76.2207 4.30684C76.1195 4.26495 76.0277 4.20355 75.9503 4.12616Z" fill="#32BCAD"/>
<path d="M97.202 16.8583C97.5861 16.8583 97.9666 16.934 98.3215 17.0811C98.6764 17.2281 98.9989 17.4436 99.2705 17.7152L105.954 24.3991C106.866 25.3111 108.103 25.8235 109.393 25.8235L111.725 25.8235C112.111 25.8236 112.425 26.1369 112.425 26.5235C112.425 26.9101 112.111 27.2235 111.725 27.2235L109.393 27.2235C107.732 27.2234 106.139 26.5636 104.965 25.3892L98.2805 18.7051C98.1388 18.5634 97.9707 18.4511 97.7856 18.3744C97.6006 18.2978 97.4022 18.2583 97.202 18.2583C97.0017 18.2583 96.8033 18.2978 96.6183 18.3744C96.4332 18.4511 96.2651 18.5634 96.1234 18.7051L89.415 25.414C88.2404 26.588 86.6475 27.2483 84.9861 27.2483H82.118C81.7314 27.2483 81.418 26.9349 81.418 26.5483C81.418 26.1617 81.7314 25.8483 82.118 25.8483H84.9861C86.276 25.8483 87.513 25.3357 88.4253 24.4238L95.1334 17.7152L95.185 17.6649C95.4455 17.4169 95.7497 17.2189 96.0824 17.0811C96.4373 16.934 96.8178 16.8583 97.202 16.8583ZM84.9861 6.02539C86.6474 6.02539 88.2404 6.68513 89.4151 7.85986L96.1233 14.5681C96.265 14.7097 96.4332 14.8222 96.6183 14.8988C96.8033 14.9755 97.0017 15.0149 97.202 15.0149C97.4022 15.0149 97.6006 14.9755 97.7856 14.8988C97.9707 14.8222 98.1388 14.7097 98.2805 14.5681L104.965 7.88408L105.02 7.82939C106.189 6.68916 107.758 6.0498 109.393 6.04971H111.725C112.111 6.04973 112.425 6.36312 112.425 6.74971C112.425 7.13629 112.111 7.44969 111.725 7.44971H109.393C108.103 7.44978 106.866 7.96217 105.954 8.87412L105.954 8.87402L99.2705 15.558C98.9989 15.8297 98.6764 16.0452 98.3215 16.1922C97.9666 16.3392 97.5861 16.4149 97.202 16.4149C96.8178 16.4149 96.4373 16.3392 96.0824 16.1922C95.7497 16.0544 95.4455 15.8563 95.185 15.6083L95.1334 15.558L88.4252 8.8498C87.5131 7.93767 86.2762 7.42539 84.9861 7.42539H82.118C81.7314 7.42539 81.418 7.11199 81.418 6.72539C81.418 6.33879 81.7314 6.02539 82.118 6.02539H84.9861Z" fill="#939598"/>
<path d="M29.9407 30.833C28.5015 30.833 27.1477 30.2722 26.1295 29.2554L20.6264 23.7518C20.24 23.3645 19.5666 23.3659 19.1806 23.7518L13.6574 29.2751C13.158 29.7769 12.564 30.1748 11.9098 30.4456C11.2557 30.7165 10.5543 30.855 9.84627 30.8531H8.76172L15.7317 37.823C17.9082 39.9996 21.4371 39.9996 23.6142 37.823L30.6037 30.8325L29.9407 30.833ZM9.84627 11.368C11.2855 11.368 12.6392 11.9283 13.6574 12.9455L19.1806 18.4697C19.3725 18.6612 19.6325 18.7687 19.9035 18.7687C20.1746 18.7687 20.4345 18.6612 20.6264 18.4697L26.1295 12.9656C26.629 12.4639 27.223 12.0661 27.8772 11.7953C28.5313 11.5245 29.2327 11.3861 29.9407 11.3881H30.6037L23.6142 4.39806C21.4371 2.22148 17.9082 2.22148 15.7312 4.39806L8.76219 11.368H9.84627Z" fill="#32BCAD"/>
<path d="M36.3854 17.1697L32.1617 12.9455C32.0687 12.9829 31.9682 13.0063 31.8617 13.0063H29.9411C28.9415 13.0092 27.9834 13.4063 27.2748 14.1114L21.7722 19.6136C21.5271 19.8591 21.2359 20.0537 20.9154 20.1863C20.5949 20.319 20.2513 20.387 19.9045 20.3865C19.5576 20.387 19.2141 20.3191 18.8936 20.1865C18.5731 20.054 18.2819 19.8594 18.0367 19.6141L12.513 14.0908C11.8045 13.3857 10.8464 12.9885 9.84674 12.9857H7.48511C7.38465 12.9857 7.29026 12.9624 7.20147 12.9287L2.96091 17.1697C0.783862 19.3463 0.783862 22.8752 2.96091 25.0527L7.20147 29.2928C7.29026 29.2592 7.38465 29.2358 7.48511 29.2358H9.84674C10.8463 29.2331 11.8044 28.8361 12.513 28.1312L18.0363 22.6079C19.0344 21.6103 20.7745 21.6098 21.7722 22.6079L27.2748 28.1106C27.9834 28.8157 28.9415 29.2128 29.9411 29.2157L31.8617 29.2157C31.9682 29.2157 32.0687 29.2391 32.1617 29.2765L36.3859 25.0523C38.5624 22.8757 38.5624 19.3468 36.3859 17.1693" fill="#32BCAD"/>
<path d="M52.7741 34.9279C52.4625 34.9279 52.0994 35.0027 51.7405 35.0854V36.4615C51.9891 36.5522 52.2732 36.5961 52.5452 36.5961C53.2353 36.5961 53.5624 36.3634 53.5624 35.755C53.5624 35.184 53.2947 34.9279 52.7741 34.9279ZM51.5078 37.483V34.762H51.6975L51.7172 34.8803C52.0363 34.8055 52.4779 34.7069 52.7938 34.7069C53.0503 34.7069 53.2947 34.7462 53.4994 34.9116C53.7363 35.1055 53.811 35.4162 53.811 35.7555C53.811 36.1106 53.6928 36.4461 53.3695 36.6312C53.1447 36.7573 52.8414 36.8087 52.569 36.8087C52.2886 36.8087 52.0209 36.7653 51.7405 36.6826V37.483H51.5078ZM55.5437 34.9195C54.8535 34.9195 54.5456 35.1368 54.5456 35.7438C54.5456 36.3316 54.8493 36.5956 55.5437 36.5956C56.2297 36.5956 56.5371 36.3826 56.5371 35.7756C56.5371 35.1877 56.2334 34.9195 55.5437 34.9195ZM56.4306 36.5956C56.2016 36.7611 55.8946 36.8087 55.5437 36.8087C55.1848 36.8087 54.8769 36.7573 54.6521 36.5956C54.3998 36.4181 54.297 36.1265 54.297 35.7602C54.297 35.3966 54.3998 35.1013 54.6521 34.9195C54.8769 34.7583 55.1848 34.7069 55.5437 34.7069C55.8984 34.7069 56.2021 34.7583 56.4306 34.9195C56.6876 35.1018 56.7857 35.3966 56.7857 35.7555C56.7857 36.1228 56.6829 36.4185 56.4306 36.5956ZM59.6978 36.7536L58.9287 35.1013H58.9128L58.1558 36.7536H57.9465L57.1264 34.762H57.3829L58.0651 36.434H58.081L58.8221 34.762H59.0347L59.7964 36.434H59.8118L60.4786 34.762H60.7268L59.9067 36.7536H59.6978ZM62.2146 34.9158C61.5758 34.9158 61.3585 35.1994 61.3193 35.6102H63.1099C63.0903 35.1569 62.8576 34.9158 62.2146 34.9158ZM62.2066 36.8083C61.8235 36.8083 61.5758 36.7536 61.3786 36.5877C61.1459 36.3868 61.0669 36.0952 61.0669 35.7597C61.0669 35.4405 61.1735 35.1013 61.4375 34.9078C61.6585 34.7541 61.9305 34.7069 62.2146 34.7069C62.4711 34.7069 62.7664 34.7345 63.0108 34.9004C63.2991 35.0933 63.3543 35.4331 63.3543 35.819H61.3113C61.3193 36.2288 61.4534 36.5919 62.2263 36.5919C62.5931 36.5919 62.9365 36.5326 63.2557 36.4774V36.6863C62.9239 36.7456 62.5576 36.8083 62.2066 36.8083ZM64.022 36.7536V34.762H64.2113L64.2309 34.8803C64.6528 34.7742 64.85 34.7069 65.221 34.7069H65.2486V34.9279H65.193C64.8818 34.9279 64.6926 34.9709 64.2547 35.0854V36.7536H64.022ZM66.6 34.9158C65.9612 34.9158 65.7444 35.1994 65.7047 35.6102H67.4953C67.4757 35.1569 67.243 34.9158 66.6 34.9158ZM66.592 36.8083C66.2093 36.8083 65.9612 36.7536 65.764 36.5877C65.5309 36.3868 65.4524 36.0952 65.4524 35.7597C65.4524 35.4405 65.5589 35.1013 65.8229 34.9078C66.0439 34.7541 66.3159 34.7069 66.6 34.7069C66.8565 34.7069 67.1523 34.7345 67.3962 34.9004C67.6846 35.0933 67.7397 35.4331 67.7397 35.819H65.6967C65.7047 36.2288 65.8388 36.5919 66.6117 36.5919C66.9785 36.5919 67.3215 36.5326 67.6411 36.4774V36.6863C67.3093 36.7456 66.943 36.8083 66.592 36.8083ZM70.2887 35.0541C70.0302 34.9634 69.758 34.9179 69.484 34.9195C68.7943 34.9195 68.4668 35.1527 68.4668 35.7597C68.4668 36.3354 68.735 36.5877 69.2551 36.5877C69.5668 36.5877 69.9298 36.5129 70.2887 36.4335V35.0541ZM70.3322 36.7536L70.3125 36.6349C69.9929 36.7097 69.5509 36.8087 69.2354 36.8087C68.9794 36.8087 68.735 36.7732 68.5299 36.6036C68.2929 36.4101 68.2182 36.0989 68.2182 35.7597C68.2182 35.4046 68.3364 35.0695 68.6598 34.8882C68.8845 34.7578 69.1883 34.7069 69.4644 34.7069C69.7401 34.7069 70.0088 34.7541 70.2887 34.8331V33.9219H70.5214V36.7536H70.3322ZM73.933 34.9279C73.6213 34.9279 73.2587 35.0027 72.8999 35.0854V36.4578C73.1522 36.5522 73.4326 36.5961 73.7045 36.5961C74.3942 36.5961 74.7218 36.3634 74.7218 35.755C74.7218 35.184 74.4536 34.9279 73.933 34.9279ZM74.5283 36.6312C74.304 36.7573 74.0003 36.8087 73.7279 36.8087C73.4248 36.8068 73.1239 36.7563 72.8368 36.6592L72.8246 36.7536H72.6667V33.9219H72.8999V34.8723C73.219 34.8018 73.6489 34.7069 73.9526 34.7069C74.2096 34.7069 74.4536 34.7462 74.6582 34.9116C74.8951 35.1055 74.9699 35.4162 74.9699 35.7555C74.9699 36.1106 74.8517 36.4461 74.5283 36.6312ZM75.2788 37.5185V37.3017C75.3933 37.3134 75.4998 37.3218 75.575 37.3218C75.8629 37.3218 76.0362 37.2386 76.1979 36.9111L76.2727 36.7536L75.2316 34.762H75.4998L76.3914 36.4816H76.4068L77.2549 34.762H77.5189L76.3988 36.998C76.1942 37.4045 75.9731 37.5381 75.5671 37.5381C75.476 37.5381 75.3778 37.5307 75.2788 37.5185ZM80.7258 35.6181H79.953V36.3162H80.7296C81.2623 36.3162 81.4632 36.2564 81.4632 35.9648C81.4632 35.6531 81.1875 35.6181 80.7258 35.6181ZM80.5843 34.4859H79.9534V35.1957H80.588C81.1123 35.1957 81.3216 35.1326 81.3216 34.8368C81.3216 34.5219 81.0571 34.4859 80.5843 34.4859ZM81.7828 36.5643C81.4987 36.7456 81.1557 36.7536 80.5286 36.7536H79.3497V34.0522H80.5011C81.0413 34.0522 81.3726 34.0597 81.6487 34.2256C81.8459 34.3443 81.9244 34.5256 81.9244 34.762C81.9244 35.0457 81.8067 35.2354 81.4987 35.3616V35.377C81.8459 35.4564 82.0707 35.634 82.0707 36.0162C82.0707 36.2765 81.9763 36.4461 81.7828 36.5643ZM84.43 35.9172C84.1913 35.8964 83.9518 35.886 83.7122 35.8859C83.3057 35.8859 83.1636 35.969 83.1636 36.1541C83.1636 36.3274 83.2823 36.4223 83.5935 36.4223C83.8538 36.4223 84.1655 36.3634 84.43 36.3036V35.9172ZM84.5482 36.7536L84.5323 36.6349C84.1931 36.7181 83.7987 36.8087 83.4519 36.8087C83.2384 36.8087 83.0099 36.7807 82.8482 36.6625C82.6987 36.5564 82.6277 36.3826 82.6277 36.1816C82.6277 35.9564 82.7258 35.7475 82.9627 35.6415C83.1716 35.5429 83.4519 35.5349 83.708 35.5349C83.9169 35.5349 84.1968 35.5466 84.43 35.563V35.527C84.43 35.2153 84.2244 35.113 83.6646 35.113C83.4477 35.113 83.1833 35.1247 82.9309 35.148V34.7462C83.2113 34.7228 83.5267 34.7069 83.787 34.7069C84.1337 34.7069 84.493 34.7345 84.7136 34.8919C84.9426 35.0541 84.986 35.2789 84.986 35.5742V36.7536H84.5482ZM87.586 36.7536V35.6531C87.586 35.2905 87.4009 35.1602 87.0692 35.1602C86.8252 35.1602 86.5178 35.2232 86.257 35.2863V36.7536H85.701V34.762H86.1542L86.1743 34.8882C86.5248 34.7976 86.9159 34.7069 87.2392 34.7069C87.4836 34.7069 87.7322 34.742 87.9215 34.912C88.0789 35.0541 88.1383 35.2508 88.1383 35.5349V36.7536H87.586ZM89.7093 36.8087C89.4527 36.8087 89.1724 36.7732 88.9677 36.5999C88.7233 36.4027 88.6523 36.091 88.6523 35.7555C88.6523 35.4401 88.7551 35.0971 89.0584 34.9041C89.307 34.742 89.6144 34.7069 89.934 34.7069C90.163 34.7069 90.3873 34.7228 90.6359 34.7462V35.1718C90.4345 35.1527 90.1939 35.1368 90.0009 35.1368C89.4724 35.1368 89.2242 35.3027 89.2242 35.7597C89.2242 36.1896 89.4093 36.3751 89.8429 36.3751C90.0953 36.3751 90.3915 36.3274 90.6794 36.2723V36.6826C90.3677 36.7456 90.0284 36.8087 89.7093 36.8087ZM92.3214 35.1247C91.7933 35.1247 91.5606 35.2905 91.5606 35.7438C91.5606 36.1975 91.7896 36.391 92.3218 36.391C92.8461 36.391 93.0746 36.2288 93.0746 35.7756C93.0746 35.3218 92.8503 35.1247 92.3218 35.1247M93.276 36.5999C93.0316 36.7653 92.712 36.8087 92.3218 36.8087C91.9233 36.8087 91.6041 36.7611 91.3639 36.5999C91.0873 36.4185 90.9887 36.1186 90.9887 35.7597C90.9887 35.4008 91.0873 35.0971 91.3634 34.9158C91.6041 34.7541 91.9232 34.7069 92.3214 34.7069C92.7162 34.7069 93.0316 34.7541 93.276 34.9158C93.5517 35.0971 93.6466 35.4008 93.6466 35.7555C93.6466 36.1148 93.5484 36.4185 93.276 36.5999ZM96.8573 36.8087C96.5222 36.8087 96.1591 36.7536 95.8872 36.5284C95.5638 36.2606 95.4652 35.8461 95.4652 35.4003C95.4652 35.0027 95.5914 34.5293 96.0133 34.2532C96.3404 34.0406 96.747 33.9971 97.1568 33.9971C97.4568 33.9971 97.7642 34.0167 98.0997 34.0443V34.5293C97.794 34.5033 97.4874 34.4888 97.1806 34.4859C96.4115 34.4859 96.0844 34.7779 96.0844 35.4003C96.0844 36.0358 96.3881 36.32 96.9558 36.32C97.3264 36.32 97.7409 36.2452 98.1586 36.1578V36.6391C97.7404 36.7223 97.3026 36.8087 96.8573 36.8087ZM99.7927 35.062C99.331 35.062 99.1535 35.2275 99.1179 35.5312H100.459C100.443 35.2078 100.253 35.062 99.7927 35.062ZM99.7095 36.8087C99.3824 36.8087 99.0866 36.7695 98.8656 36.5877C98.6292 36.391 98.546 36.0947 98.546 35.7559C98.546 35.4522 98.6451 35.113 98.9212 34.9158C99.1651 34.7424 99.4773 34.7069 99.7927 34.7069C100.076 34.7069 100.412 34.7382 100.656 34.9078C100.976 35.1326 101.003 35.4798 101.007 35.8901H99.1142C99.1259 36.1938 99.2876 36.391 99.8478 36.391C100.195 36.391 100.581 36.3396 100.909 36.2882V36.6788C100.526 36.7419 100.108 36.8087 99.7095 36.8087ZM103.481 36.7536V35.6531C103.481 35.2905 103.296 35.1602 102.965 35.1602C102.72 35.1602 102.413 35.2232 102.152 35.2863V36.7536H101.596V34.762H102.049L102.069 34.8882C102.42 34.7976 102.811 34.7069 103.134 34.7069C103.379 34.7069 103.627 34.742 103.816 34.912C103.974 35.0541 104.033 35.2508 104.033 35.5349V36.7536H103.481ZM105.616 36.8087C105.348 36.8087 105.103 36.734 104.969 36.5246C104.871 36.3826 104.823 36.19 104.823 35.9218V35.1761H104.421V34.762H104.823L104.883 34.1583H105.375V34.762H106.16V35.1761H105.375V35.8148C105.375 35.969 105.387 36.0989 105.43 36.1933C105.49 36.3274 105.62 36.3788 105.794 36.3788C105.923 36.3788 106.081 36.3592 106.192 36.3396V36.7377C106.01 36.7732 105.801 36.8087 105.616 36.8087ZM106.703 36.7536V34.762H107.156L107.176 34.8882C107.543 34.7854 107.815 34.7069 108.162 34.7069C108.178 34.7069 108.201 34.7069 108.233 34.7106V35.184C108.17 35.1803 108.095 35.1803 108.04 35.1803C107.767 35.1803 107.563 35.2116 107.258 35.2831V36.7536H106.703ZM110.254 35.9172C110.015 35.8964 109.776 35.886 109.536 35.8859C109.13 35.8859 108.988 35.969 108.988 36.1541C108.988 36.3274 109.107 36.4223 109.418 36.4223C109.678 36.4223 109.99 36.3634 110.255 36.3036L110.254 35.9172ZM110.372 36.7536L110.357 36.6349C110.018 36.7181 109.623 36.8087 109.276 36.8087C109.063 36.8087 108.835 36.7807 108.673 36.6625C108.523 36.5564 108.452 36.3826 108.452 36.1816C108.452 35.9564 108.551 35.7475 108.787 35.6415C108.996 35.5429 109.276 35.5349 109.533 35.5349C109.742 35.5349 110.021 35.5466 110.254 35.563V35.527C110.254 35.2153 110.049 35.113 109.489 35.113C109.272 35.113 109.008 35.1247 108.756 35.148V34.7462C109.035 34.7228 109.351 34.7069 109.612 34.7069C109.958 34.7069 110.317 34.7345 110.538 34.8919C110.767 35.0541 110.81 35.2789 110.81 35.5742V36.7536H110.372ZM111.526 33.9219H112.082V36.7536H111.526V33.9219Z" fill="#939598"/>
</g>
<defs>
<clipPath id="clip0_3981_9223">
<rect width="112.867" height="40" fill="white"/>
</clipPath>
</defs>
</svg>
