<svg width="146" height="40" viewBox="0 0 146 40" fill="none" xmlns="http://www.w3.org/2000/svg">
<path d="M33.9581 13.8526H24.344C24.344 12.2753 24.159 11.2169 23.789 10.6774C23.2172 9.88034 21.6389 9.48157 19.0541 9.48115C16.5444 9.48115 14.8827 9.71078 14.0691 10.17C13.2574 10.6315 12.8513 11.6343 12.8509 13.1784C12.8509 14.5758 13.2112 15.4956 13.9316 15.9377C14.4486 16.2507 15.1319 16.4346 15.9814 16.4896L17.9199 16.6263C22.0757 16.9013 24.6707 17.0948 25.7049 17.2069C28.9913 17.5381 31.3735 18.4117 32.8515 19.8276C34.0142 20.9325 34.7068 22.3763 34.9291 24.1589C35.0661 25.359 35.1308 26.5663 35.1229 27.7743C35.1229 30.866 34.8279 33.129 34.238 34.5632C33.1682 37.1957 30.7628 38.8603 27.0219 39.557C25.454 39.8514 23.057 39.9989 19.8307 39.9995C14.4464 39.9995 10.695 39.678 8.57659 39.035C5.97701 38.246 4.26248 36.6482 3.43299 34.2416C2.97046 32.9011 2.7402 30.6688 2.7422 27.5445H12.3553V28.3438C12.3553 30.0111 12.834 31.0833 13.7915 31.5604C14.5442 31.9095 15.3646 32.088 16.1943 32.0833H19.7291C21.5324 32.0833 22.6827 31.9907 23.1799 31.8055C24.0639 31.4586 24.6443 30.8984 24.921 30.1251C25.0839 29.5229 25.1583 28.9001 25.1417 28.2765C25.1417 26.5866 24.5255 25.5575 23.2931 25.1892C22.8306 25.0437 20.687 24.8416 16.8624 24.5829C13.7897 24.3635 11.6558 24.1517 10.4607 23.9474C7.31333 23.3588 5.21621 22.1461 4.16934 20.3095C3.2484 18.7478 2.78845 16.3856 2.7895 13.223C2.7895 10.8164 3.03811 8.88686 3.53532 7.43434C4.03253 5.98181 4.83385 4.8788 5.93927 4.12531C7.56114 2.96701 9.63403 2.28695 12.1579 2.08512C14.2596 1.90201 16.5908 1.80966 19.1516 1.80808C23.1859 1.80808 26.0609 2.03892 27.7765 2.5006C31.9602 3.62453 34.0521 6.77283 34.0521 11.9455C34.0521 12.3696 34.0209 13.0056 33.9584 13.8534M76.2319 40V1.60547L95.4844 1.60547C98.125 1.60547 100.138 1.82096 101.525 2.25195C104.691 3.24353 106.817 5.27447 107.903 8.34477C108.465 9.95644 108.746 12.3823 108.746 15.6222C108.746 19.5169 108.437 22.3158 107.818 24.0192C106.583 27.3883 104.044 29.3262 100.203 29.8328C99.7516 29.9088 97.8308 29.9746 94.4404 30.0302L92.7257 30.0872L86.5654 30.0872V40H76.2319ZM86.566 21.1811L93.0084 21.1811C95.0508 21.1076 96.2947 20.9489 96.74 20.7051C97.3505 20.3694 97.7608 19.696 97.9648 18.6883C98.0957 18.0177 98.161 17.0196 98.1608 15.6938C98.1608 14.0697 98.0306 12.8651 97.7702 12.08C97.3987 10.978 96.5083 10.306 95.099 10.0639C94.8197 10.0273 94.1516 10.0086 93.0946 10.0076H86.5668L86.566 21.1811ZM130.804 33.3646H116.988L115.131 40H104.441L115.977 1.60547L131.565 1.60547L143.242 40H132.776L130.804 33.3646ZM128.752 25.8853L123.91 9.24195L119.211 25.8853H128.752Z" fill="#10298E"/>
<path d="M61.9729 7.00716C63.9983 7.00619 65.9983 7.45813 67.8264 8.3299C69.6546 9.20167 71.2647 10.4712 72.5389 12.0456L74.7662 7.26969C71.129 3.83714 66.3131 1.93135 61.3119 1.94539C53.1695 1.94539 46.2042 6.86383 43.3465 13.8255H39.0028L36.4375 19.3237H42.025C41.9806 19.8361 41.9574 20.3497 41.9554 20.8645C41.9556 21.4885 41.9871 22.112 42.05 22.7328H39.2426L36.6781 28.2326H43.4788C46.4183 35.018 53.2965 39.7814 61.3111 39.7814C65.1862 39.7907 68.9768 38.6498 72.2029 36.5031V29.7632C70.8202 31.3437 69.0901 32.5824 67.1483 33.3822C65.2066 34.1819 63.1059 34.5209 61.0112 34.3726C58.9164 34.2244 56.8845 33.5928 55.0748 32.5275C53.265 31.4622 51.7267 29.9922 50.5804 28.2326H64.8201L67.3843 22.7328L48.4856 22.7328C48.3185 21.6039 48.2915 20.4586 48.4052 19.323L68.9747 19.323L71.5386 13.8255L50.1823 13.8255C51.376 11.7538 53.0941 10.033 55.1639 8.83599C57.2337 7.63899 59.5821 7.00802 61.9731 7.00653" fill="#FFBE00"/>
<path d="M61.9707 7.17203C63.9719 7.17017 65.948 7.61633 67.7543 8.47778C69.5605 9.33923 71.151 10.5941 72.409 12.1504L72.575 12.3554L72.6876 12.1162L74.9146 7.34012L74.9643 7.23116L74.8787 7.14933C71.6047 4.08182 67.3885 2.21342 62.9169 1.84852C58.4452 1.48363 53.9818 2.64376 50.2539 5.13988C47.0974 7.25116 44.6395 10.2528 43.1921 13.7636L43.3443 13.6613H38.8945L38.8506 13.7559L36.2862 19.2552L36.1758 19.49H42.0231L41.8586 19.3108C41.8143 19.8279 41.7911 20.3462 41.7891 20.8655C41.7891 21.4827 41.8206 22.1181 41.8837 22.7507L42.0482 22.5694H39.1365L39.0927 22.664L36.5266 28.1633L36.4177 28.3981H43.4772L43.3258 28.2986C46.3912 35.3743 53.4508 39.9467 61.3096 39.9467C65.2167 39.9571 69.0389 38.8069 72.2915 36.6421L72.3639 36.5939V29.3261L72.0758 29.6551C70.7097 31.2163 69.0005 32.4398 67.0823 33.2297C65.164 34.0197 63.0889 34.3545 61.0196 34.208C58.9503 34.0615 56.943 33.4376 55.1552 32.3853C53.3674 31.333 51.8476 29.8809 50.7151 28.1428L50.5776 28.3988H64.9234L64.9672 28.3041L67.5317 22.8036L67.6421 22.5696L48.4827 22.5696L48.6465 22.7115C48.4812 21.5957 48.4544 20.4637 48.5667 19.3413L48.4023 19.4897L69.0779 19.4897L69.1217 19.395L71.6856 13.896L71.7959 13.6613L50.1799 13.6613L50.3218 13.9091C51.506 11.8666 53.2045 10.1699 55.2483 8.98784C57.292 7.80584 59.6098 7.17979 61.9707 7.17203ZM50.1799 13.991L71.5356 13.991L71.3857 13.7562L68.8226 19.2552L68.9718 19.1606L48.2529 19.1606L48.2372 19.3097C48.1244 20.4586 48.1519 21.6169 48.319 22.7591L48.3409 22.901L67.3821 22.901L67.2329 22.6656L64.6691 28.1646L64.8174 28.07H50.2714L50.4396 28.3245C51.6002 30.1049 53.1574 31.5924 54.9891 32.6704C56.8208 33.7483 58.8772 34.3874 60.9972 34.5376C63.1173 34.6878 65.2433 34.3449 67.2086 33.536C69.174 32.727 70.9253 31.4739 72.3253 29.8748L72.0356 29.7658V36.5057L72.1088 36.3697C68.9102 38.4975 65.1521 39.6283 61.3104 39.6186C53.5824 39.6186 46.6429 35.1235 43.63 28.1685L43.5862 28.0698H36.6766L36.8271 28.3064L39.3899 22.8032L39.2399 22.8997H42.2312L42.2123 22.717C42.1502 22.0954 42.1177 21.4713 42.1177 20.8654C42.1177 20.3996 42.141 19.8995 42.1872 19.3386L42.2019 19.1601H36.436L36.5843 19.3949L39.149 13.8959L39.0006 13.9905H43.4539L43.4955 13.8882C44.9193 10.4379 47.3356 7.48807 50.438 5.41282C54.104 2.95933 58.4925 1.8192 62.8891 2.1781C67.2857 2.53699 71.4312 4.37377 74.6507 7.38931L74.6141 7.19915L72.3882 11.9763L72.666 11.9412C71.2588 10.205 69.4501 8.83745 67.3961 7.95669C65.3421 7.07593 63.1046 6.70841 60.8768 6.88586C58.649 7.06332 56.4979 7.78042 54.6093 8.97524C52.7206 10.1701 51.1512 11.8067 50.0366 13.7437L49.8933 13.9916L50.1799 13.991Z" fill="#10298E"/>
</svg>
