<svg width="40" height="40" viewBox="0 0 40 40" fill="none" xmlns="http://www.w3.org/2000/svg">
<rect width="40" height="40" rx="8" fill="#163381"/>
<path d="M11.1097 18.3892H8.91999C8.91999 18.03 8.87785 17.789 8.79358 17.6661C8.66334 17.4846 8.30387 17.3938 7.71517 17.3937C7.14356 17.3937 6.76511 17.446 6.5798 17.5506C6.39492 17.6556 6.30244 17.884 6.30234 18.2357C6.30234 18.5539 6.38439 18.7634 6.54848 18.8641C6.66623 18.9353 6.82185 18.9772 7.01534 18.9897L7.45685 19.0209C8.40336 19.0835 8.99439 19.1276 9.22995 19.1531C9.97843 19.2285 10.521 19.4275 10.8576 19.7499C11.1225 20.0016 11.2802 20.3303 11.3308 20.7363C11.362 21.0096 11.3768 21.2846 11.375 21.5597C11.375 22.2638 11.3078 22.7791 11.1734 23.1057C10.9298 23.7052 10.3819 24.0843 9.52989 24.243C9.1728 24.31 8.62685 24.3436 7.89204 24.3438C6.66573 24.3438 5.81132 24.2705 5.32883 24.1241C4.73676 23.9444 4.34626 23.5805 4.15733 23.0325C4.05199 22.7272 3.99955 22.2188 4 21.5073H6.18947V21.6894C6.18947 22.0691 6.2985 22.3132 6.51656 22.4219C6.68799 22.5014 6.87486 22.542 7.06383 22.541H7.86891C8.27963 22.541 8.54161 22.5199 8.65485 22.4777C8.8562 22.3987 8.98838 22.2711 9.05139 22.095C9.08851 21.9579 9.10544 21.8161 9.10167 21.674C9.10167 21.2892 8.96133 21.0548 8.68064 20.9709C8.57529 20.9378 8.08708 20.8918 7.21599 20.8329C6.51615 20.7829 6.03014 20.7347 5.75795 20.6881C5.04111 20.5541 4.56348 20.2779 4.32505 19.8597C4.11529 19.504 4.01054 18.9661 4.01078 18.2458C4.01078 17.6978 4.0674 17.2583 4.18064 16.9275C4.29389 16.5967 4.47639 16.3456 4.72816 16.174C5.09756 15.9102 5.56967 15.7553 6.14451 15.7093C6.62317 15.6676 7.15412 15.6466 7.73736 15.6462C8.65621 15.6462 9.31102 15.6988 9.70177 15.804C10.6546 16.0599 11.1311 16.7769 11.1311 17.9549C11.1311 18.0515 11.124 18.1963 11.1097 18.3894M20.7379 24.3439V15.6001H25.1228C25.7242 15.6001 26.1827 15.6492 26.4985 15.7473C27.2196 15.9731 27.7039 16.4357 27.9513 17.1349C28.0792 17.5019 28.1432 18.0544 28.1433 18.7922C28.1433 19.6792 28.0728 20.3166 27.9318 20.7045C27.6505 21.4718 27.0724 21.9131 26.1974 22.0284C26.0947 22.0458 25.6572 22.0607 24.885 22.0734L24.4944 22.0864H23.0914V24.3439H20.7379ZM23.0915 20.0582H24.5588C25.024 20.0414 25.3073 20.0053 25.4087 19.9498C25.5478 19.8733 25.6412 19.7199 25.6877 19.4904C25.7175 19.3377 25.7324 19.1104 25.7323 18.8085C25.7323 18.4386 25.7027 18.1643 25.6434 17.9855C25.5588 17.7346 25.356 17.5815 25.035 17.5264C24.9714 17.5181 24.8192 17.5138 24.5785 17.5136H23.0917L23.0915 20.0582ZM33.1671 22.8328H30.0203L29.5975 24.3439H27.1626L29.7902 15.6001H33.3404L36 24.3439H33.6161L33.1671 22.8328ZM32.6998 21.1295L31.5969 17.3392L30.5267 21.1295H32.6998Z" fill="white"/>
<path d="M17.4878 16.83C17.9491 16.8298 18.4046 16.9327 18.821 17.1312C19.2373 17.3298 19.604 17.6189 19.8943 17.9774L20.4016 16.8898C19.5731 16.1081 18.4763 15.6741 17.3372 15.6773C15.4827 15.6773 13.8963 16.7974 13.2454 18.3828H12.2561L11.6719 19.6349H12.9445C12.9344 19.7516 12.9291 19.8686 12.9286 19.9858C12.9287 20.1279 12.9359 20.2699 12.9502 20.4113H12.3108L11.7267 21.6638H13.2756C13.9451 23.209 15.5117 24.2939 17.337 24.2939C18.2196 24.296 19.083 24.0361 19.8177 23.5473V22.0124C19.5028 22.3723 19.1088 22.6544 18.6665 22.8365C18.2243 23.0187 17.7458 23.0959 17.2687 23.0621C16.7916 23.0283 16.3288 22.8845 15.9167 22.6419C15.5045 22.3993 15.1541 22.0645 14.893 21.6638H18.1362L18.7202 20.4113H14.4159C14.3779 20.1542 14.3717 19.8934 14.3976 19.6348H19.0825L19.6664 18.3828H14.8024C15.0742 17.911 15.4656 17.5191 15.937 17.2465C16.4084 16.9739 16.9432 16.8302 17.4878 16.8299" fill="#FFBE00"/>
<path d="M17.4883 16.868C17.9441 16.8675 18.3942 16.9691 18.8055 17.1653C19.2169 17.3615 19.5792 17.6473 19.8657 18.0017L19.9035 18.0484L19.9291 17.9939L20.4364 16.9062L20.4477 16.8814L20.4282 16.8628C19.6825 16.1642 18.7222 15.7387 17.7038 15.6556C16.6853 15.5725 15.6688 15.8367 14.8197 16.4052C14.1008 16.886 13.541 17.5695 13.2113 18.3691L13.246 18.3458H12.2325L12.2225 18.3673L11.6384 19.6197L11.6133 19.6732H12.9451L12.9076 19.6324C12.8975 19.7502 12.8922 19.8682 12.8918 19.9865C12.8918 20.127 12.8989 20.2717 12.9133 20.4158L12.9508 20.3745H12.2876L12.2776 20.396L11.6932 21.6484L11.6684 21.7019H13.2762L13.2418 21.6792C13.9399 23.2906 15.5478 24.3319 17.3377 24.3319C18.2276 24.3343 19.0981 24.0723 19.8389 23.5793L19.8554 23.5684V21.9132L19.7898 21.9882C19.4787 22.3437 19.0894 22.6223 18.6525 22.8022C18.2156 22.9821 17.743 23.0584 17.2717 23.025C16.8003 22.9916 16.3432 22.8496 15.936 22.6099C15.5288 22.3703 15.1827 22.0396 14.9247 21.6438L14.8934 21.702H18.1608L18.1708 21.6805L18.7548 20.4278L18.78 20.3745H14.4163L14.4536 20.4068C14.4159 20.1527 14.4098 19.8949 14.4354 19.6393L14.398 19.6731H19.107L19.117 19.6516L19.7009 18.3993L19.7261 18.3458H14.8028L14.8352 18.4022C15.1049 17.9371 15.4917 17.5507 15.9572 17.2815C16.4227 17.0123 16.9506 16.8697 17.4883 16.868ZM14.8028 18.4209H19.6668L19.6326 18.3674L19.0489 19.6197L19.0828 19.5982H14.3639L14.3604 19.6321C14.3347 19.8938 14.3409 20.1576 14.379 20.4177L14.384 20.45H18.7208L18.6868 20.3964L18.1029 21.6487L18.1366 21.6272H14.8237L14.862 21.6851C15.1263 22.0906 15.481 22.4293 15.8982 22.6748C16.3153 22.9203 16.7837 23.0659 17.2666 23.1001C17.7494 23.1343 18.2336 23.0562 18.6813 22.872C19.1289 22.6877 19.5278 22.4023 19.8466 22.0382L19.7806 22.0134V23.5483L19.7973 23.5173C19.0688 24.0019 18.2129 24.2594 17.3379 24.2572C15.5778 24.2572 13.9972 23.2335 13.311 21.6496L13.3011 21.6271H11.7273L11.7616 21.681L12.3453 20.4277L12.3112 20.4497H12.9925L12.9881 20.4081C12.974 20.2665 12.9666 20.1244 12.9666 19.9864C12.9666 19.8803 12.9719 19.7664 12.9824 19.6387L12.9858 19.5981H11.6725L11.7063 19.6515L12.2904 18.3992L12.2567 18.4208H13.2709L13.2804 18.3975C13.6047 17.6117 14.155 16.9399 14.8616 16.4673C15.6966 15.9086 16.6961 15.6489 17.6974 15.7307C18.6988 15.8124 19.643 16.2307 20.3762 16.9174L20.3679 16.8741L19.8609 17.9621L19.9242 17.9541C19.6037 17.5587 19.1918 17.2472 18.724 17.0467C18.2561 16.8461 17.7465 16.7624 17.2391 16.8028C16.7317 16.8432 16.2418 17.0065 15.8117 17.2786C15.3815 17.5507 15.0241 17.9234 14.7702 18.3646L14.7375 18.421L14.8028 18.4209Z" fill="white"/>
</svg>
