<svg width="40" height="40" viewBox="0 0 40 40" fill="none" xmlns="http://www.w3.org/2000/svg">
<rect width="40" height="40" rx="8" fill="#0047BA"/>
<path d="M17.2136 20.5719H15.8183C15.4086 20.5719 14.8788 20.864 14.7269 21.2523L14.8647 20.5078H13.1586L12.4062 24.7894H14.1123L14.5856 22.0787H16.4224C16.4224 22.0787 16.1893 23.4215 16.0833 24.0235C15.9809 24.6255 16.3835 24.7716 16.5848 24.7716H17.4785L18.0613 21.4411C18.0048 20.9638 17.6869 20.5719 17.2136 20.5719Z" fill="white"/>
<path d="M11.9308 20.5078L11.6094 22.3458L12.9057 20.5078H11.9308Z" fill="white"/>
<path d="M13.9553 13.7998H8.24725L8 15.2175H9.99216L9.19388 19.7911H10.9141L11.7123 15.2175H13.708L13.9553 13.7998Z" fill="#FFCD00"/>
<path d="M15.1355 18.3881L15.3863 16.9562H13.8568L13.606 18.3881H15.1355ZM12.7265 19.7915C12.2532 19.7915 11.9353 19.3997 12.0166 18.9224L12.4581 16.4183C12.5393 15.941 12.995 15.5527 13.4683 15.5527H16.2658C16.7391 15.5527 17.057 15.941 16.9723 16.4183L16.5342 18.9224C16.4495 19.3997 15.9938 19.7915 15.5205 19.7915H12.7265Z" fill="#FFCD00"/>
<path d="M23.9889 18.3881L24.2397 16.9562H26.4544L26.7016 15.5527H23.8511C23.3778 15.5527 22.9222 15.941 22.8374 16.4183L22.3994 18.9224C22.3182 19.3997 22.6361 19.7915 23.1094 19.7915H25.8821L26.1259 18.3881H23.9889Z" fill="#FFCD00"/>
<path d="M20.506 18.3881H18.6304L19.1249 15.5527H17.6308L17.0409 18.9224C16.9561 19.3997 17.2776 19.7915 17.7509 19.7915H19.2061C19.6795 19.7915 20.0645 19.5066 20.3718 19.1397C20.3718 19.1397 20.5378 19.6312 20.778 19.7416C21.0182 19.8521 21.7493 19.8271 21.7493 19.8271L22.4982 15.5563H21.004L20.506 18.3881Z" fill="#FFCD00"/>
<path d="M31.2764 15.5738H29.8812C29.4715 15.5738 29.0759 15.8659 28.9205 16.2542L29.3231 13.9531H27.7513L26.7305 19.7913H28.3059L28.7792 17.0806H30.4852C30.4852 17.0806 30.2521 18.4234 30.1461 19.0254C30.0401 19.6239 30.4464 19.7699 30.6442 19.7699H31.4036L31.9864 16.4394C32.0676 15.9621 31.7497 15.5738 31.2764 15.5738Z" fill="#FFCD00"/>
<path d="M25.6748 26.2135C25.039 26.2135 24.6081 25.6864 24.7211 25.0452L25.311 21.6791C25.4205 21.0379 26.0351 20.5107 26.6744 20.5107H30.2349C30.8707 20.5107 31.3016 21.0379 31.1886 21.6791L30.6023 25.0452C30.4892 25.6864 29.8781 26.2135 29.2388 26.2135H25.6748ZM28.9916 24.6391L29.4402 22.0852H26.9146L26.466 24.6391H28.9916Z" fill="#FFCD00"/>
<path d="M22.2211 24.6391H19.6956L20.1442 22.0852H24.238L24.5065 20.5107H19.9005C19.2647 20.5107 18.6501 21.0379 18.5406 21.6791L17.9507 25.0452C17.8412 25.6864 18.2686 26.2135 18.9044 26.2135H22.4649C23.1006 26.2135 23.7152 25.6864 23.8247 25.0452L24.185 22.9792H22.5073L22.2211 24.6391Z" fill="#FFCD00"/>
</svg>
