<svg width="208" height="40" viewBox="0 0 208 40" fill="none" xmlns="http://www.w3.org/2000/svg">
<path d="M34.2275 0.509338C35.6537 2.88625 36.163 5.26317 36.163 8.11546C36.163 17.6231 28.0815 30.4924 21.4262 39.0492H6.17997L0 2.44483L13.7861 1.49407L17.1138 27.674C19.966 22.9202 23.8031 14.8048 23.8031 9.6095C23.8031 6.75721 23.3277 4.85569 22.3769 2.92021L34.2275 0.509338ZM51.8166 16.7063C54.1936 16.7063 60.3735 15.7555 60.3735 11.9525C60.3735 10.017 59.4228 9.57556 57.9966 9.57556C55.1783 9.57556 51.8166 12.4278 51.8166 16.7063ZM51.3752 23.837C51.3752 28.1494 53.7521 30.017 57.0798 30.017C60.4075 30.017 63.7691 29.0662 68.0136 27.1647L66.0781 37.6231C63.2258 39.0492 58.472 40 53.7182 40C42.343 40 38.0306 32.8693 38.0306 24.3124C38.0306 12.9372 44.7199 1.01868 58.472 1.01868C66.0781 1.01868 70.3566 5.33107 70.3566 11.4771C70.8659 20.5093 58.472 23.837 51.3752 23.837ZM109.372 9.06622C109.372 10.4924 109.372 12.3939 108.896 13.82L105.093 39.0153H92.2581L96.0611 15.7216C96.0611 15.2462 96.5365 13.7861 96.5365 13.3446C96.5365 11.4092 95.5858 11.4092 94.1596 11.4092C92.2241 11.4092 90.8319 12.3599 89.8472 12.8353L85.0934 39.0153H72.2241L77.9287 0.95077H89.3039V3.80306C92.1562 1.86758 95.4839 0 100.238 0C106.995 1.01868 109.372 4.3124 109.372 9.06622ZM147.878 4.82174C151.681 1.96944 155.009 0.509338 159.762 0.509338C166.452 0.509338 168.829 3.83702 168.829 9.06622C168.829 10.4924 168.829 12.3939 168.353 13.82L164.584 39.0492H151.715L155.518 15.2801V13.3446C155.518 11.4092 154.567 10.9677 153.141 10.9677C151.715 10.9677 149.813 11.4431 148.829 12.3939L144.55 39.0153H131.681L135.484 15.2462V13.3107C135.484 11.3752 134.533 10.9338 133.107 10.9338C131.172 10.9338 129.779 11.8846 128.795 12.3599L124.516 38.9474H111.647L117.385 0.916812H128.319L128.795 4.24448C131.172 2.309 134.975 0.441432 139.728 0.441432C143.599 1.01868 146.418 2.44483 147.878 4.82174ZM194.465 16.2309C194.465 12.9032 193.514 11.0017 191.138 11.0017C185.908 11.0017 184.958 20.0679 184.958 24.7878C184.958 28.1155 185.908 30.4924 188.285 30.4924C193.548 30.017 194.465 20.5093 194.465 16.2309ZM172.122 23.837C172.122 11.9525 178.302 0.543296 193.039 0.543296C203.973 0.543296 207.776 7.2326 207.776 15.7895C207.776 27.674 201.596 39.5586 186.859 39.5586C175.925 40 172.122 32.8693 172.122 23.837Z" fill="#3D95CE"/>
</svg>
