<svg width="40" height="40" viewBox="0 0 40 40" fill="none" xmlns="http://www.w3.org/2000/svg">
<rect width="40" height="40" rx="8" fill="#1434CB"/>
<path d="M24.8428 14.832C22.5706 14.832 20.5402 16.006 20.5402 18.175C20.5402 20.6624 24.1413 20.8341 24.1413 22.0837C24.1413 22.6099 23.5364 23.0809 22.5033 23.0809C21.0371 23.0809 19.9412 22.4228 19.9412 22.4228L19.4723 24.6115C19.4723 24.6115 20.7347 25.1674 22.4108 25.1674C24.8949 25.1674 26.8496 23.9358 26.8496 21.7298C26.8496 19.1014 23.2335 18.9347 23.2335 17.7749C23.2335 17.3627 23.7301 16.9111 24.7602 16.9111C25.9226 16.9111 26.8709 17.3897 26.8709 17.3897L27.3298 15.2758C27.3298 15.2758 26.2979 14.832 24.8428 14.832ZM4.05503 14.9916L4 15.3107C4 15.3107 4.9559 15.485 5.81682 15.8329C6.92533 16.2318 7.00432 16.464 7.191 17.1853L9.22535 25.0029H11.9525L16.1538 14.9916H13.433L10.7334 21.7983L9.63178 16.0286C9.53075 15.3683 9.019 14.9916 8.39262 14.9916H4.05503ZM17.2479 14.9916L15.1135 25.0029H17.708L19.835 14.9916H17.2479V14.9916ZM31.7187 14.9916C31.093 14.9916 30.7615 15.3255 30.5183 15.909L26.7171 25.0029H29.4379L29.9644 23.4872H33.2791L33.5993 25.0029H36L33.9056 14.9916H31.7187ZM32.0725 17.6963L32.879 21.4531H30.7183L32.0725 17.6963Z" fill="white"/>
</svg>
