<svg width="124" height="40" viewBox="0 0 124 40" fill="none" xmlns="http://www.w3.org/2000/svg">
<g clip-path="url(#clip0_3981_9149)">
<path d="M80.2138 0.0488281C71.4695 0.0488281 63.6552 4.58119 63.6552 12.9551C63.6552 22.5583 77.5142 23.2215 77.5142 28.0459C77.5142 30.0773 75.1863 31.8957 71.2102 31.8957C65.5675 31.8957 61.3501 29.3549 61.3501 29.3549L59.5456 37.8051C59.5456 37.8051 64.4039 39.9513 70.8542 39.9513C80.4145 39.9513 87.9373 35.1963 87.9373 26.6794C87.9373 16.5318 74.0207 15.8882 74.0207 11.4104C74.0207 9.81894 75.9316 8.07545 79.8963 8.07545C84.3695 8.07545 88.0192 9.92336 88.0192 9.92336L89.7852 1.76199C89.7852 1.76199 85.8141 0.0488281 80.2138 0.0488281ZM0.211788 0.664838L0 1.89673C0 1.89673 3.6788 2.56995 6.99209 3.91304C11.2582 5.453 11.5622 6.34959 12.2806 9.13414L20.1099 39.316H30.6054L46.7742 0.664838H36.3029L25.9135 26.9439L21.674 4.66847C21.2852 2.11912 19.3157 0.664838 16.9051 0.664838H0.211788ZM50.9849 0.664838L42.7705 39.3159H52.7557L60.9412 0.664715H50.9849V0.664838ZM106.676 0.664838C104.268 0.664838 102.992 1.95394 102.056 4.20656L87.4272 39.3159H97.8985L99.9244 33.4643H112.681L113.913 39.3159H123.153L115.092 0.664838H106.676ZM108.038 11.1072L111.142 25.611H102.826L108.038 11.1072Z" fill="#1434CB"/>
</g>
<defs>
<clipPath id="clip0_3981_9149">
<rect width="123.153" height="40" fill="white"/>
</clipPath>
</defs>
</svg>
