<svg width="225" height="40" viewBox="0 0 225 40" fill="none" xmlns="http://www.w3.org/2000/svg">
<path fill-rule="evenodd" clip-rule="evenodd" d="M60.417 20.633L64.6836 11.4355H71.8188L62.4445 29.3756H58.3884L48.9803 11.4355H56.1143L60.417 20.633ZM104.762 16.3663C107.35 16.3663 108.854 18.2193 108.854 20.4236C108.854 22.6953 107.351 24.4448 104.762 24.4448C102.174 24.4448 100.67 22.6953 100.67 20.4236C100.67 18.2205 102.174 16.3663 104.762 16.3663ZM108.644 29.3756H115.009V0.348957H108.644V13.1838C107.315 11.61 105.147 10.8411 103.083 10.8411C97.7676 10.8411 94.0953 15.2473 94.0953 20.3887C94.0953 25.5301 97.8374 29.9712 103.153 29.9712C105.252 29.9712 107.455 29.1674 108.575 27.3831H108.645L108.644 29.3756ZM127.67 16.3663C130.258 16.3663 131.762 18.2193 131.762 20.4236C131.762 22.6953 130.258 24.4448 127.67 24.4448C125.082 24.4448 123.578 22.6953 123.578 20.4236C123.578 18.2205 125.082 16.3663 127.67 16.3663ZM137.916 11.4355H131.549V13.1838C130.22 11.61 128.053 10.8411 125.991 10.8411C120.675 10.8411 117 15.2473 117 20.3887C117 25.5301 120.744 29.9712 126.06 29.9712C128.158 29.9712 130.361 29.1674 131.481 27.3831H131.549V29.3756H137.916V11.4355ZM148.444 29.3756H142.078V16.6804H139.84V11.4343H142.078V9.16259C142.078 6.67914 142.149 4.86104 143.895 2.8673C145.47 1.01431 147.744 0 150.156 0C151.136 0 152.01 0.174482 152.885 0.629296V6.11963C152.149 5.8044 151.486 5.52524 150.645 5.52524C149.002 5.52524 148.443 6.50466 148.443 8.53329V11.4355H152.884V16.6816H148.443V29.3756H148.444ZM183.135 13.7433H183.206C184.674 11.5751 186.46 10.8411 188.943 10.8411C193.768 10.8411 195.693 13.8829 195.693 18.2903V29.3756H189.327V20.633C189.327 18.9196 189.606 15.9115 186.46 15.9115C183.872 15.9115 183.137 17.8355 183.137 20.0735V29.3756H176.77V11.4355H183.137V13.7433H183.135ZM204.33 17.7994C204.714 15.9464 206.254 14.967 208.108 14.967C209.822 14.967 211.393 16.086 211.71 17.7994H204.33ZM217.621 20.8086C217.621 14.6878 214.017 10.8411 207.793 10.8411C201.953 10.8411 197.86 14.4435 197.86 20.4248C197.86 26.613 202.302 29.9712 208.248 29.9712C212.34 29.9712 216.361 28.0496 217.377 23.8167H211.256C210.556 25.0043 209.577 25.4591 208.214 25.4591C205.59 25.4591 204.227 24.0621 204.227 21.4716H217.622V20.8086H217.621ZM91.7352 20.861C91.735 22.1855 91.474 23.497 90.967 24.7207C90.46 25.9443 89.7169 27.0561 88.7802 27.9926C87.8435 28.9291 86.7315 29.6719 85.5078 30.1787C84.284 30.6854 82.9724 30.9461 81.6479 30.946C80.3233 30.9458 79.0118 30.6848 77.7882 30.1778C76.5645 29.6707 75.4527 28.9277 74.5162 27.991C73.5797 27.0543 72.8369 25.9423 72.3302 24.7185C71.8234 23.4948 71.5627 22.1832 71.5629 20.8586C71.5632 18.1836 72.6261 15.6183 74.5179 13.727C76.4096 11.8357 78.9752 10.7733 81.6502 10.7736C84.3252 10.7739 86.8905 11.8369 88.7819 13.7286C90.6732 15.6204 91.7355 18.1859 91.7352 20.861ZM76.0191 20.8179C76.0193 21.9309 76.3495 23.0189 76.9678 23.9443C77.5861 24.8698 78.4648 25.5912 79.4929 26.0175C80.5211 26.4437 81.6525 26.5556 82.7442 26.3391C83.836 26.1226 84.839 25.5874 85.6267 24.801C86.4144 24.0146 86.9513 23.0125 87.1696 21.9211C87.3879 20.8297 87.2778 19.6981 86.8533 18.6693C86.4287 17.6404 85.7088 16.7605 84.7843 16.1407C83.8599 15.5208 82.7725 15.1889 81.6595 15.1868C82.5214 12.344 84.5512 11.1889 84.5512 11.1889C80.3509 11.1889 76.724 14.6773 76.0179 19.0906C75.9551 19.5047 76.0191 20.8179 76.0191 20.8179ZM39.7991 20.0583C39.7991 31.0495 30.8901 39.9573 19.9002 39.9573C8.90901 39.9573 0 31.0495 0 20.0583C0 9.0672 8.90901 0.158189 19.9002 0.158189C30.8901 0.158189 39.7991 9.0672 39.7991 20.0583ZM8.79152 19.9723C8.79152 26.1059 13.7654 31.0797 19.9002 31.0797C26.0361 31.0797 31.01 26.107 31.01 19.9723C31.01 13.8433 26.0477 8.87527 19.9223 8.86247C21.624 3.25232 25.6278 0.975928 25.6278 0.975928C17.3388 0.975928 10.185 7.8563 8.79152 16.5641C8.66473 17.383 8.79152 19.9723 8.79152 19.9723ZM154.429 20.0839C154.429 14.5133 158.943 9.99893 164.514 9.99893C166.508 9.99893 168.458 10.5904 170.117 11.6986C171.775 12.8067 173.068 14.3818 173.831 16.2246C174.594 18.0674 174.794 20.0951 174.405 22.0514C174.016 24.0077 173.055 25.8047 171.645 27.2151C170.234 28.6255 168.437 29.586 166.481 29.9752C164.525 30.3643 162.497 30.1646 160.654 29.4013C158.811 28.638 157.236 27.3453 156.128 25.6869C155.02 24.0284 154.429 22.0786 154.429 20.0839ZM170.145 20.127C170.144 19.0137 169.814 17.9256 169.196 16.9999C168.577 16.0743 167.698 15.3527 166.67 14.9264C165.642 14.5 164.51 14.3881 163.418 14.6046C162.326 14.8212 161.323 15.3566 160.535 16.1431C159.747 16.9296 159.21 17.932 158.992 19.0236C158.774 20.1152 158.884 21.247 159.308 22.2761C159.733 23.3052 160.453 24.1853 161.378 24.8052C162.302 25.4252 163.39 25.7572 164.503 25.7592C163.64 28.6009 161.609 29.756 161.609 29.756C165.812 29.756 169.436 26.2687 170.145 21.8543C170.209 21.4402 170.145 20.127 170.145 20.127Z" fill="#B4282E"/>
</svg>
