<svg width="40" height="40" viewBox="0 0 40 40" fill="none" xmlns="http://www.w3.org/2000/svg">
<rect width="40" height="40" rx="8" fill="#ED1E24"/>
<path fill-rule="evenodd" clip-rule="evenodd" d="M19.9996 30C25.522 30 29.9986 25.5236 29.9986 20.0003C29.9986 15.4737 26.9919 11.6499 22.8669 10.4172C22.874 10.413 22.8777 10.4109 22.8777 10.4109C22.8671 10.4109 22.8566 10.411 22.846 10.411C21.9439 10.1436 20.9885 10 19.9996 10C14.4767 10 10 14.477 10 20.0003C10 25.5236 14.4767 30 19.9996 30ZM22.846 10.411C18.6944 10.4285 15.1161 13.8796 14.4176 18.2443C14.3539 18.6559 14.4176 19.957 14.4176 19.957C14.4176 23.0393 16.917 25.5388 19.9996 25.5388C23.0828 25.5388 25.5822 23.0399 25.5822 19.957C25.5822 16.8771 23.0887 14.3805 20.0107 14.3741C20.8294 11.6751 22.7081 10.5116 22.8669 10.4172L22.846 10.411Z" fill="white"/>
</svg>
