<svg width="30" height="20" viewBox="0 0 30 20" fill="none" xmlns="http://www.w3.org/2000/svg">
<g clip-path="url(#clip0_4289_17202)">
<path d="M0 0H30V20H0" fill="#EE1C25"/>
<path d="M4.99968 2L6.76308 7.427L2.14648 4.073H7.85288L3.23628 7.427L4.99968 2Z" fill="#FFFF00"/>
<path d="M10.3909 1.07968L10.2239 2.97444L9.24523 1.34342L10.9957 2.08774L9.14205 2.51442L10.3909 1.07968Z" fill="#FFFF00"/>
<path d="M12.7169 3.30373L11.8278 4.98522L11.5587 3.10223L12.8831 4.46751L11.0092 4.14142L12.7169 3.30373Z" fill="#FFFF00"/>
<path d="M12.9394 6.65707L11.4417 7.82957L11.9642 6.00063L12.6165 7.78743L11.0385 6.72526L12.9394 6.65707Z" fill="#FFFF00"/>
<path d="M10.3528 8.06432L10.2645 9.96437L9.21909 8.37532L10.9989 9.04644L9.16454 9.54959L10.3528 8.06432Z" fill="#FFFF00"/>
</g>
<defs>
<clipPath id="clip0_4289_17202">
<rect width="30" height="20" fill="white"/>
</clipPath>
</defs>
</svg>
