<svg width="24" height="24" viewBox="0 0 24 24" fill="none" xmlns="http://www.w3.org/2000/svg">
<path d="M9.84375 12.0001C9.84375 13.2962 10.8914 14.3438 12.1875 14.3438C13.4836 14.3438 14.5312 13.2962 14.5312 12.0001C14.5312 11.1634 14.0859 10.3899 13.3594 9.97041C12.6328 9.55088 11.7422 9.55088 11.0156 9.97041C10.2891 10.3899 9.84375 11.1634 9.84375 12.0001ZM2.8125 12.0001C2.8125 13.2962 3.86016 14.3438 5.15625 14.3438C6.45234 14.3438 7.5 13.2962 7.5 12.0001C7.5 11.1634 7.05469 10.3899 6.32812 9.97041C5.60156 9.55088 4.71094 9.55088 3.98438 9.97041C3.25781 10.3899 2.8125 11.1634 2.8125 12.0001ZM16.875 12.0001C16.875 13.2962 17.9227 14.3438 19.2188 14.3438C20.5148 14.3438 21.5625 13.2962 21.5625 12.0001C21.5625 11.1634 21.1172 10.3899 20.3906 9.97041C19.6641 9.55088 18.7734 9.55088 18.0469 9.97041C17.3203 10.3899 16.875 11.1634 16.875 12.0001Z" fill="#2B2B2B"/>
</svg>
