<svg width="30" height="20" viewBox="0 0 30 20" fill="none" xmlns="http://www.w3.org/2000/svg">
<g clip-path="url(#clip0_4289_12705)">
<path d="M0 0.0498047H30V19.9503H0V0.0498047Z" fill="#003399"/>
<path d="M15 2.26123L14.6562 3.31223L15.185 3.48387L15 2.26123Z" fill="#FFCC00"/>
<path d="M14.9995 2.26123L15.3432 3.31223L14.8145 3.48387L14.9995 2.26123Z" fill="#FFCC00"/>
<path d="M16.0566 3.0249H14.9453V3.57714L16.0566 3.0249Z" fill="#FFCC00"/>
<path d="M16.057 3.0249L15.1583 3.67416L14.832 3.22639L16.057 3.0249Z" fill="#FFCC00"/>
<path d="M15.6525 4.26122L15.31 3.20898L14.7812 3.38063L15.6525 4.26122Z" fill="#FFCC00"/>
<path d="M15.6527 4.2611L14.7539 3.6106L15.0814 3.16284L15.6527 4.2611Z" fill="#FFCC00"/>
<path d="M13.9434 3.0249H15.0546V3.57714L13.9434 3.0249Z" fill="#FFCC00"/>
<path d="M13.9434 3.0249L14.8421 3.67416L15.1684 3.22639L13.9434 3.0249Z" fill="#FFCC00"/>
<path d="M14.3477 4.26122L14.6902 3.20898L15.2189 3.38063L14.3477 4.26122Z" fill="#FFCC00"/>
<path d="M14.3477 4.2611L15.2464 3.6106L14.9189 3.16284L14.3477 4.2611ZM15.0002 15.5273L14.6564 16.5795L15.1852 16.7499L15.0002 15.5273Z" fill="#FFCC00"/>
<path d="M14.9995 15.5273L15.3432 16.5796L14.8145 16.75L14.9995 15.5273Z" fill="#FFCC00"/>
<path d="M16.0566 16.2922H14.9453V16.8445L16.0566 16.2922Z" fill="#FFCC00"/>
<path d="M16.057 16.2922L15.1583 16.9415L14.832 16.4937L16.057 16.2922Z" fill="#FFCC00"/>
<path d="M15.6525 17.5273L15.31 16.4763L14.7812 16.6467L15.6525 17.5273Z" fill="#FFCC00"/>
<path d="M15.6527 17.5274L14.7539 16.8782L15.0814 16.4304L15.6527 17.5274Z" fill="#FFCC00"/>
<path d="M13.9434 16.2922H15.0546V16.8445L13.9434 16.2922Z" fill="#FFCC00"/>
<path d="M13.9434 16.2922L14.8421 16.9415L15.1684 16.4937L13.9434 16.2922Z" fill="#FFCC00"/>
<path d="M14.3477 17.5273L14.6902 16.4763L15.2189 16.6467L14.3477 17.5273Z" fill="#FFCC00"/>
<path d="M14.3477 17.5274L15.2464 16.8782L14.9189 16.4304L14.3477 17.5274Z" fill="#FFCC00"/>
<path d="M8.33398 8.89429L7.99023 9.94528L8.51898 10.1169L8.33398 8.89429Z" fill="#FFCC00"/>
<path d="M8.33344 8.89429L8.67594 9.94528L8.14844 10.1169L8.33344 8.89429Z" fill="#FFCC00"/>
<path d="M9.39055 9.65796H8.2793V10.2114L9.39055 9.65796Z" fill="#FFCC00"/>
<path d="M9.38906 9.65796L8.48906 10.3085L8.16406 9.8607L9.38906 9.65796Z" fill="#FFCC00"/>
<path d="M8.98773 10.8955L8.64273 9.84326L8.11523 10.0137L8.98773 10.8955Z" fill="#FFCC00"/>
<path d="M8.98789 10.8956L8.08789 10.2451L8.41414 9.79736L8.98789 10.8956Z" fill="#FFCC00"/>
<path d="M7.27539 9.65796H8.38789V10.2114L7.27539 9.65796Z" fill="#FFCC00"/>
<path d="M7.27539 9.65796L8.17539 10.3085L8.50039 9.8607L7.27539 9.65796Z" fill="#FFCC00"/>
<path d="M7.67969 10.8955L8.02344 9.84326L8.55219 10.0137L7.67969 10.8955Z" fill="#FFCC00"/>
<path d="M7.67969 10.8956L8.57969 10.2451L8.25219 9.79736L7.67969 10.8956Z" fill="#FFCC00"/>
<path d="M11.0117 5.14926L11.9117 4.50001L11.5855 4.05225L11.0117 5.14926Z" fill="#FFCC00"/>
<path d="M11.0117 5.14914L11.3567 4.09814L11.8842 4.26854L11.0117 5.14914Z" fill="#FFCC00"/>
<path d="M10.6094 3.91431L11.5094 4.56356L11.8344 4.1158L10.6094 3.91431Z" fill="#FFCC00"/>
<path d="M10.6094 3.91431H11.7206V4.46655L10.6094 3.91431Z" fill="#FFCC00"/>
<path d="M11.6667 3.14917L11.3242 4.20141L11.8517 4.37181L11.6667 3.14917Z" fill="#FFCC00"/>
<path d="M11.6655 3.14917L12.0092 4.20141L11.4805 4.37181L11.6655 3.14917Z" fill="#FFCC00"/>
<path d="M12.3199 5.14926L11.4199 4.50001L11.7474 4.05225L12.3199 5.14926Z" fill="#FFCC00"/>
<path d="M12.3198 5.14914L11.976 4.09814L11.4473 4.26854L12.3198 5.14914Z" fill="#FFCC00"/>
<path d="M12.723 3.91431L11.823 4.56356L11.498 4.1158L12.723 3.91431Z" fill="#FFCC00"/>
<path d="M12.7238 3.91431H11.6113V4.46655L12.7238 3.91431Z" fill="#FFCC00"/>
<path d="M9.88031 7.57712L9.53656 6.52612L9.00781 6.69652L9.88031 7.57712Z" fill="#FFCC00"/>
<path d="M9.88047 7.57724L8.98047 6.92799L9.30797 6.48022L9.88047 7.57724Z" fill="#FFCC00"/>
<path d="M8.57422 7.57724L9.47297 6.92799L9.14672 6.48022L8.57422 7.57724Z" fill="#FFCC00"/>
<path d="M8.57422 7.57712L8.91672 6.52612L9.44547 6.69652L8.57422 7.57712Z" fill="#FFCC00"/>
<path d="M8.16992 6.34204L9.06867 6.99129L9.39492 6.54353L8.16992 6.34204Z" fill="#FFCC00"/>
<path d="M8.16992 6.34204H9.28117V6.89428L8.16992 6.34204Z" fill="#FFCC00"/>
<path d="M10.2836 6.34204L9.38359 6.99129L9.05859 6.54353L10.2836 6.34204Z" fill="#FFCC00"/>
<path d="M10.2844 6.34204H9.17188V6.89428L10.2844 6.34204Z" fill="#FFCC00"/>
<path d="M9.22602 5.57715L9.56977 6.62939L9.04102 6.79978L9.22602 5.57715Z" fill="#FFCC00"/>
<path d="M9.22531 5.57715L8.88281 6.62939L9.41031 6.79978L9.22531 5.57715Z" fill="#FFCC00"/>
<path d="M10.2844 12.9751H9.17188V13.5273L10.2844 12.9751Z" fill="#FFCC00"/>
<path d="M10.2836 12.9751L9.38359 13.6244L9.05859 13.1766L10.2836 12.9751Z" fill="#FFCC00"/>
<path d="M9.88031 14.2114L9.53656 13.1592L9.00781 13.3308L9.88031 14.2114Z" fill="#FFCC00"/>
<path d="M9.88047 14.2115L8.98047 13.561L9.30797 13.1133L9.88047 14.2115Z" fill="#FFCC00"/>
<path d="M8.57422 14.2115L9.47297 13.561L9.14672 13.1133L8.57422 14.2115Z" fill="#FFCC00"/>
<path d="M8.57422 14.2114L8.91672 13.1592L9.44547 13.3308L8.57422 14.2114Z" fill="#FFCC00"/>
<path d="M9.22602 12.2114L9.56977 13.2624L9.04102 13.4341L9.22602 12.2114Z" fill="#FFCC00"/>
<path d="M9.22531 12.2114L8.88281 13.2624L9.41031 13.4341L9.22531 12.2114Z" fill="#FFCC00"/>
<path d="M8.16992 12.9751H9.28117V13.5273L8.16992 12.9751Z" fill="#FFCC00"/>
<path d="M8.16992 12.9751L9.06867 13.6244L9.39492 13.1766L8.16992 12.9751Z" fill="#FFCC00"/>
<path d="M12.7238 15.4031H11.6113V15.9566L12.7238 15.4031Z" fill="#FFCC00"/>
<path d="M12.723 15.4031L11.823 16.0536L11.498 15.6058L12.723 15.4031Z" fill="#FFCC00"/>
<path d="M12.3198 16.6394L11.976 15.5884L11.4473 15.7588L12.3198 16.6394Z" fill="#FFCC00"/>
<path d="M12.3199 16.6393L11.4199 15.9888L11.7474 15.541L12.3199 16.6393Z" fill="#FFCC00"/>
<path d="M11.0117 16.6393L11.9117 15.9888L11.5855 15.541L11.0117 16.6393Z" fill="#FFCC00"/>
<path d="M11.0117 16.6394L11.3567 15.5884L11.8842 15.7588L11.0117 16.6394Z" fill="#FFCC00"/>
<path d="M11.6655 14.6394L12.0092 15.6904L11.4805 15.862L11.6655 14.6394Z" fill="#FFCC00"/>
<path d="M11.6667 14.6394L11.3242 15.6904L11.8517 15.862L11.6667 14.6394Z" fill="#FFCC00"/>
<path d="M10.6094 15.4031H11.7206V15.9566L10.6094 15.4031Z" fill="#FFCC00"/>
<path d="M10.6094 15.4031L11.5094 16.0536L11.8344 15.6058L10.6094 15.4031Z" fill="#FFCC00"/>
<path d="M21.6655 8.89429L22.0092 9.94528L21.4805 10.1169L21.6655 8.89429Z" fill="#FFCC00"/>
<path d="M21.6667 8.89429L21.3242 9.94528L21.8517 10.1169L21.6667 8.89429Z" fill="#FFCC00"/>
<path d="M20.6094 9.65796H21.7206V10.2114L20.6094 9.65796Z" fill="#FFCC00"/>
<path d="M20.6094 9.65796L21.5094 10.3085L21.8344 9.8607L20.6094 9.65796Z" fill="#FFCC00"/>
<path d="M21.0117 10.8955L21.3567 9.84326L21.8842 10.0137L21.0117 10.8955Z" fill="#FFCC00"/>
<path d="M21.0117 10.8956L21.9117 10.2451L21.5855 9.79736L21.0117 10.8956Z" fill="#FFCC00"/>
<path d="M22.7238 9.65796H21.6113V10.2114L22.7238 9.65796Z" fill="#FFCC00"/>
<path d="M22.723 9.65796L21.823 10.3085L21.498 9.8607L22.723 9.65796Z" fill="#FFCC00"/>
<path d="M22.3198 10.8955L21.976 9.84326L21.4473 10.0137L22.3198 10.8955Z" fill="#FFCC00"/>
<path d="M22.3199 10.8956L21.4199 10.2451L21.7474 9.79736L22.3199 10.8956Z" fill="#FFCC00"/>
<path d="M18.9879 5.14926L18.0879 4.50001L18.4141 4.05225L18.9879 5.14926Z" fill="#FFCC00"/>
<path d="M18.9877 5.14914L18.6427 4.09814L18.1152 4.26854L18.9877 5.14914Z" fill="#FFCC00"/>
<path d="M19.3891 3.91431L18.4891 4.56356L18.1641 4.1158L19.3891 3.91431Z" fill="#FFCC00"/>
<path d="M19.3905 3.91431H18.2793V4.46655L19.3905 3.91431Z" fill="#FFCC00"/>
<path d="M18.3334 3.14917L18.6759 4.20141L18.1484 4.37181L18.3334 3.14917Z" fill="#FFCC00"/>
<path d="M18.334 3.14917L17.9902 4.20141L18.519 4.37181L18.334 3.14917Z" fill="#FFCC00"/>
<path d="M17.6797 5.14926L18.5797 4.50001L18.2522 4.05225L17.6797 5.14926Z" fill="#FFCC00"/>
<path d="M17.6797 5.14914L18.0234 4.09814L18.5522 4.26854L17.6797 5.14914Z" fill="#FFCC00"/>
<path d="M17.2754 3.91431L18.1754 4.56356L18.5004 4.1158L17.2754 3.91431Z" fill="#FFCC00"/>
<path d="M17.2754 3.91431H18.3879V4.46655L17.2754 3.91431Z" fill="#FFCC00"/>
<path d="M20.1191 7.57712L20.4629 6.52612L20.9916 6.69652L20.1191 7.57712Z" fill="#FFCC00"/>
<path d="M20.1191 7.57724L21.0191 6.92799L20.6916 6.48022L20.1191 7.57724Z" fill="#FFCC00"/>
<path d="M21.4261 7.57724L20.5273 6.92799L20.8536 6.48022L21.4261 7.57724Z" fill="#FFCC00"/>
<path d="M21.4259 7.57712L21.0834 6.52612L20.5547 6.69652L21.4259 7.57712Z" fill="#FFCC00"/>
<path d="M21.8305 6.34204L20.9317 6.99129L20.6055 6.54353L21.8305 6.34204Z" fill="#FFCC00"/>
<path d="M21.83 6.34204H20.7188V6.89428L21.83 6.34204Z" fill="#FFCC00"/>
<path d="M19.7168 6.34204L20.6168 6.99129L20.9418 6.54353L19.7168 6.34204Z" fill="#FFCC00"/>
<path d="M19.7168 6.34204H20.8293V6.89428L19.7168 6.34204Z" fill="#FFCC00"/>
<path d="M20.7734 5.57715L20.4297 6.62939L20.9584 6.79978L20.7734 5.57715Z" fill="#FFCC00"/>
<path d="M20.7729 5.57715L21.1154 6.62939L20.5879 6.79978L20.7729 5.57715Z" fill="#FFCC00"/>
<path d="M19.7168 12.9751H20.8293V13.5273L19.7168 12.9751Z" fill="#FFCC00"/>
<path d="M19.7168 12.9751L20.6168 13.6244L20.9418 13.1766L19.7168 12.9751Z" fill="#FFCC00"/>
<path d="M20.1191 14.2114L20.4629 13.1592L20.9916 13.3308L20.1191 14.2114Z" fill="#FFCC00"/>
<path d="M20.1191 14.2115L21.0191 13.561L20.6916 13.1133L20.1191 14.2115Z" fill="#FFCC00"/>
<path d="M21.4261 14.2115L20.5273 13.561L20.8536 13.1133L21.4261 14.2115Z" fill="#FFCC00"/>
<path d="M21.4259 14.2114L21.0834 13.1592L20.5547 13.3308L21.4259 14.2114Z" fill="#FFCC00"/>
<path d="M20.7734 12.2114L20.4297 13.2624L20.9584 13.4341L20.7734 12.2114Z" fill="#FFCC00"/>
<path d="M20.7729 12.2114L21.1154 13.2624L20.5879 13.4341L20.7729 12.2114Z" fill="#FFCC00"/>
<path d="M21.83 12.9751H20.7188V13.5273L21.83 12.9751Z" fill="#FFCC00"/>
<path d="M21.8305 12.9751L20.9317 13.6244L20.6055 13.1766L21.8305 12.9751Z" fill="#FFCC00"/>
<path d="M17.2754 15.4031H18.3879V15.9566L17.2754 15.4031Z" fill="#FFCC00"/>
<path d="M17.2754 15.4031L18.1754 16.0536L18.5004 15.6058L17.2754 15.4031Z" fill="#FFCC00"/>
<path d="M17.6797 16.6394L18.0234 15.5884L18.5522 15.7588L17.6797 16.6394Z" fill="#FFCC00"/>
<path d="M17.6797 16.6393L18.5797 15.9888L18.2522 15.541L17.6797 16.6393Z" fill="#FFCC00"/>
<path d="M18.9879 16.6393L18.0879 15.9888L18.4141 15.541L18.9879 16.6393Z" fill="#FFCC00"/>
<path d="M18.9877 16.6394L18.6427 15.5884L18.1152 15.7588L18.9877 16.6394Z" fill="#FFCC00"/>
<path d="M18.334 14.6394L17.9902 15.6904L18.519 15.862L18.334 14.6394Z" fill="#FFCC00"/>
<path d="M18.3334 14.6394L18.6759 15.6904L18.1484 15.862L18.3334 14.6394Z" fill="#FFCC00"/>
<path d="M19.3905 15.4031H18.2793V15.9566L19.3905 15.4031Z" fill="#FFCC00"/>
<path d="M19.3891 15.4031L18.4891 16.0536L18.1641 15.6058L19.3891 15.4031Z" fill="#FFCC00"/>
</g>
<defs>
<clipPath id="clip0_4289_12705">
<rect width="30" height="20" fill="white"/>
</clipPath>
</defs>
</svg>
