<svg width="100" height="100" viewBox="0 0 100 100" fill="none" xmlns="http://www.w3.org/2000/svg">
<g clip-path="url(#clip0_2365_20645)">
<path d="M110 100L-90 100V50L78.8889 1.11111L110 100Z" fill="#0038A8"/>
<path d="M78.8889 50L-90 50V-3.8147e-06L110 -3.8147e-06L78.8889 50Z" fill="#CE1126"/>
<path d="M23.3978 50L110 -7.62939e-06L110 100L23.3978 50Z" fill="white"/>
<path d="M78.8887 40C73.3658 40 68.8887 44.4772 68.8887 50C68.8887 55.5228 73.3658 60 78.8887 60C84.4115 60 88.8887 55.5228 88.8887 50C88.8887 44.4772 84.4115 40 78.8887 40Z" fill="#FCD116"/>
<path d="M78.8887 50.0002L82.4043 67.6769L81.3543 68.728L78.8887 50.0002ZM78.8887 50.0002L80.1876 69.8124L78.8887 71.1113L77.5899 69.8124L78.8887 50.0002ZM78.8887 50.0002L76.4232 68.728L75.3732 67.6769L78.8887 50.0002Z" fill="#FCD116"/>
<path d="M78.8886 49.9998L75.373 32.3231L76.423 31.272L78.8886 49.9998ZM78.8886 49.9998L77.5897 30.1876L78.8886 28.8887L80.1875 30.1876L78.8886 49.9998ZM78.8886 49.9998L81.3542 31.272L82.4042 32.3231L78.8886 49.9998Z" fill="#FCD116"/>
<path d="M78.8889 50.0001L61.2123 53.5156L60.1612 52.4656L78.8889 50.0001ZM78.8889 50.0001L59.0767 51.299L57.7778 50.0001L59.0767 48.7012L78.8889 50.0001ZM78.8889 50.0001L60.1612 47.5345L61.2123 46.4845L78.8889 50.0001Z" fill="#FCD116"/>
<path d="M78.8889 49.9999L96.5656 46.4844L97.6167 47.5344L78.8889 49.9999ZM78.8889 49.9999L98.7011 48.701L100 49.9999L98.7011 51.2988L78.8889 49.9999ZM78.8889 49.9999L97.6167 52.4655L96.5656 53.5155L78.8889 49.9999Z" fill="#FCD116"/>
<path d="M78.8887 49.9984L68.8753 64.9836L67.3896 64.9844L78.8887 49.9984ZM78.8887 49.9984L65.7978 64.9262L63.9609 64.9262L63.9609 63.0893L78.8887 49.9984ZM78.8887 49.9984L63.9028 61.4976L63.9035 60.0118L78.8887 49.9984Z" fill="#FCD116"/>
<path d="M78.8886 49.9977L88.902 35.0125L90.3878 35.0117L78.8886 49.9977ZM78.8886 49.9977L91.9795 35.0699L93.8164 35.0699L93.8164 36.9068L78.8886 49.9977ZM78.8886 49.9977L93.8746 38.4985L93.8738 39.9842L78.8886 49.9977Z" fill="#FCD116"/>
<path d="M78.8888 50.0005L63.9036 39.9871L63.9028 38.5014L78.8888 50.0005ZM78.8888 50.0005L63.961 36.9096L63.961 35.0727L65.7979 35.0727L78.8888 50.0005ZM78.8888 50.0005L67.3897 35.0146L68.8754 35.0154L78.8888 50.0005Z" fill="#FCD116"/>
<path d="M78.8891 49.9995L93.8742 60.0129L93.875 61.4986L78.8891 49.9995ZM78.8891 49.9995L93.8169 63.0904L93.8169 64.9273L91.98 64.9273L78.8891 49.9995ZM78.8891 49.9995L90.3882 64.9854L88.9025 64.9846L78.8891 49.9995Z" fill="#FCD116"/>
<path d="M33.3977 49.9999L37.1555 48.6932L37.2366 44.7165L39.64 47.8865L43.4478 46.7343L41.1755 49.9999L43.4478 53.2654L39.64 52.1132L37.2366 55.2832L37.1555 51.3065L33.3977 49.9999Z" fill="#FCD116"/>
<path d="M104.999 8.66076L104.252 12.5684L107.655 14.627L103.709 15.1234L102.802 18.9971L101.111 15.3965L97.1464 15.7315L100.048 13.01L98.5045 9.34368L101.989 11.2618L104.999 8.66076Z" fill="#FCD116"/>
<path d="M104.999 91.3394L101.989 88.7384L98.5044 90.6565L100.048 86.9901L97.1463 84.2686L101.11 84.6036L102.802 81.003L103.708 84.8768L107.655 85.3731L104.252 87.4317L104.999 91.3394Z" fill="#FCD116"/>
</g>
<rect x="99.5" y="99.5" width="99" height="99" rx="49.5" transform="rotate(-180 99.5 99.5)" stroke="#EAECF0"/>
<g clip-path="url(#clip1_2365_20645)">
<path d="M0 0H150V100H0V0Z" fill="white"/>
<path d="M0 0H150V50H0V0Z" fill="#FF0000"/>
</g>
<rect x="0.5" y="0.5" width="99" height="99" rx="49.5" stroke="#EAECF0"/>
<defs>
<clipPath id="clip0_2365_20645">
<rect x="100" y="100" width="100" height="100" rx="50" transform="rotate(-180 100 100)" fill="white"/>
</clipPath>
<clipPath id="clip1_2365_20645">
<rect width="100" height="100" rx="50" fill="white"/>
</clipPath>
</defs>
</svg>
