<svg width="40" height="40" viewBox="0 0 40 40" fill="none" xmlns="http://www.w3.org/2000/svg">
<path d="M34.4504 8.20701L18.1862 14.8318L1.88489 8.20701L18.1486 1.91699L34.4504 8.20701ZM0.544962 10.9612L16.772 17.7345V36.0829C15.4818 35.5128 14.1424 34.9161 12.7525 34.2962C11.5619 33.7759 10.2154 33.193 8.71442 32.5477C7.21324 31.9023 5.7063 31.257 4.19249 30.6115C3.64678 30.3636 3.15028 30.0351 2.70362 29.626C2.25688 29.217 1.87226 28.7697 1.55012 28.2865C1.22742 27.8022 0.979427 27.2872 0.805625 26.7414C0.631863 26.1957 0.544922 25.6626 0.544922 25.1412V10.9612H0.544962ZM35.4551 10.9612V25.067C35.4551 25.7113 35.3311 26.3387 35.0831 26.9459C34.8346 27.5543 34.5183 28.1243 34.1336 28.6574C33.7495 29.1915 33.3212 29.6631 32.8497 30.0721C32.3787 30.4823 31.9194 30.798 31.4726 31.0217C30.1575 31.5674 28.7809 32.1375 27.3418 32.7331C25.9026 33.3287 24.5753 33.8745 23.3593 34.3714C21.9451 34.966 20.5558 35.5372 19.1909 36.0829V17.7345L35.4551 10.9612Z" fill="#7CD0E8"/>
<path d="M38.9401 24.2212H36.6957C36.5103 23.5482 36.2426 22.9096 35.9061 22.316L37.4933 20.7288C37.9067 20.3154 37.9067 19.6424 37.4933 19.229L35.7683 17.504C35.355 17.0907 34.6819 17.0907 34.2685 17.504L32.6813 19.0912C32.0878 18.7547 31.4492 18.4871 30.7762 18.3016V16.0599C30.7762 15.477 30.2992 15 29.7162 15H27.2785C26.6955 15 26.2185 15.477 26.2185 16.0599V18.3043C25.5455 18.4897 24.9069 18.7574 24.3134 19.0939L22.7262 17.5067C22.3128 17.0933 21.6397 17.0933 21.2264 17.5067L19.5014 19.2317C19.088 19.645 19.088 20.3181 19.5014 20.7315L21.0886 22.3187C20.7521 22.9122 20.4844 23.5508 20.299 24.2238H18.0599C17.477 24.2238 17 24.7008 17 25.2838V27.7215C17 28.3045 17.477 28.7815 18.0599 28.7815H20.3043C20.4897 29.4545 20.7574 30.0931 21.0939 30.6866L19.5067 32.2738C19.0933 32.6872 19.0933 33.3603 19.5067 33.7736L21.2317 35.4986C21.645 35.912 22.3181 35.912 22.7315 35.4986L24.3187 33.9114C24.9122 34.2479 25.5508 34.5156 26.2238 34.701V36.9401C26.2238 37.523 26.7008 38 27.2838 38H29.7215C30.3045 38 30.7815 37.523 30.7815 36.9401V34.6957C31.4545 34.5103 32.0931 34.2426 32.6866 33.9061L34.2738 35.4933C34.6872 35.9067 35.3603 35.9067 35.7736 35.4933L37.4986 33.7683C37.912 33.355 37.912 32.6819 37.4986 32.2685L35.9114 30.6813C36.2479 30.0878 36.5156 29.4492 36.701 28.7762H38.9401C39.523 28.7762 40 28.2992 40 27.7162V25.2785C40 24.6982 39.523 24.2212 38.9401 24.2212ZM28.5 31.1636C25.9244 31.1636 23.8364 29.0756 23.8364 26.5C23.8364 23.9244 25.9244 21.8364 28.5 21.8364C31.0756 21.8364 33.1636 23.9244 33.1636 26.5C33.1636 29.0756 31.0756 31.1636 28.5 31.1636Z" fill="#7A49E9"/>
<path d="M26.1682 26.5C26.1682 27.1184 26.4139 27.7115 26.8512 28.1488C27.2885 28.5861 27.8816 28.8318 28.5 28.8318C29.1184 28.8318 29.7115 28.5861 30.1488 28.1488C30.5861 27.7115 30.8318 27.1184 30.8318 26.5C30.8318 25.8816 30.5861 25.2885 30.1488 24.8512C29.7115 24.4139 29.1184 24.1682 28.5 24.1682C27.8816 24.1682 27.2885 24.4139 26.8512 24.8512C26.4139 25.2885 26.1682 25.8816 26.1682 26.5Z" fill="#7A49E9"/>
</svg>
