<svg width="30" height="20" viewBox="0 0 30 20" fill="none" xmlns="http://www.w3.org/2000/svg">
<g clip-path="url(#clip0_2025_6214)">
<g clip-path="url(#clip1_2025_6214)">
<path d="M0 0H38V20H0" fill="#B31942"/>
<path d="M0 2.30762H38H0ZM38 5.38454H0H38ZM0 8.46146H38H0ZM38 11.5384H0H38ZM0 14.6153H38H0ZM38 17.6922H0H38Z" fill="black"/>
<path d="M38 16.9424V18.4424H0V16.9424H38ZM38 13.8652V15.3652H0V13.8652H38ZM38 10.7881V12.2881H0V10.7881H38ZM38 7.71191V9.21191H0V7.71191H38ZM38 4.63477V6.13477H0V4.63477H38ZM38 1.55762V3.05762H0V1.55762H38Z" fill="white"/>
<path d="M0 0H15.2V10.7692H0" fill="#0A3161"/>
<path d="M1.2669 0.461426L1.62862 1.57467L0.681641 0.886646H1.85217L0.905189 1.57467L1.2669 0.461426Z" fill="white"/>
<path d="M1.2669 2.61523L1.62862 3.72848L0.681641 3.04045H1.85217L0.905189 3.72848L1.2669 2.61523Z" fill="white"/>
<path d="M1.2669 4.76904L1.62862 5.88228L0.681641 5.19426H1.85217L0.905189 5.88228L1.2669 4.76904Z" fill="white"/>
<path d="M1.2669 6.92285L1.62862 8.03609L0.681641 7.34807H1.85217L0.905189 8.03609L1.2669 6.92285Z" fill="white"/>
<path d="M1.2669 9.0769L1.62862 10.1901L0.681641 9.50212H1.85217L0.905189 10.1901L1.2669 9.0769Z" fill="white"/>
<path d="M2.53448 1.53833L2.89619 2.65157L1.94922 1.96355H3.11975L2.17277 2.65157L2.53448 1.53833Z" fill="white"/>
<path d="M2.53448 3.69214L2.89619 4.80538L1.94922 4.11736H3.11975L2.17277 4.80538L2.53448 3.69214Z" fill="white"/>
<path d="M2.53448 5.84595L2.89619 6.95919L1.94922 6.27117H3.11975L2.17277 6.95919L2.53448 5.84595Z" fill="white"/>
<path d="M2.53448 7.99976L2.89619 9.113L1.94922 8.42498H3.11975L2.17277 9.113L2.53448 7.99976Z" fill="white"/>
<path d="M3.80011 0.461426L4.16182 1.57467L3.21484 0.886646H4.38537L3.43839 1.57467L3.80011 0.461426Z" fill="white"/>
<path d="M3.80011 2.61523L4.16182 3.72848L3.21484 3.04045H4.38537L3.43839 3.72848L3.80011 2.61523Z" fill="white"/>
<path d="M3.80011 4.76904L4.16182 5.88228L3.21484 5.19426H4.38537L3.43839 5.88228L3.80011 4.76904Z" fill="white"/>
<path d="M3.80011 6.92285L4.16182 8.03609L3.21484 7.34807H4.38537L3.43839 8.03609L3.80011 6.92285Z" fill="white"/>
<path d="M3.80011 9.0769L4.16182 10.1901L3.21484 9.50212H4.38537L3.43839 10.1901L3.80011 9.0769Z" fill="white"/>
<path d="M5.06768 1.53833L5.4294 2.65157L4.48242 1.96355H5.65295L4.70597 2.65157L5.06768 1.53833Z" fill="white"/>
<path d="M5.06768 3.69214L5.4294 4.80538L4.48242 4.11736H5.65295L4.70597 4.80538L5.06768 3.69214Z" fill="white"/>
<path d="M5.06768 5.84595L5.4294 6.95919L4.48242 6.27117H5.65295L4.70597 6.95919L5.06768 5.84595Z" fill="white"/>
<path d="M5.06768 7.99976L5.4294 9.113L4.48242 8.42498H5.65295L4.70597 9.113L5.06768 7.99976Z" fill="white"/>
<path d="M6.33331 0.461426L6.69502 1.57467L5.74805 0.886646H6.91858L5.9716 1.57467L6.33331 0.461426Z" fill="white"/>
<path d="M6.33331 2.61523L6.69502 3.72848L5.74805 3.04045H6.91858L5.9716 3.72848L6.33331 2.61523Z" fill="white"/>
<path d="M6.33331 4.76904L6.69502 5.88228L5.74805 5.19426H6.91858L5.9716 5.88228L6.33331 4.76904Z" fill="white"/>
<path d="M6.33331 6.92285L6.69502 8.03609L5.74805 7.34807H6.91858L5.9716 8.03609L6.33331 6.92285Z" fill="white"/>
<path d="M6.33331 9.0769L6.69502 10.1901L5.74805 9.50212H6.91858L5.9716 10.1901L6.33331 9.0769Z" fill="white"/>
<path d="M7.60089 1.53833L7.9626 2.65157L7.01562 1.96355H8.18615L7.23917 2.65157L7.60089 1.53833Z" fill="white"/>
<path d="M7.60089 3.69214L7.9626 4.80538L7.01562 4.11736H8.18615L7.23917 4.80538L7.60089 3.69214Z" fill="white"/>
<path d="M7.60089 5.84595L7.9626 6.95919L7.01562 6.27117H8.18615L7.23917 6.95919L7.60089 5.84595Z" fill="white"/>
<path d="M7.60089 7.99976L7.9626 9.113L7.01562 8.42498H8.18615L7.23917 9.113L7.60089 7.99976Z" fill="white"/>
<path d="M8.86651 0.461426L9.22822 1.57467L8.28125 0.886646H9.45178L8.5048 1.57467L8.86651 0.461426Z" fill="white"/>
<path d="M8.86651 2.61523L9.22822 3.72848L8.28125 3.04045H9.45178L8.5048 3.72848L8.86651 2.61523Z" fill="white"/>
<path d="M8.86651 4.76904L9.22822 5.88228L8.28125 5.19426H9.45178L8.5048 5.88228L8.86651 4.76904Z" fill="white"/>
<path d="M8.86651 6.92285L9.22822 8.03609L8.28125 7.34807H9.45178L8.5048 8.03609L8.86651 6.92285Z" fill="white"/>
<path d="M8.86651 9.0769L9.22822 10.1901L8.28125 9.50212H9.45178L8.5048 10.1901L8.86651 9.0769Z" fill="white"/>
<path d="M10.1341 1.53833L10.4958 2.65157L9.54883 1.96355H10.7194L9.77238 2.65157L10.1341 1.53833Z" fill="white"/>
<path d="M10.1341 3.69214L10.4958 4.80538L9.54883 4.11736H10.7194L9.77238 4.80538L10.1341 3.69214Z" fill="white"/>
<path d="M10.1341 5.84595L10.4958 6.95919L9.54883 6.27117H10.7194L9.77238 6.95919L10.1341 5.84595Z" fill="white"/>
<path d="M10.1341 7.99976L10.4958 9.113L9.54883 8.42498H10.7194L9.77238 9.113L10.1341 7.99976Z" fill="white"/>
<path d="M11.3997 0.461426L11.7614 1.57467L10.8145 0.886646H11.985L11.038 1.57467L11.3997 0.461426Z" fill="white"/>
<path d="M11.3997 2.61523L11.7614 3.72848L10.8145 3.04045H11.985L11.038 3.72848L11.3997 2.61523Z" fill="white"/>
<path d="M11.3997 4.76904L11.7614 5.88228L10.8145 5.19426H11.985L11.038 5.88228L11.3997 4.76904Z" fill="white"/>
<path d="M11.3997 6.92285L11.7614 8.03609L10.8145 7.34807H11.985L11.038 8.03609L11.3997 6.92285Z" fill="white"/>
<path d="M11.3997 9.0769L11.7614 10.1901L10.8145 9.50212H11.985L11.038 10.1901L11.3997 9.0769Z" fill="white"/>
<path d="M12.6673 1.53833L13.029 2.65157L12.082 1.96355H13.2526L12.3056 2.65157L12.6673 1.53833Z" fill="white"/>
<path d="M12.6673 3.69214L13.029 4.80538L12.082 4.11736H13.2526L12.3056 4.80538L12.6673 3.69214Z" fill="white"/>
<path d="M12.6673 5.84595L13.029 6.95919L12.082 6.27117H13.2526L12.3056 6.95919L12.6673 5.84595Z" fill="white"/>
<path d="M12.6673 7.99976L13.029 9.113L12.082 8.42498H13.2526L12.3056 9.113L12.6673 7.99976Z" fill="white"/>
<path d="M13.9329 0.461426L14.2946 1.57467L13.3477 0.886646H14.5182L13.5712 1.57467L13.9329 0.461426Z" fill="white"/>
<path d="M13.9329 2.61523L14.2946 3.72848L13.3477 3.04045H14.5182L13.5712 3.72848L13.9329 2.61523Z" fill="white"/>
<path d="M13.9329 4.76904L14.2946 5.88228L13.3477 5.19426H14.5182L13.5712 5.88228L13.9329 4.76904Z" fill="white"/>
<path d="M13.9329 6.92285L14.2946 8.03609L13.3477 7.34807H14.5182L13.5712 8.03609L13.9329 6.92285Z" fill="white"/>
<path d="M13.9329 9.0769L14.2946 10.1901L13.3477 9.50212H14.5182L13.5712 10.1901L13.9329 9.0769Z" fill="white"/>
</g>
</g>
<defs>
<clipPath id="clip0_2025_6214">
<rect width="30" height="20" rx="1" fill="white"/>
</clipPath>
<clipPath id="clip1_2025_6214">
<rect width="38" height="20" fill="white"/>
</clipPath>
</defs>
</svg>
