<svg width="100" height="100" viewBox="0 0 100 100" fill="none" xmlns="http://www.w3.org/2000/svg">
<g clip-path="url(#clip0_2365_20649)">
<path d="M136.667 100L-63.3335 100V0L136.667 0V100Z" fill="white"/>
<path d="M-63.335 57.3208V49.8216L129.524 49.8216V57.3208L-63.335 57.3208ZM-63.335 71.6071V64.1079L129.524 64.1079V71.6071L-63.335 71.6071ZM-63.335 85.8934V78.3942L129.524 78.3942V85.8934L-63.335 85.8934ZM-63.335 100.18V92.6764L129.524 92.6764V100.18L-63.335 100.18Z" fill="#CC0000"/>
<path d="M136.667 100L36.6665 100L36.6665 39.2857L136.667 39.2857V100Z" fill="#000066"/>
<path d="M-63.3335 14.4645V6.96533L136.667 6.96533V14.4645L-63.3335 14.4645ZM-63.3335 28.7508V21.2516L136.667 21.2516V28.7508L-63.3335 28.7508ZM-63.3335 43.0371V35.5339L136.667 35.5339V43.0371L-63.3335 43.0371Z" fill="#CC0000"/>
<path d="M74.1665 89.286L72.5742 78.3931L66.4135 87.5152L69.7171 77.0092L60.2081 82.5598L67.7379 74.5241L56.7557 75.4021L67.0236 71.4288L56.7557 67.4556L67.7379 68.3336L60.2081 60.2979L69.7171 65.8485L66.4135 55.3425L72.5742 64.4646L74.1665 53.5717L75.7587 64.4646L81.9194 55.3425L78.6159 65.8485L88.1248 60.2979L80.595 68.3336L91.5772 67.4556L81.3093 71.4288L91.5772 75.4021L80.595 74.5241L88.1248 82.5598L78.6159 77.0092L81.9194 87.5152L75.7587 78.3931L74.1665 89.286ZM83.095 88.8396C85.9949 90.1263 89.1703 90.6682 92.3328 90.4163C95.4953 90.1644 98.5449 89.1265 101.204 87.3969C103.864 85.6673 106.05 83.3008 107.562 80.5123C109.075 77.7237 109.868 74.6014 109.868 71.4288C109.868 68.2563 109.075 65.134 107.562 62.3454C106.05 59.5569 103.864 57.1904 101.204 55.4608C98.5449 53.7312 95.4953 52.6933 92.3328 52.4414C89.1703 52.1894 85.9949 52.7314 83.095 54.0181C86.2972 51.7206 90.0709 50.3507 94.0011 50.059C97.9314 49.7674 101.866 50.5652 105.372 52.3649C108.878 54.1645 111.82 56.8963 113.875 60.2596C115.929 63.623 117.016 67.4878 117.016 71.4288C117.016 75.3699 115.929 79.2347 113.875 82.598C111.82 85.9614 108.878 88.6932 105.372 90.4928C101.866 92.2925 97.9314 93.0903 94.0011 92.7986C90.0709 92.507 86.2972 91.1371 83.095 88.8396Z" fill="#FFCC00"/>
</g>
<rect x="99.5" y="99.5" width="99" height="99" rx="49.5" transform="rotate(-180 99.5 99.5)" stroke="#EAECF0"/>
<g clip-path="url(#clip1_2365_20649)">
<path d="M-25 0H125V100H-25V0Z" fill="#FF0000"/>
<path d="M50.0002 20L32.3502 74.25L78.5502 40.75H21.4502L67.6502 74.25L50.0002 20Z" fill="#FFEB00"/>
</g>
<rect x="0.5" y="0.5" width="99" height="99" rx="49.5" stroke="#EAECF0"/>
<defs>
<clipPath id="clip0_2365_20649">
<rect x="100" y="100" width="100" height="100" rx="50" transform="rotate(-180 100 100)" fill="white"/>
</clipPath>
<clipPath id="clip1_2365_20649">
<rect width="100" height="100" rx="50" fill="white"/>
</clipPath>
</defs>
</svg>
