<svg width="100" height="100" viewBox="0 0 100 100" fill="none" xmlns="http://www.w3.org/2000/svg">
<g clip-path="url(#clip0_2365_20646)">
<path d="M100 100L-50 100V0L100 0L100 100Z" fill="white"/>
<path d="M100 100L-50 100V50L100 50V100Z" fill="#FF0000"/>
</g>
<rect x="99.5" y="99.5" width="99" height="99" rx="49.5" transform="rotate(-180 99.5 99.5)" stroke="#EAECF0"/>
<g clip-path="url(#clip1_2365_20646)">
<path d="M0 0H150V100H0V0Z" fill="#A51931"/>
<path d="M0 16.666H150V83.3327H0V16.666Z" fill="#F4F5F8"/>
<path d="M0 33.334H150V66.6673H0V33.334Z" fill="#2D2A4A"/>
</g>
<rect x="0.5" y="0.5" width="99" height="99" rx="49.5" stroke="#EAECF0"/>
<defs>
<clipPath id="clip0_2365_20646">
<rect x="100" y="100" width="100" height="100" rx="50" transform="rotate(-180 100 100)" fill="white"/>
</clipPath>
<clipPath id="clip1_2365_20646">
<rect width="100" height="100" rx="50" fill="white"/>
</clipPath>
</defs>
</svg>
