<svg width="40" height="40" viewBox="0 0 40 40" fill="none" xmlns="http://www.w3.org/2000/svg">
<path d="M26.0008 36.4C19.815 36.4 14.8008 31.3858 14.8008 25.2C14.8008 19.0142 19.815 14 26.0008 14C32.1865 14 37.2008 19.0142 37.2008 25.2C37.2008 31.3858 32.1865 36.4 26.0008 36.4ZM22.0808 27.44V29.68H24.8808V31.92H27.1208V29.68H28.2408C28.9834 29.68 29.6956 29.385 30.2207 28.8599C30.7458 28.3348 31.0408 27.6226 31.0408 26.88C31.0408 26.1374 30.7458 25.4252 30.2207 24.9001C29.6956 24.375 28.9834 24.08 28.2408 24.08H23.7608C23.6123 24.08 23.4698 24.021 23.3648 23.916C23.2598 23.811 23.2008 23.6685 23.2008 23.52C23.2008 23.3715 23.2598 23.229 23.3648 23.124C23.4698 23.019 23.6123 22.96 23.7608 22.96H29.9208V20.72H27.1208V18.48H24.8808V20.72H23.7608C23.0182 20.72 22.306 21.015 21.7809 21.5401C21.2558 22.0652 20.9608 22.7774 20.9608 23.52C20.9608 24.2626 21.2558 24.9748 21.7809 25.4999C22.306 26.025 23.0182 26.32 23.7608 26.32H28.2408C28.3893 26.32 28.5317 26.379 28.6368 26.484C28.7418 26.589 28.8008 26.7315 28.8008 26.88C28.8008 27.0285 28.7418 27.171 28.6368 27.276C28.5317 27.381 28.3893 27.44 28.2408 27.44H22.0808Z" fill="#7A49E9"/>
<path d="M13.3992 25.1998C7.21346 25.1998 2.19922 20.1856 2.19922 13.9998C2.19922 7.81404 7.21346 2.7998 13.3992 2.7998C19.585 2.7998 24.5992 7.81404 24.5992 13.9998C24.5992 20.1856 19.585 25.1998 13.3992 25.1998ZM11.2152 12.8798C11.3122 12.4034 11.5316 11.9605 11.8518 11.5947C12.1719 11.2288 12.5818 10.9527 13.0411 10.7933C13.5004 10.634 13.9933 10.5969 14.4712 10.6859C14.9491 10.7748 15.3957 10.9867 15.7669 11.3006L17.6709 10.0316C17.0167 9.31906 16.1713 8.80979 15.2355 8.56464C14.2997 8.31949 13.3132 8.34881 12.3936 8.64911C11.4741 8.94941 10.6604 9.50799 10.0496 10.2582C9.43893 11.0084 9.057 11.9185 8.94946 12.8798H7.79922V15.1198H8.94946C9.05682 16.0814 9.43869 16.9918 10.0495 17.7422C10.6603 18.4926 11.4742 19.0513 12.3939 19.3516C13.3137 19.652 14.3005 19.6812 15.2364 19.4358C16.1724 19.1905 17.0179 18.6809 17.672 17.968L15.7669 16.6979C15.3957 17.0118 14.9491 17.2237 14.4712 17.3126C13.9933 17.4016 13.5004 17.3645 13.0411 17.2052C12.5818 17.0458 12.1719 16.7696 11.8518 16.4038C11.5316 16.0379 11.3122 15.5951 11.2152 15.1187H16.7592V12.8787H11.2152V12.8798Z" fill="#7CD0E8"/>
</svg>
