<svg width="100" height="100" viewBox="0 0 100 100" fill="none" xmlns="http://www.w3.org/2000/svg">
<g clip-path="url(#clip0_2365_20648)">
<path d="M100 100L-50 100V0L100 0L100 100Z" fill="#A51931"/>
<path d="M100 83.334L-50 83.334V16.6673L100 16.6673L100 83.334Z" fill="#F4F5F8"/>
<path d="M100 66.666L-50 66.666V33.3327L100 33.3327V66.666Z" fill="#2D2A4A"/>
</g>
<rect x="99.5" y="99.5" width="99" height="99" rx="49.5" transform="rotate(-180 99.5 99.5)" stroke="#EAECF0"/>
<g clip-path="url(#clip1_2365_20648)">
<path d="M-36.6665 0H163.333V100H-36.6665V0Z" fill="white"/>
<path d="M163.335 42.6792V50.1784H-29.5239V42.6792H163.335ZM163.335 28.3929V35.8921H-29.5239V28.3929H163.335ZM163.335 14.1066V21.6058H-29.5239V14.1066H163.335ZM163.335 -0.179688V7.32357H-29.5239V-0.179688H163.335Z" fill="#CC0000"/>
<path d="M-36.6665 0H63.3335V60.7143H-36.6665V0Z" fill="#000066"/>
<path d="M163.333 85.5355V93.0347H-36.6665V85.5355H163.333ZM163.333 71.2492V78.7484H-36.6665V71.2492H163.333ZM163.333 56.9629V64.4661H-36.6665V56.9629H163.333Z" fill="#CC0000"/>
<path d="M25.8335 10.714L27.4258 21.6069L33.5865 12.4848L30.2829 22.9908L39.7919 17.4402L32.2621 25.4759L43.2443 24.5979L32.9764 28.5712L43.2443 32.5444L32.2621 31.6664L39.7919 39.7021L30.2829 34.1515L33.5865 44.6575L27.4258 35.5354L25.8335 46.4283L24.2413 35.5354L18.0806 44.6575L21.3841 34.1515L11.8752 39.7021L19.405 31.6664L8.42283 32.5444L18.6907 28.5712L8.42283 24.5979L19.405 25.4759L11.8752 17.4402L21.3841 22.9908L18.0806 12.4848L24.2413 21.6069L25.8335 10.714ZM16.905 11.1604C14.0051 9.87374 10.8297 9.33176 7.66718 9.58369C4.50465 9.83563 1.45514 10.8735 -1.20448 12.6031C-3.8641 14.3327 -6.04958 16.6992 -7.5625 19.4877C-9.07542 22.2763 -9.86785 25.3986 -9.86785 28.5712C-9.86785 31.7437 -9.07542 34.866 -7.5625 37.6546C-6.04958 40.4431 -3.8641 42.8096 -1.20448 44.5392C1.45514 46.2688 4.50465 47.3067 7.66718 47.5586C10.8297 47.8106 14.0051 47.2686 16.905 45.9819C13.7028 48.2794 9.92914 49.6493 5.99887 49.941C2.06859 50.2326 -1.86599 49.4348 -5.37218 47.6351C-8.87837 45.8355 -11.8203 43.1037 -13.8745 39.7404C-15.9288 36.377 -17.0156 32.5122 -17.0156 28.5712C-17.0156 24.6301 -15.9288 20.7653 -13.8745 17.402C-11.8203 14.0386 -8.87837 11.3068 -5.37218 9.50719C-1.86599 7.70754 2.06859 6.90968 5.99887 7.20135C9.92914 7.49303 13.7028 8.86295 16.905 11.1604Z" fill="#FFCC00"/>
</g>
<rect x="0.5" y="0.5" width="99" height="99" rx="49.5" stroke="#EAECF0"/>
<defs>
<clipPath id="clip0_2365_20648">
<rect x="100" y="100" width="100" height="100" rx="50" transform="rotate(-180 100 100)" fill="white"/>
</clipPath>
<clipPath id="clip1_2365_20648">
<rect width="100" height="100" rx="50" fill="white"/>
</clipPath>
</defs>
</svg>
