<svg width="40" height="40" viewBox="0 0 40 40" fill="none" xmlns="http://www.w3.org/2000/svg">
<path d="M20 2C10.0586 2 2 10.0525 2 19.9854C2 29.1609 8.8759 36.7318 17.7606 37.8323C18.2613 37.9381 18.8713 38 19.5982 38C19.8019 38 19.9989 37.9887 20.1891 37.9696C30.0426 37.8683 38 29.8563 38 19.9854C38 10.0525 29.9414 2 20 2ZM17.1619 36.2266C9.41607 34.874 3.5271 28.1212 3.5271 19.9932C3.5271 18.8286 3.64864 17.6909 3.87934 16.5949C4.59168 17.3556 6.27071 17.3376 6.67921 16.1999C7.41182 16.6365 8.3965 16.7153 8.3965 17.5885C8.3965 20.4681 8.49891 23.5559 11.1165 23.6032C11.1896 23.6032 12.5749 24.1287 13.2344 25.838C13.4628 26.4299 14.3642 25.838 15.3534 25.838C15.8475 25.838 15.3534 26.6707 15.3534 28.4689C15.3534 30.2603 19.2168 33.0195 19.2168 33.0195C19.1987 34.2056 19.2471 35.1643 19.3462 35.9306C18.474 35.9137 17.7392 36.0296 17.163 36.2266H17.1619ZM24.0817 35.97C23.9961 35.5514 23.6214 35.3218 22.9394 35.5019C23.4841 33.1827 23.7485 31.8841 24.8863 30.8972C26.5293 29.4715 25.081 27.886 23.8296 28.0728C22.8426 28.2224 23.4661 26.8518 22.5861 26.7753C21.7049 26.7022 20.5559 24.9512 19.2888 24.3481C18.6169 24.0296 17.9564 23.1744 16.9199 23.1362C16.0016 23.1002 14.6602 23.9126 14.6602 23.2858C14.6602 21.2704 14.4554 19.8312 14.4138 19.2573C14.38 18.7959 14.1122 19.102 15.3534 19.1313C16.0286 19.1493 15.6989 17.7742 16.3685 17.7213C17.0246 17.6695 18.5899 18.3357 18.9883 18.0701C19.3597 17.8226 21.7117 24.2446 21.7117 19.1313C21.7117 18.5248 21.3966 17.4704 21.7117 16.8953C22.954 14.6257 24.1165 12.7746 24.013 12.5034C23.9534 12.3515 22.7414 12.2254 21.7713 12.5506C21.445 12.6609 21.876 13.1729 21.4056 13.2821C19.6444 13.6894 18.088 12.8072 18.6327 11.979C19.1909 11.1305 21.2131 11.6088 21.3898 9.9051C21.4911 8.92948 21.5766 7.7997 21.6329 6.96024C24.004 7.33046 23.7429 3.88372 20.2183 3.51463C27.3485 3.5979 33.3906 8.20255 35.6075 14.593C35.4997 14.4912 35.3612 14.4279 35.2136 14.413C34.149 11.7517 31.5619 13.6782 32.4396 16.0255C27.739 19.6399 28.942 22.1605 30.486 23.6032C31.2997 24.3616 32.0739 25.5026 32.5792 26.3218C32.03 27.9231 34.6014 27.2828 35.8708 24.5653C35.0693 27.3283 33.5598 29.834 31.4921 31.8344C29.4243 33.8347 26.8698 35.2603 24.0817 35.97ZM35.0876 16.7479C35.3325 17.8952 35.4462 19.0667 35.4263 20.2397C35.3754 19.3559 35.258 18.4772 35.0752 17.611C35.091 17.3061 35.0955 17.0169 35.0876 16.7479Z" fill="#7CD0E8"/>
<path fill-rule="evenodd" clip-rule="evenodd" d="M36.8409 20.616C36.4435 20.2216 35.9045 20 35.3425 20H25.6578C25.0958 20 24.5568 20.2216 24.1594 20.616C23.7619 21.0103 23.5387 21.5452 23.5387 22.103V30.8672H22.0606L21.9811 30.8704C21.773 30.8857 21.5742 30.9617 21.4094 31.0887C21.2447 31.2157 21.1214 31.3882 21.055 31.5845C20.9887 31.7808 20.9822 31.9921 21.0364 32.1921C21.0905 32.392 21.203 32.5716 21.3596 32.7084L29.0994 39.4747L29.1863 39.5473C29.5757 39.8526 30.0608 40.0125 30.5568 39.9992C31.0529 39.986 31.5286 39.8004 31.9009 39.4747L39.6407 32.7084L39.7064 32.6453C39.8897 32.455 39.9944 32.2033 39.9998 31.9401C40.0052 31.6769 39.9109 31.4212 39.7355 31.2237L39.6719 31.159C39.4749 30.9719 39.2129 30.8674 38.9403 30.8672H37.4611L37.4616 22.103C37.4616 21.5452 37.2384 21.0103 36.8409 20.616ZM32.3869 30.6201H27.6365V32.3446H29.7958V34.069H31.5232V32.3446H32.3869C32.9596 32.3446 33.5089 32.1175 33.9138 31.7132C34.3188 31.309 34.5463 30.7607 34.5463 30.189C34.5463 29.6173 34.3188 29.069 33.9138 28.6648C33.5089 28.2605 32.9596 28.0334 32.3869 28.0334H28.932C28.8175 28.0334 28.7077 27.988 28.6267 27.9072C28.5457 27.8263 28.5002 27.7167 28.5002 27.6023C28.5002 27.488 28.5457 27.3783 28.6267 27.2975C28.7077 27.2166 28.8175 27.1712 28.932 27.1712H33.6825V25.4467H31.5232V23.7223H29.7958V25.4467H28.932C28.3594 25.4467 27.8101 25.6739 27.4052 26.0781C27.0002 26.4823 26.7727 27.0306 26.7727 27.6023C26.7727 28.174 27.0002 28.7223 27.4052 29.1265C27.8101 29.5308 28.3594 29.7579 28.932 29.7579H32.3869C32.5015 29.7579 32.6113 29.8033 32.6923 29.8841C32.7733 29.965 32.8188 30.0747 32.8188 30.189C32.8188 30.3033 32.7733 30.413 32.6923 30.4938C32.6113 30.5747 32.5015 30.6201 32.3869 30.6201Z" fill="#7A49E9"/>
</svg>
