<svg width="40" height="40" viewBox="0 0 40 40" fill="none" xmlns="http://www.w3.org/2000/svg">
<path d="M36 18L33.0951 15.0535L33.079 15.0698V5.62791C33.079 4.73256 32.3568 4 31.4741 4H11.6049C10.7222 4 10 4.73256 10 5.62791V30.3721C10 31.2674 10.7222 32 11.6049 32H31.4901C32.3728 32 33.0951 31.2674 33.0951 30.3721V20.9302L33.1111 20.9465L36 18Z" fill="#7CD0E8"/>
<path d="M28.3951 8H8.50988C7.62716 8 6.90494 8.73256 6.90494 9.62791V19.0698L6.88889 19.0535L4 22L6.90494 24.9465L6.92099 24.9302V34.3721C6.92099 35.2674 7.64321 36 8.52593 36H28.3951C29.2778 36 30 35.2674 30 34.3721V9.62791C30 8.73256 29.2778 8 28.3951 8Z" fill="#7A49E9"/>
<path d="M14.1143 20.7647C13.4935 20.7647 13 20.2541 13 19.6118C13 18.9694 13.4935 18.4588 14.1143 18.4588H20.0839L18.5876 16.9929C18.3647 16.7788 18.2533 16.4988 18.2373 16.1859C18.2373 15.8729 18.3488 15.5929 18.5557 15.3624C18.7627 15.1318 19.0492 15 19.3676 15C19.6541 15 19.9247 15.1153 20.1317 15.3294L23.6339 18.7882C23.9522 19.1012 24.0637 19.6282 23.8886 20.0565C23.7135 20.5012 23.2996 20.7812 22.8538 20.7812H14.1143V20.7647ZM17.6165 29C17.33 29 17.0593 28.8847 16.8524 28.6871L13.3502 25.2282C13.0318 24.9153 12.9204 24.3882 13.0955 23.96C13.2706 23.5153 13.6686 23.2353 14.1302 23.2353H22.8857C23.5065 23.2353 24 23.7459 24 24.3882C24 25.0306 23.5065 25.5412 22.8857 25.5412H16.9001L18.3965 27.0071C18.6194 27.2212 18.7308 27.5012 18.7467 27.8141C18.7467 28.1271 18.6353 28.4071 18.4284 28.6376C18.2055 28.8682 17.903 29 17.6165 29Z" fill="white"/>
</svg>
