<svg width="40" height="40" viewBox="0 0 40 40" fill="none" xmlns="http://www.w3.org/2000/svg">
<path d="M27.9894 13.3589C27.6869 13.3589 27.4979 13.301 27.2144 13.2431V16.7977H22.8293C22.0165 14.7114 20.0697 13.2432 17.7259 13.2432C15.3822 13.2432 13.3408 14.7114 12.6226 16.7977H5.15653V25.3557C3.32309 26.1864 2 28.1761 2 30.3591C2 33.4886 4.45718 36 7.40579 36C10.4678 36 12.925 33.4886 12.925 30.3591C12.925 27.5386 10.8836 25.2398 8.23745 24.8341V19.9273H12.4146C13.0195 22.3227 15.0608 24.0034 17.6125 24.0034C20.1642 24.0034 22.2055 22.2261 22.8104 19.9273H30.163V12.992C29.5015 13.2818 28.7643 13.3589 27.9894 13.3589ZM10.6757 30.5716C10.6757 32.3489 9.23922 33.7977 7.40579 33.7977C5.57236 33.7977 4.13585 32.3295 4.13585 30.5716C4.13585 28.7943 5.57236 27.3455 7.40579 27.3455C9.23922 27.3455 10.6757 28.7943 10.6757 30.5716ZM17.6125 21.8205C15.7791 21.8205 14.3426 20.3523 14.3426 18.5943C14.3426 16.8364 15.7791 15.3682 17.6125 15.3682C19.446 15.3682 20.8825 16.8364 20.8825 18.5943C20.8825 20.3523 19.4649 21.8205 17.6125 21.8205Z" fill="#7A49E9"/>
<path d="M28.4052 2C25.3243 2 22.8104 4.55 22.8104 7.71818C22.8104 10.867 25.3054 13.4364 28.4052 13.4364C31.505 13.4364 34 10.8864 34 7.71818C34 4.56932 31.505 2 28.4052 2ZM28.4052 11.4852C26.3828 11.4852 24.7383 9.80454 24.7383 7.7375C24.7383 5.67045 26.3828 3.98977 28.4052 3.98977C30.4276 3.98977 32.0721 5.67045 32.0721 7.7375C32.091 9.80454 30.4465 11.4852 28.4052 11.4852Z" fill="#7A49E9"/>
<path d="M37.1244 26.6175H35.2704C35.1172 26.0615 34.8961 25.534 34.6181 25.0437L35.9293 23.7325C36.2707 23.391 36.2707 22.835 35.9293 22.4935L34.5043 21.0685C34.1628 20.7271 33.6068 20.7271 33.2653 21.0685L31.9541 22.3797C31.4638 22.1017 30.9363 21.8806 30.3803 21.7274V19.8756C30.3803 19.394 29.9863 19 29.5047 19H27.4909C27.0093 19 26.6153 19.394 26.6153 19.8756V21.7296C26.0593 21.8828 25.5318 22.1039 25.0415 22.3819L23.7303 21.0707C23.3888 20.7293 22.8328 20.7293 22.4914 21.0707L21.0664 22.4957C20.7249 22.8372 20.7249 23.3932 21.0664 23.7347L22.3775 25.0459C22.0995 25.5362 21.8785 26.0637 21.7252 26.6197H19.8756C19.394 26.6197 19 27.0137 19 27.4953V29.5091C19 29.9907 19.394 30.3847 19.8756 30.3847H21.7296C21.8828 30.9407 22.1039 31.4682 22.3819 31.9585L21.0707 33.2697C20.7293 33.6112 20.7293 34.1672 21.0707 34.5086L22.4957 35.9336C22.8372 36.2751 23.3932 36.2751 23.7347 35.9336L25.0459 34.6225C25.5362 34.9005 26.0637 35.1215 26.6197 35.2748V37.1244C26.6197 37.606 27.0137 38 27.4953 38H29.5091C29.9907 38 30.3847 37.606 30.3847 37.1244V35.2704C30.9407 35.1172 31.4682 34.8961 31.9585 34.6181L33.2697 35.9293C33.6112 36.2707 34.1672 36.2707 34.5086 35.9293L35.9336 34.5043C36.2751 34.1628 36.2751 33.6068 35.9336 33.2653L34.6225 31.9541C34.9005 31.4638 35.1215 30.9363 35.2748 30.3803H37.1244C37.606 30.3803 38 29.9863 38 29.5047V27.4909C38 27.0115 37.606 26.6175 37.1244 26.6175ZM28.5 32.3525C26.3724 32.3525 24.6475 30.6276 24.6475 28.5C24.6475 26.3724 26.3724 24.6475 28.5 24.6475C30.6276 24.6475 32.3525 26.3724 32.3525 28.5C32.3525 30.6276 30.6276 32.3525 28.5 32.3525Z" fill="#7CD0E8"/>
<path d="M26.5737 28.5C26.5737 29.0109 26.7767 29.5008 27.1379 29.8621C27.4992 30.2233 27.9891 30.4263 28.5 30.4263C29.0109 30.4263 29.5008 30.2233 29.8621 29.8621C30.2233 29.5008 30.4263 29.0109 30.4263 28.5C30.4263 27.9891 30.2233 27.4992 29.8621 27.1379C29.5008 26.7767 29.0109 26.5737 28.5 26.5737C27.9891 26.5737 27.4992 26.7767 27.1379 27.1379C26.7767 27.4992 26.5737 27.9891 26.5737 28.5Z" fill="#7CD0E8"/>
</svg>
