<svg width="240" height="79" viewBox="0 0 240 79" fill="none" xmlns="http://www.w3.org/2000/svg">
<path d="M30.2972 0L21.666 13.7222L77.412 13.5165L86.0432 0H30.2972Z" fill="#D9D9D9"/>
<path d="M62.6967 54.4776H24.828L33.6584 40.961H57.2216L65.8529 27.2388H13.2572L4.62598 40.961H17.2508L0 68H70.6897L79.1593 54.4776H62.6967Z" fill="#D9D9D9"/>
<path d="M235.787 56.9141H219.641C219.641 56.9141 219.62 56.9327 219.577 56.97C219.567 57.0072 219.552 57.0632 219.532 57.1377C219.489 57.175 219.463 57.2123 219.453 57.2495C219.443 57.2868 219.433 57.3241 219.423 57.3614C219.393 57.4732 219.363 57.585 219.332 57.6968C219.312 57.7714 219.292 57.8459 219.272 57.9205C219.086 58.8523 219.094 59.7282 219.295 60.5483C219.507 61.331 220.033 61.8529 220.873 62.1138C220.938 62.1138 220.998 62.1324 221.053 62.1697C221.151 62.1697 221.227 62.1883 221.282 62.2256C221.315 62.2256 221.331 62.2256 221.331 62.2256C221.363 62.2256 221.396 62.2256 221.428 62.2256C221.548 62.2629 221.669 62.3001 221.789 62.3374C221.909 62.3747 222.017 62.3933 222.115 62.3933C223.123 62.3933 224.163 62.0951 225.234 61.4988C226.306 60.9024 227.342 60.1942 228.344 59.3741L231.194 64.1825C229.488 65.5616 227.726 66.5494 225.907 67.1458C224.087 67.7421 222.267 68.0403 220.446 68.0403L219.651 68.0962C216.351 67.9099 214.141 66.6985 213.021 64.462C211.9 62.2256 211.782 59.4673 212.666 56.1872C212.757 55.8518 212.852 55.4977 212.953 55.1249C213.096 54.7149 213.239 54.3049 213.382 53.8949C213.505 53.5594 213.628 53.2239 213.751 52.8885C213.916 52.5157 214.072 52.1803 214.217 51.8821C215.754 48.7138 217.811 46.2724 220.387 44.5578C222.963 42.8432 225.463 41.8927 227.887 41.7063C228.06 41.669 228.211 41.6504 228.342 41.6504C228.504 41.6504 228.667 41.6504 228.829 41.6504C228.862 41.6504 228.878 41.6504 228.878 41.6504C228.911 41.6504 228.943 41.6504 228.976 41.6504C231.73 41.6877 233.954 42.7872 235.647 44.9491C237.373 47.111 237.659 50.3352 236.503 54.6217C236.453 54.8081 236.402 54.9945 236.352 55.1808C236.302 55.3672 236.252 55.5536 236.201 55.7399C236.141 55.9636 236.07 56.1686 235.987 56.355C235.937 56.5413 235.87 56.7277 235.787 56.9141ZM226.939 47.5769C226.028 47.5769 225.093 47.9683 224.134 48.7511C223.186 49.4966 222.287 50.5961 221.44 52.0498H230.172C230.454 50.5216 230.333 49.4034 229.808 48.6952C229.294 47.9497 228.418 47.5769 227.183 47.5769H226.939Z" fill="#D9D9D9"/>
<path d="M212.632 29.2402H220.291L204.738 67.2037H197.08L212.632 29.2402Z" fill="#D9D9D9"/>
<path d="M166.854 78.0484L181.271 42.4891H188.441L187.049 45.8437C187.911 45.061 188.774 44.39 189.641 43.8309C190.507 43.2718 191.364 42.8059 192.213 42.4331C192.836 42.1722 193.439 41.9859 194.022 41.874C194.647 41.7249 195.22 41.6504 195.741 41.6504C198.017 41.6504 199.703 42.6941 200.799 44.7814C201.937 46.8315 202.029 49.627 201.074 53.168L200.803 54.1744C199.738 57.6409 197.929 60.7346 195.374 63.4556C192.862 66.1394 189.977 67.6117 186.72 67.8726L185.827 67.9285C184.276 67.8912 183.043 67.5185 182.128 66.8103C181.223 66.0648 180.453 65.0025 179.817 63.6234C179.756 63.847 179.696 64.0707 179.636 64.2943C179.575 64.5179 179.504 64.723 179.421 64.9093C179.3 65.3566 179.164 65.8039 179.011 66.2512C178.867 66.6612 178.713 67.0526 178.548 67.4253L174.269 78.0484H166.854ZM192.354 49.8693C192.199 49.7202 192.023 49.5897 191.825 49.4779C191.628 49.3661 191.425 49.2729 191.218 49.1984C191.01 49.1238 190.798 49.0679 190.58 49.0306C190.363 48.9934 190.156 48.9747 189.961 48.9747C189.05 48.9747 188.103 49.2915 187.119 49.9252C186.136 50.5589 185.247 51.323 184.453 52.2175C184.2 52.553 183.953 52.9258 183.712 53.3358C183.482 53.7085 183.267 54.0812 183.069 54.454C182.924 54.7522 182.778 55.0504 182.633 55.3486C182.52 55.6468 182.428 55.9263 182.358 56.1872C182.127 57.0445 182.117 57.8645 182.329 58.6473C182.551 59.3928 182.998 60.0264 183.67 60.5483C183.813 60.6228 183.95 60.716 184.082 60.8278C184.225 60.9024 184.367 60.9769 184.51 61.0515C184.707 61.1633 184.91 61.2565 185.118 61.331C185.368 61.3683 185.607 61.3869 185.834 61.3869C187.233 61.3869 188.579 60.7346 189.874 59.4301C191.179 58.0882 192.124 56.6345 192.708 55.069C192.781 54.9199 192.832 54.7894 192.863 54.6776C192.903 54.5285 192.943 54.3794 192.983 54.2303C193.023 54.0812 193.047 53.9322 193.055 53.7831C193.105 53.5967 193.15 53.429 193.191 53.2799C193.274 52.6089 193.25 51.9753 193.118 51.3789C193.028 50.7452 192.774 50.242 192.354 49.8693Z" fill="#D9D9D9"/>
<path d="M133.149 67.2029L143.227 42.4903H149.91L148.321 46.5718C149.721 45.1181 151.095 43.944 152.442 43.0494C153.799 42.1175 155.258 41.6516 156.819 41.6516C156.916 41.6516 157.009 41.6703 157.096 41.7075C157.226 41.7075 157.356 41.7075 157.486 41.7075C157.617 41.7075 157.725 41.7262 157.813 41.7634C157.943 41.7634 158.057 41.7634 158.154 41.7634C159.382 41.9125 160.25 42.4344 160.757 43.3289C161.296 44.2235 161.676 45.2858 161.897 46.5159C163.16 45.2113 164.556 44.0744 166.085 43.1053C167.657 42.0989 169.159 41.5957 170.59 41.5957C170.882 41.5957 171.165 41.633 171.438 41.7075C171.753 41.7448 172.058 41.8193 172.353 41.9312C172.593 42.0057 172.823 42.1175 173.043 42.2666C173.306 42.3785 173.531 42.5089 173.718 42.658C174.678 43.4408 175.177 44.4844 175.215 45.789C175.286 47.0936 175.131 48.4541 174.749 49.8705C174.689 50.0942 174.628 50.3178 174.568 50.5414C174.518 50.7278 174.446 50.9328 174.354 51.1565C174.221 51.5292 174.088 51.9019 173.955 52.2747C173.822 52.6474 173.688 53.0202 173.555 53.3929C173.493 53.5047 173.425 53.6352 173.352 53.7843C173.312 53.9334 173.277 54.0638 173.247 54.1757L167.979 67.2029H160.808L166.204 54.0638L166.551 52.7779C166.571 52.7033 166.591 52.6288 166.611 52.5542C166.641 52.4424 166.671 52.3306 166.701 52.2188C166.867 51.3615 166.867 50.5787 166.7 49.8705C166.576 49.125 166.042 48.7523 165.099 48.7523H164.953C163.652 48.7523 162.552 49.2741 161.653 50.3178C160.754 51.3615 160.019 52.517 159.45 53.7843C159.295 54.1197 159.155 54.4552 159.032 54.7907C158.919 55.0889 158.806 55.3871 158.694 55.6852L154.076 67.2029H146.905L152.301 54.0638C152.332 53.952 152.362 53.8402 152.392 53.7284C152.432 53.5793 152.484 53.4488 152.546 53.337C152.586 53.1879 152.622 53.0574 152.652 52.9456C152.692 52.7965 152.732 52.6474 152.772 52.4983C152.792 52.4238 152.813 52.3492 152.833 52.2747C152.853 52.2001 152.873 52.1256 152.893 52.051C153.039 51.2683 153.007 50.5414 152.798 49.8705C152.621 49.1996 152.094 48.8641 151.216 48.8641L151.148 48.7523C149.782 48.7523 148.656 49.3114 147.769 50.4296C146.915 51.5478 146.198 52.7592 145.619 54.0638C145.473 54.362 145.349 54.6416 145.246 54.9025C145.143 55.1634 145.04 55.4243 144.937 55.6852L140.223 67.2029H133.149Z" fill="#D9D9D9"/>
<path d="M123.852 63.847C122.958 64.6298 122.056 65.3193 121.147 65.9157C120.281 66.4748 119.434 66.9035 118.606 67.2017C117.982 67.4626 117.363 67.649 116.748 67.7608C116.155 67.9099 115.598 67.9844 115.078 67.9844C112.801 67.9844 111.089 66.978 109.94 64.9652C108.835 62.9152 108.754 60.1383 109.699 56.6345C109.719 56.56 109.739 56.4854 109.759 56.4109C109.822 56.299 109.863 56.2059 109.883 56.1313C109.903 56.0568 109.918 56.0009 109.928 55.9636C109.971 55.9263 110.002 55.8704 110.022 55.7958C110.032 55.7586 110.042 55.7213 110.052 55.684C110.072 55.6095 110.088 55.5536 110.098 55.5163C111.185 52.0871 112.994 48.9934 115.527 46.2351C118.102 43.4395 121.001 41.9113 124.226 41.6504H124.958C126.519 41.6504 127.763 42.0418 128.69 42.8245C129.65 43.6073 130.448 44.6882 131.084 46.0674L132.537 42.4891H139.707L129.63 67.2017H122.557L123.852 63.847ZM119.768 51.4907C119.463 51.9007 119.137 52.3853 118.791 52.9444C118.488 53.4662 118.228 54.0067 118.012 54.5658C117.93 54.7522 117.847 54.9385 117.764 55.1249C117.714 55.3113 117.664 55.4977 117.613 55.684C117.593 55.7586 117.573 55.8331 117.553 55.9077C117.543 55.9449 117.533 55.9822 117.523 56.0195C117.344 56.8022 117.317 57.5664 117.441 58.3118C117.576 59.02 117.87 59.6164 118.325 60.101C118.48 60.2501 118.635 60.3992 118.79 60.5483C118.987 60.6601 119.173 60.7533 119.349 60.8278C119.524 60.9024 119.699 60.9769 119.874 61.0515C120.091 61.0887 120.298 61.1074 120.493 61.1074C121.793 61.1074 123.13 60.4924 124.502 59.2623C125.917 57.995 126.961 56.5972 127.633 55.069C127.716 54.8826 127.782 54.6963 127.832 54.5099C127.925 54.2863 127.997 54.0812 128.047 53.8949C128.067 53.8203 128.082 53.7644 128.092 53.7271C128.112 53.6526 128.132 53.578 128.152 53.5035C128.278 52.7953 128.285 52.1057 128.174 51.4348C128.072 50.7266 127.789 50.1488 127.324 49.7016C127.156 49.4779 126.942 49.3102 126.679 49.1984C126.427 49.0493 126.164 48.9374 125.891 48.8629C125.739 48.8256 125.565 48.807 125.37 48.807C125.217 48.7697 125.06 48.7511 124.897 48.7511C124.052 48.7511 123.157 48.9934 122.213 49.4779C121.302 49.9625 120.487 50.6334 119.768 51.4907Z" fill="#D9D9D9"/>
<path d="M79.2681 67.2028L92.9604 54.2315L89.882 42.4902H98.0771C98.1144 42.7139 98.1516 42.9375 98.1889 43.1612C98.2687 43.3475 98.3273 43.5525 98.3646 43.7762C98.5461 44.6708 98.6952 45.5653 98.8117 46.4599C98.9708 47.3172 99.0549 48.2118 99.0638 49.1436C99.7703 48.2118 100.516 47.3172 101.3 46.4599C102.094 45.5653 102.904 44.6708 103.73 43.7762C103.816 43.7016 103.901 43.6271 103.986 43.5525C104.081 43.4407 104.176 43.3289 104.271 43.2171C104.367 43.1053 104.478 42.9934 104.606 42.8816C104.743 42.7325 104.86 42.6021 104.955 42.4902H113.589L101.906 54.3433L104.731 67.2028H96.1461L95.3822 62.6182C95.3076 62.1709 95.2494 61.7236 95.2074 61.2763C95.1754 60.7917 95.1597 60.3072 95.1603 59.8226C95.0976 59.9344 95.0187 60.0463 94.9235 60.1581C94.8709 60.2326 94.797 60.3258 94.7018 60.4376C94.3961 60.8476 94.0955 61.239 93.7999 61.6118C93.5042 61.9845 93.1761 62.3572 92.8155 62.73L88.6339 67.2028H79.2681Z" fill="#D9D9D9"/>
</svg>
