<svg width="240" height="85" viewBox="0 0 240 85" fill="none" xmlns="http://www.w3.org/2000/svg">
<path d="M72.465 46.592C72.9948 40.7466 67.1081 35.3104 61.1626 34.1997C44.4444 31.1017 32.5533 43.5524 32.5533 43.5524C32.5533 43.5524 39.8528 52.1452 54.9816 54.951C64.8123 56.8215 71.8764 52.4374 72.465 46.592Z" fill="#D9D9D9"/>
<path d="M0 17.9488V67.2257C0.470935 73.8895 5.53348 79.2673 12.0088 80.3194H14.0692C14.0692 80.3779 1.11847 58.9252 18.8962 42.0904C8.59455 30.2826 5.06255 17.7734 4.41501 8.59612C1.88374 10.9927 0.235467 14.2662 0 17.9488ZM61.9279 4.67969H15.9529C17.1302 19.7609 22.1339 30.9256 26.9021 36.128C26.9021 36.128 27.5497 35.8358 28.727 35.1343C28.727 35.1343 44.209 25.7232 60.6917 29.6396C78.234 33.8483 77.7042 52.0276 67.2848 56.4701C57.2774 60.7373 39.8528 57.2885 28.4327 49.0464C28.4327 49.0464 25.195 53.1382 26.961 61.2049C28.7859 69.1547 36.2031 78.9165 52.4503 80.3194H64.1648C70.9934 79.2088 76.2325 73.3049 76.2325 66.232V18.9425C76.2914 11.0512 69.8749 4.67969 61.9279 4.67969Z" fill="#D9D9D9"/>
<path d="M207.563 63.6446V65.9325C206.915 65.441 206.121 65.1953 205.182 65.1953C204.38 65.1953 203.757 65.3563 203.314 65.6782C202.87 65.9833 202.648 66.4239 202.648 67.0001C202.648 68.1186 203.484 68.6779 205.157 68.6779H208.536V63.8225C208.536 61.7719 207.529 60.7467 205.515 60.7467H201.419V58.6113H205.643C207.299 58.6113 208.57 59.0181 209.458 59.8315C210.345 60.645 210.789 61.8143 210.789 63.3396V70.8132H205.08C203.629 70.8132 202.477 70.4912 201.624 69.8472C200.771 69.2032 200.344 68.2627 200.344 67.0255C200.344 65.7884 200.796 64.8478 201.701 64.2039C202.605 63.5599 203.74 63.2379 205.106 63.2379C205.874 63.2379 206.693 63.3734 207.563 63.6446Z" fill="#D9D9D9"/>
<path d="M198.33 70.813H196.077V60.7465H193.978L195.002 58.6112H198.33V70.813ZM195.975 56.0691C195.753 55.781 195.642 55.4675 195.642 55.1285C195.642 54.7896 195.753 54.4846 195.975 54.2134C196.197 53.9253 196.538 53.7812 196.999 53.7812C197.46 53.7812 197.801 53.9253 198.023 54.2134C198.245 54.4846 198.356 54.7896 198.356 55.1285C198.356 55.4675 198.245 55.781 198.023 56.0691C197.801 56.3403 197.46 56.4758 196.999 56.4758C196.538 56.4758 196.197 56.3403 195.975 56.0691Z" fill="#D9D9D9"/>
<path d="M190.651 53.0176H192.955V70.812H186.939C185.079 70.812 183.568 70.2273 182.408 69.058C181.247 67.8717 180.667 66.3803 180.667 64.5839C180.667 62.8214 181.264 61.347 182.459 60.1608C183.671 58.9575 185.104 58.3559 186.76 58.3559C187.818 58.3559 188.808 58.6101 189.729 59.1185V61.4064C188.876 60.7963 187.886 60.4912 186.76 60.4912C185.736 60.4912 184.865 60.8725 184.149 61.6351C183.449 62.3808 183.099 63.3638 183.099 64.5839C183.099 65.8211 183.432 66.8125 184.097 67.5581C184.78 68.3038 185.727 68.6766 186.939 68.6766H190.651V53.0176Z" fill="#D9D9D9"/>
<path d="M175.166 58.3568C178.067 58.4755 179.518 59.6702 179.518 61.9411C179.518 64.7713 177.649 66.1864 173.912 66.1864H172.862V64.229H174.091C175.234 64.229 176.028 64.0595 176.472 63.7206C176.915 63.3647 177.137 62.78 177.137 61.9666C177.137 61.4412 176.941 61.0514 176.549 60.7972C176.156 60.5261 175.653 60.3905 175.038 60.3905C173.826 60.3905 172.871 60.8142 172.171 61.6615C171.488 62.5089 171.147 63.5257 171.147 64.712C171.147 65.9661 171.514 66.9829 172.248 67.7625C172.999 68.542 173.971 68.9318 175.166 68.9318C176.241 68.9318 177.12 68.6691 177.803 68.1438L179.339 69.6436C178.161 70.5926 176.77 71.0671 175.166 71.0671C173.221 71.0671 171.667 70.4994 170.507 69.3639C169.346 68.2285 168.766 66.7626 168.766 64.9662C168.766 62.9664 169.338 61.348 170.481 60.1109C171.625 58.8737 173.186 58.2891 175.166 58.3568Z" fill="#D9D9D9"/>
<path d="M158.375 65.2957H158.529L160.628 57.4408C161.072 55.7461 161.754 54.5852 162.676 53.9581C163.598 53.3311 164.989 53.0176 166.849 53.0176V70.812H164.442V55.7122C163.999 55.8986 163.657 56.1613 163.418 56.5002C163.197 56.8391 162.983 57.3475 162.778 58.0254L159.578 68.9309H157.326L154.1 58.0254C153.895 57.3306 153.682 56.8222 153.46 56.5002C153.238 56.1613 152.905 55.8986 152.462 55.7122V70.812H150.055V53.0176C151.915 53.0176 153.298 53.3396 154.202 53.9836C155.124 54.6106 155.815 55.763 156.276 57.4408L158.375 65.2957Z" fill="#D9D9D9"/>
<path d="M138.972 65.9821V53.0176H141.276V65.9821C141.276 66.5922 141.344 67.0921 141.481 67.4819C141.635 67.8547 141.865 68.1259 142.172 68.2953C142.479 68.4479 142.778 68.5495 143.068 68.6004C143.358 68.6512 143.742 68.6766 144.22 68.6766V70.812C142.309 70.812 140.952 70.4476 140.15 69.7189C139.365 68.9902 138.972 67.7446 138.972 65.9821Z" fill="#D9D9D9"/>
<path d="M133.956 63.6446V65.9325C133.308 65.441 132.514 65.1953 131.575 65.1953C130.773 65.1953 130.15 65.3563 129.707 65.6782C129.263 65.9833 129.041 66.4239 129.041 67.0001C129.041 68.1186 129.877 68.6779 131.55 68.6779H134.929V63.8225C134.929 61.7719 133.922 60.7467 131.908 60.7467H127.812V58.6113H132.036C133.692 58.6113 134.963 59.0181 135.851 59.8315C136.738 60.645 137.182 61.8143 137.182 63.3396V70.8132H131.473C130.022 70.8132 128.87 70.4912 128.017 69.8472C127.164 69.2032 126.737 68.2627 126.737 67.0255C126.737 65.7884 127.189 64.8478 128.094 64.2039C128.998 63.5599 130.133 63.2379 131.499 63.2379C132.267 63.2379 133.086 63.3734 133.956 63.6446Z" fill="#D9D9D9"/>
<path d="M124.723 70.813H122.47V60.7465H120.371L121.395 58.6112H124.723V70.813ZM122.368 56.0691C122.146 55.781 122.035 55.4675 122.035 55.1285C122.035 54.7896 122.146 54.4846 122.368 54.2134C122.59 53.9253 122.931 53.7812 123.392 53.7812C123.853 53.7812 124.194 53.9253 124.416 54.2134C124.638 54.4846 124.749 54.7896 124.749 55.1285C124.749 55.4675 124.638 55.781 124.416 56.0691C124.194 56.3403 123.853 56.4758 123.392 56.4758C122.931 56.4758 122.59 56.3403 122.368 56.0691Z" fill="#D9D9D9"/>
<path d="M118.716 68.1443L120.252 69.6442C119.074 70.5932 117.726 71.0677 116.207 71.0677C114.313 71.0677 112.794 70.4661 111.65 69.2628C110.507 68.0427 109.935 66.5259 109.935 64.7126C109.935 62.9331 110.532 61.4333 111.727 60.2131C112.939 58.976 114.432 58.3574 116.207 58.3574C117.726 58.3574 119.074 58.8319 120.252 59.781L118.741 61.3062C118.025 60.7639 117.18 60.4927 116.207 60.4927C115.029 60.4927 114.091 60.8825 113.391 61.6621C112.708 62.4247 112.367 63.4415 112.367 64.7126C112.367 65.9836 112.708 67.0089 113.391 67.7885C114.091 68.5511 115.029 68.9324 116.207 68.9324C117.197 68.9324 118.033 68.6697 118.716 68.1443Z" fill="#D9D9D9"/>
<path d="M97.9011 60.2131C99.0958 58.976 100.589 58.3574 102.381 58.3574C103.252 58.3574 104.062 58.5269 104.813 58.8658C105.581 59.1878 106.247 59.6369 106.81 60.2131C107.39 60.7893 107.842 61.4672 108.167 62.2468C108.491 63.0094 108.653 63.8313 108.653 64.7126C108.653 65.5938 108.491 66.4242 108.167 67.2038C107.86 67.9664 107.424 68.6358 106.861 69.212C106.298 69.7882 105.632 70.2458 104.864 70.5847C104.096 70.9067 103.269 71.0677 102.381 71.0677C101.477 71.0677 100.64 70.9067 99.8723 70.5847C99.1214 70.2458 98.4643 69.7882 97.9011 69.212C97.3379 68.6358 96.8942 67.9664 96.5699 67.2038C96.2627 66.4242 96.1091 65.5938 96.1091 64.7126C96.1091 62.9162 96.7065 61.4164 97.9011 60.2131ZM102.381 60.4927C101.186 60.4927 100.222 60.8825 99.4883 61.6621C98.7715 62.4417 98.4131 63.4585 98.4131 64.7126C98.4131 65.9666 98.7715 66.9835 99.4883 67.763C100.222 68.5426 101.186 68.9324 102.381 68.9324C103.593 68.9324 104.557 68.5426 105.274 67.763C105.991 66.9665 106.349 65.9497 106.349 64.7126C106.349 63.4754 105.991 62.4671 105.274 61.6875C104.557 60.891 103.593 60.4927 102.381 60.4927Z" fill="#D9D9D9"/>
<path d="M93.91 53.0176V55.2546H89.3788C87.655 55.2546 86.7932 55.9494 86.7932 57.3391C86.7932 58.0847 87.1686 58.7203 87.9196 59.2456C88.6876 59.754 89.7201 60.2455 91.0172 60.72C91.5974 60.9403 92.0924 61.1691 92.502 61.4064C92.9116 61.6267 93.3212 61.9232 93.7308 62.2961C94.1404 62.6689 94.4476 63.1519 94.6524 63.7451C94.8572 64.3213 94.9596 64.9907 94.9596 65.7533C94.9596 66.6006 94.7804 67.3632 94.422 68.0411C94.0636 68.7021 93.6028 69.2274 93.0396 69.6172C92.4764 69.99 91.8961 70.2781 91.2988 70.4815C90.7185 70.6679 90.1468 70.7696 89.5836 70.7866C89.3446 70.8035 89.0033 70.812 88.5596 70.812H84.566V68.575H88.4828C89.6433 68.575 90.5905 68.3377 91.3244 67.8632C92.0582 67.3717 92.4252 66.6599 92.4252 65.7279C92.4252 65.2703 92.3228 64.872 92.118 64.5331C91.9132 64.1772 91.6145 63.8722 91.222 63.618C90.8465 63.3637 90.454 63.1434 90.0444 62.957C89.6518 62.7706 89.174 62.5757 88.6108 62.3723C88.4572 62.3215 88.3377 62.2791 88.2524 62.2452C85.5729 61.2284 84.2332 59.5676 84.2332 57.2628C84.2332 55.8393 84.694 54.7801 85.6156 54.0852C86.5372 53.3735 87.7404 53.0176 89.2252 53.0176H93.91Z" fill="#D9D9D9"/>
<path d="M203.693 21.9415C208.045 22.1195 210.221 23.9116 210.221 27.318C210.221 31.5632 207.418 33.6858 201.811 33.6858H200.237V30.7497H202.08C203.795 30.7497 204.986 30.4955 205.651 29.9871C206.317 29.4533 206.65 28.5763 206.65 27.3561C206.65 26.5681 206.355 25.9834 205.767 25.6021C205.178 25.1953 204.423 24.992 203.501 24.992C201.683 24.992 200.25 25.6275 199.2 26.8985C198.176 28.1696 197.664 29.6948 197.664 31.4742C197.664 33.3553 198.215 34.8806 199.315 36.0499C200.442 37.2193 201.901 37.8039 203.693 37.8039C205.306 37.8039 206.624 37.4099 207.648 36.6219L209.952 38.8716C208.186 40.2952 206.099 41.0069 203.693 41.0069C200.775 41.0069 198.445 40.1553 196.704 38.4522C194.963 36.749 194.093 34.5501 194.093 31.8555C194.093 28.8559 194.951 26.4282 196.666 24.5725C198.381 22.7168 200.723 21.8398 203.693 21.9415Z" fill="#D9D9D9"/>
<path d="M185.855 33.3803V13.9336H189.311V33.3803C189.311 34.2955 189.413 35.0454 189.618 35.63C189.849 36.1893 190.194 36.596 190.655 36.8502C191.116 37.079 191.564 37.2315 191.999 37.3078C192.434 37.3841 193.01 37.4222 193.727 37.4222V40.6252C190.86 40.6252 188.825 40.0786 187.621 38.9856C186.444 37.8925 185.855 36.0241 185.855 33.3803Z" fill="#D9D9D9"/>
<path d="M164.553 49.3194V31.4741C164.553 30.1522 164.797 28.9066 165.283 27.7373C165.769 26.5679 166.435 25.5638 167.28 24.725C168.125 23.8607 169.123 23.187 170.275 22.704C171.427 22.1956 172.656 21.9414 173.961 21.9414C175.267 21.9414 176.483 22.1956 177.609 22.704C178.761 23.187 179.76 23.8607 180.605 24.725C181.475 25.5893 182.153 26.6061 182.64 27.7754C183.126 28.9193 183.369 30.1522 183.369 31.4741C183.369 32.796 183.126 34.0416 182.64 35.2109C182.179 36.3549 181.526 37.359 180.681 38.2233C179.837 39.0876 178.838 39.7739 177.686 40.2823C176.534 40.7653 175.293 41.0068 173.961 41.0068C172.323 41.0068 170.8 40.6255 169.392 39.8629V36.4311C170.646 37.3463 172.131 37.8038 173.846 37.8038C174.768 37.8038 175.6 37.6513 176.342 37.3463C177.11 37.0158 177.75 36.5709 178.262 36.0117C178.8 35.4524 179.209 34.7915 179.491 34.0289C179.773 33.2408 179.913 32.3893 179.913 31.4741C179.913 30.559 179.773 29.7201 179.491 28.9575C179.209 28.1694 178.813 27.4958 178.301 26.9365C177.789 26.3773 177.161 25.9451 176.419 25.6401C175.702 25.3096 174.883 25.1444 173.961 25.1444C173.065 25.1444 172.246 25.2969 171.504 25.602C170.787 25.907 170.16 26.3392 169.622 26.8984C169.11 27.4577 168.713 28.1313 168.432 28.9194C168.15 29.682 168.009 30.5336 168.009 31.4741V49.3194H164.553Z" fill="#D9D9D9"/>
<path d="M137.519 22.3223H154.453C156.271 22.3223 157.717 22.6654 158.793 23.3518C159.893 24.0382 160.61 24.9279 160.943 26.021C161.301 27.114 161.481 28.4232 161.481 29.9484V40.6251H158.101V29.9484C158.101 27.9656 157.5 26.6565 156.297 26.021C155.682 25.6905 154.441 25.5253 152.572 25.5253H150.997V40.6251H147.618V25.5253H140.898V40.6251H137.519V22.3223Z" fill="#D9D9D9"/>
<path d="M129.803 29.8722V33.3039C128.831 32.5668 127.64 32.1982 126.232 32.1982C125.029 32.1982 124.095 32.4396 123.429 32.9226C122.763 33.3802 122.431 34.0411 122.431 34.9054C122.431 36.5832 123.685 37.4221 126.194 37.4221H131.263V30.1391C131.263 27.0632 129.752 25.5253 126.731 25.5253H120.587V22.3223H126.923C129.407 22.3223 131.314 22.9324 132.645 24.1525C133.976 25.3727 134.642 27.1268 134.642 29.4146V40.6251H126.079C123.903 40.6251 122.175 40.1421 120.895 39.1761C119.615 38.2101 118.975 36.7993 118.975 34.9436C118.975 33.0879 119.653 31.677 121.01 30.7111C122.367 29.7451 124.069 29.2621 126.117 29.2621C127.269 29.2621 128.498 29.4654 129.803 29.8722Z" fill="#D9D9D9"/>
<path d="M113.873 22.3223H117.253V22.8561C117.253 26.2879 115.87 29.0333 113.105 31.0924C114.437 32.0583 115.461 33.2658 116.177 34.7148C116.894 36.1383 117.253 37.6509 117.253 39.2524V40.6251H113.873V39.2524C113.873 37.8288 113.528 36.5451 112.837 35.4011C112.145 34.2572 111.121 33.3802 109.765 32.7701C108.433 33.4056 107.409 34.3208 106.693 35.5155C106.001 36.7103 105.656 38.0322 105.656 39.4811V40.6251H102.277V39.4811C102.277 35.9223 103.659 33.126 106.424 31.0924C103.659 29.0333 102.277 26.2116 102.277 22.6273V22.3223H105.656V22.6273C105.656 24.0763 106.001 25.3982 106.693 26.5929C107.409 27.7877 108.433 28.7155 109.765 29.3765C112.504 28.1054 113.873 25.932 113.873 22.8561V22.3223Z" fill="#D9D9D9"/>
<path d="M94.4091 21.9415C98.7611 22.1195 100.937 23.9116 100.937 27.318C100.937 31.5632 98.1339 33.6858 92.5275 33.6858H90.9531V30.7497H92.7963C94.5115 30.7497 95.7019 30.4955 96.3675 29.9871C97.0331 29.4533 97.3659 28.5763 97.3659 27.3561C97.3659 26.5681 97.0715 25.9834 96.4827 25.6021C95.8939 25.1953 95.1387 24.992 94.2171 24.992C92.3995 24.992 90.9659 25.6275 89.9163 26.8985C88.8923 28.1696 88.3803 29.6948 88.3803 31.4742C88.3803 33.3553 88.9307 34.8806 90.0315 36.0499C91.1579 37.2193 92.6171 37.8039 94.4091 37.8039C96.0219 37.8039 97.3403 37.4099 98.3643 36.6219L100.668 38.8716C98.9019 40.2952 96.8155 41.0069 94.4091 41.0069C91.4907 41.0069 89.1611 40.1553 87.4203 38.4522C85.6795 36.749 84.8091 34.5501 84.8091 31.8555C84.8091 28.8559 85.6667 26.4282 87.3819 24.5725C89.0971 22.7168 91.4395 21.8398 94.4091 21.9415Z" fill="#D9D9D9"/>
</svg>
