<svg width="240" height="106" viewBox="0 0 240 106" fill="none" xmlns="http://www.w3.org/2000/svg">
<g clip-path="url(#clip0_2030_14380)">
<path fill-rule="evenodd" clip-rule="evenodd" d="M137.735 3.16797C146.71 3.16805 151.197 7.63837 151.197 16.5789V51.6548C151.197 60.5954 146.71 65.0657 137.735 65.0658H102.524C93.5489 65.0657 89.0614 60.5954 89.0613 51.6548V16.5789C89.0614 7.63837 93.5489 3.16805 102.524 3.16797H137.735ZM105.631 20.709V50.6265H112.88V27.9309H134.627V20.709H105.631ZM117.022 43.4053V50.6265H134.628V43.4053H117.022ZM117.022 32.0571V39.2783H134.628V32.0571H117.022Z" fill="#D9D9D9"/>
<path d="M240.191 89.3364H230.058C230.22 91.583 231.641 92.7063 234.321 92.7063C236.03 92.7063 237.532 92.3034 238.826 91.4974V94.9429C237.39 95.7085 235.524 96.0914 233.229 96.0914C230.72 96.0914 228.774 95.4013 227.388 94.0211C226.003 92.6308 225.31 90.6965 225.31 88.2181C225.31 85.6491 226.058 83.6141 227.555 82.113C229.052 80.6119 230.892 79.8613 233.077 79.8613C235.342 79.8613 237.092 80.5313 238.326 81.8712C239.57 83.2111 240.191 85.0296 240.191 87.3265V89.3364ZM235.747 86.4047C235.747 84.1883 234.847 83.0801 233.046 83.0801C232.278 83.0801 231.61 83.3975 231.044 84.0322C230.488 84.6669 230.149 85.4577 230.028 86.4047H235.747Z" fill="#D9D9D9"/>
<path d="M223.08 95.1544C221.998 95.7791 220.435 96.0914 218.392 96.0914C216.006 96.0914 214.074 95.371 212.597 93.9304C211.121 92.4897 210.383 90.631 210.383 88.3541C210.383 85.7247 211.171 83.6544 212.749 82.1432C214.337 80.622 216.456 79.8613 219.105 79.8613C220.936 79.8613 222.261 80.1031 223.08 80.5867V84.6366C222.079 83.8911 220.961 83.5184 219.727 83.5184C218.352 83.5184 217.26 83.9214 216.451 84.7273C215.652 85.5232 215.252 86.6264 215.252 88.0368C215.252 89.4069 215.636 90.4849 216.405 91.2707C217.174 92.0465 218.23 92.4343 219.576 92.4343C220.769 92.4343 221.937 92.0616 223.08 91.3161V95.1544Z" fill="#D9D9D9"/>
<path d="M207.5 95.7136H202.722V87.115C202.722 84.7172 201.862 83.5184 200.143 83.5184C199.314 83.5184 198.631 83.8357 198.095 84.4704C197.559 85.1051 197.291 85.9111 197.291 86.8883V95.7136H192.497V80.2391H197.291V82.6872H197.352C198.494 80.8033 200.158 79.8613 202.343 79.8613C205.781 79.8613 207.5 81.9871 207.5 86.2385V95.7136Z" fill="#D9D9D9"/>
<path d="M188.705 95.7136H184.169V93.4921H184.108C183.067 95.225 181.524 96.0914 179.482 96.0914C177.975 96.0914 176.786 95.6682 175.917 94.822C175.057 93.9656 174.627 92.8272 174.627 91.4067C174.627 88.4045 176.412 86.6717 179.982 86.2083L184.199 85.6491C184.199 83.9566 183.279 83.1104 181.438 83.1104C179.588 83.1104 177.828 83.6594 176.159 84.7575V81.1609C176.827 80.8184 177.737 80.5162 178.89 80.2542C180.053 79.9923 181.11 79.8613 182.06 79.8613C186.49 79.8613 188.705 82.0626 188.705 86.4652V95.7136ZM184.199 89.4271V88.3844L181.378 88.747C179.82 88.9485 179.042 89.6487 179.042 90.8476C179.042 91.3916 179.229 91.8399 179.603 92.1925C179.987 92.5351 180.503 92.7063 181.15 92.7063C182.05 92.7063 182.784 92.3991 183.35 91.7845C183.916 91.1599 184.199 90.3741 184.199 89.4271Z" fill="#D9D9D9"/>
<path d="M171.973 95.7136H167.194V87.115C167.194 84.7172 166.334 83.5184 164.615 83.5184C163.786 83.5184 163.103 83.8357 162.567 84.4704C162.031 85.1051 161.763 85.9111 161.763 86.8883V95.7136H156.969V80.2391H161.763V82.6872H161.824C162.967 80.8033 164.63 79.8613 166.815 79.8613C170.253 79.8613 171.973 81.9871 171.973 86.2385V95.7136Z" fill="#D9D9D9"/>
<path d="M150.568 77.7902C149.759 77.7902 149.096 77.5535 148.581 77.08C148.065 76.5964 147.807 76.007 147.807 75.3119C147.807 74.5966 148.065 74.0123 148.581 73.5589C149.096 73.1056 149.759 72.8789 150.568 72.8789C151.387 72.8789 152.049 73.1056 152.555 73.5589C153.071 74.0123 153.329 74.5966 153.329 75.3119C153.329 76.0373 153.071 76.6317 152.555 77.0951C152.049 77.5585 151.387 77.7902 150.568 77.7902ZM152.934 95.7128H148.141V80.2383H152.934V95.7128Z" fill="#D9D9D9"/>
<path d="M145.016 78.0174H137.34V83.3367H144.394V87.296H137.34V95.7132H132.44V74.043H145.016V78.0174Z" fill="#D9D9D9"/>
<path d="M120.531 89.3364H110.398C110.56 91.583 111.981 92.7063 114.661 92.7063C116.37 92.7063 117.872 92.3034 119.166 91.4974V94.9429C117.73 95.7085 115.864 96.0914 113.568 96.0914C111.06 96.0914 109.113 95.4013 107.728 94.0211C106.342 92.6308 105.65 90.6965 105.65 88.2181C105.65 85.6491 106.398 83.6141 107.895 82.113C109.392 80.6119 111.232 79.8613 113.417 79.8613C115.682 79.8613 117.432 80.5313 118.665 81.8712C119.909 83.2111 120.531 85.0296 120.531 87.3265V89.3364ZM116.087 86.4047C116.087 84.1883 115.186 83.0801 113.386 83.0801C112.618 83.0801 111.95 83.3975 111.384 84.0322C110.828 84.6669 110.489 85.4577 110.367 86.4047H116.087Z" fill="#D9D9D9"/>
<path d="M102.54 95.7141H97.7461V72.8047H102.54V95.7141Z" fill="#D9D9D9"/>
<path d="M83.3348 93.9153H83.2742V102.831H78.4805V80.2391H83.2742V82.5663H83.3348C84.5181 80.763 86.1817 79.8613 88.3257 79.8613C90.3383 79.8613 91.8907 80.5514 92.9829 81.9316C94.0852 83.3018 94.6364 85.1706 94.6364 87.5381C94.6364 90.1172 93.9942 92.1875 92.7098 93.749C91.4356 95.3106 89.7365 96.0914 87.6128 96.0914C85.7418 96.0914 84.3158 95.366 83.3348 93.9153ZM83.1983 87.5683V88.8075C83.1983 89.8754 83.4815 90.7468 84.0478 91.4218C84.6142 92.0968 85.3575 92.4343 86.2778 92.4343C87.37 92.4343 88.2145 92.0162 88.8112 91.18C89.418 90.3338 89.7214 89.14 89.7214 87.5986C89.7214 84.8784 88.6595 83.5184 86.5357 83.5184C85.5547 83.5184 84.7507 83.8911 84.1237 84.6366C83.5068 85.3721 83.1983 86.3493 83.1983 87.5683Z" fill="#D9D9D9"/>
<path d="M74.688 95.7136H69.9095V86.8883C69.9095 84.6417 69.0802 83.5184 67.4216 83.5184C66.6328 83.5184 65.9906 83.8559 65.495 84.5309C64.9995 85.2059 64.7517 86.0471 64.7517 87.0545V95.7136H59.958V86.7976C59.958 84.6115 59.1439 83.5184 57.5157 83.5184C56.6965 83.5184 56.0391 83.8408 55.5436 84.4855C55.0581 85.1303 54.8154 86.0068 54.8154 87.115V95.7136H50.0217V80.2391H54.8154V82.657H54.8761C55.3716 81.8309 56.0644 81.1609 56.9544 80.6471C57.8545 80.1233 58.8354 79.8613 59.8973 79.8613C62.0919 79.8613 63.5937 80.8234 64.4028 82.7477C65.586 80.8234 67.3255 79.8613 69.6212 79.8613C72.9991 79.8613 74.688 81.9367 74.688 86.0874V95.7136Z" fill="#D9D9D9"/>
<path d="M46.229 95.7136H41.6932V93.4921H41.6326C40.5909 95.225 39.0486 96.0914 37.0057 96.0914C35.4989 96.0914 34.3106 95.6682 33.4408 94.822C32.5812 93.9656 32.1514 92.8272 32.1514 91.4067C32.1514 88.4045 33.9364 86.6717 37.5063 86.2083L41.7236 85.6491C41.7236 83.9566 40.8033 83.1104 38.9627 83.1104C37.1119 83.1104 35.3522 83.6594 33.6835 84.7575V81.1609C34.351 80.8184 35.2612 80.5162 36.4141 80.2542C37.5771 79.9923 38.634 79.8613 39.5846 79.8613C44.0142 79.8613 46.229 82.0626 46.229 86.4652V95.7136ZM41.7236 89.4271V88.3844L38.902 88.747C37.3445 88.9485 36.5658 89.6487 36.5658 90.8476C36.5658 91.3916 36.7529 91.8399 37.1271 92.1925C37.5114 92.5351 38.0272 92.7063 38.6744 92.7063C39.5745 92.7063 40.3077 92.3991 40.8741 91.7845C41.4404 91.1599 41.7236 90.3741 41.7236 89.4271Z" fill="#D9D9D9"/>
<path d="M31.1351 80.2383L26.0077 87.7337L31.1048 95.7127H25.5829L23.3378 91.5419C23.1557 91.2094 22.9383 90.741 22.6855 90.1365H22.6248C22.4731 90.5596 22.2658 91.013 22.0028 91.4966L19.7425 95.7127H14.2358L19.4846 88.0057L14.5544 80.2383H20.1066L22.3214 84.5754C22.6147 85.1496 22.822 85.6332 22.9434 86.0261H23.004C23.1659 85.5526 23.3833 85.0589 23.6563 84.5451L25.9167 80.2383H31.1351Z" fill="#D9D9D9"/>
<path d="M13.1133 95.7132H0.0671387V74.043H12.6126V78.0174H4.96702V82.838H12.0817V86.7973H4.96702V91.754H13.1133V95.7132Z" fill="#D9D9D9"/>
</g>
<defs>
<clipPath id="clip0_2030_14380">
<rect width="240" height="106" fill="white"/>
</clipPath>
</defs>
</svg>
