<svg width="240" height="113" viewBox="0 0 240 113" fill="none" xmlns="http://www.w3.org/2000/svg">
<path d="M112.929 7.21573C116.834 3.31081 123.166 3.31059 127.071 7.21573L148.284 28.4289C152.189 32.3341 152.189 38.6659 148.284 42.5711L141.737 49.1187C143.422 44.5133 142.417 39.1455 138.721 35.4496C133.644 30.3731 125.413 30.3729 120.336 35.4496C115.26 40.5263 115.26 48.7575 120.336 53.8344C124.033 57.5307 129.401 58.5348 134.007 56.8485L127.071 63.7843C123.166 67.6894 116.834 67.6892 112.929 63.7843L91.7158 42.5711C87.8106 38.6658 87.8106 32.3342 91.7158 28.4289L112.929 7.21573ZM137.456 44.9997C137.493 47.0943 136.713 49.2011 135.115 50.7995C131.99 53.9237 126.925 53.9237 123.801 50.7995C122.203 49.2012 121.422 47.0942 121.459 44.9997H137.456Z" fill="#D9D9D9"/>
<path d="M207.022 99.2679C206.261 99.2679 205.719 98.867 205.399 98.0653C205.098 97.2636 204.948 95.9808 204.948 94.217C204.948 91.6114 205.319 89.1361 206.06 86.791C206.241 86.2098 206.531 85.7889 206.932 85.5283C207.353 85.2477 207.934 85.1074 208.676 85.1074C209.077 85.1074 209.357 85.1575 209.518 85.2577C209.678 85.358 209.758 85.5484 209.758 85.829C209.758 86.1497 209.608 86.8712 209.307 87.9936C209.107 88.7954 208.946 89.4969 208.826 90.0982C208.706 90.6794 208.606 91.411 208.525 92.2929C209.067 90.7295 209.708 89.4067 210.45 88.3243C211.211 87.242 211.983 86.4403 212.765 85.9192C213.566 85.378 214.318 85.1074 215.019 85.1074C215.721 85.1074 216.212 85.2678 216.493 85.5885C216.793 85.9091 216.944 86.4002 216.944 87.0616C216.944 87.703 216.753 88.8655 216.372 90.5491C216.212 91.2707 216.102 91.8118 216.042 92.1726C216.703 90.489 217.435 89.116 218.236 88.0538C219.058 86.9915 219.86 86.2399 220.642 85.7989C221.423 85.3379 222.145 85.1074 222.806 85.1074C223.448 85.1074 223.929 85.2778 224.249 85.6185C224.59 85.9392 224.76 86.4202 224.76 87.0616C224.76 87.5827 224.65 88.5649 224.43 90.008C224.229 91.2306 224.069 92.3931 223.949 93.4955C223.828 94.5778 223.768 95.7904 223.768 97.1333C223.768 97.8949 223.608 98.4461 223.287 98.7868C222.987 99.1075 222.485 99.2679 221.784 99.2679C221.123 99.2679 220.642 99.0975 220.341 98.7568C220.04 98.416 219.89 97.9049 219.89 97.2235C219.89 96.4218 220.03 95.0989 220.311 93.2549C220.551 91.6515 220.672 90.6293 220.672 90.1883C220.672 89.8677 220.561 89.7073 220.341 89.7073C220.08 89.7073 219.71 90.048 219.228 90.7295C218.747 91.3909 218.266 92.2728 217.785 93.3752C217.304 94.4776 216.913 95.6401 216.613 96.8627C216.392 97.8248 216.132 98.4662 215.831 98.7868C215.551 99.1075 215.09 99.2679 214.448 99.2679C213.787 99.2679 213.286 98.9572 212.945 98.3359C212.624 97.6945 212.464 96.9228 212.464 96.0209C212.464 95.2593 212.564 94.1569 212.765 92.7138C212.925 91.431 213.005 90.5892 213.005 90.1883C213.005 89.8677 212.895 89.7073 212.674 89.7073C212.374 89.7073 211.993 90.0681 211.532 90.7896C211.071 91.5112 210.62 92.4332 210.179 93.5556C209.758 94.678 209.417 95.7804 209.157 96.8627C208.936 97.8047 208.676 98.4461 208.375 98.7868C208.095 99.1075 207.644 99.2679 207.022 99.2679Z" fill="#D9D9D9"/>
<path d="M194.463 99.2675C193.221 99.2675 192.229 98.8165 191.487 97.9146C190.745 97.0126 190.375 95.8301 190.375 94.3669C190.375 92.7635 190.745 91.2502 191.487 89.8272C192.229 88.3841 193.211 87.2316 194.433 86.3697C195.676 85.4878 196.989 85.0469 198.372 85.0469C198.813 85.0469 199.103 85.1371 199.244 85.3175C199.404 85.4778 199.534 85.7784 199.634 86.2194C200.055 86.1392 200.496 86.0991 200.957 86.0991C201.939 86.0991 202.43 86.4499 202.43 87.1514C202.43 87.5723 202.28 88.5745 201.979 90.1579C201.518 92.4628 201.288 94.0663 201.288 94.9682C201.288 95.2689 201.358 95.5094 201.498 95.6898C201.659 95.8702 201.859 95.9603 202.1 95.9603C202.481 95.9603 202.942 95.7198 203.483 95.2388C204.024 94.7377 204.755 93.936 205.677 92.8336C205.918 92.553 206.189 92.4127 206.489 92.4127C206.75 92.4127 206.95 92.533 207.09 92.7735C207.251 93.014 207.331 93.3447 207.331 93.7656C207.331 94.5674 207.141 95.1887 206.76 95.6296C205.938 96.6518 205.066 97.5137 204.144 98.2152C203.222 98.9167 202.33 99.2675 201.468 99.2675C200.807 99.2675 200.196 99.047 199.634 98.606C199.093 98.145 198.682 97.5237 198.402 96.742C197.36 98.4257 196.047 99.2675 194.463 99.2675ZM195.546 96.2309C195.987 96.2309 196.407 95.9704 196.808 95.4492C197.209 94.9281 197.5 94.2366 197.68 93.3748L198.793 87.8429C197.951 87.8629 197.169 88.1836 196.448 88.805C195.746 89.4063 195.185 90.208 194.764 91.2101C194.343 92.2123 194.133 93.2746 194.133 94.397C194.133 95.0183 194.253 95.4793 194.493 95.78C194.754 96.0806 195.105 96.2309 195.546 96.2309Z" fill="#D9D9D9"/>
<path d="M192.518 92.4131C192.779 92.4131 192.979 92.5334 193.12 92.7739C193.28 93.0144 193.36 93.3451 193.36 93.766C193.36 94.5678 193.17 95.1891 192.789 95.6301C192.047 96.532 190.995 97.3638 189.632 98.1254C188.289 98.8871 186.846 99.2679 185.303 99.2679C183.198 99.2679 181.565 98.6966 180.402 97.5542C179.24 96.4117 178.658 94.8484 178.658 92.8641C178.658 91.4811 178.949 90.1984 179.53 89.0158C180.112 87.8132 180.913 86.8612 181.935 86.1597C182.978 85.4582 184.15 85.1074 185.453 85.1074C186.616 85.1074 187.548 85.4582 188.249 86.1597C188.951 86.8411 189.301 87.7732 189.301 88.9557C189.301 90.3387 188.8 91.5312 187.798 92.5334C186.816 93.5155 185.142 94.2972 182.777 94.8784C183.278 95.8004 184.23 96.2614 185.633 96.2614C186.535 96.2614 187.558 95.9507 188.7 95.3294C189.863 94.688 190.865 93.8562 191.706 92.834C191.947 92.5534 192.218 92.4131 192.518 92.4131ZM184.942 88.0538C184.2 88.0538 183.569 88.4847 183.048 89.3465C182.547 90.2084 182.296 91.2506 182.296 92.4733V92.5334C183.479 92.2528 184.411 91.8319 185.092 91.2707C185.774 90.7095 186.114 90.0581 186.114 89.3165C186.114 88.9357 186.004 88.635 185.784 88.4145C185.583 88.174 185.303 88.0538 184.942 88.0538Z" fill="#D9D9D9"/>
<path d="M167.562 99.2679C166.8 99.2679 166.259 98.867 165.939 98.0653C165.638 97.2636 165.488 95.9808 165.488 94.217C165.488 91.6114 165.858 89.1361 166.6 86.791C166.78 86.2098 167.071 85.7889 167.472 85.5283C167.893 85.2477 168.474 85.1074 169.216 85.1074C169.616 85.1074 169.897 85.1575 170.057 85.2577C170.218 85.358 170.298 85.5484 170.298 85.829C170.298 86.1497 170.148 86.8712 169.847 87.9936C169.646 88.7954 169.486 89.4969 169.366 90.0982C169.246 90.6994 169.145 91.441 169.065 92.3229C169.727 90.5992 170.468 89.1962 171.29 88.1139C172.112 87.0316 172.914 86.2599 173.695 85.7989C174.497 85.3379 175.228 85.1074 175.89 85.1074C177.193 85.1074 177.844 85.7588 177.844 87.0616C177.844 87.3222 177.754 87.9535 177.574 88.9557C177.413 89.7574 177.333 90.2585 177.333 90.4589C177.333 91.1604 177.584 91.5112 178.085 91.5112C178.646 91.5112 179.367 91.0702 180.249 90.1883C180.51 89.9278 180.78 89.7975 181.061 89.7975C181.322 89.7975 181.522 89.9178 181.662 90.1583C181.823 90.3788 181.903 90.6794 181.903 91.0602C181.903 91.8018 181.702 92.3831 181.302 92.804C180.74 93.3852 180.079 93.8863 179.317 94.3072C178.576 94.7081 177.784 94.9085 176.942 94.9085C175.88 94.9085 175.068 94.6379 174.507 94.0968C173.966 93.5556 173.695 92.824 173.695 91.902C173.695 91.6014 173.725 91.3007 173.785 91.0001C173.825 90.5992 173.846 90.3286 173.846 90.1883C173.846 89.8677 173.735 89.7073 173.515 89.7073C173.214 89.7073 172.813 90.048 172.312 90.7295C171.831 91.3909 171.35 92.2728 170.869 93.3752C170.388 94.4776 169.997 95.6401 169.697 96.8627C169.476 97.8047 169.216 98.4461 168.915 98.7868C168.634 99.1075 168.183 99.2679 167.562 99.2679Z" fill="#D9D9D9"/>
<path d="M167.034 92.4131C167.294 92.4131 167.495 92.5334 167.635 92.7739C167.795 93.0144 167.876 93.3451 167.876 93.766C167.876 94.5678 167.685 95.1891 167.304 95.63C166.443 96.6923 165.501 97.5642 164.478 98.2457C163.456 98.9271 162.284 99.2679 160.961 99.2679C156.872 99.2679 154.828 96.3917 154.828 90.6393C154.828 89.7574 154.858 88.8655 154.918 87.9636H153.745C153.144 87.9636 152.733 87.8533 152.513 87.6328C152.312 87.4124 152.212 87.0616 152.212 86.5806C152.212 85.4582 152.663 84.897 153.565 84.897H155.279C155.619 82.6922 156.14 80.6779 156.842 78.854C157.543 77.03 158.385 75.5769 159.367 74.4946C160.369 73.4123 161.442 72.8711 162.584 72.8711C163.426 72.8711 164.087 73.2419 164.568 73.9835C165.05 74.7251 165.29 75.6571 165.29 76.7795C165.29 79.8862 163.987 82.592 161.382 84.897H164.749C165.07 84.897 165.3 84.9671 165.44 85.1074C165.581 85.2477 165.651 85.5083 165.651 85.8891C165.651 87.2721 164.518 87.9636 162.254 87.9636H158.586C158.546 88.9657 158.526 89.7474 158.526 90.3086C158.526 92.3931 158.766 93.8562 159.247 94.698C159.748 95.5399 160.53 95.9608 161.592 95.9608C162.454 95.9608 163.216 95.7002 163.877 95.1791C164.538 94.658 165.32 93.8763 166.222 92.834C166.463 92.5534 166.733 92.4131 167.034 92.4131ZM161.772 75.7573C161.472 75.7573 161.131 76.1381 160.75 76.8998C160.39 77.6414 160.039 78.6836 159.698 80.0265C159.377 81.3493 159.107 82.8225 158.886 84.446C160.069 83.4238 160.951 82.2813 161.532 81.0186C162.133 79.7359 162.434 78.5734 162.434 77.5311C162.434 76.3486 162.213 75.7573 161.772 75.7573Z" fill="#D9D9D9"/>
<path d="M141.461 99.3572C138.795 99.3572 136.66 98.8561 135.057 97.854C133.454 96.8318 132.652 95.2784 132.652 93.194C132.652 92.0916 132.842 91.2498 133.223 90.6685C133.604 90.0873 134.165 89.7966 134.907 89.7966C135.448 89.7966 135.889 89.937 136.23 90.2176C136.57 90.4982 136.741 90.8589 136.741 91.2999C136.741 91.7007 136.711 92.0515 136.65 92.3521C136.65 92.4323 136.63 92.5726 136.59 92.7731C136.57 92.9735 136.56 93.1839 136.56 93.4044C136.56 94.3063 137.011 94.9778 137.913 95.4187C138.835 95.8597 140.118 96.0802 141.761 96.0802C143.465 96.0802 144.798 95.7795 145.76 95.1782C146.722 94.5569 147.203 93.695 147.203 92.5927C147.203 91.9112 146.983 91.3299 146.542 90.8489C146.101 90.3478 145.55 89.937 144.888 89.6163C144.227 89.2755 143.295 88.8646 142.092 88.3836C140.549 87.7823 139.286 87.2111 138.304 86.6699C137.342 86.1288 136.51 85.3972 135.809 84.4752C135.127 83.5332 134.786 82.3707 134.786 80.9877C134.786 79.5446 135.167 78.2618 135.929 77.1394C136.711 76.017 137.823 75.1451 139.266 74.5238C140.729 73.9025 142.443 73.5918 144.407 73.5918C145.87 73.5918 147.213 73.8123 148.436 74.2532C149.658 74.6741 150.631 75.3255 151.352 76.2074C152.094 77.0893 152.464 78.1716 152.464 79.4544C152.464 80.7171 152.274 81.6692 151.893 82.3105C151.512 82.9519 150.951 83.2726 150.21 83.2726C149.688 83.2726 149.248 83.1123 148.887 82.7916C148.546 82.4709 148.376 82.0901 148.376 81.6491C148.376 81.2683 148.406 80.9176 148.466 80.5969C148.526 79.9956 148.556 79.6148 148.556 79.4544C148.556 78.6126 148.145 77.9712 147.323 77.5303C146.502 77.0893 145.479 76.8688 144.257 76.8688C142.533 76.8688 141.21 77.1895 140.288 77.8309C139.386 78.4523 138.935 79.3341 138.935 80.4766C138.935 81.2382 139.166 81.8896 139.627 82.4308C140.108 82.972 140.699 83.4229 141.401 83.7837C142.102 84.1445 143.084 84.5754 144.347 85.0765C145.87 85.6978 147.093 86.259 148.015 86.7601C148.937 87.2612 149.719 87.9427 150.36 88.8045C151.021 89.6664 151.352 90.7287 151.352 91.9914C151.352 94.3565 150.45 96.1804 148.646 97.4631C146.862 98.7259 144.467 99.3572 141.461 99.3572Z" fill="#D9D9D9"/>
<path d="M123.519 93.3151C123.779 93.3151 123.98 93.4353 124.12 93.6758C124.28 93.9164 124.361 94.2471 124.361 94.668C124.361 95.3895 124.19 96.0109 123.85 96.532C123.288 97.3938 122.547 98.0653 121.625 98.5463C120.723 99.0274 119.64 99.2679 118.378 99.2679C116.454 99.2679 114.96 98.6966 113.898 97.5542C112.836 96.3917 112.305 94.8283 112.305 92.8641C112.305 91.4811 112.595 90.1984 113.177 89.0158C113.758 87.8132 114.56 86.8612 115.582 86.1597C116.624 85.4582 117.796 85.1074 119.099 85.1074C120.262 85.1074 121.194 85.4582 121.895 86.1597C122.597 86.8411 122.948 87.7732 122.948 88.9557C122.948 90.3387 122.446 91.5312 121.444 92.5334C120.462 93.5155 118.779 94.2972 116.393 94.8784C116.875 95.8004 117.686 96.2614 118.829 96.2614C119.65 96.2614 120.322 96.071 120.843 95.6902C121.384 95.3094 122.006 94.668 122.707 93.766C122.948 93.4654 123.218 93.3151 123.519 93.3151ZM118.588 88.0538C117.847 88.0538 117.215 88.4847 116.694 89.3465C116.193 90.2084 115.943 91.2506 115.943 92.4733V92.5334C117.125 92.2528 118.057 91.8319 118.739 91.2707C119.42 90.7095 119.761 90.0581 119.761 89.3165C119.761 88.9357 119.65 88.635 119.43 88.4145C119.23 88.174 118.949 88.0538 118.588 88.0538Z" fill="#D9D9D9"/>
<path d="M114.344 92.4118C114.605 92.4118 114.805 92.5321 114.945 92.7726C115.106 93.0131 115.186 93.3438 115.186 93.7647C115.186 94.5665 114.995 95.1878 114.615 95.6288C113.753 96.691 112.811 97.5629 111.788 98.2444C110.786 98.9258 109.644 99.2666 108.361 99.2666C106.597 99.2666 105.284 98.4649 104.423 96.8614C103.581 95.258 103.16 93.1835 103.16 90.638C103.16 88.1928 103.471 85.4068 104.092 82.28C104.733 79.1533 105.665 76.4675 106.888 74.2227C108.131 71.9779 109.604 70.8555 111.307 70.8555C112.27 70.8555 113.021 71.3064 113.562 72.2084C114.124 73.0903 114.404 74.363 114.404 76.0266C114.404 78.4117 113.743 81.1777 112.42 84.3244C111.097 87.4712 109.303 90.5879 107.038 93.6745C107.179 94.4963 107.409 95.0876 107.73 95.4484C108.05 95.7891 108.471 95.9595 108.992 95.9595C109.814 95.9595 110.536 95.729 111.157 95.268C111.778 94.7869 112.57 93.9752 113.532 92.8327C113.773 92.5521 114.043 92.4118 114.344 92.4118ZM110.646 73.8319C110.185 73.8319 109.664 74.6637 109.083 76.3272C108.501 77.9908 107.99 80.0553 107.549 82.5206C107.108 84.9859 106.868 87.3509 106.828 89.6158C108.251 87.2708 109.383 84.9257 110.225 82.5807C111.067 80.2156 111.488 78.061 111.488 76.1168C111.488 74.5935 111.207 73.8319 110.646 73.8319Z" fill="#D9D9D9"/>
<path d="M104.53 92.4119C104.79 92.4119 104.991 92.5321 105.131 92.7727C105.292 93.0132 105.372 93.3439 105.372 93.7648C105.372 94.5665 105.181 95.1879 104.801 95.6288C103.939 96.6911 103.007 97.563 102.004 98.2444C101.022 98.9259 99.9 99.2666 98.6372 99.2666C97.575 99.2666 96.7131 98.8858 96.0517 98.1242C94.9092 98.8658 93.7167 99.2466 92.474 99.2666C92.2134 103.135 91.6222 106.362 90.7002 108.947C89.7782 111.553 88.4253 112.856 86.6414 112.856C85.5591 112.856 84.7574 112.465 84.2363 111.683C83.7152 110.902 83.4546 109.819 83.4546 108.436C83.4546 106.472 83.9056 104.177 84.8075 101.552C85.7094 98.9459 87.1024 96.0697 88.9865 92.923C88.9865 89.9967 88.9664 87.9623 88.9264 86.8199C88.9063 86.2386 89.1368 85.7776 89.6178 85.4369C90.0989 85.0961 90.7002 84.9258 91.4217 84.9258C91.8426 84.9258 92.1433 85.016 92.3237 85.1964C92.5241 85.3567 92.6343 85.6874 92.6544 86.1885C92.6544 86.6896 92.6644 87.0604 92.6844 87.3009C93.3258 86.4992 93.9572 85.9279 94.5785 85.5872C95.1999 85.2264 95.8613 85.046 96.5628 85.046C97.6852 85.046 98.5972 85.497 99.2987 86.3989C100.02 87.3009 100.381 88.4834 100.381 89.9466C100.381 91.0089 100.211 92.0411 99.8699 93.0432C99.5292 94.0454 99.0582 94.9574 98.4569 95.7791C98.8778 95.8994 99.2285 95.9595 99.5091 95.9595C100.171 95.9595 100.802 95.719 101.403 95.238C102.004 94.7569 102.776 93.9552 103.718 92.8328C103.959 92.5522 104.229 92.4119 104.53 92.4119ZM92.6243 96.3804C93.3459 96.2201 94.0073 95.8292 94.6086 95.2079C95.2299 94.5665 95.721 93.7848 96.0817 92.8629C96.4425 91.9208 96.6229 90.9387 96.6229 89.9165C96.6229 89.3152 96.5027 88.8643 96.2621 88.5636C96.0216 88.2429 95.7009 88.0826 95.3001 88.0826C94.5785 88.0826 93.7066 88.8442 92.6844 90.3675C92.6644 91.2494 92.6544 92.5422 92.6544 94.2458C92.6544 95.1678 92.6444 95.8793 92.6243 96.3804ZM86.882 109.91C87.4231 109.91 87.8741 108.727 88.2349 106.362C88.5956 104.017 88.8261 101.091 88.9264 97.583C88.0645 99.5873 87.383 101.501 86.882 103.325C86.3809 105.149 86.1303 106.683 86.1303 107.925C86.1303 108.567 86.2105 109.058 86.3709 109.398C86.5112 109.739 86.6815 109.91 86.882 109.91Z" fill="#D9D9D9"/>
<path d="M68.2373 99.2679C67.4757 99.2679 66.9345 98.867 66.6138 98.0653C66.3132 97.2636 66.1628 95.9808 66.1628 94.217C66.1628 91.6114 66.5336 89.1361 67.2752 86.791C67.4556 86.2098 67.7462 85.7889 68.1471 85.5283C68.568 85.2477 69.1493 85.1074 69.8909 85.1074C70.2917 85.1074 70.5723 85.1575 70.7327 85.2577C70.893 85.358 70.9732 85.5484 70.9732 85.829C70.9732 86.1497 70.8229 86.8712 70.5222 87.9936C70.3218 88.7954 70.1614 89.4969 70.0412 90.0982C69.9209 90.6794 69.8207 91.411 69.7405 92.2929C70.2817 90.7295 70.9231 89.4067 71.6647 88.3243C72.4263 87.242 73.198 86.4403 73.9797 85.9192C74.7814 85.378 75.533 85.1074 76.2345 85.1074C76.936 85.1074 77.4271 85.2678 77.7077 85.5885C78.0083 85.9091 78.1586 86.4002 78.1586 87.0616C78.1586 87.703 77.9682 88.8655 77.5874 90.5491C77.4271 91.2707 77.3168 91.8118 77.2567 92.1726C78.2589 89.7073 79.3713 87.9135 80.5939 86.791C81.8165 85.6686 82.959 85.1074 84.0213 85.1074C85.3241 85.1074 85.9755 85.7588 85.9755 87.0616C85.9755 87.8433 85.755 89.2563 85.314 91.3007C84.9332 93.0445 84.7428 94.197 84.7428 94.7582C84.7428 95.5599 85.0334 95.9608 85.6147 95.9608C86.0155 95.9608 86.4866 95.7202 87.0277 95.2392C87.5889 94.7381 88.3305 93.9364 89.2525 92.834C89.493 92.5534 89.7636 92.4131 90.0642 92.4131C90.3248 92.4131 90.5252 92.5334 90.6655 92.7739C90.8259 93.0144 90.9061 93.3451 90.9061 93.766C90.9061 94.5678 90.7157 95.1891 90.3348 95.6301C89.473 96.6923 88.541 97.5642 87.5388 98.2457C86.5567 98.9271 85.4343 99.2679 84.1716 99.2679C83.1494 99.2679 82.3777 98.9773 81.8566 98.396C81.3355 97.7947 81.0749 96.9329 81.0749 95.8104C81.0749 95.2492 81.2152 94.2471 81.4958 92.804C81.7564 91.5413 81.8867 90.6694 81.8867 90.1883C81.8867 89.8677 81.7764 89.7073 81.556 89.7073C81.2954 89.7073 80.9246 90.048 80.4436 90.7295C79.9625 91.3909 79.4815 92.2728 79.0005 93.3752C78.5194 94.4776 78.1286 95.6401 77.8279 96.8627C77.6075 97.8248 77.3469 98.4662 77.0463 98.7868C76.7656 99.1075 76.3047 99.2679 75.6633 99.2679C75.0019 99.2679 74.5008 98.9572 74.16 98.3359C73.8394 97.6945 73.679 96.9228 73.679 96.0209C73.679 95.2593 73.7792 94.1569 73.9797 92.7138C74.14 91.431 74.2202 90.5892 74.2202 90.1883C74.2202 89.8677 74.1099 89.7073 73.8895 89.7073C73.5888 89.7073 73.208 90.0681 72.747 90.7896C72.286 91.5112 71.835 92.4332 71.3941 93.5556C70.9732 94.678 70.6325 95.7804 70.3719 96.8627C70.1514 97.8047 69.8909 98.4461 69.5902 98.7868C69.3096 99.1075 68.8586 99.2679 68.2373 99.2679Z" fill="#D9D9D9"/>
<path d="M55.6786 99.2675C54.436 99.2675 53.4438 98.8165 52.7022 97.9146C51.9606 97.0126 51.5898 95.8301 51.5898 94.3669C51.5898 92.7635 51.9606 91.2502 52.7022 89.8272C53.4438 88.3841 54.4259 87.2316 55.6486 86.3697C56.8912 85.4878 58.2041 85.0469 59.587 85.0469C60.028 85.0469 60.3186 85.1371 60.4589 85.3175C60.6193 85.4778 60.7495 85.7784 60.8498 86.2194C61.2707 86.1392 61.7116 86.0991 62.1726 86.0991C63.1547 86.0991 63.6458 86.4499 63.6458 87.1514C63.6458 87.5723 63.4955 88.5745 63.1948 90.1579C62.7338 92.4628 62.5033 94.0663 62.5033 94.9682C62.5033 95.2689 62.5735 95.5094 62.7138 95.6898C62.8741 95.8702 63.0745 95.9603 63.3151 95.9603C63.6959 95.9603 64.1569 95.7198 64.698 95.2388C65.2392 94.7377 65.9708 93.936 66.8928 92.8336C67.1333 92.553 67.4039 92.4127 67.7045 92.4127C67.9651 92.4127 68.1655 92.533 68.3058 92.7735C68.4661 93.014 68.5463 93.3447 68.5463 93.7656C68.5463 94.5674 68.3559 95.1887 67.9751 95.6296C67.1533 96.6518 66.2814 97.5137 65.3595 98.2152C64.4375 98.9167 63.5456 99.2675 62.6837 99.2675C62.0223 99.2675 61.411 99.047 60.8498 98.606C60.3086 98.145 59.8977 97.5237 59.6171 96.742C58.5749 98.4257 57.262 99.2675 55.6786 99.2675ZM56.761 96.2309C57.2019 96.2309 57.6228 95.9704 58.0237 95.4492C58.4245 94.9281 58.7152 94.2366 58.8956 93.3748L60.0079 87.8429C59.1661 87.8629 58.3845 88.1836 57.6629 88.805C56.9614 89.4063 56.4002 90.208 55.9793 91.2101C55.5584 92.2123 55.3479 93.2746 55.3479 94.397C55.3479 95.0183 55.4682 95.4793 55.7087 95.78C55.9693 96.0806 56.32 96.2309 56.761 96.2309Z" fill="#D9D9D9"/>
<path d="M53.8588 92.4123C54.1194 92.4123 54.3198 92.5326 54.4601 92.7731C54.6205 93.0136 54.7006 93.3443 54.7006 93.7652C54.7006 94.5669 54.5102 95.1883 54.1294 95.6292C53.2475 96.6715 52.2754 97.5433 51.2131 98.2448C50.1709 98.9263 48.9884 99.267 47.6655 99.267C46.6433 99.267 45.7314 99.0766 44.9296 98.6958C44.148 98.315 43.5266 97.7738 43.0656 97.0723C41.9232 98.5154 40.5703 99.237 39.0069 99.237C37.9045 99.237 37.0326 98.9163 36.3913 98.2749C35.7499 97.6335 35.4292 96.7817 35.4292 95.7194C35.4292 94.7173 35.6597 93.9055 36.1207 93.2842C36.5817 92.6628 37.2331 92.3522 38.0749 92.3522C38.7964 92.3522 39.1572 92.6228 39.1572 93.1639C39.1572 93.3042 39.1372 93.5548 39.0971 93.9155C39.037 94.6371 39.0069 95.048 39.0069 95.1482C39.0069 95.7495 39.2675 96.0501 39.7886 96.0501C40.1694 96.0501 40.5302 95.8297 40.8709 95.3887C41.2317 94.9277 41.5223 94.3064 41.7428 93.5247C41.9833 92.743 42.1036 91.8812 42.1036 90.9391C42.1036 90.2176 42.0134 89.6163 41.833 89.1353C41.6526 88.6342 41.4321 88.3836 41.1715 88.3836C40.9511 88.3836 40.7907 88.4438 40.6905 88.564C40.5903 88.6642 40.4901 88.8446 40.3899 89.1052C40.2696 89.4259 40.1093 89.6864 39.9088 89.8869C39.7084 90.0673 39.3576 90.1575 38.8566 90.1575C38.4156 90.1575 38.0649 90.0071 37.8043 89.7065C37.5437 89.3858 37.4135 88.9048 37.4135 88.2634C37.4135 87.2412 37.7241 86.4395 38.3455 85.8582C38.9668 85.277 39.7685 84.9863 40.7506 84.9863C41.5925 84.9863 42.3541 85.1968 43.0356 85.6177C43.717 86.0185 44.2381 86.6098 44.5989 87.3915C45.2002 86.5898 45.8717 85.9885 46.6133 85.5876C47.3749 85.1868 48.1165 84.9863 48.838 84.9863C49.6197 84.9863 50.211 85.1667 50.6119 85.5275C51.0328 85.8883 51.2432 86.4695 51.2432 87.2712C51.2432 88.1732 51.0728 88.8847 50.7321 89.4058C50.3914 89.9069 49.9805 90.1575 49.4995 90.1575C49.0585 90.1575 48.7579 90.0673 48.5975 89.8869C48.4372 89.7065 48.3169 89.4459 48.2367 89.1052C48.1967 88.8647 48.1365 88.6843 48.0564 88.564C47.9762 88.4438 47.8359 88.3836 47.6355 88.3836C47.3949 88.3836 47.1344 88.6141 46.8538 89.0751C46.5932 89.5161 46.3627 90.1073 46.1623 90.8489C45.9819 91.5905 45.8917 92.3622 45.8917 93.1639C45.8917 94.1059 46.1122 94.8375 46.5531 95.3586C47.0141 95.8597 47.6355 96.1103 48.4171 96.1103C49.1988 96.1103 49.9304 95.8497 50.6119 95.3286C51.3134 94.7874 52.1251 93.9556 53.0471 92.8332C53.2876 92.5526 53.5582 92.4123 53.8588 92.4123Z" fill="#D9D9D9"/>
<path d="M37.0063 93.6461C37.307 93.5259 37.5575 93.4657 37.7579 93.4657C38.0786 93.4657 38.3191 93.586 38.4795 93.8265C38.6398 94.067 38.72 94.3777 38.72 94.7585C38.72 95.3598 38.5697 95.8709 38.269 96.2918C37.9884 96.7127 37.4974 97.0935 36.7959 97.4343C35.6133 97.9955 34.08 98.4464 32.196 98.7872C30.3119 99.1079 28.4579 99.2682 26.634 99.2682C24.1086 99.2682 21.994 98.9876 20.2904 98.4264C18.5867 97.8451 17.314 97.0534 16.4722 96.0513C15.6504 95.0491 15.2395 93.9167 15.2395 92.654C15.2395 90.9303 15.7907 89.4671 16.8931 88.2645C18.0155 87.0419 19.659 86.16 21.8237 85.6188C20.6411 85.2781 19.7292 84.6768 19.0878 83.815C18.4664 82.9531 18.1558 81.991 18.1558 80.9288C18.1558 79.4857 18.6067 78.2129 19.5087 77.1105C20.4307 75.9881 21.6633 75.1263 23.2066 74.525C24.75 73.9237 26.4436 73.623 28.2876 73.623C30.7729 73.623 32.6369 74.1642 33.8796 75.2465C35.1223 76.3088 35.7436 77.6918 35.7436 79.3955C35.7436 80.578 35.5231 81.5401 35.0822 82.2817C34.6613 83.0032 34.05 83.364 33.2482 83.364C32.687 83.364 32.2461 83.2437 31.9254 83.0032C31.6047 82.7427 31.4444 82.3618 31.4444 81.8608C31.4444 81.52 31.4945 81.1492 31.5947 80.7484C31.6949 80.0869 31.745 79.636 31.745 79.3955C31.745 78.6739 31.4744 78.0927 30.9333 77.6517C30.3921 77.1907 29.4902 76.9602 28.2274 76.9602C26.5238 76.9602 25.1608 77.321 24.1386 78.0426C23.1164 78.7641 22.6053 79.7362 22.6053 80.9588C22.6053 81.9009 22.9862 82.6825 23.7478 83.3039C24.5295 83.9052 25.7922 84.2359 27.5359 84.296C27.9769 84.316 28.2876 84.4163 28.468 84.5967C28.6483 84.777 28.7385 85.0777 28.7385 85.4986C28.7385 86.8214 28.1372 87.4929 26.9347 87.5129C25.2711 87.553 23.8881 87.7835 22.7857 88.2044C21.7034 88.6253 20.9117 89.1665 20.4106 89.8279C19.9296 90.4693 19.6891 91.1608 19.6891 91.9024C19.6891 93.145 20.2703 94.0871 21.4328 94.7284C22.5953 95.3498 24.4393 95.6604 26.9647 95.6604C28.6283 95.6604 30.3821 95.47 32.226 95.0892C34.09 94.6884 35.6835 94.2073 37.0063 93.6461Z" fill="#D9D9D9"/>
</svg>
