<svg width="100" height="100" viewBox="0 0 100 100" fill="none" xmlns="http://www.w3.org/2000/svg">
<g clip-path="url(#clip0_2021_5214)">
<path d="M-25 0H125V100H-25V0Z" fill="white"/>
<path d="M-25 0H125V33.3333H-25V0Z" fill="#FF6820"/>
<path d="M-25 66.6667H125V100H-25V66.6667Z" fill="#046A38"/>
<path d="M50.0007 65.4166C58.515 65.4166 65.4173 58.5143 65.4173 49.9999C65.4173 41.4855 58.515 34.5833 50.0007 34.5833C41.4863 34.5833 34.584 41.4855 34.584 49.9999C34.584 58.5143 41.4863 65.4166 50.0007 65.4166Z" fill="#07038D"/>
<path d="M49.9993 63.3332C57.3631 63.3332 63.3327 57.3636 63.3327 49.9998C63.3327 42.636 57.3631 36.6665 49.9993 36.6665C42.6356 36.6665 36.666 42.636 36.666 49.9998C36.666 57.3636 42.6356 63.3332 49.9993 63.3332Z" fill="white"/>
<path d="M50.0007 52.6666C51.4734 52.6666 52.6673 51.4727 52.6673 49.9999C52.6673 48.5272 51.4734 47.3333 50.0007 47.3333C48.5279 47.3333 47.334 48.5272 47.334 49.9999C47.334 51.4727 48.5279 52.6666 50.0007 52.6666Z" fill="#07038D"/>
<path d="M50 36.6667L50.5 44.6901L50 48.6634L49.5 44.6901L50 36.6667Z" fill="#07038D"/>
<path d="M51.6643 37.359C51.9838 37.4011 52.2768 37.1763 52.3188 36.8568C52.3609 36.5374 52.136 36.2444 51.8166 36.2024C51.4972 36.1603 51.2042 36.3852 51.1621 36.7046C51.1201 37.024 51.3449 37.317 51.6643 37.359Z" fill="#07038D"/>
<path d="M50 63.3333L49.5 55.3099L50 51.3366L50.5 55.3099L50 63.3333Z" fill="#07038D"/>
<path d="M48.3357 62.641C48.0162 62.5989 47.7232 62.8237 47.6812 63.1432C47.6391 63.4626 47.864 63.7556 48.1834 63.7976C48.5028 63.8397 48.7958 63.6148 48.8379 63.2954C48.8799 62.976 48.6551 62.683 48.3357 62.641Z" fill="#07038D"/>
<path d="M53.4478 37.115L51.8542 44.9944L50.3428 48.7029L50.8883 44.7355L53.4478 37.115Z" fill="#07038D"/>
<path d="M54.8757 38.2147C55.1733 38.338 55.5145 38.1966 55.6378 37.899C55.7611 37.6013 55.6198 37.2601 55.3221 37.1368C55.0245 37.0135 54.6833 37.1549 54.56 37.4525C54.4367 37.7501 54.578 38.0914 54.8757 38.2147Z" fill="#07038D"/>
<path d="M46.5444 62.873L48.138 54.9937L49.6493 51.2851L49.1039 55.2525L46.5444 62.873Z" fill="#07038D"/>
<path d="M45.1165 61.7734C44.8189 61.6501 44.4776 61.7914 44.3544 62.0891C44.2311 62.3867 44.3724 62.7279 44.6701 62.8512C44.9677 62.9745 45.3089 62.8332 45.4322 62.5355C45.5555 62.2379 45.4142 61.8967 45.1165 61.7734Z" fill="#07038D"/>
<path d="M56.6674 38.4531L53.0887 45.6515L50.6691 48.8425L52.2227 45.1515L56.6674 38.4531Z" fill="#07038D"/>
<path d="M57.7623 39.8849C58.0179 40.0811 58.3841 40.0329 58.5802 39.7773C58.7764 39.5217 58.7281 39.1555 58.4726 38.9594C58.217 38.7632 57.8508 38.8114 57.6547 39.067C57.4585 39.3226 57.5067 39.6888 57.7623 39.8849Z" fill="#07038D"/>
<path d="M43.3346 61.5471L46.9132 54.3487L49.3329 51.1577L47.7792 54.8487L43.3346 61.5471Z" fill="#07038D"/>
<path d="M42.2396 60.1153C41.984 59.9192 41.6178 59.9674 41.4217 60.223C41.2256 60.4786 41.2738 60.8448 41.5294 61.0409C41.785 61.237 42.1512 61.1888 42.3473 60.9332C42.5434 60.6776 42.4952 60.3114 42.2396 60.1153Z" fill="#07038D"/>
<path d="M59.4278 40.5721L54.108 46.599L50.9448 49.055L53.4009 45.8919L59.4278 40.5721Z" fill="#07038D"/>
<path d="M60.1151 42.2384C60.3112 42.494 60.6774 42.5422 60.933 42.3461C61.1886 42.15 61.2368 41.7838 61.0407 41.5282C60.8445 41.2726 60.4783 41.2244 60.2228 41.4205C59.9672 41.6167 59.919 41.9828 60.1151 42.2384Z" fill="#07038D"/>
<path d="M40.5742 59.4282L45.894 53.4013L49.0571 50.9453L46.6011 54.1084L40.5742 59.4282Z" fill="#07038D"/>
<path d="M39.8869 57.7618C39.6908 57.5062 39.3246 57.458 39.069 57.6541C38.8134 57.8502 38.7652 58.2164 38.9613 58.472C39.1574 58.7276 39.5236 58.7758 39.7792 58.5797C40.0348 58.3836 40.083 58.0174 39.8869 57.7618Z" fill="#07038D"/>
<path d="M61.5488 43.3332L54.8504 47.7778L51.1594 49.3315L54.3504 46.9118L61.5488 43.3332Z" fill="#07038D"/>
<path d="M61.7801 45.1206C61.9034 45.4183 62.2447 45.5596 62.5423 45.4363C62.8399 45.3131 62.9813 44.9718 62.858 44.6742C62.7347 44.3765 62.3935 44.2352 62.0958 44.3585C61.7982 44.4818 61.6569 44.823 61.7801 45.1206Z" fill="#07038D"/>
<path d="M38.4531 56.6666L45.1515 52.2219L48.8425 50.6683L45.6515 53.0879L38.4531 56.6666Z" fill="#07038D"/>
<path d="M38.2218 54.8791C38.0985 54.5815 37.7573 54.4401 37.4597 54.5634C37.162 54.6867 37.0207 55.0279 37.144 55.3256C37.2672 55.6232 37.6085 55.7646 37.9061 55.6413C38.2038 55.518 38.3451 55.1768 38.2218 54.8791Z" fill="#07038D"/>
<path d="M62.8794 46.5491L55.2589 49.1087L51.2915 49.6541L55.0001 48.1428L62.8794 46.5491Z" fill="#07038D"/>
<path d="M62.6402 48.3358C62.6822 48.6553 62.9752 48.8801 63.2946 48.8381C63.614 48.796 63.8389 48.503 63.7968 48.1836C63.7548 47.8642 63.4618 47.6393 63.1424 47.6814C62.8229 47.7234 62.5981 48.0164 62.6402 48.3358Z" fill="#07038D"/>
<path d="M37.1206 53.4509L44.7411 50.8913L48.7085 50.3459L44.9999 51.8572L37.1206 53.4509Z" fill="#07038D"/>
<path d="M37.3598 51.6642C37.3178 51.3447 37.0248 51.1199 36.7054 51.1619C36.386 51.204 36.1611 51.497 36.2032 51.8164C36.2452 52.1358 36.5382 52.3607 36.8576 52.3186C37.1771 52.2766 37.4019 51.9836 37.3598 51.6642Z" fill="#07038D"/>
<path d="M63.334 49.9997L55.3107 50.4997L51.3373 49.9998L55.3107 49.4998L63.334 49.9997Z" fill="#07038D"/>
<path d="M62.6422 51.6641C62.6001 51.9835 62.825 52.2765 63.1444 52.3186C63.4638 52.3606 63.7568 52.1358 63.7989 51.8164C63.8409 51.497 63.6161 51.2039 63.2967 51.1619C62.9772 51.1198 62.6842 51.3447 62.6422 51.6641Z" fill="#07038D"/>
<path d="M36.668 50L44.6913 49.5L48.6646 50L44.6913 50.4999L36.668 50Z" fill="#07038D"/>
<path d="M37.3598 48.3356C37.4018 48.0162 37.177 47.7232 36.8576 47.6812C36.5382 47.6391 36.2451 47.864 36.2031 48.1834C36.161 48.5028 36.3859 48.7958 36.7053 48.8379C37.0247 48.8799 37.3177 48.6551 37.3598 48.3356Z" fill="#07038D"/>
<path d="M62.8784 53.4507L54.9991 51.8571L51.2905 50.3458L55.2579 50.8912L62.8784 53.4507Z" fill="#07038D"/>
<path d="M61.779 54.8791C61.6557 55.1767 61.797 55.518 62.0947 55.6412C62.3923 55.7645 62.7336 55.6232 62.8568 55.3256C62.9801 55.0279 62.8388 54.6867 62.5411 54.5634C62.2435 54.4401 61.9023 54.5814 61.779 54.8791Z" fill="#07038D"/>
<path d="M37.1235 46.5493L45.0029 48.1429L48.7114 49.6542L44.7441 49.1088L37.1235 46.5493Z" fill="#07038D"/>
<path d="M38.223 45.1209C38.3463 44.8233 38.2049 44.482 37.9073 44.3588C37.6096 44.2355 37.2684 44.3768 37.1451 44.6744C37.0218 44.9721 37.1632 45.3133 37.4608 45.4366C37.7585 45.5599 38.0997 45.4186 38.223 45.1209Z" fill="#07038D"/>
<path d="M61.5449 56.6667L54.3465 53.088L51.1555 50.6683L54.8465 52.222L61.5449 56.6667Z" fill="#07038D"/>
<path d="M60.1138 57.7616C59.9177 58.0172 59.9659 58.3834 60.2215 58.5795C60.4771 58.7756 60.8433 58.7274 61.0394 58.4718C61.2355 58.2162 61.1873 57.85 60.9317 57.6539C60.6761 57.4578 60.31 57.506 60.1138 57.7616Z" fill="#07038D"/>
<path d="M38.4512 43.3333L45.6496 46.912L48.8406 49.3317L45.1496 47.778L38.4512 43.3333Z" fill="#07038D"/>
<path d="M39.8823 42.2384C40.0784 41.9828 40.0302 41.6166 39.7746 41.4205C39.519 41.2244 39.1528 41.2726 38.9567 41.5282C38.7606 41.7838 38.8088 42.15 39.0644 42.3461C39.3199 42.5422 39.6861 42.494 39.8823 42.2384Z" fill="#07038D"/>
<path d="M59.4257 59.428L53.3988 54.1082L50.9428 50.9451L54.1059 53.4011L59.4257 59.428Z" fill="#07038D"/>
<path d="M57.7606 60.1153C57.505 60.3114 57.4568 60.6776 57.6529 60.9332C57.849 61.1888 58.2152 61.237 58.4708 61.0409C58.7264 60.8448 58.7746 60.4786 58.5785 60.223C58.3824 59.9674 58.0162 59.9192 57.7606 60.1153Z" fill="#07038D"/>
<path d="M40.5723 40.572L46.5992 45.8918L49.0552 49.0549L45.8921 46.5989L40.5723 40.572Z" fill="#07038D"/>
<path d="M42.2375 39.8847C42.4931 39.6886 42.5413 39.3224 42.3451 39.0668C42.149 38.8112 41.7828 38.763 41.5272 38.9591C41.2717 39.1552 41.2234 39.5214 41.4196 39.777C41.6157 40.0326 41.9819 40.0808 42.2375 39.8847Z" fill="#07038D"/>
<path d="M56.6627 61.5474L52.218 54.849L50.6644 51.1579L53.084 54.349L56.6627 61.5474Z" fill="#07038D"/>
<path d="M54.8759 61.7799C54.5783 61.9032 54.4369 62.2444 54.5602 62.5421C54.6835 62.8397 55.0248 62.981 55.3224 62.8578C55.62 62.7345 55.7614 62.3932 55.6381 62.0956C55.5148 61.7979 55.1736 61.6566 54.8759 61.7799Z" fill="#07038D"/>
<path d="M43.3315 38.4534L47.7761 45.1518L49.3298 48.8428L46.9101 45.6518L43.3315 38.4534Z" fill="#07038D"/>
<path d="M45.1182 38.2208C45.4158 38.0976 45.5572 37.7563 45.4339 37.4587C45.3106 37.161 44.9694 37.0197 44.6717 37.143C44.3741 37.2663 44.2328 37.6075 44.356 37.9051C44.4793 38.2028 44.8206 38.3441 45.1182 38.2208Z" fill="#07038D"/>
<path d="M53.4506 62.8792L50.8911 55.2586L50.3457 51.2913L51.857 54.9998L53.4506 62.8792Z" fill="#07038D"/>
<path d="M51.6639 62.6411C51.3445 62.6832 51.1197 62.9762 51.1617 63.2956C51.2038 63.615 51.4968 63.8399 51.8162 63.7978C52.1356 63.7558 52.3604 63.4627 52.3184 63.1433C52.2763 62.8239 51.9833 62.5991 51.6639 62.6411Z" fill="#07038D"/>
<path d="M46.5474 37.1213L49.107 44.7419L49.6524 48.7092L48.141 45.0007L46.5474 37.1213Z" fill="#07038D"/>
<path d="M48.3341 37.3594C48.6535 37.3173 48.8784 37.0243 48.8363 36.7049C48.7943 36.3855 48.5013 36.1606 48.1819 36.2027C47.8624 36.2447 47.6376 36.5377 47.6797 36.8572C47.7217 37.1766 48.0147 37.4014 48.3341 37.3594Z" fill="#07038D"/>
</g>
<defs>
<clipPath id="clip0_2021_5214">
<rect width="100" height="100" rx="50" fill="white"/>
</clipPath>
</defs>
</svg>
