<svg width="100" height="100" viewBox="0 0 100 100" fill="none" xmlns="http://www.w3.org/2000/svg">
<path d="M95 49.9989C95 38.0649 90.2589 26.6197 81.8198 18.1811C73.3807 9.74251 61.9347 5.00175 50 5.00175C38.0653 5.00175 26.6193 9.74251 18.1802 18.1811C9.74106 26.6197 5 38.0649 5 49.9989C5 61.9329 9.74106 73.3781 18.1802 81.8167C26.6193 90.2553 38.0653 94.9961 50 94.9961C61.9347 94.9961 73.3807 90.2553 81.8198 81.8167C90.2589 73.3781 95 61.9329 95 49.9989Z" fill="white"/>
<path d="M49.9997 50L82.416 18.7965C76.0693 12.1914 67.8542 7.68511 58.8728 5.88232C51.7429 4.44948 44.3718 4.76611 37.391 6.80507C30.4102 8.84404 24.0277 12.5446 18.7901 17.5898C14.4319 21.7861 10.9675 26.8206 8.60527 32.3904C6.24308 37.9601 5.03193 43.9501 5.04465 50H49.9956H49.9997Z" fill="#CE1126"/>
<path d="M49.9996 50.0003L82.416 81.212C76.0669 87.8146 67.8505 92.318 58.8687 94.118C51.7388 95.5508 44.3677 95.2342 37.3869 93.1952C30.4061 91.1563 24.0236 87.4557 18.786 82.4105C14.4273 78.2137 10.9626 73.1786 8.60037 67.6081C6.23817 62.0376 5.02727 56.0468 5.04055 49.9962H49.9956L49.9996 50.0003Z" fill="#0038A8"/>
<path d="M83.5939 31.7777L85.218 32.4895L86.343 31.1559L86.1752 32.8617L87.7993 33.5285L86.0934 33.9458L85.9666 35.6557L85.0911 34.1544L83.3852 34.6125L84.5511 33.279L83.5898 31.7777H83.5939ZM63.0084 48.6108L62.0102 50.0261L63.0084 51.4456L61.3843 50.9015L60.382 52.3619V50.652L58.717 50.112L60.3411 49.613V47.8213L61.3843 49.2775L63.0084 48.6108ZM83.5939 68.2786L85.222 67.5668L86.347 68.9004L86.1793 67.1946L87.7625 66.4419L86.0525 66.1106L85.9298 64.4007L85.0543 65.9019L83.3443 65.4847L84.5102 66.7773L83.5939 68.2786Z" fill="#FAD400"/>
<path d="M67.0979 51.0874L67.9903 50.0816L71.6116 50.6623C72.0862 50.7659 71.5601 50.2423 71.4053 50.2423L70.353 50.0246C69.7236 49.8691 69.0942 49.8172 68.4649 49.6617C69.249 49.0811 69.249 49.0811 70.0899 49.2885C70.616 49.3973 70.9875 49.501 71.5085 49.6617C72.143 49.8691 71.9315 49.3455 72.1946 48.8167C72.664 47.9717 71.3537 47.754 70.6676 47.3392C70.0383 46.966 70.0899 46.8105 70.0383 46.121C70.6676 46.6498 71.4053 47.0178 72.0914 47.5466C72.7723 48.0235 73.087 47.8628 72.3493 47.2822C71.5652 46.7016 70.8275 46.1728 70.0899 45.5922L69.8268 44.1718C70.4613 44.1718 71.039 43.8503 71.4569 44.431L73.3501 46.7586C73.4017 46.8105 74.1858 47.2304 73.9279 46.8105L73.3501 45.9655C72.8942 45.3612 72.4556 44.744 72.0346 44.1147C72.9271 44.2184 72.9271 44.2184 73.4533 44.9597C73.6648 45.3848 73.9279 45.8099 74.1909 46.2247C74.454 46.7534 74.7171 46.2765 75.2949 46.0691C75.9191 45.8566 75.8159 45.9655 75.6611 45.3278L75.2381 43.9022C75.0834 43.2179 75.2381 43.166 75.6611 42.5802C75.9242 43.4304 76.0326 44.2184 76.1873 45.0686C76.3472 45.9084 76.7599 45.9655 76.6052 45.0686C76.4968 44.1666 76.3937 43.166 76.2389 42.2692L77.2397 40.9991C77.8174 41.4242 78.2869 41.6315 78.2353 42.321C78.1785 43.2697 78.0238 44.2754 77.9722 45.276C77.9722 45.4367 78.292 46.3854 78.3436 45.8047L78.4984 44.8042C78.6583 44.011 78.7615 43.2697 78.9162 42.5336C79.494 43.2697 79.494 43.3216 79.2876 44.1666C79.1793 44.6954 79.0761 45.0686 78.9162 45.5922C78.7099 46.2247 79.236 46.0173 79.8138 46.2765C80.3916 46.5979 80.1801 46.5979 80.5463 46.0173C80.7016 45.6046 80.954 45.1969 81.2093 44.7845L81.2324 44.7472C81.5987 44.1147 81.7534 44.1666 82.4395 44.1147C82.015 44.8332 81.541 45.5209 81.0209 46.1728C80.4432 46.966 80.7062 47.2822 81.284 46.5461C81.8618 45.7529 82.4911 45.0116 83.0689 44.2703L84.6938 44.0629C84.8022 44.6953 85.0137 45.276 84.4359 45.7011C83.643 46.2872 82.8721 46.9028 82.1249 47.5466C82.0733 47.5984 81.6503 48.3916 82.0733 48.1272L82.9141 47.5466L84.8022 46.2817C84.6474 47.1785 84.6474 47.1785 83.9097 47.5984C83.4919 47.7592 83.0689 48.0754 82.651 48.2879C82.1764 48.656 82.5995 48.8167 82.8058 49.3921C83.0689 50.2423 84.1728 49.5529 84.9105 49.3403C85.5914 49.1329 85.643 49.3403 86.2259 49.7654C85.3799 49.9261 84.5907 50.0298 83.7498 50.1905C82.9141 50.346 82.8574 50.7659 83.7498 50.6052C84.6474 50.4497 85.643 50.3979 86.5355 50.2423L87.7993 51.2429C87.2731 51.7198 87.0616 52.1916 86.3755 52.1397C85.4315 52.0879 84.4359 51.9272 83.4351 51.8753C83.2752 51.8753 82.3312 52.1967 82.9141 52.2486L83.9097 52.4041C84.699 52.5648 85.4315 52.6737 86.1692 52.8292C85.4315 53.3528 85.4315 53.3528 84.3843 53.0936C83.9053 52.9941 83.4318 52.8695 82.9657 52.7203C82.3312 52.5648 82.5427 53.0366 82.2796 53.6172C81.8102 54.4622 83.1205 54.6748 83.8066 55.0999C84.4359 55.4679 84.3843 55.6234 84.4359 56.3129C83.6982 55.7842 83.0689 55.4161 82.3828 54.8873C81.7019 54.3067 81.3356 54.5711 82.1249 55.1517C82.9141 55.7323 83.6466 56.2611 84.3843 56.8417L84.5907 58.4747C83.9613 58.5784 83.3836 58.7961 82.9657 58.2155L81.0725 55.8878C81.0209 55.836 80.2368 55.4161 80.4947 55.836L81.0725 56.681C81.5471 57.3135 81.9649 57.8941 82.3879 58.5317C81.5987 58.4229 81.4955 58.4229 81.0725 57.6867C80.9126 57.2616 80.5979 56.8365 80.3916 56.4218C80.0202 55.8878 79.7571 56.37 79.1793 56.5773C78.55 56.7899 78.6583 56.681 78.8182 57.3135C78.9214 57.8422 79.0245 58.2155 79.1793 58.7391C79.3908 59.4286 79.1793 59.4804 78.7615 60.061C78.6015 59.216 78.4984 58.4229 78.3385 57.5779C78.1785 56.7328 77.7659 56.681 77.9206 57.5779C78.0805 58.4747 78.1321 59.4804 78.2869 60.3773L77.2913 61.6992C76.8167 61.1704 76.3472 60.9579 76.3988 60.2684C76.5587 59.3197 76.6103 58.3192 76.7651 57.3135C76.7651 57.1528 76.4452 56.2611 76.3937 56.7899L76.1873 57.8422C76.0274 58.6354 75.9191 59.3767 75.7643 60.1129C75.1866 59.3197 75.1866 59.3197 75.4032 58.4747C75.5064 57.9511 75.6096 57.5779 75.7643 57.0543C75.8726 56.3648 75.3465 56.5721 74.7687 56.3129C74.1858 55.9449 74.4024 55.9449 74.031 56.5255C73.8247 56.9454 73.5564 57.3705 73.2985 57.7904C72.9271 58.4229 72.7723 58.371 72.0862 58.4229C72.5608 57.6867 73.0354 57.0543 73.5564 56.3648C74.1394 55.5716 73.8763 55.2554 73.2985 55.9967C72.7207 56.681 72.0862 57.4742 71.5085 58.1637L69.9867 58.2155C69.9867 57.5779 69.7752 56.9972 70.353 56.5773C71.1422 55.9449 71.9315 55.3642 72.6692 54.7266C72.7207 54.6748 73.1386 53.8868 72.7207 54.146L71.8799 54.7266L69.9867 55.9967C70.1466 55.0998 70.1466 55.0999 70.8791 54.6748C71.3021 54.5192 71.7251 54.1978 72.1378 53.9905C72.7207 53.6742 72.2977 53.5135 72.0862 52.9329C71.8231 52.0879 70.7244 52.7774 69.9867 52.9847C69.3058 53.1973 69.249 53.0936 68.6712 52.5648C69.5121 52.4041 70.3014 52.2953 71.1422 52.1397C71.9831 51.979 72.0346 51.5643 71.1422 51.7198C70.2498 51.8805 69.249 51.9324 68.3566 52.0879L67.0979 51.0874Z" fill="#FAD400"/>
<g clip-path="url(#clip0_2365_20645)">
<path d="M0 50C0 63.2608 5.26784 75.9785 14.6447 85.3553C24.0215 94.7322 36.7392 100 50 100C63.2608 100 75.9785 94.7322 85.3553 85.3553C94.7322 75.9785 100 63.2608 100 50C100 36.7392 94.7322 24.0215 85.3553 14.6447C75.9785 5.26784 63.2608 0 50 0C36.7392 0 24.0215 5.26784 14.6447 14.6447C5.26784 24.0215 0 36.7392 0 50Z" fill="white"/>
<path d="M50 0C22.5 0 0 22.5 0 50H100C100 22.5 77.5 0 50 0Z" fill="#FF0000"/>
</g>
<defs>
<clipPath id="clip0_2365_20645">
<rect width="100" height="100" fill="white"/>
</clipPath>
</defs>
</svg>
