<svg width="100" height="100" viewBox="0 0 100 100" fill="none" xmlns="http://www.w3.org/2000/svg">
<g clip-path="url(#clip0_2365_20648)">
<path d="M19.4345 83.001C27.7512 90.7141 38.6752 95 50.018 95C61.3609 95 72.2848 90.7141 80.6016 83.001H19.4345ZM80.6016 16.999C72.2848 9.28589 61.3609 5.00002 50.018 5.00002C38.6752 5.00002 27.7512 9.28589 19.4345 16.999L80.6016 16.999Z" fill="#A51931"/>
<path d="M94.9941 49.9999C95.0001 43.8068 93.7174 37.6801 91.2274 32.0096L8.80926 32.0096C6.33274 37.684 5.05446 43.8086 5.05446 49.9999C5.05446 56.1912 6.33274 62.3158 8.80926 67.9902L91.2274 67.9902C93.7174 62.3197 95.0001 56.1931 94.9941 49.9999Z" fill="#2D2A4A"/>
<path d="M80.5458 17L19.4911 17C14.9205 21.2019 11.2817 26.3155 8.80939 32.0106L91.2275 32.0106C88.7553 26.3155 85.1164 21.2019 80.5458 17ZM19.4911 83.002L80.5458 83.002C85.1164 78.8 88.7553 73.6864 91.2275 67.9913L8.80939 67.9913C11.2817 73.6864 14.9205 78.8 19.4911 83.002Z" fill="#F4F5F8"/>
</g>
<g clip-path="url(#clip1_2365_20648)">
<path d="M90 20H50V30H95.8125C94.2684 26.453 92.3178 23.0973 90 20Z" fill="#CC0000"/>
<path d="M99 60C99.6512 56.7061 99.9861 53.3576 100 50H0C0.0139374 53.3576 0.348794 56.7061 1 60H99Z" fill="white"/>
<path d="M50 0V10H80C71.3452 3.50889 60.8185 0 50 0Z" fill="#CC0000"/>
<path d="M50 20H90C87.1858 16.1851 83.8149 12.8142 80 10H50V20ZM95.8125 30H50V40H99C98.2977 36.5624 97.2291 33.2099 95.8125 30Z" fill="white"/>
<path d="M50 40V50H100C99.9861 46.6424 99.6512 43.2939 99 40H50ZM4.1875 70H95.8125C97.2291 66.7901 98.2977 63.4376 99 60H1C1.70234 63.4376 2.77094 66.7901 4.1875 70Z" fill="#CC0000"/>
<path d="M10 80H90C92.3178 76.9027 94.2684 73.547 95.8125 70H4.1875C5.73163 73.547 7.68217 76.9027 10 80Z" fill="white"/>
<path d="M10 80C12.8484 83.7853 16.2147 87.1516 20 90H80C83.7999 87.1684 87.1684 83.7999 90 80H10Z" fill="#CC0000"/>
<path d="M20 90C28.6548 96.4911 39.1815 100 50 100C60.8185 100 71.3452 96.4911 80 90H20Z" fill="white"/>
<path d="M50 0C36.7392 0 24.0215 5.26784 14.6447 14.6447C5.26784 24.0215 0 36.7392 0 50H50V0Z" fill="#000066"/>
<path d="M29.8125 39.3125C27.3261 39.3125 24.9415 38.3248 23.1834 36.5666C21.4252 34.8085 20.4375 32.4239 20.4375 29.9375C20.4375 27.4511 21.4252 25.0665 23.1834 23.3084C24.9415 21.5502 27.3261 20.5625 29.8125 20.5625C31.6697 20.544 33.4853 21.1127 35 22.1875C33.9456 20.9428 32.6344 19.9409 31.1565 19.2505C29.6785 18.5601 28.0687 18.1975 26.4375 18.1875C23.3378 18.1875 20.365 19.4189 18.1732 21.6107C15.9814 23.8025 14.75 26.7753 14.75 29.875C14.75 32.9747 15.9814 35.9475 18.1732 38.1393C20.365 40.3311 23.3378 41.5625 26.4375 41.5625C28.0736 41.5449 29.6864 41.1725 31.1647 40.4712C32.643 39.7698 33.9515 38.7561 35 37.5C33.5082 38.6416 31.6906 39.2767 29.8125 39.3125ZM40 28L41.125 25L40.8125 28.25L43.125 26L41.5 28.75L44.5 27.75L41.875 29.5625L45 30L41.875 30.4375L44.5 32.25L41.5 31.25L43.125 34L40.8125 31.75L41.125 35L40 32L38.875 35L39.1875 31.75L36.875 34L38.5 31.25L35.5 32.25L38.125 30.4375L35 30L38.125 29.5625L35.5 27.75L38.5 28.75L36.875 26L39.1875 28.25L38.875 25L40 28Z" fill="#FFCC00"/>
</g>
<defs>
<clipPath id="clip0_2365_20648">
<rect width="90" height="90" fill="white" transform="matrix(-1 0 0 -1 95 95)"/>
</clipPath>
<clipPath id="clip1_2365_20648">
<rect width="100" height="100" fill="white"/>
</clipPath>
</defs>
</svg>
