<svg width="100" height="100" viewBox="0 0 100 100" fill="none" xmlns="http://www.w3.org/2000/svg">
<g clip-path="url(#clip0_2365_20646)">
<path d="M95 50C95 38.0653 90.2589 26.6193 81.8198 18.1802C73.3807 9.74106 61.9347 5 50 5C38.0653 5 26.6193 9.74106 18.1802 18.1802C9.74106 26.6193 5 38.0653 5 50C5 61.9347 9.74106 73.3807 18.1802 81.8198C26.6193 90.2589 38.0653 95 50 95C61.9347 95 73.3807 90.2589 81.8198 81.8198C90.2589 73.3807 95 61.9347 95 50Z" fill="white"/>
<path d="M50 95C74.75 95 95 74.75 95 50L5 50C5 74.75 25.25 95 50 95Z" fill="#FF0000"/>
</g>
<g clip-path="url(#clip1_2365_20646)">
<path d="M83.9615 13.3322C74.7207 4.76207 62.5829 0 49.9798 0C37.3766 0 25.2388 4.76207 15.998 13.3322H83.9615ZM15.998 86.6678C25.2388 95.2379 37.3766 100 49.9798 100C62.5829 100 74.7207 95.2379 83.9615 86.6678H15.998Z" fill="#A51931"/>
<path d="M0.00685929 49.999C0.000182641 56.8803 1.42548 63.6876 4.19211 69.9883H95.7678C98.5195 63.6833 99.9398 56.8782 99.9398 49.999C99.9398 43.1198 98.5195 36.3147 95.7678 30.0098H4.19211C1.42548 36.3104 0.000182641 43.1177 0.00685929 49.999Z" fill="#2D2A4A"/>
<path d="M16.0605 86.6676H83.899C88.9775 81.9987 93.0206 76.317 95.7676 69.989H4.19189C6.93886 76.317 10.982 81.9987 16.0605 86.6676ZM83.899 13.332H16.0605C10.982 18.0009 6.93886 23.6826 4.19189 30.0106H95.7676C93.0206 23.6826 88.9775 18.0009 83.899 13.332Z" fill="#F4F5F8"/>
</g>
<defs>
<clipPath id="clip0_2365_20646">
<rect width="90" height="90" fill="white" transform="matrix(-1 0 0 -1 95 95)"/>
</clipPath>
<clipPath id="clip1_2365_20646">
<rect width="100" height="100" fill="white"/>
</clipPath>
</defs>
</svg>
