<svg width="32" height="32" viewBox="0 0 32 32" fill="none" xmlns="http://www.w3.org/2000/svg">
<rect width="32" height="32" rx="8" fill="#013089"/>
<path d="M12.4642 24.9491L12.797 22.8355L12.0556 22.8183H8.51562L10.9757 7.22203C10.9831 7.17438 11.0073 7.13094 11.044 7.09964C11.0806 7.06834 11.1273 7.05126 11.1756 7.05152H17.1445C19.1261 7.05152 20.4936 7.4638 21.2076 8.27756C21.5423 8.65931 21.7555 9.05823 21.8585 9.49724C21.9667 9.95788 21.9686 10.5082 21.863 11.1795L21.8554 11.2285V11.6586L22.1901 11.8482C22.4456 11.9776 22.6753 12.1527 22.8678 12.3648C23.1541 12.6912 23.3393 13.106 23.4176 13.5978C23.4984 14.1037 23.4717 14.7055 23.3393 15.387C23.1866 16.1708 22.9397 16.8535 22.6063 17.4121C22.3121 17.9126 21.9165 18.346 21.4449 18.6846C21.002 18.9989 20.4758 19.2375 19.8808 19.3902C19.3042 19.5404 18.6469 19.6161 17.9259 19.6161H17.4614C17.1292 19.6161 16.8066 19.7357 16.5533 19.9501C16.3004 20.1668 16.1326 20.4662 16.0799 20.795L16.0449 20.9853L15.4569 24.7105L15.4302 24.8473C15.4232 24.8906 15.4111 24.9122 15.3933 24.9268C15.376 24.9409 15.3545 24.9488 15.3322 24.9491H12.4642Z" fill="#FEFFFF"/>
<path d="M22.5059 11.2781C22.4881 11.392 22.4677 11.5084 22.4448 11.628C21.6577 15.6688 18.9647 17.0647 15.5252 17.0647H13.774C13.3534 17.0647 12.9989 17.3701 12.9334 17.785L12.0367 23.4704L11.7828 25.0821C11.7727 25.146 11.7766 25.2113 11.7942 25.2736C11.8117 25.3359 11.8426 25.3937 11.8846 25.4429C11.9267 25.4921 11.9789 25.5316 12.0376 25.5587C12.0964 25.5859 12.1604 25.5999 12.2251 25.6H15.3311C15.6989 25.6 16.0114 25.3327 16.0693 24.9701L16.0998 24.8123L16.6846 21.1017L16.7222 20.8981C16.7794 20.5342 17.0925 20.2669 17.4603 20.2669H17.9249C20.9342 20.2669 23.2899 19.0454 23.9784 15.5104C24.2661 14.0337 24.1172 12.8006 23.3561 11.9334C23.1149 11.6651 22.8268 11.4431 22.5059 11.2781Z" fill="#7590BD"/>
<path d="M21.6827 10.9497C21.4314 10.877 21.1757 10.8203 20.9172 10.7798C20.4064 10.7013 19.8902 10.6637 19.3734 10.6672H14.695C14.517 10.6671 14.3447 10.7306 14.2095 10.8464C14.0742 10.9621 13.9848 11.1225 13.9575 11.2984L12.9622 17.601L12.9336 17.7849C12.9646 17.5843 13.0664 17.4013 13.2206 17.2692C13.3748 17.1371 13.5712 17.0646 13.7742 17.0647H15.5254C18.9649 17.0647 21.6579 15.6681 22.4451 11.6279C22.4686 11.5083 22.4883 11.3919 22.5062 11.278C22.2984 11.1691 22.082 11.0778 21.859 11.0051C21.8005 10.9857 21.7418 10.9672 21.6827 10.9497Z" fill="#AFC2D9"/>
<path d="M13.9576 11.2984C13.9847 11.1224 14.0741 10.962 14.2094 10.8463C14.3447 10.7306 14.5171 10.6673 14.6952 10.6678H19.3736C19.9278 10.6678 20.4452 10.7041 20.9174 10.7805C21.2369 10.8307 21.552 10.9058 21.8598 11.005C22.0921 11.082 22.3078 11.173 22.5069 11.278C22.7411 9.78473 22.505 8.76801 21.6975 7.84736C20.8073 6.83382 19.2005 6.3999 17.1445 6.3999H11.1755C10.7555 6.3999 10.3973 6.7053 10.3324 7.12077L7.84615 22.8774C7.83457 22.9505 7.83898 23.0253 7.85906 23.0966C7.87915 23.1679 7.91445 23.234 7.96252 23.2903C8.0106 23.3467 8.07031 23.392 8.13755 23.423C8.20479 23.4541 8.27797 23.4703 8.35205 23.4704H12.0371L12.9624 17.601L13.9576 11.2984Z" fill="#FEFFFF"/>
</svg>
