<svg width="100" height="100" viewBox="0 0 100 100" fill="none" xmlns="http://www.w3.org/2000/svg">
<g clip-path="url(#clip0_2365_20559)">
<path d="M-10 0H190V50L21.1111 98.8889L-10 0Z" fill="#0038A8"/>
<path d="M21.1111 50H190V100H-10L21.1111 50Z" fill="#CE1126"/>
<path d="M76.6022 50L-10 100V0L76.6022 50Z" fill="white"/>
<path d="M21.1113 60C26.6342 60 31.1113 55.5228 31.1113 50C31.1113 44.4772 26.6342 40 21.1113 40C15.5885 40 11.1113 44.4772 11.1113 50C11.1113 55.5228 15.5885 60 21.1113 60Z" fill="#FCD116"/>
<path d="M21.1113 49.9998L17.5957 32.3231L18.6457 31.272L21.1113 49.9998ZM21.1113 49.9998L19.8124 30.1876L21.1113 28.8887L22.4101 30.1876L21.1113 49.9998ZM21.1113 49.9998L23.5768 31.272L24.6268 32.3231L21.1113 49.9998Z" fill="#FCD116"/>
<path d="M21.1114 50.0002L24.627 67.6769L23.577 68.728L21.1114 50.0002ZM21.1114 50.0002L22.4103 69.8124L21.1114 71.1113L19.8125 69.8124L21.1114 50.0002ZM21.1114 50.0002L18.6458 68.728L17.5958 67.6769L21.1114 50.0002Z" fill="#FCD116"/>
<path d="M21.1111 49.9999L38.7877 46.4844L39.8388 47.5344L21.1111 49.9999ZM21.1111 49.9999L40.9233 48.701L42.2222 49.9999L40.9233 51.2988L21.1111 49.9999ZM21.1111 49.9999L39.8388 52.4655L38.7877 53.5155L21.1111 49.9999Z" fill="#FCD116"/>
<path d="M21.1111 50.0001L3.43444 53.5156L2.38333 52.4656L21.1111 50.0001ZM21.1111 50.0001L1.29889 51.299L0 50.0001L1.29889 48.7012L21.1111 50.0001ZM21.1111 50.0001L2.38333 47.5345L3.43444 46.4845L21.1111 50.0001Z" fill="#FCD116"/>
<path d="M21.1113 49.9996L31.1247 35.0145L32.6104 35.0137L21.1113 49.9996ZM21.1113 49.9996L34.2022 35.0718L36.0391 35.0718L36.0391 36.9087L21.1113 49.9996ZM21.1113 49.9996L36.0972 38.5005L36.0965 39.9862L21.1113 49.9996Z" fill="#FCD116"/>
<path d="M21.1114 50.0004L11.098 64.9855L9.61224 64.9863L21.1114 50.0004ZM21.1114 50.0004L8.02047 64.9282L6.18356 64.9282L6.18356 63.0913L21.1114 50.0004ZM21.1114 50.0004L6.12542 61.4995L6.12621 60.0138L21.1114 50.0004Z" fill="#FCD116"/>
<path d="M21.1112 49.9995L36.0964 60.0129L36.0972 61.4986L21.1112 49.9995ZM21.1112 49.9995L36.039 63.0904L36.039 64.9273L34.2021 64.9273L21.1112 49.9995ZM21.1112 49.9995L32.6103 64.9854L31.1246 64.9846L21.1112 49.9995Z" fill="#FCD116"/>
<path d="M21.1114 50.0005L6.12627 39.9871L6.12549 38.5014L21.1114 50.0005ZM21.1114 50.0005L6.18363 36.9096L6.18363 35.0727L8.02053 35.0727L21.1114 50.0005ZM21.1114 50.0005L9.61231 35.0146L11.098 35.0154L21.1114 50.0005Z" fill="#FCD116"/>
<path d="M66.6023 50.0001L62.8445 51.3068L62.7634 55.2835L60.36 52.1135L56.5522 53.2657L58.8245 50.0001L56.5522 46.7346L60.36 47.8868L62.7634 44.7168L62.8445 48.6935L66.6023 50.0001Z" fill="#FCD116"/>
<path d="M-4.99943 91.3392L-4.25215 87.4316L-7.65548 85.373L-3.70852 84.8766L-2.80248 81.0029L-1.11054 84.6035L2.85363 84.2685L-0.0481166 86.99L1.49552 90.6563L-1.98893 88.7382L-4.99943 91.3392Z" fill="#FCD116"/>
<path d="M-4.9993 8.66064L-1.98881 11.2616L1.49564 9.34355L-0.0479936 13.0099L2.85375 15.7314L-1.11042 15.3964L-2.80236 18.997L-3.70839 15.1232L-7.65536 14.6269L-4.25202 12.5683L-4.9993 8.66064Z" fill="#FCD116"/>
</g>
<defs>
<clipPath id="clip0_2365_20559">
<rect width="100" height="100" rx="50" fill="white"/>
</clipPath>
</defs>
</svg>
