<svg width="100" height="100" viewBox="0 0 100 100" fill="none" xmlns="http://www.w3.org/2000/svg">
<g clip-path="url(#clip0_2021_5213)">
<path d="M-25 0H165V100H-25" fill="#B22234"/>
<path d="M-25 11.5386H165ZM165 26.9232H-25ZM-25 42.3078H165ZM165 57.6924H-25ZM-25 73.077H165ZM165 88.4616H-25Z" fill="black"/>
<path d="M164.998 84.7115V92.2107H-25V84.7115H164.998ZM164.998 69.3266V76.8258H-25V69.3266H164.998ZM164.998 53.9416V61.4408H-25V53.9416H164.998ZM164.998 38.5567V46.0559H-25V38.5567H164.998ZM164.998 23.1718V30.675H-25V23.1718H164.998ZM164.998 7.78687V15.2901H-25V7.78687H164.998Z" fill="white"/>
<path d="M-25 0H51V53.8462H-25" fill="#3C3B6E"/>
<path d="M0.332558 7.69214L2.14112 13.2583L-2.59375 9.81824H3.25889L-1.47601 13.2583L0.332558 7.69214Z" fill="white"/>
<path d="M0.332558 18.4614L2.14112 24.0276L-2.59375 20.5875H3.25889L-1.47601 24.0276L0.332558 18.4614Z" fill="white"/>
<path d="M0.332558 29.2307L2.14112 34.7969L-2.59375 31.3568H3.25889L-1.47601 34.7969L0.332558 29.2307Z" fill="white"/>
<path d="M0.332558 39.9998L2.14112 45.566L-2.59375 42.1259H3.25889L-1.47601 45.566L0.332558 39.9998Z" fill="white"/>
<path d="M6.66654 2.30762L8.47511 7.87382L3.74023 4.43372H9.59288L4.85798 7.87382L6.66654 2.30762Z" fill="white"/>
<path d="M6.66654 13.0769L8.47511 18.6431L3.74023 15.203H9.59288L4.85798 18.6431L6.66654 13.0769Z" fill="white"/>
<path d="M6.66654 23.8462L8.47511 29.4124L3.74023 25.9723H9.59288L4.85798 29.4124L6.66654 23.8462Z" fill="white"/>
<path d="M6.66654 34.6152L8.47511 40.1814L3.74023 36.7413H9.59288L4.85798 40.1814L6.66654 34.6152Z" fill="white"/>
<path d="M6.66654 45.3845L8.47511 50.9507L3.74023 47.5106H9.59288L4.85798 50.9507L6.66654 45.3845Z" fill="white"/>
<path d="M13.0005 7.69214L14.8091 13.2583L10.0742 9.81824H15.9269L11.192 13.2583L13.0005 7.69214Z" fill="white"/>
<path d="M13.0005 18.4614L14.8091 24.0276L10.0742 20.5875H15.9269L11.192 24.0276L13.0005 18.4614Z" fill="white"/>
<path d="M13.0005 29.2307L14.8091 34.7969L10.0742 31.3568H15.9269L11.192 34.7969L13.0005 29.2307Z" fill="white"/>
<path d="M13.0005 39.9998L14.8091 45.566L10.0742 42.1259H15.9269L11.192 45.566L13.0005 39.9998Z" fill="white"/>
<path d="M19.3326 2.30762L21.1411 7.87382L16.4062 4.43372H22.2589L17.524 7.87382L19.3326 2.30762Z" fill="white"/>
<path d="M19.3326 13.0769L21.1411 18.6431L16.4062 15.203H22.2589L17.524 18.6431L19.3326 13.0769Z" fill="white"/>
<path d="M19.3326 23.8462L21.1411 29.4124L16.4062 25.9723H22.2589L17.524 29.4124L19.3326 23.8462Z" fill="white"/>
<path d="M19.3326 34.6152L21.1411 40.1814L16.4062 36.7413H22.2589L17.524 40.1814L19.3326 34.6152Z" fill="white"/>
<path d="M19.3326 45.3845L21.1411 50.9507L16.4062 47.5106H22.2589L17.524 50.9507L19.3326 45.3845Z" fill="white"/>
<path d="M25.6665 7.69214L27.4751 13.2583L22.7402 9.81824H28.5929L23.858 13.2583L25.6665 7.69214Z" fill="white"/>
<path d="M25.6665 18.4614L27.4751 24.0276L22.7402 20.5875H28.5929L23.858 24.0276L25.6665 18.4614Z" fill="white"/>
<path d="M25.6665 29.2307L27.4751 34.7969L22.7402 31.3568H28.5929L23.858 34.7969L25.6665 29.2307Z" fill="white"/>
<path d="M25.6665 39.9998L27.4751 45.566L22.7402 42.1259H28.5929L23.858 45.566L25.6665 39.9998Z" fill="white"/>
<path d="M31.9986 2.30762L33.8071 7.87382L29.0723 4.43372H34.9249L30.19 7.87382L31.9986 2.30762Z" fill="white"/>
<path d="M31.9986 13.0769L33.8071 18.6431L29.0723 15.203H34.9249L30.19 18.6431L31.9986 13.0769Z" fill="white"/>
<path d="M31.9986 23.8462L33.8071 29.4124L29.0723 25.9723H34.9249L30.19 29.4124L31.9986 23.8462Z" fill="white"/>
<path d="M31.9986 34.6152L33.8071 40.1814L29.0723 36.7413H34.9249L30.19 40.1814L31.9986 34.6152Z" fill="white"/>
<path d="M31.9986 45.3845L33.8071 50.9507L29.0723 47.5106H34.9249L30.19 50.9507L31.9986 45.3845Z" fill="white"/>
<path d="M38.3326 7.69214L40.1411 13.2583L35.4062 9.81824H41.2589L36.524 13.2583L38.3326 7.69214Z" fill="white"/>
<path d="M38.3326 18.4614L40.1411 24.0276L35.4062 20.5875H41.2589L36.524 24.0276L38.3326 18.4614Z" fill="white"/>
<path d="M38.3326 29.2307L40.1411 34.7969L35.4062 31.3568H41.2589L36.524 34.7969L38.3326 29.2307Z" fill="white"/>
<path d="M38.3326 39.9998L40.1411 45.566L35.4062 42.1259H41.2589L36.524 45.566L38.3326 39.9998Z" fill="white"/>
<path d="M44.6665 2.30762L46.4751 7.87382L41.7402 4.43372H47.5929L42.858 7.87382L44.6665 2.30762Z" fill="white"/>
<path d="M44.6665 13.0769L46.4751 18.6431L41.7402 15.203H47.5929L42.858 18.6431L44.6665 13.0769Z" fill="white"/>
<path d="M44.6665 23.8462L46.4751 29.4124L41.7402 25.9723H47.5929L42.858 29.4124L44.6665 23.8462Z" fill="white"/>
<path d="M44.6665 34.6152L46.4751 40.1814L41.7402 36.7413H47.5929L42.858 40.1814L44.6665 34.6152Z" fill="white"/>
<path d="M44.6665 45.3845L46.4751 50.9507L41.7402 47.5106H47.5929L42.858 50.9507L44.6665 45.3845Z" fill="white"/>
</g>
<defs>
<clipPath id="clip0_2021_5213">
<rect width="100" height="100" rx="50" fill="white"/>
</clipPath>
</defs>
</svg>
