<svg width="30" height="20" viewBox="0 0 30 20" fill="none" xmlns="http://www.w3.org/2000/svg">
<g clip-path="url(#clip0_4289_15914)">
<path d="M0 0H30V20H0" fill="#B31942"/>
<path d="M0 2.30762H30H0ZM30 5.38454H0H30ZM0 8.46146H30H0ZM30 11.5384H0H30ZM0 14.6153H30H0ZM30 17.6922H0H30Z" fill="black"/>
<path d="M30 16.9424V18.4424H0V16.9424H30ZM30 13.8652V15.3652H0V13.8652H30ZM30 10.7881V12.2881H0V10.7881H30ZM30 7.71191V9.21191H0V7.71191H30ZM30 4.63477V6.13477H0V4.63477H30ZM30 1.55762V3.05762H0V1.55762H30Z" fill="white"/>
<path d="M0 0H12V10.7692H0" fill="#0A3161"/>
<path d="M0.999158 0.461426L1.28472 1.57467L0.537109 0.886646H1.46121L0.713595 1.57467L0.999158 0.461426Z" fill="white"/>
<path d="M0.999158 2.61523L1.28472 3.72848L0.537109 3.04045H1.46121L0.713595 3.72848L0.999158 2.61523Z" fill="white"/>
<path d="M0.999158 4.76904L1.28472 5.88228L0.537109 5.19426H1.46121L0.713595 5.88228L0.999158 4.76904Z" fill="white"/>
<path d="M0.999158 6.92285L1.28472 8.03609L0.537109 7.34807H1.46121L0.713595 8.03609L0.999158 6.92285Z" fill="white"/>
<path d="M0.999158 9.0769L1.28472 10.1901L0.537109 9.50212H1.46121L0.713595 10.1901L0.999158 9.0769Z" fill="white"/>
<path d="M1.99916 1.53833L2.28472 2.65157L1.53711 1.96355H2.46121L1.7136 2.65157L1.99916 1.53833Z" fill="white"/>
<path d="M1.99916 3.69214L2.28472 4.80538L1.53711 4.11736H2.46121L1.7136 4.80538L1.99916 3.69214Z" fill="white"/>
<path d="M1.99916 5.84595L2.28472 6.95919L1.53711 6.27117H2.46121L1.7136 6.95919L1.99916 5.84595Z" fill="white"/>
<path d="M1.99916 7.99976L2.28472 9.113L1.53711 8.42498H2.46121L1.7136 9.113L1.99916 7.99976Z" fill="white"/>
<path d="M2.99916 0.461426L3.28472 1.57467L2.53711 0.886646H3.46121L2.7136 1.57467L2.99916 0.461426Z" fill="white"/>
<path d="M2.99916 2.61523L3.28472 3.72848L2.53711 3.04045H3.46121L2.7136 3.72848L2.99916 2.61523Z" fill="white"/>
<path d="M2.99916 4.76904L3.28472 5.88228L2.53711 5.19426H3.46121L2.7136 5.88228L2.99916 4.76904Z" fill="white"/>
<path d="M2.99916 6.92285L3.28472 8.03609L2.53711 7.34807H3.46121L2.7136 8.03609L2.99916 6.92285Z" fill="white"/>
<path d="M2.99916 9.0769L3.28472 10.1901L2.53711 9.50212H3.46121L2.7136 10.1901L2.99916 9.0769Z" fill="white"/>
<path d="M3.99916 1.53833L4.28472 2.65157L3.53711 1.96355H4.46121L3.7136 2.65157L3.99916 1.53833Z" fill="white"/>
<path d="M3.99916 3.69214L4.28472 4.80538L3.53711 4.11736H4.46121L3.7136 4.80538L3.99916 3.69214Z" fill="white"/>
<path d="M3.99916 5.84595L4.28472 6.95919L3.53711 6.27117H4.46121L3.7136 6.95919L3.99916 5.84595Z" fill="white"/>
<path d="M3.99916 7.99976L4.28472 9.113L3.53711 8.42498H4.46121L3.7136 9.113L3.99916 7.99976Z" fill="white"/>
<path d="M4.99916 0.461426L5.28472 1.57467L4.53711 0.886646H5.46121L4.7136 1.57467L4.99916 0.461426Z" fill="white"/>
<path d="M4.99916 2.61523L5.28472 3.72848L4.53711 3.04045H5.46121L4.7136 3.72848L4.99916 2.61523Z" fill="white"/>
<path d="M4.99916 4.76904L5.28472 5.88228L4.53711 5.19426H5.46121L4.7136 5.88228L4.99916 4.76904Z" fill="white"/>
<path d="M4.99916 6.92285L5.28472 8.03609L4.53711 7.34807H5.46121L4.7136 8.03609L4.99916 6.92285Z" fill="white"/>
<path d="M4.99916 9.0769L5.28472 10.1901L4.53711 9.50212H5.46121L4.7136 10.1901L4.99916 9.0769Z" fill="white"/>
<path d="M5.99916 1.53833L6.28472 2.65157L5.53711 1.96355H6.46121L5.7136 2.65157L5.99916 1.53833Z" fill="white"/>
<path d="M5.99916 3.69214L6.28472 4.80538L5.53711 4.11736H6.46121L5.7136 4.80538L5.99916 3.69214Z" fill="white"/>
<path d="M5.99916 5.84595L6.28472 6.95919L5.53711 6.27117H6.46121L5.7136 6.95919L5.99916 5.84595Z" fill="white"/>
<path d="M5.99916 7.99976L6.28472 9.113L5.53711 8.42498H6.46121L5.7136 9.113L5.99916 7.99976Z" fill="white"/>
<path d="M6.99916 0.461426L7.28472 1.57467L6.53711 0.886646H7.46121L6.7136 1.57467L6.99916 0.461426Z" fill="white"/>
<path d="M6.99916 2.61523L7.28472 3.72848L6.53711 3.04045H7.46121L6.7136 3.72848L6.99916 2.61523Z" fill="white"/>
<path d="M6.99916 4.76904L7.28472 5.88228L6.53711 5.19426H7.46121L6.7136 5.88228L6.99916 4.76904Z" fill="white"/>
<path d="M6.99916 6.92285L7.28472 8.03609L6.53711 7.34807H7.46121L6.7136 8.03609L6.99916 6.92285Z" fill="white"/>
<path d="M6.99916 9.0769L7.28472 10.1901L6.53711 9.50212H7.46121L6.7136 10.1901L6.99916 9.0769Z" fill="white"/>
<path d="M7.99916 1.53833L8.28472 2.65157L7.53711 1.96355H8.46121L7.7136 2.65157L7.99916 1.53833Z" fill="white"/>
<path d="M7.99916 3.69214L8.28472 4.80538L7.53711 4.11736H8.46121L7.7136 4.80538L7.99916 3.69214Z" fill="white"/>
<path d="M7.99916 5.84595L8.28472 6.95919L7.53711 6.27117H8.46121L7.7136 6.95919L7.99916 5.84595Z" fill="white"/>
<path d="M7.99916 7.99976L8.28472 9.113L7.53711 8.42498H8.46121L7.7136 9.113L7.99916 7.99976Z" fill="white"/>
<path d="M8.99916 0.461426L9.28472 1.57467L8.53711 0.886646H9.46121L8.7136 1.57467L8.99916 0.461426Z" fill="white"/>
<path d="M8.99916 2.61523L9.28472 3.72848L8.53711 3.04045H9.46121L8.7136 3.72848L8.99916 2.61523Z" fill="white"/>
<path d="M8.99916 4.76904L9.28472 5.88228L8.53711 5.19426H9.46121L8.7136 5.88228L8.99916 4.76904Z" fill="white"/>
<path d="M8.99916 6.92285L9.28472 8.03609L8.53711 7.34807H9.46121L8.7136 8.03609L8.99916 6.92285Z" fill="white"/>
<path d="M8.99916 9.0769L9.28472 10.1901L8.53711 9.50212H9.46121L8.7136 10.1901L8.99916 9.0769Z" fill="white"/>
<path d="M9.99916 1.53833L10.2847 2.65157L9.53711 1.96355H10.4612L9.7136 2.65157L9.99916 1.53833Z" fill="white"/>
<path d="M9.99916 3.69214L10.2847 4.80538L9.53711 4.11736H10.4612L9.7136 4.80538L9.99916 3.69214Z" fill="white"/>
<path d="M9.99916 5.84595L10.2847 6.95919L9.53711 6.27117H10.4612L9.7136 6.95919L9.99916 5.84595Z" fill="white"/>
<path d="M9.99916 7.99976L10.2847 9.113L9.53711 8.42498H10.4612L9.7136 9.113L9.99916 7.99976Z" fill="white"/>
<path d="M10.9992 0.461426L11.2847 1.57467L10.5371 0.886646H11.4612L10.7136 1.57467L10.9992 0.461426Z" fill="white"/>
<path d="M10.9992 2.61523L11.2847 3.72848L10.5371 3.04045H11.4612L10.7136 3.72848L10.9992 2.61523Z" fill="white"/>
<path d="M10.9992 4.76904L11.2847 5.88228L10.5371 5.19426H11.4612L10.7136 5.88228L10.9992 4.76904Z" fill="white"/>
<path d="M10.9992 6.92285L11.2847 8.03609L10.5371 7.34807H11.4612L10.7136 8.03609L10.9992 6.92285Z" fill="white"/>
<path d="M10.9992 9.0769L11.2847 10.1901L10.5371 9.50212H11.4612L10.7136 10.1901L10.9992 9.0769Z" fill="white"/>
</g>
<defs>
<clipPath id="clip0_4289_15914">
<rect width="30" height="20" fill="white"/>
</clipPath>
</defs>
</svg>
