<svg width="26" height="24" viewBox="0 0 26 24" fill="none" xmlns="http://www.w3.org/2000/svg">
<path d="M25.9556 21.1874C25.9556 21.5789 25.8915 21.9446 25.7632 22.2846C25.6349 22.6246 25.4523 22.9234 25.2155 23.1809C24.9787 23.4385 24.7024 23.6394 24.3866 23.7836C24.0708 23.9279 23.7254 24 23.3504 24H2.78281C2.40782 24 2.05257 23.9279 1.71705 23.7836C1.38154 23.6394 1.08549 23.4385 0.828922 23.1809C0.572351 22.9234 0.370054 22.6246 0.222033 22.2846C0.0740109 21.9446 0 21.5789 0 21.1874L0.0443784 2.81265C0.0443784 2.02964 0.305884 1.36511 0.828894 0.819068C1.3519 0.273022 1.9884 0 2.73837 0H23.306C24.056 0 24.6925 0.273022 25.2155 0.819068C25.7385 1.36511 26 2.02964 26 2.81265L25.9556 8.80088H19.2354C18.4855 8.80088 17.849 9.06875 17.326 9.60449C16.8029 10.1402 16.5414 10.7996 16.5414 11.5826C16.5612 12.1184 16.6697 12.5923 16.8671 13.0044C17.025 13.3547 17.2865 13.6741 17.6516 13.9626C18.0167 14.251 18.5447 14.3953 19.2354 14.3953H25.9556V21.1874ZM17.9032 11.4879C17.9032 11.0703 18.0477 10.7187 18.3366 10.433C18.6255 10.1473 18.981 10.0044 19.4032 10.0044C19.8255 10.0044 20.181 10.1473 20.4699 10.433C20.7588 10.7187 20.9032 11.0703 20.9032 11.4879C20.9032 11.9055 20.7588 12.2626 20.4699 12.5593C20.181 12.856 19.8255 13.0044 19.4032 13.0044C18.981 13.0044 18.6255 12.856 18.3366 12.5593C18.0477 12.2626 17.9032 11.9055 17.9032 11.4879Z" fill="#7A49E9"/>
</svg>
