<svg width="300" height="60" viewBox="0 0 300 60" fill="none" xmlns="http://www.w3.org/2000/svg">
<rect x="0.5" y="0.5" width="299" height="59" rx="7.5" fill="white"/>
<rect x="0.5" y="0.5" width="299" height="59" rx="7.5" stroke="#D9D9D9"/>
<g clip-path="url(#clip0_2024_5471)">
<path d="M24 20.0498H54V39.9503H24V20.0498Z" fill="#003399"/>
<path d="M39 22.2612L38.6562 23.3122L39.185 23.4839L39 22.2612Z" fill="#FFCC00"/>
<path d="M38.9995 22.2612L39.3432 23.3122L38.8145 23.4839L38.9995 22.2612Z" fill="#FFCC00"/>
<path d="M40.0566 23.0249H38.9453V23.5771L40.0566 23.0249Z" fill="#FFCC00"/>
<path d="M40.057 23.0249L39.1583 23.6742L38.832 23.2264L40.057 23.0249Z" fill="#FFCC00"/>
<path d="M39.6525 24.2612L39.31 23.209L38.7812 23.3806L39.6525 24.2612Z" fill="#FFCC00"/>
<path d="M39.6527 24.2611L38.7539 23.6106L39.0814 23.1628L39.6527 24.2611Z" fill="#FFCC00"/>
<path d="M37.9434 23.0249H39.0546V23.5771L37.9434 23.0249Z" fill="#FFCC00"/>
<path d="M37.9434 23.0249L38.8421 23.6742L39.1684 23.2264L37.9434 23.0249Z" fill="#FFCC00"/>
<path d="M38.3477 24.2612L38.6902 23.209L39.2189 23.3806L38.3477 24.2612Z" fill="#FFCC00"/>
<path d="M38.3477 24.2611L39.2464 23.6106L38.9189 23.1628L38.3477 24.2611ZM39.0002 35.5273L38.6564 36.5795L39.1852 36.7499L39.0002 35.5273Z" fill="#FFCC00"/>
<path d="M38.9995 35.5273L39.3432 36.5796L38.8145 36.75L38.9995 35.5273Z" fill="#FFCC00"/>
<path d="M40.0566 36.2922H38.9453V36.8445L40.0566 36.2922Z" fill="#FFCC00"/>
<path d="M40.057 36.2922L39.1583 36.9415L38.832 36.4937L40.057 36.2922Z" fill="#FFCC00"/>
<path d="M39.6525 37.5273L39.31 36.4763L38.7812 36.6467L39.6525 37.5273Z" fill="#FFCC00"/>
<path d="M39.6527 37.5274L38.7539 36.8782L39.0814 36.4304L39.6527 37.5274Z" fill="#FFCC00"/>
<path d="M37.9434 36.2922H39.0546V36.8445L37.9434 36.2922Z" fill="#FFCC00"/>
<path d="M37.9434 36.2922L38.8421 36.9415L39.1684 36.4937L37.9434 36.2922Z" fill="#FFCC00"/>
<path d="M38.3477 37.5273L38.6902 36.4763L39.2189 36.6467L38.3477 37.5273Z" fill="#FFCC00"/>
<path d="M38.3477 37.5274L39.2464 36.8782L38.9189 36.4304L38.3477 37.5274Z" fill="#FFCC00"/>
<path d="M32.334 28.8943L31.9902 29.9453L32.519 30.1169L32.334 28.8943Z" fill="#FFCC00"/>
<path d="M32.3334 28.8943L32.6759 29.9453L32.1484 30.1169L32.3334 28.8943Z" fill="#FFCC00"/>
<path d="M33.3905 29.658H32.2793V30.2114L33.3905 29.658Z" fill="#FFCC00"/>
<path d="M33.3891 29.658L32.4891 30.3085L32.1641 29.8607L33.3891 29.658Z" fill="#FFCC00"/>
<path d="M32.9877 30.8955L32.6427 29.8433L32.1152 30.0137L32.9877 30.8955Z" fill="#FFCC00"/>
<path d="M32.9879 30.8956L32.0879 30.2451L32.4141 29.7974L32.9879 30.8956Z" fill="#FFCC00"/>
<path d="M31.2754 29.658H32.3879V30.2114L31.2754 29.658Z" fill="#FFCC00"/>
<path d="M31.2754 29.658L32.1754 30.3085L32.5004 29.8607L31.2754 29.658Z" fill="#FFCC00"/>
<path d="M31.6797 30.8955L32.0234 29.8433L32.5522 30.0137L31.6797 30.8955Z" fill="#FFCC00"/>
<path d="M31.6797 30.8956L32.5797 30.2451L32.2522 29.7974L31.6797 30.8956Z" fill="#FFCC00"/>
<path d="M35.0117 25.1493L35.9117 24.5L35.5855 24.0522L35.0117 25.1493Z" fill="#FFCC00"/>
<path d="M35.0117 25.1491L35.3567 24.0981L35.8842 24.2685L35.0117 25.1491Z" fill="#FFCC00"/>
<path d="M34.6094 23.9143L35.5094 24.5636L35.8344 24.1158L34.6094 23.9143Z" fill="#FFCC00"/>
<path d="M34.6094 23.9143H35.7206V24.4665L34.6094 23.9143Z" fill="#FFCC00"/>
<path d="M35.6667 23.1492L35.3242 24.2014L35.8517 24.3718L35.6667 23.1492Z" fill="#FFCC00"/>
<path d="M35.6655 23.1492L36.0092 24.2014L35.4805 24.3718L35.6655 23.1492Z" fill="#FFCC00"/>
<path d="M36.3199 25.1493L35.4199 24.5L35.7474 24.0522L36.3199 25.1493Z" fill="#FFCC00"/>
<path d="M36.3198 25.1491L35.976 24.0981L35.4473 24.2685L36.3198 25.1491Z" fill="#FFCC00"/>
<path d="M36.723 23.9143L35.823 24.5636L35.498 24.1158L36.723 23.9143Z" fill="#FFCC00"/>
<path d="M36.7238 23.9143H35.6113V24.4665L36.7238 23.9143Z" fill="#FFCC00"/>
<path d="M33.8803 27.5771L33.5366 26.5261L33.0078 26.6965L33.8803 27.5771Z" fill="#FFCC00"/>
<path d="M33.8805 27.5772L32.9805 26.928L33.308 26.4802L33.8805 27.5772Z" fill="#FFCC00"/>
<path d="M32.5742 27.5772L33.473 26.928L33.1467 26.4802L32.5742 27.5772Z" fill="#FFCC00"/>
<path d="M32.5742 27.5771L32.9167 26.5261L33.4455 26.6965L32.5742 27.5771Z" fill="#FFCC00"/>
<path d="M32.1699 26.342L33.0687 26.9913L33.3949 26.5435L32.1699 26.342Z" fill="#FFCC00"/>
<path d="M32.1699 26.342H33.2812V26.8943L32.1699 26.342Z" fill="#FFCC00"/>
<path d="M34.2836 26.342L33.3836 26.9913L33.0586 26.5435L34.2836 26.342Z" fill="#FFCC00"/>
<path d="M34.2844 26.342H33.1719V26.8943L34.2844 26.342Z" fill="#FFCC00"/>
<path d="M33.226 25.5771L33.5698 26.6294L33.041 26.7998L33.226 25.5771Z" fill="#FFCC00"/>
<path d="M33.2253 25.5771L32.8828 26.6294L33.4103 26.7998L33.2253 25.5771Z" fill="#FFCC00"/>
<path d="M34.2844 32.9751H33.1719V33.5273L34.2844 32.9751Z" fill="#FFCC00"/>
<path d="M34.2836 32.9751L33.3836 33.6244L33.0586 33.1766L34.2836 32.9751Z" fill="#FFCC00"/>
<path d="M33.8803 34.2114L33.5366 33.1592L33.0078 33.3308L33.8803 34.2114Z" fill="#FFCC00"/>
<path d="M33.8805 34.2115L32.9805 33.561L33.308 33.1133L33.8805 34.2115Z" fill="#FFCC00"/>
<path d="M32.5742 34.2115L33.473 33.561L33.1467 33.1133L32.5742 34.2115Z" fill="#FFCC00"/>
<path d="M32.5742 34.2114L32.9167 33.1592L33.4455 33.3308L32.5742 34.2114Z" fill="#FFCC00"/>
<path d="M33.226 32.2114L33.5698 33.2624L33.041 33.4341L33.226 32.2114Z" fill="#FFCC00"/>
<path d="M33.2253 32.2114L32.8828 33.2624L33.4103 33.4341L33.2253 32.2114Z" fill="#FFCC00"/>
<path d="M32.1699 32.9751H33.2812V33.5273L32.1699 32.9751Z" fill="#FFCC00"/>
<path d="M32.1699 32.9751L33.0687 33.6244L33.3949 33.1766L32.1699 32.9751Z" fill="#FFCC00"/>
<path d="M36.7238 35.4031H35.6113V35.9566L36.7238 35.4031Z" fill="#FFCC00"/>
<path d="M36.723 35.4031L35.823 36.0536L35.498 35.6058L36.723 35.4031Z" fill="#FFCC00"/>
<path d="M36.3198 36.6394L35.976 35.5884L35.4473 35.7588L36.3198 36.6394Z" fill="#FFCC00"/>
<path d="M36.3199 36.6393L35.4199 35.9888L35.7474 35.541L36.3199 36.6393Z" fill="#FFCC00"/>
<path d="M35.0117 36.6393L35.9117 35.9888L35.5855 35.541L35.0117 36.6393Z" fill="#FFCC00"/>
<path d="M35.0117 36.6394L35.3567 35.5884L35.8842 35.7588L35.0117 36.6394Z" fill="#FFCC00"/>
<path d="M35.6655 34.6394L36.0092 35.6904L35.4805 35.862L35.6655 34.6394Z" fill="#FFCC00"/>
<path d="M35.6667 34.6394L35.3242 35.6904L35.8517 35.862L35.6667 34.6394Z" fill="#FFCC00"/>
<path d="M34.6094 35.4031H35.7206V35.9566L34.6094 35.4031Z" fill="#FFCC00"/>
<path d="M34.6094 35.4031L35.5094 36.0536L35.8344 35.6058L34.6094 35.4031Z" fill="#FFCC00"/>
<path d="M45.6655 28.8943L46.0092 29.9453L45.4805 30.1169L45.6655 28.8943Z" fill="#FFCC00"/>
<path d="M45.6667 28.8943L45.3242 29.9453L45.8517 30.1169L45.6667 28.8943Z" fill="#FFCC00"/>
<path d="M44.6094 29.658H45.7206V30.2114L44.6094 29.658Z" fill="#FFCC00"/>
<path d="M44.6094 29.658L45.5094 30.3085L45.8344 29.8607L44.6094 29.658Z" fill="#FFCC00"/>
<path d="M45.0117 30.8955L45.3567 29.8433L45.8842 30.0137L45.0117 30.8955Z" fill="#FFCC00"/>
<path d="M45.0117 30.8956L45.9117 30.2451L45.5855 29.7974L45.0117 30.8956Z" fill="#FFCC00"/>
<path d="M46.7238 29.658H45.6113V30.2114L46.7238 29.658Z" fill="#FFCC00"/>
<path d="M46.723 29.658L45.823 30.3085L45.498 29.8607L46.723 29.658Z" fill="#FFCC00"/>
<path d="M46.3198 30.8955L45.976 29.8433L45.4473 30.0137L46.3198 30.8955Z" fill="#FFCC00"/>
<path d="M46.3199 30.8956L45.4199 30.2451L45.7474 29.7974L46.3199 30.8956Z" fill="#FFCC00"/>
<path d="M42.9879 25.1493L42.0879 24.5L42.4141 24.0522L42.9879 25.1493Z" fill="#FFCC00"/>
<path d="M42.9877 25.1491L42.6427 24.0981L42.1152 24.2685L42.9877 25.1491Z" fill="#FFCC00"/>
<path d="M43.3891 23.9143L42.4891 24.5636L42.1641 24.1158L43.3891 23.9143Z" fill="#FFCC00"/>
<path d="M43.3905 23.9143H42.2793V24.4665L43.3905 23.9143Z" fill="#FFCC00"/>
<path d="M42.3334 23.1492L42.6759 24.2014L42.1484 24.3718L42.3334 23.1492Z" fill="#FFCC00"/>
<path d="M42.334 23.1492L41.9902 24.2014L42.519 24.3718L42.334 23.1492Z" fill="#FFCC00"/>
<path d="M41.6797 25.1493L42.5797 24.5L42.2522 24.0522L41.6797 25.1493Z" fill="#FFCC00"/>
<path d="M41.6797 25.1491L42.0234 24.0981L42.5522 24.2685L41.6797 25.1491Z" fill="#FFCC00"/>
<path d="M41.2754 23.9143L42.1754 24.5636L42.5004 24.1158L41.2754 23.9143Z" fill="#FFCC00"/>
<path d="M41.2754 23.9143H42.3879V24.4665L41.2754 23.9143Z" fill="#FFCC00"/>
<path d="M44.1191 27.5771L44.4629 26.5261L44.9916 26.6965L44.1191 27.5771Z" fill="#FFCC00"/>
<path d="M44.1191 27.5772L45.0191 26.928L44.6916 26.4802L44.1191 27.5772Z" fill="#FFCC00"/>
<path d="M45.4261 27.5772L44.5273 26.928L44.8536 26.4802L45.4261 27.5772Z" fill="#FFCC00"/>
<path d="M45.4259 27.5771L45.0834 26.5261L44.5547 26.6965L45.4259 27.5771Z" fill="#FFCC00"/>
<path d="M45.8305 26.342L44.9317 26.9913L44.6055 26.5435L45.8305 26.342Z" fill="#FFCC00"/>
<path d="M45.83 26.342H44.7188V26.8943L45.83 26.342Z" fill="#FFCC00"/>
<path d="M43.7168 26.342L44.6168 26.9913L44.9418 26.5435L43.7168 26.342Z" fill="#FFCC00"/>
<path d="M43.7168 26.342H44.8293V26.8943L43.7168 26.342Z" fill="#FFCC00"/>
<path d="M44.7734 25.5771L44.4297 26.6294L44.9584 26.7998L44.7734 25.5771Z" fill="#FFCC00"/>
<path d="M44.7729 25.5771L45.1154 26.6294L44.5879 26.7998L44.7729 25.5771Z" fill="#FFCC00"/>
<path d="M43.7168 32.9751H44.8293V33.5273L43.7168 32.9751Z" fill="#FFCC00"/>
<path d="M43.7168 32.9751L44.6168 33.6244L44.9418 33.1766L43.7168 32.9751Z" fill="#FFCC00"/>
<path d="M44.1191 34.2114L44.4629 33.1592L44.9916 33.3308L44.1191 34.2114Z" fill="#FFCC00"/>
<path d="M44.1191 34.2115L45.0191 33.561L44.6916 33.1133L44.1191 34.2115Z" fill="#FFCC00"/>
<path d="M45.4261 34.2115L44.5273 33.561L44.8536 33.1133L45.4261 34.2115Z" fill="#FFCC00"/>
<path d="M45.4259 34.2114L45.0834 33.1592L44.5547 33.3308L45.4259 34.2114Z" fill="#FFCC00"/>
<path d="M44.7734 32.2114L44.4297 33.2624L44.9584 33.4341L44.7734 32.2114Z" fill="#FFCC00"/>
<path d="M44.7729 32.2114L45.1154 33.2624L44.5879 33.4341L44.7729 32.2114Z" fill="#FFCC00"/>
<path d="M45.83 32.9751H44.7188V33.5273L45.83 32.9751Z" fill="#FFCC00"/>
<path d="M45.8305 32.9751L44.9317 33.6244L44.6055 33.1766L45.8305 32.9751Z" fill="#FFCC00"/>
<path d="M41.2754 35.4031H42.3879V35.9566L41.2754 35.4031Z" fill="#FFCC00"/>
<path d="M41.2754 35.4031L42.1754 36.0536L42.5004 35.6058L41.2754 35.4031Z" fill="#FFCC00"/>
<path d="M41.6797 36.6394L42.0234 35.5884L42.5522 35.7588L41.6797 36.6394Z" fill="#FFCC00"/>
<path d="M41.6797 36.6393L42.5797 35.9888L42.2522 35.541L41.6797 36.6393Z" fill="#FFCC00"/>
<path d="M42.9879 36.6393L42.0879 35.9888L42.4141 35.541L42.9879 36.6393Z" fill="#FFCC00"/>
<path d="M42.9877 36.6394L42.6427 35.5884L42.1152 35.7588L42.9877 36.6394Z" fill="#FFCC00"/>
<path d="M42.334 34.6394L41.9902 35.6904L42.519 35.862L42.334 34.6394Z" fill="#FFCC00"/>
<path d="M42.3334 34.6394L42.6759 35.6904L42.1484 35.862L42.3334 34.6394Z" fill="#FFCC00"/>
<path d="M43.3905 35.4031H42.2793V35.9566L43.3905 35.4031Z" fill="#FFCC00"/>
<path d="M43.3891 35.4031L42.4891 36.0536L42.1641 35.6058L43.3891 35.4031Z" fill="#FFCC00"/>
</g>
<path d="M75.0114 36V24.3636H82.8523V26.392H77.4716V29.1648H82.4489V31.1932H77.4716V33.9716H82.875V36H75.0114ZM91.8357 24.3636H94.296V31.9205C94.296 32.7689 94.0933 33.5114 93.688 34.1477C93.2865 34.7841 92.724 35.2803 92.0005 35.6364C91.277 35.9886 90.4342 36.1648 89.4721 36.1648C88.5062 36.1648 87.6615 35.9886 86.938 35.6364C86.2145 35.2803 85.652 34.7841 85.2505 34.1477C84.849 33.5114 84.6482 32.7689 84.6482 31.9205V24.3636H87.1085V31.7102C87.1085 32.1534 87.2051 32.5473 87.3982 32.892C87.5952 33.2367 87.8717 33.5076 88.2278 33.7045C88.5838 33.9015 88.9986 34 89.4721 34C89.9494 34 90.3641 33.9015 90.7164 33.7045C91.0725 33.5076 91.3471 33.2367 91.5403 32.892C91.7373 32.5473 91.8357 32.1534 91.8357 31.7102V24.3636ZM96.1601 36V24.3636H100.751C101.63 24.3636 102.38 24.5208 103.001 24.8352C103.626 25.1458 104.101 25.5871 104.427 26.1591C104.757 26.7273 104.921 27.3958 104.921 28.1648C104.921 28.9375 104.755 29.6023 104.421 30.1591C104.088 30.7121 103.605 31.1364 102.973 31.4318C102.344 31.7273 101.582 31.875 100.689 31.875H97.6147V29.8977H100.291C100.76 29.8977 101.151 29.8333 101.461 29.7045C101.772 29.5758 102.003 29.3826 102.154 29.125C102.31 28.8674 102.387 28.5473 102.387 28.1648C102.387 27.7784 102.31 27.4527 102.154 27.1875C102.003 26.9223 101.77 26.7216 101.456 26.5852C101.145 26.4451 100.753 26.375 100.279 26.375H98.6203V36H96.1601ZM102.444 30.7045L105.336 36H102.62L99.7908 30.7045H102.444Z" fill="#2B2B2B"/>
<path d="M213.284 36.1591C212.409 36.1591 211.631 36.017 210.949 35.733C210.271 35.4451 209.739 35.053 209.352 34.5568C208.966 34.0606 208.773 33.4981 208.773 32.8693C208.773 32.3845 208.883 31.9394 209.102 31.5341C209.326 31.125 209.629 30.786 210.011 30.517C210.394 30.2443 210.822 30.0701 211.295 29.9943V29.9148C210.674 29.7898 210.17 29.4886 209.784 29.0114C209.398 28.5303 209.205 27.9716 209.205 27.3352C209.205 26.733 209.381 26.197 209.733 25.7273C210.085 25.2538 210.568 24.8826 211.182 24.6136C211.799 24.3409 212.5 24.2045 213.284 24.2045C214.068 24.2045 214.767 24.3409 215.381 24.6136C215.998 24.8864 216.483 25.2595 216.835 25.733C217.188 26.2027 217.366 26.7367 217.369 27.3352C217.366 27.9754 217.169 28.5341 216.778 29.0114C216.388 29.4886 215.888 29.7898 215.278 29.9148V29.9943C215.744 30.0701 216.167 30.2443 216.545 30.517C216.928 30.786 217.231 31.125 217.455 31.5341C217.682 31.9394 217.797 32.3845 217.801 32.8693C217.797 33.4981 217.602 34.0606 217.216 34.5568C216.83 35.053 216.295 35.4451 215.614 35.733C214.936 36.017 214.159 36.1591 213.284 36.1591ZM213.284 34.3523C213.674 34.3523 214.015 34.2822 214.307 34.142C214.598 33.9981 214.826 33.8011 214.989 33.5511C215.155 33.2973 215.239 33.0057 215.239 32.6761C215.239 32.339 215.153 32.0417 214.983 31.7841C214.813 31.5227 214.581 31.3182 214.29 31.1705C213.998 31.0189 213.663 30.9432 213.284 30.9432C212.909 30.9432 212.574 31.0189 212.278 31.1705C211.983 31.3182 211.75 31.5227 211.58 31.7841C211.413 32.0417 211.33 32.339 211.33 32.6761C211.33 33.0057 211.411 33.2973 211.574 33.5511C211.737 33.8011 211.966 33.9981 212.261 34.142C212.557 34.2822 212.898 34.3523 213.284 34.3523ZM213.284 29.1534C213.61 29.1534 213.9 29.0871 214.153 28.9545C214.407 28.822 214.606 28.6383 214.75 28.4034C214.894 28.1686 214.966 27.8977 214.966 27.5909C214.966 27.2879 214.894 27.0227 214.75 26.7955C214.606 26.5644 214.409 26.3845 214.159 26.2557C213.909 26.1231 213.617 26.0568 213.284 26.0568C212.955 26.0568 212.663 26.1231 212.409 26.2557C212.155 26.3845 211.956 26.5644 211.812 26.7955C211.672 27.0227 211.602 27.2879 211.602 27.5909C211.602 27.8977 211.674 28.1686 211.818 28.4034C211.962 28.6383 212.161 28.822 212.415 28.9545C212.669 29.0871 212.958 29.1534 213.284 29.1534ZM221.687 34.4091L221.624 35.0341C221.575 35.5341 221.48 36.0322 221.34 36.5284C221.204 37.0284 221.06 37.4811 220.908 37.8864C220.76 38.2917 220.641 38.6098 220.55 38.8409H218.982C219.039 38.6174 219.117 38.3049 219.215 37.9034C219.313 37.5057 219.406 37.0587 219.493 36.5625C219.581 36.0663 219.635 35.5606 219.658 35.0455L219.687 34.4091H221.687ZM227.714 36.1591C227.116 36.1553 226.538 36.0549 225.981 35.858C225.428 35.661 224.932 35.3409 224.493 34.8977C224.053 34.4545 223.705 33.8674 223.447 33.1364C223.193 32.4053 223.066 31.5076 223.066 30.4432C223.07 29.4659 223.182 28.5928 223.402 27.8239C223.625 27.0511 223.943 26.3958 224.356 25.858C224.773 25.3201 225.271 24.911 225.85 24.6307C226.43 24.3466 227.08 24.2045 227.799 24.2045C228.576 24.2045 229.261 24.3561 229.856 24.6591C230.451 24.9583 230.928 25.3655 231.288 25.8807C231.652 26.3958 231.871 26.9735 231.947 27.6136H229.521C229.426 27.2083 229.227 26.8902 228.924 26.6591C228.621 26.428 228.246 26.3125 227.799 26.3125C227.042 26.3125 226.466 26.642 226.072 27.3011C225.682 27.9602 225.483 28.8561 225.475 29.9886H225.555C225.729 29.6439 225.964 29.3504 226.26 29.108C226.559 28.8617 226.898 28.6742 227.277 28.5455C227.659 28.4129 228.063 28.3466 228.487 28.3466C229.176 28.3466 229.79 28.5095 230.328 28.8352C230.866 29.1572 231.29 29.6004 231.6 30.1648C231.911 30.7292 232.066 31.375 232.066 32.1023C232.066 32.8902 231.883 33.5909 231.515 34.2045C231.152 34.8182 230.642 35.2992 229.987 35.6477C229.335 35.9924 228.578 36.1629 227.714 36.1591ZM227.703 34.2273C228.082 34.2273 228.421 34.1364 228.72 33.9545C229.019 33.7727 229.254 33.5265 229.424 33.2159C229.595 32.9053 229.68 32.5568 229.68 32.1705C229.68 31.7841 229.595 31.4375 229.424 31.1307C229.258 30.8239 229.027 30.5795 228.731 30.3977C228.436 30.2159 228.099 30.125 227.72 30.125C227.436 30.125 227.172 30.178 226.93 30.2841C226.691 30.3902 226.481 30.5379 226.299 30.7273C226.121 30.9167 225.981 31.1364 225.879 31.3864C225.777 31.6326 225.725 31.8958 225.725 32.1761C225.725 32.5511 225.811 32.8939 225.981 33.2045C226.155 33.5152 226.39 33.7633 226.686 33.9489C226.985 34.1345 227.324 34.2273 227.703 34.2273ZM237.952 36.1591C237.103 36.1591 236.348 36.0133 235.685 35.7216C235.026 35.4261 234.505 35.0208 234.122 34.5057C233.743 33.9867 233.548 33.3883 233.537 32.7102H236.014C236.029 32.9943 236.122 33.2443 236.293 33.4602C236.467 33.6723 236.698 33.8371 236.986 33.9545C237.274 34.072 237.598 34.1307 237.958 34.1307C238.333 34.1307 238.664 34.0644 238.952 33.9318C239.24 33.7992 239.465 33.6155 239.628 33.3807C239.791 33.1458 239.872 32.875 239.872 32.5682C239.872 32.2576 239.785 31.983 239.611 31.7443C239.44 31.5019 239.194 31.3125 238.872 31.1761C238.554 31.0398 238.175 30.9716 237.736 30.9716H236.651V29.1648H237.736C238.107 29.1648 238.435 29.1004 238.719 28.9716C239.007 28.8428 239.23 28.6648 239.389 28.4375C239.548 28.2064 239.628 27.9375 239.628 27.6307C239.628 27.339 239.558 27.0833 239.418 26.8636C239.281 26.6402 239.088 26.4659 238.838 26.3409C238.592 26.2159 238.304 26.1534 237.975 26.1534C237.641 26.1534 237.336 26.214 237.06 26.3352C236.783 26.4527 236.562 26.6212 236.395 26.8409C236.228 27.0606 236.139 27.3182 236.128 27.6136H233.77C233.781 26.9432 233.973 26.3523 234.344 25.8409C234.715 25.3295 235.215 24.9299 235.844 24.642C236.476 24.3504 237.19 24.2045 237.986 24.2045C238.789 24.2045 239.492 24.3504 240.094 24.642C240.696 24.9337 241.164 25.3277 241.497 25.8239C241.834 26.3163 242.001 26.8693 241.997 27.483C242.001 28.1345 241.798 28.678 241.389 29.1136C240.984 29.5492 240.456 29.8258 239.804 29.9432V30.0341C240.66 30.1439 241.312 30.4413 241.759 30.9261C242.209 31.4072 242.433 32.0095 242.429 32.733C242.433 33.3958 242.242 33.9848 241.855 34.5C241.473 35.0152 240.944 35.4205 240.27 35.7159C239.596 36.0114 238.823 36.1591 237.952 36.1591ZM244.498 36L249.322 26.4545V26.375H243.702V24.3636H251.867V26.4034L247.038 36H244.498ZM252.831 36.1477C252.456 36.1477 252.134 36.0152 251.865 35.75C251.6 35.4811 251.467 35.1591 251.467 34.7841C251.467 34.4129 251.6 34.0947 251.865 33.8295C252.134 33.5644 252.456 33.4318 252.831 33.4318C253.194 33.4318 253.513 33.5644 253.785 33.8295C254.058 34.0947 254.194 34.4129 254.194 34.7841C254.194 35.0341 254.13 35.2633 254.001 35.4716C253.876 35.6761 253.711 35.8409 253.507 35.9659C253.302 36.0871 253.077 36.1477 252.831 36.1477ZM260.093 36.2557C259.115 36.2519 258.274 36.0114 257.57 35.5341C256.869 35.0568 256.329 34.3655 255.951 33.4602C255.576 32.5549 255.39 31.4659 255.394 30.1932C255.394 28.9242 255.581 27.8428 255.956 26.9489C256.335 26.0549 256.875 25.375 257.576 24.9091C258.28 24.4394 259.119 24.2045 260.093 24.2045C261.066 24.2045 261.903 24.4394 262.604 24.9091C263.308 25.3788 263.85 26.0606 264.229 26.9545C264.608 27.8447 264.795 28.9242 264.791 30.1932C264.791 31.4697 264.602 32.5606 264.223 33.4659C263.848 34.3712 263.31 35.0625 262.61 35.5398C261.909 36.017 261.07 36.2557 260.093 36.2557ZM260.093 34.2159C260.759 34.2159 261.291 33.8807 261.689 33.2102C262.087 32.5398 262.284 31.5341 262.28 30.1932C262.28 29.3106 262.189 28.5758 262.007 27.9886C261.829 27.4015 261.576 26.9602 261.246 26.6648C260.92 26.3693 260.536 26.2216 260.093 26.2216C259.43 26.2216 258.899 26.553 258.502 27.2159C258.104 27.8788 257.903 28.8712 257.899 30.1932C257.899 31.0871 257.988 31.8333 258.166 32.4318C258.348 33.0265 258.604 33.4735 258.933 33.7727C259.263 34.0682 259.649 34.2159 260.093 34.2159ZM270.687 36.1591C269.838 36.1591 269.083 36.0133 268.42 35.7216C267.761 35.4261 267.24 35.0208 266.857 34.5057C266.478 33.9867 266.283 33.3883 266.272 32.7102H268.749C268.764 32.9943 268.857 33.2443 269.028 33.4602C269.202 33.6723 269.433 33.8371 269.721 33.9545C270.009 34.072 270.333 34.1307 270.693 34.1307C271.068 34.1307 271.399 34.0644 271.687 33.9318C271.975 33.7992 272.2 33.6155 272.363 33.3807C272.526 33.1458 272.607 32.875 272.607 32.5682C272.607 32.2576 272.52 31.983 272.346 31.7443C272.175 31.5019 271.929 31.3125 271.607 31.1761C271.289 31.0398 270.91 30.9716 270.471 30.9716H269.386V29.1648H270.471C270.842 29.1648 271.17 29.1004 271.454 28.9716C271.742 28.8428 271.965 28.6648 272.124 28.4375C272.283 28.2064 272.363 27.9375 272.363 27.6307C272.363 27.339 272.293 27.0833 272.153 26.8636C272.016 26.6402 271.823 26.4659 271.573 26.3409C271.327 26.2159 271.039 26.1534 270.71 26.1534C270.376 26.1534 270.071 26.214 269.795 26.3352C269.518 26.4527 269.297 26.6212 269.13 26.8409C268.963 27.0606 268.874 27.3182 268.863 27.6136H266.505C266.516 26.9432 266.708 26.3523 267.079 25.8409C267.45 25.3295 267.95 24.9299 268.579 24.642C269.211 24.3504 269.925 24.2045 270.721 24.2045C271.524 24.2045 272.227 24.3504 272.829 24.642C273.431 24.9337 273.899 25.3277 274.232 25.8239C274.569 26.3163 274.736 26.8693 274.732 27.483C274.736 28.1345 274.533 28.678 274.124 29.1136C273.719 29.5492 273.191 29.8258 272.539 29.9432V30.0341C273.395 30.1439 274.047 30.4413 274.494 30.9261C274.944 31.4072 275.168 32.0095 275.164 32.733C275.168 33.3958 274.977 33.9848 274.59 34.5C274.208 35.0152 273.679 35.4205 273.005 35.7159C272.331 36.0114 271.558 36.1591 270.687 36.1591Z" fill="#667085"/>
<defs>
<clipPath id="clip0_2024_5471">
<rect width="30" height="20" fill="white" transform="translate(24 20)"/>
</clipPath>
</defs>
</svg>
