<svg width="300" height="60" viewBox="0 0 300 60" fill="none" xmlns="http://www.w3.org/2000/svg">
<rect x="0.5" y="0.5" width="299" height="59" rx="7.5" fill="white"/>
<rect x="0.5" y="0.5" width="299" height="59" rx="7.5" stroke="#D9D9D9"/>
<g clip-path="url(#clip0_2024_5472)">
<path d="M24 20H54V40H24" fill="#EE1C25"/>
<path d="M28.9997 22L30.7631 27.427L26.1465 24.073H31.8529L27.2363 27.427L28.9997 22Z" fill="#FFFF00"/>
<path d="M34.3909 21.0797L34.2239 22.9744L33.2452 21.3434L34.9957 22.0877L33.142 22.5144L34.3909 21.0797Z" fill="#FFFF00"/>
<path d="M36.7169 23.3037L35.8278 24.9852L35.5587 23.1022L36.8831 24.4675L35.0092 24.1414L36.7169 23.3037Z" fill="#FFFF00"/>
<path d="M36.9394 26.6571L35.4417 27.8296L35.9642 26.0006L36.6165 27.7874L35.0385 26.7253L36.9394 26.6571Z" fill="#FFFF00"/>
<path d="M34.3528 28.0643L34.2645 29.9644L33.2191 28.3753L34.9989 29.0464L33.1645 29.5496L34.3528 28.0643Z" fill="#FFFF00"/>
</g>
<path d="M85.2784 28.4375H82.7898C82.7443 28.1155 82.6515 27.8295 82.5114 27.5795C82.3712 27.3258 82.1913 27.1098 81.9716 26.9318C81.7519 26.7538 81.4981 26.6174 81.2102 26.5227C80.9261 26.428 80.6174 26.3807 80.2841 26.3807C79.6818 26.3807 79.1572 26.5303 78.7102 26.8295C78.2633 27.125 77.9167 27.5568 77.6705 28.125C77.4242 28.6894 77.3011 29.375 77.3011 30.1818C77.3011 31.0114 77.4242 31.7083 77.6705 32.2727C77.9205 32.8371 78.2689 33.2633 78.7159 33.5511C79.1629 33.839 79.6799 33.983 80.267 33.983C80.5966 33.983 80.9015 33.9394 81.1818 33.8523C81.4659 33.7652 81.7178 33.6383 81.9375 33.4716C82.1572 33.3011 82.339 33.0947 82.483 32.8523C82.6307 32.6098 82.733 32.3333 82.7898 32.0227L85.2784 32.0341C85.214 32.5682 85.053 33.0833 84.7955 33.5795C84.5417 34.072 84.1989 34.5133 83.767 34.9034C83.339 35.2898 82.8277 35.5966 82.233 35.8239C81.642 36.0473 80.9735 36.1591 80.2273 36.1591C79.1894 36.1591 78.2614 35.9242 77.4432 35.4545C76.6288 34.9848 75.9848 34.3049 75.5114 33.4148C75.0417 32.5246 74.8068 31.447 74.8068 30.1818C74.8068 28.9129 75.0455 27.8333 75.5227 26.9432C76 26.053 76.6477 25.375 77.4659 24.9091C78.2841 24.4394 79.2045 24.2045 80.2273 24.2045C80.9015 24.2045 81.5265 24.2992 82.1023 24.4886C82.6818 24.678 83.1951 24.9545 83.642 25.3182C84.089 25.678 84.4527 26.1193 84.733 26.642C85.017 27.1648 85.1989 27.7633 85.2784 28.4375ZM96.6156 24.3636V36H94.4906L89.4281 28.6761H89.3428V36H86.8826V24.3636H89.0417L94.0644 31.6818H94.1667V24.3636H96.6156ZM97.8064 24.3636H100.562L103.216 29.375H103.329L105.983 24.3636H108.738L104.494 31.8864V36H102.051V31.8864L97.8064 24.3636Z" fill="#2B2B2B"/>
<path d="M218.943 36V34.2273L223.085 30.392C223.438 30.0511 223.733 29.7443 223.972 29.4716C224.214 29.1989 224.398 28.9318 224.523 28.6705C224.648 28.4053 224.71 28.1193 224.71 27.8125C224.71 27.4716 224.633 27.178 224.477 26.9318C224.322 26.6818 224.11 26.4905 223.841 26.358C223.572 26.2216 223.267 26.1534 222.926 26.1534C222.57 26.1534 222.259 26.2254 221.994 26.3693C221.729 26.5133 221.525 26.7197 221.381 26.9886C221.237 27.2576 221.165 27.5777 221.165 27.9489H218.83C218.83 27.1875 219.002 26.5265 219.347 25.9659C219.691 25.4053 220.174 24.9716 220.795 24.6648C221.417 24.358 222.133 24.2045 222.943 24.2045C223.777 24.2045 224.502 24.3523 225.119 24.6477C225.741 24.9394 226.223 25.3447 226.568 25.8636C226.913 26.3826 227.085 26.9773 227.085 27.6477C227.085 28.0871 226.998 28.5208 226.824 28.9489C226.653 29.3769 226.348 29.8523 225.909 30.375C225.47 30.8939 224.85 31.517 224.051 32.2443L222.352 33.9091V33.9886H227.239V36H218.943ZM233.424 36.2557C232.447 36.2519 231.606 36.0114 230.901 35.5341C230.2 35.0568 229.661 34.3655 229.282 33.4602C228.907 32.5549 228.721 31.4659 228.725 30.1932C228.725 28.9242 228.912 27.8428 229.287 26.9489C229.666 26.0549 230.206 25.375 230.907 24.9091C231.611 24.4394 232.45 24.2045 233.424 24.2045C234.397 24.2045 235.234 24.4394 235.935 24.9091C236.64 25.3788 237.181 26.0606 237.56 26.9545C237.939 27.8447 238.126 28.9242 238.123 30.1932C238.123 31.4697 237.933 32.5606 237.554 33.4659C237.179 34.3712 236.642 35.0625 235.941 35.5398C235.24 36.017 234.401 36.2557 233.424 36.2557ZM233.424 34.2159C234.09 34.2159 234.623 33.8807 235.02 33.2102C235.418 32.5398 235.615 31.5341 235.611 30.1932C235.611 29.3106 235.52 28.5758 235.339 27.9886C235.161 27.4015 234.907 26.9602 234.577 26.6648C234.251 26.3693 233.867 26.2216 233.424 26.2216C232.761 26.2216 232.231 26.553 231.833 27.2159C231.435 27.8788 231.234 28.8712 231.231 30.1932C231.231 31.0871 231.32 31.8333 231.498 32.4318C231.679 33.0265 231.935 33.4735 232.265 33.7727C232.594 34.0682 232.981 34.2159 233.424 34.2159ZM244.279 36.2557C243.302 36.2519 242.461 36.0114 241.757 35.5341C241.056 35.0568 240.516 34.3655 240.137 33.4602C239.762 32.5549 239.577 31.4659 239.581 30.1932C239.581 28.9242 239.768 27.8428 240.143 26.9489C240.522 26.0549 241.062 25.375 241.762 24.9091C242.467 24.4394 243.306 24.2045 244.279 24.2045C245.253 24.2045 246.09 24.4394 246.791 24.9091C247.495 25.3788 248.037 26.0606 248.416 26.9545C248.795 27.8447 248.982 28.9242 248.978 30.1932C248.978 31.4697 248.789 32.5606 248.41 33.4659C248.035 34.3712 247.497 35.0625 246.796 35.5398C246.096 36.017 245.257 36.2557 244.279 36.2557ZM244.279 34.2159C244.946 34.2159 245.478 33.8807 245.876 33.2102C246.274 32.5398 246.471 31.5341 246.467 30.1932C246.467 29.3106 246.376 28.5758 246.194 27.9886C246.016 27.4015 245.762 26.9602 245.433 26.6648C245.107 26.3693 244.723 26.2216 244.279 26.2216C243.617 26.2216 243.086 26.553 242.689 27.2159C242.291 27.8788 242.09 28.8712 242.086 30.1932C242.086 31.0871 242.175 31.8333 242.353 32.4318C242.535 33.0265 242.791 33.4735 243.12 33.7727C243.45 34.0682 243.836 34.2159 244.279 34.2159ZM251.541 36.1477C251.166 36.1477 250.844 36.0152 250.575 35.75C250.31 35.4811 250.178 35.1591 250.178 34.7841C250.178 34.4129 250.31 34.0947 250.575 33.8295C250.844 33.5644 251.166 33.4318 251.541 33.4318C251.905 33.4318 252.223 33.5644 252.496 33.8295C252.769 34.0947 252.905 34.4129 252.905 34.7841C252.905 35.0341 252.841 35.2633 252.712 35.4716C252.587 35.6761 252.422 35.8409 252.217 35.9659C252.013 36.0871 251.788 36.1477 251.541 36.1477ZM258.803 36.2557C257.826 36.2519 256.985 36.0114 256.28 35.5341C255.58 35.0568 255.04 34.3655 254.661 33.4602C254.286 32.5549 254.101 31.4659 254.104 30.1932C254.104 28.9242 254.292 27.8428 254.667 26.9489C255.046 26.0549 255.585 25.375 256.286 24.9091C256.991 24.4394 257.83 24.2045 258.803 24.2045C259.777 24.2045 260.614 24.4394 261.315 24.9091C262.019 25.3788 262.561 26.0606 262.94 26.9545C263.318 27.8447 263.506 28.9242 263.502 30.1932C263.502 31.4697 263.313 32.5606 262.934 33.4659C262.559 34.3712 262.021 35.0625 261.32 35.5398C260.619 36.017 259.78 36.2557 258.803 36.2557ZM258.803 34.2159C259.47 34.2159 260.002 33.8807 260.4 33.2102C260.798 32.5398 260.994 31.5341 260.991 30.1932C260.991 29.3106 260.9 28.5758 260.718 27.9886C260.54 27.4015 260.286 26.9602 259.957 26.6648C259.631 26.3693 259.246 26.2216 258.803 26.2216C258.14 26.2216 257.61 26.553 257.212 27.2159C256.815 27.8788 256.614 28.8712 256.61 30.1932C256.61 31.0871 256.699 31.8333 256.877 32.4318C257.059 33.0265 257.315 33.4735 257.644 33.7727C257.974 34.0682 258.36 34.2159 258.803 34.2159ZM269.659 36.2557C268.682 36.2519 267.841 36.0114 267.136 35.5341C266.435 35.0568 265.896 34.3655 265.517 33.4602C265.142 32.5549 264.956 31.4659 264.96 30.1932C264.96 28.9242 265.147 27.8428 265.522 26.9489C265.901 26.0549 266.441 25.375 267.142 24.9091C267.846 24.4394 268.685 24.2045 269.659 24.2045C270.632 24.2045 271.469 24.4394 272.17 24.9091C272.875 25.3788 273.416 26.0606 273.795 26.9545C274.174 27.8447 274.361 28.9242 274.358 30.1932C274.358 31.4697 274.168 32.5606 273.789 33.4659C273.414 34.3712 272.877 35.0625 272.176 35.5398C271.475 36.017 270.636 36.2557 269.659 36.2557ZM269.659 34.2159C270.325 34.2159 270.858 33.8807 271.255 33.2102C271.653 32.5398 271.85 31.5341 271.846 30.1932C271.846 29.3106 271.755 28.5758 271.574 27.9886C271.396 27.4015 271.142 26.9602 270.812 26.6648C270.486 26.3693 270.102 26.2216 269.659 26.2216C268.996 26.2216 268.466 26.553 268.068 27.2159C267.67 27.8788 267.469 28.8712 267.466 30.1932C267.466 31.0871 267.555 31.8333 267.733 32.4318C267.914 33.0265 268.17 33.4735 268.5 33.7727C268.829 34.0682 269.216 34.2159 269.659 34.2159Z" fill="#667085"/>
<defs>
<clipPath id="clip0_2024_5472">
<rect width="30" height="20" fill="white" transform="translate(24 20)"/>
</clipPath>
</defs>
</svg>
