<svg width="100" height="100" viewBox="0 0 100 100" fill="none" xmlns="http://www.w3.org/2000/svg">
<g clip-path="url(#clip0_4287_10578)">
<path d="M2.10868 61.362H97.8916C98.4798 58.8727 98.8724 56.3413 99.0657 53.7908H0.935547C1.13067 56.341 1.52289 58.8723 2.10868 61.362ZM8.53171 76.511H91.4696C93.0127 74.1054 94.3444 71.5706 95.4497 68.9351H4.55483C5.6589 71.5705 6.98935 74.1053 8.53124 76.511H8.53171ZM23.7815 91.6529H76.2221C79.611 89.516 82.7264 86.9734 85.4993 84.0817H14.502C17.2757 86.9735 20.3919 89.516 23.7815 91.6529ZM76.2277 8.35889H23.7759C20.3862 10.4943 17.2709 13.0369 14.4996 15.9301H85.5016C82.7312 13.037 79.6167 10.4943 76.2277 8.35889Z" fill="white"/>
<path d="M4.55439 68.9357H95.4493C96.468 66.4818 97.2847 63.9489 97.8912 61.3621H2.10824C2.71817 63.9485 3.53622 66.4812 4.55439 68.9357ZM14.5015 84.0819H85.4984C87.731 81.7592 89.7306 79.2233 91.4686 76.5107H8.53128C10.2711 79.2221 12.2706 81.7577 14.5015 84.0819ZM50 99.2285C59.6423 99.2285 68.6274 96.4441 76.2216 91.6526H23.7811C31.3749 96.4441 40.3609 99.2285 50 99.2285ZM2.10824 38.6476H97.8931C97.285 36.0611 96.4677 33.5282 95.4493 31.0741H4.5511C3.53302 33.5282 2.71605 36.0611 2.10824 38.6476ZM0.775391 50.0049C0.775391 51.2779 0.839465 52.5382 0.935107 53.7914H99.0653C99.1609 52.5382 99.225 51.2779 99.225 50.0049C99.225 48.7271 99.1609 47.4673 99.0653 46.2202H0.935107C0.839465 47.4673 0.775391 48.7271 0.775391 50.0049ZM14.4992 15.9298C12.2667 18.2519 10.2678 20.7878 8.53128 23.501H91.4715C89.7352 20.7871 87.7354 18.251 85.5012 15.9298H14.4992ZM50 0.78125C40.359 0.78125 31.3697 3.56521 23.7754 8.35904H76.2273C68.6307 3.56521 59.6423 0.78125 50 0.78125Z" fill="#BF0A30"/>
<path d="M0.935547 46.2202H99.0657C98.8725 43.6692 98.4806 41.1372 97.8935 38.6471H2.10868C1.52198 41.1373 1.12976 43.6693 0.935547 46.2202ZM4.55154 31.0741H95.4493C94.3456 28.4391 93.0146 25.9051 91.4714 23.501H8.53171C6.98743 25.9049 5.65567 28.4388 4.55154 31.0741Z" fill="white"/>
<path d="M49.967 0.78125C22.7964 0.796798 0.775391 22.8282 0.775391 50.0006C0.775391 51.2977 0.838994 52.5754 0.940289 53.8465H49.967V0.78125Z" fill="#002868"/>
<path d="M3.77593 33.0354C3.71091 33.2158 3.65485 33.4029 3.5903 33.5852H3.59784L3.77593 33.0354ZM3.23742 34.6208C3.06817 35.1488 2.9053 35.6789 2.74885 36.2108L3.25674 34.6363L3.23695 34.6208H3.23742ZM5.61667 51.0074L4.16085 49.9497L2.70174 51.0074L3.25674 49.2944L1.80469 48.239H3.59784L4.16085 46.5326L4.71161 48.239H6.51231L5.0579 49.2944L5.61667 51.0074ZM12.2079 43.6209L10.7507 42.5594L9.29532 43.6209L9.85126 41.9083L8.39168 40.8506H10.1933L10.7507 39.1465L11.3052 40.8506H13.1059L11.6482 41.9083L12.2079 43.6209ZM11.7825 26.9007L12.3384 28.6109L10.884 27.5475L9.42724 28.6114L9.98224 26.9011L8.52878 25.843H10.3318L10.884 24.1389L11.439 25.843H13.2369L11.7825 26.9007ZM19.0686 51.0074L17.6185 49.9497L16.156 51.0074L16.7143 49.2944L15.2599 48.239H17.0573L17.618 46.5326L18.1725 48.239H19.9732L18.5122 49.2944L19.0686 51.0074ZM19.1666 34.1633L18.5117 34.6363L19.0686 36.3512L17.6185 35.2893L16.156 36.3512L16.7143 34.6363L16.0637 34.1633L15.2599 33.5852H17.0573L17.618 31.8702L18.1725 33.5852H19.9732L19.1666 34.1633ZM18.5117 19.2809L19.0686 20.9851L17.6185 19.9344L16.156 20.9851L16.7143 19.2809L15.2599 18.219H17.0573L17.618 16.5125L18.1725 18.219H19.9732L18.5117 19.2809ZM25.6655 44.1599L24.2106 43.098L22.7548 44.1599L23.3103 42.4402L21.8578 41.3915H23.6523L24.2106 39.6718L24.7637 41.3915H26.5659L25.1077 42.4402L25.6655 44.1599ZM25.2476 27.4368L25.8017 29.1433L24.344 28.0832L22.8891 29.1433L23.4464 27.4368L21.9897 26.3791H23.7852L24.344 24.6689L24.898 26.3791H26.6978L25.2476 27.4368ZM25.3819 12.2511L25.9345 13.9576L24.4834 12.9064L23.0243 13.9571L23.5774 12.2511L22.1282 11.1934H23.9195L24.4834 9.48268L25.0309 11.1929H26.8316L25.3819 12.2511ZM32.5272 51.0074L31.077 49.9497L29.6188 51.0074L30.1743 49.2944L28.7208 48.239H30.5187L31.077 46.5326L31.6268 48.239H33.4266L31.9741 49.2944L32.5272 51.0074ZM32.6252 34.1633L31.9741 34.6363L32.5272 36.3512L31.077 35.2893L29.6188 36.3512L30.1743 34.6363L29.5237 34.1633L28.7208 33.5852H30.5187L31.077 31.8702L31.6268 33.5852H33.4266L32.6252 34.1633ZM31.9741 19.2809L32.5272 20.9851L31.077 19.9344L29.6188 20.9851L30.1743 19.2809L28.7208 18.219H30.5187L31.077 16.5125L31.6268 18.219H33.4266L31.9741 19.2809ZM39.1288 44.1599L37.6673 43.098L36.2171 44.1599L36.7721 42.4402L35.3121 41.3915H37.1151L37.6673 39.6718L38.227 41.3915H40.0244L38.5676 42.4402L39.1288 44.1599ZM38.7038 27.4368L39.2593 29.1433L37.8034 28.0832L36.3476 29.1433L36.9031 27.4368L35.4496 26.3791H37.2517L37.8034 24.6689L38.3589 26.3791H40.154L38.7038 27.4368ZM38.8404 12.2511L39.3935 13.9576L37.9434 12.9064L36.4828 13.9571L37.0388 12.2511L35.5867 11.1934H37.378L37.9434 9.48268L38.4918 11.1929H40.2906L38.8404 12.2511ZM45.9933 51.0074L44.5388 49.9497L43.0779 51.0074L43.6361 49.2944L42.1803 48.239H43.9749L44.5388 46.5326L45.0877 48.239H46.8851L45.434 49.2944L45.9933 51.0074ZM46.0861 34.1633L45.434 34.6363L45.9937 36.3512L44.5388 35.2893L43.0779 36.3512L43.6361 34.6363L42.9864 34.1633L42.1808 33.5852H43.9749L44.5388 31.8702L45.0877 33.5852H46.8851L46.0861 34.1633ZM45.434 19.2809L45.9937 20.9851L44.5388 19.9344L43.0779 20.9851L43.6361 19.2809L42.1803 18.219H43.9749L44.5388 16.5125L45.0877 18.219H46.8851L45.434 19.2809ZM45.434 4.26388L45.9937 5.97269L44.5388 4.91734L43.0779 5.97269L43.6361 4.26435L42.1803 3.20428H43.9749L44.5388 1.49829L45.0877 3.20381H46.8851L45.434 4.26388ZM31.077 4.91734L32.5272 5.97505L31.9741 4.2667L32.1752 4.12159C31.4123 4.41574 30.6575 4.73026 29.9114 5.06481L29.6193 5.97505L31.077 4.91734Z" fill="white"/>
<path d="M31.0764 16.5125L30.5181 18.2189H28.7203L30.1737 19.2809L29.6183 20.985L31.0764 19.9343L32.5266 20.985L31.9735 19.2809L33.426 18.2189H31.6263L31.0764 16.5125ZM31.0764 31.8702L30.5181 33.5851H28.7203L29.5231 34.1632L30.1733 34.6362L29.6183 36.3512L31.0764 35.2892L32.5266 36.3512L31.9735 34.6362L32.6246 34.1632L33.426 33.5851H31.6263L31.0764 31.8702ZM31.6263 48.2389L31.0764 46.5325L30.5181 48.2389H28.7203L30.1737 49.2943L29.6183 51.0073L31.0764 49.9496L32.5266 51.0073L31.9735 49.2943L33.426 48.2389H31.6263ZM17.6179 16.5125L17.0572 18.2189H15.2594L16.7138 19.2809L16.1555 20.985L17.6179 19.9343L19.0681 20.985L18.5116 19.2809L19.9726 18.2189H18.172L17.6179 16.5125ZM17.6179 31.8702L17.0572 33.5851H15.2594L16.0631 34.1632L16.7138 34.6362L16.1555 36.3512L17.6179 35.2892L19.0681 36.3512L18.5116 34.6362L19.1661 34.1632L19.9726 33.5851H18.172L17.6179 31.8702ZM18.172 48.2389L17.6179 46.5325L17.0572 48.2389H15.2594L16.7138 49.2943L16.1555 51.0073L17.6179 49.9496L19.0681 51.0073L18.5116 49.2943L19.9726 48.2389H18.172ZM2.70117 36.3512L2.70965 36.345C2.72332 36.3026 2.73651 36.2588 2.74829 36.2108L2.70117 36.3512ZM4.16029 31.8702L3.77537 33.0353C3.90634 32.6791 4.05664 32.3272 4.19657 31.9799L4.16029 31.8702Z" fill="white"/>
<path d="M5.61667 36.3512L5.0579 34.6363L5.70807 34.1633L6.51231 33.5852H4.71208L4.1976 31.98C4.05767 32.3273 3.90738 32.6792 3.7764 33.0354L3.59831 33.5852H3.59077C3.46828 33.9324 3.35285 34.2759 3.23742 34.6208L3.25721 34.6363L2.74932 36.2108C2.73794 36.256 2.72505 36.3008 2.71069 36.3451L4.16132 35.2893L5.61714 36.3512H5.61667ZM4.71161 48.239L4.16038 46.5326L3.59784 48.239H1.80469L3.25674 49.2944L2.70174 51.0074L4.16085 49.9497L5.61667 51.0074L5.0579 49.2944L6.51231 48.239H4.71161ZM37.8034 24.6689L37.2517 26.3791H35.4492L36.9026 27.4368L36.3472 29.1433L37.803 28.0832L39.2588 29.1433L38.7033 27.4368L40.154 26.3791H38.3585L37.8034 24.6689ZM38.227 41.3915L37.6673 39.6718L37.1151 41.3915H35.3125L36.7731 42.4402L36.2171 44.1599L37.6678 43.098L39.1288 44.1599L38.5681 42.4402L40.0249 41.3915H38.227ZM24.344 24.6689L23.7852 26.3791H21.9902L23.4464 27.4368L22.8891 29.1433L24.344 28.0832L25.8017 29.1433L25.2476 27.4368L26.6978 26.3791H24.898L24.344 24.6689ZM24.7637 41.3915L24.2106 39.6718L23.6523 41.3915H21.8578L23.3103 42.4402L22.7548 44.1599L24.2106 43.098L25.6655 44.1599L25.1077 42.4402L26.5659 41.3915H24.7637ZM10.884 24.1384L10.3318 25.8425H8.52878L9.98224 26.9007L9.42724 28.6109L10.884 27.5475L12.3384 28.6114L11.7825 26.9011L13.2369 25.843H11.439L10.884 24.1384ZM11.3052 40.8506L10.7507 39.1465L10.1933 40.8506H8.39168L9.85126 41.9083L9.29532 43.6209L10.7511 42.5594L12.2079 43.6209L11.6482 41.9083L13.1059 40.8506H11.3052ZM44.5388 16.5125L43.9749 18.219H42.1808L43.6366 19.2809L43.0779 20.9851L44.5388 19.9344L45.9937 20.9851L45.434 19.2809L46.8851 18.219H45.0877L44.5388 16.5125ZM24.4834 9.48268L23.9195 11.1929H22.1282L23.5774 12.2511L23.0243 13.9576L24.4834 12.9064L25.9345 13.9571L25.3819 12.2511L26.8316 11.1934H25.0309L24.4834 9.48268ZM37.9434 9.48268L37.378 11.1929H35.5867L37.0383 12.2511L36.4833 13.9576L37.9434 12.9064L39.3935 13.9571L38.8404 12.2511L40.2906 11.1934H38.4918L37.9434 9.48268ZM44.5388 1.49829L43.9749 3.20381H42.1808L43.6366 4.26388L43.0779 5.97222L44.5388 4.91687L45.9937 5.97222L45.434 4.26388L46.8851 3.20381H45.0877L44.5388 1.49829ZM44.5388 31.8702L43.9749 33.5852H42.1808L42.9864 34.1633L43.6366 34.6363L43.0779 36.3512L44.5388 35.2893L45.9937 36.3512L45.434 34.6363L46.0861 34.1633L46.8851 33.5852H45.0877L44.5388 31.8702ZM45.0877 48.239L44.5388 46.5326L43.9749 48.239H42.1808L43.6366 49.2944L43.0779 51.0074L44.5388 49.9497L45.9937 51.0074L45.434 49.2944L46.8851 48.239H45.0877Z" fill="white"/>
</g>
<defs>
<clipPath id="clip0_4287_10578">
<rect width="100" height="100" fill="white"/>
</clipPath>
</defs>
</svg>
