<svg width="300" height="60" viewBox="0 0 300 60" fill="none" xmlns="http://www.w3.org/2000/svg">
<rect x="0.5" y="0.5" width="299" height="59" rx="7.5" fill="white"/>
<rect x="0.5" y="0.5" width="299" height="59" rx="7.5" stroke="#D9D9D9"/>
<g clip-path="url(#clip0_2024_5470)">
<path d="M24 20H54V40H24" fill="#B31942"/>
<path d="M24 22.3076H54H24ZM54 25.3845H24H54ZM24 28.4615H54H24ZM54 31.5384H24H54ZM24 34.6153H54H24ZM54 37.6922H24H54Z" fill="black"/>
<path d="M54 36.9424V38.4424H24V36.9424H54ZM54 33.8652V35.3652H24V33.8652H54ZM54 30.7881V32.2881H24V30.7881H54ZM54 27.7119V29.2119H24V27.7119H54ZM54 24.6348V26.1348H24V24.6348H54ZM54 21.5576V23.0576H24V21.5576H54Z" fill="white"/>
<path d="M24 20H36V30.7692H24" fill="#0A3161"/>
<path d="M24.9992 20.4614L25.2847 21.5747L24.5371 20.8866H25.4612L24.7136 21.5747L24.9992 20.4614Z" fill="white"/>
<path d="M24.9992 22.6152L25.2847 23.7285L24.5371 23.0405H25.4612L24.7136 23.7285L24.9992 22.6152Z" fill="white"/>
<path d="M24.9992 24.769L25.2847 25.8823L24.5371 25.1943H25.4612L24.7136 25.8823L24.9992 24.769Z" fill="white"/>
<path d="M24.9992 26.9229L25.2847 28.0361L24.5371 27.3481H25.4612L24.7136 28.0361L24.9992 26.9229Z" fill="white"/>
<path d="M24.9992 29.0769L25.2847 30.1901L24.5371 29.5021H25.4612L24.7136 30.1901L24.9992 29.0769Z" fill="white"/>
<path d="M25.9992 21.5383L26.2847 22.6516L25.5371 21.9636H26.4612L25.7136 22.6516L25.9992 21.5383Z" fill="white"/>
<path d="M25.9992 23.6921L26.2847 24.8054L25.5371 24.1174H26.4612L25.7136 24.8054L25.9992 23.6921Z" fill="white"/>
<path d="M25.9992 25.8459L26.2847 26.9592L25.5371 26.2712H26.4612L25.7136 26.9592L25.9992 25.8459Z" fill="white"/>
<path d="M25.9992 27.9998L26.2847 29.113L25.5371 28.425H26.4612L25.7136 29.113L25.9992 27.9998Z" fill="white"/>
<path d="M26.9992 20.4614L27.2847 21.5747L26.5371 20.8866H27.4612L26.7136 21.5747L26.9992 20.4614Z" fill="white"/>
<path d="M26.9992 22.6152L27.2847 23.7285L26.5371 23.0405H27.4612L26.7136 23.7285L26.9992 22.6152Z" fill="white"/>
<path d="M26.9992 24.769L27.2847 25.8823L26.5371 25.1943H27.4612L26.7136 25.8823L26.9992 24.769Z" fill="white"/>
<path d="M26.9992 26.9229L27.2847 28.0361L26.5371 27.3481H27.4612L26.7136 28.0361L26.9992 26.9229Z" fill="white"/>
<path d="M26.9992 29.0769L27.2847 30.1901L26.5371 29.5021H27.4612L26.7136 30.1901L26.9992 29.0769Z" fill="white"/>
<path d="M27.9992 21.5383L28.2847 22.6516L27.5371 21.9636H28.4612L27.7136 22.6516L27.9992 21.5383Z" fill="white"/>
<path d="M27.9992 23.6921L28.2847 24.8054L27.5371 24.1174H28.4612L27.7136 24.8054L27.9992 23.6921Z" fill="white"/>
<path d="M27.9992 25.8459L28.2847 26.9592L27.5371 26.2712H28.4612L27.7136 26.9592L27.9992 25.8459Z" fill="white"/>
<path d="M27.9992 27.9998L28.2847 29.113L27.5371 28.425H28.4612L27.7136 29.113L27.9992 27.9998Z" fill="white"/>
<path d="M28.9992 20.4614L29.2847 21.5747L28.5371 20.8866H29.4612L28.7136 21.5747L28.9992 20.4614Z" fill="white"/>
<path d="M28.9992 22.6152L29.2847 23.7285L28.5371 23.0405H29.4612L28.7136 23.7285L28.9992 22.6152Z" fill="white"/>
<path d="M28.9992 24.769L29.2847 25.8823L28.5371 25.1943H29.4612L28.7136 25.8823L28.9992 24.769Z" fill="white"/>
<path d="M28.9992 26.9229L29.2847 28.0361L28.5371 27.3481H29.4612L28.7136 28.0361L28.9992 26.9229Z" fill="white"/>
<path d="M28.9992 29.0769L29.2847 30.1901L28.5371 29.5021H29.4612L28.7136 30.1901L28.9992 29.0769Z" fill="white"/>
<path d="M29.9992 21.5383L30.2847 22.6516L29.5371 21.9636H30.4612L29.7136 22.6516L29.9992 21.5383Z" fill="white"/>
<path d="M29.9992 23.6921L30.2847 24.8054L29.5371 24.1174H30.4612L29.7136 24.8054L29.9992 23.6921Z" fill="white"/>
<path d="M29.9992 25.8459L30.2847 26.9592L29.5371 26.2712H30.4612L29.7136 26.9592L29.9992 25.8459Z" fill="white"/>
<path d="M29.9992 27.9998L30.2847 29.113L29.5371 28.425H30.4612L29.7136 29.113L29.9992 27.9998Z" fill="white"/>
<path d="M30.9992 20.4614L31.2847 21.5747L30.5371 20.8866H31.4612L30.7136 21.5747L30.9992 20.4614Z" fill="white"/>
<path d="M30.9992 22.6152L31.2847 23.7285L30.5371 23.0405H31.4612L30.7136 23.7285L30.9992 22.6152Z" fill="white"/>
<path d="M30.9992 24.769L31.2847 25.8823L30.5371 25.1943H31.4612L30.7136 25.8823L30.9992 24.769Z" fill="white"/>
<path d="M30.9992 26.9229L31.2847 28.0361L30.5371 27.3481H31.4612L30.7136 28.0361L30.9992 26.9229Z" fill="white"/>
<path d="M30.9992 29.0769L31.2847 30.1901L30.5371 29.5021H31.4612L30.7136 30.1901L30.9992 29.0769Z" fill="white"/>
<path d="M31.9992 21.5383L32.2847 22.6516L31.5371 21.9636H32.4612L31.7136 22.6516L31.9992 21.5383Z" fill="white"/>
<path d="M31.9992 23.6921L32.2847 24.8054L31.5371 24.1174H32.4612L31.7136 24.8054L31.9992 23.6921Z" fill="white"/>
<path d="M31.9992 25.8459L32.2847 26.9592L31.5371 26.2712H32.4612L31.7136 26.9592L31.9992 25.8459Z" fill="white"/>
<path d="M31.9992 27.9998L32.2847 29.113L31.5371 28.425H32.4612L31.7136 29.113L31.9992 27.9998Z" fill="white"/>
<path d="M32.9992 20.4614L33.2847 21.5747L32.5371 20.8866H33.4612L32.7136 21.5747L32.9992 20.4614Z" fill="white"/>
<path d="M32.9992 22.6152L33.2847 23.7285L32.5371 23.0405H33.4612L32.7136 23.7285L32.9992 22.6152Z" fill="white"/>
<path d="M32.9992 24.769L33.2847 25.8823L32.5371 25.1943H33.4612L32.7136 25.8823L32.9992 24.769Z" fill="white"/>
<path d="M32.9992 26.9229L33.2847 28.0361L32.5371 27.3481H33.4612L32.7136 28.0361L32.9992 26.9229Z" fill="white"/>
<path d="M32.9992 29.0769L33.2847 30.1901L32.5371 29.5021H33.4612L32.7136 30.1901L32.9992 29.0769Z" fill="white"/>
<path d="M33.9992 21.5383L34.2847 22.6516L33.5371 21.9636H34.4612L33.7136 22.6516L33.9992 21.5383Z" fill="white"/>
<path d="M33.9992 23.6921L34.2847 24.8054L33.5371 24.1174H34.4612L33.7136 24.8054L33.9992 23.6921Z" fill="white"/>
<path d="M33.9992 25.8459L34.2847 26.9592L33.5371 26.2712H34.4612L33.7136 26.9592L33.9992 25.8459Z" fill="white"/>
<path d="M33.9992 27.9998L34.2847 29.113L33.5371 28.425H34.4612L33.7136 29.113L33.9992 27.9998Z" fill="white"/>
<path d="M34.9992 20.4614L35.2847 21.5747L34.5371 20.8866H35.4612L34.7136 21.5747L34.9992 20.4614Z" fill="white"/>
<path d="M34.9992 22.6152L35.2847 23.7285L34.5371 23.0405H35.4612L34.7136 23.7285L34.9992 22.6152Z" fill="white"/>
<path d="M34.9992 24.769L35.2847 25.8823L34.5371 25.1943H35.4612L34.7136 25.8823L34.9992 24.769Z" fill="white"/>
<path d="M34.9992 26.9229L35.2847 28.0361L34.5371 27.3481H35.4612L34.7136 28.0361L34.9992 26.9229Z" fill="white"/>
<path d="M34.9992 29.0769L35.2847 30.1901L34.5371 29.5021H35.4612L34.7136 30.1901L34.9992 29.0769Z" fill="white"/>
</g>
<path d="M82.1989 24.3636H84.6591V31.9205C84.6591 32.7689 84.4564 33.5114 84.0511 34.1477C83.6496 34.7841 83.0871 35.2803 82.3636 35.6364C81.6402 35.9886 80.7973 36.1648 79.8352 36.1648C78.8693 36.1648 78.0246 35.9886 77.3011 35.6364C76.5777 35.2803 76.0152 34.7841 75.6136 34.1477C75.2121 33.5114 75.0114 32.7689 75.0114 31.9205V24.3636H77.4716V31.7102C77.4716 32.1534 77.5682 32.5473 77.7614 32.892C77.9583 33.2367 78.2348 33.5076 78.5909 33.7045C78.947 33.9015 79.3617 34 79.8352 34C80.3125 34 80.7273 33.9015 81.0795 33.7045C81.4356 33.5076 81.7102 33.2367 81.9034 32.892C82.1004 32.5473 82.1989 32.1534 82.1989 31.7102V24.3636ZM92.8357 27.7102C92.7903 27.2519 92.5952 26.8958 92.2505 26.642C91.9058 26.3883 91.438 26.2614 90.8471 26.2614C90.4456 26.2614 90.1066 26.3182 89.8301 26.4318C89.5535 26.5417 89.3414 26.6951 89.1937 26.892C89.0498 27.089 88.9778 27.3125 88.9778 27.5625C88.9702 27.7708 89.0138 27.9527 89.1085 28.108C89.207 28.2633 89.3414 28.3977 89.5119 28.5114C89.6823 28.6212 89.8793 28.7178 90.1028 28.8011C90.3263 28.8807 90.5649 28.9489 90.8187 29.0057L91.8641 29.2557C92.3717 29.3693 92.8376 29.5208 93.2619 29.7102C93.6861 29.8996 94.0535 30.1326 94.3641 30.4091C94.6748 30.6856 94.9153 31.0114 95.0857 31.3864C95.26 31.7614 95.349 32.1913 95.3528 32.6761C95.349 33.3883 95.1672 34.0057 94.8073 34.5284C94.4513 35.0473 93.9361 35.4508 93.2619 35.7386C92.5914 36.0227 91.7827 36.1648 90.8357 36.1648C89.8963 36.1648 89.0782 36.0208 88.3812 35.733C87.688 35.4451 87.1463 35.0189 86.7562 34.4545C86.3698 33.8864 86.1672 33.1837 86.1482 32.3466H88.5289C88.5554 32.7367 88.6672 33.0625 88.8641 33.3239C89.0649 33.5814 89.332 33.7765 89.6653 33.9091C90.0024 34.0379 90.3831 34.1023 90.8073 34.1023C91.224 34.1023 91.5857 34.0417 91.8926 33.9205C92.2032 33.7992 92.4437 33.6307 92.6141 33.4148C92.7846 33.1989 92.8698 32.9508 92.8698 32.6705C92.8698 32.4091 92.7922 32.1894 92.6369 32.0114C92.4854 31.8333 92.2619 31.6818 91.9664 31.5568C91.6748 31.4318 91.3168 31.3182 90.8926 31.2159L89.6255 30.8977C88.6445 30.6591 87.8698 30.286 87.3016 29.7784C86.7335 29.2708 86.4513 28.5871 86.4551 27.7273C86.4513 27.0227 86.6388 26.4072 87.0176 25.8807C87.4001 25.3542 87.9248 24.9432 88.5914 24.6477C89.2581 24.3523 90.0157 24.2045 90.8641 24.2045C91.7278 24.2045 92.4816 24.3523 93.1255 24.6477C93.7732 24.9432 94.277 25.3542 94.6369 25.8807C94.9967 26.4072 95.1823 27.017 95.1937 27.7102H92.8357ZM100.973 36H96.8476V24.3636H101.007C102.177 24.3636 103.185 24.5966 104.029 25.0625C104.874 25.5246 105.524 26.1894 105.978 27.0568C106.437 27.9242 106.666 28.9621 106.666 30.1705C106.666 31.3826 106.437 32.4242 105.978 33.2955C105.524 34.1667 104.87 34.8352 104.018 35.3011C103.17 35.767 102.154 36 100.973 36ZM99.3078 33.892H100.87C101.598 33.892 102.209 33.7633 102.706 33.5057C103.206 33.2443 103.581 32.8409 103.831 32.2955C104.084 31.7462 104.211 31.0379 104.211 30.1705C104.211 29.3106 104.084 28.608 103.831 28.0625C103.581 27.517 103.207 27.1155 102.711 26.858C102.215 26.6004 101.603 26.4716 100.876 26.4716H99.3078V33.892Z" fill="#2B2B2B"/>
<path d="M200.193 36.1591C199.39 36.1591 198.674 36.0114 198.045 35.7159C197.42 35.4205 196.924 35.0133 196.557 34.4943C196.189 33.9754 195.998 33.3807 195.983 32.7102H198.369C198.396 33.161 198.585 33.5265 198.938 33.8068C199.29 34.0871 199.708 34.2273 200.193 34.2273C200.58 34.2273 200.92 34.142 201.216 33.9716C201.515 33.7973 201.748 33.5568 201.915 33.25C202.085 32.9394 202.17 32.5833 202.17 32.1818C202.17 31.7727 202.083 31.4129 201.909 31.1023C201.739 30.7917 201.502 30.5492 201.199 30.375C200.896 30.2008 200.549 30.1117 200.159 30.108C199.818 30.108 199.487 30.178 199.165 30.3182C198.847 30.4583 198.598 30.6496 198.42 30.892L196.233 30.5L196.784 24.3636H203.898V26.375H198.812L198.511 29.2898H198.58C198.784 29.0019 199.093 28.7633 199.506 28.5739C199.919 28.3845 200.381 28.2898 200.892 28.2898C201.593 28.2898 202.218 28.4545 202.767 28.7841C203.316 29.1136 203.75 29.5663 204.068 30.142C204.386 30.714 204.544 31.3731 204.54 32.1193C204.544 32.9034 204.362 33.6004 203.994 34.2102C203.631 34.8163 203.121 35.2936 202.466 35.642C201.814 35.9867 201.057 36.1591 200.193 36.1591ZM206.096 36V34.2273L210.238 30.392C210.59 30.0511 210.885 29.7443 211.124 29.4716C211.367 29.1989 211.55 28.9318 211.675 28.6705C211.8 28.4053 211.863 28.1193 211.863 27.8125C211.863 27.4716 211.785 27.178 211.63 26.9318C211.474 26.6818 211.262 26.4905 210.993 26.358C210.724 26.2216 210.42 26.1534 210.079 26.1534C209.723 26.1534 209.412 26.2254 209.147 26.3693C208.882 26.5133 208.677 26.7197 208.533 26.9886C208.389 27.2576 208.317 27.5777 208.317 27.9489H205.982C205.982 27.1875 206.154 26.5265 206.499 25.9659C206.844 25.4053 207.327 24.9716 207.948 24.6648C208.569 24.358 209.285 24.2045 210.096 24.2045C210.929 24.2045 211.654 24.3523 212.272 24.6477C212.893 24.9394 213.376 25.3447 213.721 25.8636C214.065 26.3826 214.238 26.9773 214.238 27.6477C214.238 28.0871 214.151 28.5208 213.976 28.9489C213.806 29.3769 213.501 29.8523 213.062 30.375C212.622 30.8939 212.003 31.517 211.204 32.2443L209.505 33.9091V33.9886H214.391V36H206.096ZM218.667 34.4091L218.605 35.0341C218.555 35.5341 218.461 36.0322 218.321 36.5284C218.184 37.0284 218.04 37.4811 217.889 37.8864C217.741 38.2917 217.622 38.6098 217.531 38.8409H215.963C216.019 38.6174 216.097 38.3049 216.196 37.9034C216.294 37.5057 216.387 37.0587 216.474 36.5625C216.561 36.0663 216.616 35.5606 216.639 35.0455L216.667 34.4091H218.667ZM224.624 36.1591C223.775 36.1591 223.02 36.0133 222.357 35.7216C221.698 35.4261 221.177 35.0208 220.794 34.5057C220.415 33.9867 220.22 33.3883 220.209 32.7102H222.686C222.701 32.9943 222.794 33.2443 222.965 33.4602C223.139 33.6723 223.37 33.8371 223.658 33.9545C223.946 34.072 224.27 34.1307 224.629 34.1307C225.004 34.1307 225.336 34.0644 225.624 33.9318C225.912 33.7992 226.137 33.6155 226.3 33.3807C226.463 33.1458 226.544 32.875 226.544 32.5682C226.544 32.2576 226.457 31.983 226.283 31.7443C226.112 31.5019 225.866 31.3125 225.544 31.1761C225.226 31.0398 224.847 30.9716 224.408 30.9716H223.323V29.1648H224.408C224.779 29.1648 225.107 29.1004 225.391 28.9716C225.679 28.8428 225.902 28.6648 226.061 28.4375C226.22 28.2064 226.3 27.9375 226.3 27.6307C226.3 27.339 226.23 27.0833 226.09 26.8636C225.953 26.6402 225.76 26.4659 225.51 26.3409C225.264 26.2159 224.976 26.1534 224.646 26.1534C224.313 26.1534 224.008 26.214 223.732 26.3352C223.455 26.4527 223.234 26.6212 223.067 26.8409C222.9 27.0606 222.811 27.3182 222.8 27.6136H220.442C220.453 26.9432 220.645 26.3523 221.016 25.8409C221.387 25.3295 221.887 24.9299 222.516 24.642C223.148 24.3504 223.862 24.2045 224.658 24.2045C225.461 24.2045 226.163 24.3504 226.766 24.642C227.368 24.9337 227.836 25.3277 228.169 25.8239C228.506 26.3163 228.673 26.8693 228.669 27.483C228.673 28.1345 228.47 28.678 228.061 29.1136C227.656 29.5492 227.127 29.8258 226.476 29.9432V30.0341C227.332 30.1439 227.984 30.4413 228.431 30.9261C228.881 31.4072 229.105 32.0095 229.101 32.733C229.105 33.3958 228.913 33.9848 228.527 34.5C228.145 35.0152 227.616 35.4205 226.942 35.7159C226.268 36.0114 225.495 36.1591 224.624 36.1591ZM235.175 36.1591C234.577 36.1553 233.999 36.0549 233.442 35.858C232.889 35.661 232.393 35.3409 231.954 34.8977C231.514 34.4545 231.166 33.8674 230.908 33.1364C230.655 32.4053 230.528 31.5076 230.528 30.4432C230.531 29.4659 230.643 28.5928 230.863 27.8239C231.086 27.0511 231.405 26.3958 231.817 25.858C232.234 25.3201 232.732 24.911 233.312 24.6307C233.891 24.3466 234.541 24.2045 235.261 24.2045C236.037 24.2045 236.723 24.3561 237.317 24.6591C237.912 24.9583 238.389 25.3655 238.749 25.8807C239.113 26.3958 239.333 26.9735 239.408 27.6136H236.982C236.887 27.2083 236.689 26.8902 236.386 26.6591C236.083 26.428 235.708 26.3125 235.261 26.3125C234.503 26.3125 233.927 26.642 233.533 27.3011C233.143 27.9602 232.944 28.8561 232.937 29.9886H233.016C233.19 29.6439 233.425 29.3504 233.721 29.108C234.02 28.8617 234.359 28.6742 234.738 28.5455C235.12 28.4129 235.524 28.3466 235.948 28.3466C236.637 28.3466 237.251 28.5095 237.789 28.8352C238.327 29.1572 238.751 29.6004 239.062 30.1648C239.372 30.7292 239.528 31.375 239.528 32.1023C239.528 32.8902 239.344 33.5909 238.976 34.2045C238.613 34.8182 238.103 35.2992 237.448 35.6477C236.797 35.9924 236.039 36.1629 235.175 36.1591ZM235.164 34.2273C235.543 34.2273 235.882 34.1364 236.181 33.9545C236.48 33.7727 236.715 33.5265 236.886 33.2159C237.056 32.9053 237.141 32.5568 237.141 32.1705C237.141 31.7841 237.056 31.4375 236.886 31.1307C236.719 30.8239 236.488 30.5795 236.192 30.3977C235.897 30.2159 235.56 30.125 235.181 30.125C234.897 30.125 234.634 30.178 234.391 30.2841C234.153 30.3902 233.942 30.5379 233.761 30.7273C233.583 30.9167 233.442 31.1364 233.34 31.3864C233.238 31.6326 233.187 31.8958 233.187 32.1761C233.187 32.5511 233.272 32.8939 233.442 33.2045C233.617 33.5152 233.851 33.7633 234.147 33.9489C234.446 34.1345 234.785 34.2273 235.164 34.2273ZM245.322 24.2045C245.921 24.2045 246.496 24.3049 247.049 24.5057C247.606 24.7064 248.102 25.0265 248.538 25.4659C248.977 25.9053 249.324 26.4886 249.578 27.2159C249.835 27.9394 249.966 28.8277 249.97 29.8807C249.97 30.8693 249.858 31.7519 249.635 32.5284C249.415 33.3011 249.099 33.9583 248.686 34.5C248.273 35.0417 247.775 35.4545 247.191 35.7386C246.608 36.0189 245.957 36.1591 245.237 36.1591C244.46 36.1591 243.775 36.0095 243.18 35.7102C242.585 35.4072 242.106 34.9962 241.743 34.4773C241.383 33.9545 241.165 33.3674 241.089 32.7159H243.515C243.61 33.1402 243.809 33.4697 244.112 33.7045C244.415 33.9356 244.79 34.0511 245.237 34.0511C245.995 34.0511 246.57 33.7216 246.964 33.0625C247.358 32.3996 247.557 31.4924 247.561 30.3409H247.481C247.307 30.6818 247.072 30.9754 246.777 31.2216C246.481 31.464 246.142 31.6515 245.76 31.7841C245.381 31.9167 244.977 31.983 244.549 31.983C243.864 31.983 243.252 31.822 242.714 31.5C242.176 31.178 241.752 30.7348 241.441 30.1705C241.131 29.6061 240.976 28.9621 240.976 28.2386C240.972 27.4583 241.152 26.7633 241.515 26.1534C241.879 25.5436 242.387 25.0663 243.038 24.7216C243.693 24.3731 244.455 24.2008 245.322 24.2045ZM245.339 26.1364C244.957 26.1364 244.616 26.2273 244.316 26.4091C244.021 26.5909 243.786 26.8352 243.612 27.142C243.441 27.4489 243.358 27.7917 243.362 28.1705C243.362 28.553 243.445 28.8977 243.612 29.2045C243.782 29.5076 244.013 29.75 244.305 29.9318C244.601 30.1098 244.938 30.1989 245.316 30.1989C245.601 30.1989 245.864 30.1458 246.106 30.0398C246.349 29.9337 246.559 29.7879 246.737 29.6023C246.919 29.4129 247.061 29.1951 247.163 28.9489C247.265 28.7027 247.316 28.4413 247.316 28.1648C247.313 27.7973 247.226 27.4602 247.055 27.1534C246.885 26.8466 246.65 26.6004 246.351 26.4148C246.051 26.2292 245.714 26.1364 245.339 26.1364ZM252.483 36.1477C252.108 36.1477 251.786 36.0152 251.517 35.75C251.252 35.4811 251.12 35.1591 251.12 34.7841C251.12 34.4129 251.252 34.0947 251.517 33.8295C251.786 33.5644 252.108 33.4318 252.483 33.4318C252.847 33.4318 253.165 33.5644 253.438 33.8295C253.71 34.0947 253.847 34.4129 253.847 34.7841C253.847 35.0341 253.782 35.2633 253.654 35.4716C253.529 35.6761 253.364 35.8409 253.159 35.9659C252.955 36.0871 252.729 36.1477 252.483 36.1477ZM255.651 36V34.2273L259.793 30.392C260.146 30.0511 260.441 29.7443 260.68 29.4716C260.922 29.1989 261.106 28.9318 261.231 28.6705C261.356 28.4053 261.418 28.1193 261.418 27.8125C261.418 27.4716 261.341 27.178 261.185 26.9318C261.03 26.6818 260.818 26.4905 260.549 26.358C260.28 26.2216 259.975 26.1534 259.634 26.1534C259.278 26.1534 258.968 26.2254 258.702 26.3693C258.437 26.5133 258.233 26.7197 258.089 26.9886C257.945 27.2576 257.873 27.5777 257.873 27.9489H255.538C255.538 27.1875 255.71 26.5265 256.055 25.9659C256.399 25.4053 256.882 24.9716 257.504 24.6648C258.125 24.358 258.841 24.2045 259.651 24.2045C260.485 24.2045 261.21 24.3523 261.827 24.6477C262.449 24.9394 262.932 25.3447 263.276 25.8636C263.621 26.3826 263.793 26.9773 263.793 27.6477C263.793 28.0871 263.706 28.5208 263.532 28.9489C263.362 29.3769 263.057 29.8523 262.617 30.375C262.178 30.8939 261.559 31.517 260.759 32.2443L259.06 33.9091V33.9886H263.947V36H255.651ZM270.132 36.2557C269.155 36.2519 268.314 36.0114 267.609 35.5341C266.908 35.0568 266.369 34.3655 265.99 33.4602C265.615 32.5549 265.429 31.4659 265.433 30.1932C265.433 28.9242 265.621 27.8428 265.996 26.9489C266.374 26.0549 266.914 25.375 267.615 24.9091C268.319 24.4394 269.158 24.2045 270.132 24.2045C271.105 24.2045 271.943 24.4394 272.643 24.9091C273.348 25.3788 273.89 26.0606 274.268 26.9545C274.647 27.8447 274.835 28.9242 274.831 30.1932C274.831 31.4697 274.641 32.5606 274.263 33.4659C273.888 34.3712 273.35 35.0625 272.649 35.5398C271.948 36.017 271.109 36.2557 270.132 36.2557ZM270.132 34.2159C270.799 34.2159 271.331 33.8807 271.729 33.2102C272.126 32.5398 272.323 31.5341 272.319 30.1932C272.319 29.3106 272.229 28.5758 272.047 27.9886C271.869 27.4015 271.615 26.9602 271.285 26.6648C270.96 26.3693 270.575 26.2216 270.132 26.2216C269.469 26.2216 268.939 26.553 268.541 27.2159C268.143 27.8788 267.943 28.8712 267.939 30.1932C267.939 31.0871 268.028 31.8333 268.206 32.4318C268.388 33.0265 268.643 33.4735 268.973 33.7727C269.302 34.0682 269.689 34.2159 270.132 34.2159Z" fill="#667085"/>
<defs>
<clipPath id="clip0_2024_5470">
<rect width="30" height="20" fill="white" transform="translate(24 20)"/>
</clipPath>
</defs>
</svg>
