<svg width="228" height="226" viewBox="0 0 228 226" fill="none" xmlns="http://www.w3.org/2000/svg">
<g clip-path="url(#clip0_1911_5564)">
<path d="M35 0H225V100H35" fill="#B22234"/>
<path d="M35 11.5386H225H35ZM225 26.9232H35H225ZM35 42.3078H225H35ZM225 57.6924H35H225ZM35 73.077H225H35ZM225 88.4616H35H225Z" fill="black"/>
<path d="M224.998 84.7113V92.2104H35V84.7113H224.998ZM224.998 69.3263V76.8255H35V69.3263H224.998ZM224.998 53.9414V61.4406H35V53.9414H224.998ZM224.998 38.5565V46.0557H35V38.5565H224.998ZM224.998 23.1715V30.6748H35V23.1715H224.998ZM224.998 7.78662V15.2899H35V7.78662H224.998Z" fill="white"/>
<path d="M35 0H111V53.8462H35" fill="#3C3B6E"/>
<path d="M60.3326 7.69238L62.1411 13.2586L57.4062 9.81849H63.2589L58.524 13.2586L60.3326 7.69238Z" fill="white"/>
<path d="M60.3326 18.4614L62.1411 24.0276L57.4062 20.5875H63.2589L58.524 24.0276L60.3326 18.4614Z" fill="white"/>
<path d="M60.3326 29.231L62.1411 34.7972L57.4062 31.3571H63.2589L58.524 34.7972L60.3326 29.231Z" fill="white"/>
<path d="M60.3326 40L62.1411 45.5662L57.4062 42.1261H63.2589L58.524 45.5662L60.3326 40Z" fill="white"/>
<path d="M66.6665 2.30762L68.4751 7.87382L63.7402 4.43372H69.5929L64.858 7.87382L66.6665 2.30762Z" fill="white"/>
<path d="M66.6665 13.0767L68.4751 18.6429L63.7402 15.2028H69.5929L64.858 18.6429L66.6665 13.0767Z" fill="white"/>
<path d="M66.6665 23.8462L68.4751 29.4124L63.7402 25.9723H69.5929L64.858 29.4124L66.6665 23.8462Z" fill="white"/>
<path d="M66.6665 34.6152L68.4751 40.1814L63.7402 36.7413H69.5929L64.858 40.1814L66.6665 34.6152Z" fill="white"/>
<path d="M66.6665 45.3848L68.4751 50.951L63.7402 47.5109H69.5929L64.858 50.951L66.6665 45.3848Z" fill="white"/>
<path d="M73.0005 7.69238L74.8091 13.2586L70.0742 9.81849H75.9269L71.192 13.2586L73.0005 7.69238Z" fill="white"/>
<path d="M73.0005 18.4614L74.8091 24.0276L70.0742 20.5875H75.9269L71.192 24.0276L73.0005 18.4614Z" fill="white"/>
<path d="M73.0005 29.231L74.8091 34.7972L70.0742 31.3571H75.9269L71.192 34.7972L73.0005 29.231Z" fill="white"/>
<path d="M73.0005 40L74.8091 45.5662L70.0742 42.1261H75.9269L71.192 45.5662L73.0005 40Z" fill="white"/>
<path d="M79.3326 2.30762L81.1411 7.87382L76.4062 4.43372H82.2589L77.524 7.87382L79.3326 2.30762Z" fill="white"/>
<path d="M79.3326 13.0767L81.1411 18.6429L76.4062 15.2028H82.2589L77.524 18.6429L79.3326 13.0767Z" fill="white"/>
<path d="M79.3326 23.8462L81.1411 29.4124L76.4062 25.9723H82.2589L77.524 29.4124L79.3326 23.8462Z" fill="white"/>
<path d="M79.3326 34.6152L81.1411 40.1814L76.4062 36.7413H82.2589L77.524 40.1814L79.3326 34.6152Z" fill="white"/>
<path d="M79.3326 45.3848L81.1411 50.951L76.4062 47.5109H82.2589L77.524 50.951L79.3326 45.3848Z" fill="white"/>
<path d="M85.6665 7.69238L87.4751 13.2586L82.7402 9.81849H88.5929L83.858 13.2586L85.6665 7.69238Z" fill="white"/>
<path d="M85.6665 18.4614L87.4751 24.0276L82.7402 20.5875H88.5929L83.858 24.0276L85.6665 18.4614Z" fill="white"/>
<path d="M85.6665 29.231L87.4751 34.7972L82.7402 31.3571H88.5929L83.858 34.7972L85.6665 29.231Z" fill="white"/>
<path d="M85.6665 40L87.4751 45.5662L82.7402 42.1261H88.5929L83.858 45.5662L85.6665 40Z" fill="white"/>
<path d="M91.9986 2.30762L93.8071 7.87382L89.0723 4.43372H94.9249L90.19 7.87382L91.9986 2.30762Z" fill="white"/>
<path d="M91.9986 13.0767L93.8071 18.6429L89.0723 15.2028H94.9249L90.19 18.6429L91.9986 13.0767Z" fill="white"/>
<path d="M91.9986 23.8462L93.8071 29.4124L89.0723 25.9723H94.9249L90.19 29.4124L91.9986 23.8462Z" fill="white"/>
<path d="M91.9986 34.6152L93.8071 40.1814L89.0723 36.7413H94.9249L90.19 40.1814L91.9986 34.6152Z" fill="white"/>
<path d="M91.9986 45.3848L93.8071 50.951L89.0723 47.5109H94.9249L90.19 50.951L91.9986 45.3848Z" fill="white"/>
<path d="M98.3326 7.69238L100.141 13.2586L95.4062 9.81849H101.259L96.524 13.2586L98.3326 7.69238Z" fill="white"/>
<path d="M98.3326 18.4614L100.141 24.0276L95.4062 20.5875H101.259L96.524 24.0276L98.3326 18.4614Z" fill="white"/>
<path d="M98.3326 29.231L100.141 34.7972L95.4062 31.3571H101.259L96.524 34.7972L98.3326 29.231Z" fill="white"/>
<path d="M98.3326 40L100.141 45.5662L95.4062 42.1261H101.259L96.524 45.5662L98.3326 40Z" fill="white"/>
<path d="M104.667 2.30762L106.475 7.87382L101.74 4.43372H107.593L102.858 7.87382L104.667 2.30762Z" fill="white"/>
<path d="M104.667 13.0767L106.475 18.6429L101.74 15.2028H107.593L102.858 18.6429L104.667 13.0767Z" fill="white"/>
<path d="M104.667 23.8462L106.475 29.4124L101.74 25.9723H107.593L102.858 29.4124L104.667 23.8462Z" fill="white"/>
<path d="M104.667 34.6152L106.475 40.1814L101.74 36.7413H107.593L102.858 40.1814L104.667 34.6152Z" fill="white"/>
<path d="M104.667 45.3848L106.475 50.951L101.74 47.5109H107.593L102.858 50.951L104.667 45.3848Z" fill="white"/>
</g>
<rect x="60.5" y="0.5" width="99" height="99" rx="49.5" stroke="#EAECF0"/>
<g clip-path="url(#clip1_1911_5564)">
<path d="M-25 120H125V220H-25V120Z" fill="white"/>
<path d="M-25 120H125V153.333H-25V120Z" fill="#FF6820"/>
<path d="M-25 186.667H125V220H-25V186.667Z" fill="#046A38"/>
<path d="M50.0007 185.417C58.515 185.417 65.4173 178.515 65.4173 170C65.4173 161.486 58.515 154.583 50.0007 154.583C41.4863 154.583 34.584 161.486 34.584 170C34.584 178.515 41.4863 185.417 50.0007 185.417Z" fill="#07038D"/>
<path d="M49.9993 183.333C57.3631 183.333 63.3327 177.364 63.3327 170C63.3327 162.636 57.3631 156.667 49.9993 156.667C42.6356 156.667 36.666 162.636 36.666 170C36.666 177.364 42.6356 183.333 49.9993 183.333Z" fill="white"/>
<path d="M50.0007 172.667C51.4734 172.667 52.6673 171.473 52.6673 170C52.6673 168.527 51.4734 167.333 50.0007 167.333C48.5279 167.333 47.334 168.527 47.334 170C47.334 171.473 48.5279 172.667 50.0007 172.667Z" fill="#07038D"/>
<path d="M50 156.667L50.5 164.69L50 168.664L49.5 164.69L50 156.667Z" fill="#07038D"/>
<path d="M51.6643 157.359C51.9838 157.401 52.2768 157.176 52.3188 156.857C52.3609 156.538 52.136 156.245 51.8166 156.203C51.4972 156.161 51.2042 156.385 51.1621 156.705C51.1201 157.024 51.3449 157.317 51.6643 157.359Z" fill="#07038D"/>
<path d="M50 183.333L49.5 175.31L50 171.337L50.5 175.31L50 183.333Z" fill="#07038D"/>
<path d="M48.3357 182.641C48.0162 182.599 47.7232 182.824 47.6812 183.143C47.6391 183.463 47.864 183.756 48.1834 183.798C48.5028 183.84 48.7958 183.615 48.8379 183.296C48.8799 182.976 48.6551 182.683 48.3357 182.641Z" fill="#07038D"/>
<path d="M53.4498 157.115L51.8561 164.994L50.3448 168.703L50.8902 164.735L53.4498 157.115Z" fill="#07038D"/>
<path d="M54.8776 158.214C55.1753 158.337 55.5165 158.196 55.6398 157.898C55.7631 157.601 55.6217 157.26 55.3241 157.136C55.0264 157.013 54.6852 157.154 54.5619 157.452C54.4386 157.75 54.58 158.091 54.8776 158.214Z" fill="#07038D"/>
<path d="M46.5463 182.873L48.14 174.994L49.6513 171.285L49.1059 175.252L46.5463 182.873Z" fill="#07038D"/>
<path d="M45.1185 181.774C44.8208 181.65 44.4796 181.792 44.3563 182.089C44.233 182.387 44.3744 182.728 44.672 182.851C44.9697 182.975 45.3109 182.833 45.4342 182.536C45.5575 182.238 45.4161 181.897 45.1185 181.774Z" fill="#07038D"/>
<path d="M56.6693 158.453L53.0907 165.652L50.671 168.843L52.2247 165.152L56.6693 158.453Z" fill="#07038D"/>
<path d="M57.7643 159.885C58.0199 160.081 58.3861 160.033 58.5822 159.778C58.7783 159.522 58.7301 159.156 58.4745 158.96C58.2189 158.763 57.8527 158.812 57.6566 159.067C57.4605 159.323 57.5087 159.689 57.7643 159.885Z" fill="#07038D"/>
<path d="M43.3365 181.547L46.9152 174.349L49.3349 171.158L47.7812 174.849L43.3365 181.547Z" fill="#07038D"/>
<path d="M42.2416 180.115C41.986 179.919 41.6198 179.967 41.4237 180.223C41.2276 180.479 41.2758 180.845 41.5314 181.041C41.7869 181.237 42.1531 181.189 42.3493 180.933C42.5454 180.678 42.4972 180.311 42.2416 180.115Z" fill="#07038D"/>
<path d="M59.4297 160.572L54.1099 166.599L50.9468 169.055L53.4028 165.892L59.4297 160.572Z" fill="#07038D"/>
<path d="M60.117 162.238C60.3132 162.494 60.6793 162.542 60.9349 162.346C61.1905 162.15 61.2387 161.784 61.0426 161.528C60.8465 161.273 60.4803 161.224 60.2247 161.421C59.9691 161.617 59.9209 161.983 60.117 162.238Z" fill="#07038D"/>
<path d="M40.5761 179.428L45.8959 173.401L49.0591 170.945L46.603 174.108L40.5761 179.428Z" fill="#07038D"/>
<path d="M39.8888 177.762C39.6927 177.506 39.3265 177.458 39.0709 177.654C38.8153 177.85 38.7671 178.217 38.9632 178.472C39.1594 178.728 39.5256 178.776 39.7811 178.58C40.0367 178.384 40.085 178.018 39.8888 177.762Z" fill="#07038D"/>
<path d="M61.5488 163.333L54.8504 167.778L51.1594 169.332L54.3504 166.912L61.5488 163.333Z" fill="#07038D"/>
<path d="M61.7801 165.121C61.9034 165.419 62.2447 165.56 62.5423 165.437C62.8399 165.314 62.9813 164.972 62.858 164.675C62.7347 164.377 62.3935 164.236 62.0958 164.359C61.7982 164.482 61.6569 164.823 61.7801 165.121Z" fill="#07038D"/>
<path d="M38.4531 176.667L45.1515 172.222L48.8425 170.669L45.6515 173.088L38.4531 176.667Z" fill="#07038D"/>
<path d="M38.2218 174.879C38.0985 174.582 37.7573 174.44 37.4597 174.564C37.162 174.687 37.0207 175.028 37.144 175.326C37.2672 175.623 37.6085 175.765 37.9061 175.642C38.2038 175.518 38.3451 175.177 38.2218 174.879Z" fill="#07038D"/>
<path d="M62.8794 166.549L55.2589 169.108L51.2915 169.654L55.0001 168.143L62.8794 166.549Z" fill="#07038D"/>
<path d="M62.6402 168.336C62.6822 168.655 62.9752 168.88 63.2946 168.838C63.614 168.796 63.8389 168.503 63.7968 168.183C63.7548 167.864 63.4618 167.639 63.1424 167.681C62.8229 167.723 62.5981 168.016 62.6402 168.336Z" fill="#07038D"/>
<path d="M37.1206 173.451L44.7411 170.892L48.7085 170.346L44.9999 171.857L37.1206 173.451Z" fill="#07038D"/>
<path d="M37.3598 171.664C37.3178 171.345 37.0248 171.12 36.7054 171.162C36.386 171.204 36.1611 171.497 36.2032 171.817C36.2452 172.136 36.5382 172.361 36.8576 172.319C37.1771 172.277 37.4019 171.984 37.3598 171.664Z" fill="#07038D"/>
<path d="M63.334 170L55.3107 170.5L51.3373 170L55.3107 169.5L63.334 170Z" fill="#07038D"/>
<path d="M62.6422 171.664C62.6001 171.984 62.825 172.277 63.1444 172.319C63.4638 172.361 63.7568 172.136 63.7989 171.817C63.8409 171.497 63.6161 171.204 63.2967 171.162C62.9772 171.12 62.6842 171.345 62.6422 171.664Z" fill="#07038D"/>
<path d="M36.668 170L44.6913 169.5L48.6646 170L44.6913 170.5L36.668 170Z" fill="#07038D"/>
<path d="M37.3598 168.336C37.4018 168.016 37.177 167.723 36.8576 167.681C36.5382 167.639 36.2451 167.864 36.2031 168.183C36.161 168.503 36.3859 168.796 36.7053 168.838C37.0247 168.88 37.3177 168.655 37.3598 168.336Z" fill="#07038D"/>
<path d="M62.8784 173.451L54.9991 171.858L51.2905 170.346L55.2579 170.892L62.8784 173.451Z" fill="#07038D"/>
<path d="M61.779 174.88C61.6557 175.177 61.797 175.518 62.0947 175.642C62.3923 175.765 62.7336 175.624 62.8568 175.326C62.9801 175.028 62.8388 174.687 62.5411 174.564C62.2435 174.441 61.9023 174.582 61.779 174.88Z" fill="#07038D"/>
<path d="M37.1235 166.549L45.0029 168.142L48.7114 169.654L44.7441 169.108L37.1235 166.549Z" fill="#07038D"/>
<path d="M38.223 165.12C38.3463 164.823 38.2049 164.482 37.9073 164.358C37.6096 164.235 37.2684 164.376 37.1451 164.674C37.0218 164.972 37.1632 165.313 37.4608 165.436C37.7585 165.559 38.0997 165.418 38.223 165.12Z" fill="#07038D"/>
<path d="M61.5449 176.667L54.3465 173.088L51.1555 170.669L54.8465 172.222L61.5449 176.667Z" fill="#07038D"/>
<path d="M60.1119 177.762C59.9158 178.017 59.964 178.384 60.2196 178.58C60.4752 178.776 60.8413 178.728 61.0375 178.472C61.2336 178.216 61.1854 177.85 60.9298 177.654C60.6742 177.458 60.308 177.506 60.1119 177.762Z" fill="#07038D"/>
<path d="M38.4512 163.333L45.6496 166.912L48.8406 169.331L45.1496 167.778L38.4512 163.333Z" fill="#07038D"/>
<path d="M39.8823 162.238C40.0784 161.983 40.0302 161.616 39.7746 161.42C39.519 161.224 39.1528 161.272 38.9567 161.528C38.7606 161.784 38.8088 162.15 39.0644 162.346C39.3199 162.542 39.6861 162.494 39.8823 162.238Z" fill="#07038D"/>
<path d="M59.4257 179.428L53.3988 174.108L50.9428 170.945L54.1059 173.401L59.4257 179.428Z" fill="#07038D"/>
<path d="M57.7606 180.115C57.505 180.311 57.4568 180.677 57.6529 180.933C57.849 181.189 58.2152 181.237 58.4708 181.041C58.7264 180.845 58.7746 180.478 58.5785 180.223C58.3824 179.967 58.0162 179.919 57.7606 180.115Z" fill="#07038D"/>
<path d="M40.5704 160.572L46.5973 165.892L49.0533 169.055L45.8901 166.599L40.5704 160.572Z" fill="#07038D"/>
<path d="M42.2355 159.885C42.4911 159.689 42.5393 159.323 42.3432 159.067C42.1471 158.811 41.7809 158.763 41.5253 158.959C41.2697 159.155 41.2215 159.522 41.4176 159.777C41.6137 160.033 41.9799 160.081 42.2355 159.885Z" fill="#07038D"/>
<path d="M56.6646 181.548L52.22 174.849L50.6663 171.158L53.086 174.349L56.6646 181.548Z" fill="#07038D"/>
<path d="M54.8779 181.78C54.5802 181.903 54.4389 182.245 54.5622 182.542C54.6855 182.84 55.0267 182.981 55.3244 182.858C55.622 182.735 55.7633 182.393 55.64 182.096C55.5168 181.798 55.1755 181.657 54.8779 181.78Z" fill="#07038D"/>
<path d="M43.3315 158.453L47.7761 165.152L49.3298 168.843L46.9101 165.652L43.3315 158.453Z" fill="#07038D"/>
<path d="M45.1182 158.221C45.4158 158.098 45.5572 157.756 45.4339 157.459C45.3106 157.161 44.9694 157.02 44.6717 157.143C44.3741 157.266 44.2328 157.607 44.356 157.905C44.4793 158.203 44.8206 158.344 45.1182 158.221Z" fill="#07038D"/>
<path d="M53.4506 182.879L50.8911 175.259L50.3457 171.292L51.857 175L53.4506 182.879Z" fill="#07038D"/>
<path d="M51.6639 182.641C51.3445 182.683 51.1197 182.976 51.1617 183.296C51.2038 183.615 51.4968 183.84 51.8162 183.798C52.1356 183.756 52.3604 183.463 52.3184 183.143C52.2763 182.824 51.9833 182.599 51.6639 182.641Z" fill="#07038D"/>
<path d="M46.5474 157.121L49.107 164.742L49.6524 168.709L48.141 165L46.5474 157.121Z" fill="#07038D"/>
<path d="M48.3341 157.359C48.6535 157.317 48.8784 157.024 48.8363 156.705C48.7943 156.385 48.5013 156.161 48.1819 156.203C47.8624 156.245 47.6376 156.538 47.6797 156.857C47.7217 157.177 48.0147 157.401 48.3341 157.359Z" fill="#07038D"/>
</g>
<g clip-path="url(#clip2_1911_5564)">
<path d="M245 220L95 220V120L245 120V220Z" fill="#FF0000"/>
<path d="M170.001 200L187.651 145.75L141.451 179.25H198.551L152.351 145.75L170.001 200Z" fill="#FFEB00"/>
</g>
<rect x="219.5" y="219.5" width="99" height="99" rx="49.5" transform="rotate(-180 219.5 219.5)" stroke="#EAECF0"/>
<g clip-path="url(#clip3_1911_5564)">
<path d="M110 120H310V170L141.111 218.889L110 120Z" fill="#0038A8"/>
<path d="M141.111 170H310V220H110L141.111 170Z" fill="#CE1126"/>
<path d="M196.602 170L110 220V120L196.602 170Z" fill="white"/>
<path d="M141.111 180C146.634 180 151.111 175.523 151.111 170C151.111 164.477 146.634 160 141.111 160C135.588 160 131.111 164.477 131.111 170C131.111 175.523 135.588 180 141.111 180Z" fill="#FCD116"/>
<path d="M141.111 170L137.596 152.323L138.646 151.272L141.111 170ZM141.111 170L139.812 150.188L141.111 148.889L142.41 150.188L141.111 170ZM141.111 170L143.577 151.272L144.627 152.323L141.111 170Z" fill="#FCD116"/>
<path d="M141.111 170L144.627 187.676L143.577 188.728L141.111 170ZM141.111 170L142.41 189.812L141.111 191.111L139.813 189.812L141.111 170ZM141.111 170L138.646 188.728L137.596 187.676L141.111 170Z" fill="#FCD116"/>
<path d="M141.112 170L158.788 166.484L159.839 167.534L141.112 170ZM141.112 170L160.924 168.701L162.223 170L160.924 171.299L141.112 170ZM141.112 170L159.839 172.465L158.788 173.515L141.112 170Z" fill="#FCD116"/>
<path d="M141.111 170L123.434 173.516L122.383 172.466L141.111 170ZM141.111 170L121.299 171.299L120 170L121.299 168.701L141.111 170ZM141.111 170L122.383 167.535L123.434 166.485L141.111 170Z" fill="#FCD116"/>
<path d="M141.111 170L151.124 155.014L152.61 155.014L141.111 170ZM141.111 170L154.202 155.072L156.039 155.072L156.039 156.909L141.111 170ZM141.111 170L156.097 158.5L156.096 159.986L141.111 170Z" fill="#FCD116"/>
<path d="M141.112 170L131.098 184.985L129.613 184.986L141.112 170ZM141.112 170L128.021 184.928L126.184 184.928L126.184 183.091L141.112 170ZM141.112 170L126.126 181.499L126.127 180.013L141.112 170Z" fill="#FCD116"/>
<path d="M141.112 170L156.097 180.013L156.098 181.499L141.112 170ZM141.112 170L156.04 183.091L156.04 184.928L154.203 184.928L141.112 170ZM141.112 170L152.611 184.986L151.125 184.985L141.112 170Z" fill="#FCD116"/>
<path d="M141.111 170L126.126 159.987L126.125 158.501L141.111 170ZM141.111 170L126.183 156.909L126.183 155.072L128.02 155.072L141.111 170ZM141.111 170L129.612 155.014L131.098 155.015L141.111 170Z" fill="#FCD116"/>
<path d="M186.603 170L182.845 171.307L182.764 175.283L180.361 172.113L176.553 173.266L178.825 170L176.553 166.735L180.361 167.887L182.764 164.717L182.845 168.693L186.603 170Z" fill="#FCD116"/>
<path d="M115.001 211.339L115.748 207.432L112.345 205.373L116.292 204.877L117.198 201.003L118.89 204.603L122.854 204.268L119.952 206.99L121.496 210.656L118.012 208.738L115.001 211.339Z" fill="#FCD116"/>
<path d="M115 128.661L118.01 131.262L121.495 129.344L119.951 133.01L122.853 135.731L118.889 135.396L117.197 138.997L116.291 135.123L112.344 134.627L115.747 132.568L115 128.661Z" fill="#FCD116"/>
</g>
<rect x="120.5" y="120.5" width="99" height="99" rx="49.5" stroke="#EAECF0"/>
<rect x="188.5" y="184.5" width="39" height="39" rx="19.5" fill="white"/>
<rect x="188.5" y="184.5" width="39" height="39" rx="19.5" stroke="#EAECF0"/>
<path d="M205.844 204C205.844 205.296 206.891 206.344 208.188 206.344C209.484 206.344 210.531 205.296 210.531 204C210.531 203.163 210.086 202.39 209.359 201.97C208.633 201.551 207.742 201.551 207.016 201.97C206.289 202.39 205.844 203.163 205.844 204ZM198.812 204C198.812 205.296 199.86 206.344 201.156 206.344C202.452 206.344 203.5 205.296 203.5 204C203.5 203.163 203.055 202.39 202.328 201.97C201.602 201.551 200.711 201.551 199.984 201.97C199.258 202.39 198.812 203.163 198.812 204ZM212.875 204C212.875 205.296 213.923 206.344 215.219 206.344C216.515 206.344 217.562 205.296 217.562 204C217.562 203.163 217.117 202.39 216.391 201.97C215.664 201.551 214.773 201.551 214.047 201.97C213.32 202.39 212.875 203.163 212.875 204Z" fill="#2B2B2B"/>
<defs>
<clipPath id="clip0_1911_5564">
<rect x="60" width="100" height="100" rx="50" fill="white"/>
</clipPath>
<clipPath id="clip1_1911_5564">
<rect y="120" width="100" height="100" rx="50" fill="white"/>
</clipPath>
<clipPath id="clip2_1911_5564">
<rect x="220" y="220" width="100" height="100" rx="50" transform="rotate(-180 220 220)" fill="white"/>
</clipPath>
<clipPath id="clip3_1911_5564">
<rect x="120" y="120" width="100" height="100" rx="50" fill="white"/>
</clipPath>
</defs>
</svg>
