<svg width="32" height="32" viewBox="0 0 32 32" fill="none" xmlns="http://www.w3.org/2000/svg">
<path d="M19.0219 14.5107C19.0314 12.5718 20.6108 11.0077 22.5497 11.0172L30.9216 11.0582C31.4739 11.0609 31.9194 11.5108 31.9167 12.0631L31.8922 17.0845C31.8894 17.6367 31.4395 18.0822 30.8873 18.0795L22.5154 18.0386C20.5765 18.0291 19.0124 16.4496 19.0219 14.5107Z" fill="#7CD0E8"/>
<path d="M29.9556 24.1874C29.9556 24.5789 29.8915 24.9446 29.7632 25.2846C29.6349 25.6246 29.4523 25.9234 29.2155 26.1809C28.9787 26.4385 28.7024 26.6394 28.3866 26.7836C28.0708 26.9279 27.7254 27 27.3504 27H6.78281C6.40782 27 6.05257 26.9279 5.71705 26.7836C5.38154 26.6394 5.08549 26.4385 4.82892 26.1809C4.57235 25.9234 4.37005 25.6246 4.22203 25.2846C4.07401 24.9446 4 24.5789 4 24.1874L4.04438 5.81265C4.04438 5.02964 4.30588 4.36511 4.82889 3.81907C5.3519 3.27302 5.9884 3 6.73837 3H27.306C28.056 3 28.6925 3.27302 29.2155 3.81907C29.7385 4.36511 30 5.02964 30 5.81265L29.9556 11.8009H23.2354C22.4855 11.8009 21.849 12.0688 21.326 12.6045C20.8029 13.1402 20.5414 13.7996 20.5414 14.5826C20.5612 15.1184 20.6697 15.5923 20.8671 16.0044C21.025 16.3547 21.2865 16.6741 21.6516 16.9626C22.0167 17.251 22.5447 17.3953 23.2354 17.3953H29.9556V24.1874ZM21.9032 14.4879C21.9032 14.0703 22.0477 13.7187 22.3366 13.433C22.6255 13.1473 22.981 13.0044 23.4032 13.0044C23.8255 13.0044 24.181 13.1473 24.4699 13.433C24.7588 13.7187 24.9032 14.0703 24.9032 14.4879C24.9032 14.9055 24.7588 15.2626 24.4699 15.5593C24.181 15.856 23.8255 16.0044 23.4032 16.0044C22.981 16.0044 22.6255 15.856 22.3366 15.5593C22.0477 15.2626 21.9032 14.9055 21.9032 14.4879Z" fill="#7A49E9"/>
</svg>
