<svg width="32" height="32" viewBox="0 0 32 32" fill="none" xmlns="http://www.w3.org/2000/svg">
<rect x="4" y="14" width="17" height="11" rx="1" fill="#7CD0E8"/>
<path d="M29.3497 9.73456L16.9226 4.29083C16.9089 4.28399 16.8918 4.27715 16.8781 4.2703C16.7926 4.21898 16.4265 4.01711 16.0296 4H15.9851C15.5848 4.02053 15.2221 4.21898 15.1331 4.2703C15.1194 4.27715 15.1057 4.28741 15.0886 4.29083L2.68884 9.73456C2.46986 9.8201 2.33984 10.0391 2.33984 10.2546V10.9116C2.33984 11.1374 2.52119 11.3187 2.74701 11.3187H4.08827C4.27303 11.3187 4.43385 11.4385 4.48175 11.6164C4.64941 12.2563 5.36109 12.2186 5.474 12.2118H26.5167C26.6296 12.222 27.3413 12.2597 27.5089 11.6164C27.5568 11.4385 27.7177 11.3187 27.9024 11.3187H29.2437C29.4695 11.3187 29.6508 11.1374 29.6508 10.9116V10.2889C29.6508 10.2683 29.6543 10.2444 29.6577 10.2238C29.6816 10.022 29.555 9.84063 29.3497 9.73456ZM28.4567 26.8356H3.57845C2.62383 26.8356 2.64436 27.7697 2.64436 27.7697V28.9262C2.64436 29.152 2.82571 29.3333 3.05153 29.3333H28.9802C29.206 29.3333 29.3874 29.152 29.3874 28.9262V27.7697C29.3908 27.7697 29.4148 26.8356 28.4567 26.8356ZM6.27465 13.577V24.0983H5.21054C4.42358 24.0983 4.31409 24.8442 4.30041 24.9879C4.30041 25.0016 4.29698 25.0153 4.29698 25.0256V25.4909C4.29698 25.7167 4.47833 25.8981 4.70415 25.8981H27.3755C27.6013 25.8981 27.7827 25.7167 27.7827 25.4909V25.0256C27.7827 25.0119 27.7827 24.9982 27.7792 24.9879C27.7656 24.8442 27.6561 24.0983 26.8691 24.0983H25.805V13.577C25.805 13.3512 25.6236 13.1698 25.3978 13.1698H22.7837C22.5579 13.1698 22.3766 13.3512 22.3766 13.577V24.0983H20.2894V13.577C20.2894 13.3512 20.1081 13.1698 19.8822 13.1698H17.2887C17.0629 13.1698 16.8815 13.3512 16.8815 13.577V24.1189H15.1879V13.577C15.1879 13.3512 15.0065 13.1698 14.7807 13.1698H12.1871C11.9613 13.1698 11.78 13.3512 11.78 13.577V24.0983H9.69281V13.577C9.69281 13.3512 9.51146 13.1698 9.28564 13.1698H6.69208C6.456 13.1698 6.27465 13.3512 6.27465 13.577Z" fill="#7A49E9"/>
</svg>
