<svg width="40" height="40" viewBox="0 0 40 40" fill="none" xmlns="http://www.w3.org/2000/svg">
<path d="M36.0312 29.2539H5.75V4.29298C5.75 3.30861 4.95312 2.51173 3.96875 2.51173C2.98437 2.50783 2.1875 3.30861 2.1875 4.28908V31.0313C2.1875 32.0156 2.98437 32.8125 3.96875 32.8125H8.73047C8.61328 33.168 8.53125 33.5391 8.53125 33.9336C8.53125 35.9024 10.125 37.4961 12.0938 37.4961C14.0625 37.4961 15.6562 35.9024 15.6562 33.9336C15.6562 33.5391 15.5781 33.168 15.457 32.8125H27.7656C27.6484 33.168 27.5664 33.5391 27.5664 33.9336C27.5664 35.9024 29.1602 37.4961 31.1289 37.4961C33.0977 37.4961 34.6914 35.9024 34.6914 33.9336C34.6914 33.5391 34.6133 33.168 34.4922 32.8125H36.0273C37.0117 32.8125 37.8086 32.0156 37.8086 31.0313C37.8125 30.0508 37.0156 29.2539 36.0312 29.2539Z" fill="white"/>
<path d="M9.33984 14.0781H35.168C36.1523 14.0781 36.9492 13.2812 36.9492 12.2969V4.28125C36.9492 3.29687 36.1523 2.5 35.168 2.5H9.33984C8.35547 2.5 7.55859 3.29687 7.55859 4.28125V12.2969C7.55859 13.2812 8.35938 14.0781 9.33984 14.0781ZM12.9336 5.17187H13.8242C14.3164 5.17187 14.7148 5.57031 14.7148 6.0625C14.7148 6.55469 14.3164 6.95312 13.8242 6.95312H12.9336C11.9336 6.95312 11.1211 7.76562 11.1211 8.76562C11.1211 9.25781 10.7227 9.65625 10.2305 9.65625C9.73828 9.65625 9.33984 9.25781 9.33984 8.76562C9.33984 6.78516 10.9531 5.17187 12.9336 5.17187ZM9.33984 27.4648H35.168C36.1523 27.4648 36.9492 26.668 36.9492 25.6836V17.668C36.9492 16.6836 36.1523 15.8867 35.168 15.8867H9.33984C8.35547 15.8867 7.55859 16.6836 7.55859 17.668V25.6836C7.55859 26.668 8.35938 27.4648 9.33984 27.4648ZM12.9336 18.707H13.8242C14.3164 18.707 14.7148 19.1055 14.7148 19.5977C14.7148 20.0898 14.3164 20.4883 13.8242 20.4883H12.9336C11.9336 20.4883 11.1211 21.3008 11.1211 22.3008C11.1211 22.793 10.7227 23.1914 10.2305 23.1914C9.73828 23.1914 9.33984 22.793 9.33984 22.3008C9.33984 20.3203 10.9531 18.707 12.9336 18.707Z" fill="white"/>
</svg>
