<svg width="40" height="40" viewBox="0 0 40 40" fill="none" xmlns="http://www.w3.org/2000/svg">
<path d="M19.4 23.491C18.8238 23.7482 18.2121 23.9172 17.5856 23.9922C18.245 23.5946 18.7392 22.9702 18.9744 22.2324C18.3549 22.603 17.6763 22.8644 16.9682 23.0052C16.6737 22.688 16.3169 22.4351 15.9201 22.2621C15.5234 22.0891 15.0952 21.9999 14.6624 22C13.8216 22.003 13.0165 22.3397 12.4239 22.9362C11.8314 23.5327 11.5 24.34 11.5026 25.1808C11.5026 25.43 11.5306 25.6736 11.5838 25.906C10.3256 25.8416 9.09525 25.5123 7.97317 24.9396C6.85108 24.3668 5.86259 23.5636 5.0724 22.5824C4.7924 23.0668 4.644 23.6184 4.644 24.1812C4.644 25.2452 5.1704 26.2392 6.0496 26.8286C5.54768 26.8127 5.05694 26.6764 4.6188 26.431V26.4716C4.6188 28.0116 5.708 29.2982 7.1528 29.5908C6.68719 29.7179 6.19857 29.7361 5.7248 29.644C5.92453 30.2748 6.3169 30.8271 6.84675 31.2234C7.3766 31.6196 8.0173 31.8399 8.6788 31.8532C8.02467 32.3711 7.27437 32.7542 6.47128 32.9803C5.66819 33.2064 4.82824 33.2711 4 33.1706C5.44273 34.1049 7.12517 34.6014 8.844 34.6C14.654 34.6 17.832 29.7532 17.832 25.549C17.832 25.4118 17.8292 25.2746 17.8236 25.1374C18.4424 24.688 18.9758 24.1294 19.4 23.491Z" fill="white"/>
<path d="M15.1304 4C15.6786 4 16.2213 4.10796 16.7277 4.31772C17.2341 4.52748 17.6943 4.83493 18.0818 5.22251C18.4694 5.61009 18.7769 6.07022 18.9866 6.57663C19.1964 7.08303 19.3043 7.62579 19.3043 8.17391V15.1304C19.3043 16.2374 18.8646 17.2991 18.0818 18.0818C17.2991 18.8646 16.2374 19.3043 15.1304 19.3043H8.17391C7.06692 19.3043 6.00527 18.8646 5.22251 18.0818C4.43975 17.2991 4 16.2374 4 15.1304V8.17391C4 7.62579 4.10796 7.08303 4.31772 6.57663C4.52748 6.07022 4.83493 5.61009 5.22251 5.22251C5.61009 4.83493 6.07022 4.52748 6.57663 4.31772C7.08303 4.10796 7.62579 4 8.17391 4H15.1304ZM10.9106 8.59687C10.8155 8.59493 10.7212 8.61492 10.6351 8.6553C10.546 8.70368 10.4726 8.77654 10.4235 8.86529C10.3745 8.95404 10.3518 9.05497 10.3583 9.15617V13.6C10.3522 13.7021 10.3749 13.8038 10.4238 13.8936C10.4728 13.9834 10.546 14.0577 10.6351 14.1078C10.7158 14.137 10.8007 14.1551 10.8856 14.1593C10.983 14.1649 11.0803 14.137 11.1624 14.0814L14.304 11.8386C14.3789 11.7947 14.4399 11.7305 14.48 11.6535C14.5202 11.5765 14.5377 11.4897 14.5308 11.4031C14.537 11.3122 14.5193 11.2212 14.4795 11.1392C14.4398 11.0573 14.3792 10.9871 14.304 10.9357L11.1624 8.67896C11.0916 8.62108 11.002 8.59136 10.9106 8.59548V8.59687ZM31.8261 20.6957C32.3742 20.6957 32.917 20.8036 33.4234 21.0134C33.9298 21.2231 34.3899 21.5306 34.7775 21.9182C35.1651 22.3057 35.4725 22.7659 35.6823 23.2723C35.892 23.7787 36 24.3214 36 24.8696V31.8261C36 32.9331 35.5602 33.9947 34.7775 34.7775C33.9947 35.5602 32.9331 36 31.8261 36H24.8696C23.7626 36 22.7009 35.5602 21.9182 34.7775C21.1354 33.9947 20.6957 32.9331 20.6957 31.8261V24.8696C20.6957 24.3214 20.8036 23.7787 21.0134 23.2723C21.2231 22.7659 21.5306 22.3057 21.9182 21.9182C22.3057 21.5306 22.7659 21.2231 23.2723 21.0134C23.7787 20.8036 24.3214 20.6957 24.8696 20.6957H31.8261ZM28.3478 24.8696C27.4253 24.8696 26.5406 25.236 25.8883 25.8883C25.236 26.5406 24.8696 27.4253 24.8696 28.3478C24.8696 29.2703 25.236 30.155 25.8883 30.8073C26.5406 31.4596 27.4253 31.8261 28.3478 31.8261C29.2703 31.8261 30.155 31.4596 30.8073 30.8073C31.4596 30.155 31.8261 29.2703 31.8261 28.3478C31.8261 27.4253 31.4596 26.5406 30.8073 25.8883C30.155 25.236 29.2703 24.8696 28.3478 24.8696ZM28.3478 26.2609C28.6219 26.2608 28.8933 26.3148 29.1466 26.4196C29.3998 26.5245 29.6299 26.6782 29.8237 26.872C30.0176 27.0658 30.1713 27.2959 30.2762 27.5491C30.3811 27.8023 30.4351 28.0737 30.4351 28.3478C30.4351 28.6219 30.3811 28.8933 30.2762 29.1465C30.1713 29.3998 30.0176 29.6298 29.8237 29.8236C29.6299 30.0174 29.3998 30.1712 29.1466 30.276C28.8933 30.3809 28.6219 30.4348 28.3478 30.4348C27.7944 30.4347 27.2636 30.2148 26.8723 29.8234C26.481 29.432 26.2612 28.9013 26.2612 28.3478C26.2612 27.7944 26.481 27.2636 26.8723 26.8722C27.2636 26.4809 27.7944 26.261 28.3478 26.2609Z" fill="white"/>
<path d="M24.7996 4H31.7996C32.3512 4 32.8973 4.10864 33.4069 4.31971C33.9164 4.53078 34.3795 4.84015 34.7695 5.23015C35.1595 5.62016 35.4688 6.08316 35.6799 6.59273C35.891 7.1023 35.9996 7.64845 35.9996 8.2V15.2C35.9996 16.3139 35.5571 17.3822 34.7695 18.1698C33.9818 18.9575 32.9135 19.4 31.7996 19.4H24.7996C23.6857 19.4 22.6174 18.9575 21.8298 18.1698C21.0421 17.3822 20.5996 16.3139 20.5996 15.2V8.2C20.5996 7.64845 20.7082 7.1023 20.9193 6.59273C21.1304 6.08316 21.4398 5.62016 21.8298 5.23015C22.2198 4.84015 22.6828 4.53078 23.1923 4.31971C23.7019 4.10864 24.2481 4 24.7996 4ZM30.0468 16.859V12.2768H32.2644V10.7144H30.0468V9.8408C30.0468 9.5552 30.0972 9.3536 30.2316 9.2192C30.366 9.0848 30.5508 9.0176 30.8028 9.0176H32.382V7.4048H30.534C29.7612 7.4048 29.1564 7.6064 28.7532 8.0432C28.3332 8.4632 28.1316 9.0512 28.1316 9.7904V10.7144H26.1996V12.2768H28.1316V16.859H30.0468Z" fill="white"/>
</svg>
