<svg width="40" height="40" viewBox="0 0 40 40" fill="none" xmlns="http://www.w3.org/2000/svg">
<path d="M20.0039 33.7656H5.94922C4.05859 33.7656 2.51562 32.2266 2.51562 30.3359V8.83984C2.51562 6.94531 4.05469 5.40625 5.94922 5.40625H34.0469C35.9414 5.40625 37.4805 6.94531 37.4805 8.83984V18.8086C37.4805 19.3359 37.0547 19.7617 36.5273 19.7617C36 19.7617 35.5742 19.3359 35.5742 18.8086V8.83984C35.5742 7.99609 34.8906 7.3125 34.0469 7.3125H5.94922C5.10547 7.3125 4.42187 7.99609 4.42187 8.83984V30.332C4.42187 31.1719 5.10938 31.8555 5.94922 31.8555H20C20.5273 31.8555 20.9531 32.2812 20.9531 32.8086C20.957 33.3398 20.5273 33.7656 20.0039 33.7656Z" fill="white"/>
<path d="M36.5312 17.2344H3.46875C2.94141 17.2344 2.51562 16.8086 2.51562 16.2812V8.83984C2.51562 6.94531 4.05469 5.40625 5.94922 5.40625H34.0469C35.9414 5.40625 37.4805 6.94531 37.4805 8.83984V16.2812C37.4844 16.8047 37.0547 17.2344 36.5312 17.2344ZM4.42187 15.3281H35.5742V8.83984C35.5742 7.99609 34.8906 7.3125 34.0469 7.3125H5.94922C5.10547 7.3125 4.42187 7.99609 4.42187 8.83984V15.3281Z" fill="white"/>
<path fill-rule="evenodd" clip-rule="evenodd" d="M3.46875 8.83984C3.46875 7.46875 4.57813 6.35938 5.94922 6.35938H34.0469C35.418 6.35938 36.5273 7.46875 36.5273 8.83984V16.2812H3.46875V8.83984ZM7.74609 11.707C7.74609 11.8476 7.77378 11.9868 7.82757 12.1166C7.88135 12.2465 7.96019 12.3645 8.05958 12.4639C8.15897 12.5632 8.27696 12.6421 8.40682 12.6959C8.53667 12.7497 8.67585 12.7773 8.81641 12.7773C8.95696 12.7773 9.09614 12.7497 9.226 12.6959C9.35585 12.6421 9.47384 12.5632 9.57323 12.4639C9.67262 12.3645 9.75146 12.2465 9.80525 12.1166C9.85903 11.9868 9.88672 11.8476 9.88672 11.707C9.88672 11.5665 9.85903 11.4273 9.80525 11.2974C9.75146 11.1676 9.67262 11.0496 9.57323 10.9502C9.47384 10.8508 9.35585 10.772 9.226 10.7182C9.09614 10.6644 8.95696 10.6367 8.81641 10.6367C8.67585 10.6367 8.53667 10.6644 8.40682 10.7182C8.27696 10.772 8.15897 10.8508 8.05958 10.9502C7.96019 11.0496 7.88135 11.1676 7.82757 11.2974C7.77378 11.4273 7.74609 11.5665 7.74609 11.707ZM12.3369 12.4639C12.1362 12.2631 12.0234 11.9909 12.0234 11.707C12.0234 11.4232 12.1362 11.1509 12.3369 10.9502C12.5376 10.7495 12.8099 10.6367 13.0938 10.6367C13.3776 10.6367 13.6499 10.7495 13.8506 10.9502C14.0513 11.1509 14.1641 11.4232 14.1641 11.707C14.1641 11.9909 14.0513 12.2631 13.8506 12.4639C13.6499 12.6646 13.3776 12.7773 13.0938 12.7773C12.8099 12.7773 12.5376 12.6646 12.3369 12.4639Z" fill="white"/>
<path d="M37.5376 27.1604C38.1754 25.3288 37.9362 23.8157 37.0592 22.9397C36.1822 22.0637 34.6674 21.9044 32.8337 22.4619C32.1959 22.7008 31.6378 22.9397 31 23.3379C30.3622 23.0193 29.7244 22.7008 29.1663 22.4619C27.3326 21.8248 25.8178 22.0637 24.9408 22.9397C24.0638 23.8157 23.9043 25.3288 24.4624 27.1604C24.7016 27.7975 24.9408 28.3549 25.3394 28.992C25.0205 29.6291 24.7016 30.2662 24.4624 30.8237C23.8246 32.6553 24.0638 34.1684 24.9408 35.0444C25.4989 35.6018 26.2164 35.8407 27.1731 35.8407C27.8109 35.8407 28.4487 35.7611 29.1663 35.5222C29.8041 35.2833 30.3622 35.0444 31 34.6462C31.6378 34.9647 32.2756 35.2833 32.8337 35.5222C33.5513 35.7611 34.1891 35.8407 34.8269 35.8407C35.7836 35.8407 36.5011 35.6018 37.0592 35.0444C37.9362 34.1684 38.0957 32.6553 37.5376 30.8237C37.2984 30.1866 37.0592 29.6291 36.6606 28.992C37.0592 28.3549 37.2984 27.7179 37.5376 27.1604ZM34.8269 23.099C35.4647 23.099 36.0228 23.2582 36.3417 23.6564C36.9795 24.2935 37.0592 25.4084 36.5809 26.8419L36.1025 28.0364C35.5444 27.24 34.9863 26.5233 34.2688 25.8066C33.5513 25.0899 32.8337 24.4528 32.0364 23.975C32.4351 23.7361 32.8337 23.5768 33.2323 23.4972C33.7904 23.2582 34.3485 23.099 34.8269 23.099ZM35.4647 28.992C34.9066 29.868 34.2688 30.6644 33.4715 31.4608C32.6743 32.2571 31.7973 32.8942 31 33.4516C30.123 32.8942 29.3257 32.2571 28.5285 31.4608C27.7312 30.6644 27.0934 29.7884 26.5353 28.992C27.0934 28.116 27.7312 27.3197 28.5285 26.5233C29.3257 25.727 30.2027 25.0899 31 24.5324C31.877 25.0899 32.6743 25.727 33.4715 26.5233C34.2688 27.3197 34.9066 28.116 35.4647 28.992ZM25.6583 23.6564C25.9772 23.3379 26.5353 23.099 27.1731 23.099C27.6515 23.099 28.2096 23.1786 28.8474 23.4175L30.0433 23.8953C29.246 24.4528 28.5285 25.0102 27.8109 25.727C27.0934 26.4437 26.4556 27.1604 25.9772 27.9568C25.738 27.5586 25.5786 27.1604 25.4989 26.7622C24.9408 25.4084 25.0205 24.2935 25.6583 23.6564ZM28.7677 34.5666C27.3326 35.0444 26.2164 34.9647 25.5786 34.3276C24.9408 33.6906 24.861 32.5757 25.3394 31.1422L25.8178 29.9477C26.3759 30.744 26.9339 31.4608 27.6515 32.1775C28.369 32.8942 29.0866 33.5313 29.8838 34.0091C29.5649 34.248 29.1663 34.4073 28.7677 34.5666ZM33.1526 34.5666L31.9567 34.0887C32.754 33.5313 33.4715 32.9738 34.1891 32.2571C34.9066 31.5404 35.5444 30.8237 36.0228 30.0273C36.1822 30.4255 36.4214 30.8237 36.5011 31.2218C36.9795 32.6553 36.8998 33.7702 36.262 34.4073C35.7039 34.9647 34.5877 35.0444 33.1526 34.5666Z" fill="white"/>
<path d="M34.8269 36C34.1891 36 33.5513 35.8407 32.8337 35.6018C32.2756 35.4425 31.6378 35.124 31 34.8055C30.3622 35.124 29.8041 35.4425 29.1663 35.6018C27.3326 36.2389 25.738 36 24.861 35.124C23.9043 34.1684 23.7449 32.6553 24.3827 30.8237C24.5421 30.2662 24.861 29.6291 25.18 28.992C24.861 28.3549 24.5421 27.7975 24.3827 27.1604C23.7449 25.3288 23.9043 23.7361 24.861 22.8601C25.8178 21.9044 27.3326 21.7452 29.1663 22.3823C29.7244 22.5415 30.3622 22.8601 31 23.1786C31.6378 22.8601 32.1959 22.5415 32.8337 22.3823C34.6674 21.7452 36.262 21.9044 37.139 22.8601C38.0957 23.8157 38.2551 25.3288 37.6173 27.1604C37.4579 27.7179 37.139 28.3549 36.82 28.992C37.139 29.6291 37.4579 30.1866 37.6173 30.8237C38.2551 32.6553 38.0957 34.248 37.139 35.124C36.5809 35.6815 35.7836 36 34.8269 36ZM31 34.5666C31.7175 34.9647 32.2756 35.2036 32.9134 35.4425C34.6674 36 36.1822 35.8407 36.9795 34.9647C37.8565 34.0887 38.0159 32.6553 37.4579 30.9033C37.2984 30.3458 36.9795 29.7088 36.6606 29.0717V28.9124C36.9795 28.2753 37.2984 27.6382 37.4579 27.0808C38.0159 25.3288 37.8565 23.8953 36.9795 23.0193C36.1025 22.1433 34.6674 21.9841 32.9134 22.5415C32.3554 22.7008 31.7175 23.0193 31.0797 23.3379H30.9203C30.2825 23.0193 29.6446 22.7008 29.0866 22.5415C27.3326 21.9841 25.8975 22.1433 25.0205 23.0193C24.1435 23.8953 23.9841 25.3288 24.5421 27.0808C24.7016 27.6382 25.0205 28.2753 25.3394 28.9124V29.0717C25.0205 29.7088 24.7016 30.3458 24.5421 30.9033C23.9841 32.6553 24.1435 34.0887 25.0205 34.9647C25.5786 35.5222 26.2961 35.7611 27.1731 35.7611C27.7312 35.7611 28.4487 35.6815 29.0866 35.4425C29.6446 35.2036 30.2825 34.9647 31 34.5666ZM34.8269 34.9647C34.3485 34.9647 33.7904 34.8851 33.1526 34.6462L31.9567 34.1684L31.7973 34.0887L31.9567 34.0091C32.754 33.4516 33.4715 32.8942 34.1891 32.1775C34.9066 31.4608 35.4647 30.744 36.0228 29.9477L36.1025 29.7884L36.1822 29.9477C36.4214 30.3458 36.5809 30.744 36.6606 31.1422C37.139 32.5757 37.0592 33.7702 36.4214 34.4073C36.0228 34.8055 35.4647 34.9647 34.8269 34.9647ZM32.1959 34.0091C32.5148 34.1684 32.8337 34.3276 33.1526 34.4073C34.508 34.8851 35.6241 34.8055 36.1822 34.248C36.7403 33.6906 36.82 32.5757 36.3417 31.2218C36.262 30.9033 36.1025 30.5848 35.9431 30.2662C35.4647 30.9829 34.8269 31.6997 34.1891 32.3367C33.631 32.8942 32.9134 33.5313 32.1959 34.0091ZM27.1731 34.9647C26.4556 34.9647 25.9772 34.8055 25.5786 34.4073C24.9408 33.7702 24.861 32.5757 25.3394 31.1422L25.8178 29.9477L25.8975 29.7884L25.9772 29.9477C26.5353 30.744 27.0934 31.4608 27.8109 32.1775C28.5285 32.8942 29.246 33.4516 30.0433 34.0091L30.2027 34.0887L30.0433 34.1684C29.6446 34.4073 29.246 34.5666 28.8474 34.6462C28.2096 34.8851 27.6515 34.9647 27.1731 34.9647ZM25.8975 30.1866C25.738 30.5051 25.5786 30.8237 25.4989 31.1422C25.0205 32.496 25.1002 33.6109 25.6583 34.1684C26.2164 34.7258 27.3326 34.8055 28.6879 34.3276C29.0068 34.248 29.3257 34.0887 29.6446 33.9295C28.9271 33.4516 28.2096 32.8146 27.5718 32.1775C27.0137 31.62 26.4556 30.9829 25.8975 30.1866ZM31 33.6109C30.0433 32.9738 29.246 32.3367 28.4487 31.5404C27.6515 30.744 27.0137 29.9477 26.4556 29.0717L26.3759 28.992L26.4556 28.9124C27.0137 28.0364 27.7312 27.1604 28.4487 26.4437C29.1663 25.727 30.0433 25.0102 30.9203 24.4528L31 24.3732L31.0797 24.4528C31.9567 25.0102 32.8337 25.727 33.5513 26.4437C34.3485 27.24 34.9863 28.0364 35.5444 28.9124L35.6241 28.992L35.5444 29.0717C34.9863 29.9477 34.2688 30.8237 33.5513 31.5404C32.754 32.3367 31.9567 33.0535 31 33.6109ZM26.615 28.992C27.1731 29.868 27.8109 30.6644 28.5285 31.3811C29.246 32.0978 30.123 32.8146 30.9203 33.2924C31.7973 32.7349 32.5945 32.0978 33.3121 31.3811C34.0296 30.6644 34.7472 29.7884 35.2255 28.992C34.6674 28.116 34.0296 27.3197 33.3121 26.603C32.5945 25.8862 31.7175 25.1695 30.9203 24.6917C30.0433 25.2491 29.246 25.8862 28.5285 26.603C27.8109 27.3197 27.1731 28.116 26.615 28.992ZM36.1025 28.1957L36.0228 28.0364C35.4647 27.24 34.9066 26.5233 34.1891 25.8066C33.4715 25.0899 32.754 24.5324 31.9567 23.975L31.7973 23.8953L31.9567 23.8157C32.3554 23.5768 32.754 23.4175 33.1526 23.3379C34.5877 22.8601 35.7836 22.9397 36.4214 23.5768C37.0592 24.2139 37.139 25.4084 36.6606 26.8419L36.1822 28.0364L36.1025 28.1957ZM32.1959 23.975C32.9134 24.4528 33.631 25.0899 34.2688 25.727C34.9066 26.364 35.4647 27.0808 36.0228 27.7975C36.1822 27.479 36.3417 27.1604 36.4214 26.8419C36.8998 25.4881 36.82 24.3732 36.262 23.8157C35.7039 23.2582 34.5877 23.1786 33.2323 23.6564C32.9134 23.6564 32.5945 23.8157 32.1959 23.975ZM25.8975 28.1957L25.8178 28.0364C25.5786 27.6382 25.4191 27.24 25.3394 26.8419C24.861 25.4084 24.9408 24.2139 25.5786 23.5768C26.2164 22.9397 27.4123 22.8601 28.8474 23.3379L30.0433 23.8157L30.2027 23.8953L30.0433 23.975C29.246 24.5324 28.5285 25.0899 27.8109 25.8066C27.0934 26.5233 26.5353 27.24 25.9772 28.0364L25.8975 28.1957ZM25.738 23.7361C25.18 24.2935 25.1002 25.4084 25.5786 26.7622C25.6583 27.0808 25.8178 27.3993 25.9772 27.7179C26.4556 27.0011 27.0934 26.2844 27.7312 25.6473C28.369 25.0102 29.0866 24.4528 29.8041 23.8953C29.4852 23.7361 29.1663 23.5768 28.8474 23.4972C27.4123 23.099 26.2961 23.1786 25.738 23.7361Z" fill="white"/>
<path d="M31 26.9215C29.8838 26.9215 28.9271 27.8771 28.9271 28.992C28.9271 30.1069 29.8838 31.0626 31 31.0626C32.1162 31.0626 33.0729 30.1069 33.0729 28.992C33.0729 27.8771 32.1162 26.9215 31 26.9215ZM31 30.0273C30.4419 30.0273 29.9636 29.5495 29.9636 28.992C29.9636 28.4346 30.4419 27.9568 31 27.9568C31.5581 27.9568 32.0364 28.4346 32.0364 28.992C32.0364 29.5495 31.5581 30.0273 31 30.0273Z" fill="white"/>
</svg>
