<svg width="40" height="40" viewBox="0 0 40 40" fill="none" xmlns="http://www.w3.org/2000/svg">
<path d="M20 1.4541C30.0415 1.4541 38.1816 9.59518 38.1816 19.6367C38.1814 29.6781 30.0414 37.8184 20 37.8184C9.95858 37.8184 1.81855 29.6781 1.81836 19.6367C1.81836 9.59518 9.95846 1.4541 20 1.4541ZM20 3.81836C11.2639 3.81836 4.18164 10.9006 4.18164 19.6367C4.18183 28.3727 11.264 35.4541 20 35.4541C28.736 35.4541 35.8182 28.3727 35.8184 19.6367C35.8184 10.9006 28.7361 3.81836 20 3.81836ZM20 5.63672C27.732 5.63672 34 11.9047 34 19.6367C33.9998 27.3685 27.7319 33.6367 20 33.6367C12.2681 33.6367 6.00019 27.3685 6 19.6367C6 11.9047 12.268 5.63672 20 5.63672ZM19.79 11.1133C19.3218 11.1467 19.046 11.5148 19.0459 12.1084V18.3477C19.0417 18.6096 18.9365 18.8601 18.7529 19.0469C18.5692 19.2337 18.3205 19.343 18.0586 19.3516H13.5254C13.3596 19.3471 13.1938 19.3636 13.0322 19.4014C12.8764 19.463 12.7427 19.5705 12.6484 19.709C12.5541 19.8477 12.5029 20.0119 12.5029 20.1797C12.503 20.3473 12.5542 20.5108 12.6484 20.6494C12.7428 20.7881 12.8762 20.8954 13.0322 20.957C13.2081 20.9944 13.3876 21.0118 13.5674 21.0078H18.1426C18.3234 21.0162 18.4943 21.0935 18.6191 21.2246C18.7698 21.3972 18.9542 21.5374 19.1611 21.6357C19.368 21.7341 19.5933 21.789 19.8223 21.7969C20.0511 21.8047 20.2792 21.7655 20.4922 21.6816C20.7054 21.5977 20.8994 21.4705 21.0615 21.3086C21.2111 21.1443 21.326 20.9515 21.4004 20.7422C21.4747 20.5328 21.5066 20.3107 21.4941 20.0889C21.4817 19.8671 21.4254 19.6499 21.3281 19.4502C21.2308 19.2504 21.0948 19.0714 20.9277 18.9248C20.7927 18.8018 20.7108 18.6307 20.7012 18.4482V12.0586C20.7012 11.4314 20.2583 11.0799 19.79 11.1133Z" fill="#7CD0E8"/>
<path fill-rule="evenodd" clip-rule="evenodd" d="M7.55818 24.554H32.5174C32.9149 24.523 33.3146 24.5764 33.6889 24.7107C34.0632 24.845 34.4033 25.0568 34.6857 25.3317C34.9681 25.6065 35.1861 25.9379 35.3248 26.3029C35.4635 26.6679 35.5195 27.0579 35.489 27.4461V35.8531C35.5222 36.2419 35.4684 36.6331 35.3315 36.9996C35.1946 37.3662 34.9779 37.6993 34.6962 37.976C34.4145 38.2528 34.0746 38.4665 33.7 38.6024C33.3254 38.7383 32.9251 38.7931 32.5266 38.7632H7.56738C6.90888 38.8118 6.25436 38.6283 5.72264 38.2459C5.19091 37.8636 4.81723 37.3078 4.66942 36.6794C4.61566 36.4224 4.59404 36.16 4.60502 35.898V27.4102C4.58038 27.0265 4.6401 26.6422 4.78018 26.2829C4.92025 25.9236 5.13745 25.5978 5.41717 25.3273C5.69689 25.0567 6.03266 24.8477 6.40194 24.7144C6.77122 24.581 7.16546 24.5263 7.55818 24.554ZM9.79375 34.3082H11.7993C12.0433 34.3082 12.2773 34.4028 12.4499 34.5713C12.6224 34.7397 12.7193 34.9682 12.7193 35.2064C12.7193 35.4446 12.6224 35.6731 12.4499 35.8415C12.2773 36.0099 12.0433 36.1046 11.7993 36.1046H9.03936C8.80416 36.0988 8.57246 36.0476 8.35758 35.9541C8.1427 35.8605 7.94889 35.7264 7.78729 35.5595C7.6257 35.3925 7.49951 35.196 7.41598 34.9813C7.33245 34.7665 7.29323 34.5378 7.30058 34.3082V32.5118C7.30302 32.056 7.49019 31.6197 7.82119 31.2982C8.15218 30.9768 8.60008 30.7963 9.06696 30.7963H10.9069V29H8.29417C8.17336 29.0059 8.05254 28.9885 7.93861 28.9488C7.82468 28.9091 7.71987 28.8479 7.63017 28.7686C7.54047 28.6894 7.46763 28.5937 7.41582 28.487C7.364 28.3803 7.33422 28.2646 7.32818 28.1467C7.32214 28.0287 7.33996 27.9108 7.38061 27.7995C7.42126 27.6883 7.48396 27.586 7.56512 27.4984C7.64627 27.4108 7.7443 27.3397 7.85361 27.2892C7.96292 27.2386 8.08136 27.2095 8.20217 27.2036H11.0909C11.5377 27.2264 11.9587 27.4148 12.2681 27.7302C12.5775 28.0457 12.752 28.4644 12.7561 28.9012C12.7883 29.5235 12.7883 30.147 12.7561 30.7694C12.749 31.0053 12.6943 31.2376 12.5951 31.4528C12.496 31.6681 12.3544 31.8622 12.1784 32.0241C12.0024 32.1859 11.7954 32.3123 11.5694 32.396C11.3433 32.4797 11.1026 32.519 10.8609 32.5118H9.15896V34.3082H9.79375ZM19.9581 35.5182C20.0189 35.3897 20.0478 35.249 20.0424 35.1076C20.0445 34.6585 20.0456 34.2089 20.0467 33.7593C20.0507 32.1858 20.0547 30.6117 20.0976 29.0538V28.0569C20.0513 27.8584 19.9373 27.6812 19.7743 27.5543C19.6114 27.4274 19.4091 27.3583 19.2006 27.3583C18.9922 27.3583 18.7899 27.4274 18.6269 27.5543C18.4639 27.6812 18.35 27.8584 18.3036 28.0569V28.5958V30.7424H16.4637V28.2185C16.4637 27.6078 16.0865 27.2305 15.5437 27.2216C15.0009 27.2126 14.6237 27.6168 14.6237 28.2455V30.5179C14.5966 30.782 14.6298 31.0486 14.7209 31.2986C14.812 31.5487 14.9587 31.7759 15.1505 31.964C15.3423 32.1521 15.5743 32.2963 15.83 32.3864C16.0857 32.4765 16.3587 32.5101 16.6293 32.4849H18.2392V35.1076C18.2294 35.3046 18.2862 35.4993 18.4009 35.6616C18.5156 35.8239 18.6819 35.9449 18.874 36.0058C19.0136 36.0441 19.1604 36.0497 19.3026 36.022C19.4448 35.9944 19.5783 35.9344 19.6922 35.8468C19.8061 35.7592 19.8972 35.6466 19.9581 35.5182ZM25.4611 27.4641C25.0379 29.5658 24.6086 31.6616 24.1732 33.7513C24.0904 34.142 24.0122 34.535 23.934 34.928C23.8558 35.3209 23.7776 35.7139 23.6948 36.1046C23.5752 36.6614 23.244 36.9578 22.7748 36.9489C22.6415 36.9437 22.5109 36.9103 22.3922 36.851C22.2734 36.7916 22.1693 36.7078 22.087 36.6053C22.0047 36.5027 21.9463 36.384 21.9157 36.2572C21.8852 36.1304 21.8832 35.9986 21.91 35.871C22.2718 34.0747 22.6337 32.2963 22.9956 30.5358C23.2164 29.4221 23.4464 28.3084 23.6764 27.2036C23.8144 26.5569 24.2192 26.2336 24.7527 26.3054C24.8814 26.3286 25.0034 26.3784 25.1108 26.4513C25.2182 26.5242 25.3084 26.6186 25.3754 26.7283C25.4425 26.8379 25.4848 26.9603 25.4996 27.0871C25.5144 27.214 25.5012 27.3425 25.4611 27.4641ZM30.5547 34.1274C31.1313 32.6304 31.7084 31.1322 32.269 29.6287C32.3754 29.3553 32.4118 29.0607 32.375 28.7705C32.3383 28.4802 32.2295 28.2032 32.0581 27.9633C31.8868 27.7234 31.6581 27.528 31.3918 27.3941C31.1255 27.2601 30.8298 27.1916 30.5303 27.1946H28.4051C27.7611 27.1946 27.3471 27.5539 27.3471 28.0928C27.3462 28.2204 27.3731 28.3467 27.4261 28.4634C27.479 28.58 27.5569 28.6843 27.6543 28.7693C27.7518 28.8543 27.8668 28.918 27.9914 28.9562C28.1161 28.9944 28.2477 29.0063 28.3775 28.991H30.5671L30.4107 29.4401L28.3407 34.8292C28.2761 34.9419 28.2371 35.0669 28.2265 35.1957C28.2159 35.3244 28.2338 35.4539 28.2791 35.5753C28.3244 35.6967 28.396 35.8071 28.489 35.899C28.582 35.9909 28.6942 36.0621 28.818 36.1078C28.9417 36.1535 29.0741 36.1727 29.2061 36.1639C29.3381 36.1551 29.4666 36.1186 29.5829 36.0569C29.6991 35.9952 29.8004 35.9098 29.8797 35.8064C29.9591 35.703 30.0147 35.5841 30.0427 35.4579C30.213 35.0144 30.3838 34.571 30.5547 34.1274Z" fill="#7A49E9"/>
</svg>
