<svg width="277" height="241" viewBox="0 0 277 241" fill="none" xmlns="http://www.w3.org/2000/svg">
<g opacity="0.9">
<g filter="url(#filter0_i_4686_15599)">
<path d="M69.5109 156.204L78.7451 155.341V192.754L69.5109 193.617V156.204Z" fill="url(#paint0_linear_4686_15599)"/>
<path d="M48.7341 164.435L57.9682 163.572V194.697L48.7341 195.56V164.435Z" fill="url(#paint1_linear_4686_15599)"/>
<path d="M90.2877 144.829L99.5219 143.966V190.811L90.2877 191.674V144.829Z" fill="url(#paint2_linear_4686_15599)"/>
<path d="M111.065 133.14L120.299 132.277V188.868L111.065 189.732V133.14Z" fill="url(#paint3_linear_4686_15599)"/>
<path d="M131.841 122.708L141.076 121.845V186.925L131.841 187.789V122.708Z" fill="url(#paint4_linear_4686_15599)"/>
<path d="M151.735 110.692L160.969 109.828V184.969L151.735 185.833V110.692Z" fill="url(#paint5_linear_4686_15599)"/>
<path d="M169.862 87.0164L179.096 86.1529V182.987L169.862 183.851V87.0164Z" fill="url(#paint6_linear_4686_15599)"/>
<path d="M187.105 79.0478L196.34 78.1842V180.992L187.105 181.855V79.0478Z" fill="url(#paint7_linear_4686_15599)"/>
<path d="M204.349 48.757L213.583 47.8935V178.997L204.349 179.86V48.757Z" fill="url(#paint8_linear_4686_15599)"/>
<path d="M221.907 26.8295L231.141 25.966V176.876L221.907 177.74V26.8295Z" fill="url(#paint9_linear_4686_15599)"/>
</g>
<path d="M140.575 122.393V186.471L132.341 187.241V123.163L140.575 122.393ZM119.799 132.825V188.413L111.564 189.184V133.595L119.799 132.825ZM99.0217 144.514V190.356L90.7877 191.126V145.284L99.0217 144.514ZM78.2453 155.888V192.299L70.0103 193.069V156.658L78.2453 155.888ZM57.4679 164.119V194.242L49.2339 195.012V164.889L57.4679 164.119ZM160.469 110.376V184.515L152.235 185.285V111.146L160.469 110.376ZM178.596 86.7005V182.532L170.362 183.302V87.4705L178.596 86.7005ZM195.84 78.7322V180.537L187.605 181.307V79.5022L195.84 78.7322ZM213.083 48.4411V178.542L204.849 179.312V49.2111L213.083 48.4411ZM230.641 26.5137V176.422L222.407 177.192V27.2837L230.641 26.5137Z" stroke="#D9FBFF"/>
<path d="M42.5848 195.925L255.031 175.423" stroke="#D9FBFF"/>
<g filter="url(#filter1_f_4686_15599)">
<path d="M21.0265 214.14C19.5735 215.866 19.7479 218.391 21.4161 219.78C23.0842 221.168 25.6145 220.894 27.0675 219.168L24.047 216.654L21.0265 214.14ZM84.3943 144.954L86.2836 141.345L83.4697 139.95L81.3738 142.44L84.3943 144.954ZM101.43 153.401L99.5409 157.01L101.459 157.961L103.364 156.835L101.43 153.401ZM167.841 114.16L169.775 117.594L170.655 117.074L171.202 116.209L167.841 114.16ZM187.909 82.4023L188.376 78.4031L185.903 78.2097L184.548 80.3539L187.909 82.4023ZM213.318 84.389L212.851 88.3882L215.232 88.5744L216.604 86.552L213.318 84.389ZM256.958 20.0409L215.077 41.3332L253.019 66.3101L256.958 20.0409ZM24.047 216.654L27.0675 219.168L87.4148 147.468L84.3943 144.954L81.3738 142.44L21.0265 214.14L24.047 216.654ZM84.3943 144.954L82.5051 148.563L99.5409 157.01L101.43 153.401L103.319 149.792L86.2836 141.345L84.3943 144.954ZM101.43 153.401L103.364 156.835L169.775 117.594L167.841 114.16L165.907 110.726L99.4966 149.967L101.43 153.401ZM167.841 114.16L171.202 116.209L191.27 84.4507L187.909 82.4023L184.548 80.3539L164.48 112.112L167.841 114.16ZM187.909 82.4023L187.441 86.4015L212.851 88.3882L213.318 84.389L213.785 80.3898L188.376 78.4031L187.909 82.4023ZM213.318 84.389L216.604 86.552L239.625 52.6067L236.339 50.4436L233.054 48.2805L210.032 82.2259L213.318 84.389Z" fill="url(#paint10_linear_4686_15599)"/>
</g>
<path d="M21.7817 214.768C20.6919 216.063 20.8227 217.957 22.0738 218.998C23.3249 220.039 25.2226 219.834 26.3124 218.539L24.047 216.654L21.7817 214.768ZM84.3943 144.954L85.8113 142.247L83.7009 141.201L82.129 143.069L84.3943 144.954ZM101.43 153.401L100.013 156.108L101.452 156.821L102.88 155.977L101.43 153.401ZM167.841 114.16L169.291 116.736L169.952 116.345L170.362 115.696L167.841 114.16ZM187.909 82.4021L188.259 79.4027L186.404 79.2577L185.388 80.8659L187.909 82.4021ZM213.318 84.3888L212.968 87.3882L214.764 87.5287L215.791 85.998L213.318 84.3888ZM257.869 17.9873L226.535 34.1159L255.094 52.697L257.869 17.9873ZM24.047 216.654L26.3124 218.539L86.6597 146.839L84.3943 144.954L82.129 143.069L21.7817 214.768L24.047 216.654ZM84.3943 144.954L82.9774 147.661L100.013 156.108L101.43 153.401L102.847 150.694L85.8113 142.247L84.3943 144.954ZM101.43 153.401L102.88 155.977L169.291 116.736L167.841 114.16L166.391 111.584L99.98 150.825L101.43 153.401ZM167.841 114.16L170.362 115.696L190.429 83.9384L187.909 82.4021L185.388 80.8659L165.32 112.624L167.841 114.16ZM187.909 82.4021L187.558 85.4015L212.968 87.3882L213.318 84.3888L213.669 81.3894L188.259 79.4027L187.909 82.4021ZM213.318 84.3888L215.791 85.998L244.993 42.4737L242.52 40.8645L240.047 39.2553L210.845 82.7796L213.318 84.3888Z" fill="url(#paint11_linear_4686_15599)"/>
</g>
<defs>
<filter id="filter0_i_4686_15599" x="48.7341" y="25.966" width="182.407" height="169.594" filterUnits="userSpaceOnUse" color-interpolation-filters="sRGB">
<feFlood flood-opacity="0" result="BackgroundImageFix"/>
<feBlend mode="normal" in="SourceGraphic" in2="BackgroundImageFix" result="shape"/>
<feColorMatrix in="SourceAlpha" type="matrix" values="0 0 0 0 0 0 0 0 0 0 0 0 0 0 0 0 0 0 127 0" result="hardAlpha"/>
<feOffset/>
<feGaussianBlur stdDeviation="10"/>
<feComposite in2="hardAlpha" operator="arithmetic" k2="-1" k3="1"/>
<feColorMatrix type="matrix" values="0 0 0 0 0.875 0 0 0 0 0.952083 0 0 0 0 1 0 0 0 1 0"/>
<feBlend mode="normal" in2="shape" result="effect1_innerShadow_4686_15599"/>
</filter>
<filter id="filter1_f_4686_15599" x="0" y="0" width="277" height="240.706" filterUnits="userSpaceOnUse" color-interpolation-filters="sRGB">
<feFlood flood-opacity="0" result="BackgroundImageFix"/>
<feBlend mode="normal" in="SourceGraphic" in2="BackgroundImageFix" result="shape"/>
<feGaussianBlur stdDeviation="10" result="effect1_foregroundBlur_4686_15599"/>
</filter>
<linearGradient id="paint0_linear_4686_15599" x1="146.847" y1="35.4751" x2="160.837" y2="185.077" gradientUnits="userSpaceOnUse">
<stop stop-color="white"/>
<stop offset="0.695823" stop-color="#4A9EFF"/>
<stop offset="1" stop-color="#4CA0FF"/>
</linearGradient>
<linearGradient id="paint1_linear_4686_15599" x1="146.847" y1="35.4751" x2="160.837" y2="185.077" gradientUnits="userSpaceOnUse">
<stop stop-color="white"/>
<stop offset="0.695823" stop-color="#4A9EFF"/>
<stop offset="1" stop-color="#4CA0FF"/>
</linearGradient>
<linearGradient id="paint2_linear_4686_15599" x1="146.847" y1="35.4751" x2="160.837" y2="185.077" gradientUnits="userSpaceOnUse">
<stop stop-color="white"/>
<stop offset="0.695823" stop-color="#4A9EFF"/>
<stop offset="1" stop-color="#4CA0FF"/>
</linearGradient>
<linearGradient id="paint3_linear_4686_15599" x1="146.847" y1="35.4751" x2="160.837" y2="185.077" gradientUnits="userSpaceOnUse">
<stop stop-color="white"/>
<stop offset="0.695823" stop-color="#4A9EFF"/>
<stop offset="1" stop-color="#4CA0FF"/>
</linearGradient>
<linearGradient id="paint4_linear_4686_15599" x1="146.847" y1="35.4751" x2="160.837" y2="185.077" gradientUnits="userSpaceOnUse">
<stop stop-color="white"/>
<stop offset="0.695823" stop-color="#4A9EFF"/>
<stop offset="1" stop-color="#4CA0FF"/>
</linearGradient>
<linearGradient id="paint5_linear_4686_15599" x1="146.847" y1="35.4751" x2="160.837" y2="185.077" gradientUnits="userSpaceOnUse">
<stop stop-color="white"/>
<stop offset="0.695823" stop-color="#4A9EFF"/>
<stop offset="1" stop-color="#4CA0FF"/>
</linearGradient>
<linearGradient id="paint6_linear_4686_15599" x1="146.847" y1="35.4751" x2="160.837" y2="185.077" gradientUnits="userSpaceOnUse">
<stop stop-color="white"/>
<stop offset="0.695823" stop-color="#4A9EFF"/>
<stop offset="1" stop-color="#4CA0FF"/>
</linearGradient>
<linearGradient id="paint7_linear_4686_15599" x1="146.847" y1="35.4751" x2="160.837" y2="185.077" gradientUnits="userSpaceOnUse">
<stop stop-color="white"/>
<stop offset="0.695823" stop-color="#4A9EFF"/>
<stop offset="1" stop-color="#4CA0FF"/>
</linearGradient>
<linearGradient id="paint8_linear_4686_15599" x1="146.847" y1="35.4751" x2="160.837" y2="185.077" gradientUnits="userSpaceOnUse">
<stop stop-color="white"/>
<stop offset="0.695823" stop-color="#4A9EFF"/>
<stop offset="1" stop-color="#4CA0FF"/>
</linearGradient>
<linearGradient id="paint9_linear_4686_15599" x1="146.847" y1="35.4751" x2="160.837" y2="185.077" gradientUnits="userSpaceOnUse">
<stop stop-color="white"/>
<stop offset="0.695823" stop-color="#4A9EFF"/>
<stop offset="1" stop-color="#4CA0FF"/>
</linearGradient>
<linearGradient id="paint10_linear_4686_15599" x1="259.228" y1="21.9036" x2="8.3154" y2="193.424" gradientUnits="userSpaceOnUse">
<stop stop-color="#B1DEFF"/>
<stop offset="1" stop-color="#7DE7FF"/>
</linearGradient>
<linearGradient id="paint11_linear_4686_15599" x1="259.228" y1="21.9035" x2="8.31535" y2="193.423" gradientUnits="userSpaceOnUse">
<stop stop-color="white"/>
<stop offset="1" stop-color="#72EAFF"/>
</linearGradient>
</defs>
</svg>
