<svg width="100" height="100" viewBox="0 0 100 100" fill="none" xmlns="http://www.w3.org/2000/svg">
<g clip-path="url(#clip0_2365_20647)">
<path d="M95 50C95 38.0653 90.2589 26.6193 81.8198 18.1802C73.3807 9.74106 61.9347 5 50 5C38.0653 5 26.6193 9.74106 18.1802 18.1802C9.74106 26.6193 5 38.0653 5 50C5 61.9347 9.74106 73.3807 18.1802 81.8198C26.6193 90.2589 38.0653 95 50 95C61.9347 95 73.3807 90.2589 81.8198 81.8198C90.2589 73.3807 95 61.9347 95 50Z" fill="#FF0000"/>
<path d="M49.9998 39.5544L35.1504 28.9961L40.7966 46.1604L26.0037 57.1141L44.2972 57.1141L49.9998 73.9961L55.5331 57.1141H73.9961L59.2596 46.1604L64.8493 28.9961L49.9998 39.5544Z" fill="#FFE62E"/>
</g>
<path d="M0 50.0008C0 63.2607 5.26784 75.9776 14.6447 85.3539C24.0215 94.7301 36.7392 99.9976 50 99.9976C63.2608 99.9976 75.9785 94.7301 85.3553 85.3539C94.7322 75.9776 100 63.2607 100 50.0008C100 36.7408 94.7322 24.0239 85.3553 14.6476C75.9785 5.27142 63.2608 0.00390625 50 0.00390625C36.7392 0.00390625 24.0215 5.27142 14.6447 14.6476C5.26784 24.0239 0 36.7408 0 50.0008Z" fill="white"/>
<path d="M50.0001 50.002L13.9819 84.6725C21.0339 92.0115 30.1618 97.0185 40.141 99.0216C48.0632 100.614 56.2532 100.262 64.0097 97.9963C71.7661 95.7308 78.8578 91.6191 84.6774 86.0133C89.5199 81.3507 93.3692 75.7568 95.9939 69.5682C98.6185 63.3796 99.9643 56.7241 99.9501 50.002H50.0047H50.0001Z" fill="#CE1126"/>
<path d="M50.0001 49.9996L13.9819 15.32C21.0365 7.98374 30.1659 2.98001 40.1456 0.980007C48.0677 -0.612031 56.2578 -0.260225 64.0142 2.00529C71.7707 4.27081 78.8624 8.38253 84.6819 13.9883C89.525 18.6514 93.3746 24.246 95.9993 30.4355C98.624 36.6249 99.9694 43.2813 99.9547 50.0042H50.0047L50.0001 49.9996Z" fill="#0038A8"/>
<path d="M12.6732 70.2474L10.8687 69.4565L9.61867 70.9383L9.80503 69.0429L8.00049 68.3021L9.89594 67.8385L10.0369 65.9386L11.0096 67.6067L12.905 67.0976L11.6096 68.5793L12.6778 70.2474H12.6732ZM35.5459 51.544L36.655 49.9714L35.5459 48.3942L37.3505 48.9987L38.4641 47.3761V49.276L40.3141 49.876L38.5096 50.4305V52.4213L37.3505 50.8032L35.5459 51.544ZM12.6732 29.6909L10.8641 30.4817L9.61412 29L9.80049 30.8953L8.0414 31.7316L9.9414 32.0998L10.0778 33.9997L11.0505 32.3316L12.9505 32.7952L11.655 31.3589L12.6732 29.6909Z" fill="#FAD400"/>
<path d="M31.0021 48.791L30.0105 49.9084L25.9868 49.2633C25.4595 49.1481 26.0441 49.7299 26.2161 49.7299L27.3853 49.9718C28.0846 50.1446 28.7839 50.2022 29.4832 50.375C28.6119 51.0201 28.6119 51.0201 27.6777 50.7897C27.093 50.6688 26.6803 50.5536 26.1014 50.375C25.3964 50.1446 25.6314 50.7264 25.3391 51.3139C24.8175 52.2528 26.2734 52.4947 27.0357 52.9555C27.735 53.3703 27.6777 53.5431 27.735 54.3092C27.0357 53.7216 26.2161 53.3127 25.4537 52.7251C24.6971 52.1952 24.3475 52.3738 25.1671 53.0189C26.0384 53.664 26.858 54.2516 27.6777 54.8967L27.97 56.475C27.265 56.475 26.623 56.8321 26.1587 56.187L24.0552 53.6007C23.9979 53.5431 23.1266 53.0765 23.4132 53.5431L24.0552 54.482C24.5617 55.1533 25.0491 55.8391 25.5168 56.5383C24.5252 56.4231 24.5252 56.4231 23.9406 55.5994L23.9405 55.5994C23.7055 55.1271 23.4132 54.6548 23.1209 54.194C22.8286 53.6064 22.5363 54.1364 21.8943 54.3668C21.2008 54.6029 21.3154 54.482 21.4873 55.1905L21.9574 56.7745C22.1293 57.5348 21.9574 57.5924 21.4873 58.2433C21.195 57.2987 21.0747 56.4231 20.9027 55.4785C20.725 54.5453 20.2665 54.482 20.4384 55.4785C20.5588 56.4807 20.6734 57.5924 20.8454 58.5889L19.7334 60.0002C19.0915 59.5278 18.5699 59.2974 18.6272 58.5313C18.6902 57.4772 18.8622 56.3598 18.9195 55.2481C18.9195 55.0695 18.5641 54.0154 18.5068 54.6605L18.3349 55.7722C18.1572 56.6535 18.0426 57.4772 17.8706 58.2952C17.2286 57.4772 17.2286 57.4196 17.4579 56.4807C17.5783 55.8932 17.6929 55.4785 17.8706 54.8967C18.0999 54.194 17.5152 54.4244 16.8733 54.1364C16.2313 53.7792 16.4663 53.7792 16.0594 54.4244C15.8869 54.8829 15.6064 55.3359 15.3227 55.7941L15.297 55.8356C14.8901 56.5383 14.7181 56.4807 13.9558 56.5383C14.4275 55.74 14.9542 54.9759 15.532 54.2516C16.174 53.3703 15.8817 53.0189 15.2397 53.8368C14.5978 54.7181 13.8985 55.5418 13.2565 56.3655L11.451 56.5959C11.3306 55.8932 11.0956 55.2481 11.7376 54.7757C12.6186 54.1245 13.4751 53.4405 14.3054 52.7251C14.3628 52.6675 14.8328 51.7862 14.3628 52.08L13.4285 52.7251L11.3306 54.1306C11.5026 53.1341 11.5026 53.1341 12.3222 52.6675C12.7865 52.489 13.2565 52.1376 13.7208 51.9014C14.2481 51.4925 13.7781 51.3139 13.5488 50.6745C13.2565 49.7299 12.0299 50.496 11.2103 50.7321C10.4537 50.9625 10.3964 50.7321 9.74868 50.2598C10.6887 50.0812 11.5657 49.966 12.4999 49.7875C13.4285 49.6147 13.4915 49.1481 12.4999 49.3267C11.5026 49.4995 10.3964 49.5571 9.40477 49.7299L8.00049 48.6182C8.58513 48.0882 8.82013 47.5641 9.58246 47.6217C10.6314 47.6793 11.7376 47.8578 12.8496 47.9154C13.0273 47.9154 14.0762 47.5583 13.4285 47.5007L12.3222 47.3279C11.4453 47.1493 10.6314 47.0284 9.81173 46.8556C10.6314 46.2738 10.6314 46.2738 11.7949 46.5618C12.3272 46.6724 12.8533 46.8108 13.3712 46.9765C14.0762 47.1493 13.8412 46.6252 14.1335 45.98C14.6551 45.0411 13.1992 44.805 12.4369 44.3326C11.7376 43.9237 11.7949 43.7509 11.7376 42.9848C12.5572 43.5723 13.2565 43.9813 14.0188 44.5688C14.7754 45.2139 15.1824 44.9202 14.3054 44.275C13.4285 43.6299 12.6146 43.0424 11.7949 42.3972L11.5657 40.5828C12.2649 40.4676 12.9069 40.2257 13.3712 40.8708L15.4747 43.4571C15.532 43.5147 16.4033 43.9813 16.1167 43.5147L15.4747 42.5758C14.9474 41.8731 14.4831 41.2279 14.0131 40.5194C14.8901 40.6404 15.0047 40.6404 15.4747 41.4583C15.6524 41.9307 16.002 42.403 16.2313 42.8638C16.644 43.4571 16.9363 42.9214 17.5783 42.691C18.2776 42.4548 18.1572 42.5758 17.9795 41.8731C17.8649 41.2855 17.7502 40.8708 17.5783 40.289C17.3433 39.5229 17.5783 39.4653 18.0426 38.8202C18.2202 39.7591 18.3349 40.6404 18.5126 41.5793C18.6902 42.5182 19.1488 42.5758 18.9768 41.5793C18.7991 40.5828 18.7418 39.4653 18.5699 38.4688L19.6761 37C20.2034 37.5875 20.725 37.8237 20.6677 38.5898C20.49 39.6439 20.4327 40.7556 20.2607 41.8731C20.2607 42.0516 20.6161 43.0424 20.6734 42.4548L20.9027 41.2855C21.0804 40.4042 21.2008 39.5805 21.3727 38.7626C22.0147 39.6439 22.0147 39.6439 21.7739 40.5828C21.6593 41.1646 21.5447 41.5793 21.3727 42.1611C21.2523 42.9272 21.837 42.6968 22.4789 42.9848C23.1266 43.3937 22.8859 43.3937 23.2986 42.7486C23.5279 42.282 23.8259 41.8097 24.1125 41.3431C24.5252 40.6404 24.6971 40.698 25.4595 40.6404C24.9321 41.4583 24.4048 42.1611 23.8259 42.9272C23.1782 43.8085 23.4705 44.1598 24.1125 43.3361C24.7545 42.5758 25.4595 41.6945 26.1014 40.9284L27.7923 40.8708C27.7923 41.5793 28.0273 42.2244 27.3853 42.691C26.5084 43.3937 25.6314 44.0389 24.8118 44.7474C24.7545 44.805 24.2902 45.6805 24.7545 45.3925L25.6887 44.7474L27.7923 43.3361C27.6146 44.3326 27.6146 44.3326 26.8007 44.805C26.3307 44.9778 25.8607 45.3349 25.4021 45.5653C24.7545 45.9167 25.2245 46.0952 25.4595 46.7404C25.7518 47.6793 26.9727 46.9132 27.7923 46.6828C28.5489 46.4466 28.6119 46.5618 29.2539 47.1493C28.3196 47.3279 27.4427 47.4489 26.5084 47.6217C25.5741 47.8002 25.5168 48.261 26.5084 48.0882C27.5 47.9097 28.6119 47.8521 29.6035 47.6793L31.0021 48.791Z" fill="#FAD400"/>
<defs>
<clipPath id="clip0_2365_20647">
<rect width="90" height="90" fill="white" transform="matrix(-1 0 0 -1 95 95)"/>
</clipPath>
</defs>
</svg>
