<svg width="100" height="100" viewBox="0 0 100 100" fill="none" xmlns="http://www.w3.org/2000/svg">
<g clip-path="url(#clip0_2365_20649)">
<path d="M14 77H50V68H8.76875C10.1585 71.1923 11.914 74.2125 14 77Z" fill="#CC0000"/>
<path d="M5.9 41C5.31391 43.9645 5.01254 46.9782 5 50L95 50C94.9875 46.9782 94.6861 43.9645 94.1 41L5.9 41Z" fill="white"/>
<path d="M50 95V86H23C30.7893 91.842 40.2633 95 50 95Z" fill="#CC0000"/>
<path d="M50 77H14C16.5328 80.4334 19.5666 83.4672 23 86H50V77ZM8.76875 68H50V59L5.9 59C6.53211 62.0938 7.49385 65.1111 8.76875 68Z" fill="white"/>
<path d="M50.0001 59V50L5.0001 50C5.01264 53.0218 5.31401 56.0355 5.90009 59L50.0001 59ZM91.2313 32L8.76884 32C7.49394 34.8889 6.5322 37.9062 5.90009 41L94.1001 41C93.468 37.9062 92.5063 34.8889 91.2313 32Z" fill="#CC0000"/>
<path d="M86.0002 23L14.0002 23C11.9142 25.7875 10.1587 28.8077 8.76894 32L91.2314 32C89.8417 28.8077 88.0862 25.7875 86.0002 23Z" fill="white"/>
<path d="M86 23C83.4364 19.5932 80.4068 16.5636 77 14L23 14C19.5801 16.5484 16.5484 19.5801 14 23L86 23Z" fill="#CC0000"/>
<path d="M77 14C69.2107 8.158 59.7367 5 50 5C40.2633 5 30.7893 8.158 23 14L77 14Z" fill="white"/>
<path d="M50 95C61.9347 95 73.3807 90.2589 81.8198 81.8198C90.2589 73.3807 95 61.9347 95 50L50 50L50 95Z" fill="#000066"/>
<path d="M68.1688 59.6184C70.4066 59.6184 72.5527 60.5073 74.1351 62.0896C75.7174 63.672 76.6063 65.8181 76.6063 68.0559C76.6063 70.2936 75.7174 72.4397 74.1351 74.0221C72.5527 75.6044 70.4066 76.4934 68.1688 76.4934C66.4974 76.51 64.8633 75.9982 63.5001 75.0309C64.4491 76.1511 65.6291 77.0528 66.9593 77.6742C68.2894 78.2955 69.7382 78.6219 71.2063 78.6309C73.9961 78.6309 76.6716 77.5226 78.6442 75.55C80.6169 73.5773 81.7251 70.9019 81.7251 68.1121C81.7251 65.3224 80.6169 62.6469 78.6442 60.6742C76.6716 58.7016 73.9961 57.5934 71.2063 57.5934C69.7338 57.6092 68.2823 57.9443 66.9519 58.5756C65.6214 59.2068 64.4438 60.1191 63.5001 61.2496C64.8427 60.2222 66.4785 59.6506 68.1688 59.6184ZM59.0001 69.7996L57.9876 72.4996L58.2688 69.5746L56.1876 71.5996L57.6501 69.1246L54.9501 70.0246L57.3126 68.3934L54.5001 67.9996L57.3126 67.6059L54.9501 65.9746L57.6501 66.8746L56.1876 64.3996L58.2688 66.4246L57.9876 63.4996L59.0001 66.1996L60.0126 63.4996L59.7313 66.4246L61.8126 64.3996L60.3501 66.8746L63.0501 65.9746L60.6876 67.6059L63.5001 67.9996L60.6876 68.3934L63.0501 70.0246L60.3501 69.1246L61.8126 71.5996L59.7313 69.5746L60.0126 72.4996L59.0001 69.7996Z" fill="#FFCC00"/>
</g>
<g clip-path="url(#clip1_2365_20649)">
<path d="M0 50C0 63.2608 5.26784 75.9785 14.6447 85.3553C24.0215 94.7322 36.7392 100 50 100C63.2608 100 75.9785 94.7322 85.3553 85.3553C94.7322 75.9785 100 63.2608 100 50C100 36.7392 94.7322 24.0215 85.3553 14.6447C75.9785 5.26784 63.2608 0 50 0C36.7392 0 24.0215 5.26784 14.6447 14.6447C5.26784 24.0215 0 36.7392 0 50Z" fill="#FF0000"/>
<path d="M49.9999 61.6064L66.4993 73.3379L60.2258 54.2664L76.6623 42.0957H56.3361L49.9999 23.3379L43.8519 42.0957H23.3374L39.7113 54.2664L33.5005 73.3379L49.9999 61.6064Z" fill="#FFE62E"/>
</g>
<defs>
<clipPath id="clip0_2365_20649">
<rect width="90" height="90" fill="white" transform="matrix(-1 0 0 -1 95 95)"/>
</clipPath>
<clipPath id="clip1_2365_20649">
<rect width="100" height="100" fill="white"/>
</clipPath>
</defs>
</svg>
