<svg width="30" height="20" viewBox="0 0 30 20" fill="none" xmlns="http://www.w3.org/2000/svg">
<g clip-path="url(#clip0_0_174)">
<path d="M0 0H30V20H0V0Z" fill="#EE1C25"/>
<path d="M16.4317 4.17325C16.2955 4.21687 16.1711 4.29133 16.0683 4.39083C15.9655 4.49034 15.887 4.61221 15.8389 4.74697C15.7909 4.88174 15.7746 5.02577 15.7912 5.16787C15.8079 5.30998 15.8571 5.44632 15.935 5.56632C16.0548 5.75086 16.1328 5.95942 16.1633 6.17732C16.1939 6.39522 16.1763 6.61717 16.1118 6.82754C16.0473 7.03792 15.9375 7.2316 15.7901 7.39497C15.6427 7.55834 15.4613 7.68741 15.2587 7.77312C15.059 7.85754 14.8839 7.99096 14.7496 8.16102C14.6152 8.33109 14.5259 8.5323 14.49 8.74604C14.454 8.95978 14.4726 9.17914 14.5439 9.3838C14.6153 9.58846 14.7371 9.77181 14.8981 9.91689C14.4138 9.5723 14.0833 9.05216 13.977 8.46736C13.8707 7.88256 13.9971 7.27937 14.3292 6.78642C14.3163 6.77539 14.304 6.76374 14.2922 6.75152C13.9524 7.25207 13.8207 7.8652 13.9249 8.46116C14.0292 9.05711 14.3612 9.58912 14.8507 9.94462C14.1642 9.66964 13.6028 9.15163 13.2737 8.48933C12.9445 7.82704 12.8706 7.06678 13.066 6.35348C13.2614 5.64018 13.7124 5.02373 14.3332 4.62164C14.9539 4.21955 15.7009 4.05995 16.4317 4.17325Z" fill="white"/>
<path d="M15.0673 6.03675L14.1484 6.43745L15.1273 6.65332L14.4623 5.90332L14.5594 6.90099" fill="#EE1C25"/>
<path d="M20.9827 9.56035C20.8991 9.44424 20.7898 9.34896 20.6634 9.28193C20.537 9.2149 20.3969 9.17792 20.2539 9.17386C20.1108 9.1698 19.9688 9.19878 19.8388 9.25854C19.7088 9.31829 19.5943 9.40722 19.5043 9.51841C19.3658 9.6894 19.1916 9.82797 18.9938 9.92435C18.796 10.0207 18.5794 10.0726 18.3594 10.0763C18.1394 10.08 17.9213 10.0354 17.7204 9.94571C17.5195 9.85601 17.3406 9.72337 17.1965 9.55712C17.0545 9.39335 16.8735 9.26805 16.6703 9.19281C16.467 9.11758 16.248 9.09484 16.0337 9.1267C15.8193 9.15856 15.6164 9.244 15.4438 9.3751C15.2712 9.50619 15.1345 9.67872 15.0463 9.87669C15.2243 9.30961 15.6169 8.83453 16.1402 8.55273C16.6635 8.27094 17.2762 8.20474 17.8477 8.36824C17.8542 8.35258 17.8615 8.33725 17.8695 8.3223C17.2884 8.1538 16.6646 8.21799 16.13 8.50128C15.5954 8.78458 15.192 9.26475 15.0052 9.84018C15.0546 9.10225 15.3738 8.40829 15.9019 7.89059C16.4301 7.37289 17.1303 7.06765 17.8691 7.03307C18.6079 6.99848 19.3335 7.23697 19.9077 7.70306C20.482 8.16916 20.8646 8.83026 20.9827 9.56035Z" fill="white"/>
<path d="M18.7879 8.83795L18.1229 8.08791L18.2201 9.08557L18.7278 8.22132L17.809 8.62203" fill="#EE1C25"/>
<path d="M10.4165 13.8724C10.5523 13.9172 10.6967 13.9301 10.8384 13.91C10.9801 13.8899 11.1152 13.8375 11.2333 13.7567C11.3514 13.6759 11.4492 13.569 11.5193 13.4442C11.5893 13.3195 11.6297 13.1802 11.6372 13.0373C11.6487 12.8176 11.7082 12.6031 11.8116 12.4088C11.915 12.2146 12.0596 12.0454 12.2355 11.9131C12.4113 11.7808 12.6139 11.6886 12.8292 11.6431C13.0445 11.5976 13.2671 11.5998 13.4814 11.6495C13.6926 11.6986 13.9126 11.6936 14.1213 11.635C14.33 11.5764 14.5205 11.466 14.6752 11.3143C14.8299 11.1625 14.9438 10.9741 15.0064 10.7666C15.069 10.5591 15.0782 10.3391 15.0332 10.1271C15.2225 10.6906 15.1841 11.3056 14.9264 11.8412C14.6686 12.3768 14.2118 12.7905 13.6534 12.9941C13.6574 13.0106 13.6605 13.0273 13.6628 13.0441C14.232 12.8389 14.6989 12.4203 14.9649 11.8769C15.2308 11.3334 15.2749 10.7079 15.0878 10.1325C15.4817 10.7585 15.6313 11.5076 15.5083 12.2369C15.3853 12.9661 14.9983 13.6247 14.4209 14.0869C13.8436 14.5491 13.1163 14.7827 12.3778 14.7431C11.6393 14.7036 10.9411 14.3936 10.4165 13.8724Z" fill="white"/>
<path d="M12.6163 13.1674L13.5952 13.3833L12.9302 12.6333L13.0274 13.631L13.5352 12.7667" fill="#EE1C25"/>
<path d="M17.2653 15.5554C17.3499 15.44 17.4067 15.3067 17.4314 15.1658C17.4561 15.0248 17.448 14.8801 17.4076 14.7429C17.3673 14.6056 17.2959 14.4795 17.1989 14.3743C17.1019 14.2691 16.9819 14.1877 16.8483 14.1364C16.6429 14.0576 16.4573 13.9347 16.3045 13.7763C16.1517 13.618 16.0355 13.4281 15.964 13.22C15.8925 13.0119 15.8675 12.7907 15.8907 12.5719C15.9139 12.3531 15.9848 12.142 16.0984 11.9536C16.2102 11.7679 16.2735 11.5571 16.2822 11.3405C16.291 11.1239 16.2449 10.9087 16.1484 10.7146C16.0518 10.5206 15.9079 10.354 15.7299 10.2304C15.5519 10.1068 15.3455 10.03 15.13 10.0073C15.7243 10.0014 16.2975 10.2279 16.7272 10.6386C17.1569 11.0492 17.4092 11.6115 17.4303 12.2055C17.4472 12.2069 17.464 12.209 17.4807 12.212C17.4614 11.6073 17.2076 11.0339 16.773 10.613C16.3383 10.1921 15.757 9.95687 15.152 9.95701C15.8691 9.77593 16.6277 9.86505 17.2833 10.2074C17.9389 10.5497 18.4455 11.1213 18.7067 11.8133C18.9679 12.5052 18.9653 13.269 18.6995 13.9592C18.4337 14.6493 17.9232 15.2175 17.2653 15.5554Z" fill="white"/>
<path d="M17.2739 13.2456L17.7817 12.3814L16.8629 12.7821L17.8418 12.9979L17.1768 12.2479" fill="#EE1C25"/>
<path d="M9.89993 6.83858C9.8993 6.98165 9.93168 7.12294 9.99455 7.25147C10.0574 7.38 10.1491 7.4923 10.2624 7.57964C10.3757 7.66699 10.5076 7.72703 10.6479 7.7551C10.7882 7.78317 10.9331 7.77851 11.0713 7.74148C11.2838 7.68454 11.5063 7.67487 11.723 7.71316C11.9396 7.75144 12.1453 7.83675 12.3254 7.96308C12.5056 8.08941 12.6559 8.25368 12.7657 8.44435C12.8755 8.63501 12.9422 8.84743 12.9611 9.06665C12.9797 9.28259 13.0525 9.49035 13.1727 9.67069C13.2929 9.85103 13.4567 9.99813 13.6489 10.0984C13.841 10.1986 14.0554 10.2487 14.2721 10.2441C14.4888 10.2395 14.7008 10.1803 14.8885 10.072C14.4112 10.4261 13.8143 10.5797 13.2253 10.5001C12.6363 10.4205 12.1017 10.1139 11.7355 9.64572C11.721 9.65455 11.7061 9.66269 11.6909 9.67009C12.0619 10.1479 12.6043 10.4627 13.2033 10.5477C13.8023 10.6327 14.4109 10.4814 14.9003 10.1256C14.4266 10.6936 13.7605 11.0674 13.0289 11.1758C12.2973 11.2842 11.5514 11.1196 10.9334 10.7133C10.3154 10.3071 9.86847 9.68758 9.67788 8.97299C9.48728 8.25839 9.56632 7.49864 9.89993 6.83858Z" fill="white"/>
<path d="M11.2507 8.71278L11.3478 9.71047L11.8556 8.84622L10.9368 9.24694L11.9157 9.46282" fill="#EE1C25"/>
</g>
<defs>
<clipPath id="clip0_0_174">
<rect width="30" height="20" fill="white"/>
</clipPath>
</defs>
</svg>
