<svg width="30" height="20" viewBox="0 0 30 20" fill="none" xmlns="http://www.w3.org/2000/svg">
<g clip-path="url(#clip0_4686_16291)">
<g clip-path="url(#clip1_4686_16291)">
<path d="M0 0H30V20H0V0Z" fill="white"/>
<path d="M0 0H30V10H0V0Z" fill="#ED2939"/>
<path d="M6.33681 8.68045C8.36952 8.68045 10.0174 7.03261 10.0174 4.99989C10.0174 2.96718 8.36952 1.31934 6.33681 1.31934C4.30409 1.31934 2.65625 2.96718 2.65625 4.99989C2.65625 7.03261 4.30409 8.68045 6.33681 8.68045Z" fill="white"/>
<path d="M8.00282 8.68045C10.0355 8.68045 11.6834 7.03261 11.6834 4.99989C11.6834 2.96718 10.0355 1.31934 8.00282 1.31934C5.97011 1.31934 4.32227 2.96718 4.32227 4.99989C4.32227 7.03261 5.97011 8.68045 8.00282 8.68045Z" fill="#ED2939"/>
<path d="M8.34917 1.93066L7.78583 3.664L9.26083 2.59289H7.4375L8.9125 3.66455L8.34917 1.93066Z" fill="white"/>
<path d="M11.27 4.05162L9.44742 4.05148L10.9219 5.1233L10.3585 3.38921L9.79505 5.12318L11.27 4.05162Z" fill="white"/>
<path d="M6.5476 7.48318L8.02218 6.412L6.19929 6.41157L7.6744 7.48329L7.11101 5.74931L6.5476 7.48318Z" fill="white"/>
<path d="M10.155 7.48313L9.59194 5.74971L9.02823 7.48325L10.5033 6.41152L8.68012 6.4115L10.155 7.48313Z" fill="white"/>
<path d="M5.43211 4.05141L6.90653 5.1228L6.34364 3.389L5.7802 5.12309L7.25522 4.05145L5.43211 4.05141Z" fill="white"/>
</g>
</g>
<defs>
<clipPath id="clip0_4686_16291">
<rect width="30" height="20" rx="1" fill="white"/>
</clipPath>
<clipPath id="clip1_4686_16291">
<rect width="30" height="20" fill="white"/>
</clipPath>
</defs>
</svg>
