<svg width="306" height="241" viewBox="0 0 306 241" fill="none" xmlns="http://www.w3.org/2000/svg">
<g opacity="0.12" filter="url(#filter0_f_4686_15592)">
<mask id="mask0_4686_15592" style="mask-type:alpha" maskUnits="userSpaceOnUse" x="20" y="17" width="268" height="204">
<g opacity="0.9">
<path d="M155.147 122.149V186.102L145.758 186.881V122.928L155.147 122.149ZM131.775 132.561V188.041L122.386 188.82V133.34L131.775 132.561ZM108.404 144.227V189.98L99.0145 190.759V145.006L108.404 144.227ZM85.032 155.579V191.919L75.6434 192.698V156.358L85.032 155.579ZM61.66 163.794V193.859L52.2714 194.638V164.573L61.66 163.794ZM177.525 110.156V184.151L168.136 184.929V110.935L177.525 110.156ZM197.915 86.5263V182.172L188.527 182.951V87.3053L197.915 86.5263ZM217.313 78.5735V180.18L207.924 180.959V79.3525L217.313 78.5735ZM236.71 48.3415V178.189L227.32 178.968V49.1205L236.71 48.3415ZM256.46 26.4568V176.073L247.071 176.852V27.2358L256.46 26.4568Z" fill="url(#paint0_linear_4686_15592)" stroke="#D9FBFF"/>
<path d="M44.8536 195.543L283.832 175.081" stroke="#D9FBFF"/>
<path d="M21.1473 213.529C19.6005 215.159 19.6238 217.691 21.1994 219.184C22.775 220.677 25.3063 220.565 26.8531 218.934L24.0002 216.232L21.1473 213.529ZM91.8841 144.672L93.5981 140.998L91.0258 139.866L89.0312 141.969L91.8841 144.672ZM111.047 153.102L109.333 156.776L111.074 157.542L112.804 156.635L111.047 153.102ZM185.752 113.938L187.509 117.47L188.397 117.004L188.98 116.185L185.752 113.938ZM208.326 82.2417L208.741 78.2484L206.454 78.0899L205.098 79.9941L208.326 82.2417ZM236.909 84.2245L236.494 88.2178L238.689 88.3701L240.052 86.5865L236.909 84.2245ZM285.999 20.0018L243.148 38.6818L279.446 65.9551L285.999 20.0018ZM24.0002 216.232L26.8531 218.934L94.737 147.375L91.8841 144.672L89.0312 141.969L21.1473 213.529L24.0002 216.232ZM91.8841 144.672L90.17 148.346L109.333 156.776L111.047 153.102L112.762 149.428L93.5981 140.998L91.8841 144.672ZM111.047 153.102L112.804 156.635L187.509 117.47L185.752 113.938L183.996 110.405L109.291 149.57L111.047 153.102ZM185.752 113.938L188.98 116.185L211.554 84.4894L208.326 82.2417L205.098 79.9941L182.524 111.69L185.752 113.938ZM208.326 82.2417L207.912 86.235L236.494 88.2178L236.909 84.2245L237.323 80.2313L208.741 78.2484L208.326 82.2417ZM236.909 84.2245L240.052 86.5865L266.911 51.4487L263.767 49.0868L260.624 46.7249L233.765 81.8626L236.909 84.2245Z" fill="url(#paint1_linear_4686_15592)"/>
<path d="M21.8605 214.204C20.7004 215.427 20.7179 217.326 21.8996 218.446C23.0813 219.565 24.9797 219.482 26.1399 218.259L24.0002 216.231L21.8605 214.204ZM91.8841 144.672L93.1696 141.916L91.2404 141.067L89.7444 142.644L91.8841 144.672ZM111.047 153.102L109.762 155.858L111.067 156.432L112.365 155.751L111.047 153.102ZM185.752 113.938L187.069 116.587L187.736 116.238L188.173 115.623L185.752 113.938ZM208.326 82.2416L208.637 79.2466L206.922 79.1277L205.905 80.5558L208.326 82.2416ZM236.909 84.2244L236.598 87.2193L238.254 87.3342L239.276 85.9828L236.909 84.2244ZM287.024 17.9522L254.955 32.1319L282.293 52.4366L287.024 17.9522ZM24.0002 216.231L26.1399 218.259L94.0237 146.699L91.8841 144.672L89.7444 142.644L21.8605 214.204L24.0002 216.231ZM91.8841 144.672L90.5985 147.427L109.762 155.858L111.047 153.102L112.333 150.347L93.1696 141.916L91.8841 144.672ZM111.047 153.102L112.365 155.751L187.069 116.587L185.752 113.938L184.435 111.288L109.73 150.453L111.047 153.102ZM185.752 113.938L188.173 115.623L210.747 83.9273L208.326 82.2416L205.905 80.5558L183.331 112.252L185.752 113.938ZM208.326 82.2416L208.015 85.2365L236.598 87.2193L236.909 84.2244L237.22 81.2294L208.637 79.2466L208.326 82.2416ZM236.909 84.2244L239.276 85.9828L272.831 41.6095L270.464 39.851L268.096 38.0926L234.541 82.4659L236.909 84.2244Z" fill="url(#paint2_linear_4686_15592)"/>
</g>
</mask>
<g mask="url(#mask0_4686_15592)">
<rect x="-5.0024" y="-24.0515" width="332.03" height="279.025" fill="#3A3A3A"/>
</g>
</g>
<defs>
<filter id="filter0_f_4686_15592" x="10.0009" y="7.95139" width="287.024" height="222.284" filterUnits="userSpaceOnUse" color-interpolation-filters="sRGB">
<feFlood flood-opacity="0" result="BackgroundImageFix"/>
<feBlend mode="normal" in="SourceGraphic" in2="BackgroundImageFix" result="shape"/>
<feGaussianBlur stdDeviation="5" result="effect1_foregroundBlur_4686_15592"/>
</filter>
<linearGradient id="paint0_linear_4686_15592" x1="162.138" y1="35.406" x2="174.549" y2="184.992" gradientUnits="userSpaceOnUse">
<stop stop-color="white"/>
<stop offset="0.695823" stop-color="#4A9EFF"/>
<stop offset="1" stop-color="#4CA0FF"/>
</linearGradient>
<linearGradient id="paint1_linear_4686_15592" x1="288.552" y1="21.8609" x2="28.676" y2="222.084" gradientUnits="userSpaceOnUse">
<stop stop-color="#B1DEFF"/>
<stop offset="1" stop-color="#7DE7FF"/>
</linearGradient>
<linearGradient id="paint2_linear_4686_15592" x1="288.552" y1="21.8608" x2="28.676" y2="222.084" gradientUnits="userSpaceOnUse">
<stop stop-color="white"/>
<stop offset="1" stop-color="#72EAFF"/>
</linearGradient>
</defs>
</svg>
