<svg width="80" height="80" viewBox="0 0 80 80" fill="none" xmlns="http://www.w3.org/2000/svg">
<rect x="0.5" y="0.5" width="79" height="79" rx="7.5" fill="white"/>
<rect x="0.5" y="0.5" width="79" height="79" rx="7.5" stroke="#EEEEEE"/>
<path d="M20 59.4372L38.6796 20.9018C38.9642 20.2969 39.7825 20.2257 40.1739 20.7595L58.1774 45.1688C62.5538 51.0754 58.3198 59.4372 50.9903 59.4727C48.0727 59.4727 45.333 58.0495 43.6608 55.6655L40.5297 51.2177C39.4623 49.7233 37.4342 49.2607 35.8331 50.1858L20.0356 59.4372H20Z" fill="url(#paint0_linear_2497_22896)"/>
<path d="M58.1774 45.2043L40.1739 20.7595C39.7825 20.2257 38.9642 20.2969 38.6796 20.9018L20 59.4372L43.2694 45.8092C44.8705 44.8841 47.2188 45.3111 48.2862 46.8411L51.4172 51.2889C53.0895 53.6729 55.758 55.0962 58.7111 55.0962C60.4546 52.1784 60.5613 48.3356 58.213 45.2043H58.1774Z" fill="url(#paint1_linear_2497_22896)"/>
<defs>
<linearGradient id="paint0_linear_2497_22896" x1="47.112" y1="39.5468" x2="38.0746" y2="42.7133" gradientUnits="userSpaceOnUse">
<stop stop-color="#EE3123"/>
<stop offset="1" stop-color="#9E1B0D"/>
</linearGradient>
<linearGradient id="paint1_linear_2497_22896" x1="29.9624" y1="40.0094" x2="58.8185" y2="54.7035" gradientUnits="userSpaceOnUse">
<stop stop-color="#9E1B0D"/>
<stop offset="0.4" stop-color="#EE3123"/>
</linearGradient>
</defs>
</svg>
