<svg xmlns="http://www.w3.org/2000/svg" width="80" height="80" fill="none" viewBox="0 0 80 80"><rect width="79" height="79" x=".5" y=".5" fill="#fff" rx="7.5"/><rect width="79" height="79" x=".5" y=".5" stroke="#eee" rx="7.5"/><path fill="url(#a)" d="m20 59.437 18.68-38.535a.87.87 0 0 1 1.494-.143l18.003 24.41c4.377 5.906.143 14.268-7.187 14.304a8.96 8.96 0 0 1-7.33-3.807l-3.13-4.448c-1.068-1.495-3.096-1.957-4.697-1.032l-15.797 9.251z"/><path fill="url(#b)" d="M58.177 45.204 40.174 20.76a.87.87 0 0 0-1.494.142L20 59.437 43.27 45.81c1.6-.925 3.949-.498 5.016 1.032l3.131 4.448c1.672 2.384 4.341 3.807 7.294 3.807 1.744-2.918 1.85-6.76-.498-9.892z"/><defs><linearGradient id="a" x1="47.112" x2="38.075" y1="39.547" y2="42.713" gradientUnits="userSpaceOnUse"><stop stop-color="#ee3123"/><stop offset="1" stop-color="#9e1b0d"/></linearGradient><linearGradient id="b" x1="29.962" x2="58.819" y1="40.009" y2="54.703" gradientUnits="userSpaceOnUse"><stop stop-color="#9e1b0d"/><stop offset=".4" stop-color="#ee3123"/></linearGradient></defs></svg>