<svg xmlns="http://www.w3.org/2000/svg" width="80" height="80" fill="none" viewBox="0 0 80 80"><rect width="80" height="80" fill="#00aac1" rx="8"/><path fill="#00aac1" d="M8 62.788V17.967c.084-2.335 1.193-4.065 3.075-5.392.907-.639 1.966-.69 2.974-.975h51.734c.74.252 1.546.135 2.252.52 2.083 1.11 3.629 2.622 3.847 5.142.017.235-.05.503.118.722V62.62c-.269 1.21-.218 2.503-1.126 3.527-.571.639-1.142 1.31-1.865 1.798a4.53 4.53 0 0 1-2.671.823c-17.374-.017-34.73-.05-52.087.017-2.286 0-3.781-1.025-5.125-2.638-.824-.99-.89-2.183-1.126-3.36"/><path fill="#fdfefe" d="M47.788 46.173c.05.756-.235 1.025-1.059 1.008-3.125-.067-6.267-.033-9.41-.017-.84 0-1.68-.084-2.486-.302-2.318-.605-3.73-2.218-3.83-4.62-.102-2.268-.051-4.536-.051-6.803 0-3.394.017-6.77-.017-10.164 0-.672.202-.874.857-.823.773.05 1.563.05 2.352 0 .672-.05.84.201.824.84-.017 4.787 0 9.575 0 14.346 0 3.007.453 3.461 3.444 3.461h4.033c1.394 0 1.193.185 1.226-1.176.05-1.562.101-3.125.69-4.62 1.142-2.872 3.628-4.334 6.82-3.998 3.244.353 5.529 2.385 6.033 5.376.622 3.73-.907 6.787-4 7.996-.923.353-1.898.454-2.872.504-.27.151-.47 0-.706-.117-.571-.32-1.008-.79-1.445-1.26-.47-.488-.302-1.076.084-1.512.655-.74 1.344-1.462 2.453-1.596 1.361-.168 1.966-.807 2.067-1.915.134-1.68-.303-2.554-1.462-2.94s-2.974.1-3.092 2.1c-.05.974 0 1.948-.016 2.94 0 .688.084 1.394-.252 2.066-.202.386.37.89-.152 1.243z"/><path fill="#fefefe" d="M26.55 37c0 1.176.05 2.352-.152 3.512-.823 4.586-4.486 7.14-9.258 6.585-7.611-.89-8.552-8.585-5.83-12.936.302-.47.52-.436.907-.134a27 27 0 0 0 2.117 1.512c.42.269.47.504.236.957-.656 1.31-.74 2.688-.27 4.083.606 1.764 2.387 2.755 4.453 2.503 2.252-.269 3.58-1.462 3.714-3.511.1-1.73.067-3.46.033-5.208 0-.672.152-.958.874-.907.857.067 1.73.033 2.604 0 .437 0 .588.168.588.588-.016.974 0 1.965 0 2.94zm38.746.723c0 2.872-.017 5.762 0 8.635 0 .638-.168.823-.79.79q-1.26-.077-2.52 0c-.555.033-.74-.169-.723-.706.034-1.462 0-2.907 0-4.368 0-4.334.017-8.669 0-13.003 0-.74.202-.991.941-.924.773.067 1.563.05 2.352 0 .605-.034.74.202.74.773-.017 2.94 0 5.88 0 8.803m-2.117-11.054c-1.042 0-2.067-.034-3.109 0-.605.034-.79-.185-.722-.756a6 6 0 0 0 0-.924c-.034-.386.084-.605.504-.538.706.118.588-.302.52-.756-.234-1.545.169-2.855 1.53-3.712 1.394-.874 2.856-.823 4.301-.034.639.353.924.773.286 1.411-.151.152-.27.353-.387.538-.252.42-.453.605-.924.134-.571-.57-1.327-.57-2.016-.184-.504.285-.706.772-.622 1.36.084.639.47.991 1.076 1.143.856.201 1.73.1 2.587.084.605 0 .84.134.823.79-.067 1.78.152 1.393-1.411 1.427-.806.017-1.63 0-2.436 0z"/><path fill="#fcfdfd" d="M21.71 55.06h-8.972c-.386 0-.504.05-.571.453-.185 1.076-.74 1.58-1.63 1.596-.235 0-.571.084-.504-.336.034-.252-.218-.672.286-.722.638-.067.739-.52.739-1.025 0-.924.017-1.848 0-2.772 0-.487.202-.604.655-.621.488 0 .538.252.521.621-.067 2.067.05 1.798 1.899 1.815h10.149c.268 0 .688.184.806-.168.134-.387-.1-.756-.403-1.042-.42-.403-.924-.302-1.428-.269-.253.017-.589.202-.605-.285 0-.353 0-.639.436-.756 1.58-.454 2.89.319 3.176 1.948.084.454.219.622.689.605.89-.033 1.798-.033 2.688 0 .538.017.69-.201.656-.689-.034-.37 0-.722 0-1.092-.034-.436.1-.655.605-.671.504 0 .621.201.604.655a22 22 0 0 0 0 2.1c.034.57-.184.705-.722.705-3.024-.017-6.032 0-9.056 0z"/><path fill="#00aac1" d="M47.788 46.173c0-2.1-.084-4.183 0-6.283.084-1.965 1.848-3.057 3.713-2.436 1.31.437 1.882 1.613 1.68 3.427-.134 1.31-.957 2.117-2.402 2.201-1.31.084-1.849 1.226-2.756 1.865-.185.134 0 .302.118.403.739.588 1.378 1.31 2.184 1.814-.185.504-.487.37-.874.202-.655-.286-1.025-.924-1.663-1.227z"/><path fill="#fdfefe" d="M39.151 54.103c-.016.42 0 .84-.067 1.26-.185 1.175-1.646 2.066-2.755 1.73-.32-.101-.252-.32-.252-.538 0-.252-.034-.52.352-.537.404 0 .79-.068 1.11-.32.15-.117.335-.252.285-.47-.067-.269-.32-.151-.487-.168-1.176-.117-1.714-.706-1.647-1.865.067-1.142.79-1.797 1.899-1.764.806.034 1.36.504 1.478 1.31.068.438.05.891.068 1.345z"/><path fill="#eb6c23" d="M15.023 30.55c1.412-1.042 2.806-2.083 4.319-3.192v6.736c-.336 0-.555-.268-.79-.487-.47-.554-.37-1.243-.387-1.881 0-.303.034-.605-.033-.907-.118-.656-.521-.69-1.042-.42-.386.201-.806.319-1.226.436-.337.101-.639.068-.857-.268z"/><path fill="#f3fafb" d="M34.195 52.036v2.436c0 .42-.118.605-.571.605-.47 0-.639-.152-.639-.622.017-1.596.017-3.175 0-4.771 0-.504.218-.605.655-.605.47 0 .555.218.555.622-.017.772 0 1.562 0 2.352z"/><path fill="#dd5620" d="M17.074 30.046c1.293-.554 1.512-.42 1.512.957v2.588a3.5 3.5 0 0 1-1.176-.857c-.572-.84-.404-1.78-.32-2.705z"/><path fill="#f2fafb" d="M65.111 54.54H40.53v-.102h24.616a.2.2 0 0 1-.034.101"/><path fill="#c93e1e" d="M17.073 30.046c.555.454.27 1.075.32 1.63.033.352 0 .722 0 1.075-.79-.555-1.58-1.092-2.386-1.63-.286-.201-.42-.386 0-.571.722 0 1.344-.37 2.033-.504z"/><path fill="#e8f7f9" d="M32.666 56.89c.37-.352.117-1.091.773-1.326.252-.084.52-.135.688.1.152.236.068.42-.235.572-.437.201-.151.37.118.437.201.05.386.1.353.352-.034.336-.303.269-.505.286h-.84c-.218 0-.37-.101-.352-.403z"/><path fill="#64cbd9" d="M11.31 32.8c-.05.438-.302.706-.706.723-.436.034-.688-.269-.705-.672-.017-.386.202-.722.638-.739.454-.017.706.286.79.689z"/><path fill="#f1fafb" d="M30.851 49.516c.403.033.655.252.655.621 0 .32-.184.588-.554.605-.387.017-.639-.168-.672-.571s.218-.588.588-.672z"/><path fill="#eff9fa" d="M11.596 50.743c-.37-.034-.588-.252-.572-.656.034-.403.286-.604.672-.57.353.016.555.268.555.604 0 .386-.218.622-.655.622"/><path fill="#f7fcfc" d="M24.735 56.522c-.05.386-.269.588-.672.571-.37-.017-.554-.269-.554-.588 0-.37.218-.622.621-.605.42 0 .572.269.588.639z"/><path fill="#18b2c7" d="M36.816 53.313c.05-.403.084-.823.571-.823.588 0 .588.487.622.907.033.37-.034.672-.521.655-.52 0-.639-.37-.672-.756z"/></svg>