<svg xmlns="http://www.w3.org/2000/svg" width="80" height="80" fill="none" viewBox="0 0 80 80"><rect width="80" height="80" fill="url(#a)" rx="8"/><path fill="#fff" d="M36.645 40.649c.59.59 1.061 1.297 1.65 1.769h-.589c-.354-.354-.708-.708-1.061-1.18-2.005-2.358-4.128-5.307-6.015-8.02v-.707c2.005 2.713 4.01 5.661 6.015 8.02zm4.481-2.005c-1.18-1.298-2.005-3.067-2.712-5.071-1.062-2.949-1.77-6.251-3.067-9.082-.707-1.415-1.533-2.712-2.712-3.892-.59-.59-1.18-1.06-2.005-1.415v.59c.354.236.826.472 1.18.825 1.768 1.534 2.948 3.539 3.773 5.78.708 1.65 1.18 3.537 1.651 5.189.826 2.594 1.651 5.189 3.303 7.076.825.943 1.769 1.769 3.066 2.358.59.236 1.18.472 1.887.59.236-.118.59-.236.825-.354q-1.415-.176-2.476-.707c-1.062-.472-1.887-1.062-2.595-1.887zm-3.892 1.061c-2.123-2.83-4.127-6.368-6.25-9.317-.118-.236-.236-.354-.354-.59v.826c0 .118.236.236.354.472 2.005 3.066 4.01 6.604 6.25 9.317l1.77 2.123h.707c-.825-.826-1.651-1.77-2.477-2.713zm1.062-1.887c-1.77-2.948-3.184-6.604-4.836-9.788-.825-1.534-1.769-2.949-2.83-4.128v.707c.943 1.18 1.887 2.595 2.595 4.01 1.65 3.184 3.066 6.84 4.953 9.789.943 1.415 2.005 2.712 3.42 3.656.118 0 .236.236.354.236h.943c-1.887-.944-3.184-2.477-4.481-4.482zm.59-.943c-1.652-2.949-2.595-6.723-4.246-10.025-.826-1.651-1.651-3.184-2.949-4.482-.354-.353-.707-.707-1.179-1.06v.707c1.651 1.415 2.83 3.302 3.774 5.543 1.533 3.302 2.477 7.076 4.246 10.024.825 1.533 1.887 2.83 3.302 3.656a6.3 6.3 0 0 0 1.769.944c.354 0 .59-.118.943-.236-.471-.118-.943-.354-1.415-.472-1.887-.943-3.302-2.594-4.364-4.481zm7.076-7.666q1.768 2.122 3.538 3.538c.118 0 .236.236.471.236 0-.236 0-.472-.117-.59q-1.947-1.414-3.892-3.892c-2.241-2.83-4.246-6.486-6.369-9.553-.708-1.061-1.533-2.005-2.24-2.948h-.59a33 33 0 0 1 2.83 3.656c2.123 3.066 4.246 6.722 6.487 9.553zm-15.332 8.61c1.415 1.532 2.948 3.183 4.364 4.599h.59c-1.534-1.533-3.303-3.42-4.954-5.19zm7.076.943c-2.005-2.83-3.656-6.487-5.543-9.553a17 17 0 0 0-1.651-2.359v.826c.472.707.944 1.415 1.415 2.24 1.887 3.067 3.538 6.723 5.543 9.553.826 1.18 1.651 2.123 2.713 2.949h.825c-1.297-.944-2.358-2.241-3.302-3.656m-7.076 2.712c.354.354.707.59 1.061.944h.472c-.59-.472-1.061-.944-1.651-1.416v.472zm0-6.368v.59c1.887 2.24 3.774 4.599 5.543 6.486l.236.236h.59l-.826-.826c-1.77-2.005-3.656-4.246-5.543-6.486m0 4.6c.826.825 1.651 1.532 2.359 2.24.118.118.236.236.471.354h.472c-1.061-1.062-2.24-2.123-3.302-3.184zM46.67 19.42a20 20 0 0 1-2.242-2.24c-.353-.236-.707-.354-1.061-.472 1.297 1.179 2.595 2.476 3.892 3.774-.118-.354-.354-.708-.59-1.062m0 7.666c0-.118.117-.236.235-.354-2.24-2.712-4.482-6.015-6.722-8.845-.472-.59-.944-1.297-1.533-1.77h-.59c.707.826 1.415 1.652 2.005 2.478 2.123 2.712 4.246 5.896 6.486 8.491zM41.597 37.7c-1.18-1.415-1.887-3.184-2.477-5.189-.825-2.948-1.297-6.369-2.594-9.317-.59-1.533-1.533-2.83-2.713-4.01a13.2 13.2 0 0 0-3.302-2.123v.59c.944.472 1.769.944 2.477 1.533 1.887 1.533 2.948 3.656 3.656 6.015.59 1.77.943 3.538 1.297 5.307.354 1.297.59 2.713 1.061 3.892.708 1.887 1.651 3.538 3.185 4.717 1.179.826 2.594 1.534 4.363 1.77.236-.118.472-.354.59-.472-1.18-.118-2.24-.472-3.184-.826-1.062-.472-1.887-1.18-2.595-1.887zm7.784-3.42c-1.77-.943-3.184-2.477-4.6-4.482-2.005-2.948-3.774-6.604-5.66-9.67-.944-1.533-1.888-2.949-3.067-4.01h-.708c1.298 1.297 2.477 2.948 3.656 4.717 1.887 3.185 3.656 6.84 5.78 9.671 1.06 1.415 2.24 2.713 3.537 3.656.59.354 1.18.708 1.887.944v-.472c-.236 0-.471-.236-.707-.354zm-1.533-10.968v-.472c-2.005-2.123-4.246-4.481-6.133-6.486h-.59l.236.236c2.123 2.24 4.364 4.717 6.605 6.958zm-.354 2.123c0-.118 0-.354.118-.472-2.359-2.594-4.718-5.66-6.959-8.137-.235-.236-.471-.472-.59-.708h-.47c.353.472.825.943 1.178 1.415 2.123 2.477 4.482 5.425 6.723 7.902m-5.071 6.958c-1.652-2.948-2.713-6.722-4.246-10.024-.826-1.652-1.77-3.185-2.949-4.482-.707-.708-1.415-1.297-2.24-1.77h-1.18a9.3 9.3 0 0 1 2.123 1.298c1.77 1.416 2.948 3.42 4.01 5.661 1.533 3.302 2.595 7.076 4.364 10.025.825 1.533 1.887 2.83 3.302 3.774 1.061.707 2.24 1.18 3.656 1.415 0-.118.118-.354.236-.472-.944-.118-1.887-.354-2.595-.825-1.887-.944-3.302-2.595-4.364-4.482zm.471 4.01c-1.18-1.415-2.005-3.184-2.712-5.071-1.062-2.949-1.77-6.25-3.184-9.081-.708-1.416-1.534-2.713-2.713-3.892-.944-.944-2.24-1.651-3.656-2.241v.59c1.061.471 2.005.943 2.83 1.65 1.77 1.534 2.949 3.539 3.774 5.78.708 1.65 1.18 3.538 1.651 5.189.826 2.594 1.652 5.189 3.303 7.076.825.943 1.769 1.769 3.066 2.359.826.353 1.769.707 2.83.825.118-.118.236-.354.354-.472-1.18-.117-2.24-.353-3.066-.825-1.062-.472-1.887-1.062-2.595-1.887zm.708-5.307c-1.887-2.949-3.184-6.605-4.953-9.907-.944-1.65-1.887-3.066-3.067-4.363-.236-.236-.59-.59-.943-.826h-.826c.118.118.354.236.472.354 1.651 1.415 2.948 3.302 4.128 5.425 1.769 3.184 3.066 6.958 5.071 9.907.944 1.415 2.005 2.712 3.42 3.656.826.59 1.77 1.06 2.948 1.297 0-.118 0-.354.118-.472a6.2 6.2 0 0 1-1.769-.59c-1.887-.943-3.302-2.476-4.481-4.481zm-17.69 28.422a1.863 1.863 0 0 0-1.887 1.887c0 1.062.825 1.887 1.887 1.887a1.863 1.863 0 0 0 1.886-1.887 1.863 1.863 0 0 0-1.886-1.887m0 4.482c-1.534 0-2.713-1.061-2.713-2.595v-4.481h.826v2.594c.471-.471 1.179-.707 1.887-.707 1.533 0 2.712 1.061 2.712 2.594 0 1.534-1.18 2.595-2.712 2.595m7.783-3.066c-.118-.944-.825-1.416-1.769-1.416-.943 0-1.533.59-1.769 1.416zm-3.538.707c.118.944.826 1.533 1.77 1.533.943 0 1.296-.353 1.532-.825h.826C33.814 63.41 32.989 64 31.927 64c-1.061 0-2.594-1.18-2.594-2.595s1.061-2.594 2.594-2.594 2.477 1.18 2.477 2.594v.236zm9.2-.59c0-1.06-.472-1.533-1.298-1.533s-1.533.708-1.533 1.651v2.713H35.7v-5.071h.59v.825c.59-.59 1.18-.943 2.005-.943 1.18 0 1.887.943 1.887 2.123v3.066h-.826zm6.368-.117c-.118-.944-.826-1.416-1.77-1.416-.943 0-1.533.59-1.768 1.416zm-3.538.707c.118.944.825 1.533 1.769 1.533.943 0 1.297-.353 1.533-.825h.825C45.844 63.41 45.018 64 43.957 64s-2.595-1.18-2.595-2.595 1.061-2.594 2.595-2.594c1.533 0 2.476 1.18 2.476 2.594v.236zm8.137-2.712v.707h-1.533V64h-.825v-4.364h-.944v-.707h.944v-.354c0-1.062.471-1.651 1.65-1.651h.708v.59h-.59c-.707 0-.943.235-.943.943v.354h1.533zm.944-.118h.825v5.071h-.825zm4.717 4.363h.59v.708h-.708c-1.061 0-1.769-.708-1.769-1.769v-2.595h-1.061v-.707h1.061v-1.533h.826v1.533h1.65v.707h-1.65v2.595q0 1.061 1.061 1.061m-17.69-12.029c0 .354 0 .708.354 1.061.236.354.471.59.825.708.354-.118.59-.354.826-.708q.353-.53.353-1.061c0-.354 0-.826-.353-1.062-.236-.235-.472-.353-.944-.353-.354 0-.707.118-.943.354q-.354.354-.354 1.061zm18.28-1.415v2.005c0 .59-.118 1.061-.472 1.415s-.707.472-1.297.472h-4.954c-.59 0-1.06-.236-1.415-.59-.354.472-.825.59-1.415.59H40.3c-.354 0-.472 0-.708-.118-.236 0-.354.118-.708.118h-5.66c-.59 0-1.062-.236-1.416-.59-.354.472-.825.59-1.415.59H24.97c-.472 0-.944-.118-1.297-.472-.354-.354-.472-.826-.472-1.297v-1.77h.708v1.652c0 .825.353 1.179 1.179 1.179h5.19c.825 0 1.178-.354 1.178-1.18V49.73h.708v2.005c0 .825.354 1.179 1.18 1.179h5.07c-.589-.472-.825-1.061-.825-1.769s.236-1.297.59-1.651.825-.59 1.415-.59c.708 0 1.18.236 1.533.708.354.354.472.943.472 1.533 0 .708-.236 1.297-.826 1.769h6.015c.826 0 1.18-.354 1.18-1.18V49.73h.707v2.005c0 .825.354 1.179 1.18 1.179h4.717c.826 0 1.18-.354 1.18-1.18V49.73h.825m-5.307 7.548v.353s.236.118.354.118.235 0 .353-.118v-.707h-.707zm4.01-2.005v.353s.235.119.353.119.236 0 .354-.118v-.708h-.707zm-7.43-7.548v.354s.236.118.353.118c.118 0 .236 0 .354-.118v-.708h-.707zm-8.846 0v.354s.236.118.354.118.236 0 .354-.118v-.708h-.708zm-10.85.825v.354s.236.118.354.118.236 0 .354-.118v-.707h-.708zm-1.297 0v.354s.236.118.354.118.236 0 .354-.118v-.707h-.708z"/><defs><linearGradient id="a" x1="0" x2="80" y1="0" y2="80" gradientUnits="userSpaceOnUse"><stop stop-color="#ea5646"/><stop offset="1" stop-color="#e60c32"/></linearGradient></defs></svg>