<svg xmlns="http://www.w3.org/2000/svg" width="80" height="80" fill="none" viewBox="0 0 80 80"><rect width="79" height="79" x=".5" y=".5" fill="#fff" rx="7.5"/><rect width="79" height="79" x=".5" y=".5" stroke="#eee" rx="7.5"/><path fill="#000" d="M40.79 20c8.96 0 16.218 6.007 16.218 13.43 0 7.422-7.259 11.926-16.218 11.926-8.833-.179-14.984-3.058-18.47-8.637C24.196 26.133 30.364 20.57 40.79 20m-.608 8.35c-5.15.519-8.298 2.97-9.46 7.35 1.575 1.378 4.72 2.145 9.46 2.306 4.757-.07 7.634-1.466 7.69-4.684-.305-3.559-3.755-5.115-7.69-4.972"/><path fill="#00c252" d="M21.64 40.241c2.646 7.617 9.978 11.856 17.506 11.856 6.24 0 10.39-2.7 12.552-6.777l6.992 4.38C56.26 55.673 49.017 60 40.488 60c-10.55 0-19.58-7.099-18.846-19.455v-.304z"/></svg>