<svg xmlns="http://www.w3.org/2000/svg" width="80" height="80" fill="none" viewBox="0 0 80 80"><rect width="79" height="79" x=".5" y=".5" fill="#fff" rx="7.5"/><rect width="79" height="79" x=".5" y=".5" stroke="#eee" rx="7.5"/><g clip-path="url(#a)"><path fill="#e30613" d="M60.41 49.677c2.06-3.624 3.243-7.706 3.664-11.706h-6.296c-.164 2.451-.633 4.95-1.487 7.19-.807 2.182-1.872 4.141-3.23 5.748-2.083 2.393-4.693 3.93-7.69 3.93-3.534 0-5.968-1.537-6.869-4.118h-6.73c-1.088 2.675-3.663 3.989-6.94 3.989-3.57 0-7.244-2.604-7.665-7.918H38.22c.539-2.616 2.575-4.575 5.875-5.877 0 0 3.055-1.126 6.086-2.452 4.213-1.959 7.361-5.49 7.361-9.947 0-6.322-5.325-8.504-10.181-8.504-6.086 0-10.604 3.249-10.604 8.422 0 3.038 1.639 5.889 4.038 8.774-1.276.458-2.516 1.044-3.64 1.783-1.943-5.43-6.425-8.962-12.51-8.962-8.03 0-13.846 6.124-13.846 14.745C10.8 52.974 16.008 60 25.09 60c4.178 0 7.326-1.537 9.515-3.707 2.247 2.3 5.57 3.707 9.667 3.707 5.032 0 9.152-2.018 12.3-5.15l4.026 4.493h8.579zm-12.967-24.88c2.306 0 4.202 1.314 4.202 3.93 0 2.393-1.416 4.74-4.635 6.182l-.058-.07c-1.884-2.018-3.663-4.364-3.663-6.604 0-2.147 1.942-3.437 4.154-3.437m-22.751 10.17c3.663 0 7.022 2.699 7.21 7.191H17.177c.515-5.443 4.576-7.19 7.514-7.19"/></g><defs><clipPath id="a"><path fill="#fff" d="M10.8 20h58.4v40H10.8z"/></clipPath></defs></svg>