<svg xmlns="http://www.w3.org/2000/svg" width="80" height="80" fill="none" viewBox="0 0 80 80"><rect width="80" height="80" fill="#ffd401" rx="8"/><path fill="#fff" d="M59.99 40.009C59.99 51.059 51.05 60 40.002 60c-2.11 0-4.134-.326-6.021-.927a19.8 19.8 0 0 1-7.6-4.461C22.436 50.99 20 45.774 20 39.992 20 28.94 28.938 20 39.986 20c2.402 0 4.683.412 6.794 1.184a19.8 19.8 0 0 1 7.273 4.616c3.672 3.655 5.936 8.666 5.936 14.209"/><path fill="#006e9c" d="m49.267 48.503-2.693-1.339s-4.58 8.357-12.626 11.926a19.8 19.8 0 0 1-7.6-4.461c1.767-.258 4.614-1.15 7.6-4.101 4.906-4.805 6.021-7.465 6.021-7.465l-2.11-1.407a1.038 1.038 0 0 1 .223-1.853l9.23-3.21c.634-.222 1.32.19 1.372.859l1.372 10.45c.138.463-.343.824-.789.6m2.779-11.582c-.223.583-1.063.48-1.15-.12l-.6-3.518-4.546 1.407a.611.611 0 0 1-.737-.841c.6-1.287 1.475-3.432 2.178-6.178a11.2 11.2 0 0 0-.36-6.435 19.8 19.8 0 0 1 7.274 4.616c.343 4.153-1.098 8.615-2.059 11.069"/></svg>