<svg xmlns="http://www.w3.org/2000/svg" width="80" height="80" fill="none" viewBox="0 0 80 80"><rect width="80" height="80" fill="#029791" rx="8"/><path fill="#fff" d="M12.366 30.4H8v18.804h4.366zm10.741.03v7.2h-5.755l-3.804 3.84h9.59v7.734h4.365V30.4h-4.366zm25.228 8.707c1.683-.946 2.215-2.245 2.154-4.016-.057-2.182-1.356-4.634-5.28-4.634h-13.16V49.29h13.778c5.578-.147 7.78-8.236 2.508-10.154m-3.483 6.786-8.348.069V33.968h8.063a1.783 1.783 0 0 1 1.656 1.861c0 1.76-1.932 1.93-1.932 1.93h-2.986l-3.66 3.794 7.17-.138c-.17.033 2.188.273 2.188 2.356s-2.151 2.152-2.151 2.152m17.558-.441h-3.273V30.547h-4.309V49.32h13.367L72 45.48z"/></svg>