<svg xmlns="http://www.w3.org/2000/svg" width="80" height="80" fill="none" viewBox="0 0 80 80"><rect width="79" height="79" x=".5" y=".5" fill="#fff" rx="7.5"/><rect width="79" height="79" x=".5" y=".5" stroke="#eee" rx="7.5"/><path fill="#fec50a" d="M38.703 54.705c-.668.53-1.306 1.102-2.01 1.578-2.617 1.772-5.62 2.566-8.648 3.24a19.16 19.16 0 0 1-11.316-.873c-.67-.254-1.43-.555-1.519-1.368-.106-.86.633-1.283 1.238-1.7.856-.588 1.83-.95 2.767-1.386a17.06 17.06 0 0 0 7.089-5.941c1.21-1.788 1.519-3.798 1.473-5.912-.063-3.19-.06-6.382-.073-9.571a2154 2154 0 0 1-.015-10.45c0-1.854 1.265-2.76 3.015-2.115a24 24 0 0 1 7.356 4.41c.137.117.281.22.423.332.803.405 1.357 1.104 1.917 1.757 2.468 2.893 4.134 6.19 4.761 9.962.669 4.022-.012 7.848-1.69 11.546a23.2 23.2 0 0 1-3.866 5.808c-.261.28-.491.605-.902.683"/><path fill="#ed2327" d="M38.704 54.705c1.837-1.903 3.425-3.99 4.518-6.412 3.375-7.476 2.486-14.448-2.508-20.924-.674-.876-1.52-1.602-2.24-2.42 1.328-.919 2.678-1.81 4.075-2.625 2.228-1.299 4.676-1.823 7.19-2.094 2.949-.316 5.88-.238 8.746.636 1.985.602 3.712 1.696 5.345 2.934.85.643.759.97-.22 1.362-5.775 2.3-9.395 6.514-10.75 12.546-.84 3.747.309 7.175 2.22 10.418s4.881 5.152 8.22 6.567c1.046.44 1.403 1.15.223 1.982-1.536 1.091-3.29 1.757-5.08 2.279-7.33 2.085-13.95.845-19.74-4.249"/></svg>