<svg xmlns="http://www.w3.org/2000/svg" width="80" height="80" fill="none" viewBox="0 0 80 80"><g clip-path="url(#a)"><rect width="80" height="80" fill="#0872b9" rx="8"/><path fill="#0872b9" d="M64 48.443H16v9.005h48zM64 22.8H16v9.004h48zm0 9.787H16v15.171h48z"/><path fill="#fff" d="M61.16 25.932h-4.017l.294.49h4.016l1.372.88s.294.294.098.49l-1.568 1.174h-7.64l-.588-.783v2.154h-9.502v-4.21h6.955v2.154h-4.017v.783h4.899v-2.838h2.644l1.568 1.566h4.506v-.783h-4.506l-2.155-2.154h6.955z"/><path fill="#fff" d="M55.38 29.553h-.98v.881h.98zm2.35 0h-.979v.881h.98zm-34.579-4.208H21.78v1.272h1.371zm1.763 0h-1.371v1.272h1.371zm11.266 0h-1.372v1.272h1.371zm5.192 2.055h-3.527v1.273h3.526z"/><path fill="#fff" d="M34.123 26.91h2.449v2.84h-18.22l-1.372-1.762 2.35-3.133h1.862l-1.371 3.133h12.048v-.98h1.666v.98h.588zm-7.445 28.776H25.11v-2.643c0-.587 0-.88-.098-1.077a1.4 1.4 0 0 0-.294-.391c-.098-.098-.293-.098-.49-.098-.293 0-.49.098-.685.196s-.392.293-.392.49c-.098.195-.196.586-.196 1.174v2.349h-1.47v-5.188h1.372v.783a2.41 2.41 0 0 1 1.861-.88c.294 0 .588.097.882.195s.49.294.588.392l.294.587c.098.196.098.49.098.88v3.23zm14.106-1.664 1.47.196q-.295.733-.883 1.174c-.391.294-.98.392-1.567.392-.98 0-1.763-.294-2.155-.881q-.588-.735-.588-1.762c0-.881.294-1.566.784-2.055s1.078-.686 1.861-.686c.882 0 1.47.294 1.96.783s.685 1.273.685 2.35H38.63c0 .39.098.685.392.978q.294.294.881.294c.196 0 .392-.098.588-.196q.147-.147.294-.587m.098-1.37q0-.588-.294-.881c-.196-.196-.49-.294-.784-.294s-.588.098-.784.294q-.293.293-.293.88zm17.534-2.154v1.077h-.98v2.838c0 .098.098.098.098.196.098 0 .196.098.294.098s.294 0 .587-.098l.099 1.077c-.392.098-.784.196-1.176.196-.294 0-.49 0-.686-.098s-.392-.196-.49-.294a.75.75 0 0 1-.195-.49c0-.195-.098-.489-.098-.978V51.77h-.686v-1.077h.686v-1.077l1.469-.782v1.86h1.078z"/><path fill="#fbed1f" d="M33.828 33.762H22.464V45.9h11.364z"/><path fill="#fbed1f" d="m33.436 39.146 8.425-5.286h14.988l-8.229 5.286 8.914 6.557H41.47l-7.837-6.068z"/><path stroke="#fff" stroke-width="3" d="M0 80.5h201"/></g><defs><clipPath id="a"><rect width="80" height="80" fill="#fff" rx="8"/></clipPath></defs></svg>