<svg xmlns="http://www.w3.org/2000/svg" width="80" height="80" fill="none" viewBox="0 0 80 80"><rect width="79" height="79" x=".5" y=".5" fill="#fff" rx="7.5"/><rect width="79" height="79" x=".5" y=".5" stroke="#eee" rx="7.5"/><path fill="#000" d="M72 33.684q-.064.269-.13.537c-.43 1.674-1.805 2.686-3.605 2.64a7 7 0 0 1-2.016-.336c-.222-.073-.501.025-.754.047-.335.03-.67.086-1.005.087-3.148.006-6.297.004-9.445.004H54.7l.224-1.483h3.954c-.025.03-.005.017-.005.005-.017-.968-.027-1.935-.059-2.903-.006-.18-.084-.363-.154-.534-.253-.615-.717-.93-1.386-.933q-.787-.002-1.574 0h-.314c.07-.488.129-.935.203-1.38.009-.054.1-.135.152-.134.888.016 1.787-.036 2.66.088 1.31.185 2.254 1.23 2.482 2.625.084.515.09 1.043.108 1.566.018.505.004 1.011.004 1.536.094.007.171.018.247.018 1.139.001 2.277-.006 3.416.007.234.002.323-.1.347-.3.017-.14.019-.284.02-.426V31.56c.002-1.107.455-1.748 1.514-2.078.42-.131.863-.19 1.296-.282h.908c.067.018.134.043.203.052 1.45.194 2.508 1.119 2.894 2.535.06.221.106.446.159.669zm-5.02-2.43c.021.279.055.514.056.75.007.897.011 1.795-.003 2.692-.003.22.076.302.278.315.354.024.707.07 1.062.077.766.015 1.268-.351 1.475-1.087a3.8 3.8 0 0 0 .006-2.027c-.106-.403-.326-.753-.737-.887-.742-.24-1.464-.102-2.138.167M53.955 29.33l-.229 1.498h-.319l-4.002.001c-.187 0-.375.003-.56.026-.545.068-.834.409-.81.937.026.523.352.87.88.885.675.018 1.351-.001 2.027.013.3.007.606.03.9.092 1.118.24 1.828 1.135 1.812 2.28a4 4 0 0 1-.105.87c-.227.916-.897 1.358-1.765 1.529-.441.086-.9.13-1.35.13a731 731 0 0 1-8.886-.016c-1.847-.017-3.07-1.218-3.174-3.058-.052-.906-.094-1.814.158-2.703.418-1.469 1.565-2.364 3.095-2.39.932-.017 1.865-.004 2.818-.004l-.223 1.525h-1.066c-.347.001-.694-.006-1.04.008-.628.025-1.096.326-1.333.903a3 3 0 0 0-.235 1.029c-.02.645-.029 1.302.068 1.938.112.734.617 1.17 1.354 1.215.869.052 1.742.038 2.613.041q2.869.008 5.738.008c.141 0 .285-.004.424-.03.579-.108.91-.535.862-1.097-.047-.557-.446-.917-1.04-.927-.837-.015-1.674.004-2.508-.04-.99-.05-1.707-.607-1.965-1.455-.299-.982-.026-2.016.69-2.573.57-.444 1.244-.628 1.944-.64 1.707-.032 3.415-.018 5.123-.02.025-.001.05.011.104.025M72 50.55c-.664-.12-1.326-.25-1.993-.352-.185-.029-.386.018-.575.053-.809.15-1.617.246-2.43.03-.965-.254-1.513-.933-1.546-1.916-.034-1.02.436-1.75 1.421-2.025.583-.163 1.203-.204 1.81-.26.413-.039.832-.008 1.243-.008.2-.846-.19-1.374-1.03-1.389-.926-.016-1.815.193-2.686.492-.082.029-.166.052-.275.086l-.221-1.5c1.438-.461 2.867-.876 4.39-.572 1.112.222 1.702.862 1.844 1.979.01.07.032.137.048.205zm-2.806-3.254-.006-.032c-.384.053-.778.068-1.147.172-.383.107-.561.467-.526.885.03.357.242.647.628.683.398.037.812.004 1.206-.066.66-.118.66-.14.654-.818-.002-.262.066-.608-.07-.76-.122-.134-.483-.051-.739-.064m-20.541 3.021h-2.094v-4.331c-.001-.142-.001-.285-.018-.426-.048-.404-.31-.678-.704-.72a2.33 2.33 0 0 0-1.316.225c.013.588.035 1.142.038 1.696.006 1.086.001 2.171.001 3.256v.3h-2.088v-.306c0-1.335-.013-2.67.004-4.004.012-1.039-.453-1.309-1.426-1.138-.583.103-.58.118-.58.701v4.738h-2.125v-5.499c0-.875.223-1.17 1.071-1.403 1.048-.286 2.111-.427 3.19-.212.29.058.574.184.84.318.143.072.243.087.389.026 1.027-.433 2.09-.566 3.18-.3.959.234 1.559.908 1.594 1.891.05 1.369.033 2.74.043 4.109.003.354 0 .708 0 1.08m13.508-6.915v-.312c0-.871.002-1.742-.002-2.614 0-.14.018-.235.183-.262.631-.1 1.26-.21 1.93-.324v8.89c-.001.82-.18 1.07-.962 1.31a7 7 0 0 1-3.111.233c-1.518-.226-2.533-1.369-2.654-2.963-.052-.685-.031-1.367.147-2.038.357-1.348 1.316-2.147 2.707-2.176.472-.01.947.104 1.42.166.103.014.202.052.342.09m0 3.411v-1.04c0-.952 0-.952-.963-1.037-.745-.066-1.287.295-1.476 1.015a3.85 3.85 0 0 0 .004 2.002c.198.737.703 1.109 1.466 1.095.23-.004.457-.055.687-.073.216-.016.297-.106.288-.337-.019-.54-.006-1.083-.006-1.625m-7.834-.74c.07-1.067-.26-1.42-1.278-1.39-.843.023-1.654.212-2.448.486-.083.029-.167.054-.29.093-.067-.477-.137-.94-.194-1.402-.005-.044.061-.126.11-.142 1.145-.367 2.3-.69 3.522-.627q.28.014.557.06c1.375.239 2.026.993 2.038 2.398.012 1.602.003 3.203.003 4.804 0 .053-.006.106-.01.189-.235-.04-.461-.063-.68-.119-.853-.217-1.7-.26-2.575-.073a3.5 3.5 0 0 1-1.896-.126c-.866-.299-1.334-.943-1.361-1.867-.028-.943.382-1.606 1.225-1.962.575-.242 1.186-.305 1.801-.32.487-.011.974-.002 1.476-.002m.044 1.275c-.61 0-1.17-.037-1.725.01-.505.044-.794.438-.77.922.024.45.349.789.857.764.509-.025 1.013-.153 1.517-.246.047-.009.114-.093.115-.143.01-.434.006-.868.006-1.307"/><path fill="#269ad6" d="M35.063 29.2H8v8.967h27.063z"/><path fill="#84b741" d="M35.063 41.424H8v8.968h27.063z"/></svg>