<svg xmlns="http://www.w3.org/2000/svg" width="80" height="80" fill="none" viewBox="0 0 80 80"><rect width="79" height="79" x=".5" y=".5" fill="#fff" rx="7.5"/><rect width="79" height="79" x=".5" y=".5" stroke="#eee" rx="7.5"/><path fill="#aeca08" d="M34.996 48.187c-1.511-1.726-1.99-3.789-1.871-5.971.192-4.053 1.823-7.627 3.885-11.032.36-.072.624.168.912.287.863.384 1.774.6 2.734.408.24-.048.599-.096.575-.432 0-.311-.336-.383-.6-.407-.623-.072-1.247-.096-1.87-.216-.432-.072-.983 0-1.223-.528.24-.383.455-.743.695-1.127.288-.144.504.048.744.12 1.15.336 2.278.695 3.501.456.552-.096.935-.528 1.463-.648.072.192.168.36.24.552-.336.455-.336.96-.192 1.487.456 1.918 1.535 3.405 2.998 4.7 1.51 1.343 3.237 2.422 4.868 3.598.264.192.552.36.672.695.575 1.919.84 3.885.168 5.828-.84 2.542-2.59 4.269-5.085 5.156-3.405 1.247-6.787 1.151-10.048-.575-.912-.792-.888-1.847-.768-2.902.264-2.59 2.423-4.965 4.965-5.54a2.9 2.9 0 0 1 1.798.168c1.127.455 1.463 1.774.768 2.853a4.96 4.96 0 0 1-2.614 2.063c-.264.096-.552.168-.792.336-.168.12-.287.288-.24.503.048.216.192.336.408.36.288.048.576.048.84 0 2.614-.312 4.892-1.271 6.379-3.55 1.199-1.87.935-3.932-.6-5.276-1.055-.935-2.278-1.007-3.573-.79-2.11.359-3.885 1.414-5.42 2.829-1.775 1.655-3.046 3.621-3.43 6.068-.024.191-.048.407-.24.503z"/><path fill="#2e276c" d="M34.995 48.187c.384-4.652 4.82-8.873 9.138-9.617 1.703-.311 3.237.048 4.292 1.535 1.032 1.463.912 3.022.144 4.557-.6 1.199-1.606 2.062-2.782 2.686-1.414.767-2.901 1.319-4.532 1.247-.408 0-.816-.048-.888-.576-.072-.551.336-.72.72-.839 1.127-.312 2.062-.911 2.782-1.847.528-.671.815-1.39.36-2.23-.384-.672-1.295-1.031-2.23-.887-2.399.36-4.462 2.398-5.013 4.916-.24 1.151-.216 2.254.456 3.262.623.407 1.103.983 1.774 1.319 2.327 1.175 4.749 1.39 7.243.743a18.6 18.6 0 0 0 7.986-4.389 7 7 0 0 0 1.727-2.494c.384-.983.096-1.822-.6-2.566-.791-.84-1.63-1.63-2.566-2.302-.264-.192-.551-.36-.695-.672-.84-.6-1.703-1.199-2.542-1.798a26.6 26.6 0 0 1-3.814-3.142c-1.175-1.175-1.894-2.59-2.23-4.173-.096-.456-.264-1.031.408-1.247.743.264 1.15.911 1.678 1.415 2.59 2.374 5.468 4.46 8.13 6.763.696.623 1.463 1.175 2.063 1.895 3.501 4.052 2.854 9.64-1.655 12.95-3.453 2.518-7.338 3.885-11.68 3.454-3.069-.312-5.611-1.56-7.074-4.437-.552-1.104-.6-2.303-.624-3.502zm-.119-17.603c-.888.864-1.775 1.703-2.639 2.59a49.6 49.6 0 0 0-6.858 8.922c-.696 1.151-1.224 2.398-1.391 3.741-.144 1.2.12 2.278.887 3.238.911 1.127 2.038 1.99 3.285 2.758 1.296.791 2.567 1.63 3.766 2.59 2.302 1.822 2.83 4.245 2.182 6.955-.336 1.39-1.367 2.23-2.782 2.566-.983.216-1.439-.192-1.247-1.2.216-1.126.432-2.277.84-3.333.575-1.487.072-2.47-1.152-3.333-1.27-.888-2.638-1.583-3.957-2.399-1.487-.91-2.83-1.942-3.597-3.573-.911-1.967-.696-3.981-.072-5.972.983-3.07 2.806-5.611 4.964-7.938 2.015-2.134 4.317-3.909 6.811-5.444q.288-.18.576-.288c.072-.024.168 0 .24-.024l.12.144z"/><path fill="#2e276c" d="M27.849 45.046c.12-2.398.983-4.892 2.374-7.243 1.415-2.398 3.31-4.412 5.132-6.499.096-.12.24-.336.408-.192s0 .336-.072.48c-.672 1.319-1.463 2.566-2.23 3.837-1.271 2.134-2.23 4.413-2.638 6.883-.576 3.55.527 6.595 2.83 9.281.599.696 1.199 1.391 1.774 2.087.144.168.312.335.36.527.096.336.144.72-.432.648-.216-.024-.431 0-.647-.096-2.974-1.415-5.372-3.382-6.428-6.643-.287-.888-.455-1.823-.431-3.07M39.768 20.32c-.6-.192-.983-.672-1.463-1.08-.384-.335-.816-.863-1.415-.623-.624.264-.576.935-.576 1.487-.024 1.535.552 2.926.936 4.365.072.312.167.623.144.96-.048.575-.696 1.126-1.248 1.102-.263 0-.311-.215-.383-.383-.768-2.039-1.367-4.101-1.511-6.308-.024-.551 0-1.079.096-1.63.336-1.92 2.326-2.807 4.005-1.775.575.36 1.055.84 1.535 1.295.503.48 1.055.623 1.726.48 1.128-.264 2.255-.528 3.406-.576 1.199-.048 1.655.312 1.942 1.463.048.264.096.503.12.767.096.84.48 1.463 1.295 1.799.216.096.432.216.624.36.624.431.791.911.384 1.559-1.2 1.798-2.926 2.925-4.94 3.645-.12.048-.264 0-.384 0-.432-.264-.216-.552 0-.791.191-.216.48-.288.743-.408 1.151-.48 1.895-1.343 2.398-2.446.312-.672.192-1.08-.503-1.391-.84-.384-1.247-.96-1.295-1.895-.072-1.103-.288-1.2-1.32-.791-.887.36-1.726.839-2.685.935-.552.048-1.128.24-1.631-.168z"/><path fill="#aeca08" d="M39.768 20.32c1.319.24 2.542-.096 3.717-.671.384-.192.767-.408 1.223-.456.672-.096.792 0 .84.695 0 .192.023.384.023.576 0 .743.336 1.223 1.008 1.51 1.031.48 1.199.96.647 1.967-.6 1.056-1.343 1.967-2.59 2.35-.408.12-.935.313-.6.96-.047.096-.12.192-.167.288-1.367.24-2.686.767-4.101.6-.264-.025-.576.071-.72-.288.096-.24.192-.456.288-.696.288-1.943.648-3.885.336-5.852l.072-.983z"/><path fill="#2e276c" d="M39.073 27.85c1.319.145 2.614.097 3.86-.335.313-.12.624-.168.936 0 .48.527.24 1.055 0 1.559-1.007 1.079-2.278.96-3.55.767-.743-.12-1.462-.384-2.158-.671-.695-.36-1.415-.744-2.134-1.343h3.022z"/><path fill="#2f286b" d="M37.49 30.297c.767.48 1.678.383 2.518.527.312.048.647.072.96.144.263.072.527.192.527.504 0 .335-.264.48-.552.551a4.9 4.9 0 0 1-3.093-.36c-.288-.143-.576-.311-.864-.455-.384-.432-.935-.792-.935-1.56.503.24.983.457 1.463.672z"/><path fill="#2f296c" d="M39.696 21.28c.456.767.36 1.606.288 2.397-.096 1.175-.12 2.35-.624 3.454-.36-1.703-.647-3.43-.455-5.18.048-.48.215-.792.791-.672"/><path fill="#fefefe" d="M52.287 40.01c1.415.863 2.59 1.99 3.669 3.213.671.743.72 1.607.336 2.494-.48 1.151-1.271 2.087-2.207 2.854-2.806 2.35-5.947 4.03-9.64 4.34-2.135.193-4.173-.215-5.948-1.486-.408-.288-.768-.624-1.031-1.055.143-.048.24 0 .36.072 3.213 1.703 6.523 1.654 9.856.431 3.837-1.415 5.876-5.348 4.964-9.425-.12-.48-.215-.959-.335-1.463z"/><path fill="#2e276b" d="M41.015 25.956c.576-1.367 1.151-2.638 2.015-3.765a3.7 3.7 0 0 1 .671-.696c.168-.12.384-.24.6-.096.24.144.311.36.264.624a2.7 2.7 0 0 1-.168.623 7.06 7.06 0 0 1-2.422 2.998c-.264.192-.528.36-.984.336z"/></svg>