<svg xmlns="http://www.w3.org/2000/svg" width="80" height="80" fill="none" viewBox="0 0 80 80"><rect width="79" height="79" x=".5" y=".5" fill="#fff" rx="7.5"/><rect width="79" height="79" x=".5" y=".5" stroke="#eee" rx="7.5"/><path fill="#50b848" d="M59.676 54.432h-39.6v2.355h39.6zM39.89 30.125a45 45 0 0 1 13.318-3.857c-3.515-1.631-8.196-2.668-13.341-2.668-5.146 0-9.812 1.018-13.341 2.668 4.619.59 9.12 1.89 13.34 3.857"/><path fill="#50b848" d="M39.867 32.114A43.5 43.5 0 0 0 23.823 27.8a10.1 10.1 0 0 0-2.851 2.896 40.34 40.34 0 0 1 18.895 4.817 40.5 40.5 0 0 1 18.917-4.817A9.9 9.9 0 0 0 55.93 27.8a43.6 43.6 0 0 0-16.062 4.314m.917 7.74a4.61 4.61 0 0 1 2.867-4.192 38.45 38.45 0 0 1 15.433-3.19h.438q.137.589.141 1.193v9.38H40.762zm-1.81 0a4.62 4.62 0 0 0-2.867-4.192 38.5 38.5 0 0 0-15.433-3.19h-.446a5.7 5.7 0 0 0-.134 1.193v9.38h18.91z"/><path fill="#005baa" d="M34.618 45.834c0-.8 1.49-.381 1.49-.728 0-.107-.076-.137-.267-.137h-4.654l-2.824 4.684-2.847-4.684H20.83c-.19 0-.263.03-.263.137 0 .381 1.49-.072 1.49.728v5.011c0 1.853-2.058 1.353-2.058 1.738 0 .107.122.153.34.153.704 0 1.36-.023 2-.023s1.289.023 2.005.023c.21 0 .34-.046.34-.153 0-.38-2.062.115-2.062-1.737v-4.65h.038l3.987 6.433a.31.31 0 0 0 .266.175c.122 0 .16-.068.23-.175l3.88-6.498h.034v5.74c0 .792-1.483.38-1.483.728 0 .099.065.137.263.137.69 0 1.7-.023 2.992-.023s2.287.023 3 .023c.19 0 .267-.038.267-.137 0-.381-1.49.064-1.49-.728zm12.899 4.2c0-.103-.05-.172-.195-.172-.335 0-.19.381-.82 1.026a5.63 5.63 0 0 1-3.754 1.734c-1.753 0-2.744-.888-2.744-3.773 0-2.04.69-3.766 2.744-3.766 1.354 0 2.577.763 3.43 1.647 1.011 1.06.817 1.417 1.144 1.417.168 0 .168-.087.168-.21v-2.72c0-.183-.13-.229-.255-.229-.404 0-.122.526-.743.526-.85 0-1.986-.713-3.972-.713-3.366 0-6.412 1.578-6.412 4.048s2.726 4.043 6.48 4.043c1.906 0 3.316-.606 4.06-.606.495 0 .335.427.67.427.126 0 .195-.069.195-.221zm5.569-4.814h1.048c1.277 0 1.524.24 1.524 1.525 0 1.505-.457 1.68-1.753 1.68h-.835zm-3.541 6.65c0 .794-1.49.382-1.49.729 0 .099.072.137.27.137.686 0 1.696-.023 2.988-.023s2.52.023 3.812.023c3.282 0 4.875-.762 4.875-2.287s-2.443-1.806-4.734-1.825v-.05c2.748 0 4.17-.686 4.17-1.745s-1.117-1.852-4.574-1.852H48.32c-.198 0-.27.03-.27.137 0 .38 1.49-.073 1.49.728zm4.341-3.166c1.807 0 2.21.469 2.21 1.863 0 1.761-.506 1.876-2.122 1.876-.71 0-.888-.13-.888-.412v-3.342z"/></svg>