<svg xmlns="http://www.w3.org/2000/svg" width="80" height="80" fill="none" viewBox="0 0 80 80"><rect width="79" height="79" x=".5" y=".5" fill="#fff" rx="7.5"/><rect width="79" height="79" x=".5" y=".5" stroke="#eee" rx="7.5"/><path fill="#006c48" d="M63.478 32.336c2.193.357 3.958 2.247 4.403 4.725q.108.641.107 1.283c0 4.493.036 8.968-.017 13.46-.036 2.264-.999 4.118-3.067 5.241a5 5 0 0 1-2.424.624H26.36c-3.191 0-5.651-2.46-5.651-5.651V40.501c0-.392.107-.517.499-.517.695.036 1.39 0 2.068.018.463.018.624-.125.606-.588-.036-.963.16-1.872.802-2.639.731-.855 1.623-1.337 2.764-1.283.499.018.66-.143.66-.66 0-.838-.126-1.693.07-2.531.16.73 0 1.48.072 2.086 0-.357.035-.874 0-1.373-.036-.482.107-.678.641-.66 1.676.036 3.37 0 5.046 0h28.809c.232 0 .481.036.713-.035z"/><path fill="#ee8127" d="M27.306 24.154c0 1.283 0 1.301-1.248 1.497-2.71.428-5.134 1.48-7.13 3.37-2.087 1.96-3.246 4.42-3.798 7.184a17 17 0 0 0-.285 2.104c-.036.356-.16.499-.517.481-.607 0-1.213 0-1.819.053-.392.036-.553-.07-.499-.499.481-4.385 1.943-8.325 5.206-11.445 2.353-2.246 5.223-3.459 8.379-4.047.035 0 .089 0 .124-.018q1.587-.267 1.587 1.302z"/><path fill="#f59d23" d="M27.306 28.539q0 1.301-1.266 1.587c-4.047.873-6.56 3.78-6.988 8.111-.036.428-.16.553-.57.535-.589-.018-1.16 0-1.748 0-.285 0-.445-.071-.41-.41.339-3.583 1.587-6.721 4.564-8.967 1.747-1.32 3.762-1.961 5.901-2.247.41-.053.553.09.517.482-.018.303 0 .606 0 .909"/><path fill="#f5b820" d="M27.252 32.925c0 1.176 0 1.176-1.07 1.568-1.782.66-2.816 1.926-3.101 3.78-.072.428-.196.552-.606.517-.517-.018-1.034 0-1.551 0-.34 0-.446-.09-.41-.446.374-3.155 2.014-5.633 5.277-6.525 1.444-.392 1.461-.374 1.461 1.088z"/><path fill="#016b47" d="M62.854 23.94c.553-.179.892-.054 1.034.57.178.73.482 1.408.731 2.121.036.125.09.268.25.232.178-.035.142-.196.142-.303 0-1.016.018-2.032 0-3.03 0-.428.143-.482.517-.5.392 0 .464.143.464.5-.018 1.07 0 2.157 0 3.226 0 .678-.268.927-.927.945h-1.872c-.16 0-.357.036-.481-.107-.143-.178-.428-.303-.321-.57.089-.214.338-.107.517-.125.944-.018.944 0 .624-.945-.214-.66-.535-1.301-.642-1.997z"/><path fill="#00552c" d="M63.478 32.336c-.25.178-.553.107-.82.107h-33.48q-.838 0-.838.856v1.747c0 .036-.036.071-.125.232v-2.96c.214 0 .428-.035.642-.035h33.266c.446 0 .91.053 1.355.071z"/><path fill="#016944" d="M66.954 25.455c0-.66.018-1.337 0-1.997-.017-.428.214-.41.517-.428.321 0 .464.054.464.41a126 126 0 0 0 0 3.673c0 .374-.196.552-.5.66-.285.106-.498.07-.48-.34.017-.659 0-1.336 0-1.996z"/><path fill="#005329" d="M35.328 27.648c.197-.196.446-.107.678-.107h21.981c.232 0 .481-.072.678.107-.197 0-.393.053-.57.053H35.72c-.125 0-.25-.035-.375-.035z"/><path fill="#06653f" d="M63.852 23.102c-.213.231-1.212.41-1.23.231-.053-.356.018-.73.179-1.07.142-.267.41-.302.677-.231.196.053.232.25.071.32-.196.09-.445.108-.374.41.071.322.374.197.588.25.036 0 .054.054.09.072z"/><path fill="#086743" d="M30.604 30.946c-.303 0-.499-.16-.517-.464 0-.303.16-.481.464-.5.303 0 .481.161.499.464.018.321-.16.464-.446.5"/><path fill="#096844" d="M31.799 29.983c.285.053.463.214.463.517s-.214.463-.5.463c-.284 0-.463-.16-.445-.48 0-.322.196-.447.482-.482z"/><path fill="#fcfcfc" d="M32.993 50.164c-.374 1.105-.767 2.157-1.622 3.013-2.87 2.799-7.203 1.444-8.468-2.05a6.6 6.6 0 0 1-.357-2.354v-4.457c0-.356.09-.499.464-.48.588.035 1.176.035 1.747 0 .41-.019.517.106.499.516-.018 1.587 0 3.191 0 4.778 0 1.034.374 1.925 1.301 2.442 1.533.874 3.334.054 3.726-1.675a4.3 4.3 0 0 0 .09-.963v-4.6c0-.41.124-.517.516-.499.553.036 1.124.036 1.676 0 .392-.018.482.125.464.481-.018.82 0 1.64 0 2.46 0 .393.053.571.517.571q4.732-.027 9.466 0c.41 0 .517-.142.481-.535a40 40 0 0 1-.053-2.068c0-.463-.285-.66-.66-.766-.231-.054-.463-.054-.713-.054h-5.83c-1.283 0-2.139-.802-2.21-2.103-.071-1.248.392-2.336 1.159-3.263 2.3-2.763 5.188-4.332 8.842-4.403.5 0 .678.125.642.642-.071.713.178 1.568-.143 2.085-.303.517-1.248.286-1.907.428-2.122.464-3.94 1.373-5.241 3.156-.09.107-.268.214-.179.374.09.178.268.09.41.09 1.961.053 3.922.106 5.901.142 1.926.035 2.853.962 2.87 2.888v2.906c0 .196-.089.446.268.463.428 0 .285-.267.267-.481-.053-2.21 1.248-4.279 3.085-4.938 3.048-1.07 6.186 1.034 6.364 4.278v.589c0 .25-.143.57.356.57.482 0 .393-.267.375-.553-.071-1.265.267-2.406 1.07-3.369 1.247-1.515 2.852-2.175 4.777-1.658 2.05.553 3.191 1.979 3.512 4.03.375 2.335-.766 4.474-2.87 5.4-1.64.732-3.227.482-4.617-.64-.446-.358-.856-.607-1.444-.518-.232.036-.482 0-.713 0-.981-.053-1.801.071-2.675.731-1.693 1.301-3.904 1.034-5.544-.374a1.3 1.3 0 0 0-.214-.125c-.267-.107-.535-.125-.82-.125H32.993z"/><path fill="#fefefe" d="M30.052 40.787c0 1.39-1.07 2.46-2.443 2.442-1.373 0-2.425-1.105-2.407-2.496 0-1.408 1.124-2.531 2.496-2.496 1.337.018 2.371 1.141 2.371 2.532z"/><path fill="#005329" d="M32.993 50.164c.178-.196.41-.09.606-.09h13.959c.285 0 .624-.106.82.215H33.795c-.25 0-.588.213-.802-.108z"/><path fill="#006a46" d="M60.18 24.546c-.713-.036-1.55-.34-1.961.748-.143.375-.57.678-.481 1.16.071.373-.072.427-.41.427H35.632c-.375 0-.482-.107-.482-.463.018-.963 0-1.944 0-2.906 0-.357-.089-.5-.463-.482-.357 0-.57.054-.535.482.035.517 0 1.034 0 1.55 0 .571.196 1.355-.107 1.676-.339.393-1.141.09-1.73.125h-.07c-.197.054-.482-.125-.571.143-.09.25.214.392.32.588.072.16.464-.036.357.321-.071.25-.285.392-.499.463-1.194.41-1.925-.089-1.979-1.354 0-.143.072-.34-.089-.41q-.267-.108-.535.107c-.445.32-.463 1.194-.017 1.8.624.874 3.066 1.105 3.672.178.5-.766 1.016-1.07 1.836-1.176a.73.73 0 0 1 .535.107c.178-.09.374-.054.57-.054h22.196c.196 0 .392-.035.57.054l2.193.053c.303 0 .535-.089.695-.374.606-1.088-.16-2.692-1.39-2.763zm-1.337 2.21c-.303 0-.428-.125-.428-.303 0-.374 0-.606.357-.606.32 0 .392.232.392.463 0 .215-.036.428-.339.446zm1.497.143c-.41 0-.57-.107-.463-.535.107-.446-.196-.749-.553-1.123.91-.071 1.373.285 1.427 1.07 0 .285.107.606-.41.606z"/><path fill="#056d4a" d="M53.869 46.58c0 1.284-1.016 2.39-2.21 2.407-1.177 0-2.282-1.123-2.282-2.353 0-1.283 1.07-2.407 2.3-2.389 1.176 0 2.192 1.106 2.192 2.354zm10.161.054c0 1.266-1.087 2.371-2.281 2.353-1.177-.035-2.193-1.123-2.175-2.37 0-1.32.998-2.372 2.228-2.372 1.212 0 2.246 1.105 2.229 2.389"/></svg>