<svg xmlns="http://www.w3.org/2000/svg" width="80" height="80" fill="none" viewBox="0 0 80 80"><rect width="80" height="80" fill="#ff5018" rx="8"/><path fill="#fff" d="M59.923 38.058 46.189 55.463a.36.36 0 0 1-.28.137h-6.06a.356.356 0 0 1-.358-.356V43.512c0-.34-.435-.486-.643-.216L29.562 55.46a.36.36 0 0 1-.285.14h-6.06a.356.356 0 0 1-.357-.356V40.396a.356.356 0 0 0-.358-.356h-2.144a.356.356 0 0 1-.28-.576l11.707-14.927a.36.36 0 0 1 .281-.137h4.98c.199 0 .358.159.358.356v12.775c0 .34.432.486.643.219l10.37-13.213a.36.36 0 0 1 .28-.137h4.98c.199 0 .358.159.358.356v12.412c0 .197.163.36.361.356l5.243-.041c.3 0 .47.343.284.575"/></svg>