<svg xmlns="http://www.w3.org/2000/svg" width="80" height="80" fill="none" viewBox="0 0 80 80"><rect width="80" height="80" fill="url(#a)" rx="8"/><path fill="#fff" fill-rule="evenodd" d="M69.054 37.847a10 10 0 0 1-1.85.617l-1.097.274q-.823.205-1.233.616c-.206.343-.343.685-.343 1.026 0 .424.146.835.41 1.165q.412.411 1.234.411c.892 0 1.577-.274 2.056-.753.48-.48.754-1.234.754-2.125l.069-1.233zm.753 5.893a5.8 5.8 0 0 1-2.124.616q-.99.124-1.987.138a4.9 4.9 0 0 1-2.946-.96c-.823-.616-1.303-1.645-1.303-3.083 0-1.371.411-2.33 1.165-2.878.755-.548 1.782-.96 2.947-1.165.205 0 .411 0 .548-.069.274-.068.48-.068.754-.137q2.055-.308 2.052-1.233c0-.48-.274-.822-.753-.96a4.4 4.4 0 0 0-1.37-.205 3.2 3.2 0 0 0-1.166.206c-.341.139-.611.41-.748.752H61.72c.138-.958.549-1.85 1.303-2.466.825-.753 2.055-1.096 3.631-1.096 1.782 0 3.084.274 3.974.89.891.617 1.371 1.508 1.371 2.672v4.386c0 1.302-.205 2.261-.685 3.015-.274.686-.824 1.234-1.508 1.577m-15.417.548v-6.167c0-1.233.205-2.33.548-3.152s.822-1.51 1.51-2.053a5.6 5.6 0 0 1 2.124-1.026c.822-.206 1.644-.343 2.466-.343h.411v3.422H60.35c-.89 0-1.576.205-2.055.685-.412.48-.686 1.165-.686 2.124v6.582l-3.22-.069zm-3.562-6.44a9.7 9.7 0 0 1-1.85.616l-1.097.274q-.822.205-1.233.616c-.206.343-.343.685-.343 1.026 0 .424.146.835.411 1.165q.412.411 1.234.411c.89 0 1.576-.274 2.056-.753.48-.48.753-1.234.753-2.125l.069-1.233zm.754 5.892a5.8 5.8 0 0 1-2.124.616q-.991.124-1.988.138a4.9 4.9 0 0 1-2.947-.96c-.822-.616-1.301-1.645-1.301-3.083 0-1.371.41-2.33 1.164-2.878s1.782-.96 2.947-1.165c.206 0 .411 0 .548-.069.274-.068.483-.068.754-.137q2.055-.308 2.053-1.233c0-.48-.274-.822-.754-.96a4.4 4.4 0 0 0-1.37-.205 3.2 3.2 0 0 0-1.165.206c-.343.138-.614.41-.752.752h-3.015c.137-.958.548-1.85 1.301-2.466.823-.753 2.056-1.096 3.632-1.096 1.782 0 3.084.274 3.975.89.89.617 1.37 1.51 1.37 2.673v4.386c0 1.302-.206 2.261-.685 3.015-.411.685-.96 1.233-1.645 1.576zm-11.787-5.824c0-1.234-.206-2.193-.686-2.879q-.72-1.027-2.055-1.026c-.823 0-1.51.343-1.987 1.026-.411.617-.685 1.577-.685 2.879 0 1.233.205 2.124.685 2.74q.719 1.027 2.053 1.027c.754 0 1.509-.342 1.918-1.026.48-.685.755-1.577.755-2.741zm-5.414 9.387a1.6 1.6 0 0 1-.48 1.165c-.273.343-.684.48-1.164.48H31.16V37.025c0-2.262.616-3.769 1.918-4.589 1.233-.825 2.741-1.236 4.18-1.236.822 0 1.645.137 2.399.48.74.262 1.401.71 1.918 1.302.96 1.234 1.44 2.878 1.44 4.8 0 1.987-.484 3.631-1.44 4.865-.957 1.233-2.124 1.847-3.629 1.847-.685 0-1.439-.138-2.053-.412-.617-.342-1.165-.822-1.51-1.509v4.73zm-6.715-9.456a10 10 0 0 1-1.85.617l-1.096.205q-.823.205-1.234.617c-.206.342-.343.685-.343 1.026 0 .424.146.835.411 1.166q.412.41 1.234.41c.891 0 1.576-.273 2.056-.753s.753-1.234.753-2.124l.07-1.165zm.754 5.893a5.8 5.8 0 0 1-2.126.616q-.989.124-1.987.138a4.9 4.9 0 0 1-2.946-.96c-.822-.616-1.302-1.645-1.302-3.083 0-1.371.41-2.33 1.165-2.878.754-.548 1.781-.96 2.946-1.165.205 0 .411 0 .548-.069.206-.068.48-.068.754-.137q2.056-.308 2.056-1.233c0-.48-.274-.822-.754-.96a4.4 4.4 0 0 0-1.37-.205 3.2 3.2 0 0 0-1.166.206 1.36 1.36 0 0 0-.752.752h-3.152c.137-.958.548-1.85 1.302-2.466.822-.753 2.055-1.096 3.632-1.096 1.781 0 3.083.274 3.974.89.89.617 1.37 1.51 1.37 2.673v4.386c0 1.302-.206 2.261-.685 3.015-.274.685-.822 1.233-1.51 1.576zm-17.2 3.563c.006.437-.167.858-.479 1.165-.274.343-.685.48-1.165.48H8V37.025c0-2.262.616-3.769 1.919-4.591 1.233-.822 2.74-1.233 4.18-1.233.822 0 1.643.137 2.397.479.741.262 1.402.71 1.92 1.302.958 1.234 1.438 2.878 1.438 4.797 0 1.987-.483 3.631-1.439 4.865-.956 1.233-2.124 1.85-3.631 1.85-.686 0-1.44-.137-2.053-.411-.617-.343-1.165-.823-1.51-1.51v4.73m5.345-9.388c0-1.234-.205-2.193-.685-2.878q-.72-1.027-2.053-1.027c-.822 0-1.51.343-1.987 1.027-.411.617-.685 1.576-.685 2.878 0 1.233.205 2.124.685 2.741q.72 1.026 2.055 1.026c.755 0 1.51-.342 1.92-1.026.548-.685.753-1.576.753-2.741z" clip-rule="evenodd"/><defs><linearGradient id="a" x1="16.739" x2="110.089" y1="130.65" y2="99.799" gradientUnits="userSpaceOnUse"><stop stop-color="#e14a55"/><stop offset="1" stop-color="#8e278f"/></linearGradient></defs></svg>