<svg xmlns="http://www.w3.org/2000/svg" width="80" height="80" fill="none" viewBox="0 0 80 80"><rect width="80" height="80" fill="#32bcad" rx="8"/><path fill="#fff" d="M51.204 50.6a5.85 5.85 0 0 1-4.157-1.72l-6.001-6a1.14 1.14 0 0 0-1.577 0l-6.023 6.02a5.84 5.84 0 0 1-4.156 1.72h-1.183l7.6 7.6a6.08 6.08 0 0 0 8.597 0l7.623-7.622zM29.29 29.378c1.57 0 3.046.611 4.156 1.72l6.023 6.023a1.116 1.116 0 0 0 1.577 0l6.001-6a5.84 5.84 0 0 1 4.157-1.72h.723l-7.623-7.621a6.08 6.08 0 0 0-8.597 0l-7.6 7.598z"/><path fill="#fff" d="m58.231 35.703-4.606-4.605a.9.9 0 0 1-.327.066h-2.094a4.14 4.14 0 0 0-2.908 1.205l-6 5.999a2.87 2.87 0 0 1-2.038.842 2.87 2.87 0 0 1-2.037-.842l-6.023-6.021a4.14 4.14 0 0 0-2.908-1.205h-2.576a.9.9 0 0 1-.309-.062l-4.624 4.623a6.076 6.076 0 0 0 0 8.594l4.624 4.623a.9.9 0 0 1 .31-.062h2.575a4.14 4.14 0 0 0 2.908-1.204l6.023-6.022c1.088-1.088 2.986-1.088 4.074 0l6.001 6a4.14 4.14 0 0 0 2.908 1.204h2.094c.116 0 .226.026.327.066l4.607-4.605a6.076 6.076 0 0 0 0-8.594"/></svg>