<svg xmlns="http://www.w3.org/2000/svg" width="80" height="80" fill="none" viewBox="0 0 80 80"><rect width="79" height="79" x=".5" y=".5" fill="#fff" rx="7.5"/><rect width="79" height="79" x=".5" y=".5" stroke="#eee" rx="7.5"/><path fill="#ef7620" d="M32.232 44.443c-.02-.06 0-.09.01-.121.313-.87.636-1.748.95-2.617 0-.02.02-.04.02-.061.01-.07.06-.101.131-.101h4.538c.697.05 1.334-.495 1.516-1.041.09-.263.192-.526.293-.788a1 1 0 0 0 .07-.415.616.616 0 0 0-.474-.596c-.091-.03-.192-.03-.283-.03h-3.214c-.03-.04-.01-.071 0-.101l.97-2.668c0-.02.02-.04.02-.061.01-.03.04-.04.071-.05h3.305c.465 0 .91.08 1.324.293.687.333 1.111.879 1.283 1.617.121.485.091.97-.01 1.455-.04.182-.09.353-.152.525-.1.293-.212.576-.313.87a5.6 5.6 0 0 1-.374.788c-.04.06-.07.131-.11.182.02.04.05.03.07.03h9.004c.122 0 .243 0 .354-.02.556-.152.95-.485 1.162-1.021.314-.839.617-1.688.93-2.537.08-.222.162-.434.243-.657.02-.05.05-.09.11-.08h2.618c.06 0 .111-.01.172.01.02.06-.02.11-.04.162l-.667 1.819c-.152.424-.314.849-.465 1.273a5.6 5.6 0 0 1-.455.96c-.01.02-.03.05-.04.07.02.041.05.031.07.031h1.9c.293 0 .546-.111.778-.273.294-.202.506-.475.627-.808.374-1.021.748-2.052 1.122-3.072.07-.193.02-.172.252-.172h2.497c.06 0 .12-.01.181.01.02.05-.01.09-.03.131-.394 1.071-.778 2.143-1.172 3.214a6.5 6.5 0 0 1-.404.849.4.4 0 0 0-.04.09v.021c.05.02.1.01.15.01h1.729c.424 0 .768-.162 1.061-.434.202-.182.344-.415.435-.667l1.091-3.002c.101-.263.03-.222.323-.222h2.628c.01.06-.01.1-.03.141-.384 1.051-.768 2.112-1.152 3.163a5.5 5.5 0 0 1-1.324 2.052 6.3 6.3 0 0 1-2.416 1.566 5 5 0 0 1-1.677.293H32.21zm-16.312-.01h-3.779c-.162 0-.162 0-.111-.141.313-.86.626-1.729.94-2.587.07-.192.04-.162.242-.162h7.347c.111 0 .233 0 .344-.02.566-.142.96-.486 1.172-1.021.101-.263.192-.536.293-.809.04-.1.06-.202.071-.313.01-.394-.242-.677-.637-.707h-4.76c-.04 0-.06-.02-.04-.071.06-.162.111-.323.172-.485.262-.728.525-1.445.788-2.173 0-.02.02-.04.02-.06.02-.071.06-.112.132-.102h4.669c.374 0 .737.05 1.091.182.96.364 1.486 1.061 1.607 2.072.06.495-.01.98-.162 1.455a24 24 0 0 1-.424 1.193 5.3 5.3 0 0 1-.9 1.485 6.5 6.5 0 0 1-2.577 1.9 5 5 0 0 1-1.283.344 4 4 0 0 1-.516.03H15.9z"/><path fill="#9d9d9c" d="M34.546 30.012c0 .06-.02.11-.04.161l-.758 2.092-1.061 2.91c-.202.567-.415 1.133-.617 1.709-.374 1.03-.758 2.062-1.132 3.102-.252.698-.505 1.405-.768 2.103-.161.434-.313.869-.475 1.303-.192.516-.566.85-1.091 1.01a1.3 1.3 0 0 1-.334.051h-1.929c-.021 0-.031-.02-.021-.04 0-.02.01-.03.02-.05.202-.334.354-.688.495-1.052l1.092-3.001c.303-.839.616-1.678.92-2.527.323-.879.636-1.758.96-2.637.414-1.132.818-2.264 1.232-3.386.192-.546.395-1.081.587-1.627 0-.03.02-.05.03-.08.01-.031.04-.051.08-.051h2.649c.05 0 .1-.01.151.02zm19.99 18.17v.04c-.121.344-.222.698-.404 1.011-.02.03 0 .06.03.06h.243a.41.41 0 0 0 .363-.211c.061-.101.091-.213.132-.314.06-.161.121-.333.182-.495.02-.06.06-.09.131-.09.081 0 .172-.01.253.01.02.05 0 .08-.02.12-.081.213-.152.425-.233.637-.08.223-.232.404-.424.546a.88.88 0 0 1-.546.172H50.28c-.03 0-.05-.03-.04-.06.01-.041.03-.092.04-.132.081-.212.04-.182.263-.182h.93c.03 0 .05-.02.06-.05a.8.8 0 0 0 .061-.405c-.03-.162-.131-.253-.283-.293-.06-.02-.121-.02-.182-.03-.141-.02-.141-.02-.09-.142.07-.202.04-.222.303-.192.1.01.202.01.303.05a.65.65 0 0 1 .273.223c.04.06.06.131.07.212 0 .152 0 .303-.04.455-.01.04-.02.08-.03.111 0 .01 0 .03.03.04h.596q.243 0 .364-.212c.04-.07.07-.141.101-.212.06-.161.121-.323.172-.485.02-.05.04-.09.06-.141.01-.04.04-.061.071-.061.091 0 .192-.01.283 0 .02.04 0 .07 0 .101-.08.233-.162.465-.252.687-.03.091-.081.182-.132.263-.01.02 0 .05.02.05.101 0 .202.01.303 0 .132-.01.233-.09.304-.202.04-.07.07-.141.1-.222.072-.172.132-.354.193-.525.01-.03.02-.061.04-.102q.03-.06.091-.06h.273zM34.91 49.678h-.94c-.07 0-.131 0-.202-.02-.182-.04-.283-.182-.253-.364.01-.08.03-.151.06-.232.172-.465.334-.92.506-1.385 0-.02.02-.04.03-.06.01-.03.03-.051.061-.051h.242c.041 0 .061.03.051.07s-.03.092-.04.132L34 48.91a1 1 0 0 0-.05.182c-.01.111.02.162.131.192.04.01.091.02.131.02h.516c.08 0 .1-.02.1-.1.031-.486.486-.93.9-1.011.152-.03.293-.04.435.03.131.06.212.172.232.313 0 .03 0 .06-.03.07-.09.041-.182.072-.273.112-.02 0-.04 0-.06-.02 0-.02-.01-.03-.02-.05-.061-.122-.162-.183-.294-.152a.6.6 0 0 0-.222.09.83.83 0 0 0-.283.455c-.01.04 0 .091 0 .132 0 .09.03.121.131.121h.647c.162 0 .162 0 .111.162-.02.05-.04.09-.05.141-.02.05-.05.071-.101.071H34.92zm-3.022 0h-.525c-.122 0-.243-.02-.354-.04-.07 0-.131-.04-.192-.07-.172-.082-.253-.213-.263-.405 0-.121.02-.243.06-.354.061-.182.132-.364.193-.546.02-.06.06-.09.131-.08h.192c.04 0 .06.03.05.07-.03.101-.07.192-.1.293-.04.122-.091.243-.122.374-.03.162.03.283.193.334.08.03.161.04.252.04h.97c.081 0 .162-.02.233-.03.1-.02.182-.101.242-.182a.6.6 0 0 0 .101-.212l.213-.576c.04-.101.04-.101.141-.111.263 0 .263 0 .172.242a17 17 0 0 1-.283.748.7.7 0 0 1-.152.253.7.7 0 0 1-.556.242h-.596zm15.806-.02c0-.111.071-.202.101-.303.01-.03.04-.05.081-.05h1.061c.03 0 .05-.02.071-.051.04-.111.07-.233.07-.354-.01-.182-.12-.303-.302-.343-.081-.02-.172-.02-.253-.04-.04 0-.05-.031-.04-.062.03-.07.05-.151.08-.222.01-.03.04-.05.081-.05.162.01.324 0 .475.06.223.101.354.263.354.516 0 .131-.01.262-.05.384-.051.151-.112.303-.162.454-.02.051-.05.071-.101.071h-1.334c-.04 0-.081.01-.122-.02zm2.982-2.082c-.02.111-.071.212-.102.313-.191.536-.394 1.072-.586 1.607-.08.223-.07.182-.283.192h-.08c-.04 0-.061-.02-.04-.07a.5.5 0 0 1 .04-.112c.222-.606.444-1.202.656-1.809 0-.02.02-.04.02-.06.01-.03.041-.06.081-.05.091 0 .193-.01.294.01z"/><path fill="#a0a09f" d="M64.278 47.536c-.04.12-.08.212-.11.303-.02.05-.051.07-.102.07-.303 0-.303.041-.192-.262 0-.02.02-.04.03-.06.01-.031.03-.051.061-.051zm-24.538.354c.02-.112.061-.213.102-.314.01-.03.04-.05.08-.05.092 0 .183-.01.274.01-.02.11-.061.212-.102.303-.01.03-.04.05-.08.05-.091 0-.182.01-.273-.01zm22.457-.354h.12c.021 0 .031.02.031.03a3 3 0 0 1-.101.293c-.01.03-.04.04-.07.04h-.243c-.04 0-.05-.03-.04-.07s.02-.081.04-.111c.09-.213.03-.182.263-.182"/><path fill="#9f9e9d" d="M32.171 47.839a.9.9 0 0 1-.09.293c-.01.03-.031.05-.061.05-.091 0-.192.02-.293-.01.01-.1.06-.202.09-.293.01-.03.04-.04.061-.04.091 0 .192-.01.293 0m.616 0c0 .111-.05.202-.09.293-.01.03-.04.05-.081.05h-.273c.02-.11.06-.212.1-.313q.015-.03.062-.03h.292z"/><path fill="#9d9d9c" d="M47.28 47.566h-.223c-.04 0-.07.02-.08.05-.02.04-.03.071-.051.112-.101.293-.212.576-.313.869-.061.161-.122.333-.182.495-.05.141-.162.202-.303.212h-.758c-.04 0-.051-.02-.03-.07.04-.071.09-.152.12-.223.162-.434.324-.88.486-1.314 0-.02.01-.04.01-.07s-.01-.051-.03-.051h-.253c-.02 0-.04.01-.05.04s-.031.061-.041.091c-.152.405-.293.799-.445 1.203-.02.05-.04.111-.06.162a.38.38 0 0 1-.374.242h-.445c-.02 0-.04-.03-.03-.05 0-.03.02-.06.02-.101.02-.081.04-.162.04-.253-.01-.222-.151-.404-.364-.434a1 1 0 0 0-.454.03 1.2 1.2 0 0 0-.708.717c-.02.061-.05.091-.121.091h-.566c-.06 0-.08-.02-.06-.09q.075-.243.06-.486c0-.192-.101-.333-.263-.434-.172-.101-.374-.101-.566-.101-.03 0-.05.02-.07.05-.03.091-.081.172-.092.273.112.02.213.03.314.05a.37.37 0 0 1 .293.354.8.8 0 0 1-.06.313c-.021.051-.051.071-.102.071h-.839q-.282 0-.353.273v.02q-.03.091.06.091h2.284c.05 0 .081.02.111.06.091.152.233.203.405.213.222.01.424-.05.596-.182a.5.5 0 0 1 .334-.1h1.97c.293-.021.526-.152.657-.425.03-.071.06-.132.091-.202.162-.425.313-.86.475-1.284.02-.04.03-.09.04-.131.01-.04 0-.071-.05-.071zm-3.82 2.031h-.02c-.203.06-.344-.05-.334-.263 0-.212.222-.545.465-.566h.131c.101.03.162.102.162.213 0 .242-.182.515-.415.596zm20.566-1.394c-.03-.02-.05-.02-.081-.02-.293 0-.243-.04-.344.242l-.242.637c-.06.162-.182.232-.344.232h-.445c-.1 0-.12-.03-.09-.131.01-.04.03-.09.04-.131.02-.122.06-.233.05-.354-.01-.273-.131-.445-.404-.485a1.06 1.06 0 0 0-.616.08 2 2 0 0 0-.455.263c-.06.051-.121.091-.192.142-.01-.06.01-.101.03-.142.111-.272.223-.535.324-.808.02-.05.05-.101.04-.162-.08-.02-.162 0-.232-.01-.061 0-.101.02-.132.091-.06.182-.131.354-.192.526-.121.343-.252.687-.374 1.03-.02.061-.05.091-.121.091h-.757c-.183-.03-.223-.1-.173-.272.03-.112.071-.213.111-.324q.2-.53.385-1.061c.02-.05 0-.07-.041-.07h-.222c-.05 0-.091.02-.101.07-.03.07-.05.152-.081.222-.142.395-.293.789-.435 1.193a.9.9 0 0 0-.06.313c0 .162.08.253.232.293.08.02.162.02.243.02h3.627c.314-.02.557-.161.698-.454.02-.05.05-.091.06-.142l.273-.758c.01-.04.04-.08.03-.131zm-1.94 1.03c-.02.051-.061.072-.122.072h-1.273c-.02 0-.03 0-.04-.02 0-.02 0-.031.01-.051.14-.162.303-.314.474-.435.162-.111.324-.202.516-.263.08-.02.172-.03.252-.02.142.01.233.111.253.263a.83.83 0 0 1-.08.445zm-21.779-.676a.43.43 0 0 0-.344-.384.9.9 0 0 0-.566.07c-.394.203-.637.506-.667.96 0 .081-.01.091-.091.091h-.717c-.03 0-.051-.03-.041-.06.04-.111.08-.212.121-.324a.8.8 0 0 0 .05-.353c-.01-.162-.09-.263-.232-.334a.55.55 0 0 0-.283-.05 1.12 1.12 0 0 0-.94.727.7.7 0 0 0-.05.314c.01.222.142.373.354.424.121.03.242.02.353.02.03 0 .071-.02.091.03a.5.5 0 0 1-.323.203c-.07.01-.111.04-.131.11-.02.051-.05.102-.04.173a.68.68 0 0 0 .444-.081.75.75 0 0 0 .374-.334c.05-.08.1-.11.192-.1h1.314c.12 0 .242-.01.353-.051.384-.122.617-.394.748-.768q.045-.153.03-.304zm-2.648.283c-.01.05-.04.11-.061.161a.5.5 0 0 1-.04.111c-.081.213-.04.192-.273.192-.06 0-.121 0-.182-.02-.091-.03-.132-.08-.152-.172a.6.6 0 0 1 0-.181c.071-.203.192-.344.404-.395.213-.05.344.091.294.304zm2.243-.071c0 .222-.202.505-.444.566-.142.03-.324-.06-.314-.243 0-.252.202-.515.445-.586a.5.5 0 0 1 .172 0q.136.045.151.182v.07zm18.758-.223a.38.38 0 0 0-.213-.293.7.7 0 0 0-.334-.07h-.838c-.293 0-.546.11-.758.313a1.3 1.3 0 0 0-.334.515c-.11.314-.232.617-.343.93-.03.08-.071.162-.081.263h.293c.04 0 .06-.02.08-.05.01-.031.02-.051.031-.082.091-.242.182-.495.273-.737a2 2 0 0 1 .192-.435c.162-.263.394-.374.707-.313 0 .05-.03.07-.05.1a1.3 1.3 0 0 0-.182.425c-.06.304.08.526.384.597.131.03.263 0 .384-.03.404-.132.657-.425.768-.83a.6.6 0 0 0 0-.292zm-.385.294a.68.68 0 0 1-.242.414.5.5 0 0 1-.233.111.24.24 0 0 1-.293-.242c0-.253.212-.526.465-.587.162-.04.354.071.303.303"/></svg>