<svg width="80" height="80" viewBox="0 0 80 80" fill="none" xmlns="http://www.w3.org/2000/svg">
<rect x="0.5" y="0.5" width="79" height="79" rx="7.5" fill="white"/>
<rect x="0.5" y="0.5" width="79" height="79" rx="7.5" stroke="#EEEEEE"/>
<path d="M32.2316 44.4433C32.2114 44.3827 32.2316 44.3523 32.2417 44.322C32.555 43.4529 32.8784 42.5737 33.1917 41.7045C33.1917 41.6843 33.2119 41.6641 33.2119 41.6439C33.222 41.5732 33.2726 41.5429 33.3433 41.5429C33.3837 41.5429 33.4343 41.5429 33.4848 41.5429C34.9502 41.5429 36.4156 41.5429 37.8809 41.5429C38.5783 41.5934 39.215 41.0477 39.3969 40.5019C39.4878 40.2392 39.5889 39.9764 39.6899 39.7136C39.7405 39.5823 39.7708 39.4408 39.7607 39.2993C39.7506 39.0062 39.5687 38.7738 39.2857 38.703C39.1947 38.6727 39.0937 38.6727 39.0027 38.6727C38.6187 38.6727 38.2347 38.6727 37.8506 38.6727C37.2139 38.6727 36.5874 38.6727 35.9507 38.6727H35.789C35.7587 38.6323 35.7789 38.602 35.789 38.5717C36.1124 37.6823 36.4358 36.793 36.7592 35.9036C36.7592 35.8834 36.7794 35.8632 36.7794 35.843C36.7895 35.8127 36.8198 35.8026 36.8501 35.7925C36.8906 35.7925 36.931 35.7925 36.9714 35.7925C38.0325 35.7925 39.0937 35.7925 40.1548 35.7925C40.6197 35.7925 41.0644 35.8733 41.4787 36.0856C42.1659 36.4191 42.5904 36.9648 42.7622 37.7025C42.8835 38.1876 42.8531 38.6727 42.7521 39.1578C42.7117 39.3397 42.6611 39.5115 42.6005 39.6833C42.4994 39.9764 42.3883 40.2594 42.2872 40.5525C42.1861 40.8253 42.0548 41.0881 41.9133 41.3407C41.8729 41.4014 41.8425 41.4721 41.8021 41.5226C41.8223 41.5631 41.8526 41.553 41.8729 41.553C41.9133 41.553 41.9537 41.553 41.9941 41.553C44.9552 41.553 47.9163 41.553 50.8774 41.553C50.9987 41.553 51.1199 41.553 51.2311 41.5327C51.7869 41.3812 52.1811 41.0477 52.3933 40.512C52.7066 39.6732 53.0098 38.8243 53.3231 37.9754C53.4039 37.7531 53.4848 37.5408 53.5656 37.3185C53.5858 37.268 53.6161 37.2275 53.6768 37.2377C53.7071 37.2377 53.7475 37.2377 53.7778 37.2377C54.6166 37.2377 55.4555 37.2377 56.2943 37.2377C56.3549 37.2377 56.4054 37.2275 56.4661 37.2478C56.4863 37.3084 56.4459 37.3589 56.4256 37.4095C56.2033 38.0158 55.981 38.6222 55.7586 39.2286C55.607 39.653 55.4453 40.0775 55.2938 40.5019C55.1725 40.8354 55.0209 41.1588 54.839 41.462C54.8289 41.4822 54.8087 41.5125 54.7986 41.5327C54.8188 41.5732 54.8491 41.5631 54.8693 41.5631C55.506 41.5631 56.1326 41.5631 56.7692 41.5631C57.0623 41.5631 57.315 41.4519 57.5474 41.2902C57.8405 41.0881 58.0527 40.8152 58.174 40.4817C58.5479 39.461 58.9218 38.4302 59.2958 37.4095C59.3665 37.2174 59.316 37.2377 59.5484 37.2377C60.3771 37.2377 61.2159 37.2377 62.0446 37.2377C62.1053 37.2377 62.1659 37.2275 62.2265 37.2478C62.2467 37.2983 62.2164 37.3387 62.1962 37.3791C61.8021 38.4504 61.4181 39.5216 61.0239 40.5929C60.9127 40.886 60.7713 41.1689 60.6197 41.4418C60.5995 41.4721 60.5893 41.5024 60.5792 41.5327C60.5792 41.5327 60.5792 41.5428 60.5792 41.553C60.6298 41.5732 60.6803 41.5631 60.7308 41.5631C61.3069 41.5631 61.8829 41.5631 62.459 41.5631C62.8834 41.5631 63.227 41.4014 63.5201 41.1285C63.7222 40.9466 63.8637 40.7141 63.9547 40.4615C64.3185 39.461 64.6823 38.4605 65.0461 37.46C65.1472 37.1972 65.0765 37.2377 65.3695 37.2377C66.1881 37.2377 67.0067 37.2377 67.8152 37.2377C67.8758 37.2377 67.9365 37.2377 67.9971 37.2377C68.0072 37.2983 67.987 37.3387 67.9668 37.3791C67.5828 38.4302 67.1987 39.4913 66.8147 40.5423C66.5317 41.3306 66.077 42.0077 65.4908 42.5939C64.8036 43.3013 64.0052 43.8268 63.0755 44.1603C62.5297 44.3523 61.9739 44.4534 61.3978 44.4534C51.7263 44.4534 42.0548 44.4534 32.3832 44.4534H32.2114L32.2316 44.4433Z" fill="#EF7620"/>
<path d="M15.9206 44.4331C14.6978 44.4331 13.4749 44.4331 12.2622 44.4331C12.2218 44.4331 12.1813 44.4331 12.1409 44.4331C11.9792 44.4331 11.9792 44.4331 12.0297 44.2916C12.343 43.4326 12.6563 42.5635 12.9696 41.7045C13.0403 41.5125 13.01 41.5428 13.2122 41.5428C15.6578 41.5428 18.1035 41.5428 20.5593 41.5428C20.6705 41.5428 20.7917 41.5428 20.9029 41.5226C21.4688 41.3811 21.863 41.0375 22.0752 40.5018C22.1763 40.2391 22.2672 39.9662 22.3683 39.6934C22.4087 39.5923 22.4289 39.4912 22.439 39.3801C22.4491 38.9859 22.1965 38.703 21.8023 38.6726C21.7215 38.6726 21.6406 38.6726 21.5598 38.6726C20.1146 38.6726 18.6593 38.6726 17.2142 38.6726C17.1535 38.6726 17.103 38.6726 17.0424 38.6726C17.0019 38.6726 16.9817 38.6524 17.0019 38.6019C17.0626 38.4402 17.1131 38.2785 17.1737 38.1168C17.4365 37.3892 17.6993 36.6716 17.962 35.944C17.962 35.9238 17.9822 35.9036 17.9822 35.8834C18.0024 35.8126 18.0429 35.7722 18.1136 35.7823C18.1439 35.7823 18.1742 35.7823 18.1945 35.7823C19.7205 35.7823 21.2566 35.7823 22.7826 35.7823C23.1566 35.7823 23.5204 35.8328 23.8741 35.9642C24.8342 36.328 25.3597 37.0253 25.481 38.036C25.5416 38.5312 25.4709 39.0162 25.3193 39.4912C25.1879 39.8955 25.0464 40.2896 24.8948 40.6838C24.6826 41.2295 24.3693 41.7247 23.9954 42.1694C23.2879 43.0183 22.439 43.6549 21.4183 44.0693C21.004 44.2411 20.5795 44.3523 20.1348 44.4129C19.963 44.4331 19.7912 44.4432 19.6194 44.4432C18.3764 44.4432 17.1434 44.4432 15.9004 44.4432L15.9206 44.4331Z" fill="#EF7620"/>
<path d="M34.5462 30.0117C34.5462 30.0724 34.526 30.1229 34.5058 30.1734C34.2532 30.8707 34.0005 31.5681 33.7479 32.2654C33.3942 33.2356 33.0404 34.2058 32.6867 35.1759C32.4846 35.7419 32.2724 36.3078 32.0703 36.8839C31.6963 37.9147 31.3123 38.9455 30.9384 39.9864C30.6857 40.6838 30.4331 41.3912 30.1703 42.0885C30.0086 42.5231 29.857 42.9576 29.6953 43.3922C29.5033 43.9076 29.1294 44.2411 28.6039 44.4028C28.4927 44.4331 28.3815 44.4533 28.2704 44.4533C27.664 44.4533 27.0475 44.4533 26.4412 44.4533C26.4108 44.4533 26.3704 44.4533 26.3401 44.4533C26.3199 44.4533 26.3098 44.4331 26.3199 44.4129C26.3199 44.3927 26.33 44.3826 26.3401 44.3624C26.5422 44.0289 26.6938 43.6752 26.8353 43.3113C27.1991 42.3108 27.5629 41.3103 27.9268 40.3098C28.2299 39.471 28.5432 38.6322 28.8464 37.7833C29.1698 36.9041 29.4831 36.0249 29.8065 35.1456C30.2208 34.0137 30.6251 32.8819 31.0394 31.7601C31.2314 31.2143 31.4336 30.6787 31.6256 30.133C31.6256 30.1027 31.6458 30.0825 31.6559 30.0521C31.666 30.0218 31.6963 30.0016 31.7368 30.0016C31.7671 30.0016 31.8075 30.0016 31.8378 30.0016C32.6867 30.0016 33.5356 30.0016 34.3845 30.0016C34.4351 30.0016 34.4856 29.9915 34.5361 30.0218L34.5462 30.0117Z" fill="#9D9D9C"/>
<path d="M54.536 48.1822C54.536 48.2125 54.536 48.2226 54.536 48.2226C54.4147 48.5662 54.3137 48.9199 54.1318 49.2332C54.1115 49.2635 54.1318 49.2938 54.1621 49.2938C54.2429 49.2938 54.3238 49.2938 54.4046 49.2938C54.5663 49.2938 54.6876 49.213 54.7684 49.0816C54.8291 48.9806 54.8594 48.8694 54.8998 48.7683C54.9605 48.6066 55.0211 48.4348 55.0817 48.2731C55.1019 48.2125 55.1424 48.1822 55.2131 48.1822C55.294 48.1822 55.3849 48.1721 55.4658 48.1923C55.486 48.2428 55.4658 48.2731 55.4455 48.3136C55.3647 48.5258 55.294 48.738 55.2131 48.9502C55.1323 49.1726 54.9807 49.3545 54.7887 49.496C54.627 49.6172 54.445 49.6678 54.2429 49.6678C53.2222 49.6678 52.2116 49.6678 51.1909 49.6678C50.9382 49.6678 50.6755 49.6678 50.4228 49.6678C50.3723 49.6678 50.3319 49.6678 50.2813 49.6678C50.251 49.6678 50.2308 49.6375 50.2409 49.6071C50.251 49.5667 50.2712 49.5162 50.2813 49.4758C50.3622 49.2635 50.3218 49.2938 50.5441 49.2938C50.8069 49.2938 51.0696 49.2938 51.3324 49.2938C51.3829 49.2938 51.4233 49.2938 51.4739 49.2938C51.5042 49.2938 51.5244 49.2736 51.5345 49.2433C51.585 49.1119 51.6153 48.9806 51.5951 48.8391C51.5648 48.6774 51.4637 48.5864 51.3122 48.546C51.2515 48.5258 51.1909 48.5258 51.1302 48.5157C50.9888 48.4955 50.9888 48.4955 51.0393 48.3742C51.11 48.1721 51.0797 48.1519 51.3425 48.1822C51.4435 48.1923 51.5446 48.1923 51.6457 48.2327C51.7568 48.2832 51.8478 48.354 51.9185 48.455C51.9589 48.5157 51.9792 48.5864 51.9893 48.6673C51.9893 48.8189 51.9893 48.9705 51.9488 49.122C51.9387 49.1625 51.9286 49.2029 51.9185 49.2332C51.9185 49.2433 51.9185 49.2635 51.9488 49.2736C51.9792 49.2736 52.0095 49.2736 52.0297 49.2736C52.2015 49.2736 52.3733 49.2736 52.5451 49.2736C52.7068 49.2736 52.8281 49.2029 52.9089 49.0614C52.9493 48.9907 52.9797 48.9199 53.01 48.8492C53.0706 48.6875 53.1313 48.5258 53.1818 48.3641C53.202 48.3136 53.2222 48.2731 53.2424 48.2226C53.2525 48.1822 53.2828 48.162 53.3132 48.162C53.4041 48.162 53.5052 48.1519 53.5961 48.162C53.6163 48.2024 53.5961 48.2327 53.5961 48.263C53.5153 48.4955 53.4344 48.7279 53.3435 48.9502C53.3132 49.0412 53.2626 49.1321 53.2121 49.213C53.202 49.2332 53.2121 49.2635 53.2323 49.2635C53.3334 49.2635 53.4344 49.2736 53.5355 49.2635C53.6669 49.2534 53.7679 49.1726 53.8387 49.0614C53.8791 48.9907 53.9094 48.9199 53.9397 48.8391C54.0105 48.6673 54.0711 48.4854 54.1318 48.3136C54.1419 48.2832 54.152 48.2529 54.1722 48.2125C54.1924 48.1721 54.2227 48.1519 54.2631 48.1519C54.3541 48.1519 54.445 48.1519 54.536 48.1519V48.1822Z" fill="#9D9D9C"/>
<path d="M34.9097 49.6781C34.5964 49.6781 34.2832 49.6781 33.9699 49.6781C33.8991 49.6781 33.8385 49.6781 33.7677 49.6579C33.5858 49.6175 33.4848 49.476 33.5151 49.2941C33.5252 49.2132 33.5454 49.1425 33.5757 49.0616C33.7475 48.5967 33.9092 48.142 34.081 47.6771C34.081 47.6569 34.1012 47.6367 34.1114 47.6164C34.1215 47.5861 34.1417 47.5659 34.172 47.5659C34.2528 47.5659 34.3337 47.5659 34.4145 47.5659C34.455 47.5659 34.4752 47.5962 34.4651 47.6367C34.455 47.6771 34.4347 47.7276 34.4246 47.768C34.2832 48.1521 34.1417 48.526 34.0002 48.91C33.98 48.9707 33.9598 49.0313 33.9497 49.0919C33.9395 49.2031 33.9699 49.2536 34.081 49.284C34.1215 49.2941 34.172 49.3042 34.2124 49.3042C34.3842 49.3042 34.556 49.3042 34.7278 49.3042C34.8087 49.3042 34.8289 49.284 34.8289 49.2031C34.8592 48.718 35.314 48.2733 35.7283 48.1925C35.8799 48.1622 36.0214 48.1521 36.1629 48.2228C36.2943 48.2835 36.3751 48.3946 36.3953 48.5361C36.3953 48.5664 36.3953 48.5967 36.365 48.6068C36.2741 48.6473 36.1831 48.6776 36.0921 48.718C36.0719 48.718 36.0517 48.718 36.0315 48.6978C36.0315 48.6776 36.0214 48.6675 36.0113 48.6473C35.9507 48.526 35.8496 48.4654 35.7182 48.4957C35.6374 48.5159 35.5666 48.5361 35.4959 48.5866C35.3443 48.7079 35.2634 48.8595 35.2129 49.0414C35.2028 49.0818 35.2129 49.1324 35.2129 49.1728C35.2129 49.2637 35.2432 49.2941 35.3443 49.2941C35.5565 49.2941 35.7789 49.2941 35.9911 49.2941C36.1528 49.2941 36.1528 49.2941 36.1023 49.4558C36.082 49.5063 36.0618 49.5467 36.0517 49.5972C36.0315 49.6478 36.0012 49.668 35.9507 49.668C35.8193 49.668 35.6879 49.668 35.5565 49.668C35.3443 49.668 35.1321 49.668 34.9198 49.668L34.9097 49.6781Z" fill="#9D9D9C"/>
<path d="M31.8882 49.6783C31.7164 49.6783 31.5345 49.6783 31.3627 49.6783C31.2414 49.6783 31.1201 49.6581 31.009 49.6379C30.9382 49.6379 30.8776 49.5974 30.817 49.5671C30.6452 49.4863 30.5643 49.3549 30.5542 49.1629C30.5542 49.0416 30.5744 48.9203 30.6148 48.8092C30.6755 48.6272 30.7462 48.4453 30.8069 48.2634C30.8271 48.2028 30.8675 48.1725 30.9382 48.1826C30.9989 48.1826 31.0595 48.1826 31.1302 48.1826C31.1707 48.1826 31.1909 48.2129 31.1808 48.2533C31.1505 48.3544 31.11 48.4453 31.0797 48.5464C31.0393 48.6677 30.9888 48.7889 30.9584 48.9203C30.9281 49.082 30.9888 49.2033 31.1505 49.2538C31.2313 49.2841 31.3122 49.2942 31.4031 49.2942C31.7265 49.2942 32.0499 49.2942 32.3733 49.2942C32.4541 49.2942 32.535 49.274 32.6057 49.2639C32.7068 49.2437 32.7876 49.1629 32.8483 49.082C32.8988 49.0214 32.9291 48.9405 32.9493 48.8698C33.0201 48.6778 33.0908 48.4858 33.1616 48.2937C33.202 48.1927 33.202 48.1927 33.3031 48.1826C33.5658 48.1826 33.5658 48.1826 33.4749 48.4251C33.3839 48.6778 33.293 48.9304 33.1919 49.173C33.1616 49.2639 33.111 49.3448 33.0403 49.4256C32.8887 49.5974 32.6967 49.6682 32.4845 49.6682C32.2823 49.6682 32.0903 49.6682 31.8882 49.6682V49.6783Z" fill="#9D9D9C"/>
<path d="M47.6943 49.6581C47.6943 49.5469 47.7651 49.456 47.7954 49.3549C47.8055 49.3246 47.8358 49.3044 47.8762 49.3044C47.9167 49.3044 47.9571 49.3044 47.9975 49.3044C48.2704 49.3044 48.5432 49.3044 48.8161 49.3044C48.8565 49.3044 48.897 49.3044 48.9374 49.3044C48.9677 49.3044 48.9879 49.2842 49.0081 49.2539C49.0486 49.1427 49.0789 49.0214 49.0789 48.9002C49.0688 48.7182 48.9576 48.597 48.7757 48.5565C48.6948 48.5363 48.6039 48.5363 48.523 48.5161C48.4826 48.5161 48.4725 48.4858 48.4826 48.4555C48.5129 48.3847 48.5331 48.3039 48.5635 48.2331C48.5736 48.2028 48.6039 48.1826 48.6443 48.1826C48.806 48.1927 48.9677 48.1826 49.1193 48.2433C49.3416 48.3443 49.473 48.506 49.473 48.7587C49.473 48.89 49.4629 49.0214 49.4225 49.1427C49.3719 49.2943 49.3113 49.4459 49.2608 49.5975C49.2406 49.648 49.2103 49.6682 49.1597 49.6682C49.1395 49.6682 49.1092 49.6682 49.089 49.6682C48.6645 49.6682 48.2401 49.6682 47.8257 49.6682C47.7853 49.6682 47.7449 49.6783 47.7044 49.648L47.6943 49.6581Z" fill="#9D9D9C"/>
<path d="M50.6756 47.5762C50.6553 47.6873 50.6048 47.7884 50.5745 47.8895C50.3825 48.4251 50.1804 48.9607 49.9883 49.4963C49.9075 49.7187 49.9176 49.6782 49.7054 49.6883C49.6751 49.6883 49.6447 49.6883 49.6245 49.6883C49.5841 49.6883 49.5639 49.6681 49.5841 49.6176C49.5942 49.5772 49.6043 49.5469 49.6245 49.5064C49.8469 48.9001 50.0692 48.3038 50.2814 47.6974C50.2814 47.6772 50.3016 47.657 50.3016 47.6368C50.3117 47.6065 50.3421 47.5762 50.3825 47.5863C50.4734 47.5863 50.5745 47.5762 50.6756 47.5964V47.5762Z" fill="#9D9D9C"/>
<path d="M64.2784 47.5356C64.238 47.6569 64.1976 47.7479 64.1673 47.8388C64.1471 47.8894 64.1167 47.9096 64.0662 47.9096C63.763 47.9096 63.763 47.95 63.8742 47.6468C63.8742 47.6266 63.8944 47.6064 63.9045 47.5862C63.9146 47.5559 63.9348 47.5356 63.9651 47.5356C64.0561 47.5356 64.1572 47.5356 64.2784 47.5356Z" fill="#A0A09F"/>
<path d="M39.7407 47.8893C39.7609 47.7781 39.8014 47.6771 39.8418 47.576C39.8519 47.5457 39.8822 47.5255 39.9226 47.5255C40.0136 47.5255 40.1045 47.5154 40.1955 47.5356C40.1753 47.6467 40.1349 47.7478 40.0944 47.8388C40.0843 47.8691 40.054 47.8893 40.0136 47.8893C39.9226 47.8893 39.8317 47.8994 39.7407 47.8792V47.8893Z" fill="#A0A09F"/>
<path d="M62.1965 47.5357C62.2369 47.5357 62.2773 47.5357 62.3178 47.5357C62.338 47.5357 62.3481 47.5559 62.3481 47.566C62.3177 47.6671 62.2874 47.758 62.247 47.8591C62.2369 47.8894 62.2066 47.8995 62.1763 47.8995C62.0954 47.8995 62.0146 47.8995 61.9337 47.8995C61.8933 47.8995 61.8832 47.8692 61.8933 47.8288C61.9034 47.7883 61.9135 47.7479 61.9337 47.7176C62.0247 47.5054 61.964 47.5357 62.1965 47.5357Z" fill="#A0A09F"/>
<path d="M32.1712 47.839C32.1611 47.9501 32.1207 48.0411 32.0803 48.132C32.0702 48.1624 32.05 48.1826 32.0196 48.1826C31.9287 48.1826 31.8276 48.2028 31.7266 48.1725C31.7367 48.0714 31.7872 47.9703 31.8175 47.8794C31.8276 47.8491 31.8579 47.839 31.8782 47.839C31.9691 47.839 32.0702 47.8289 32.1712 47.839Z" fill="#9F9E9D"/>
<path d="M32.7874 47.8389C32.7874 47.95 32.7369 48.041 32.6965 48.1319C32.6864 48.1623 32.6561 48.1825 32.6156 48.1825C32.5247 48.1825 32.4337 48.1825 32.3428 48.1825C32.363 48.0713 32.4034 47.9702 32.4438 47.8692C32.4539 47.849 32.4742 47.8389 32.5045 47.8389C32.5954 47.8389 32.6965 47.8389 32.7975 47.8389H32.7874Z" fill="#9F9E9D"/>
<path d="M47.2796 47.5659C47.2088 47.5659 47.128 47.5659 47.0572 47.5659C47.0168 47.5659 46.9865 47.5861 46.9764 47.6164C46.9562 47.6569 46.9461 47.6872 46.9259 47.7276C46.8248 48.0207 46.7136 48.3037 46.6126 48.5967C46.5519 48.7584 46.4913 48.9302 46.4307 49.0919C46.3801 49.2334 46.269 49.2941 46.1275 49.3042C45.8748 49.3042 45.6222 49.3042 45.3695 49.3042C45.3291 49.3042 45.319 49.284 45.3392 49.2334C45.3796 49.1627 45.4302 49.0818 45.4605 49.0111C45.6222 48.5765 45.7839 48.1319 45.9456 47.6973C45.9456 47.6771 45.9557 47.6569 45.9557 47.6266C45.9557 47.5962 45.9456 47.576 45.9254 47.576C45.8445 47.576 45.7535 47.576 45.6727 47.576C45.6525 47.576 45.6323 47.5861 45.6222 47.6164C45.6121 47.6468 45.5919 47.6771 45.5817 47.7074C45.4302 48.1116 45.2887 48.5058 45.1371 48.91C45.1169 48.9606 45.0967 49.0212 45.0764 49.0717C45.0057 49.2334 44.8743 49.3143 44.7025 49.3143C44.5812 49.3143 44.4499 49.3143 44.3286 49.3143C44.3084 49.3143 44.2781 49.3143 44.2578 49.3143C44.2376 49.3143 44.2174 49.284 44.2275 49.2637C44.2275 49.2334 44.2477 49.2031 44.2477 49.1627C44.268 49.0818 44.2882 49.001 44.2882 48.91C44.2781 48.6877 44.1366 48.5058 43.9243 48.4755C43.7728 48.4553 43.6111 48.4553 43.4696 48.5058C43.318 48.5664 43.1765 48.6473 43.0552 48.7685C42.9238 48.8999 42.8228 49.0515 42.7621 49.2233C42.7419 49.284 42.7116 49.3143 42.6409 49.3143C42.4489 49.3143 42.2669 49.3143 42.0749 49.3143C42.0143 49.3143 41.9941 49.2941 42.0143 49.2233C42.0648 49.0616 42.085 48.8999 42.0749 48.7382C42.0749 48.5462 41.9739 48.4047 41.8122 48.3037C41.6404 48.2026 41.4382 48.2026 41.2462 48.2026C41.2159 48.2026 41.1957 48.2228 41.1755 48.2531C41.1452 48.3441 41.0946 48.4249 41.0845 48.526C41.1957 48.5462 41.2968 48.5563 41.3978 48.5765C41.5696 48.617 41.6808 48.7483 41.6909 48.9302C41.6909 49.0414 41.6707 49.1425 41.6303 49.2435C41.61 49.2941 41.5797 49.3143 41.5292 49.3143C41.4888 49.3143 41.4483 49.3143 41.4079 49.3143C41.1654 49.3143 40.9329 49.3143 40.6904 49.3143C40.5017 49.3143 40.3838 49.4052 40.3367 49.5871C40.3367 49.5871 40.3367 49.5972 40.3367 49.6074C40.3165 49.668 40.3367 49.6983 40.3973 49.6983C40.4478 49.6983 40.4883 49.6983 40.5388 49.6983C41.2058 49.6983 41.8728 49.6983 42.5398 49.6983C42.5903 49.6983 42.6308 49.6983 42.6813 49.6983C42.7318 49.6983 42.7621 49.7185 42.7925 49.7589C42.8834 49.9105 43.0249 49.9611 43.1967 49.9712C43.419 49.9813 43.6212 49.9206 43.793 49.7893C43.894 49.7084 44.0052 49.6882 44.1265 49.6882C44.7328 49.6882 45.3493 49.6882 45.9557 49.6882C46.0062 49.6882 46.0466 49.6882 46.0972 49.6882C46.3902 49.668 46.6227 49.5366 46.7541 49.2637C46.7844 49.193 46.8147 49.1324 46.845 49.0616C47.0067 48.6372 47.1583 48.2026 47.32 47.7781C47.3402 47.7377 47.3503 47.6872 47.3604 47.6468C47.3705 47.6063 47.3604 47.576 47.3099 47.576L47.2796 47.5659ZM43.4595 49.5972C43.4595 49.5972 43.4494 49.5972 43.4393 49.5972C43.2371 49.6579 43.0956 49.5467 43.1058 49.3345C43.1058 49.1223 43.3281 48.7888 43.5706 48.7685C43.6212 48.7685 43.6616 48.7685 43.702 48.7685C43.8031 48.7989 43.8637 48.8696 43.8637 48.9808C43.8637 49.2233 43.6818 49.4962 43.4494 49.577L43.4595 49.5972Z" fill="#9D9D9C"/>
<path d="M64.0257 48.2029C63.9954 48.1827 63.9752 48.1827 63.9448 48.1827C63.6518 48.1827 63.7023 48.1423 63.6012 48.4253C63.5204 48.6375 63.4395 48.8497 63.3587 49.062C63.2981 49.2237 63.1768 49.2944 63.0151 49.2944C62.9747 49.2944 62.9342 49.2944 62.8938 49.2944C62.7826 49.2944 62.6816 49.2944 62.5704 49.2944C62.4694 49.2944 62.4491 49.2641 62.4795 49.163C62.4896 49.1226 62.5098 49.0721 62.5199 49.0316C62.5401 48.9104 62.5805 48.7992 62.5704 48.6779C62.5603 48.4051 62.439 48.2333 62.1662 48.1928C61.9438 48.1524 61.7417 48.1928 61.5497 48.2737C61.388 48.3444 61.2364 48.4253 61.0949 48.5364C61.0343 48.587 60.9737 48.6274 60.9029 48.6779C60.8928 48.6173 60.913 48.5769 60.9332 48.5364C61.0444 48.2636 61.1556 48.0008 61.2566 47.728C61.2768 47.6774 61.3072 47.6269 61.297 47.5663C61.2162 47.546 61.1353 47.5663 61.0646 47.5562C61.004 47.5562 60.9635 47.5764 60.9332 47.6471C60.8726 47.829 60.8018 48.0008 60.7412 48.1726C60.6199 48.5162 60.4886 48.8598 60.3673 49.2034C60.3471 49.2641 60.3168 49.2944 60.246 49.2944C60.0136 49.2944 59.7912 49.2944 59.5588 49.2944C59.5386 49.2944 59.5083 49.2944 59.4881 49.2944C59.3061 49.2641 59.2657 49.1933 59.3163 49.0215C59.3466 48.9104 59.387 48.8093 59.4274 48.6981C59.5588 48.3444 59.6902 47.9907 59.8115 47.637C59.8317 47.5865 59.8115 47.5663 59.771 47.5663C59.7003 47.5663 59.6194 47.5663 59.5487 47.5663C59.4982 47.5663 59.4577 47.5865 59.4476 47.637C59.4173 47.7077 59.3971 47.7886 59.3668 47.8593C59.2253 48.2535 59.0737 48.6476 58.9322 49.0519C58.8918 49.1529 58.8716 49.2641 58.8716 49.3651C58.8716 49.5268 58.9524 49.6178 59.104 49.6582C59.1849 49.6784 59.2657 49.6784 59.3466 49.6784C60.5189 49.6784 61.7013 49.6784 62.8736 49.6784C62.9039 49.6784 62.9443 49.6784 62.9747 49.6784C63.288 49.6582 63.5305 49.5167 63.672 49.2237C63.6922 49.1731 63.7225 49.1327 63.7326 49.0822C63.8236 48.8295 63.9145 48.5769 64.0055 48.3242C64.0156 48.2838 64.0459 48.2434 64.0358 48.1928L64.0257 48.2029ZM62.0853 49.2338C62.0651 49.2843 62.0247 49.3045 61.9641 49.3045C61.7518 49.3045 61.5396 49.3045 61.3274 49.3045C61.1151 49.3045 60.9029 49.3045 60.6907 49.3045C60.6705 49.3045 60.6604 49.3045 60.6503 49.2843C60.6503 49.2641 60.6503 49.254 60.6604 49.2338C60.8018 49.0721 60.9635 48.9205 61.1354 48.7992C61.297 48.688 61.4587 48.5971 61.6508 48.5364C61.7316 48.5162 61.8226 48.5061 61.9034 48.5162C62.0449 48.5263 62.1359 48.6274 62.1561 48.779C62.1763 48.9407 62.1359 49.0822 62.0752 49.2237L62.0853 49.2338Z" fill="#9D9D9C"/>
<path d="M40.3065 48.5566C40.2863 48.3646 40.1448 48.2029 39.9629 48.1726C39.7709 48.1423 39.5788 48.1524 39.3969 48.2433C39.0028 48.4455 38.7602 48.7486 38.7299 49.2034C38.7299 49.2843 38.7198 49.2944 38.639 49.2944C38.4065 49.2944 38.1842 49.2944 37.9518 49.2944C37.9416 49.2944 37.9315 49.2944 37.9214 49.2944C37.8911 49.2944 37.8709 49.264 37.881 49.2337C37.9214 49.1226 37.9619 49.0215 38.0023 48.9103C38.0427 48.7992 38.0629 48.6779 38.0528 48.5566C38.0427 48.3949 37.9619 48.2939 37.8204 48.2231C37.7294 48.1827 37.6385 48.1625 37.5374 48.1726C37.0927 48.2332 36.7693 48.4758 36.5975 48.9002C36.5571 49.0013 36.5369 49.1125 36.547 49.2135C36.5571 49.4359 36.6885 49.5874 36.9007 49.638C37.022 49.6683 37.1433 49.6582 37.2544 49.6582C37.2848 49.6582 37.3252 49.638 37.3454 49.6885C37.2645 49.7997 37.1534 49.8704 37.022 49.8906C36.9513 49.9007 36.9108 49.9311 36.8906 50.0018C36.8704 50.0523 36.8401 50.1029 36.8502 50.1736C37.0119 50.2039 37.1534 50.1635 37.2949 50.0927C37.4566 50.022 37.5879 49.9108 37.6688 49.7592C37.7193 49.6784 37.7698 49.6481 37.8608 49.6582C37.8911 49.6582 37.9315 49.6582 37.9619 49.6582C38.3661 49.6582 38.7704 49.6582 39.1746 49.6582C39.2959 49.6582 39.4171 49.6481 39.5283 49.6077C39.9123 49.4864 40.1448 49.2135 40.2762 48.8396C40.3065 48.7385 40.3166 48.6375 40.3065 48.5364V48.5566ZM37.6587 48.8396C37.6486 48.8901 37.6183 48.9508 37.598 49.0013C37.5879 49.0417 37.5778 49.072 37.5576 49.1125C37.4768 49.3247 37.5172 49.3045 37.2848 49.3045C37.2241 49.3045 37.1635 49.3045 37.1028 49.2843C37.0119 49.2539 36.9715 49.2034 36.9513 49.1125C36.9411 49.0518 36.9411 48.9912 36.9513 48.9305C37.022 48.7284 37.1433 48.5869 37.3555 48.5364C37.5677 48.4859 37.6991 48.6274 37.6486 48.8396H37.6587ZM39.9022 48.7689C39.9022 48.9912 39.7001 49.2742 39.4576 49.3348C39.3161 49.3651 39.1342 49.2742 39.1443 49.0922C39.1443 48.8396 39.3464 48.5768 39.5889 48.5061C39.6496 48.496 39.7001 48.496 39.7607 48.5061C39.8517 48.5364 39.9022 48.597 39.9123 48.688C39.9123 48.7082 39.9123 48.7385 39.9123 48.7587L39.9022 48.7689Z" fill="#9D9D9C"/>
<path d="M58.6592 48.5464C58.639 48.4151 58.5683 48.314 58.447 48.2534C58.346 48.2028 58.2348 48.1826 58.1135 48.1826C57.8305 48.1826 57.5577 48.1826 57.2747 48.1826C56.9816 48.1826 56.729 48.2938 56.5167 48.4959C56.3652 48.6374 56.254 48.8092 56.1832 49.0113C56.0721 49.3246 55.9508 49.6278 55.8396 49.9411C55.8093 50.0219 55.7689 50.1028 55.7588 50.2038C55.87 50.2038 55.9609 50.2038 56.0519 50.2038C56.0923 50.2038 56.1125 50.1836 56.1327 50.1533C56.1428 50.123 56.1529 50.1028 56.163 50.0725C56.254 49.8299 56.3449 49.5773 56.4359 49.3347C56.4864 49.1831 56.5471 49.0315 56.6279 48.9002C56.7896 48.6374 57.0221 48.5262 57.3353 48.5869C57.3353 48.6374 57.305 48.6576 57.2848 48.6879C57.204 48.8193 57.1332 48.9608 57.1029 49.1124C57.0423 49.4156 57.1838 49.6379 57.4869 49.7086C57.6183 49.739 57.7497 49.7086 57.871 49.6783C58.2752 49.5469 58.5279 49.2539 58.639 48.8496C58.6693 48.7587 58.6592 48.6576 58.639 48.5565L58.6592 48.5464ZM58.2752 48.8395C58.2449 49.0113 58.164 49.1427 58.0327 49.2539C57.9619 49.3145 57.8912 49.3448 57.8002 49.365C57.6385 49.3953 57.5071 49.2842 57.5071 49.1225C57.5071 48.8698 57.7194 48.597 57.972 48.5363C58.1337 48.4959 58.3257 48.6071 58.2752 48.8395Z" fill="#9D9D9C"/>
</svg>
