<svg xmlns="http://www.w3.org/2000/svg" width="80" height="80" fill="none" viewBox="0 0 80 80"><rect width="79" height="79" x=".5" y=".5" fill="#fff" rx="7.5"/><rect width="79" height="79" x=".5" y=".5" stroke="#eee" rx="7.5"/><path fill="#fefefe" d="M39.521 60a9.6 9.6 0 0 1-1.58-1.32c-3.097-3.135-6.202-6.262-9.303-9.39-2.523-2.119-4.5-4.568-4.905-7.987-.007-.054-.088-.102-.132-.153.427-.041.406.31.446.554.47 2.756 1.972 4.853 3.905 6.672q0 .004.005.007l.308.283q.23.207.465.41c3.021 3.225 6.24 6.256 9.308 9.434.486.505 1.282.706 1.483 1.49"/><path fill="#fe8065" d="M40.586 31.105c1.117-.898 2.486-1.173 4.105-1.614-1.055-.997-2.01-1.884-2.945-2.79-.849-.822-1.678-1.662-2.513-2.498-1.705-1.708-1.628-2.83.288-4.203h1.257c.636.415 1.188.924 1.721 1.464 3.119 3.158 6.247 6.308 9.372 9.46 2.52 2.692 2.58 7.512 1.096 10.697-.164.352-.328.785-.86.754-.01 0-.024-.05-.026-.077-.004-.034.003-.07.005-.104 1.006-3.4-.292-6.613-3.773-8.158-1.284-2.254-3.712-3.39-6.228-2.95-.488.085-.997.383-1.5.02"/><path fill="#3ddcbf" d="M40.778 60h-1.257a9.6 9.6 0 0 1-1.58-1.32c-3.097-3.135-6.202-6.262-9.304-9.39q-.373-.449-.68-.907-.005-.003-.005-.007c-2.089-3.104-1.936-6.471-.557-9.965.136-.348.256-.82.81-.778.011 0 .024.052.026.08.002.035-.005.069-.007.104-.89 3.782.241 6.341 3.564 8.06q.001.003.005.005c.97 1.34 2.101 2.463 3.773 2.903.886.23 1.758.31 2.667.122.482-.1.998-.382 1.495-.009-1.122.89-2.47 1.212-3.892 1.547.438.713 1.082 1.189 1.627 1.746 1.215 1.243 2.449 2.468 3.68 3.694 1.615 1.604 1.502 2.897-.365 4.115"/><path fill="#66edcf" d="M35.62 29.663c-1.706 1.692-3.38 3.42-5.107 5.09a11.5 11.5 0 0 0-2.288 3.064c-1.109 1.094-1.3 2.543-1.473 3.97-.302 2.487.31 4.76 1.513 6.878q.177.315.372.625c-2.522-2.119-4.5-4.568-4.905-7.987-.006-.054-.088-.103-.132-.153v-2.3c.381-.355.2-.856.316-1.281.506-1.847 1.34-3.514 2.678-4.884a302 302 0 0 1 5.912-5.908c1.406-1.36 3.359-.86 3.738.906.168.771-.059 1.421-.624 1.98"/><path fill="#fe9a85" d="M52.087 42.194c.974-.565.998-1.62 1.242-2.528.843-3.124.133-6.012-1.458-8.742 2.892 2.347 4.791 5.243 4.797 9.085.005 2.79-.983 5.259-2.922 7.279-1.931 2.013-3.931 3.961-5.914 5.927-.957.949-2.357 1.037-3.184.233-.926-.899-.868-2.16.186-3.231a342 342 0 0 1 4.739-4.734c1.001-.977 1.938-1.992 2.514-3.289"/><path fill="#fe6c59" d="M40.586 31.105c1.345-.218 2.656-.652 4.062-.222 1.366.418 2.512 1.118 3.427 2.194.213.25.611.53.238.958-2.82-.837-5.173-.112-7.187 2.019-1.722 1.82-3.535 3.556-5.31 5.327-.642.64-1.398.92-2.284.621-.79-.265-1.272-.827-1.41-1.66-.102-.617.007-1.228.436-1.658 2.409-2.415 4.699-4.953 7.314-7.155.21-.176.475-.284.714-.424"/><path fill="#2bc5b0" d="M39.729 48.899c-1.59.341-3.18.706-4.764-.012-1.405-.636-2.722-1.368-3.175-3.01 2.84.995 5.237.313 7.306-1.834 1.74-1.806 3.537-3.557 5.321-5.32 1.012-.999 2.277-1.078 3.156-.232.941.907.893 2.132-.173 3.21a634 634 0 0 1-5.913 5.91c-.518.51-1.069 1-1.758 1.288"/></svg>