<svg xmlns="http://www.w3.org/2000/svg" width="80" height="80" fill="none" viewBox="0 0 80 80"><g clip-path="url(#a)"><path fill="#4f008c" d="M0 0h80v40H0z"/><path fill="#00c48c" d="M0 40h80v40H0z"/><path fill="#fff" d="M22.307 35.486a8.03 8.03 0 0 0 5.624-2.021 5.2 5.2 0 0 0 1.552-3.773 4.92 4.92 0 0 0-1.44-3.526 7.44 7.44 0 0 0-3.959-1.931l-2.778-.539c-1.124-.225-1.8-.797-1.8-1.583 0-1.045 1.013-1.763 2.633-1.763a3.43 3.43 0 0 1 2.451.898c.375.407.61.922.675 1.471l4.004-.898a4.87 4.87 0 0 0-1.484-2.987 7.98 7.98 0 0 0-5.624-2.111 7.77 7.77 0 0 0-5.297 1.864 5.25 5.25 0 0 0-1.687 3.885 4.5 4.5 0 0 0 1.293 3.301 7.8 7.8 0 0 0 3.768 1.92l2.733.652c1.372.314 1.98.82 1.98 1.718 0 1.123-1.002 1.763-2.655 1.763a3.74 3.74 0 0 1-2.778-1.045 2.48 2.48 0 0 1-.72-1.65l-4.105.898a5.12 5.12 0 0 0 1.552 3.167 8.3 8.3 0 0 0 6.051 2.245zm30.355-.045a8.54 8.54 0 0 0 6.118-2.347 7.86 7.86 0 0 0 2.171-3.626l-4.218-1.404a4.1 4.1 0 0 1-1.124 1.875 4.14 4.14 0 0 1-2.936 1.123 4.5 4.5 0 0 1-3.205-1.291 5.25 5.25 0 0 1-1.293-3.672 5.2 5.2 0 0 1 1.327-3.706 4.5 4.5 0 0 1 3.171-1.257 3.86 3.86 0 0 1 2.846 1.123 4.6 4.6 0 0 1 1.125 1.909l4.285-1.438a8.2 8.2 0 0 0-2.014-3.56 8.78 8.78 0 0 0-6.31-2.402 9.15 9.15 0 0 0-6.51 2.616 9.816 9.816 0 0 0 .066 13.475 9.3 9.3 0 0 0 6.512 2.627zm-14.53.045a6.1 6.1 0 0 0 3.778-1.123v-3.84a4.12 4.12 0 0 1-2.406.719 2.017 2.017 0 0 1-2.294-1.4 2 2 0 0 1-.046-.97V12.4H32.43v4.862h9.504v4.593H32.43v8.163a5.5 5.5 0 0 0 1.406 3.919 5.92 5.92 0 0 0 4.319 1.55m-20.413 32.27V47.112h3.473v1.633a5.6 5.6 0 0 1 2.038-1.561 5.6 5.6 0 0 1 2.516-.485c3.995 0 6.87 3.21 6.87 7.808s-2.782 7.9-6.87 7.9a5.58 5.58 0 0 1-4.554-2.082v7.507zm3.473-15.015v3.754a4.33 4.33 0 0 0 1.58 1.932c.703.474 1.53.729 2.377.733 2.315 0 3.845-1.745 3.845-4.56 0-2.816-1.53-4.524-3.845-4.524a4.2 4.2 0 0 0-2.387.707 4.2 4.2 0 0 0-1.57 1.94m13.781 4.323c-.054-1.126.371-2.225 1.183-3.06.811-.836 1.944-1.339 3.151-1.4l6.227-.735v-.734a1.1 1.1 0 0 0-.045-.522 1.14 1.14 0 0 0-.287-.45 1.25 1.25 0 0 0-.47-.286 1.3 1.3 0 0 0-.558-.064h-7.881v-3.102h7.881c3.153 0 4.906 1.432 4.906 4.002v10.48h-3.546v-1.835a5.95 5.95 0 0 1-2.276 1.7 6.4 6.4 0 0 1-2.867.503 5.3 5.3 0 0 1-2.03-.2 5 5 0 0 1-1.768-.952 4.6 4.6 0 0 1-1.199-1.54 4.3 4.3 0 0 1-.422-1.86zm6.324 1.78a4.85 4.85 0 0 0 2.501-.63 4.4 4.4 0 0 0 1.736-1.793V54.57l-4.749.624c-1.32.165-1.97.808-1.97 1.836 0 1.027.926 1.835 2.561 1.835m10.655 5.691h2.324c.36.04.72-.074 1.009-.32.288-.247.483-.608.546-1.01l.428-1.329-4.905-15.203h3.315l3.042 10.579 2.922-10.579H64l-5.383 17.458c-.735 2.408-1.71 3.68-4.068 3.68h-2.495z"/></g><defs><clipPath id="a"><rect width="80" height="80" fill="#fff" rx="8"/></clipPath></defs></svg>