<svg xmlns="http://www.w3.org/2000/svg" width="80" height="80" fill="none" viewBox="0 0 80 80"><rect width="80" height="80" fill="#0173ba" rx="8"/><path fill="#fff" d="m39.064 52.552-3.375-.271-2.93-.358-.978-.168-2.131-.355-1.332-.283-3.439-.87-.646-.207-.355-.138-1.865-.62-1.599-.655-.977-.445-.678-.342-.21.12.133-.146-1.681-.93-1.471-1.023-.888-.752-.8-.78-.938-1.24-.635-1.304-.24-1.007-.005-1.777.241-.889.455-1.016.79-1.205 1.043-1.07 1.065-.901 1.898-1.279 2.81-1.402 1.202-.452.573-.26 2.132-.711 1.865-.534 2.575-.613 1.243-.277 2.22-.37 1.777-.26 3.374-.35 3.273-.186h5.915l3.956.269 1.598.176.8.083 2.397.352 2.268.371.24.092.105-.53.627-.627.695-.209.783.118.677.558.245.586v.749l-.353.723-.58.39-.907.118-.813-.36-.456-.723-.002-.403-.138-.217-3.99-.523-3.551-.29-5.151-.106-3.908.21-1.954.181-3.374.43-2.575.456-2.043.452-1.954.505-2.042.63-.977.374-.444.143-.533.224-.753.33h-.085l-1.56.77-1.243.682-1.244.838-1.066.865-.417.356-.914 1.086-.356.486-.557 1.016-.397 1.584.114 1.227.454 1.353.595.952.67.827 1.253 1.2 1.066.741.797.547 1.067.586 1.788.861 1.41.57.532.228 2.22.704 1.244.382 2.216.548 1.78.342 2.575.437 2.842.362 3.553.266 4.351.114 4.618-.212 2.664-.252 1.599-.188 2.753-.441 2.575-.533.977-.242 2.457-.643.563-.249.921-.285.322.009-1.332.53-.356.154-1.687.568-.355.141-1.332.365-1.687.446-2.487.554-2.405.424-2.035.269-1.333.18-3.552.294-7.904.04zm-1.133-6.896-.11-.68.088-9.856.506-.435 11.305.05 1.288.684.708.805.468.989.013 1.521-.556 1.155-.366.393v.104l.366.392.556 1.155v1.511l-.57 1.185-.877.79-.95.465-1.234.178-10.124.003zm11.345-1.65.557-.28.478-.726-.075-.827-.427-.534-.71-.417-8.951-.057-.15.235-.002 2.8h8.677zm.576-4.976.375-.526.095-.709-.318-.705h-.138l-.243-.243-.56-.29h-9.042l-.018 2.783.092.15h8.836zm-27.484 6.563-1.07-1.083-.343-.977-.061-8.074.21-.509.37-.26h1.13l.519.52.004 7.523.33.73.504.466.792.27 6.673-.002.694-.242.593-.473.312-.571.089-7.845.444-.37 1.107-.005.58.518.054 7.246-.176 1.44-.411.793-.812.8-.875.444-9.68.038zm34.258.146-.623-.386-.748-.811-.384-.831-.05-8.494.525-.526h1.177l.41.444.114.825v6.915l.284.55.423.424.817.35h8.945l.484.417-.032.872-.102.321-.44.168-10.157-.008z"/><path fill="#fff" d="m37.998 52.468-3.703-.363-2.514-.357-1.51-.27-2.22-.448-2.486-.63-2.575-.794-2.536-.974-2.793-1.393-1.544-.977-1.68-1.352-1.052-1.2-.54-.8-.466-.922-.378-1.382.086-1.872.442-1.19.78-1.387 1.954-1.968 2.487-1.643 2.842-1.392 2.842-1.064 2.753-.811 1.776-.443 3.108-.621 3.197-.468 3.286-.334 3.819-.211 6.571.1 3.02.273 2.398.28 3.019.45 1.21.254h.153l.195-.593.484-.452.408-.21.862-.006.656.311.443.67.094.704-.213.647-.444.528-.917.262-.697-.16-.447-.335-.335-.448-.097-.728-1.177-.19-2.043-.257-2.93-.273-3.02-.18h-4.707l-2.93.177-2.931.274-3.108.441-2.398.448-3.593.888-2.624.864-1.864.739-2.487 1.215-2.156 1.432-1.528 1.448-.82 1.093-.605 1.2-.283 1.2.098 1.51.343.986.399.791.87 1.181 1.198 1.132 1.15.886 1.867 1.125 1.857.897 2.139.846 2.22.721 2.31.62 2.486.537 2.664.446 2.842.35 2.131.192 3.375.174H48.3l3.463-.175 2.93-.278 3.718-.527 2.677-.54 2.131-.54 1.954-.587.8-.281.177.003-.28.164-2.207.822-3.238.958-3.6.796-2.753.449-2.93.353-2.132.183-3.375.178-4.973-.025zM22.812 45.74l-.545-.285-.802-.791-.391-.832-.166-1.277-.004-6.842.182-.659.462-.363h.95l.58.518.09 7.79.31.569.577.429.604.202h6.969l.947-.495.494-.947v-7.364l.258-.5.544-.225.92.089.416.484-.05 8.47-.488.993-.755.747-.978.481-4.707.018-4.707.018zm15.053-.31V35.393l.258-.5.505-.209 10.915.051 1.355.663.897.982.368.983v1.282l-.301.843-.655.866.594.752.377 1.005-.063 1.422-.455.978-.835.835-1.19.586-11.305.05zm11.972-1.67.37-.47.165-.602-.183-.666-.658-.629-.72-.215h-8.815v3.027l9.103-.05zm-.045-4.67.534-.664-.012-.815-.449-.677-.778-.377h-9.09v2.932l9.102-.003zm7.11 6.738-.93-.507-.633-.7-.468-1-.053-8.162.212-.51.498-.258h.911l.52.52v7.113l.185.867.524.637.767.371h8.963l.439.3.13.189-.002.8-.217.282-.388.206-9.913-.018z"/><path fill="#fff" d="m40.04 52.558-3.108-.193-2.486-.262-1.954-.264-2.664-.447-2.766-.616-2.563-.704-2.664-.907-2.486-1.054-2.288-1.248-1.62-1.134-.977-.865-.898-.975-.545-.711-.619-1.244-.334-.978v-2.044l.411-1.244.608-1.094.743-.95 1.167-1.136 1.598-1.19 1.347-.812 2.184-1.096 1.915-.785 2.966-.99 3.489-.884 3.197-.603 2.575-.367 3.552-.351 3.464-.183 4.44.002 3.108.175 3.02.277 3.21.432 2.66.464.337-.746.604-.461 1.02-.074.517.27.467.505.216.678-.121.655-.332.54-.735.413-1.052-.076-.486-.36-.397-.695-.003-.47-.4-.1-2.752-.36-2.664-.259-3.537-.212-6.499.1-2.309.196-2.397.268-2.931.442-2.664.54-2.747.708-2.493.813-2.179.867-1.995.996-1.469.884-1.445 1.072-1.24 1.269-.859 1.22-.578 1.445.003 2.222.566 1.378.605.947.808.91 1.18 1.07 1.097.767 1.556.94 2.174 1.032 1.687.665 2.576.845 3.197.812 2.842.539 3.108.44 2.93.274 2.931.177h4.973l3.02-.176 3.02-.273 3.107-.447 3.553-.707 2.93-.789 1.585-.538.065.065-1.294.487-2.043.697-2.398.688-2.753.63-3.108.535-1.865.27-3.73.356-3.819.18-3.907-.033zm-17.295-6.86-.645-.407-.685-.759-.38-.821-.051-8.265.101-.405.572-.35.71.003.445.222.31.62v7.338l.348.681.549.462.658.193 7.223-.055.761-.535.364-.62.089-7.79.58-.519h.805l.499.258.208.502-.05 8.175-.579 1.177-.732.661-.998.468-4.618.018-4.618.018zm15.386.092-.266-.515v-9.98l.604-.604h10.548l1.059.276.777.455.661.599.594 1.114.072 1.422-.379 1.004-.628.824.571.65.374.81-.007 1.688-.38.83-.668.74-.736.506-1.09.368-10.795-.006zm11.412-1.787.727-.756.117-.582-.175-.649-.58-.562-.66-.276h-8.976V44.2h8.836zm.467-5.035.395-.817-.112-.596-.402-.598-.792-.444-9.103-.052v3.033l9.293-.049zm6.725 6.772-.443-.236-.667-.535-.526-.82-.278-1.086.05-7.835.473-.473.874-.084.57.295.17.447.001 7.143.186.67.55.627.55.302 9.297.089.428.499v.69l-.428.5-10.007.03z"/><path fill="#fff" d="m40.307 52.557-3.197-.192-3.35-.351-2.867-.445-1.776-.34-2.706-.623-2.754-.812-1.555-.55-1.954-.794-1.954-.957-1.687-1.01-1.421-1.074-1.303-1.254L12.93 43l-.566-1.13-.343-1.342V39.34l.343-1.342.569-1.13.548-.8 1.426-1.487 1.725-1.3 1.535-.908 1.766-.887 2.345-.942 1.599-.55 1.776-.539 3.197-.787 3.552-.64 3.552-.437 2.22-.187 3.553-.175 3.463-.001 3.464.175 3.02.274 2.841.358 3.069.524h.157l.388-.802.753-.442h.837l.503.26.46.548.19.703-.19.703-.46.547-.503.26h-.828l-.7-.393-.343-.555-.144-.695-.88-.118-2.93-.368-1.954-.176-2.665-.187-6.039.004-3.64.26-2.487.276-2.93.453-2.576.526-2.753.697-2.664.879-1.777.715-1.872.878-1.858 1.12-1.324.993-1.015.94-.98 1.283-.559 1.197-.249.936v1.51l.25.937.52 1.108 1.11 1.472 1.448 1.264 1.865 1.226 2.4 1.22 1.863.749 1.776.61 2.043.598 2.22.54 1.776.355 2.664.44 3.197.367 2.132.189 7.193.099 4.263-.293 2.943-.344 2.296-.366 2.664-.536 3.02-.785 1.049-.363.194.006-.266.151-2.664.9-1.865.533-3.109.713-2.486.438-1.243.19-2.132.266-2.93.265-4.174.181-2.931-.035zm-17.444-6.826-.782-.458-.557-.636-.488-.926-.051-8.256.2-.485.588-.28h.467l.602.253.192.358v6.92l.18.949.397.58.823.45h7.22l.658-.276.42-.391.337-.66v-7.338l.311-.62.444-.221.595-.003.588.279.2.485-.05 8.167-.481 1.025-.894.872-1.024.413-9.147.036zm15.095-.218-.101-.558.052-9.727.492-.493 10.431-.055.975.21.953.453.835.814.5 1.021.09 1.136-.208.865-.48.731-.321.452.697.921.312 1.03-.074 1.148-.577 1.173-.837.739-.66.338-1.02.266H38.422zM49.79 43.84l.418-.486.197-.593-.112-.56-.425-.642-.813-.382h-9.06V44.2l4.507-.002 4.507-.002zm-.025-4.638.438-.521.21-.703-.21-.7-.716-.615-.779-.196h-8.713v2.992l.117.117 8.897-.043zm6.633 6.385-1.013-.938-.515-1.117-.057-7.82.2-.675.568-.346.594-.001.59.28.148.298.089 7.656.532.86.783.414h8.95l.52.269.182.342v.624l-.428.498-10.007.04z"/><path fill="#fff" d="m40.662 52.56-3.463-.196-2.487-.257-2.131-.276-2.576-.44-2.131-.447-2.077-.524-2.097-.634-2.043-.72-2.042-.877-2.173-1.135-1.735-1.158-1.51-1.303-1.211-1.505-.687-1.421L12 40.172l.121-1.349.42-1.21.769-1.354 1.776-1.808.71-.531.71-.532 1.333-.8 1.51-.816 2.486-1.057 2.131-.746 2.67-.768 2.481-.569 2.82-.518 3.22-.435 3.175-.276 4.462-.198 4.262.112 3.553.262 3.062.353 2.976.461.71.162.475.004.111-.506.57-.55.5-.188h.617l.697.356.45.663v.945l-.266.515-.63.48-.869.084-.766-.374-.415-.614-.097-.722h-.247l-3.415-.448-4.352-.34-3.73-.117-4.529.195-2.93.266-2.22.277-2.665.444-2.131.446-2.487.622-3.374 1.121-2.132.92-1.865.983-1.953 1.298-1.643 1.547-.955 1.45-.47 1.197-.159 1.26.166 1.187.199.622.53 1.066.87 1.181 1.198 1.13 1.15.862 1.921 1.142 1.9.906 2.418.945 2.377.732 2.753.687 2.309.452 2.131.35 2.22.275 3.286.288 4.485.114 4.485-.113 2.486-.206 3.082-.357 3.084-.52 2.893-.642 2.664-.765.048.045-1.824.639-2.104.633-2.425.609-3.286.63-2.398.353-2.398.264-2.398.19-4.173.17-1.332-.035zm-17.56-6.755-.818-.397-.774-.774-.474-1.012-.051-8.288.461-.548.597-.112.534.117.45.45.051 7.684.533.86.783.414h7.332l.435-.166.668-.586.225-.538.13-7.64.26-.4.674-.201.61.114.428.456.05 7.825-.279 1.092-.417.622-.597.605-1.155.55-8.88.029zm14.952-.228-.19-.5v-9.503l.26-.623.623-.26h9.893l1.17.2.873.44.916.867.519 1.025v1.514l-.57 1.159-.446.42.554.632.462.985v1.511l-.466.977-.624.711-.952.57-1.059.275H38.429zm11.489-1.583.492-.343.371-.727-.086-.767-.49-.643-.731-.332-9.147-.004.052 3.021h8.935zm.266-4.843.388-.417.19-.5v-.466l-.373-.77-.826-.485-9.192-.051v3.124l9.103-.052zm6.81 6.494-.633-.39-.71-.807-.36-.966.004-8.214.306-.379.388-.198h.59l.581.355.173.456.004 7.32.328.71.425.392.658.275h8.816l.587.28.222.535-.161.633-.619.33-9.594-.01z"/><path fill="#fff" d="m38.975 52.489-1.51-.125-2.753-.257-2.664-.365-3.375-.622-1.865-.45-2.22-.612-1.687-.55-2.31-.877-2.663-1.304-1.579-.998-1.08-.812-1.211-1.088-1.035-1.34-.631-1.255-.316-1.056-.002-1.688.406-1.333.607-1.094.736-.95.73-.773 1.243-1.02 1.155-.802 1.51-.858 1.687-.825 1.776-.731 1.448-.533 2.652-.799 3.093-.737 1.865-.345 2.753-.43 2.487-.275 2.131-.18 5.219-.205 4.839.208 2.908.256 2.398.279 2.753.435 1.243.253-.312.017-1.73-.258-3.286-.354-3.109-.222-6.127.009-2.842.205-2.753.275-2.974.44-2.71.535-1.51.364-2.183.608-2.434.821-1.786.762-1.056.498-1.865 1.052-1.51 1.077-1.308 1.253-.754.977-.543.978-.384 1.244-.003 1.688.39 1.244.826 1.422 1.865 1.878 2.042 1.352L23.7 47.56l1.865.793 2.398.835 2.397.678 2.842.638 3.197.539 3.109.349 2.22.186 4.531.16 4.896-.158 3.095-.276 2.753-.355 2.575-.441 2.454-.544 2.514-.69.068.068-3.082.985-2.548.633-2.057.445-3.743.606-3.552.355-3.286.18-2.842.057zM23.15 45.813l-.798-.375-.856-.833-.461-.983-.053-8.297.497-.553.995-.01.369.23.19.418.002 7.323.433.931.851.54 7.654-.049.734-.509.406-.824.054-7.584.437-.437.554-.11.694.187.347.568v7.65l-.264 1.015-.43.666-.46.482-.409.24-.408.239-1.004.236-8.347-.017zm14.82-.338-.118-1.142.056-8.976.33-.485.647-.18h9.68l1.154.186.927.422.87.815.597 1.108.004 1.514-.57 1.159-.437.41.635.828.323.725.116.989-.22.952-.409.717-.798.798-.83.415-.918.245-10.537.002zm11.859-1.612.466-.611.111-.557-.116-.623-.474-.564-.718-.326-9.192-.004v3.021l4.596-.002 4.596-.002zm-.353-4.478.665-.549.244-.585v-.567l-.441-.754-.925-.462h-9.1l-.017 2.987.123.123h8.683zm7.26 6.319-.943-.624-.567-.8-.304-.836-.007-8.196.448-.449.56-.082.617.139.373.373.089 7.77.294.534.416.379.569.287h8.845l.618.312.251.454-.12.643-.761.369-9.402-.012zm1.637-15.659-.434-.516-.21-.703.225-.756.69-.658.628-.118.569.114.64.424.295.62v.718l-.166.435-.485.486-.587.245-.291-.002-.292-.002z"/><path fill="#fff" d="m43.407 52.56-3.455-.034-2.398-.146-2.842-.272-1.243-.175-1.954-.284-3.108-.592-1.599-.387-2.22-.615-2.309-.777-1.67-.645-.461-.238-.178-.039-1.066-.533-.31-.274v.13l-1.022-.574-1.687-1.135-.582-.423-1.248-1.12-1.051-1.377-.612-1.216-.316-1.056-.002-1.688.406-1.333.615-1.109 1.037-1.29.776-.728 1.066-.829.177-.137 1.244-.821 2.443-1.278.22-.045 1.244-.579.178-.044.533-.212 1.154-.436 2.31-.724 2.752-.688 2.72-.55 3.497-.514 2.753-.275 2.753-.176 4.085-.115 4.351.202 3.02.262 2.93.364 1.51.249 1.687.294.09.095-.711-.116-3.556-.432-3.726-.311-7.016.006-4.263.391-2.72.354-2.964.542-1.154.26-1.155.275-2.575.713-2.643.955-.199-.113.134.148-1.377.61-.195.032-.465.305h-.081l-1.852 1.052-1.39.943-1.495 1.417-.758.986-.543.978-.388 1.244-.002 1.689.471 1.464 1.04 1.557 1.306 1.293 1.51 1.08 1.682.992 1.231.6 1.883.806 2.553.871 2.242.622 2.753.622 3.197.528 2.931.353 2.487.179 1.776.11 4.174.047 3.197-.142 2.398-.194 2.397-.265 2.93-.446 1.333-.266 2.043-.451 1.925-.532.087.087-2.545.809-2.842.701-1.066.211-1.065.239-2.931.445-1.332.187-2.664.257-3.286.182-2.874.078zm21.055-3.283.178-.01-.266.173-.267-.01zm-41.32-3.465-.863-.44-.742-.73-.501-1.02-.053-8.314.528-.528.59-.02.445.03.488.526v7.43l.488.964.874.534 6.586.06 1.163-.203.666-.611.303-.668.054-7.553.449-.47.542-.108.694.187.352.568-.049 8.087-.568 1.2h-.157l-.234.438-.151-.093v.18l-.409.24-.408.24-1.004.236-8.347-.017zm14.825-.372-.114-1.107.056-8.976.355-.485.622-.18h9.68l1.154.183.934.452.861.784.599 1.113-.001 1.51-.458.987-.565.644.33.324.382.554-.113.113h.172l.232.644.07.999-.28.978-.412.635-.727.713-.95.466-1.14.184-10.185.002zm11.863-1.577.484-.634.093-.697-.211-.64-.706-.604-.531-.107-9.007-.01-.049 3.029 9.196-.005zm-.353-4.478.665-.549.244-.585v-.567l-.443-.758-.933-.456-9.058-.008-.053 3.117h8.81zm7.588 6.436-.862-.422-.83-.858-.413-.83-.05-8.447.525-.505h.901l.453.297.17.446v7.281l.274.659.391.42.71.382 8.793.045h.324l.52.519v.464l-.303.463-.59.246-9.099-.03zm1.359-15.763-.337-.299-.331-.74.108-.68.248-.481.624-.476.785-.088.81.392.375.526.093.692-.115.61-.546.572-.599.25h-.583z"/><path fill="#fff" d="m37.82 52.385-3.02-.289-3.729-.532-2.664-.53-2.576-.63-1.154-.356-1.687-.532-1.421-.53-1.066-.455-1.193-.537.11-.178-.191.118-1.301-.652-1.362-.843-1.391-1.025-1.31-1.259-.94-1.267-.37-.724-.345-.942-.18-1.333.184-1.332.524-1.264.55-.87.732-.885 1.027-.964 1.017-.816 1.107-.756h.072l1.17-.71 1.468-.688.977-.45 2.043-.794 2.398-.748.532-.161 2.487-.614 1.776-.358 1.51-.27 2.354-.357 3.507-.356 3.02-.196 5.772-.01 3.197.21 3.375.348 3.197.465.266.165-.533-.093-1.51-.178-2.93-.265-4.174-.205-4.635.114-2.47.179-3.285.359-3.375.542-3.464.783-1.243.369-2.18.704-1.354.521-.151-.093v.164l-.844.313-1.776.887-1.243.73-1.155.792-.8.62-1.337 1.37-.822 1.334-.487 1.31-.004 1.954.466 1.355.561.956.817.977.896.857 1.332 1.026 1.865 1.126 1.687.785.566.253 1.743.687 2.587.823 3.194.792 3.374.619 2.834.363 2.93.268 4.96.2 5.268-.2 3.61-.361 1.97-.267 3.464-.632 3.1-.778.062.063-2.049.645-3.245.812-3.108.594-3.197.445-2.842.278-2.93.177-6.395-.025zm-14.588-6.56-.864-.416-.9-.918-.301-.634-.179-.943.01-7.483.296-.429.275-.217.946-.005.519.52.001 7.344.189.68.621.688.654.232h7.016l.682-.144.743-.745.218-.731v-7.325l.52-.52h.804l.444.203.275.58-.002 7.171-.17 1.043-.357.737-.76.831-.943.47-1.099.16-7.637-.02zm14.92-.16-.199-.387v-9.979l.52-.52h10.68l.787.2-.114.184.2-.123.74.378.848.848.361.749.214.955-.206 1.026-.466.893-.42.392v.155l.463.431.504 1.066.082.9-.163.872-.575.958-.6.587-.86.468-1.205.256-10.212-.001zm11.899-1.984.335-.552v-.803l-.355-.696-.843-.496h-9.236l-.049 3.07 9.462-.049zm-.177-4.488.512-.707v-.871l-.25-.48-.418-.392-.65-.272-9.116-.01-.049 3.124 9.285-.05zm7.169 6.607-.84-.427-.777-.774-.466-.977-.051-8.316.526-.526h.804l.418.19.257.387.089 7.745.476.72.856.422 9.207.089.342.422.105.418-.338.582-.79.21-8.882-.014zm1.292-15.798-.355-.487-.209-.588.09-.573.428-.678.496-.257.642-.12.773.361.309.251.268.643v.636l-.25.48-.419.391-.657.276-.203-.003-.203-.001zm-.933-1.457.222.09h-.444zm-.625-.088.314.082-.532.006z"/><path fill="#fff" d="m38.442 52.408.755-.033v-.133l-.933.043-.977.067.533-.091-1.51-.234-.532.016 1.243.237-1.136-.083-.462-.003.239-.151-1.379.02-.077-.229-.204.16-.686-.085.242-.171-.622.103.243-.156-.717-.069.094.152-1.04-.124-.176-.164 1.019.12v-.166l-1.466-.031.356.16-.208.012-.28-.107.115-.186-.915.121v-.433l-.359.094.226.275-.444-.117-.217-.002.097-.252-1.035-.2-.31-.065-.086.139.73.117-.096.097-2.636-.647-.334-.097.244-.151-.176-.176-.977-.103.267.197-.533-.117-.06-.165-.13.08-.698-.265.666.086v-.167l-.4-.002-.427-.115.139.225-.422-.123-.576-.198.22-.148-.488.114v-.286h-.188l.1.163-.844-.32-.977-.413-2.45-1.214.125-.201-.304.117.103-.168-.113-.452h-.396l-.117.117.385.194.077.234-1.085-.678v-.233l-.164.101-1.392-1.05-1.463-1.525.003-.226.172.267.002-.183-.274-.392.192-.359h-.184v.277l-.177-.11v.178l.177.11-.004.212-.348-.444.08-.223h-.237l-.443-1.022-.24-.615.004-2.495.584-1.38.35-.245-.186-.063.909-1.214 1.174-1.131 1.332-1.066.061.172.472-.525.666-.365v.135l-.355.304v-.186l-.213.132.214.071-.08.13.531-.078-.096-.095.197-.236-.101-.263.911-.495.235.052v-.176l1.2-.553.488-.266.137.085.617-.146-.444-.023.267-.151.4-.122v.2l-.178-.11v.188h.167l.11-.178h.266l-.124.201.247-.082.062-.32-.506.113.493-.275.173.107v-.15l.57-.214.185.186-.355-.116.25.178.194-.055.355-.134-.506-.105 1.433-.464-.105.171.421-.266.444-.106-.533.271.874-.11.398-.261.116.188.3-.154.222.08v-.29l-.666.121-.412.153-.299-.012 1.421-.427.622-.05.089-.105.532-.122-.266.18.296.003.237.06-.133-.075v-.252l.222-.002.444-.102-.267.19.394.003-.102-.266.419.003-.267.172.478.003.1-.163-.223-.099.267.026.71-.192.71-.101-.354.16.266.007.345-.26.277.012-.356.153.386.012.236.06-.133-.075v-.251h.463l-.096.249.104.103.224-.307-.207-.131.533-.006.444-.09-.355.17 1.199.012v-.084l-.577-.17.533-.008 1.21-.204.867.172-.035-.175.533-.15 1.865-.112 1.598-.048-1.54.112-.111.112 1.88-.053.748-.144-.977-.108 1.633-.029.113.183 1.54-.095 4.136-.081-.115.186 1.663-.096-.533.13.325.128.652-.002-.267-.173.622-.001 1.194.113-.078.125-.85-.14-.577-.01v.168l.933.072-2.398-.076-2.664.012-3.73.16-.71-.138.517-.02-.109-.11-1.652.286-.888.117.444.133-.854.018.11-.178h-.356l-.11-.178h-.255v.178h.279l.249.249-.84.077-.168-.148h-.596l.11-.178-.588.014.223.09-.087.14.558.113-.073.063-.768.117.113-.182h-.174l-.072.218-.839-.036.094.151-.879.117-.337-.21-.774.196-.1-.164-.527.157.323.016.388.208-.977.232-1.938.084-.125.203-.646.019v.231l.045-.002.872-.264.371.016-1.154.323-.58.182-.664-.075.431.136-.653.2-.383-.1.116.188-.28.107h-.173l.125-.222-.388.4h-.157l-.325.105.237-.17-.281-.107v.317l-1.192.433-.14.059.107-.28.147.09.111-.18h-.173l-.28.107.09.145-.288.287-.339-.108-.663.218-.398.461-1.4.711-1.102.669-.145-.09-.092.239-1.481 1.113-1.306 1.34-.53.861h-.162v.24l-.285.571-.067-.067.162-.566h-.165v.405l-.287.41.198.198v-.332l.1.102-.215.722-.115-.07-.01 2.608.139-.355.012.297.108.283-.25-.097.075.647.144-.233-.08-.13.148-.091.233.643.53.903.8.941-.09.09-.39-.498.06.528.488.005.888.782v.418h.178v.277l-.178-.11v.188l.133-.006.418-.232-.506-.397.266.133.977.743 1.73 1.035-.06.06-.826-.462v.111l.341.367.2-.123.252.21.228-.076.874.44.99.406-.043.244.644.233-.245.155.8-.01-.445-.181-.578-.28.066-.065 1.134.486.089.097.177.01.489.143v.321l.896.193h.436l.355.355h.543l-.099-.16.826.249 1.971.477.07.052-.247.304.325-.122.297-.003-.267-.192.325.106h.252v.267l-.755.02.332.086.782-.118-.121-.196.31.119.385.002-.267.186.573-.112.227.146.355.014.533.033-.237.15.296.114.296-.003-.267-.19.445.102.532.026-.621.145 1.154-.057-.4.078v.166l.756-.013-.356-.153.71-.01-.266.174.888-.09-.355.163 1.155-.022 1.74.155-.092.24h.273l.323-.173 1.93.148-1.732.025v.178l-.489.024.41.078.233-.193 1.844-.024 2.042.003 1.557.044.097.157.744-.021-.533-.137.888.007 2.398-.094-1.42.111 1.367.12.38-.1-.22-.136 1.314-.12 1.776.007.845.027.442-.29.445.112v-.197l.489.017-.444.126.399.106.1-.161.353.19.39-.076-.469-.025-.102-.266h.414l.868-.104-.266.19.488.003v-.163l-.222-.09.578-.014v.178l.577-.015-.533-.26.444.104.533.059-.4-.078v-.153l1.021-.116.55-.168.294.113v.158h-.252l-.325.106.266-.192-.355.015-.444.142.444.038-1.332.336-.8.035-.1.144-.787.043-.09.111-.932.128v-.195h-.266v.163l.222.09-.71.044-.445.018-.177-.115-.355.143.429.013-.074.064-.977.102.444-.138-1.357.016.197.124-.114.114-1.124.087.267-.189.621.082-.444-.156-.666-.017v.266l.222.026-1.065.133-.766.019.113-.182-1.718.12-.145-.235-2.26-.152-.094.093.784.027-.799.125 2.176-.09v.294l1.643.032-.888.071-1.491-.121.247-.177-.355.133-.621.106 1.243.11-1.51-.09-3.463-.008-1.776.1zm2.176-.043v-.168l-.755-.012.355-.153-.207-.013-.277.107.237.237.691.07h.71zm9.014-.254-.489-.003v.178l.755-.003zm-8.348-.022.355-.162-.444.09-.622.03.8.123.621-.003zm1.82.007-.4.077h.8zm-5.594-.09-.311.082h.621zm1.786-.075h.611v-.198l-.665.125-.092.148-.708.072.744.03zm8.382.017-.71.01.799.123.355.01zm.932.057-.222.09h.444zm-6.13-.086-.486.074 1.066-.002zm1.69-.166h-.71v.178h.71zm1.685.076-.308.08.71-.003zm5.064-.177-.4.077h.8zm.8-.001-.311.081h.621zm-12.123-.147-.355-.005-.355.152.267-.005zm12.742.058-.309.081.71-.003zm1.856-.005-.107.107.34-.014zm-20.712-.086.238-.147-1.29.02.678.187.894.018zm22.721-.239-.355.005.444.143.267.005zm-21.98-.19-.665.028.58.072-.102.166h.188zm.652.089h-.562v.18l.488-.116zm.237.074-.222.09h.444zm-5.817-.491.444-.092-1.066.004.578.072v.166l.488-.018zm4.385.043-.108.107.34-.014zm-5.85-.13-.666-.01.444.14.222.018zm3.019-.222-.222.09h.444zm-4.44-.207-.666-.039.533.246.133.015zm4.44-.134h-.178v.189l.178-.11zm-2.409-.285-.107.108.34-.014zm.988-.051-.28-.108-.208.006.345.26h.143zm.355.055-.222.09h.444zm-6.76-.448-.107.107.34-.014zm-.167-.16h-.177v.189l.177-.11zm1.421 0h-.188l.11.178h.078zm-.713-.013-.22.089.534-.007zm2.656-.094-.107.108.34-.014zm-4.784-.364v-.137l.221-.076-.382.062-.55-.11v-.245h-.162l.046.311.319.063.552.336.355-.01zm4.486-.135-.127.08.09.234.459-.088zm-3.766-.104h-.276v.177h.167zm2.388-.07-.267-.102v.172h.267zm-4.34-.463-.145-.018.444-.142-.572-.018.105.274-.45-.082-.359-.192-.145.008.8.428.056.008zm2.73-.285-.107.107.34-.014zm-.015-.341-.092.092.074.06.71.287.267.007zm-.507.092h-.188l.11.178h.078zm-3.818-.118-.116.116-.228-.309-.234.233.34-.13-.119.193.224.09.133.014zm2.92-.415h-.078v.178h.188zm-4.323-.456-.082-.081-.29.111.098.16h.156zm2.901-.184-.107.107.34-.014zm1.033.037-.958-.562-.197.214.222-.126v.272l.296-.114-.129.208.233.014.327.062.102.102h.178zm-4.974-.496.311.116v-.267l-.35.188-.36-.225v-.135h-.248l-.098-.257.301.113-.266-.333.31.116v-.193l-.31.098-.444.116.266-.19-.4-.003-.027-.31v-.179l-.41-.025-.284-.284.087-.141H13.9l.103.184.284.331.4.153.012.227 1.452 1.195.244.004zm2.883-1.01-.33-.298-.114.3.093.093v-.207h.196l-.102.266h.161zm-5.246-1.09h-.178l.11.178h.177zm.454-.178h-.188l.11.178h.078zm3.375-.103v-.258l-.25-.096-.104-.41-.357-.093v.25h.224l.225.359-.169.314.653.013zm-.267-.163h.079l.11.178h-.189zm-4.706-1.195v-.405h-.178v.1l.39.907.067-.202zm4.262-.026v-.095l-.442.205.012.444.103-.266zm-4.252-.645h-.178l-.11.177h.178zm-.287-3.155.121.319.1-.1zm4.095-.074.014.34.094-.233zm.265-.78-.176.109v-.396l-.11.11.114.453h.066zm-3.906-.109.014.34.094-.232zm.523-.72-.165.261-.002.144.177-.11.024.233.08-.416zm3.888-.272-.076.228.104.272.18-.111zm-3.364-.133.102.266h.19l-.356-.382-.272.226.012.29.192-.4zm3.749.008.222-.142.23-.295-.19-.118.049.226-.533.1-.056.487h.278zm-3.347-.303-.205.127v-.084l.113-.296.145.234-.031-.414-.408.474.102.165h.157zm3.08-.15h-.188l.11.178h.078zm-2.593-.633-.337.305v.226l.43-.383zm.107.356-.178.11v.078h.178zm4.089-.578-.114-.114-.696.747-.168-.267-.003.12.108.28h.039zm-3.63-.123.15.092.113-.358h.166l-.045-.206.444-.132-.167-.017.345-.261-.125-.006-.652.443-.397.401-.424.321.531-.095zm4.38-.472-.302.109.165-.436h-.177l-.104.52-.276-.106.128.208h-.287l.105.171.66-.368zm-.934.02-.175.108v.167h.07zm1.6-.614h-.141l-.213.214v-.332l-.111.11.1.261.366-.096zm-3.374-.355h-.177v.178h.177zm4.285-.267h-.451l-.09-.222-.014.228.265.102-.098.159h.166zm.244-.177h-.277l.11.177h.167zm-3.21-.251.324-.188h-.178l-.426.237.338.196h.266zm4.742-.43-.715.014.083.135-.278.106v.159l.133-.008zm-3.626-.201-.392.102v.154l.445-.203zm.585-.002-.267.103v.07h.267zm0-.113v-.159h-.245l-.221.267h.185zm3.73-.425h-.178v.188l.177-.11zm-1.866-.102-.31.081h.621zm4.485-.626-.444.103-.222.003v.177h.157zm-.943-.002-.108.108.34-.014zm-1.144-.347-.177.11v.256h.177zm-.547.035.406-.106-.08-.071-.672.084.205.246.378-.003zm4.368-.277-.547-.12-.106.106h.385v.177h.167zm-.979-.092-.343.026.087.14h.256zm-.988-.119-.107.108.34-.014zm3.278-.62-.172.173.502-.103zm-.292-.14h-.533l-.532.136.355.01zm3.153-.124-.222.09h.444zm2.128-.444-.219.089.533-.007zm-.885-.164h-.163l-.325-.112.355.284.133.006zm5.714-.622-1.14.003.238.151.828-.088zm-1.451-.024v-.172l-1.465.125-.178.18.416-.126zm3.817-.077-.31.08.711-.003zm2.533-.163-1.244.013-.888.146 2.334-.028zm1.465.076-.755.068h1.51zm1.943-.008-.108.107.34-.014zm-6.395-.178-.107.108.34-.014zm5.429.006-.311.081h.622zm-4.174 25.06.4.077h-.8zm9.846-.45.233.093-.34.014zm1.168-.616.398.077-.889-.002zm.52-.095.233.093-.34.014zm-25.033-.263.222.09h-.444zm31.084-.503-.223-.082 1.141.02-.697.21-.322.014zm.665-.27h.266l.355.153H61zm.666-.089.368-.117.115.115-.261.165-.222.003zm-36.145.009.356-.093-.1.161h-.256zm36.667-.199h.622l.111-.18.2.123-.611.222-.212.013zm1.076-.245.444-.085v.153h-.444zm.632-.199.3.003-.266.172-.143.003zm-35.643-.355.155.006.444.254-.378.006zm-1.444-.442.178.01.355.153-.267.01zm-2.189-2.897-1.008.006-.888-.434-.9-.918-.315-.663-.105-.65-.053-7.724.294-.452.28-.217.829-.005.28.108v.247h.248l.108.281.001 7.228.189.68.584.653-.071.202h.875l.274.154 6.984-.123.897-.042.034-.419-.358.193.081.132-.326.024.763-.763.122-.558h.278l-.112-1.071-.118-6.38.546-.546.502.017-.444.143.313.017.333-.207.54.224.28.588L35.159 43l-.095-7.465-.043 7.02-.102.711.19-.266.003.588-.197-.122.114.36-.294.293.11.109-.473.638-.46.45-.523.333-.63-.013.348.134-.437.109-8.328.013-.18.112zm-.697-.216-.489.013.356.152.133.013zm8.97.074-.223.09h.444zm-8.526-.087-.31.081h.62zm-1.155-.311-.472-.431.108.302-.302-.095.293.243h.373zm11.1-.181-.487-.209.297.235-.297.202.289.01zM21.79 44.52v-.138l.266.102v-.197l-.533-.059v.072l.566.822.069-.207zm12.871-.366-.26.345.005.188.26-.345zm-13.315-.252.014.34.093-.233zm2.42.036-.436-.199-.326-.791-.184.184.213.213v.597l.178-.11v.266l.484-.088zm-2.51-.48-.106.106.14.226.074-.225zm11.886-.37.19.266v-.178l-.144-.227-.209.458v.05h.242zm.281.103.014.34.094-.232zM21.16 35.668h.186l.053 7.243.018-7.869-.329.379-.01 7.679.122.122h.014zm1.738-.4v6.843l.052-3.421zm10.439.276v-.153l.2.124-.082-.247h-.163l-.056.4h.19l.04 3.6.052-3.543zm-11.192-.688-.309.08.71-.003zm12.246-.006-.107.107.34-.014zm3.762 10.816-.199-.388.017-.412.177.617.183-.327-.205-.127.05-9.788-.133.082-.014.3-.086-.212.218-.408.313.71.013-.39-.177-.11v-.355l.165.102.112-.18.389.017-.444.143h10.39l-.444-.156.533.06.355.13-.266-.2.533.113 1.108.505.909.909-.118.117-.165-.261-.003.212.194.12-.088.335.16-.1v.366h.267v-.188l-.157.097-.093-.486.057-.06.307.646.024 1.635-.167.444-.028.09-.233.478-.325-.39-.006.235.3.298-.514.06-.245.296.098-.311h-.172v.533h.149l.202-.444.315.005-.351.266.218.348.002.314.146-.23.18.23.129.266-.263-.321-.12.196.19.23-.108.11.122.487.156-.252.113.294.21-.08-.002 1.558-.4.324v.23l-.355.452v.132l.388-.338-.429.622-.359.316-.868.513-.577-.094-.331.202.71-.092-.532.213-10.746.053zm5.485.13-5.195.05h10.39zm-.266-.178-5.107.05h10.213zm-4.885-.452-.177.11v.256h.177zm12.023.1h-.197l-.27-.104.027.37.095-.005zm.544-.35-.235-.006-.267.267h.157zm-.759-.02-.218.09.533-.008zm-.799-.863.544-.32.347-.59v-.797l-.355-.696-.843-.496-9.052-.054-.215-.179-.02 3.302 9.691-.012zm1.848-.19h-.068v.356h.16zm-1.21.011.298.112-.238-.293-.517.382v.055h.245zm.342-.643-.177.11.002.39.173-.267zm-.115-1.278.115.326.034.918.065-1.047zm1.092-.044h-.177v.177h.177zm-.977-.259-.628-.298-.112.112h.276l.294.45.17-.105zm-.891-.808h.27v-.177h-.167l-.11.177h-.355l.11.178h-.189v-.153l-8.48-.028-.206.137 7.487-.058 1.474.22.091.149h.186zm-9.055-1.155h-.266v.148l.118.119h.148zm4.275.175-4.23.05h8.347zm5.05-.048h-.343l.087.14h.256zm-1.238-.216.623.26-.093-.15.575-.134.133.024v-.253l-.544.272-.092-.092.656-.312.512-.707v-.871l-.26-.504-.539-.454v-.1h.135l.442.436.25.296.145.556-.09-.622.002-.373-.406-.381-.966-.075.444.145-.37.018-.094-.094-9.177-.04.02 3.466.227-.31zm3.103-.362-.248.229.092.152.153-.24zm-1.23-.497.07-.785-.138.622-.341.534-.182.146.256-.069zm1.23.227-.178.11v.078h.178zm-.09-.356-.177.11v.078h.178zm-.354-1.796.014.34.093-.233zm-.11-.792-.29-.347-.303-.167.24.58.416.215.18-.193zm-1.242-.6h.276l.093-.152-.42-.192v.61h.154zm7.033 10.384.12-.195-.32.123.247-.305-.252.152.107-.28-.238-.092.047.424-.464-.24-.77-.774-.317-.622-.119-.444.286.444-.113-.355.014-8.087.111-.444-.246.23-.094 7.5-.04-7.498.416-.484.145.235-.203-.126.113.295.16-.286.835-.029-.977-.12.835-.028.424.192.29.494.015 7.964.204.37.04.245.187.187.088-.088-.362-.675.096-.095.115.3.644.452-.444-.127.133.142.666.076 9.207.116.342.422.1.403-.289.56-.462.175-.195-.071.621-.2-.696.082-.115.187-9.046-.058-.533-.125.355.167-.266-.011zM67.882 45h-.178l.003.489.172-.267zm-11.856-.082.251-.007-.093-.093-.296.114.22.266.362.146.089.01zm11.045-.114-.107.107.34-.014zm.722-.043-.311-.274-.577-.123v.17h.426l.417.309-.4-.093v.161h.445zm-11.692-.6-.11.42.188-.187zm-.386.128h-.366l.105.17.261-.1zm-.267-.83.015.341.093-.233zm.101-7.784-.163-.292-.113.296.181-.113-.067 7.346-.137.622.243-.231zm.874-.139-.172-.267-.003.4h.177zm.446-.05-.286-.439h-.246l.369.37-.086.223h.25zm-5.12 8.403.236-.35v.137l-.27.524h-.08zm3.167-.518.011-.46.171.43-.053.16zm-2.842-.978.107.108-.093.233zm-.328-.814-.117-.356.356.42v.158h-.067zm-39.71-1.955.088.219-.081.314zm40.062-2.044.077.4-.077.4zm-8.27-2.802 4.65.05h-9.414zm-19.773-3.185.533-.125-.089.095-.71.293zm34.41-1.515-.53-.58.004-.271.236-1.067.126-.355-.447.8-.008-.226.443-.702.55-.285.101.1.236-.196.591.11.739.48.27.678v.627l-.249.48-.416.383-.688.283-.378-.007zm1.29-.002-.76.058-.093-.152-.3.006.443.254.355-.006zm.56-.45h.177l.111-.292-.093-.093v.208h-.266l-.324.324-.114.298h.159zm-2.228-.36-.078.079.222.414.076-.227zm.203-.736-.105.106.143.413.066-.415zm2.398-.094-.195.195.118.373h.077zm-1.6-.72-.664-.027.355.148.31.012zm.84-.116-.772-.208-.19.19.7.003-.266.187.397-.111.314.183.173.005zm-29.035 1.763.43-.003-.074.063-.622.114zm2.187-.536h.73l-.075.064-.768.118zm24.678 0h.078l.11.177h-.188zm-.456-.285.233.093-.34.014zm-1.631-.236.355-.01.266.172-.266-.01zm-1.332-.095-.8-.079-1.825-.128.469-.244.29.003-.266.185.913-.113.115.186.526-.105v.22l.481-.091 1.162.178.267.154-.267-.018zm-1.566-.291-.107.107.34-.014zm-13.487.095.4.077h-.8zm1.068-.089.397.077-.888-.003zm10.658-.088-.103-.167.676.013-.355.143.444.07-1.332.007zm.784-.096.233.093-.34.014zm-16.329-.085.222.09h-.444zm8.164-.439 1.027.064-1.953.001z"/></svg>