<svg width="80" height="80" viewBox="0 0 80 80" fill="none" xmlns="http://www.w3.org/2000/svg">
<rect width="80" height="80" rx="8" fill="#0173BA"/>
<path d="M39.0635 52.5524L35.6889 52.2809L32.7582 51.9233L31.7813 51.7548L29.65 51.3995L28.3179 51.1166L24.8793 50.2466L24.2328 50.0398L23.8775 49.9017L22.0126 49.2822L20.4141 48.6271L19.4372 48.1824L18.7594 47.8396L18.5491 47.9602L18.6819 47.8136L17.0005 46.884L15.5297 45.8614L14.6416 45.1094L13.8424 44.3288L12.9036 43.0886L12.2688 41.7854L12.0281 40.7781L12.0239 39.0008L12.2654 38.1121L12.72 37.0959L13.5097 35.8905L14.5528 34.8218L15.6185 33.92L17.5157 32.6414L20.3253 31.2388L21.528 30.7873L22.1014 30.5271L24.2328 29.8157L26.0977 29.2823L28.6731 28.6695L29.9164 28.3923L32.1366 28.0229L33.9127 27.762L37.2874 27.4129L40.5602 27.2262H46.4747L50.4308 27.4949L52.0293 27.6708L52.8286 27.7538L55.2264 28.1057L57.494 28.4771L57.7332 28.5689L57.8391 28.039L58.4661 27.4116L59.1606 27.2034L59.9442 27.321L60.6212 27.8794L60.8656 28.4646V29.214L60.513 29.9366L59.9331 30.3263L59.026 30.4449L58.2132 30.0851L57.7574 29.3625L57.7546 28.9591L57.6171 28.7424L53.6278 28.2188L50.0756 27.9281L44.9248 27.8234L41.0173 28.0333L39.0635 28.2144L35.6889 28.6439L33.1135 29.0996L31.0709 29.5524L29.1171 30.0565L27.0746 30.6869L26.0977 31.0607L25.6537 31.2041L25.1208 31.428L24.3679 31.7583H24.2833L22.723 32.5271L21.4797 33.2097L20.2365 34.0476L19.1702 34.913L18.7533 35.2685L17.8387 36.3552L17.4834 36.8406L16.9259 37.8572L16.5293 39.4415L16.6432 40.668L17.097 42.0207L17.692 42.9727L18.3617 43.7995L19.6148 44.9991L20.6805 45.7414L21.4783 46.2877L22.5454 46.8743L24.3331 47.7351L25.7425 48.3055L26.2753 48.5326L28.4955 49.2375L29.7388 49.6187L31.9547 50.1675L33.7351 50.5094L36.3105 50.9459L39.1523 51.3081L42.7046 51.5743L47.0561 51.6879L51.6741 51.4763L54.3383 51.2244L55.9368 51.0357L58.6898 50.5947L61.2652 50.0616L62.2421 49.8195L64.6989 49.1772L65.2615 48.928L66.183 48.6426L66.5048 48.6518L65.1727 49.1811L64.8175 49.3363L63.1302 49.9039L62.775 50.0454L61.4428 50.4097L59.7555 50.8556L57.2689 51.4099L54.8643 51.8343L52.8286 52.1026L51.4965 52.2823L47.9442 52.5767L40.0404 52.6175L39.0635 52.5524ZM37.9311 45.6556L37.8202 44.9758L37.909 35.1197L38.4146 34.6846L49.7203 34.7353L51.0081 35.419L51.7162 36.2239L52.1838 37.213L52.1969 38.7342L51.641 39.8894L51.2745 40.2819V40.3856L51.641 40.7781L52.1971 41.9333V43.444L51.6276 44.6291L50.7503 45.4184L49.8002 45.8835L48.5659 46.062L38.4419 46.0646L37.9311 45.6556ZM49.2763 44.0059L49.8328 43.7258L50.3107 42.9997L50.2365 42.1727L49.8091 41.6392L49.0987 41.2224L40.1478 41.1648L39.9987 41.4001L39.996 44.1994H48.6726L49.2763 44.0059ZM49.8523 39.0299L50.2268 38.5037L50.3218 37.795L50.0042 37.0902H49.8662L49.6228 36.8467L49.0631 36.557H40.0214L40.0027 39.3396L40.0953 39.4895H48.9306L49.8523 39.0299ZM22.3678 45.5926L21.2987 44.5104L20.955 43.5329L20.894 35.4592L21.1046 34.9504L21.4749 34.6909H22.6035L23.1227 35.2104L23.1266 42.7331L23.4576 43.4624L23.9608 43.9293L24.7528 44.1994L31.4261 44.1967L32.12 43.955L32.7127 43.4818L33.0246 42.9108L33.1135 35.0662L33.5575 34.6968L34.6648 34.6908L35.2448 35.2093L35.2986 42.4554L35.1226 43.8953L34.712 44.6881L33.8998 45.4879L33.0246 45.9322L23.3447 45.9697L22.3678 45.5926ZM56.6264 45.7391L56.0028 45.3534L55.2549 44.5416L54.8711 43.7106L54.8202 35.2169L55.3459 34.6909H56.5225L56.9339 35.135L57.0469 35.9598V42.8752L57.3314 43.4258L57.7543 43.8489L58.5714 44.1994H67.5162L68 44.6158L67.9675 45.4879L67.8661 45.8091L67.4258 45.9767L57.2689 45.9689L56.6264 45.7391Z" fill="white"/>
<path d="M37.9979 52.4681L34.2945 52.1052L31.7815 51.7483L30.2717 51.478L28.0516 51.03L25.565 50.4L22.9896 49.6065L20.4537 48.6317L17.6612 47.2388L16.1173 46.2615L14.4377 44.9097L13.385 43.7104L12.8451 42.9106L12.3795 41.9881L12.0007 40.6064L12.0871 38.734L12.5292 37.5439L13.3096 36.1569L15.2634 34.1893L17.75 32.5457L20.5918 31.1541L23.4336 30.0903L26.1866 29.2787L27.9628 28.8357L31.071 28.2146L34.268 27.7472L37.5539 27.4134L41.3726 27.202L47.9443 27.3028L50.9637 27.5745L53.3615 27.8544L56.381 28.3045L57.5915 28.5589H57.7437L57.9392 27.9662L58.4235 27.5143L58.8306 27.3046L59.6931 27.2979L60.3487 27.6092L60.7921 28.2796L60.8863 28.9825L60.6728 29.6298L60.2287 30.158L59.3116 30.4205L58.6149 30.2592L58.1681 29.9254L57.8333 29.4766L57.7357 28.7491L56.5586 28.5589L54.516 28.3017L51.5854 28.029L48.566 27.8497L43.8592 27.8489L40.9286 28.0263L37.9979 28.3004L34.8897 28.741L32.4919 29.1893L28.8994 30.0769L26.2754 30.9414L24.4105 31.6799L21.9239 32.895L19.7682 34.3273L18.2402 35.7746L17.4191 36.8677L16.8147 38.0687L16.5322 39.2671L16.6296 40.7778L16.9732 41.7639L17.372 42.5551L18.2413 43.736L19.4401 44.8676L20.5906 45.7543L22.4567 46.8793L24.314 47.776L26.453 48.6222L28.6732 49.3431L30.9822 49.9635L33.4688 50.4996L36.133 50.9457L38.9748 51.2967L41.1062 51.4883L44.4808 51.6622L48.2995 51.6621L51.763 51.4872L54.6936 51.209L58.4112 50.6819L61.0877 50.1423L63.2191 49.6023L65.1728 49.0152L65.9721 48.7338L66.1497 48.7366L65.8694 48.9007L63.6631 49.7233L60.4247 50.6805L56.825 51.4771L54.072 51.926L51.1414 52.2794L49.01 52.4624L45.6353 52.6404L40.6621 52.6152L37.9979 52.4681ZM22.812 45.7397L22.2667 45.4553L21.4647 44.664L21.0739 43.8322L20.9081 42.5551L20.9036 35.7126L21.0863 35.0542L21.5482 34.6906H22.4983L23.0784 35.209L23.1672 42.9995L23.4778 43.5679L24.0553 43.9969L24.659 44.1991H31.628L32.5746 43.7043L33.0692 42.757V35.3927L33.3272 34.8934L33.8705 34.6682L34.7904 34.7567L35.207 35.2413L35.1561 43.7104L34.6686 44.7037L33.914 45.4513L32.9359 45.932L28.2292 45.9498L23.5224 45.9676L22.812 45.7397ZM37.8647 45.4296V35.3927L38.1228 34.8934L38.6277 34.6841L49.5428 34.735L50.8984 35.3981L51.7949 36.3796L52.1626 37.3632L52.1635 38.6451L51.8616 39.4881L51.2066 40.3541L51.8009 41.1057L52.178 42.1108L52.1146 43.5326L51.6598 44.5106L50.8248 45.346L49.6357 45.932L38.3298 45.9826L37.8647 45.4296ZM49.8369 43.7598L50.2062 43.2899L50.3722 42.6884L50.1892 42.0219L49.5307 41.3933L48.8118 41.1777H39.9961V44.2053L49.0988 44.1547L49.8369 43.7598ZM49.7924 39.0894L50.3259 38.4265L50.3136 37.6115L49.8654 36.9338L49.0871 36.5568H39.9961V39.4893L49.0988 39.4864L49.7924 39.0894ZM56.9028 45.828L55.9718 45.3209L55.3393 44.6204L54.8712 43.6215L54.8184 35.4587L55.0295 34.9488L55.5285 34.6906H56.439L56.9582 35.2101V42.3242L57.144 43.191L57.6684 43.8277L58.4352 44.1991H67.3979L67.837 44.4999L67.9675 44.6879L67.9646 45.4877L67.7482 45.7697L67.3603 45.9764L57.4466 45.9582L56.9028 45.828Z" fill="white"/>
<path d="M40.0405 52.5579L36.9322 52.3651L34.4456 52.1029L32.4919 51.8385L29.8277 51.392L27.0618 50.7761L24.4993 50.0723L21.835 49.1654L19.3485 48.1109L17.0611 46.8629L15.441 45.7291L14.4641 44.8643L13.5661 43.8885L13.0215 43.1776L12.402 41.9335L12.0675 40.956L12.0672 38.9121L12.4794 37.668L13.0868 36.5741L13.8304 35.6241L14.9969 34.4885L16.5954 33.2989L17.9417 32.486L20.1259 31.3903L22.0412 30.6054L25.0067 29.6147L28.4956 28.7311L31.6926 28.1278L34.268 27.7606L37.8203 27.4095L41.2838 27.2275L45.7241 27.229L48.8323 27.404L51.8518 27.6808L55.0614 28.1126L57.7225 28.577L58.0588 27.8309L58.6629 27.3698L59.6827 27.296L60.1996 27.566L60.6666 28.0706L60.8833 28.7487L60.762 29.4036L60.4304 29.9435L59.6954 30.3569L58.6431 30.2807L58.1571 29.9201L57.7603 29.2258L57.7574 28.7564L57.3578 28.6563L54.6048 28.2955L51.9406 28.0374L48.4037 27.8249L41.9054 27.9251L39.5964 28.1208L37.1986 28.3888L34.268 28.8315L31.6038 29.3717L28.8571 30.0789L26.3642 30.8915L24.1853 31.7586L22.1903 32.7555L20.7212 33.6389L19.2756 34.7114L18.0359 35.9796L17.1775 37.2003L16.5986 38.6455L16.6021 40.8671L17.1675 42.2449L17.7729 43.1919L18.5812 44.1027L19.7601 45.1717L20.8582 45.9389L22.4144 46.8787L24.5881 47.9115L26.2754 48.5762L28.8508 49.4214L32.0478 50.2327L34.8897 50.772L37.9979 51.2118L40.9285 51.4859L43.8592 51.6634L48.8323 51.6625L51.8518 51.4868L54.8712 51.2136L57.9794 50.7671L61.5317 50.0597L64.4623 49.271L66.047 48.7326L66.1119 48.7975L64.8176 49.2848L62.775 49.9816L60.3772 50.6704L57.6242 51.3006L54.516 51.835L52.651 52.1049L48.9211 52.4605L45.1024 52.6407L41.1949 52.6075L40.0405 52.5579ZM22.7451 45.6983L22.1005 45.2911L21.4154 44.5323L21.0358 43.7108L20.9839 35.4464L21.085 35.041L21.6574 34.6917L22.3679 34.6936L22.8119 34.9157L23.1225 35.5352L23.1228 42.8737L23.4703 43.5551L24.0189 44.0171L24.6769 44.2097L31.8996 44.1551L32.661 43.6195L33.0247 42.9999L33.1135 35.2094L33.6936 34.691H34.4988L34.9978 34.9492L35.2057 35.4514L35.1561 43.626L34.5771 44.8025L33.8453 45.4641L32.8471 45.9324L28.2292 45.9498L23.6112 45.9676L22.7451 45.6983ZM38.1311 45.7903L37.8647 45.2747V35.2953L38.4686 34.691H49.017L50.0756 34.9669L50.8526 35.4224L51.5145 36.0207L52.1079 37.1348L52.1798 38.5566L51.8011 39.5613L51.1728 40.3846L51.7442 41.0358L52.1181 41.8446L52.111 43.5331L51.731 44.363L51.0627 45.1032L50.3273 45.6095L49.2376 45.9768L38.4419 45.9714L38.1311 45.7903ZM49.5428 44.0033L50.2704 43.2474L50.3868 42.6648L50.2123 42.0161L49.6316 41.4537L48.9712 41.1781H39.9961L39.996 44.1994L48.8323 44.1985L49.5428 44.0033ZM50.0097 38.9683L50.4051 38.1509L50.2933 37.5546L49.8911 36.9571L49.0988 36.5128L39.9961 36.4608V39.4943L49.2895 39.4453L50.0097 38.9683ZM56.7351 45.7397L56.2921 45.5037L55.6249 44.9687L55.0994 44.1492L54.8214 43.0633L54.8712 35.2281L55.3438 34.7553L56.2183 34.6712L56.7882 34.9661L56.9582 35.4135L56.9592 42.5555L57.1455 43.2269L57.6951 43.8532L58.2459 44.1551L67.5418 44.244L67.9703 44.7426V45.4337L67.5417 45.9324L57.5355 45.9631L56.7351 45.7397Z" fill="white"/>
<path d="M40.3069 52.5574L37.1098 52.365L33.7591 52.0139L30.8933 51.5692L29.1172 51.229L26.411 50.6062L23.6571 49.7935L22.1015 49.2443L20.1477 48.4501L18.194 47.4929L16.5066 46.4824L15.0857 45.4094L13.7825 44.155L12.9309 42.9998L12.365 41.8701L12.0219 40.5276V39.3403L12.365 37.9979L12.9336 36.8681L13.4817 36.0683L14.9081 34.5807L16.6328 33.2801L18.1676 32.373L19.9337 31.4862L22.2791 30.5438L23.8776 29.9947L25.6537 29.4554L28.8508 28.6677L32.4031 28.0272L35.9553 27.5913L38.1755 27.404L41.7278 27.2288L45.1912 27.228L48.6547 27.4031L51.6741 27.6767L54.516 28.0354L57.5846 28.5593H57.7416L58.1297 27.757L58.8831 27.3152H59.72L60.2229 27.5754L60.6834 28.123L60.8725 28.8259L60.6834 29.5287L60.2229 30.0764L59.72 30.3366H58.8917L58.1927 29.9434L57.8494 29.3876L57.7052 28.6926L56.8249 28.5748L53.8943 28.2073L51.9406 28.0309L49.2764 27.8441L43.2375 27.8478L39.5964 28.1083L37.1098 28.384L34.1792 28.837L31.6038 29.3625L28.8508 30.0601L26.1866 30.939L24.4104 31.6538L22.5376 32.5325L20.6805 33.6518L19.3561 34.6454L18.3415 35.5855L17.3608 36.8681L16.8022 38.0645L16.5531 39.0009V40.5116L16.8022 41.4479L17.3223 42.5555L18.4338 44.0279L19.8813 45.2924L21.7462 46.5182L24.1455 47.7384L26.009 48.4866L27.7851 49.0975L29.8277 49.695L32.0478 50.2344L33.824 50.5903L36.4882 51.0306L39.6852 51.3972L41.8166 51.5858L49.0099 51.6845L53.2727 51.3918L56.2159 51.0476L58.5123 50.6822L61.1765 50.1464L64.1959 49.3615L65.245 48.9982L65.4392 49.0036L65.1728 49.1551L62.5086 50.0554L60.6436 50.5879L57.5354 51.3011L55.0488 51.7388L53.8055 51.9291L51.6741 52.1954L48.7435 52.4596L44.5696 52.6412L41.639 52.6063L40.3069 52.5574ZM22.8627 45.7308L22.0814 45.2726L21.5239 44.6372L21.0358 43.7108L20.9846 35.4551L21.1854 34.97L21.7731 34.6909H22.2404L22.842 34.9425L23.0339 35.3013V42.2202L23.2139 43.17L23.6112 43.7508L24.4345 44.1995H31.6539L32.3118 43.9244L32.7312 43.533L33.0691 42.8736L33.0695 35.5352L33.38 34.9156L33.824 34.6936L34.4188 34.6909L35.0065 34.97L35.2074 35.4553L35.1561 43.6218L34.6758 44.6473L33.7816 45.5189L32.7583 45.9323L23.6112 45.968L22.8627 45.7308ZM37.9578 45.5125L37.8568 44.9548L37.9091 35.2281L38.4015 34.7354L48.8323 34.6798L49.8066 34.8908L50.7602 35.3426L51.5953 36.1572L52.0941 37.1782L52.1852 38.3138L51.9775 39.1786L51.4965 39.9102L51.176 40.3619L51.873 41.2833L52.1846 42.313L52.1115 43.4615L51.5344 44.6344L50.6973 45.3729L50.0366 45.711L49.017 45.9768H38.4217L37.9578 45.5125ZM49.7912 43.8408L50.2091 43.3552L50.4055 42.7617L50.2938 42.2029L49.8687 41.5602L49.0563 41.1781L39.9961 41.1781L39.996 44.1994L44.503 44.1975L49.0099 44.1955L49.7912 43.8408ZM49.7655 39.2035L50.2041 38.6818L50.4146 37.9789L50.2048 37.2784L49.488 36.6644L48.7093 36.4682H39.996V39.46L40.1133 39.5774L49.0099 39.5341L49.7655 39.2035ZM56.3994 45.588L55.3864 44.6495L54.8712 43.533L54.8143 35.7129L55.0141 35.0379L55.5816 34.6916L56.1764 34.6909L56.7668 34.9712L56.9137 35.2685L57.0026 42.9252L57.5354 43.7857L58.3182 44.1994H67.2686L67.7873 44.4678L67.9702 44.8098L67.9703 45.4337L67.5417 45.9324L57.5354 45.9713L56.3994 45.588Z" fill="white"/>
<path d="M40.6621 52.5591L37.1986 52.3638L34.7121 52.107L32.5807 51.8311L30.0053 51.3916L27.8739 50.9444L25.7969 50.4197L23.7 49.7859L21.6574 49.0654L19.6149 48.189L17.4415 47.0542L15.7074 45.8962L14.1977 44.5934L12.9855 43.0885L12.299 41.6667L12 40.1717L12.1211 38.823L12.5404 37.6133L13.3096 36.2589L15.0857 34.4508L15.7962 33.9196L16.5066 33.3883L17.8387 32.5875L19.3485 31.7724L21.8351 30.7153L23.9664 29.9686L26.6369 29.2009L29.1172 28.6324L31.9375 28.1136L35.1561 27.679L38.3315 27.4027L42.7935 27.2048L47.0562 27.3166L50.6085 27.5792L53.6712 27.9319L56.6474 28.3933L57.3578 28.5548L57.8321 28.5591L57.9433 28.0529L58.5123 27.5037L59.0123 27.315H59.6295L60.3268 27.671L60.7769 28.3338V29.2789L60.5106 29.7941L59.8813 30.2744L59.0124 30.3579L58.2459 29.9836L57.8308 29.3698L57.734 28.648H57.4875L54.0719 28.2002L49.7204 27.8609L45.9905 27.7431L41.4614 27.9382L38.5307 28.2044L36.3106 28.481L33.6464 28.9251L31.515 29.3714L29.0284 29.9933L25.6538 31.1142L23.5224 32.0337L21.6574 33.0167L19.7037 34.3146L18.0612 35.8623L17.1064 37.3123L16.6353 38.5092L16.4774 39.7682L16.6432 40.9558L16.8419 41.5778L17.3713 42.6442L18.2413 43.825L19.44 44.9547L20.5896 45.8174L22.511 46.9587L24.4105 47.8655L26.8293 48.8105L29.206 49.5416L31.959 50.2293L34.268 50.6814L36.3994 51.0315L38.6196 51.3059L41.9054 51.5937L46.3902 51.7084L50.8749 51.5952L53.3615 51.3885L56.4433 51.032L59.5266 50.5119L62.4198 49.8701L65.084 49.1046L65.1324 49.1501L63.3079 49.7887L61.2043 50.4218L58.7787 51.0309L55.4929 51.661L53.0951 52.014L50.6973 52.2778L48.2995 52.4676L44.1256 52.6378L42.7935 52.6033L40.6621 52.5591ZM23.1018 45.8046L22.2837 45.4083L21.5101 44.6341L21.0358 43.6217L20.9848 35.3343L21.4461 34.7857L22.0432 34.6736L22.577 34.7909L23.0269 35.2412L23.0784 42.925L23.6112 43.7856L24.394 44.1993H31.7255L32.1613 44.0335L32.8292 43.4468L33.0538 42.9089L33.184 35.2684L33.444 34.8698L34.1177 34.6678L34.7281 34.7824L35.1561 35.2382L35.2059 43.0631L34.9272 44.1549L34.5099 44.7769L33.9128 45.3824L32.7583 45.9323L23.8776 45.961L23.1018 45.8046ZM38.0541 45.5767L37.8647 45.0764V35.5737L38.1247 34.951L38.7471 34.6908H48.6402L49.8092 34.8916L50.6826 35.3309L51.5991 36.1982L52.1177 37.2234L52.1183 38.7373L51.5487 39.8956L51.1018 40.3157L51.6563 40.9477L52.1183 41.9333V43.444L51.652 44.4215L51.0283 45.1324L50.0757 45.7025L49.017 45.9768L38.4286 45.9766L38.0541 45.5767ZM49.5428 43.9944L50.0353 43.6512L50.406 42.9239L50.3196 42.1566L49.8298 41.514L49.0988 41.1818L39.9517 41.1777L40.0042 44.1993H48.9391L49.5428 43.9944ZM49.8092 39.1513L50.197 38.7341L50.3865 38.2338V37.7683L50.0142 36.9988L49.1876 36.5125L39.9961 36.462V39.5859L49.0988 39.5339L49.8092 39.1513ZM56.6183 45.6451L55.9864 45.2544L55.2768 44.4476L54.9156 43.4817L54.9196 35.2684L55.2264 34.8893L55.6144 34.6908L56.2033 34.6915L56.785 35.0464L56.9582 35.5022L56.9621 42.822L57.29 43.5329L57.7155 43.9243L58.3734 44.1994H67.1885L67.7762 44.4784L67.9979 45.014L67.837 45.6465L67.2181 45.9767L57.6242 45.9671L56.6183 45.6451Z" fill="white"/>
<path d="M38.9748 52.4888L37.4651 52.3644L34.7121 52.107L32.0479 51.742L28.6732 51.1204L26.8083 50.67L24.5881 50.0579L22.9008 49.5089L20.5918 48.631L17.9276 47.327L16.349 46.3289L15.2693 45.5167L14.0578 44.4287L13.0227 43.0886L12.3919 41.8339L12.0764 40.7781L12.0738 39.0897L12.4804 37.7567L13.0868 36.6629L13.8225 35.7128L14.5529 34.9404L15.7962 33.9196L16.9507 33.1178L18.4604 32.2604L20.1477 31.4348L21.9239 30.7039L23.3723 30.171L26.0244 29.3722L29.1172 28.635L30.9822 28.2897L33.7352 27.8606L36.2218 27.5849L38.3531 27.4056L43.572 27.2002L48.4109 27.4078L51.319 27.6636L53.7167 27.9426L56.4698 28.3783L57.713 28.6314L57.4011 28.6481L55.6705 28.3902L52.3846 28.036L49.2764 27.814L43.1487 27.8227L40.3069 28.0282L37.5539 28.3033L34.5802 28.7427L31.8702 29.2783L30.3605 29.6422L28.1768 30.2501L25.7426 31.0711L23.9566 31.8331L22.9008 32.3315L21.0358 33.3826L19.5261 34.4599L18.2185 35.7128L17.4644 36.6904L16.9214 37.6679L16.5367 38.912L16.5336 40.6004L16.9242 41.8445L17.7499 43.2663L19.6149 45.1441L21.6574 46.4956L23.7 47.5597L25.565 48.3528L27.9627 49.1879L30.3605 49.8663L33.2023 50.5041L36.3994 51.0426L39.5076 51.3918L41.7278 51.5776L46.2593 51.7378L51.155 51.58L54.2496 51.3041L57.0026 50.9488L59.578 50.5079L62.0323 49.9644L64.5458 49.2741L64.614 49.3424L61.5317 50.3266L58.9842 50.9598L56.9267 51.4049L53.1839 52.0111L49.6316 52.3664L46.3458 52.5468L43.5039 52.6028L38.9748 52.4888ZM23.1507 45.813L22.3528 45.4377L21.4968 44.6052L21.0358 43.6217L20.9833 35.3249L21.4798 34.7721L22.4746 34.7617L22.8437 34.9923L23.034 35.4102L23.0357 42.7332L23.469 43.6644L24.3205 44.2048L31.9745 44.155L32.7077 43.6464L33.1135 42.822L33.1683 35.238L33.6045 34.8015L34.1589 34.6905L34.8534 34.8777L35.1998 35.4462L35.2006 43.0957L34.9364 44.1105L34.5055 44.777L34.0455 45.2586L33.6371 45.4982L33.2286 45.7377L32.2255 45.9739L23.8777 45.9572L23.1507 45.813ZM37.971 45.4747L37.8529 44.3327L37.9091 35.3574L38.2382 34.8719L38.886 34.6919L48.5659 34.6922L49.7204 34.878L50.6472 35.3005L51.5175 36.115L52.1136 37.2235L52.1183 38.7373L51.5487 39.8956L51.1114 40.3068L51.7456 41.1336L52.0687 41.8586L52.1849 42.8476L51.9651 43.7995L51.556 44.5165L50.7579 45.3151L49.9271 45.7303L49.01 45.9746L38.4727 45.9767L37.971 45.4747ZM49.8299 43.8633L50.2962 43.2515L50.4074 42.695L50.2906 42.0719L49.8166 41.5082L49.0988 41.1818L39.9073 41.178V44.1994L44.503 44.1975L49.0988 44.1955L49.8299 43.8633ZM49.477 39.385L50.1421 38.8364L50.3865 38.2512V37.6835L49.945 36.9297L49.0195 36.4682H39.9209L39.9027 39.4554L40.0257 39.5785H48.7093L49.477 39.385ZM56.7362 45.7038L55.7944 45.0801L55.2265 44.2799L54.923 43.4441L54.9156 35.2483L55.3644 34.7992L55.9249 34.7169L56.541 34.856L56.9138 35.2288L57.0026 42.9997L57.2965 43.5329L57.713 43.912L58.2815 44.1994L67.1266 44.1998L67.7446 44.5105L67.9964 44.9651L67.8759 45.6082L67.1149 45.9767L57.713 45.965L56.7362 45.7038ZM58.3742 30.0454L57.9398 29.5287L57.7293 28.8258L57.9546 28.0705L58.6443 27.4123L59.2734 27.2942L59.8415 27.4079L60.4827 27.8325L60.7769 28.4528V29.1697L60.6113 29.6055L60.1258 30.0913L59.5393 30.3365L59.2478 30.3345L58.9563 30.3325L58.3742 30.0454Z" fill="white"/>
<path d="M43.4072 52.5598L39.9517 52.5256L37.5539 52.3803L34.7121 52.1081L33.4688 51.9332L31.515 51.6493L28.4068 51.0575L26.8083 50.67L24.5881 50.055L22.2791 49.2782L20.6082 48.6329L20.1477 48.3946L19.9701 48.3563L18.9044 47.8231L18.5936 47.5489V47.6783L17.5723 47.105L15.885 45.9701L15.3027 45.5468L14.0549 44.4262L13.004 43.0503L12.3919 41.8339L12.0764 40.7781L12.0738 39.0897L12.4804 37.7567L13.095 36.6484L14.1315 35.3575L14.9081 34.6301L15.9738 33.801L16.1514 33.6641L17.3947 32.8426L19.838 31.5649L20.0589 31.5196L21.3022 30.941L21.4798 30.8972L22.0127 30.6852L23.1672 30.2493L25.4762 29.5252L28.2292 28.8371L30.9485 28.2869L34.4456 27.7728L37.1987 27.498L39.9517 27.3222L44.0368 27.2066L48.3883 27.4093L51.4078 27.6712L54.3384 28.0348L55.8481 28.2837L57.5354 28.5784L57.6242 28.6734L56.9138 28.5572L53.3578 28.1249L49.6316 27.8139L42.6159 27.8198L38.3531 28.2113L35.6329 28.5649L32.6695 29.1067L31.515 29.3677L30.3605 29.6422L27.7851 30.3554L25.1423 31.3104L24.9433 31.1968L25.0775 31.3448L23.7 31.9558L23.5047 31.9872L23.0402 32.2917H22.9585L21.1069 33.3436L19.7176 34.2868L18.2218 35.7036L17.4644 36.6904L16.9214 37.6679L16.5331 38.9121L16.5315 40.6006L17.0022 42.0651L18.0412 43.622L19.3484 44.9146L20.8581 45.9958L22.5396 46.9875L23.771 47.5871L25.6537 48.3927L28.2068 49.2643L30.4493 49.8859L33.2023 50.5084L36.3993 51.0363L39.33 51.3894L41.8166 51.5676L43.5927 51.678L47.7666 51.7246L50.9637 51.5825L53.3615 51.3889L55.7592 51.1238L58.6899 50.6784L60.022 50.4123L62.0645 49.9605L63.9903 49.4294L64.0767 49.5159L61.5317 50.3246L58.6899 51.026L57.6242 51.2373L56.5585 51.4757L53.6279 51.921L52.2958 52.1075L49.6316 52.3654L46.3458 52.5468L43.4719 52.6246L43.4072 52.5598ZM64.4624 49.2774L64.64 49.2676L64.3736 49.4399L64.1071 49.4301L64.4624 49.2774ZM23.1414 45.8116L22.2791 45.3729L21.5365 44.6422L21.0358 43.6217L20.9832 35.3076L21.5106 34.7799L22.1015 34.7602L22.5455 34.7893L23.034 35.3159V42.7459L23.5224 43.71L24.3961 44.244L30.9822 44.3047L32.1445 44.1011L32.8113 43.4899L33.1135 42.822L33.1682 35.2687L33.6168 34.7992L34.1589 34.6905L34.8534 34.8777L35.2046 35.4464L35.1561 43.5331L34.5882 44.7328H34.4313L34.1969 45.171L34.046 45.0777V45.2585L33.6371 45.4982L33.2286 45.7377L32.2255 45.9739L23.8777 45.9572L23.1414 45.8116ZM37.9672 45.4396L37.8529 44.3327L37.9091 35.3574L38.2643 34.8719L38.886 34.6919L48.5659 34.6922L49.7204 34.8752L50.6542 35.3268L51.5151 36.1108L52.1136 37.2235L52.1128 38.7344L51.6549 39.7214L51.0901 40.3652L51.4206 40.6894L51.8021 41.2427L51.6889 41.3559H51.8605L52.0932 42L52.1625 42.9989L51.8835 43.9774L51.4707 44.612L50.7439 45.3249L49.7932 45.7907L48.6547 45.9755L38.4687 45.977L37.9672 45.4396ZM49.8299 43.8633L50.3137 43.2287L50.4071 42.5319L50.196 41.892L49.4905 41.2877L48.9588 41.1813L39.9517 41.1716L39.9031 44.1996L49.0988 44.1955L49.8299 43.8633ZM49.477 39.385L50.1421 38.8364L50.3865 38.2512V37.6835L49.9427 36.9259L49.01 36.4705L39.9517 36.4618L39.8993 39.5786L48.7093 39.5785L49.477 39.385ZM57.0654 45.8208L56.2033 45.3993L55.3725 44.5407L54.96 43.7108L54.9092 35.2637L55.4352 34.7594H56.3364L56.7885 35.0558L56.9582 35.5022L56.9582 42.7835L57.2331 43.4418L57.6242 43.8614L58.3347 44.244L67.1266 44.2888L67.4511 44.2885L67.9702 44.808V45.2723L67.6675 45.7346L67.078 45.981L57.9795 45.9503L57.0654 45.8208ZM58.4239 30.0578L58.0869 29.7591L57.756 29.0192L57.8641 28.3383L58.1125 27.8577L58.7355 27.3822L59.5214 27.2935L60.3316 27.686L60.7061 28.2123L60.7988 28.9036L60.6842 29.5146L60.1382 30.0863L59.5393 30.3365L58.9563 30.3356L58.4239 30.0578Z" fill="white"/>
<path d="M37.8203 52.3845L34.8009 52.0963L31.071 51.5638L28.4068 51.0346L25.8314 50.4047L24.6769 50.0479L22.9895 49.5156L21.5686 48.9853L20.503 48.5309L19.3098 47.9944L19.4203 47.8155L19.229 47.9338L17.9276 47.2821L16.5656 46.4388L15.1745 45.4136L13.8657 44.155L12.9244 42.8878L12.5553 42.1638L12.2095 41.2225L12.0301 39.8895L12.2141 38.5566L12.7385 37.2932L13.2878 36.4238L14.0201 35.5383L15.0469 34.5743L16.0641 33.7579L17.1707 33.0025H17.2433L18.4136 32.2911L19.8813 31.604L20.8582 31.1538L22.9007 30.3595L25.2985 29.6121L25.8314 29.4508L28.318 28.837L30.0941 28.4792L31.6038 28.2099L33.9583 27.8522L37.4651 27.4964L40.4845 27.2999L46.2569 27.2895L49.454 27.5007L52.8287 27.8475L56.0257 28.3128L56.2921 28.4782L55.7593 28.3848L54.2496 28.2073L51.3189 27.9424L47.145 27.7372L42.5097 27.8511L40.0405 28.0296L36.7546 28.3889L33.3799 28.9309L29.9165 29.7139L28.6732 30.0825L26.4936 30.7867L25.1394 31.3085L24.9877 31.2147V31.3788L24.144 31.6925L22.3679 32.5789L21.1246 33.3081L19.9701 34.1006L19.1708 34.7205L17.8332 36.0916L17.0108 37.425L16.5236 38.7343L16.5203 40.6893L16.9861 42.0436L17.5472 42.9998L18.364 43.9773L19.2597 44.834L20.5918 45.8596L22.4567 46.9857L24.144 47.7707L24.7103 48.0238L26.453 48.7111L29.0404 49.5339L32.2342 50.3261L35.6085 50.945L38.4419 51.3082L41.3726 51.5756L46.3325 51.7757L51.6004 51.5758L55.2108 51.2149L57.1802 50.9478L60.6437 50.3156L63.7435 49.5378L63.8063 49.6006L61.757 50.2464L58.5123 51.0583L55.4041 51.6521L52.207 52.097L49.3652 52.3746L46.4346 52.5519L40.0405 52.5272L37.8203 52.3845ZM23.2317 45.8246L22.3679 45.4091L21.4675 44.491L21.1669 43.8571L20.9881 42.9137L20.9985 35.4312L21.2941 35.002L21.5686 34.7855L22.5148 34.7798L23.0339 35.2993L23.035 42.6443L23.2235 43.3234L23.845 44.0118L24.4993 44.2439H31.5151L32.1968 44.0996L32.9396 43.3553L33.158 42.6237V35.2993L33.6772 34.7798H34.4818L34.9256 34.9822L35.2006 35.562L35.1995 42.7332L35.0289 43.7755L34.6721 44.5131L33.9128 45.3443L32.9689 45.8142L31.8703 45.9732L24.2329 45.9535L23.2317 45.8246ZM38.1519 45.6657L37.9535 45.2775V35.2993L38.4727 34.7798H49.1533L49.9402 34.9781L49.8262 35.1627L50.0251 35.0397L50.7663 35.4181L51.6138 36.2661L51.9752 37.0145L52.1889 37.9701L51.983 38.9958L51.5171 39.8895L51.0969 40.2809V40.4362L51.5596 40.867L52.0639 41.9334L52.1459 42.8332L51.9831 43.7052L51.4077 44.6627L50.8074 45.2502L49.9478 45.7183L48.7435 45.9737L38.5308 45.9728L38.1519 45.6657ZM50.0509 43.6809L50.3865 43.1288V42.3262L50.0315 41.6301L49.1876 41.1336H39.9517L39.903 44.204L49.3652 44.155L50.0509 43.6809ZM49.8743 39.193L50.3865 38.4855V37.6147L50.1369 37.1347L49.718 36.7433L49.0674 36.4713L39.9517 36.4618L39.9031 39.5845L49.1876 39.5341L49.8743 39.193ZM57.0428 45.7999L56.2033 45.3732L55.4262 44.5994L54.96 43.6219L54.909 35.306L55.4348 34.7798H56.2394L56.6569 34.9702L56.9138 35.3574L57.0026 43.102L57.4793 43.8225L58.3347 44.244L67.5421 44.3328L67.8837 44.7551L67.9886 45.1735L67.651 45.7546L66.8601 45.9646L57.9795 45.9514L57.0428 45.7999ZM58.3347 30.002L57.9795 29.5151L57.771 28.9271L57.8612 28.3543L58.2893 27.6757L58.7848 27.4193L59.4266 27.2988L60.1996 27.6602L60.5086 27.911L60.7769 28.5536V29.1902L60.5273 29.6701L60.1084 30.0615L59.4505 30.3366L59.2478 30.3345L59.0451 30.3327L58.3347 30.002ZM57.4022 28.5445L57.6242 28.6341H57.1802L57.4022 28.5445ZM56.7772 28.4567L57.0914 28.5387L56.5585 28.5453L56.7772 28.4567Z" fill="white"/>
<path d="M38.442 52.4084L39.1969 52.3748L39.1969 52.2415L38.2644 52.2845L37.2875 52.3521L37.8204 52.261L36.3107 52.0269L35.7778 52.0434L37.0211 52.2798L35.885 52.1971L35.4226 52.1944L35.662 52.0426L34.283 52.0638L34.2064 51.8342L34.0017 51.9946L33.3159 51.9088L33.5576 51.7378L32.936 51.8414L33.1794 51.6846L32.4625 51.6162L32.5563 51.7681L31.5151 51.6437L31.3399 51.4797L32.3588 51.5995V51.4337L30.8934 51.4026L31.2487 51.5626L31.0412 51.5751L30.7613 51.4676L30.8759 51.282L29.961 51.4034V50.9696L29.602 51.0636L29.8278 51.3393L29.3837 51.222L29.1673 51.2196L29.2636 50.9683L28.2292 50.7687L27.9186 50.7031L27.8328 50.8419L28.5638 50.9589L28.4665 51.0562L25.8314 50.4093L25.4972 50.3115L25.7412 50.1606L25.565 49.9851L24.5882 49.8819L24.8546 50.0787L24.3217 49.9623L24.2622 49.7967L24.1324 49.8769L23.4337 49.6121L24.0997 49.6977V49.5312L23.7001 49.5287L23.2727 49.4143L23.4115 49.6391L22.9895 49.5156L22.4142 49.3184L22.6344 49.1703L22.146 49.2838V48.998H21.9579L22.0585 49.1609L21.2135 48.8405L20.2366 48.4278L17.7878 47.2144L17.9124 47.0128L17.6076 47.1298L17.7111 46.9623L17.5976 46.5098H17.2024L17.085 46.6272L17.4696 46.8208L17.547 47.0554L16.4623 46.377V46.1438L16.2984 46.2452L14.9063 45.1956L13.4429 43.6703L13.4456 43.4439L13.6178 43.7105L13.6205 43.5279L13.3462 43.136L13.5379 42.7774H13.3541V43.0545L13.1765 42.9447V43.1224L13.3541 43.2323L13.3501 43.4439L13.002 42.9996L13.0821 42.7774H12.8455L12.4023 41.7555L12.1624 41.1401L12.1665 38.6452L12.7499 37.2657L13.1001 37.0202L12.9138 36.9568L13.8227 35.7432L14.997 34.6117L16.3291 33.5463L16.39 33.7184L16.862 33.1931L17.528 32.8276V32.9628L17.1728 33.2672V33.0807L16.9595 33.2126L17.1739 33.2841L17.0934 33.4145L17.625 33.3364L17.5295 33.2408L17.7255 33.0046L17.6249 32.7424L18.5363 32.247L18.7713 32.2992V32.1228L19.9702 31.5704L20.459 31.3036L20.5962 31.3885L21.2135 31.2432L20.7695 31.2196L21.0359 31.0688L21.4355 30.9465V31.1467L21.2579 31.0368V31.225H21.425L21.5348 31.0473H21.8012L21.6772 31.2481L21.9239 31.1659L21.9859 30.8459L21.4799 30.959L21.9726 30.684L22.146 30.7912V30.6419L22.7158 30.4267L22.9008 30.6135L22.5456 30.4973L22.7959 30.6754L22.9896 30.62L23.3449 30.4862L22.8393 30.3808L24.2722 29.9173L24.1667 30.0882L24.5882 29.8217L25.0322 29.7161L24.4993 29.9871L25.3727 29.8767L25.7706 29.6158L25.8866 29.8037L26.1867 29.6495L26.4087 29.7291V29.4397L25.7426 29.5615L25.3314 29.7143L25.0322 29.7023L26.4531 29.2754L27.0747 29.2256L27.1636 29.1196L27.6964 28.998L27.43 29.1784L27.7263 29.1811L27.9628 29.2409L27.8296 29.1663V28.9145L28.0516 28.9121L28.4957 28.8103L28.2292 29.0007L28.6233 29.0034L28.5211 28.7368L28.9397 28.7395L28.6733 28.9118L29.1512 28.9145L29.2516 28.752L29.0285 28.6531L29.2949 28.6791L30.0054 28.487L30.7158 28.3856L30.3606 28.5466L30.627 28.5534L30.9718 28.2925L31.2487 28.305L30.8934 28.4577L31.2785 28.4702L31.5151 28.53L31.3819 28.4554V28.2036H31.8449L31.7493 28.4529L31.8528 28.5563L32.0772 28.2492L31.8703 28.1175L32.4032 28.1123L32.8472 28.0223L32.492 28.1911L33.6909 28.2036V28.1198L33.1136 27.9499L33.6465 27.942L34.8569 27.738L35.7243 27.9097L35.689 27.735L36.2219 27.5844L38.0868 27.4734L39.6853 27.4248L38.1452 27.5371L38.034 27.6493L39.9145 27.596L40.6622 27.4519L39.6853 27.344L41.3178 27.315L41.4308 27.4981L42.9712 27.4031L47.1069 27.3218L46.9922 27.5076L48.6548 27.4116L48.122 27.542L48.4473 27.6704L49.0989 27.6677L48.8324 27.4954L49.4541 27.494L50.6479 27.6068L50.5705 27.7321L49.7205 27.5922L49.1432 27.5816V27.7504L50.0757 27.8222L47.6779 27.746L45.0137 27.7583L41.2838 27.9178L40.5734 27.7797L41.0914 27.7593L40.9821 27.6499L39.3301 27.9356L38.442 28.0527L38.8861 28.1859L38.0319 28.2036L38.1417 28.0259H37.7865L37.6767 27.8482H37.4207V28.0259H37.6999L37.9488 28.275L37.1099 28.352L36.9412 28.2036H36.3446L36.4544 28.0259L35.8666 28.0399L36.0897 28.1299L36.0027 28.2709L36.561 28.3826L36.4883 28.4455L35.7203 28.5633L35.8327 28.3814H35.6594L35.5869 28.5991L34.7482 28.5626L34.842 28.7144L33.9634 28.831L33.6261 28.6202L32.8522 28.8168L32.7512 28.6534L32.2255 28.8104L32.548 28.8257L32.936 29.034L31.9591 29.2658L30.0213 29.3501L29.8956 29.5535L29.2505 29.5718V29.8032L29.2949 29.8013L30.1668 29.5366L30.5382 29.5526L29.3837 29.8764L28.8037 30.0582L28.1404 29.9834L28.5715 30.1192L27.9184 30.3197L27.5354 30.2195L27.651 30.4066L27.371 30.5141H27.1975L27.3229 30.292L26.9346 30.6918H26.7784L26.4531 30.7975L26.69 30.6277L26.4087 30.5197V30.8367L25.2171 31.2695L25.0765 31.3287L25.184 31.0483L25.3307 31.1391L25.4423 30.9584H25.2687L24.9888 31.0659L25.0782 31.2107L24.7915 31.4977L24.4522 31.3899L23.7889 31.6075L23.3915 32.0692L21.9913 32.7802L20.8893 33.4489L20.7437 33.3588L20.652 33.5979L19.1709 34.7109L17.8646 36.0514L17.3352 36.9124H17.1728V37.1517L16.8878 37.7232L16.8206 37.656L16.9828 37.0901H16.8176V37.4949L16.5306 37.9049L16.7287 38.1032V37.7714L16.8299 37.8726L16.6136 38.595L16.499 38.5241L16.4884 41.1334L16.6275 40.778L16.6399 41.0745L16.7485 41.3576L16.4973 41.2612L16.5729 41.9085L16.717 41.6751L16.637 41.5456L16.7853 41.4539L17.0176 42.0968L17.5472 42.9998L18.3483 43.9412L18.2587 44.0309L17.8672 43.5328L17.9276 44.0606L18.4159 44.066L19.3041 44.8479V45.2656H19.4818V45.5427L19.3041 45.4329V45.6211L19.4374 45.6148L19.8555 45.3828L19.3485 44.9859L19.615 45.1193L20.5918 45.862L22.3216 46.8968L22.2618 46.9567L21.4355 46.4946V46.6061L21.7771 46.973L21.9761 46.8499L22.2288 47.0597L22.4568 46.9837L23.3311 47.4232L24.3217 47.8295L24.2777 48.0738L24.9219 48.3068L24.677 48.4621L25.4762 48.4527L25.0322 48.2706L24.4539 47.9919L24.5196 47.9262L25.6538 48.4121L25.7426 48.5092L25.9203 48.5191L26.4087 48.6618V48.9832L27.3055 49.1757H27.7408L28.096 49.5312H28.6393L28.5404 49.3709L29.3665 49.6197L31.3375 50.0967L31.4072 50.1489L31.1599 50.4531L31.4852 50.3309L31.7815 50.3282L31.5151 50.1364L31.8404 50.2421H32.0923V50.5087L31.3375 50.5293L31.6692 50.6146L32.451 50.4973L32.3296 50.3007L32.6397 50.4198L33.0248 50.4225L32.7584 50.6083L33.3313 50.4955L33.5576 50.642L33.9129 50.656L34.4457 50.6891L34.2088 50.8394L34.5046 50.953L34.8009 50.9503L34.5345 50.7599L34.9786 50.8617L35.5114 50.8875L34.8897 51.0334L36.0442 50.9764L35.6446 51.0542V51.2196L36.3995 51.2071L36.0442 51.0544L36.7547 51.0446L36.4883 51.2184L37.3763 51.1275L37.0211 51.2911L38.1756 51.2689L39.916 51.4242L39.8241 51.6639H40.0966L40.4201 51.4907L42.3495 51.6389L40.6178 51.6639V51.8416L40.1294 51.8658L40.5388 51.9441L40.7718 51.7506L42.6159 51.7267L44.6585 51.7299L46.2155 51.7744L46.3119 51.9305L47.0563 51.9095L46.5234 51.7731L47.4115 51.7798L49.8093 51.6857L48.3884 51.7972L49.7562 51.9161L50.1351 51.817L49.9161 51.6815L51.2302 51.5617L53.0064 51.5684L53.8513 51.5946L54.2933 51.3049L54.7381 51.4166V51.2196L55.2265 51.2373L54.7825 51.3629L55.1819 51.4695L55.2817 51.308L55.6353 51.4973L56.0258 51.4215L55.5564 51.3973L55.4541 51.1307H55.8678L56.7362 51.0272L56.4698 51.2169L56.9583 51.2196V51.0567L56.7362 50.967L57.3135 50.953V51.1307L57.8907 51.1163L57.3579 50.8555L57.8019 50.9599L58.3348 51.0185L57.9351 50.9412V50.788L58.9564 50.6724L59.5065 50.5038L59.8001 50.6165V50.7753H59.5482L59.2228 50.8809L59.4893 50.6891L59.134 50.7041L58.69 50.8464L59.134 50.8837L57.8019 51.2198L57.0027 51.2551L56.9024 51.3989L56.1146 51.4418L56.0258 51.5535L55.0933 51.6806V51.4862H54.8269V51.6491L55.0488 51.7388L54.3385 51.7832L53.8944 51.8009L53.7168 51.6859L53.3616 51.8292L53.7908 51.8416L53.7168 51.9064L52.7399 52.0076L53.184 51.8702L51.8268 51.8861L52.0243 52.0097L51.9103 52.1238L50.7862 52.211L51.0526 52.0223L51.6743 52.1044L51.2302 51.9482L50.5642 51.9305V52.1971L50.7862 52.2232L49.7205 52.3555L48.9552 52.3748L49.0677 52.1926L47.3501 52.3134L47.2048 52.0781L44.9441 51.9261L44.8509 52.0194L45.6354 52.0461L44.8361 52.1708L47.0119 52.0809V52.3748L48.6548 52.4069L47.7667 52.4781L46.2758 52.3567L46.5234 52.1803L46.1682 52.313L45.5466 52.4193L46.7899 52.5288L45.2802 52.4381L41.8167 52.4305L40.0405 52.5306L38.442 52.4084ZM40.6178 52.3646V52.1971L39.8629 52.1846L40.2182 52.0319L40.0107 52.0194L39.7343 52.1255L39.9713 52.3626L40.6622 52.4338L41.3727 52.4326L40.6178 52.3646ZM49.6317 52.111L49.1432 52.1082V52.286L49.8981 52.2832L49.6317 52.111ZM41.2838 52.0887L41.6391 51.9269L41.195 52.0169L40.5734 52.0461L41.3727 52.1704L41.9943 52.1672L41.2838 52.0887ZM43.1044 52.0959L42.7048 52.1729H43.504L43.1044 52.0959ZM37.5096 52.0063L37.1987 52.0876H37.8204L37.5096 52.0063ZM39.2962 51.9305H39.9073V51.733L39.2417 51.858L39.1502 52.0061L38.442 52.0784L39.1864 52.1082L39.2962 51.9305ZM47.6779 51.9482L46.9675 51.9572L47.7667 52.0815L48.122 52.0905L47.6779 51.9482ZM48.6104 52.0046L48.3884 52.0942H48.8324L48.6104 52.0046ZM42.4796 51.919L41.9943 51.9927L43.06 51.9909L42.4796 51.919ZM44.1701 51.7528H43.4596V51.9305H44.1701V51.7528ZM45.8553 51.829L45.5466 51.9099L46.257 51.9063L45.8553 51.829ZM50.9194 51.6516L50.5198 51.7286H51.319L50.9194 51.6516ZM51.7187 51.6509L51.4078 51.7322H52.0295L51.7187 51.6509ZM39.5965 51.5039L39.2413 51.4987L38.8861 51.6514L39.1525 51.6462L39.5965 51.5039ZM52.3382 51.5624L52.0295 51.6433L52.7399 51.6397L52.3382 51.5624ZM54.1941 51.5565L54.0868 51.6639L54.4273 51.6499L54.1941 51.5565ZM33.4823 51.4714L33.72 51.3244L32.4297 51.3443L33.1083 51.5306L34.0017 51.5491L33.4823 51.4714ZM56.2034 51.2321L55.8482 51.2373L56.2922 51.3796L56.5586 51.3848L56.2034 51.2321ZM34.2237 51.0419L33.5576 51.0703L34.1383 51.1422L34.0356 51.3085H34.2237V51.0419ZM34.8749 51.1307H34.3125V51.3118L34.8009 51.1946L34.8749 51.1307ZM35.1118 51.2048L34.8897 51.2944H35.3338L35.1118 51.2048ZM29.2949 50.7135L29.739 50.6217L28.6733 50.626L29.2505 50.6977V50.8641L29.739 50.8464L29.2949 50.7135ZM33.6798 50.7568L33.5724 50.8641L33.9129 50.8501L33.6798 50.7568ZM27.8296 50.6263L27.1636 50.6172L27.6076 50.7575L27.8296 50.7753V50.6263ZM30.849 50.405L30.627 50.4946H31.0711L30.849 50.405ZM26.4083 50.1976L25.7426 50.1594L26.2755 50.4054L26.4087 50.4198L26.4083 50.1976ZM30.849 50.0643H30.6714V50.2526L30.849 50.1427V50.0643ZM28.4402 49.7792L28.3328 49.8866L28.6733 49.8726L28.4402 49.7792ZM29.4281 49.7279L29.1472 49.62L28.9397 49.6257L29.2845 49.8866H29.4281V49.7279ZM29.7834 49.7829L29.5613 49.8726H30.0054L29.7834 49.7829ZM23.0229 49.3349L22.9156 49.4423L23.256 49.4283L23.0229 49.3349ZM22.8564 49.1757H22.6788V49.3639L22.8564 49.2541V49.1757ZM24.2773 49.1757H24.0892L24.199 49.3534H24.2773V49.1757ZM23.5635 49.162L23.3449 49.2505L23.8777 49.2439L23.5635 49.162ZM26.22 49.0683L26.1127 49.1757L26.4531 49.1617L26.22 49.0683ZM21.4355 48.7042V48.5667L21.6575 48.4907L21.2752 48.5527L20.7251 48.4426V48.1982H20.5632L20.6086 48.5092L20.9277 48.5715L21.4799 48.9084L21.8351 48.8971L21.4355 48.7042ZM25.9225 48.5692L25.7948 48.6482L25.8848 48.8828L26.3439 48.7949L25.9225 48.5692ZM22.1564 48.4648H21.8795V48.6425H22.0467L22.1564 48.4648ZM24.5437 48.3949L24.2773 48.2926V48.4648H24.5437V48.3949ZM20.2049 47.9316L20.059 47.9139L20.503 47.7716L19.9314 47.7539L20.0365 48.0279L19.5861 47.9462L19.227 47.7539L19.0821 47.7619L19.8814 48.1902L19.9385 48.1982L20.2049 47.9316ZM22.9341 47.6465L22.8268 47.7539L23.1672 47.7398L22.9341 47.6465ZM22.9194 47.3057L22.8268 47.3984L22.9008 47.4586L23.6113 47.7447L23.8777 47.7521L22.9194 47.3057ZM22.4124 47.3984H22.2243L22.3341 47.5761H22.4124V47.3984ZM18.5937 47.2799L18.478 47.3956L18.2504 47.0874L18.0164 47.3201L18.3564 47.1905L18.2374 47.3832L18.4605 47.4732L18.5937 47.4873V47.2799ZM21.5138 46.8652H21.4355V47.0429H21.6236L21.5138 46.8652ZM17.1906 46.4091L17.1094 46.3278L16.8186 46.4395L16.9168 46.5986H17.0735L17.1906 46.4091ZM20.0923 46.2247L19.985 46.332L20.3254 46.318L20.0923 46.2247ZM21.1247 46.262L20.167 45.6997L19.9702 45.9138L20.1922 45.7884V46.0599L20.4878 45.9464L20.3593 46.1543L20.5918 46.1679L20.9189 46.2298L21.0211 46.332H21.1987L21.1247 46.262ZM16.1515 45.7656L16.4623 45.8821V45.6149L16.1112 45.8029L15.7519 45.5784V45.4434H15.5045L15.4057 45.1858L15.7075 45.2989L15.441 44.9658L15.7519 45.0823V44.8895L15.441 44.9874L14.997 45.1033L15.2634 44.9129L14.8638 44.9102L14.8358 44.5992L14.8366 44.4214L14.4263 44.3962L14.142 44.1118L14.2291 43.9708H13.9L14.0027 44.1548L14.2865 44.4863L14.6862 44.6392L14.6991 44.8658L16.1515 46.0611L16.3953 46.0654L16.1515 45.7656ZM19.0335 44.7562L18.7044 44.4582L18.5895 44.7579L18.6825 44.851V44.6436H18.8791L18.7769 44.9102H18.9384L19.0335 44.7562ZM13.7876 43.6661H13.61L13.7198 43.8438H13.8974L13.7876 43.6661ZM14.2422 43.4884H14.0541L14.1638 43.6661H14.2422V43.4884ZM17.6168 43.3847V43.1273L17.3664 43.0312L17.2635 42.6209L16.9064 42.5275V42.7774H17.1301L17.3545 43.137L17.1864 43.4512L17.8388 43.4639L17.6168 43.3847ZM17.3504 43.2218H17.4287L17.5385 43.3995H17.3504V43.2218ZM12.6436 42.027V41.6222H12.466V41.7226L12.8558 42.6292L12.9233 42.4266L12.6436 42.027ZM16.9064 42.0012V41.9055L16.4637 42.111L16.4763 42.5553L16.5789 42.2887L16.9064 42.0012ZM12.6541 41.3556H12.4765L12.3667 41.5333H12.5443L12.6541 41.3556ZM12.3667 38.2009L12.488 38.5196L12.5874 38.4201L12.3667 38.2009ZM16.4623 38.1269L16.4763 38.4675L16.5696 38.2342L16.4623 38.1269ZM16.7267 37.3475L16.5511 37.456V37.0605L16.441 37.1707L16.5545 37.6233H16.6209L16.7267 37.3475ZM12.8212 37.2382L12.8353 37.5789L12.9286 37.3456L12.8212 37.2382ZM13.3444 36.5176L13.1792 36.7791L13.1765 36.9229L13.3541 36.813L13.3783 37.0457L13.4572 36.6305L13.3444 36.5176ZM17.2318 36.2464L17.156 36.4739L17.2603 36.7459L17.4397 36.635L17.2318 36.2464ZM13.8679 36.1126L13.9702 36.3792H14.1603L13.8043 35.9968L13.5317 36.2232L13.5437 36.5125L13.7365 36.1126H13.8679ZM17.6168 36.1214L17.8388 35.9793L18.0695 35.6841L17.8788 35.5662L17.9276 35.7917L17.3948 35.8913L17.3386 36.3792H17.6168V36.1214ZM14.2696 35.8185L14.0645 35.9453V35.8605L14.1781 35.5645L14.3231 35.7993L14.2919 35.3848L13.8844 35.8589L13.9862 36.0237H14.1429L14.2696 35.8185ZM17.3504 35.6683H17.1623L17.2721 35.846H17.3504V35.6683ZM14.7574 35.0346L14.4198 35.3404V35.566L14.8491 35.1832L14.7574 35.0346ZM14.8638 35.3912L14.6862 35.501V35.5794H14.8638V35.3912ZM18.9529 34.8132L18.8386 34.6989L18.1428 35.4456L17.9748 35.1795L17.972 35.2983L18.0799 35.5794H18.1189L18.9529 34.8132ZM15.323 34.6896L15.4727 34.7822L15.5862 34.4242H15.7519L15.7075 34.2177L16.1515 34.0864L15.9843 34.0687L16.3291 33.8078L16.2038 33.8021L15.5515 34.2451L15.1553 34.6463L14.7306 34.967L15.2621 34.8724L15.323 34.6896ZM19.7038 34.2181L19.4006 34.3268L19.5662 33.891H19.3885L19.2846 34.4111L19.0086 34.3051L19.137 34.513H18.8496L18.9553 34.6841L19.615 34.3162L19.7038 34.2181ZM18.7693 34.2372L18.5937 34.3458V34.513H18.6635L18.7693 34.2372ZM20.3698 33.6244H20.2277L20.0146 33.8377V33.5059L19.9038 33.6167L20.0037 33.8772L20.3698 33.7814V33.6244ZM16.9952 33.2689H16.8176V33.4466H16.9952V33.2689ZM21.2796 33.0023H20.8287L20.7391 32.7802L20.7251 33.0079L20.9905 33.1098L20.8922 33.2689H21.0585L21.2796 33.0023ZM21.5243 32.8246H21.2474L21.3572 33.0023H21.5243V32.8246ZM18.3149 32.5738L18.6381 32.3857L18.4605 32.3866L18.0341 32.623L18.3717 32.8192L18.6381 32.8189L18.3149 32.5738ZM23.0562 32.1432L22.3408 32.1581L22.4236 32.2927L22.146 32.3993V32.558L22.2792 32.55L23.0562 32.1432ZM19.4296 31.943L19.0377 32.0455V32.1987L19.4825 31.9959L19.4296 31.943ZM20.0146 31.9415L19.7482 32.0438V32.1137H20.0146V31.9415ZM20.0146 31.8281V31.6694H19.7699L19.5488 31.9359H19.7337L20.0146 31.8281ZM23.7445 31.4028H23.5669V31.591L23.7445 31.4811V31.4028ZM21.8795 31.3009L21.5687 31.3821H22.1904L21.8795 31.3009ZM26.3643 30.6754L25.9203 30.7783L25.6982 30.7807V30.9584H25.8555L26.3643 30.6754ZM25.4207 30.6733L25.3134 30.7807L25.6538 30.7667L25.4207 30.6733ZM24.2773 30.3259L24.0997 30.4357V30.6918H24.2773V30.3259ZM23.7295 30.361L24.1364 30.2546L24.0553 30.1839L23.3841 30.2676L23.5886 30.5141L23.9665 30.5114L23.7295 30.361ZM28.0976 30.0843L27.5505 29.964L27.4448 30.0698H27.8296V30.2475H27.9967L28.0976 30.0843ZM27.1191 29.992L26.7762 30.0178L26.8632 30.1587H27.1191V29.992ZM26.1312 29.8735L26.0239 29.9809L26.3643 29.9669L26.1312 29.8735ZM29.4093 29.2533L29.237 29.4257L29.739 29.3233L29.4093 29.2533ZM29.1173 29.1127L28.5845 29.1133L28.0516 29.249L28.4068 29.2598L29.1173 29.1127ZM32.2699 28.9886L32.0479 29.0782H32.492L32.2699 28.9886ZM34.3979 28.5454L34.1793 28.6339L34.7121 28.6273L34.3979 28.5454ZM33.5132 28.3814H33.3502L33.0248 28.2686L33.38 28.5534L33.5132 28.5591V28.3814ZM39.2265 27.7593L38.0868 27.762L38.3254 27.9133L39.1525 27.8245L39.2265 27.7593ZM37.776 27.7345V27.5631L36.3107 27.6883L36.133 27.8681L36.5488 27.7422L37.776 27.7345ZM41.5926 27.6578L41.2838 27.7387L41.9943 27.7351L41.5926 27.6578ZM44.1257 27.4954L42.8824 27.5083L41.9943 27.6537L44.3284 27.626L44.1257 27.4954ZM45.591 27.5714L44.8361 27.6394H46.3458L45.591 27.5714ZM47.5336 27.5631L47.4263 27.6704L47.7667 27.6564L47.5336 27.5631ZM41.1395 27.3853L41.0322 27.4927L41.3727 27.4787L41.1395 27.3853ZM46.5679 27.3908L46.257 27.4721H46.8787L46.5679 27.3908ZM42.3939 52.4513L42.7936 52.5284H41.9943L42.3939 52.4513ZM52.2404 52.0009L52.4735 52.0942L52.1331 52.1082L52.2404 52.0009ZM53.4084 51.3853L53.8056 51.462L52.9175 51.4596L53.4084 51.3853ZM53.9277 51.2899L54.1608 51.3833L53.8204 51.3973L53.9277 51.2899ZM28.8953 51.0271L29.1173 51.1167H28.6733L28.8953 51.0271ZM59.9788 50.5239L59.7557 50.4423L60.8974 50.4621L60.1997 50.6727L59.8784 50.6864L59.9788 50.5239ZM60.6437 50.2546H60.9102L61.2654 50.4073H60.999L60.6437 50.2546ZM61.3098 50.1652L61.6784 50.0481L61.7931 50.1629L61.5318 50.3282L61.3098 50.3309V50.1652ZM25.1654 50.1739L25.5209 50.0809L25.4213 50.2421H25.1654V50.1739ZM61.8321 49.9755H62.4538L62.5654 49.7949L62.7653 49.9185L62.1535 50.1397L61.9419 50.1532L61.8321 49.9755ZM62.9083 49.7296L63.3524 49.6447V49.7978H62.9083V49.7296ZM63.5404 49.5312L63.8408 49.5339L63.5744 49.7062L63.4307 49.7089L63.5404 49.5312ZM27.8967 49.1757L28.0516 49.182L28.4957 49.436L28.1178 49.4423L27.8967 49.1757ZM26.4531 48.7341L26.6307 48.7439L26.9859 48.8966L26.7195 48.9064L26.4531 48.7341ZM24.2641 45.8373L23.256 45.8433L22.3679 45.4091L21.4675 44.491L21.1531 43.8276L21.0484 43.1773L20.9951 35.4537L21.289 35.0018L21.5686 34.7855L22.3979 34.7796L22.6788 34.8875V35.1351H22.9262L23.034 35.4162L23.035 42.6443L23.2235 43.3234L23.8076 43.9771L23.7366 44.1788H24.6118L24.8857 44.3326L31.8704 44.2104L32.7667 44.1684L32.8013 43.7495L32.4427 43.9416L32.5241 44.0735L32.1982 44.0981L32.9611 43.3347L33.0834 42.7774H33.361L33.2491 41.7057L33.1311 35.3262L33.6772 34.7798L34.1794 34.7973L33.7353 34.9396L34.0485 34.9574L34.3809 34.7496L34.9217 34.9737L35.2006 35.562L35.1591 42.9996L35.0644 35.535L35.021 42.5553L34.9194 43.2662L35.109 42.9996L35.1118 43.5877L34.9151 43.4661L35.029 43.8251L34.7354 44.1189L34.8445 44.228L34.372 44.8658L33.9129 45.3165L33.3888 45.6486L32.7584 45.6356L33.1071 45.7701L32.6696 45.879L24.3422 45.892L24.1611 46.004L24.2641 45.8373ZM23.5669 45.6211L23.0784 45.6336L23.4337 45.7864L23.5669 45.7988V45.6211ZM32.5364 45.6952L32.3144 45.7848H32.7584L32.5364 45.6952ZM24.0109 45.6081L23.7001 45.6894H24.3217L24.0109 45.6081ZM22.8564 45.2966L22.3839 44.8658L22.4921 45.1677L22.1904 45.0734L22.4831 45.3164H22.8564V45.2966ZM33.9559 45.1158L33.4688 44.9073L33.766 45.1419L33.4688 45.3441L33.7579 45.3545L33.9559 45.1158ZM21.7907 44.5212V44.3826L22.0572 44.4849V44.2881L21.5243 44.229V44.3006L22.0899 45.1231L22.1587 44.9164L21.7907 44.5212ZM34.6621 44.1548L34.4013 44.4998L34.407 44.688L34.6677 44.343L34.6621 44.1548ZM21.3467 43.9031L21.3607 44.2437L21.454 44.0104L21.3467 43.9031ZM23.7674 43.9393L23.3308 43.7403L23.0047 42.949L22.8209 43.1329L23.034 43.3462V43.9432L23.2116 43.8333V44.0986L23.6961 44.0107L23.7674 43.9393ZM21.2579 43.4587L21.1513 43.5654L21.2904 43.7906L21.3652 43.5661L21.2579 43.4587ZM33.1426 43.0885L33.3329 43.3551V43.1773L33.1888 42.9501L32.9804 43.4079V43.4587H33.2225L33.1426 43.0885ZM33.4244 43.1921L33.4385 43.5328L33.5317 43.2995L33.4244 43.1921ZM21.1586 35.6683H21.3447L21.3975 42.9107L21.4155 35.0421L21.0873 35.4208L21.077 43.1L21.1987 43.2218L21.2135 43.2219L21.1586 35.6683ZM22.8968 35.2684V42.111L22.9491 38.6897L22.8968 35.2684ZM33.3356 35.5439V35.3912L33.5363 35.5153L33.454 35.2684H33.2912L33.2345 35.6683H33.4244L33.4649 39.2673L33.5171 35.7254L33.3356 35.5439ZM22.1439 34.8559L21.8351 34.9367L22.5456 34.9331L22.1439 34.8559ZM34.3902 34.85L34.2829 34.9574L34.6233 34.9433L34.3902 34.85ZM38.1519 45.6657L37.9535 45.2775L37.9696 44.8658L38.1465 45.4828L38.3295 45.1556L38.1254 45.0294L38.1756 35.2408L38.0424 35.3233L38.0284 35.6238L37.9421 35.4115L38.1605 35.0032L38.4733 35.7127L38.4864 35.3233L38.3088 35.2135V34.858L38.4742 34.9602L38.5857 34.7796L38.9749 34.7973L38.5308 34.9396H48.9212L48.4772 34.784L49.01 34.8433L49.3653 34.9741L49.0989 34.7742L49.6317 34.8866L50.7401 35.3916L51.6489 36.3009L51.5314 36.4185L51.3661 36.157L51.3634 36.3687L51.5565 36.4881L51.4688 36.8238L51.6298 36.7242V37.0901H51.8963V36.9019L51.739 36.9992L51.6455 36.5125L51.7035 36.4536L52.0096 37.0991L52.0339 38.7341L51.8667 39.1784L51.8392 39.2673L51.6059 39.7461L51.2805 39.3562L51.2746 39.591L51.5747 39.8893L51.061 39.9491L50.8161 40.2448L50.9138 39.9338H50.7418V40.467H50.8909L51.0932 40.0226L51.4078 40.0283L51.057 40.2936L51.2746 40.6423L51.2773 40.9557L51.4235 40.7251L51.6022 40.9557L51.7318 41.2223L51.4693 40.9006L51.3481 41.0968L51.5395 41.3275L51.4309 41.4362L51.5532 41.924L51.7091 41.6716L51.8222 41.9664L52.0321 41.8858L52.0295 43.4439L51.6298 43.7679V43.9976L51.2746 44.4495V44.5823L51.6634 44.2437L51.2341 44.8658L50.875 45.1819L50.0067 45.6948L49.4296 45.6011L49.0988 45.8025L49.8093 45.7112L49.2765 45.9237L38.5308 45.9773L38.1519 45.6657ZM43.6372 45.7962L38.442 45.8461H48.8324L43.6372 45.7962ZM43.3708 45.6184L38.2644 45.6684H48.4772L43.3708 45.6184ZM38.4864 45.1663L38.3088 45.2762V45.5323H38.4864V45.1663ZM50.5093 45.2657H50.3123L50.0412 45.1616L50.0691 45.5323L50.1645 45.5266L50.5093 45.2657ZM51.0526 44.9159L50.8179 44.9102L50.5515 45.1768H50.7078L51.0526 44.9159ZM50.2944 44.8965L50.0757 44.9851L50.6086 44.9785L50.2944 44.8965ZM49.4953 44.0335L50.0391 43.7121L50.3865 43.1228L50.3865 42.3262L50.0315 41.6301L49.1876 41.1336L40.1365 41.0799L39.9213 40.9011L39.9014 44.2033L49.5924 44.1907L49.4953 44.0335ZM51.3427 43.8438H51.2746V44.1993H51.4356L51.3427 43.8438ZM50.1331 43.8544L50.431 43.966L50.1927 43.6728L49.6761 44.055V44.1104H49.9208L50.1331 43.8544ZM50.4754 43.2113L50.2977 43.3211L50.3005 43.7105L50.4726 43.4439L50.4754 43.2113ZM50.3604 41.9332L50.4754 42.2588L50.5089 43.1773L50.5738 42.1295L50.3604 41.9332ZM51.4522 41.8888H51.2746V42.0665H51.4522V41.8888ZM50.4754 41.6305L49.8474 41.3323L49.7353 41.4445H50.0109L50.3055 41.8945L50.4754 41.7894V41.6305ZM49.5839 40.8224H49.8537V40.6447H49.6866L49.5768 40.8224H49.2216L49.3313 41.0001H49.1432V40.8475L40.6622 40.8186L40.4569 40.9557L47.9444 40.8977L49.4176 41.1189L49.509 41.2667H49.6954L49.5839 40.8224ZM40.529 39.6672H40.2626V39.8153L40.381 39.9338H40.529V39.6672ZM44.8039 39.8417L40.5734 39.8927L48.9212 39.8928L44.8039 39.8417ZM49.8537 39.7941H49.5115L49.5978 39.9338H49.8537V39.7941ZM48.6161 39.5783L49.2386 39.8386L49.1461 39.6888L49.7205 39.5545L49.8537 39.5783V39.3253L49.3098 39.5969L49.2176 39.5046L49.8743 39.193L50.3865 38.4855V37.6147L50.1265 37.1113L49.5873 36.6573V36.5569H49.7223L50.1645 36.9929L50.4133 37.289L50.5593 37.8455L50.4697 37.2234L50.4712 36.8505L50.065 36.4687L49.0989 36.3935L49.5429 36.5392L49.1729 36.5569L49.0792 36.4632L39.9019 36.4236L39.9212 39.8893L40.149 39.5783L48.6161 39.5783ZM51.7187 39.2158L51.4709 39.445L51.5632 39.5973L51.7159 39.3562L51.7187 39.2158ZM50.4884 38.7187L50.5583 37.9343L50.4209 38.5564L50.0798 39.0896L49.8981 39.2364L50.1537 39.1672L50.4884 38.7187ZM51.7187 38.9458L51.541 39.0556V39.134H51.7187V38.9458ZM51.6298 38.5903L51.4522 38.7002V38.7785H51.6298V38.5903ZM51.2746 36.7939L51.2886 37.1345L51.3819 36.9013L51.2746 36.7939ZM51.1656 36.0022L50.875 35.6549L50.5718 35.4884L50.8119 36.0682L51.2282 36.2834L51.4078 36.0904L51.1656 36.0022ZM49.9235 35.4017H50.1985L50.2922 35.2499L49.8715 35.0581V35.6683H50.0257L49.9235 35.4017ZM56.9556 45.7861L57.0762 45.5909L56.7555 45.714L57.0027 45.4093L56.7505 45.5614L56.8582 45.2804L56.62 45.1889L56.6665 45.6126L56.2034 45.3724L55.4333 44.5992L55.1161 43.9771L54.9971 43.5328L55.2832 43.9771L55.1704 43.6217L55.1841 35.535L55.2951 35.0906L55.0489 35.3215L54.9546 42.8219L54.9157 35.3227L55.3312 34.8393L55.476 35.0737L55.273 34.9481L55.3862 35.2434L55.5462 34.9573L56.381 34.9284L55.4041 34.8086L56.2394 34.7798L56.6625 34.9725L56.9536 35.4657L56.9684 43.4302L57.1717 43.7994L57.2124 44.0448L57.3993 44.2319L57.4869 44.1443L57.1253 43.4693L57.2205 43.3741L57.3359 43.6749L57.9795 44.1262L57.5355 43.9995L57.6693 44.1406L58.3348 44.217L67.5421 44.3328L67.8837 44.7551L67.9848 45.1576L67.6954 45.7176L67.2329 45.8935L67.0378 45.8218L67.6595 45.6218L66.9634 45.7037L66.8478 45.8909L57.8019 45.8329L57.2691 45.7075L57.6243 45.8752L57.3579 45.8635L56.9556 45.7861ZM67.8815 44.9991H67.7039L67.7066 45.4878L67.8788 45.2212L67.8815 44.9991ZM56.0258 44.9166L56.2774 44.9102L56.1844 44.8171L55.888 44.9309L56.1084 45.1967L56.4698 45.3432L56.5586 45.3536L56.0258 44.9166ZM67.0711 44.8028L66.9638 44.9102L67.3043 44.8962L67.0711 44.8028ZM67.7927 44.76L67.4819 44.4857L66.9046 44.3629V44.5325H67.3313L67.7483 44.8416L67.3487 44.7491V44.9102H67.7927V44.76ZM56.1013 44.1594L55.9913 44.5803L56.179 44.3926L56.1013 44.1594ZM55.715 44.2881H55.3493L55.4542 44.4581L55.715 44.358V44.2881ZM55.4485 43.4587L55.4626 43.7994L55.5558 43.5661L55.4485 43.4587ZM55.5493 35.6738L55.3862 35.3822L55.273 35.6775L55.4542 35.5654L55.3867 42.9107L55.2503 43.5328L55.4929 43.3019L55.5493 35.6738ZM56.4227 35.535L56.2505 35.2684L56.2478 35.6683H56.4254L56.4227 35.535ZM56.8694 35.4843L56.5826 35.0462H56.3366L56.7056 35.4154L56.62 35.6386H56.8694V35.4843ZM51.7482 43.8883L51.9851 43.5377V43.6749L51.7141 44.1993H51.6354L51.7482 43.8883ZM54.9157 43.3699L54.927 42.9107L55.0984 43.3398L55.0452 43.4995L54.9157 43.3699ZM52.0739 42.3924L52.1812 42.4997L52.0879 42.733L52.0739 42.3924ZM51.7462 41.5778L51.6295 41.2223L51.9851 41.6419V41.7999H51.918L51.7462 41.5778ZM12.036 39.6227L12.1245 39.8415L12.0426 40.1559L12.036 39.6227ZM52.0981 37.5789L52.175 37.9787L52.0981 38.3786V37.5789ZM43.8273 34.7767L48.4772 34.8271L39.0637 34.8271L43.8273 34.7767ZM24.0553 31.5922L24.5882 31.4666L24.4993 31.5618L23.7889 31.8554L24.0553 31.5922ZM58.4644 30.0769L57.9351 29.497L57.9388 29.2256L58.1755 28.1592L58.3006 27.8037L57.8543 28.6035L57.8463 28.3778L58.2893 27.6757L58.8397 27.3907L58.9401 27.4912L59.1765 27.2948L59.7675 27.4058L60.5059 27.8849L60.7769 28.5627L60.7769 29.1902L60.5273 29.6701L60.1109 30.0528L59.4232 30.3364L59.0452 30.3294L58.4644 30.0769ZM59.7557 30.0753L58.9952 30.1326L58.9015 29.9809L58.6012 29.9872L59.0452 30.2412L59.4004 30.235L59.7557 30.0753ZM60.3141 29.6255H60.4915L60.6035 29.3334L60.5105 29.2404V29.4477H60.2441L59.9197 29.7723L59.8056 30.0698H59.9648L60.3141 29.6255ZM58.0874 29.2657L58.0095 29.3437L58.2313 29.7583L58.3072 29.5306L58.0874 29.2657ZM58.2904 28.5295L58.1853 28.6346L58.3282 29.0478L58.3935 28.6327L58.2904 28.5295ZM60.6881 28.4347L60.4929 28.6301L60.6113 29.0034H60.6881V28.4347ZM59.0889 27.7149L58.4236 27.688L58.7788 27.8357L59.0896 27.8482L59.0889 27.7149ZM59.9281 27.599L59.1558 27.3909L58.9653 27.5816L59.6669 27.5843L59.4004 27.771L59.7965 27.6596L60.1109 27.8428L60.2836 27.8482L59.9281 27.599ZM30.8934 29.3616L31.3227 29.3589L31.2487 29.4222L30.627 29.5364L30.8934 29.3616ZM33.0797 28.8257H33.8093L33.7353 28.8898L32.9673 29.0076L33.0797 28.8257ZM57.7575 28.8257H57.8358L57.9456 29.0034H57.7575V28.8257ZM57.3024 28.5406L57.5355 28.6339L57.1951 28.648L57.3024 28.5406ZM55.6706 28.305L56.0258 28.2952L56.2922 28.4675L56.0258 28.4577L55.6706 28.305ZM54.3385 28.2098L53.5392 28.1314L51.7142 28.0027L52.183 27.7593L52.4735 27.762L52.2071 27.9474L53.1204 27.8341L53.2353 28.0201L53.7612 27.9148V28.1355L54.2423 28.0435L55.4041 28.2224L55.6706 28.376L55.4041 28.3581L54.3385 28.2098ZM52.7732 27.9185L52.6659 28.0259L53.0064 28.0119L52.7732 27.9185ZM39.2857 28.0135L39.6853 28.0906H38.8861L39.2857 28.0135ZM40.3538 27.925L40.751 28.0017L39.8629 27.9993L40.3538 27.925ZM51.0119 27.8372L50.9089 27.6704L51.5854 27.6829L51.2302 27.826L51.6743 27.8962L50.3421 27.903L51.0119 27.8372ZM51.7964 27.7408L52.0295 27.8341L51.689 27.8482L51.7964 27.7408ZM35.467 27.6556L35.689 27.7453H35.245L35.467 27.6556ZM43.6307 27.2171L44.6585 27.2814L42.7048 27.2821L43.6307 27.2171Z" fill="white"/>
</svg>
