<svg xmlns="http://www.w3.org/2000/svg" width="80" height="80" fill="none" viewBox="0 0 80 80"><rect width="80" height="80" fill="#010001" rx="8"/><path fill="#ff9803" d="M47.7 47.871c-3.705 2.74-9.094 4.2-13.742 4.2-6.512 0-12.35-2.403-16.797-6.4-.337-.315-.045-.74.377-.494 4.778 2.785 10.688 4.446 16.796 4.446a33.4 33.4 0 0 0 12.825-2.627c.629-.251 1.145.426.54.88z"/><path fill="#ff9803" d="M44.916 45.963c1.19-.157 3.862-.472 4.334.134.476.63-.54 3.123-.988 4.246-.135.336.157.475.471.223 2-1.66 2.516-5.164 2.111-5.658s-3.88-.948-6.017.56c-.337.226-.27.54.089.495"/><path fill="#fff" fill-rule="evenodd" d="M57.85 32.894c2.942 0 4.537 2.514 4.537 5.725 0 3.1-1.754 5.57-4.537 5.57-2.875 0-4.446-2.515-4.446-5.659-.022-3.166 1.571-5.636 4.446-5.636m-28.41 0a2.79 2.79 0 0 1 2.29 1.122c.628.854.494 2.089.494 3.19v6.422a.377.377 0 0 1-.377.358h-1.954a.385.385 0 0 1-.36-.358v-5.39c0-.427.045-1.508-.044-1.908-.157-.674-.584-.88-1.168-.88a1.32 1.32 0 0 0-1.19.83c-.202.517-.179 1.37-.179 1.954v5.39a.38.38 0 0 1-.377.36h-1.982a.386.386 0 0 1-.359-.36v-5.386c0-1.123.18-2.807-1.213-2.807-1.414 0-1.369 1.617-1.369 2.807v5.39a.395.395 0 0 1-.405.337h-1.974a.41.41 0 0 1-.36-.337V33.477a.38.38 0 0 1 .377-.359h1.84a.367.367 0 0 1 .36.337v1.324h.045c.472-1.28 1.393-1.885 2.605-1.885 1.235 0 2.021.605 2.56 1.885.47-1.28 1.571-1.885 2.74-1.885m22.415.202a.377.377 0 0 1 .377.36v1.234c0 .203-.18.472-.494.92l-3.369 4.806c1.258-.023 2.583.158 3.706.786a.67.67 0 0 1 .337.56v1.551c0 .224-.225.472-.472.337-1.997-1.056-4.67-1.167-6.87.022-.226.113-.472-.112-.472-.336v-1.482c-.02-.348.067-.693.25-.989l3.909-5.592h-3.395a.377.377 0 0 1-.378-.359v-1.459a.34.34 0 0 1 .218-.337.34.34 0 0 1 .14-.022zm5.995 1.886c-1.46 0-1.55 1.998-1.55 3.234s-.022 3.884 1.527 3.885c1.528 0 1.617-2.138 1.617-3.436 0-.854-.045-1.886-.292-2.694-.225-.72-.674-.99-1.302-.99M38.736 32.8c.965 0 2.223.252 2.986.987.966.9.88 2.112.88 3.414v3.077c0 .92.377 1.324.74 1.841.135.18.157.405 0 .517-.426.337-1.145.965-1.548 1.302v.004a.4.4 0 0 1-.471.044c-.651-.538-.787-.807-1.145-1.324-1.077 1.1-1.865 1.438-3.257 1.438-1.66 0-2.963-1.034-2.963-3.078 0-1.617.88-2.694 2.11-3.234 1.078-.471 2.582-.56 3.727-.695v-.251c0-.472.046-1.033-.25-1.438-.252-.358-.698-.515-1.101-.515-.765 0-1.438.377-1.595 1.19-.045.179-.157.358-.337.358l-1.908-.202c-.157-.045-.337-.157-.293-.403.45-2.336 2.539-3.032 4.425-3.032m30.434.093c.88 0 1.752.315 2.314 1.191.515.808.516 2.178.516 3.166v6.4a.38.38 0 0 1-.377.315h-1.985a.41.41 0 0 1-.36-.315v-6.426c-.026-.929-.207-1.838-1.234-1.838-.47 0-.92.313-1.145.807-.27.629-.314 1.237-.314 1.932v5.48a.41.41 0 0 1-.404.36h-1.976a.39.39 0 0 1-.36-.36V33.433a.39.39 0 0 1 .377-.337h1.85a.39.39 0 0 1 .36.292v1.549h.044c.56-1.392 1.325-2.044 2.694-2.044m-29.376 5.794c-1.433 0-2.942.315-2.942 1.999 0 .853.449 1.437 1.212 1.437.56 0 1.056-.338 1.37-.898.382-.697.36-1.348.36-2.11zM12.78 32.8c.964 0 2.223.252 2.986.987.965.9.88 2.111.88 3.414v3.077c0 .92.377 1.324.742 1.841.134.18.156.405 0 .517-.428.337-1.146.965-1.551 1.302l-.001.004a.4.4 0 0 1-.472.044c-.651-.538-.786-.807-1.144-1.324-1.079 1.1-1.865 1.438-3.256 1.438C9.302 44.1 8 43.066 8 41.022c0-1.616.88-2.694 2.11-3.234 1.078-.471 2.583-.56 3.728-.695v-.251c0-.472.045-1.033-.252-1.438-.252-.358-.695-.515-1.1-.515-.763 0-1.437.377-1.594 1.19-.044.179-.157.358-.337.358l-1.909-.202c-.157-.045-.335-.157-.292-.403.45-2.336 2.538-3.032 4.425-3.032m1.08 5.888c-1.433 0-2.942.314-2.942 1.997 0 .854.45 1.438 1.214 1.438.56 0 1.055-.34 1.369-.898.382-.697.36-1.348.36-2.11z" clip-rule="evenodd"/></svg>