<svg xmlns="http://www.w3.org/2000/svg" width="80" height="80" fill="none" viewBox="0 0 80 80"><rect width="80" height="80" fill="#016fd0" rx="8"/><path fill="#fff" d="M35.895 68.4V43.815h26.13l2.803 3.64 2.896-3.64h12.274v5.181l-5.89 6.873 5.89 6.872v5.66H67.502l-2.8-3.72-2.842 3.72zM26 36.185 36.801 11.6h10.19l3.344 7.666V11.6h12.667l1.99 5.54 1.93-5.54h13.076v24.585H45.482l-1.565-3.875h-4.174l-1.554 3.875z"/><path fill="#016fd0" d="M39.056 65.265V46.856H54.13v4.118H43.724v3.149h10.163v3.876H43.724v3.27H54.13v3.996zm15.659 0 7.34-9.09-7.515-9.319h5.82l4.475 5.76 4.49-5.76h5.593l-7.416 9.205 7.353 9.204h-5.819l-4.345-5.67-4.24 5.67zM53.399 14.73v18.408h4.62V19.574l4.91 13.564h4.05l4.898-13.564v13.564h4.62V14.73h-7.295l-4.174 11.895-4.277-11.868z"/><path fill="#016fd0" fill-rule="evenodd" d="M38.887 14.733 30.939 33.14h5.175l1.466-3.686h8.525l1.459 3.686h5.288l-7.94-18.408zm5.539 10.725-2.599-6.441-2.606 6.441z" clip-rule="evenodd"/></svg>