<svg width="80" height="80" viewBox="0 0 80 80" fill="none" xmlns="http://www.w3.org/2000/svg">
<rect width="80" height="80" rx="8" fill="#016FD0"/>
<path d="M35.895 68.4V43.8149H62.0242L64.8276 47.4558L67.7239 43.8149H79.998V48.9962L74.1073 55.8687L79.998 62.7412V68.4002H67.5022L64.7027 64.6812L61.8603 68.4002L35.895 68.4Z" fill="white"/>
<path d="M26 36.185L36.8012 11.6001H46.9913L50.335 19.266V11.6001H63.0022L64.9928 17.1408L66.9227 11.6001H79.9983V36.1852H45.4817L43.9165 32.3097H39.7426L38.1889 36.185H30.9089H26Z" fill="white"/>
<path d="M39.0559 65.2649V46.8564H54.1299V50.9741H43.7239V54.123H53.8868V57.9985H43.7239V61.2684H54.1299V65.2649H39.0559ZM54.715 65.2649L62.0545 56.1743L54.5402 46.8564H60.3603L64.8354 52.6166L69.3259 46.8564H74.9179L67.5024 56.0607L74.8553 65.2649H69.0364L64.6911 59.5956L60.4515 65.2649H54.715Z" fill="#016FD0"/>
<path d="M53.3987 14.7295V33.1379H58.0182V19.5738L62.9286 33.1379H66.9798L71.8767 19.5738V33.1379H76.4961V14.7295H69.2021L65.0279 26.6253L60.7513 14.7567L53.3987 14.7295Z" fill="#016FD0"/>
<path fill-rule="evenodd" clip-rule="evenodd" d="M38.8868 14.7326L30.9395 33.1411H36.1136L37.58 29.4548H46.1048L47.5635 33.1411H52.8518L44.9117 14.7326H38.8868ZM44.4256 25.4583L41.8271 19.0167L39.2212 25.4583H44.4256Z" fill="#016FD0"/>
</svg>
