<svg xmlns="http://www.w3.org/2000/svg" width="80" height="80" fill="none" viewBox="0 0 80 80"><rect width="80" height="80" fill="#010101" rx="8"/><path fill="#fff" d="M51.272 38.06c.067 6.053 5.494 8.063 5.539 8.085-.045.134-.871 2.88-2.859 5.695-1.72 2.434-3.506 4.868-6.32 4.913-2.77.045-3.663-1.586-6.812-1.586-3.171 0-4.154 1.541-6.767 1.63-2.724.09-4.779-2.635-6.52-5.069-3.552-4.958-6.254-14.025-2.614-20.144 1.81-3.037 5.047-4.958 8.554-5.025 2.657-.044 5.181 1.742 6.811 1.742s4.69-2.144 7.906-1.831c1.34.045 5.137.536 7.549 3.975-.201.112-4.511 2.546-4.467 7.615M46.07 23.188c1.451-1.697 2.412-4.042 2.144-6.387-2.077.09-4.601 1.34-6.075 3.037-1.34 1.496-2.501 3.886-2.189 6.186 2.323.179 4.69-1.139 6.12-2.836"/></svg>