<svg xmlns="http://www.w3.org/2000/svg" width="80" height="80" fill="none" viewBox="0 0 80 80"><rect width="80" height="80" fill="#41b6e6" rx="8"/><path fill="#fff" d="M54.245 35.962H51.19l-.056-.245c4.217-1.206 5.916-3.7 5.916-6.588 0-3.707-2.797-6.324-7.412-6.33H39.7l-3.342 5.773h8.188c2.313 0 4.351.582 4.351 3.226 0 3.152-2.902 4.18-5.87 4.18H32.07l-3.397 5.874h10.58c3.683 0 4.625 1.596 4.625 3.468 0 2.384-1.529 4.494-5.639 4.494H24.06L20.02 56.8h20.054c8.068 0 12.127-3.742 12.127-8.809 0-3.423-1.853-5.174-4.484-5.898l.065-.265h12.2v-.556c0-3.157-1.776-5.312-5.736-5.307z"/></svg>