<svg xmlns="http://www.w3.org/2000/svg" width="80" height="80" fill="none" viewBox="0 0 80 80"><rect width="80" height="80" fill="#030303" rx="8"/><path fill="#fff" d="M25.536 34.402a4.2 4.2 0 0 0 4.196-4.201A4.2 4.2 0 0 0 25.536 26a4.2 4.2 0 0 0-4.197 4.2 4.2 4.2 0 0 0 4.197 4.202m7.506-7.042h4.67v26.626h-4.67zm8.808 9.172h4.728v17.395h-4.729z"/><path fill="#fff" d="M20.866 36.354a8.7 8.7 0 0 0-4.196 1.065V27.361H12v17.868a8.86 8.86 0 0 0 8.866 8.876 8.86 8.86 0 0 0 8.866-8.876 8.86 8.86 0 0 0-8.866-8.875m0 13.135a4.24 4.24 0 0 1-4.256-4.26 4.24 4.24 0 0 1 4.256-4.26 4.24 4.24 0 0 1 4.256 4.26 4.24 4.24 0 0 1-4.256 4.26"/><path fill="url(#a)" d="M25.536 34.402a4.2 4.2 0 0 0 4.196-4.201A4.2 4.2 0 0 0 25.536 26a4.2 4.2 0 0 0-4.197 4.2 4.2 4.2 0 0 0 4.197 4.202"/><path fill="#fff" d="M33.042 27.36h4.67v26.626h-4.67zm8.808 9.172h4.728v17.395h-4.729zm-20.984-.178a8.7 8.7 0 0 0-4.196 1.065V27.361H12v17.868a8.86 8.86 0 0 0 8.866 8.876 8.86 8.86 0 0 0 8.866-8.876 8.86 8.86 0 0 0-8.866-8.875m0 13.135a4.24 4.24 0 0 1-4.256-4.26 4.24 4.24 0 0 1 4.256-4.26 4.24 4.24 0 0 1 4.256 4.26 4.24 4.24 0 0 1-4.256 4.26m41.105 4.428H68l-7.27-9.349 6.56-8.046h-5.496l-6.384 8.105V27.351h-4.67v26.625h4.67v-9.29z"/><defs><linearGradient id="a" x1="22.569" x2="28.542" y1="33.129" y2="27.247" gradientUnits="userSpaceOnUse"><stop stop-color="#e52f08"/><stop offset="1" stop-color="#e94f96"/></linearGradient></defs></svg>