<svg xmlns="http://www.w3.org/2000/svg" width="80" height="80" fill="none" viewBox="0 0 80 80"><rect width="79" height="79" x=".5" y=".5" fill="#fff" rx="7.5"/><rect width="79" height="79" x=".5" y=".5" stroke="#eee" rx="7.5"/><mask id="a" width="40" height="36" x="20" y="22" maskUnits="userSpaceOnUse" style="mask-type:luminance"><path fill="#fff" d="M20 22.8h40v34.342H20z"/></mask><g mask="url(#a)"><path fill="#004c97" fill-rule="evenodd" d="M37.438 57.142C27.873 57.185 20 49.49 20 40.12c0-10.24 7.873-17.323 17.438-17.321h4.483C51.374 22.797 60 29.876 60 40.119c0 9.366-8.627 17.023-18.078 17.023z" clip-rule="evenodd"/></g><mask id="b" width="36" height="36" x="20" y="22" maskUnits="userSpaceOnUse" style="mask-type:luminance"><path fill="#fff" d="M20 22.8h35.414v34.342H20z"/></mask><g mask="url(#b)"><path fill="#004c97" fill-rule="evenodd" d="M37.438 57.142C27.873 57.185 20 49.49 20 40.12c0-10.24 7.873-17.323 17.438-17.321h.251c9.45-.002 17.725 7.077 17.725 17.32 0 9.366-8.275 17.023-17.725 17.023z" clip-rule="evenodd"/></g><path fill="#fefefe" fill-rule="evenodd" d="M37.477 24.22c-8.741.003-15.824 7.039-15.824 15.721 0 8.68 7.083 15.715 15.824 15.716s15.825-7.036 15.828-15.716c-.003-8.683-7.087-15.719-15.828-15.72" clip-rule="evenodd"/><path fill="#004c97" fill-rule="evenodd" d="M33.884 49.236V30.642c-3.762 1.44-6.429 5.055-6.438 9.299.009 4.242 2.677 7.86 6.438 9.295M47.51 39.94c-.008-4.246-2.679-7.866-6.444-9.3v18.6c3.765-1.437 6.437-5.053 6.444-9.3" clip-rule="evenodd"/></svg>