<svg xmlns="http://www.w3.org/2000/svg" width="80" height="80" fill="none" viewBox="0 0 80 80"><rect width="79" height="79" x=".5" y=".5" fill="#fff" rx="7.5"/><rect width="79" height="79" x=".5" y=".5" stroke="#eee" rx="7.5"/><path fill="#71706f" d="M57.53 38.83h-4.465a.89.89 0 0 1-.896-.89c0-.496.4-.93.896-.93h6.793v-3.35h-6.793a4.31 4.31 0 0 0-4.3 4.301 4.31 4.31 0 0 0 4.3 4.3h4.402c.496 0 .896.393.896.89 0 .496-.4.861-.896.861h-9.439c-.799 1.53-1.577 2.84-3.162 3.494h12.663c2.33-.034 4.238-2.005 4.238-4.348 0-2.35-1.909-4.294-4.238-4.328"/><path fill="#71706f" d="M40.422 33.66c-3.782 0-6.862 3.102-6.862 6.906v14.37h3.424v-7.43h3.431c3.783 0 6.849-3.142 6.849-6.947.006-3.81-3.06-6.898-6.842-6.898m0 10.345h-3.438v-3.453c0-1.93 1.536-3.5 3.438-3.5s3.452 1.57 3.452 3.5a3.44 3.44 0 0 1-3.452 3.453"/><path fill="#b90466" d="M22.722 47.507c-3.238 0-5.96-2.31-6.697-5.321 0 0-.213-1-.213-1.654 0-.655.2-1.661.2-1.661.744-3.005 3.458-5.245 6.69-5.245 3.803 0 6.924 3.088 6.924 6.892v1.675h-10.1c.599 1.165 1.804 1.82 3.196 1.82h9.08l.015-9.863a2.68 2.68 0 0 0-2.674-2.674h-12.87c-1.467 0-2.673 1.165-2.673 2.64V46.99c0 1.468 1.206 2.708 2.673 2.708h12.87c1.316 0 2.419-.944 2.632-2.185h-9.053z"/><path fill="#b90466" d="M22.708 36.893c-1.385 0-2.59.848-3.19 1.944h6.38c-.6-1.096-1.805-1.944-3.19-1.944m5.829-9.607c0-3.143-2.611-5.686-5.829-5.686-3.162 0-5.739 2.467-5.821 5.534v1.744c0 .207.165.407.378.407h2.143c.207 0 .393-.2.393-.407v-1.592c0-1.572 1.302-2.847 2.914-2.847s2.915 1.276 2.915 2.847v1.592c0 .207.165.407.379.407h2.142c.207 0 .393-.2.393-.407v-1.592z"/><path fill="#71706f" d="m44.267 51.952-.31 1.757c-.152.89-.738 1.296-1.523 1.296-.668 0-1.185-.434-1.034-1.296l.31-1.757h.476l-.31 1.757c-.097.552.151.862.613.862.475 0 .889-.283.985-.862l.31-1.757zm-1.881-.551c0 .144.11.213.234.213.151 0 .317-.103.317-.31 0-.145-.097-.214-.22-.214-.16 0-.331.097-.331.31m1.033-.007c0 .151.117.22.241.22.131 0 .31-.103.31-.303 0-.145-.103-.22-.22-.22-.152 0-.33.096-.33.303m1.997.559-.214 1.213c.186-.248.559-.38.813-.38.538 0 .903.318.903.897 0 .82-.572 1.316-1.302 1.316-.283 0-.524-.103-.675-.372l-.083.317h-.42l.53-2.991zm-.33 2.047c-.021.351.213.578.544.578.42 0 .82-.323.847-.813.02-.358-.214-.572-.537-.572-.414 0-.834.338-.855.806m2.708.062c-.014.29.214.531.6.531.213 0 .496-.082.654-.227l.241.276a1.5 1.5 0 0 1-.978.365c-.613 0-.972-.365-.972-.93 0-.745.586-1.303 1.337-1.303.689 0 1.075.413.84 1.289zm1.364-.364c.035-.366-.179-.517-.537-.517-.324 0-.62.151-.751.517zm1.544-.876-.021.283a.8.8 0 0 1 .682-.331c.207 0 .393.076.49.18l-.27.385a.46.46 0 0 0-.351-.13.67.67 0 0 0-.675.578l-.207 1.144h-.44l.378-2.116h.414zm3.293 0 .22 1.675.813-1.675h.49l-1.11 2.116h-.517l-.213-1.392-.338.689-.372.703h-.517l-.372-2.116h.496l.22 1.675.814-1.675zm2.095 1.24c-.015.29.213.531.599.531.213 0 .496-.082.654-.227l.241.276a1.5 1.5 0 0 1-.978.365c-.613 0-.971-.365-.971-.93 0-.745.585-1.303 1.336-1.303.69 0 1.075.413.84 1.289zm1.363-.364c.035-.366-.179-.517-.537-.517-.324 0-.62.151-.751.517zm1.578-.876-.372 2.116h-.44l.371-2.116zm-.392-.572c0 .151.11.227.234.227.172 0 .33-.11.33-.324a.215.215 0 0 0-.22-.227c-.165.007-.344.11-.344.324m2.356 1.096c-.138-.152-.317-.2-.524-.2-.29 0-.503.096-.503.282 0 .159.166.22.42.241.386.035.883.166.78.71-.077.393-.47.628-1.02.628-.345 0-.676-.076-.903-.393l.29-.317c.158.22.44.31.688.317.214 0 .462-.076.503-.276.041-.193-.13-.262-.44-.29-.366-.034-.759-.165-.759-.571 0-.531.572-.717 1.006-.717.331 0 .565.076.765.282zm1.405-.524-.2 1.137c-.068.365.097.613.469.613.351 0 .648-.29.703-.64l.193-1.11h.44l-.371 2.116h-.4l.028-.304c-.248.235-.496.352-.793.352-.523 0-.833-.372-.716-1.013l.2-1.144h.447zm3.555 2.116.207-1.13c.062-.366-.062-.607-.468-.607-.352 0-.648.283-.71.634l-.193 1.11h-.44l.371-2.116h.407l-.035.31c.248-.227.503-.338.779-.338.516 0 .854.359.737 1.007l-.207 1.137h-.448zm1.502.29c-.027.289.193.406.565.406.331 0 .682-.18.765-.648l.062-.365c-.193.269-.544.379-.813.379-.544 0-.923-.324-.923-.91 0-.834.62-1.316 1.323-1.316.296 0 .565.145.661.386l.076-.338h.427l-.372 2.178c-.138.806-.737 1.055-1.281 1.055-.655 0-1.013-.317-.924-.828zm.124-1.213c0 .365.235.578.58.578.915 0 1.163-1.406.247-1.406a.81.81 0 0 0-.827.828"/></svg>