<svg width="80" height="80" viewBox="0 0 80 80" fill="none" xmlns="http://www.w3.org/2000/svg">
<rect x="0.5" y="0.5" width="79" height="79" rx="7.5" fill="white"/>
<rect x="0.5" y="0.5" width="79" height="79" rx="7.5" stroke="#EEEEEE"/>
<path d="M60 40.3497C60 38.8668 59.8665 37.4479 59.6185 36.0835H40.4253V43.9005L51.479 43.9029C51.0307 46.5038 49.5878 48.721 47.3771 50.1991V55.2707H53.9569C57.7988 51.7388 60 46.518 60 40.3497Z" fill="#4285F4"/>
<path d="M47.3796 50.2008C45.548 51.4278 43.1894 52.1456 40.4302 52.1456C35.1001 52.1456 30.5784 48.5782 28.9591 43.7695H22.1719V48.9998C25.5345 55.6277 32.4457 60.1758 40.4302 60.1758C45.9487 60.1758 50.5848 58.3731 53.9594 55.27L47.3796 50.2008Z" fill="#34A853"/>
<path d="M28.3207 39.8896C28.3207 38.5394 28.5472 37.2342 28.9598 36.0071V30.7769H22.1726C20.7822 33.5175 20 36.6112 20 39.8896C20 43.168 20.7846 46.2616 22.1726 49.0023L28.9598 43.772C28.5472 42.545 28.3207 41.2398 28.3207 39.8896Z" fill="#FABB05"/>
<path d="M40.4302 27.6303C43.4422 27.6303 46.1395 28.6607 48.2691 30.6742L54.1001 24.8872C50.5586 21.6112 45.9415 19.6001 40.4302 19.6001C32.4481 19.6001 25.5345 24.1482 22.1719 30.776L28.9591 36.0063C30.5784 31.1977 35.1001 27.6303 40.4302 27.6303Z" fill="#E94235"/>
</svg>
