<svg xmlns="http://www.w3.org/2000/svg" width="80" height="80" fill="none" viewBox="0 0 80 80"><rect width="79" height="79" x=".5" y=".5" fill="#fff" rx="7.5"/><rect width="79" height="79" x=".5" y=".5" stroke="#eee" rx="7.5"/><path fill="#4285f4" d="M60 40.35c0-1.483-.133-2.902-.382-4.267H40.426v7.818l11.054.002c-.448 2.6-1.891 4.818-4.102 6.296v5.072h6.58C57.799 51.739 60 46.518 60 40.35"/><path fill="#34a853" d="M47.38 50.2c-1.832 1.228-4.19 1.946-6.95 1.946-5.33 0-9.852-3.568-11.47-8.376h-6.788V49A20.45 20.45 0 0 0 40.43 60.176c5.519 0 10.155-1.803 13.53-4.906z"/><path fill="#fabb05" d="M28.32 39.89c0-1.35.227-2.656.64-3.883v-5.23h-6.787A20.1 20.1 0 0 0 20 39.89c0 3.278.785 6.372 2.173 9.112l6.787-5.23a12.2 12.2 0 0 1-.64-3.882"/><path fill="#e94235" d="M40.43 27.63c3.012 0 5.71 1.03 7.84 3.044l5.83-5.787c-3.54-3.276-8.159-5.287-13.67-5.287a20.45 20.45 0 0 0-18.258 11.176l6.787 5.23c1.62-4.808 6.141-8.376 11.471-8.376"/></svg>