<svg xmlns="http://www.w3.org/2000/svg" width="80" height="80" fill="none" viewBox="0 0 80 80"><rect width="79" height="79" x=".5" y=".5" fill="#fff" rx="7.5"/><rect width="79" height="79" x=".5" y=".5" stroke="#eee" rx="7.5"/><path fill="#fff" d="M16 18.8v42.314h24.67C56.942 61.114 64 52 64 39.915 64 27.877 56.943 18.8 40.67 18.8z"/><path fill="#000" d="M18.666 21.469h22.007c14.936 0 20.661 8.156 20.661 18.446 0 12.338-7.995 18.529-20.662 18.529H18.667zm2.133 2.133v32.71h19.874c11.998 0 18.526-5.591 18.526-16.397 0-11.105-7.077-16.313-18.526-16.313z"/><path fill="#000" d="M23.465 42.32h6.362v11.322h-6.362zm3.181-1.751a3.954 3.954 0 1 0 0-7.908 3.954 3.954 0 0 0 0 7.908"/><path fill="#d50072" d="M43.168 38.465v1.833h-4.533v-7.357h4.388v1.833h-2.555v.852h2.416v1.833h-2.416v1.006zm.793 1.834 2.218-7.36h2.608l2.217 7.36h-1.907l-.416-1.423h-2.398l-.417 1.423zm2.86-3.255h1.326l-.608-2.08h-.111zm5.105-4.105h1.834v5.526h2.715c-.745-10.027-8.632-12.194-15.802-12.194H33.03v6.672h1.13c2.063 0 3.343 1.398 3.343 3.649 0 2.321-1.25 3.707-3.343 3.707h-1.13v13.349h7.642c11.653 0 15.71-5.412 15.854-13.35h-4.601zm-18.897 1.837v3.69h1.132c.785 0 1.51-.228 1.51-1.875 0-1.61-.806-1.815-1.51-1.815z"/></svg>