<svg width="80" height="80" viewBox="0 0 80 80" fill="none" xmlns="http://www.w3.org/2000/svg">
<rect width="80" height="80" rx="8" fill="black"/>
<path d="M30.9633 55.1336C39.2273 55.1336 45.9266 48.4328 45.9266 40.1669C45.9266 31.901 39.2273 25.2002 30.9633 25.2002C22.6993 25.2002 16 31.901 16 40.1669C16 48.4328 22.6993 55.1336 30.9633 55.1336Z" fill="#EB001B"/>
<path d="M49.0365 55.1336C57.3005 55.1336 63.9998 48.4328 63.9998 40.1669C63.9998 31.901 57.3005 25.2002 49.0365 25.2002C40.7725 25.2002 34.0732 31.901 34.0732 40.1669C34.0732 48.4328 40.7725 55.1336 49.0365 55.1336Z" fill="#F79E1B"/>
<path d="M39.9959 28.2139C43.5987 30.9446 45.9185 35.2719 45.9185 40.1365C45.9185 45.001 43.5987 49.3359 39.9959 52.0666C36.3931 49.3359 34.0732 45.0085 34.0732 40.1365C34.0732 35.2645 36.4005 30.9446 39.9959 28.2139Z" fill="#FF5F00"/>
</svg>
