<svg xmlns="http://www.w3.org/2000/svg" width="80" height="80" fill="none" viewBox="0 0 80 80"><rect width="80" height="80" fill="#000" rx="8"/><path fill="#eb001b" d="M30.963 55.134c8.264 0 14.964-6.701 14.964-14.967S39.227 25.2 30.963 25.2 16 31.901 16 40.167s6.7 14.967 14.963 14.967"/><path fill="#f79e1b" d="M49.037 55.134C57.3 55.134 64 48.433 64 40.167S57.3 25.2 49.036 25.2s-14.963 6.701-14.963 14.967 6.7 14.967 14.963 14.967"/><path fill="#ff5f00" d="M39.996 28.214a14.93 14.93 0 0 1 5.922 11.923c0 4.864-2.32 9.199-5.922 11.93a14.93 14.93 0 0 1-5.923-11.93c0-4.873 2.328-9.192 5.923-11.923"/></svg>