<svg xmlns="http://www.w3.org/2000/svg" width="80" height="80" fill="none" viewBox="0 0 80 80"><rect width="79" height="79" x=".5" y=".5" fill="#fff" rx="7.5"/><rect width="79" height="79" x=".5" y=".5" stroke="#eee" rx="7.5"/><path fill="#1766ac" fill-rule="evenodd" d="M30.152 20h21.37c1.51 0 2.718 1.291 2.718 2.885v1.373c0 1.95-2.637 1.95-2.637 0v-.741a.885.885 0 0 0-.879-.88H29.329a.885.885 0 0 0-.879.88v.741c0 1.95-2.527 1.923-2.527.055v-1.428c0-1.594 1.236-2.885 2.72-2.885zm9.778 32.225h13.843c3.159 0 3.186-3.351 2.884-5.027-.164-1.127-2.06-1.1-2.28 0v1.291c0 .604-.494 1.071-1.07 1.071h-26.56a1.073 1.073 0 0 1-1.072-1.071v-1.291c-.22-1.1-2.115-1.127-2.28 0-.33 1.648-.302 5.027 2.884 5.027h13.679z" clip-rule="evenodd"/><path fill="#373535" fill-rule="evenodd" d="M48.5 34.808h2.197c1.017-.193 1.786-1.044 1.786-2.088a2.087 2.087 0 0 0-2.088-2.088h-4.45v10.989h5.631c1.181 0 2.17-.989 2.17-2.17s-.989-2.17-2.17-2.17H48.5a1.22 1.22 0 0 1-1.209-1.21c0-.659.55-1.208 1.209-1.208zm5.191 1.071c1.483.687 2.5 2.143 2.5 3.791 0 2.336-2.033 4.231-4.505 4.231h-6.949c-.66 0-1.181-.494-1.181-1.099V29.561a1.16 1.16 0 0 1 1.154-1.154h5.795c2.444 0 4.422 2.005 4.422 4.423 0 1.181-.467 2.28-1.236 3.077z" clip-rule="evenodd"/><path fill="#373535" d="M31.03 56.291c0-.192.166-.384.385-.384.22 0 .385.165.385.384v2.006c0 .467-.192.879-.495 1.181a1.66 1.66 0 0 1-2.362 0 1.66 1.66 0 0 1-.494-1.181V56.29c0-.192.165-.384.384-.384.22 0 .385.165.385.384v2.006c0 .247.11.494.275.66a.96.96 0 0 0 .659.274.96.96 0 0 0 .66-.275.96.96 0 0 0 .274-.66V56.29zm3.517 2.939c.22 0 .384.166.384.385 0 .22-.164.385-.384.385h-1.044c-.384 0-.742-.165-.989-.412a1.4 1.4 0 0 1-.412-.99v-2.28c0-.192.165-.384.385-.384s.384.165.384.385v2.28a.66.66 0 0 0 .66.659h1.016zm7.883-16.675a1.39 1.39 0 0 1-1.236 1.538 1.39 1.39 0 0 1-1.538-1.236l-1.154-10.522-4.065 10.302v.11c-.082.137-.165.275-.275.357l-.247.165a1.1 1.1 0 0 1-.412.082h-.055c-.165 0-.302-.027-.467-.082-.082-.055-.137-.082-.22-.137l-.054-.055-.028-.028-.027-.027s-.028-.028-.028-.055c-.055-.083-.11-.138-.137-.22v-.11l-4.065-10.302-1.154 10.522a1.39 1.39 0 0 1-1.538 1.236 1.39 1.39 0 0 1-1.236-1.538l1.346-12.418c0-.137.055-.302.082-.44l.165-.412a2.34 2.34 0 0 1 1.73-1.208h.44c.137 0 .302 0 .412.055a2.25 2.25 0 0 1 1.62 1.4l3.461 8.764 3.461-8.763a2.3 2.3 0 0 1 2.033-1.456h.439c.77.11 1.4.55 1.73 1.208q.124.207.165.413c.055.137.083.274.083.44l1.346 12.417zM28.284 59.56c0 .193-.11.385-.33.412-.192 0-.384-.11-.411-.33l-.33-2.691-1.126 2.637a.37.37 0 0 1-.494.192.33.33 0 0 1-.193-.192l-1.126-2.637-.33 2.692c0 .192-.22.357-.411.33-.193 0-.358-.22-.33-.413l.384-3.131c0-.193.138-.385.33-.467 0 0 .055 0 .082-.028h.138c.192 0 .384.028.522.165l.082.082s.028.055.055.083v.055l.961 2.252.962-2.252c.082-.193.247-.303.44-.357h.191c.193 0 .357.137.467.302 0 .027.028.082.055.11v.137l.385 3.132zm7.911.056a.393.393 0 0 1-.385.384.375.375 0 0 1-.385-.385v-2.939h-1.07a.376.376 0 0 1-.385-.385c0-.22.165-.384.384-.384h2.857c.192 0 .384.165.384.384 0 .22-.164.385-.384.385H36.14v2.94zm2.307 0a.393.393 0 0 1-.385.384.375.375 0 0 1-.384-.385v-3.324c0-.192.165-.384.384-.384.22 0 .385.165.385.384zm7.663-.056c0 .193-.11.385-.33.413-.191 0-.384-.11-.411-.33l-.138-1.044h-1.29a.393.393 0 0 1-.385-.385c0-.22.165-.384.385-.384h1.208v-.275h-.027c0-.055 0-.137-.055-.192 0-.083-.055-.138-.083-.193a.81.81 0 0 0-.741-.494h-.193a.4.4 0 0 0-.164.055c-.275.137-.467.467-.522.824l-.22 2.06c0 .193-.22.358-.412.33-.192 0-.357-.22-.33-.412l.22-2.06c.083-.605.412-1.154.934-1.401.11-.055.22-.083.33-.11.11-.028.247-.055.357-.055.659 0 1.153.384 1.428.906.055.11.082.22.137.33a1 1 0 0 1 .055.302v.028zm1.154.055a.393.393 0 0 1-.385.385.375.375 0 0 1-.384-.385v-3.132c0-.054 0-.082.027-.11 0 0 0-.054.028-.054a.55.55 0 0 1 .302-.248h.164a.48.48 0 0 1 .385.193l1.978 2.527v-2.445c0-.192.164-.385.384-.385s.385.165.385.385v3.077a.6.6 0 0 1-.193.412s-.055.027-.082.055h-.082c-.138.055-.275.027-.412 0h-.055s-.055-.028-.083-.055l-.055-.055-1.977-2.527v2.445zm5.823-.385c.192 0 .384.166.384.386s-.165.384-.384.384h-1.099a1.45 1.45 0 0 1-1.044-.44 1.45 1.45 0 0 1-.44-1.043V57.39c0-.412.166-.769.44-1.044.275-.274.632-.44 1.044-.44h1.099c.192 0 .384.166.384.385 0 .22-.165.385-.384.385h-1.099a.75.75 0 0 0-.522.22.7.7 0 0 0-.22.522v1.126a.75.75 0 0 0 .22.522c.137.137.302.22.522.22h1.099zm2.142-3.323c.467 0 .906.192 1.236.494s.522.742.522 1.182v.686c0 .467-.193.88-.522 1.21a1.73 1.73 0 0 1-1.209.494c-.467 0-.906-.193-1.236-.495a1.58 1.58 0 0 1-.522-1.181v-.687c0-.467.193-.88.522-1.209a1.73 1.73 0 0 1 1.209-.494m0 .742a1.1 1.1 0 0 0-.714.274.96.96 0 0 0-.275.66v.686c0 .248.11.495.275.66.192.165.44.274.714.274a1.1 1.1 0 0 0 .714-.274.96.96 0 0 0 .275-.66v-.686a.96.96 0 0 0-.275-.66 1.1 1.1 0 0 0-.714-.275m-16.453 1.264v-1.62c0-.056 0-.11.028-.138 0-.055.055-.082.082-.137a.35.35 0 0 1 .247-.11h1.429c.33 0 .631.137.851.357s.357.522.357.851c0 .22-.055.44-.192.632.082.055.137.11.22.165.192.22.33.522.33.824 0 .33-.138.632-.358.852s-.522.357-.851.357H39.16a.375.375 0 0 1-.385-.384v-1.676zm.742-1.264v2.583h1.456a.45.45 0 0 0 .33-.138.46.46 0 0 0 .137-.33c0-.109-.055-.219-.138-.329a.39.39 0 0 0-.33-.165h-.494a.393.393 0 0 1-.384-.384c0-.192.165-.385.384-.385h.165a.34.34 0 0 0 .275-.137.44.44 0 0 0 .137-.302c0-.11-.055-.22-.137-.303a.44.44 0 0 0-.302-.137H39.6z"/></svg>