<svg xmlns="http://www.w3.org/2000/svg" width="80" height="80" fill="none" viewBox="0 0 80 80"><rect width="79" height="79" x=".5" y=".5" fill="#fff" rx="7.5"/><rect width="79" height="79" x=".5" y=".5" stroke="#eee" rx="7.5"/><path fill="#1dc1f0" d="M68 49.015a161 161 0 0 1-1.264 1.833c-.079.126-.221.079-.332.079h-26.68a.67.67 0 0 0-.553.237c-2.622 2.685-5.782 4.312-9.51 4.723-4.818.521-9.068-.853-12.638-4.155-2.701-2.496-4.297-5.608-4.85-9.257-.963-6.382 2.18-12.796 7.788-15.987 2.733-1.548 5.656-2.259 8.784-2.053 5.039.347 9.051 2.622 12.021 6.698.048.063.158.142.111.237-.047.078-.174.031-.253.031h-1.959a.9.9 0 0 1-.726-.316 13.3 13.3 0 0 0-6.825-4.091c-7.614-1.912-15.34 3.112-16.683 10.836-1.216 7.061 3.097 13.854 10.063 15.544 5.213 1.28 9.731-.174 13.428-4.075.205-.206.395-.3.68-.3H68z"/><path fill="#1dc1f0" d="M25.205 41.45c.679-1.847 1.342-3.696 2.006-5.528.19-.506.474-.9 1.042-1.011.648-.127 1.185.253 1.248.916v8.721c0 .757-.505 1.152-1.232.994-.442-.094-.71-.442-.71-.947v-3.902c0-.11 0-.206-.048-.332-.047.158-.11.332-.158.49-.38 1.248-.758 2.511-1.137 3.76-.048.157-.095.3-.19.426-.427.68-1.264.68-1.659-.032-.22-.379-.316-.805-.474-1.216-.426-1.153-.837-2.306-1.263-3.476-.08.08-.048.174-.048.237v4.013c0 .774-.521 1.137-1.31.948-.412-.095-.633-.427-.633-.916V35.89c.032-.41.127-.774.553-.932.458-.173.885-.126 1.264.206.237.205.379.458.505.758.695 1.77 1.406 3.523 2.101 5.292.032.079.048.158.143.221z"/><path fill="#1a4c68" d="M63.787 39.49c.127 0 .174-.11.237-.157.569-.522 1.138-1.059 1.706-1.58.332-.3.711-.49 1.154-.3.663.284.79 1.01.268 1.58-.205.22-.442.426-.663.631-.269.253-.522.506-.79.743-.142.126-.158.22-.048.379.664.98 1.312 1.959 1.96 2.938q.212.309.331.664c.11.426.032.742-.268.963-.364.269-.775.285-1.138.048-.221-.143-.363-.332-.505-.553-.57-.885-1.122-1.77-1.707-2.654-.063-.095-.11-.3-.205-.237-.158.079-.332.205-.347.426v2.228a.94.94 0 0 1-.885.948c-.537.031-.948-.316-1.027-.838V35.92c0-.395.142-.71.474-.916.648-.395 1.453.063 1.453.837v3.65m-9.363 1.792v-3.207c0-.71.553-1.184 1.217-1.026.253.063.474.189.584.426.095.205.19.174.364.095a3.3 3.3 0 0 1 2.022-.316c1.121.174 1.88.963 2.1 2.164.032.205.064.395.064.6v4.613c0 .537-.41.948-.948.964a.975.975 0 0 1-.995-.916v-4.234c0-.127 0-.253-.016-.38-.095-.694-.569-.979-1.232-.742-.427.143-.759.443-1.09.743-.11.094-.08.22-.08.331v4.171c0 .648-.489 1.074-1.12 1.011-.506-.063-.854-.474-.854-1.058v-3.239z"/><path fill="#1dc1f0" d="M33.694 42.217c.111-.3.19-.537.269-.774.316-.932.648-1.864.964-2.796.063-.19.142-.38.268-.553.285-.38.68-.521 1.122-.363.41.142.6.442.6.916 0 .19-.047.379-.11.569-.79 2.322-1.596 4.628-2.497 6.919-.063.174-.157.347-.236.521-.506 1.027-1.106 1.453-2.591 1.406-.3 0-.6-.063-.885-.205-.41-.206-.632-.57-.569-.98s.364-.68.854-.727c.252-.031.52-.015.774-.047.584-.063.837-.379 1.01-.98.032-.126-.047-.236-.078-.347-.68-1.785-1.359-3.57-2.038-5.34-.127-.331-.221-.663-.142-1.026s.3-.585.647-.68c.348-.094.664-.063.916.206.19.174.285.395.38.632.41 1.106.837 2.227 1.248 3.333.031.079.063.158.126.3z"/><path fill="#1a4c68" d="M46.142 41.367c-.11-.458-.3-.868-.648-1.2-.11-.095-.284-.174-.316-.3-.031-.142.158-.253.237-.38.569-.963.458-2.638-.253-3.506a2.5 2.5 0 0 0-.821-.648A3.5 3.5 0 0 0 42.903 35a76 76 0 0 0-3.285 0c-.9 0-1.39.506-1.39 1.422v8.925c0 .142-.032.269.189.269 1.627 0 3.254 0 4.865-.016 1.438-.032 2.418-.742 2.797-1.943.237-.742.252-1.5.079-2.275zm-5.94-4.186c0-.158.047-.205.205-.205h2.402c.632 0 1.01.442 1.01 1.074 0 .648-.363.995-1.026 1.011h-2.354c-.174 0-.253-.032-.237-.221zm3.886 5.94c-.237.41-.632.537-1.074.553h-2.607c-.158 0-.205-.047-.205-.206v-2.211c0-.174.063-.206.205-.19h2.544c1.09.016 1.674 1.106 1.121 2.054zm9.321-.818h-.016c0-.79.031-1.564 0-2.354-.063-1.296-.774-2.29-1.912-2.607-1.485-.41-2.827-.063-3.996.948a1.4 1.4 0 0 0-.348.458c-.174.41-.079.9.237 1.17.284.252.727.268 1.106.047.142-.08.268-.19.41-.285a3 3 0 0 1 1.438-.616c.49-.079.853.126 1.027.569.11.284.095.3-.205.316-.932.016-1.833.142-2.67.616-1.059.6-1.58 1.659-1.438 2.86.142 1.073.79 1.816 1.833 2.069.869.205 1.69.031 2.448-.38.127-.063.19-.11.269.064.079.205.269.316.474.379.758.22 1.343-.206 1.343-.995zm-1.896-.158c-.063.284-.19.52-.38.726-.394.38-.852.616-1.405.6-.158 0-.316 0-.458-.063-.285-.095-.458-.268-.49-.568s.11-.49.347-.632c.411-.237.87-.3 1.328-.348.284-.031.568 0 .853-.016.236 0 .268.095.22.285z"/></svg>