<svg width="80" height="80" viewBox="0 0 80 80" fill="none" xmlns="http://www.w3.org/2000/svg">
<rect width="80" height="80" rx="8" fill="#013089"/>
<path d="M31.1594 62.3729L31.9914 57.0888L30.1381 57.0459H21.2881L27.4384 18.0552C27.4567 17.9361 27.5172 17.8275 27.6089 17.7492C27.7006 17.671 27.8174 17.6283 27.9379 17.6289H42.8602C47.8142 17.6289 51.233 18.6596 53.0179 20.694C53.8547 21.6484 54.3877 22.6457 54.6454 23.7432C54.9158 24.8948 54.9206 26.2707 54.6565 27.9488L54.6374 28.0713V29.1465L55.4742 29.6205C56.1131 29.9441 56.6873 30.3819 57.1685 30.9121C57.8844 31.7281 58.3473 32.7652 58.543 33.9947C58.7451 35.2593 58.6782 36.764 58.3473 38.4675C57.9655 40.4272 57.3483 42.1339 56.5147 43.5305C55.7792 44.7815 54.7902 45.8651 53.6113 46.7117C52.5041 47.4974 51.1884 48.0939 49.701 48.4757C48.2596 48.8511 46.6163 49.0403 44.8138 49.0403H43.6525C42.8221 49.0403 42.0155 49.3394 41.3823 49.8754C40.7501 50.4172 40.3306 51.1657 40.1987 51.9877L40.1112 52.4633L38.6413 61.7764L38.5744 62.1184C38.5569 62.2265 38.5267 62.2806 38.4822 62.3172C38.439 62.3525 38.3852 62.3721 38.3295 62.3729H31.1594Z" fill="#FEFFFF"/>
<path d="M56.2663 28.1953C56.2217 28.48 56.1708 28.7711 56.1136 29.0701C54.1457 39.1721 47.4131 42.6619 38.8145 42.6619H34.4364C33.3848 42.6619 32.4987 43.4254 32.3349 44.4625L30.0933 58.6762L29.4586 62.7052C29.4333 62.8651 29.4429 63.0285 29.4869 63.1842C29.5308 63.3399 29.608 63.4843 29.713 63.6073C29.8181 63.7304 29.9486 63.8292 30.0956 63.897C30.2425 63.9648 30.4024 63.9999 30.5642 64H38.3293C39.2488 64 40.0299 63.332 40.1747 62.4253L40.251 62.0308L41.713 52.7544L41.8069 52.2454C41.9501 51.3355 42.7328 50.6675 43.6523 50.6675H44.8136C52.3368 50.6675 58.2262 47.6135 59.9476 38.7761C60.6666 35.0843 60.2944 32.0016 58.3917 29.8336C57.7886 29.163 57.0684 28.6078 56.2663 28.1953Z" fill="#7590BD"/>
<path d="M54.2078 27.3743C53.5794 27.1925 52.9402 27.0507 52.294 26.9496C51.017 26.7534 49.7265 26.6592 48.4345 26.668H36.7385C36.2934 26.6677 35.8628 26.8266 35.5247 27.116C35.1865 27.4054 34.963 27.8062 34.8947 28.2459L32.4066 44.0025L32.335 44.4622C32.4125 43.9606 32.667 43.5033 33.0524 43.1731C33.4379 42.8428 33.9289 42.6614 34.4365 42.6617H38.8146C47.4132 42.6617 54.1458 39.1703 56.1137 29.0699C56.1725 28.7708 56.2218 28.4798 56.2664 28.195C55.7471 27.9228 55.2059 27.6945 54.6485 27.5127C54.5023 27.4642 54.3554 27.418 54.2078 27.3743Z" fill="#AFC2D9"/>
<path d="M34.8946 28.2461C34.9623 27.8062 35.1857 27.4052 35.524 27.116C35.8623 26.8268 36.2932 26.6684 36.7384 26.6698H48.4344C49.8201 26.6698 51.1134 26.7605 52.2939 26.9514C53.0927 27.0769 53.8804 27.2646 54.6499 27.5129C55.2306 27.7053 55.7699 27.9328 56.2679 28.1952C56.8533 24.4621 56.2631 21.9203 54.2443 19.6186C52.0187 17.0848 48.0017 16 42.8616 16H27.9393C26.8893 16 25.9936 16.7635 25.8314 17.8022L19.6159 57.1937C19.5869 57.3766 19.5979 57.5636 19.6481 57.7418C19.6984 57.92 19.7866 58.0852 19.9068 58.2261C20.027 58.367 20.1763 58.4802 20.3444 58.5578C20.5125 58.6355 20.6954 58.6759 20.8806 58.6761H30.0933L32.4064 44.0027L34.8946 28.2461Z" fill="#FEFFFF"/>
</svg>
