<svg xmlns="http://www.w3.org/2000/svg" width="80" height="80" fill="none" viewBox="0 0 80 80"><rect width="80" height="80" fill="#bccf03" rx="8"/><path fill="#fffeff" d="M60.555 36.548c-.395 0-.659-.264-.659-.66v-2.9h-.263c-1.516 0-2.043.264-2.043 1.648v8.503c0 .528-.131.99-.329 1.319-.395.66-1.252.923-2.504.923-1.317 0-2.108-.264-2.503-.923-.198-.33-.33-.791-.33-1.319v-8.503c0-1.385-.526-1.648-2.042-1.648h-.461c-1.515 0-2.042.264-2.042 1.648v8.503c0 1.385.33 2.505.922 3.428 1.12 1.78 3.36 2.769 6.522 2.769s5.403-.989 6.523-2.769c.593-.922.922-2.11.922-3.428v-6.592zm4.48-8.175h2.504a.45.45 0 0 1 .461.461v2.506a.45.45 0 0 1-.461.46h-2.504a.45.45 0 0 1-.46-.46v-2.506a.45.45 0 0 1 .46-.461M62.532 26h1.713c.197 0 .329.132.329.33v1.714c0 .197-.132.33-.33.33h-1.712c-.198 0-.33-.133-.33-.33V26.33c0-.198.198-.33.33-.33M18.39 32.988h-3.623c-1.91 0-2.767.857-2.767 2.768V48.15c0 .725.264.988.988.988h.264c.724 0 .988-.263.988-.988v-4.813h4.15c3.69 0 5.469-1.648 5.469-5.207s-1.779-5.142-5.468-5.142m3.229 5.142c0 2.043-.527 3.098-3.228 3.098H14.24V36.02c0-.725.264-.989.988-.989h3.163c2.042.066 3.228.528 3.228 3.099m6.851-1.583c-1.45 0-2.305.198-2.635.264-.593.131-.856.263-.856.988v.198c0 .264.066.462.131.593a.6.6 0 0 0 .462.198c.131 0 .197 0 .395-.066.33-.066 1.45-.263 2.635-.263 2.174 0 3.03.593 3.03 2.043v1.319h-2.7c-3.492 0-5.14 1.186-5.14 3.691s1.714 3.823 4.744 3.823c3.624 0 5.27-1.252 5.27-4.02v-4.813c-.065-2.637-1.778-3.955-5.336-3.955m3.163 6.987v1.714c0 1.385-.527 2.176-3.163 2.176-1.713 0-2.569-.594-2.569-1.912 0-1.384.856-1.978 3.03-1.978zm14.099-6.394c-.132-.198-.462-.198-.725-.198h-.198c-.724 0-.988.198-1.185.923l-2.043 8.438c-.263 1.055-.593 1.253-1.186 1.253-.724 0-1.054-.198-1.317-1.253l-2.306-8.438c-.198-.725-.461-.923-1.186-.923h-.198c-.263 0-.593 0-.724.198q-.198.297 0 .791l2.305 8.504c.462 1.648.923 2.966 2.9 2.966.329 0 .658-.066.987-.132-.593 1.846-1.185 2.637-2.964 2.835-.33 0-.593.066-.725.264-.132.197-.132.461-.066.659l.066.198c.132.527.264.79.856.79h.198c2.635-.197 4.019-1.581 4.875-4.877L45.93 37.93c-.131-.33-.066-.659-.197-.79"/><path fill="#fffeff" d="M63.915 31.867h-3.36c-.395 0-.658.264-.658.66v.46h.263c1.515 0 2.042.264 2.042 1.649v1.977h1.713c.396 0 .66-.263.66-.659v-3.428c0-.395-.264-.659-.66-.659"/></svg>