<svg xmlns="http://www.w3.org/2000/svg" width="80" height="80" fill="none" viewBox="0 0 80 80"><rect width="80" height="80" fill="#d13239" rx="8"/><path fill="#fff" fill-rule="evenodd" d="M15.164 39.3c.183.074.348.169.463.29.088.092.156.187.213.291.162.298.192.609.19.815 0 .149-.021.243-.021.243l-.027.21c-.04.294-.118.848-.196 1.311-.071.42-.155.764-.155.764s-.207.93-.977 1.339-1.857.365-1.857.365l-2.79-.014-.568 3.448H8l1.54-9.309h4.03s.108 0 .277.007c.183.007.44.027.703.074.21.038.422.092.614.166m-.942 3.583a64 64 0 0 0 .297-1.65l.002-.014c.005-.038.02-.146.008-.27a.57.57 0 0 0-.108-.304c-.054-.067-.223-.111-.435-.138a7 7 0 0 0-.774-.048c-.2-.003-.341 0-.341 0l-2.111-.006-.514 3.092 2.331.007s.53.02 1.024-.084c.297-.065.557-.247.621-.585m12.468-1.24-5.283.006-.213 1.312h3.381l-4.236 4.06-.23 1.341 5.463-.003.216-1.298-3.71.006 4.42-4.221zm7.164-2.59h1.385l-1.55 9.309-1.389-.003zm8.718 2.593-1.327.003.675 6.713 1.608-.007 2.064-4.698.473 4.698H47.7l2.925-6.71h-1.378l-2.04 4.743-.483-4.746-1.639-.003-2.043 4.732zm-12.907-.088c.571-.007 1.244.02 1.632.145 1.155.379 1.314 1.342 1.091 2.606l-.192 1.116-4.51.013s-.088.206-.125.997q-.004.03-.003.044c-.063.648.65.66.87.665l.042.001.045.002c.181.01.59.031 1.296-.05.777-.087.854-1.037.854-1.037l1.436-.003-.088.361-.002.01a2.7 2.7 0 0 1-.19.535c-.142.304-.342.56-.342.56s-.445.596-1.29.795c-.844.2-1.966.112-1.966.112s-.534.013-1.162-.23c-.628-.24-.8-.757-.898-1.312-.098-.557.233-2.224.233-2.224s.165-1.507.723-2.197 1.537-.831 1.537-.831c.206-.044.459-.071 1.01-.078m-1.76 2.589 3.091.003s.115-.554.007-.919c-.047-.156-.223-.26-.409-.297-.557-.115-1.243-.065-1.5-.041s-.53.054-.746.216c-.213.163-.32.548-.32.548zm11.9-2.44c-.388-.126-1.06-.153-1.63-.146-.551.007-.805.034-1.01.078 0 0-.98.142-1.538.831-.557.69-.722 2.197-.722 2.197s-.331 1.667-.233 2.225c.097.554.27 1.071.898 1.311.628.243 1.162.23 1.162.23s1.121.088 1.966-.112a2.4 2.4 0 0 0 1.29-.794s.2-.257.341-.561a2.6 2.6 0 0 0 .19-.535l.003-.01.088-.36-1.436.002s-.078.95-.854 1.038a8 8 0 0 1-1.27.053l-.071-.002-.04-.001c-.218-.005-.935-.02-.873-.665q-.001-.014.004-.044c.037-.79.125-.997.125-.997l4.51-.014.192-1.115c.223-1.268.064-2.234-1.091-2.61m-.313 2.443-3.091-.003.122-.49s.108-.385.32-.548c.213-.162.49-.192.747-.216s.942-.074 1.5.04c.185.038.361.142.408.298.108.362-.006.92-.006.92m12.727-2.5.889 4.907 2.51-4.911 1.411.013-3.617 7.014s-.655 1.27-1.06 1.592c-.406.321-.656.466-.987.5l-.089.01c-.27.028-.407.042-.695-.01l-.338-.06.21-1.255s.56.105.891-.027c.335-.132.602-.7.602-.7l.169-.283-1.308-6.794zm-34.11.459c.45-.247.977-.467 1.534-.467h.804l-.23 1.298-.763.004c-1.094 0-1.655.93-1.79 1.68l-.655 3.7h-1.48l1.183-6.682h1.476zm28.626-9.454 1.716-3.45s3.76-.075 7.002.428c3.243.5 6.209 1.271 6.145 1.305l-8.222 4.303s-1.922-1.217-4.307-1.964c-1.351-.399-2.334-.622-2.334-.622m-10.87-1.622.358 2.01s1.655-.439 3.638-.675c2.547-.348 5.26.023 5.26.023l1.02-3.106s-3.084.206-5.412.639c-2.324.433-4.864 1.109-4.864 1.109m-7.654 5.306-2.057-1.385s1.861-1.058 4.337-2.045c2.473-.987 3.793-1.4 3.793-1.4l.42 1.964s-2.382.798-3.747 1.443a24 24 0 0 0-2.746 1.423m-5.097 3.482H18.68s1.73-1.325 2.6-1.896c.9-.619 3.017-1.93 3.017-1.93l2.506 1.172s-1.283.815-1.99 1.332c-.705.517-1.698 1.322-1.698 1.322m34.427 2.494 1.456.004.087-.565s.156-1.02.504-1.216c.111-.065.29-.122.496-.16.382-.067.865-.074 1.26-.06h.033c.58.02.813.028 1.416.098.615.07.46.666.46.666l-.122.889s-.054.399-.196.645c-.125.22-.47.369-.669.433-.48.155-2.12.575-2.12.575l-1.291.371s-.794.23-1.236.72a2.96 2.96 0 0 0-.683 1.342c-.06.29-.402 2.302-.402 2.302l6.965.003.233-1.392-5.509.007.098-.568s.064-.585.3-.778l.034-.03c.062-.057.146-.136.517-.267a26 26 0 0 1 1.162-.335l2.078-.568s1.135-.29 1.58-.912c.446-.619.619-1.805.619-1.805s.121-1.153.027-1.514c-.091-.362-.433-.795-.848-.98-.416-.187-.848-.295-2.101-.278s-1.875.074-2.51.311c-.635.233-1.003.66-1.236 1.26-.254.572-.402 1.802-.402 1.802m13.113 2.59.976-5.855h-1.73l-5.384 5.787-.243 1.467h4.709l-.345 2.055 1.446.003.34-2.058 1.335.003.24-1.403zm-1.44.003-3.043-.004 3.706-3.95zM56.659 37.55l-1.807-1.373 10.295-3.975.08.037c1.31.595 2.04.926 3.325 1.761.514.335 1.196.87 1.368 1.038.47.47.919.923 1.166 1.349.395.682.425 1.163.425 1.163z" clip-rule="evenodd"/></svg>