<svg xmlns="http://www.w3.org/2000/svg" width="80" height="80" fill="none" viewBox="0 0 80 80"><rect width="80" height="80" fill="#163381" rx="8"/><path fill="#fff" d="M22.22 36.778h-4.38q0-1.077-.253-1.446-.39-.544-2.157-.545-1.715 0-2.27.314-.555.315-.555 1.37 0 .956.492 1.257.354.214.934.252l.883.062q2.84.188 3.546.264 2.246.227 3.255 1.194.794.754.947 1.973.093.82.088 1.646 0 2.113-.403 3.093-.731 1.798-3.287 2.274-1.071.2-3.276.202-3.679 0-5.126-.44-1.776-.54-2.343-2.183-.317-.915-.315-3.05h4.379v.364q0 1.14.654 1.465c.343.159.717.24 1.095.238h1.61q1.231 0 1.572-.127.604-.237.793-.765c.074-.274.108-.558.1-.842q0-1.154-.842-1.406-.316-.099-2.929-.276-2.1-.15-2.916-.29-2.15-.402-2.866-1.657-.63-1.067-.628-3.227 0-1.644.34-2.637.339-.992 1.094-1.507 1.109-.791 2.833-.93 1.436-.125 3.186-.125 2.756 0 3.929.315 2.858.768 2.858 4.302 0 .29-.043.869m19.257 11.909V31.2h8.77q1.804 0 2.75.295 2.165.676 2.907 2.775.383 1.101.384 3.314 0 2.662-.423 3.825-.845 2.302-3.47 2.648-.308.052-2.624.09l-.781.026h-2.806v4.515zm4.707-8.572h2.935q1.395-.05 1.7-.216.418-.23.557-.92.09-.457.09-1.363 0-1.11-.178-1.646-.255-.753-1.217-.918-.191-.025-.913-.026h-2.974zm20.151 5.55h-6.293l-.846 3.022h-4.87L59.58 31.2h7.1L72 48.688h-4.768zm-.934-3.407-2.206-7.58-2.14 7.58z"/><path fill="#ffbe00" d="M34.98 33.66a6.19 6.19 0 0 1 4.812 2.295l1.015-2.175a8.9 8.9 0 0 0-6.129-2.425c-3.709 0-6.882 2.24-8.183 5.411h-1.98l-1.168 2.504h2.546q-.03.351-.032.702 0 .426.043.851h-1.279l-1.168 2.505h3.098c1.339 3.09 4.472 5.26 8.123 5.26a8.9 8.9 0 0 0 4.961-1.493v-3.07a6.19 6.19 0 0 1-9.85-.697h6.487l1.168-2.505h-8.609a6.3 6.3 0 0 1-.036-1.553h9.37l1.168-2.504h-9.729a6.2 6.2 0 0 1 5.371-3.106"/><path fill="#fff" d="M34.98 33.735a6.1 6.1 0 0 1 4.754 2.268l.076.093.051-.109 1.015-2.175.022-.05-.039-.037a9.046 9.046 0 0 0-11.217-.915 8.73 8.73 0 0 0-3.216 3.928l.069-.047h-2.027l-.02.043-1.168 2.505-.05.107h2.663l-.075-.082q-.03.354-.032.708 0 .424.043.86l.075-.084h-1.326l-.02.044-1.169 2.504-.05.107h3.216l-.069-.045c1.397 3.223 4.613 5.305 8.192 5.305a9 9 0 0 0 5.003-1.505l.033-.022v-3.31l-.131.15a6.117 6.117 0 0 1-9.73-.689l-.063.117h6.535l.02-.044 1.168-2.505.05-.106h-8.728l.075.064a6.2 6.2 0 0 1-.036-1.535l-.075.068h9.418l.02-.043 1.168-2.505.05-.107h-9.846l.064.113a6.16 6.16 0 0 1 5.307-3.069m-5.371 3.106h9.728l-.069-.107-1.167 2.505.068-.043H28.73l-.007.068a6.5 6.5 0 0 0 .037 1.57l.01.066h8.673l-.068-.108-1.167 2.505.067-.043H29.65l.077.116a6.27 6.27 0 0 0 9.97.706l-.133-.05v3.07l.033-.062a8.84 8.84 0 0 1-4.918 1.48c-3.52 0-6.682-2.047-8.054-5.215l-.02-.045h-3.147l.068.108 1.168-2.507-.069.044h1.363l-.009-.083a9 9 0 0 1-.043-.844c0-.212.01-.44.032-.695l.006-.081h-2.626l.068.107 1.168-2.505-.068.043h2.029l.019-.047a8.6 8.6 0 0 1 3.162-3.86 8.9 8.9 0 0 1 11.03.9l-.017-.086-1.014 2.176.126-.016a6.27 6.27 0 0 0-10.308.82l-.065.114z"/></svg>