<svg xmlns="http://www.w3.org/2000/svg" width="80" height="80" fill="none" viewBox="0 0 80 80"><rect width="80" height="80" fill="#1434cb" rx="8"/><path fill="#fff" d="M49.686 29.665c-4.545 0-8.606 2.348-8.606 6.685 0 4.975 7.203 5.319 7.203 7.818 0 1.052-1.21 1.994-3.276 1.994-2.933 0-5.125-1.316-5.125-1.316l-.937 4.378s2.524 1.111 5.877 1.111c4.968 0 8.877-2.463 8.877-6.875 0-5.257-7.232-5.59-7.232-7.91 0-.824.993-1.727 3.053-1.727 2.325 0 4.222.957 4.222.957l.918-4.228s-2.064-.887-4.974-.887m-41.576.319-.11.638s1.912.349 3.634 1.044c2.217.798 2.375 1.263 2.748 2.705l4.069 15.635h5.454l8.403-20.022h-5.442l-5.4 13.613-2.202-11.54c-.203-1.32-1.226-2.073-2.479-2.073zm26.386 0-4.269 20.022h5.19l4.253-20.022zm28.941 0c-1.251 0-1.914.667-2.4 1.834l-7.603 18.188h5.442l1.053-3.031h6.63l.64 3.031H72l-4.189-20.022zm.708 5.41 1.613 7.513h-4.321z"/></svg>