<svg xmlns="http://www.w3.org/2000/svg" width="80" height="80" fill="none" viewBox="0 0 80 80"><rect width="80" height="80" fill="#ed1e24" rx="8"/><path fill="#fff" fill-rule="evenodd" d="M40 60c11.046 0 20-8.953 20-20 0-9.053-6.014-16.7-14.264-19.166l.022-.012h-.063A20 20 0 0 0 40 20c-11.046 0-20 8.954-20 20 0 11.047 8.954 20 20 20m5.694-39.178c-8.304.035-15.46 6.937-16.857 15.667-.128.823 0 3.425 0 3.425 0 6.165 4.998 11.164 11.164 11.164s11.165-4.998 11.165-11.164c0-6.16-4.987-11.153-11.143-11.166 1.637-5.398 5.395-7.725 5.712-7.914z" clip-rule="evenodd"/></svg>