<svg width="48" height="48" viewBox="0 0 48 48" fill="none" xmlns="http://www.w3.org/2000/svg">
<rect width="48" height="48" rx="8" fill="white"/>
<path d="M15.6662 8.3999C11.6563 8.3999 8.40039 11.6616 8.40039 15.6758C8.40039 19.6937 11.6544 22.9516 15.6682 22.9516H20.7085C21.9381 22.9516 22.932 21.9501 22.932 20.7194V15.6738C22.9315 11.6566 19.6795 8.3999 15.6662 8.3999ZM20.7073 20.7194V20.7203C20.7079 20.7219 20.7084 20.7236 20.7088 20.7253H15.6682C14.6682 20.7279 13.6898 20.4334 12.8571 19.879C12.0243 19.3246 11.3747 18.5353 10.9904 17.611C10.6062 16.6868 10.5046 15.6691 10.6985 14.687C10.8924 13.7049 11.3732 12.8025 12.0799 12.0941C12.7865 11.3858 13.6873 10.9032 14.6681 10.7077C15.649 10.5122 16.6657 10.6124 17.5896 10.9958C18.5134 11.3791 19.3028 12.0283 19.8578 12.8611C20.4129 13.6939 20.7085 14.6728 20.7073 15.6739V20.7194ZM20.708 25.0523H15.6682C11.655 25.0523 8.40156 28.3086 8.40156 32.326C8.40156 36.3401 11.6563 39.5999 15.6669 39.5999C19.6801 39.5999 22.9321 36.3431 22.9321 32.3257V27.2803C22.9315 26.0493 21.9375 25.0523 20.708 25.0523ZM20.7073 32.3256C20.7083 33.3177 20.4168 34.2881 19.8693 35.1151C19.3218 35.9421 18.5425 36.5889 17.6293 36.9744C17.0092 37.2369 16.3493 37.3671 15.6682 37.3671C14.9877 37.3671 14.3283 37.2369 13.7079 36.9742C12.6347 36.5224 11.7509 35.7126 11.2066 34.6824C10.6623 33.6522 10.491 32.4652 10.722 31.3229C10.9529 30.1807 11.5718 29.1537 12.4735 28.4165C13.3752 27.6793 14.504 27.2773 15.6682 27.2788H20.7094C20.7089 27.2787 20.7084 27.2787 20.7079 27.2788V32.3251L20.7073 32.3256ZM32.3335 25.0523H27.2933C27.001 25.0523 26.7116 25.1098 26.4415 25.2218C26.1715 25.3337 25.9261 25.4978 25.7194 25.7047C25.5127 25.9116 25.3488 26.1572 25.237 26.4275C25.1251 26.6979 25.0676 26.9876 25.0677 27.2802V32.3256C25.0677 36.343 28.3207 39.5997 32.3339 39.5997C36.3439 39.5997 39.6004 36.3401 39.6004 32.326C39.6003 28.3086 36.3468 25.0523 32.3335 25.0523ZM36.9804 34.2877C36.5289 35.3622 35.7197 36.2471 34.6903 36.7921C33.661 37.3371 32.4749 37.5086 31.3335 37.2774C30.1921 37.0462 29.1659 36.4267 28.4292 35.524C27.6924 34.6212 27.2906 33.491 27.2919 32.3254V27.2788H32.333C33.165 27.279 33.9839 27.4851 34.717 27.8789C35.45 28.2726 36.0744 28.8418 36.5345 29.5356C36.9945 30.2295 37.276 31.0265 37.3538 31.8556C37.4316 32.6847 37.3033 33.5202 36.9804 34.2877ZM27.2933 22.9516H32.3335C36.3468 22.9516 39.6001 19.6937 39.6001 15.6757C39.6001 11.6616 36.3439 8.4008 32.3339 8.4008C28.3207 8.4008 25.0677 11.6565 25.0677 15.6738V20.7192C25.0677 21.9501 26.0637 22.9516 27.2933 22.9516ZM27.2919 15.6738C27.2927 14.6757 27.5891 13.7002 28.1436 12.8707C28.6982 12.0412 29.486 11.3949 30.4074 11.0135C31.3288 10.6321 32.3425 10.5328 33.3204 10.728C34.2982 10.9233 35.1962 11.4044 35.901 12.1105C36.6057 12.8165 37.0855 13.7159 37.2797 14.695C37.4738 15.674 37.3737 16.6886 36.9919 17.6106C36.61 18.5327 35.9637 19.3207 35.1345 19.8751C34.3054 20.4294 33.3306 20.7253 32.3335 20.7252H27.2919C27.2917 20.7235 27.2917 20.7218 27.2919 20.7201V15.6738Z" fill="#58B69B"/>
</svg>
