<svg width="428" height="332" viewBox="0 0 428 332" fill="none" xmlns="http://www.w3.org/2000/svg">
<g opacity="0.9">
<g filter="url(#filter0_i_1835_4728)">
<path d="M98.9736 219.178L114.196 217.915V272.636L98.9736 273.899V219.178Z" fill="url(#paint0_linear_1835_4728)"/>
<path d="M64.7234 231.216L79.9457 229.953V275.477L64.7234 276.74V231.216Z" fill="url(#paint1_linear_1835_4728)"/>
<path d="M133.224 202.541L148.446 201.278V269.794L133.224 271.057V202.541Z" fill="url(#paint2_linear_1835_4728)"/>
<path d="M167.474 185.444L182.697 184.181V266.952L167.474 268.215V185.444Z" fill="url(#paint3_linear_1835_4728)"/>
<path d="M201.724 170.186L216.947 168.923V264.11L201.724 265.373V170.186Z" fill="url(#paint4_linear_1835_4728)"/>
<path d="M234.519 152.611L249.741 151.348V261.249L234.519 262.512V152.611Z" fill="url(#paint5_linear_1835_4728)"/>
<path d="M264.401 117.983L279.623 116.72V258.35L264.401 259.613V117.983Z" fill="url(#paint6_linear_1835_4728)"/>
<path d="M292.826 106.328L308.049 105.065V255.432L292.826 256.695V106.328Z" fill="url(#paint7_linear_1835_4728)"/>
<path d="M321.252 62.0242L336.475 60.7612V252.514L321.252 253.777V62.0242Z" fill="url(#paint8_linear_1835_4728)"/>
<path d="M350.196 29.9527L365.418 28.6897V249.413L350.196 250.676V29.9527Z" fill="url(#paint9_linear_1835_4728)"/>
</g>
<path d="M216.447 169.465V263.651L202.225 264.831V170.645L216.447 169.465ZM182.197 184.723V266.493L167.974 267.673V185.903L182.197 184.723ZM147.947 201.82V269.334L133.724 270.514V203L147.947 201.82ZM113.697 218.457V272.176L99.4735 273.356V219.637L113.697 218.457ZM79.4462 230.495V275.018L65.2231 276.198V231.675L79.4462 230.495ZM249.241 151.89V260.79L235.019 261.97V153.07L249.241 151.89ZM279.123 117.262V257.891L264.901 259.071V118.442L279.123 117.262ZM307.549 105.607V254.974L293.326 256.154V106.787L307.549 105.607ZM335.975 61.3028V252.055L321.752 253.235V62.4829L335.975 61.3028ZM364.918 29.2318V248.953L350.696 250.133V30.4118L364.918 29.2318Z" stroke="#D9FBFF"/>
<path d="M54.5865 277.273L404.801 247.286" stroke="#D9FBFF"/>
<g filter="url(#filter1_f_1835_4728)">
<path d="M21.1702 304.886C19.6217 306.518 19.6451 309.053 21.2224 310.547C22.7997 312.042 25.3337 311.93 26.8822 310.297L24.0262 307.592L21.1702 304.886ZM123.508 202.723L125.224 199.045L122.649 197.912L120.652 200.017L123.508 202.723ZM151.591 215.078L149.875 218.756L151.617 219.522L153.349 218.614L151.591 215.078ZM261.068 157.683L262.827 161.219L263.716 160.753L264.3 159.933L261.068 157.683ZM294.15 111.234L294.564 107.236L292.276 107.078L290.918 108.984L294.15 111.234ZM336.037 114.14L335.622 118.137L337.819 118.29L339.183 116.504L336.037 114.14ZM407.977 20.0235L365.079 38.7237L401.416 66.0265L407.977 20.0235ZM24.0262 307.592L26.8822 310.297L126.364 205.429L123.508 202.723L120.652 200.017L21.1702 304.886L24.0262 307.592ZM123.508 202.723L121.792 206.401L149.875 218.756L151.591 215.078L153.307 211.4L125.224 199.045L123.508 202.723ZM151.591 215.078L153.349 218.614L262.827 161.219L261.068 157.683L259.31 154.147L149.833 211.542L151.591 215.078ZM261.068 157.683L264.3 159.933L297.381 113.484L294.15 111.234L290.918 108.984L257.837 155.433L261.068 157.683ZM294.15 111.234L293.735 115.232L335.622 118.137L336.037 114.14L336.451 110.142L294.564 107.236L294.15 111.234ZM336.037 114.14L339.183 116.504L388.868 51.5044L385.721 49.14L382.574 46.7755L332.89 111.775L336.037 114.14Z" fill="url(#paint10_linear_1835_4728)"/>
</g>
<path d="M21.8842 305.562C20.7229 306.786 20.7404 308.687 21.9234 309.808C23.1064 310.929 25.0068 310.845 26.1682 309.621L24.0262 307.591L21.8842 305.562ZM123.508 202.723L124.795 199.964L122.863 199.115L121.366 200.693L123.508 202.723ZM151.591 215.077L150.304 217.836L151.611 218.411L152.91 217.73L151.591 215.077ZM261.068 157.683L262.387 160.335L263.054 159.986L263.492 159.371L261.068 157.683ZM294.15 111.234L294.461 108.235L292.744 108.116L291.726 109.546L294.15 111.234ZM336.037 114.139L335.725 117.138L337.384 117.253L338.407 115.9L336.037 114.139ZM409.478 17.0198L377.375 31.2149L404.742 51.5416L409.478 17.0198ZM24.0262 307.591L26.1682 309.621L125.65 204.752L123.508 202.723L121.366 200.693L21.8842 305.562L24.0262 307.591ZM123.508 202.723L122.221 205.481L150.304 217.836L151.591 215.077L152.878 212.319L124.795 199.964L123.508 202.723ZM151.591 215.077L152.91 217.73L262.387 160.335L261.068 157.683L259.75 155.031L150.272 212.425L151.591 215.077ZM261.068 157.683L263.492 159.371L296.573 112.921L294.15 111.234L291.726 109.546L258.645 155.995L261.068 157.683ZM294.15 111.234L293.838 114.232L335.725 117.138L336.037 114.139L336.348 111.141L294.461 108.235L294.15 111.234ZM336.037 114.139L338.407 115.9L395.271 40.7027L392.9 38.9424L390.53 37.1821L333.666 112.379L336.037 114.139Z" fill="url(#paint11_linear_1835_4728)"/>
</g>
<defs>
<filter id="filter0_i_1835_4728" x="64.7234" y="28.6899" width="300.694" height="248.051" filterUnits="userSpaceOnUse" color-interpolation-filters="sRGB">
<feFlood flood-opacity="0" result="BackgroundImageFix"/>
<feBlend mode="normal" in="SourceGraphic" in2="BackgroundImageFix" result="shape"/>
<feColorMatrix in="SourceAlpha" type="matrix" values="0 0 0 0 0 0 0 0 0 0 0 0 0 0 0 0 0 0 127 0" result="hardAlpha"/>
<feOffset/>
<feGaussianBlur stdDeviation="10"/>
<feComposite in2="hardAlpha" operator="arithmetic" k2="-1" k3="1"/>
<feColorMatrix type="matrix" values="0 0 0 0 0.875 0 0 0 0 0.952083 0 0 0 0 1 0 0 0 1 0"/>
<feBlend mode="normal" in2="shape" result="effect1_innerShadow_1835_4728"/>
</filter>
<filter id="filter1_f_1835_4728" x="0" y="0" width="428" height="331.622" filterUnits="userSpaceOnUse" color-interpolation-filters="sRGB">
<feFlood flood-opacity="0" result="BackgroundImageFix"/>
<feBlend mode="normal" in="SourceGraphic" in2="BackgroundImageFix" result="shape"/>
<feGaussianBlur stdDeviation="10" result="effect1_foregroundBlur_1835_4728"/>
</filter>
<linearGradient id="paint0_linear_1835_4728" x1="226.461" y1="42.5979" x2="244.649" y2="261.812" gradientUnits="userSpaceOnUse">
<stop stop-color="white"/>
<stop offset="0.695823" stop-color="#4A9EFF"/>
<stop offset="1" stop-color="#4CA0FF"/>
</linearGradient>
<linearGradient id="paint1_linear_1835_4728" x1="226.461" y1="42.5979" x2="244.649" y2="261.812" gradientUnits="userSpaceOnUse">
<stop stop-color="white"/>
<stop offset="0.695823" stop-color="#4A9EFF"/>
<stop offset="1" stop-color="#4CA0FF"/>
</linearGradient>
<linearGradient id="paint2_linear_1835_4728" x1="226.461" y1="42.5979" x2="244.649" y2="261.812" gradientUnits="userSpaceOnUse">
<stop stop-color="white"/>
<stop offset="0.695823" stop-color="#4A9EFF"/>
<stop offset="1" stop-color="#4CA0FF"/>
</linearGradient>
<linearGradient id="paint3_linear_1835_4728" x1="226.461" y1="42.5979" x2="244.649" y2="261.812" gradientUnits="userSpaceOnUse">
<stop stop-color="white"/>
<stop offset="0.695823" stop-color="#4A9EFF"/>
<stop offset="1" stop-color="#4CA0FF"/>
</linearGradient>
<linearGradient id="paint4_linear_1835_4728" x1="226.461" y1="42.5979" x2="244.649" y2="261.812" gradientUnits="userSpaceOnUse">
<stop stop-color="white"/>
<stop offset="0.695823" stop-color="#4A9EFF"/>
<stop offset="1" stop-color="#4CA0FF"/>
</linearGradient>
<linearGradient id="paint5_linear_1835_4728" x1="226.461" y1="42.5979" x2="244.649" y2="261.812" gradientUnits="userSpaceOnUse">
<stop stop-color="white"/>
<stop offset="0.695823" stop-color="#4A9EFF"/>
<stop offset="1" stop-color="#4CA0FF"/>
</linearGradient>
<linearGradient id="paint6_linear_1835_4728" x1="226.461" y1="42.5979" x2="244.649" y2="261.812" gradientUnits="userSpaceOnUse">
<stop stop-color="white"/>
<stop offset="0.695823" stop-color="#4A9EFF"/>
<stop offset="1" stop-color="#4CA0FF"/>
</linearGradient>
<linearGradient id="paint7_linear_1835_4728" x1="226.461" y1="42.5979" x2="244.649" y2="261.812" gradientUnits="userSpaceOnUse">
<stop stop-color="white"/>
<stop offset="0.695823" stop-color="#4A9EFF"/>
<stop offset="1" stop-color="#4CA0FF"/>
</linearGradient>
<linearGradient id="paint8_linear_1835_4728" x1="226.461" y1="42.5979" x2="244.649" y2="261.812" gradientUnits="userSpaceOnUse">
<stop stop-color="white"/>
<stop offset="0.695823" stop-color="#4A9EFF"/>
<stop offset="1" stop-color="#4CA0FF"/>
</linearGradient>
<linearGradient id="paint9_linear_1835_4728" x1="226.461" y1="42.5979" x2="244.649" y2="261.812" gradientUnits="userSpaceOnUse">
<stop stop-color="white"/>
<stop offset="0.695823" stop-color="#4A9EFF"/>
<stop offset="1" stop-color="#4CA0FF"/>
</linearGradient>
<linearGradient id="paint10_linear_1835_4728" x1="411.719" y1="22.7479" x2="30.8785" y2="316.168" gradientUnits="userSpaceOnUse">
<stop stop-color="#B1DEFF"/>
<stop offset="1" stop-color="#7DE7FF"/>
</linearGradient>
<linearGradient id="paint11_linear_1835_4728" x1="411.719" y1="22.7478" x2="30.8785" y2="316.168" gradientUnits="userSpaceOnUse">
<stop stop-color="white"/>
<stop offset="1" stop-color="#72EAFF"/>
</linearGradient>
</defs>
</svg>
