<svg width="72" height="72" viewBox="0 0 72 72" fill="none" xmlns="http://www.w3.org/2000/svg">
<g filter="url(#filter0_d_1829_4455)">
<rect x="12" y="4" width="48" height="48" rx="8" fill="white"/>
<path d="M27.6662 12.4004C23.6563 12.4004 20.4004 15.6621 20.4004 19.6763C20.4004 23.6942 23.6544 26.9521 27.6682 26.9521H32.7085C33.9381 26.9521 34.932 25.9506 34.932 24.7199V19.6743C34.9315 15.6571 31.6795 12.4004 27.6662 12.4004ZM32.7073 24.7199V24.7207C32.7079 24.7224 32.7084 24.7241 32.7088 24.7258H27.6682C26.6682 24.7284 25.6898 24.4339 24.8571 23.8795C24.0243 23.3251 23.3747 22.5358 22.9904 21.6115C22.6062 20.6873 22.5046 19.6696 22.6985 18.6875C22.8924 17.7054 23.3732 16.803 24.0799 16.0946C24.7865 15.3862 25.6873 14.9037 26.6681 14.7082C27.649 14.5127 28.6657 14.6129 29.5896 14.9963C30.5134 15.3796 31.3028 16.0288 31.8578 16.8616C32.4129 17.6944 32.7085 18.6733 32.7073 19.6744V24.7199ZM32.708 29.0528H27.6682C23.655 29.0528 20.4016 32.3091 20.4016 36.3265C20.4016 40.3406 23.6563 43.6004 27.6669 43.6004C31.6801 43.6004 34.9321 40.3436 34.9321 36.3262V31.2808C34.9315 30.0498 33.9375 29.0528 32.708 29.0528ZM32.7073 36.3261C32.7083 37.3182 32.4168 38.2886 31.8693 39.1156C31.3218 39.9426 30.5425 40.5894 29.6293 40.9749C29.0092 41.2374 28.3493 41.3676 27.6682 41.3676C26.9877 41.3676 26.3283 41.2374 25.7079 40.9747C24.6347 40.5229 23.7509 39.7131 23.2066 38.6829C22.6623 37.6527 22.491 36.4657 22.722 35.3234C22.9529 34.1812 23.5718 33.1542 24.4735 32.417C25.3752 31.6797 26.504 31.2777 27.6682 31.2793H32.7094C32.7089 31.2792 32.7084 31.2792 32.7079 31.2793V36.3256L32.7073 36.3261ZM44.3335 29.0528H39.2933C39.001 29.0527 38.7116 29.1103 38.4415 29.2223C38.1715 29.3342 37.9261 29.4983 37.7194 29.7052C37.5127 29.9121 37.3488 30.1577 37.237 30.428C37.1251 30.6984 37.0676 30.9881 37.0677 31.2807V36.3261C37.0677 40.3434 40.3207 43.6001 44.3339 43.6001C48.3439 43.6001 51.6004 40.3406 51.6004 36.3265C51.6003 32.3091 48.3468 29.0528 44.3335 29.0528ZM48.9804 38.2882C48.5289 39.3627 47.7197 40.2476 46.6903 40.7926C45.661 41.3376 44.4749 41.5091 43.3335 41.2779C42.1921 41.0467 41.1659 40.4272 40.4292 39.5244C39.6924 38.6217 39.2906 37.4915 39.2919 36.3258V31.2793H44.333C45.165 31.2794 45.9839 31.4856 46.717 31.8793C47.45 32.2731 48.0744 32.8423 48.5345 33.5361C48.9945 34.23 49.276 35.0269 49.3538 35.8561C49.4316 36.6852 49.3033 37.5207 48.9804 38.2882ZM39.2933 26.9521H44.3335C48.3468 26.9521 51.6001 23.6942 51.6001 19.6762C51.6001 15.6621 48.3439 12.4013 44.3339 12.4013C40.3207 12.4013 37.0677 15.657 37.0677 19.6743V24.7197C37.0677 25.9506 38.0637 26.9521 39.2933 26.9521ZM39.2919 19.6743C39.2927 18.6762 39.5891 17.7007 40.1436 16.8712C40.6982 16.0417 41.486 15.3954 42.4074 15.014C43.3288 14.6326 44.3425 14.5333 45.3204 14.7285C46.2982 14.9238 47.1962 15.4049 47.901 16.1109C48.6057 16.817 49.0855 17.7164 49.2797 18.6954C49.4738 19.6744 49.3737 20.6891 48.9919 21.6111C48.61 22.5332 47.9637 23.3212 47.1345 23.8755C46.3054 24.4299 45.3306 24.7257 44.3335 24.7256H39.2919C39.2917 24.724 39.2917 24.7223 39.2919 24.7206V19.6743Z" fill="#58B69B"/>
</g>
<defs>
<filter id="filter0_d_1829_4455" x="0" y="0" width="72" height="72" filterUnits="userSpaceOnUse" color-interpolation-filters="sRGB">
<feFlood flood-opacity="0" result="BackgroundImageFix"/>
<feColorMatrix in="SourceAlpha" type="matrix" values="0 0 0 0 0 0 0 0 0 0 0 0 0 0 0 0 0 0 127 0" result="hardAlpha"/>
<feOffset dy="8"/>
<feGaussianBlur stdDeviation="6"/>
<feComposite in2="hardAlpha" operator="out"/>
<feColorMatrix type="matrix" values="0 0 0 0 0 0 0 0 0 0 0 0 0 0 0 0 0 0 0.12 0"/>
<feBlend mode="normal" in2="BackgroundImageFix" result="effect1_dropShadow_1829_4455"/>
<feBlend mode="normal" in="SourceGraphic" in2="effect1_dropShadow_1829_4455" result="shape"/>
</filter>
</defs>
</svg>
