<svg width="72" height="72" viewBox="0 0 72 72" fill="none" xmlns="http://www.w3.org/2000/svg">
<g filter="url(#filter0_d_1829_4447)">
<rect x="12" y="4" width="48" height="48" rx="8" fill="white"/>
<path d="M27.875 29.125C27.875 29.6223 28.0725 30.0992 28.4242 30.4508C28.7758 30.8025 29.2527 31 29.75 31C30.2473 31 30.7242 30.8025 31.0758 30.4508C31.4275 30.0992 31.625 29.6223 31.625 29.125C31.625 28.6277 31.4275 28.1508 31.0758 27.7992C30.7242 27.4475 30.2473 27.25 29.75 27.25C29.2527 27.25 28.7758 27.4475 28.4242 27.7992C28.0725 28.1508 27.875 28.6277 27.875 29.125Z" fill="#7661AA"/>
<path d="M34.125 29.125C34.125 29.6223 34.3225 30.0992 34.6742 30.4508C35.0258 30.8025 35.5027 31 36 31C36.4973 31 36.9742 30.8025 37.3258 30.4508C37.6775 30.0992 37.875 29.6223 37.875 29.125C37.875 28.6277 37.6775 28.1508 37.3258 27.7992C36.9742 27.4475 36.4973 27.25 36 27.25C35.5027 27.25 35.0258 27.4475 34.6742 27.7992C34.3225 28.1508 34.125 28.6277 34.125 29.125Z" fill="#7661AA"/>
<path d="M40.375 29.125C40.375 29.6223 40.5725 30.0992 40.9242 30.4508C41.2758 30.8025 41.7527 31 42.25 31C42.7473 31 43.2242 30.8025 43.5758 30.4508C43.9275 30.0992 44.125 29.6223 44.125 29.125C44.125 28.6277 43.9275 28.1508 43.5758 27.7992C43.2242 27.4475 42.7473 27.25 42.25 27.25C41.7527 27.25 41.2758 27.4475 40.9242 27.7992C40.5725 28.1508 40.375 28.6277 40.375 29.125Z" fill="#7661AA"/>
<path d="M29.7125 37.8071L34.32 35.2046C34.6952 34.9925 35.1189 34.8809 35.55 34.8809H47.2563C47.586 34.8805 47.9022 34.7494 48.1353 34.5162C48.3685 34.283 48.4997 33.9669 48.5 33.6371V23.6246C48.4997 23.2948 48.3685 22.9787 48.1353 22.7455C47.9022 22.5123 47.586 22.3812 47.2563 22.3809H24.7438C24.414 22.3812 24.0978 22.5123 23.8647 22.7455C23.6315 22.9787 23.5003 23.2948 23.5 23.6246V33.6371C23.5 34.3234 24.0575 34.8809 24.7438 34.8809H27.25C27.6143 34.881 27.9742 34.9607 28.3044 35.1145C28.6347 35.2683 28.9274 35.4924 29.1619 35.7712C29.3965 36.0499 29.5673 36.3766 29.6624 36.7282C29.7575 37.0799 29.7746 37.4481 29.7125 37.8071ZM27.0138 42.1171C26.9076 42.1159 26.8034 42.0878 26.7111 42.0353C26.6188 41.9829 26.5412 41.9079 26.4858 41.8174C26.4303 41.7268 26.3988 41.6237 26.394 41.5176C26.3893 41.4115 26.4116 41.306 26.4587 41.2109L27.25 37.3809H24.7438C23.7508 37.3809 22.7986 36.9864 22.0965 36.2843C21.3944 35.5823 21 34.63 21 33.6371V23.6246C21 22.6317 21.3944 21.6795 22.0965 20.9774C22.7986 20.2753 23.7508 19.8809 24.7438 19.8809H47.2563C48.2492 19.8809 49.2014 20.2753 49.9035 20.9774C50.6056 21.6795 51 22.6317 51 23.6246V33.6371C51 34.63 50.6056 35.5823 49.9035 36.2843C49.2014 36.9864 48.2492 37.3809 47.2563 37.3809H35.55L27.25 42.0709C27.1749 42.1012 27.0947 42.1169 27.0138 42.1171Z" fill="#7661AA"/>
</g>
<defs>
<filter id="filter0_d_1829_4447" x="0" y="0" width="72" height="72" filterUnits="userSpaceOnUse" color-interpolation-filters="sRGB">
<feFlood flood-opacity="0" result="BackgroundImageFix"/>
<feColorMatrix in="SourceAlpha" type="matrix" values="0 0 0 0 0 0 0 0 0 0 0 0 0 0 0 0 0 0 127 0" result="hardAlpha"/>
<feOffset dy="8"/>
<feGaussianBlur stdDeviation="6"/>
<feComposite in2="hardAlpha" operator="out"/>
<feColorMatrix type="matrix" values="0 0 0 0 0 0 0 0 0 0 0 0 0 0 0 0 0 0 0.12 0"/>
<feBlend mode="normal" in2="BackgroundImageFix" result="effect1_dropShadow_1829_4447"/>
<feBlend mode="normal" in="SourceGraphic" in2="effect1_dropShadow_1829_4447" result="shape"/>
</filter>
</defs>
</svg>
