<svg width="40" height="40" viewBox="0 0 40 40" fill="none" xmlns="http://www.w3.org/2000/svg">
<g clip-path="url(#clip0_4686_11644)">
<path d="M-10 0H50V40H-10V0Z" fill="white"/>
<path d="M-10 0H50V13.3333H-10V0Z" fill="#FF6820"/>
<path d="M-10 26.6665H50V39.9998H-10V26.6665Z" fill="#046A38"/>
<path d="M19.9997 26.1668C23.4054 26.1668 26.1663 23.4059 26.1663 20.0002C26.1663 16.5944 23.4054 13.8335 19.9997 13.8335C16.5939 13.8335 13.833 16.5944 13.833 20.0002C13.833 23.4059 16.5939 26.1668 19.9997 26.1668Z" fill="#07038D"/>
<path d="M20.0003 25.3332C22.9458 25.3332 25.3337 22.9454 25.3337 19.9998C25.3337 17.0543 22.9458 14.6665 20.0003 14.6665C17.0548 14.6665 14.667 17.0543 14.667 19.9998C14.667 22.9454 17.0548 25.3332 20.0003 25.3332Z" fill="white"/>
<path d="M20.0003 21.0664C20.5894 21.0664 21.0669 20.5889 21.0669 19.9998C21.0669 19.4107 20.5894 18.9331 20.0003 18.9331C19.4112 18.9331 18.9336 19.4107 18.9336 19.9998C18.9336 20.5889 19.4112 21.0664 20.0003 21.0664Z" fill="#07038D"/>
<path d="M19.9998 14.6665L20.1998 17.8758L19.9998 19.4652L19.7998 17.8758L19.9998 14.6665Z" fill="#07038D"/>
<path d="M20.6655 14.9433C20.7933 14.9601 20.9105 14.8702 20.9273 14.7424C20.9442 14.6147 20.8542 14.4975 20.7265 14.4807C20.5987 14.4638 20.4815 14.5538 20.4647 14.6815C20.4478 14.8093 20.5378 14.9265 20.6655 14.9433Z" fill="#07038D"/>
<path d="M19.9992 25.333L19.7992 22.1237L19.9992 20.5343L20.1992 22.1237L19.9992 25.333Z" fill="#07038D"/>
<path d="M19.3335 25.0562C19.2057 25.0394 19.0885 25.1293 19.0717 25.2571C19.0549 25.3848 19.1448 25.502 19.2726 25.5189C19.4003 25.5357 19.5175 25.4457 19.5344 25.318C19.5512 25.1902 19.4612 25.073 19.3335 25.0562Z" fill="#07038D"/>
<path d="M21.3778 14.8457L20.7403 17.9975L20.1358 19.4809L20.3539 17.8939L21.3778 14.8457Z" fill="#07038D"/>
<path d="M21.9491 15.2856C22.0682 15.3349 22.2046 15.2784 22.254 15.1593C22.3033 15.0402 22.2467 14.9037 22.1277 14.8544C22.0086 14.8051 21.8721 14.8617 21.8228 14.9807C21.7735 15.0998 21.83 15.2363 21.9491 15.2856Z" fill="#07038D"/>
<path d="M18.6183 25.1494L19.2558 21.9977L19.8603 20.5143L19.6422 22.1012L18.6183 25.1494Z" fill="#07038D"/>
<path d="M18.047 24.7095C17.9279 24.6602 17.7914 24.7168 17.7421 24.8358C17.6928 24.9549 17.7494 25.0914 17.8684 25.1407C17.9875 25.19 18.124 25.1335 18.1733 25.0144C18.2226 24.8954 18.1661 24.7589 18.047 24.7095Z" fill="#07038D"/>
<path d="M22.6673 15.3813L21.2359 18.2606L20.268 19.537L20.8895 18.0606L22.6673 15.3813Z" fill="#07038D"/>
<path d="M23.1051 15.9542C23.2074 16.0326 23.3538 16.0133 23.4323 15.9111C23.5107 15.8089 23.4915 15.6624 23.3892 15.5839C23.287 15.5055 23.1405 15.5248 23.0621 15.627C22.9836 15.7292 23.0029 15.8757 23.1051 15.9542Z" fill="#07038D"/>
<path d="M17.3336 24.6187L18.7651 21.7394L19.733 20.463L19.1115 21.9394L17.3336 24.6187Z" fill="#07038D"/>
<path d="M16.8958 24.0458C16.7936 23.9674 16.6471 23.9867 16.5687 24.0889C16.4902 24.1911 16.5095 24.3376 16.6118 24.4161C16.714 24.4945 16.8605 24.4752 16.9389 24.373C17.0174 24.2708 16.9981 24.1243 16.8958 24.0458Z" fill="#07038D"/>
<path d="M23.7713 16.2288L21.6434 18.6396L20.3781 19.622L21.3605 18.3567L23.7713 16.2288Z" fill="#07038D"/>
<path d="M24.0462 16.8955C24.1247 16.9977 24.2711 17.017 24.3734 16.9385C24.4756 16.8601 24.4949 16.7136 24.4165 16.6114C24.338 16.5091 24.1915 16.4899 24.0893 16.5683C23.9871 16.6468 23.9678 16.7932 24.0462 16.8955Z" fill="#07038D"/>
<path d="M16.2297 23.7712L18.3576 21.3604L19.6228 20.378L18.6404 21.6433L16.2297 23.7712Z" fill="#07038D"/>
<path d="M15.9548 23.1045C15.8763 23.0023 15.7298 22.983 15.6276 23.0615C15.5254 23.1399 15.5061 23.2864 15.5845 23.3886C15.663 23.4909 15.8094 23.5101 15.9117 23.4317C16.0139 23.3532 16.0332 23.2068 15.9548 23.1045Z" fill="#07038D"/>
<path d="M24.6186 17.3338L21.9392 19.1117L20.4628 19.7332L21.7392 18.7653L24.6186 17.3338Z" fill="#07038D"/>
<path d="M24.7119 18.0489C24.7612 18.168 24.8977 18.2245 25.0167 18.1752C25.1358 18.1259 25.1923 17.9894 25.143 17.8704C25.0937 17.7513 24.9572 17.6948 24.8381 17.7441C24.7191 17.7934 24.6625 17.9299 24.7119 18.0489Z" fill="#07038D"/>
<path d="M15.3814 22.6666L18.0608 20.8888L19.5372 20.2673L18.2608 21.2352L15.3814 22.6666Z" fill="#07038D"/>
<path d="M15.2881 21.9515C15.2388 21.8325 15.1023 21.776 14.9833 21.8253C14.8642 21.8746 14.8077 22.0111 14.857 22.1301C14.9063 22.2492 15.0428 22.3057 15.1619 22.2564C15.2809 22.2071 15.3375 22.0706 15.2881 21.9515Z" fill="#07038D"/>
<path d="M25.1514 18.6195L22.1032 19.6433L20.5162 19.8614L21.9996 19.2569L25.1514 18.6195Z" fill="#07038D"/>
<path d="M25.0561 19.3342C25.0729 19.462 25.1901 19.5519 25.3179 19.5351C25.4456 19.5183 25.5356 19.4011 25.5187 19.2733C25.5019 19.1456 25.3847 19.0556 25.2569 19.0724C25.1292 19.0893 25.0392 19.2065 25.0561 19.3342Z" fill="#07038D"/>
<path d="M14.8486 21.3801L17.8968 20.3562L19.4838 20.1381L18.0004 20.7426L14.8486 21.3801Z" fill="#07038D"/>
<path d="M14.9439 20.6653C14.9271 20.5375 14.8099 20.4476 14.6821 20.4644C14.5544 20.4812 14.4644 20.5984 14.4813 20.7262C14.4981 20.8539 14.6153 20.9439 14.7431 20.9271C14.8708 20.9102 14.9608 20.793 14.9439 20.6653Z" fill="#07038D"/>
<path d="M25.333 20.0003L22.1237 20.2003L20.5343 20.0003L22.1237 19.8003L25.333 20.0003Z" fill="#07038D"/>
<path d="M25.0567 20.666C25.0399 20.7938 25.1298 20.911 25.2576 20.9278C25.3853 20.9446 25.5025 20.8547 25.5193 20.7269C25.5362 20.5992 25.4462 20.482 25.3185 20.4652C25.1907 20.4483 25.0735 20.5383 25.0567 20.666Z" fill="#07038D"/>
<path d="M14.667 20.0007L17.8763 19.8007L19.4657 20.0007L17.8763 20.2007L14.667 20.0007Z" fill="#07038D"/>
<path d="M14.9433 19.3349C14.9601 19.2072 14.8702 19.09 14.7424 19.0731C14.6147 19.0563 14.4975 19.1463 14.4807 19.274C14.4638 19.4018 14.5538 19.519 14.6815 19.5358C14.8093 19.5526 14.9265 19.4627 14.9433 19.3349Z" fill="#07038D"/>
<path d="M25.1523 21.3807L22.0006 20.7432L20.5172 20.1387L22.1041 20.3569L25.1523 21.3807Z" fill="#07038D"/>
<path d="M24.713 21.952C24.6636 22.0711 24.7202 22.2076 24.8392 22.2569C24.9583 22.3062 25.0948 22.2497 25.1441 22.1306C25.1934 22.0116 25.1369 21.8751 25.0178 21.8257C24.8988 21.7764 24.7623 21.833 24.713 21.952Z" fill="#07038D"/>
<path d="M14.8486 18.6203L18.0004 19.2577L19.4838 19.8623L17.8969 19.6441L14.8486 18.6203Z" fill="#07038D"/>
<path d="M15.288 18.049C15.3373 17.9299 15.2808 17.7934 15.1617 17.7441C15.0427 17.6948 14.9062 17.7513 14.8569 17.8704C14.8076 17.9894 14.8641 18.1259 14.9832 18.1752C15.1022 18.2245 15.2387 18.168 15.288 18.049Z" fill="#07038D"/>
<path d="M24.6178 22.6669L21.7384 21.2354L20.462 20.2675L21.9384 20.889L24.6178 22.6669Z" fill="#07038D"/>
<path d="M24.0453 23.1051C23.9669 23.2074 23.9862 23.3538 24.0884 23.4323C24.1906 23.5107 24.3371 23.4915 24.4156 23.3892C24.494 23.287 24.4747 23.1405 24.3725 23.0621C24.2703 22.9836 24.1238 23.0029 24.0453 23.1051Z" fill="#07038D"/>
<path d="M15.3813 17.3336L18.2606 18.7651L19.537 19.733L18.0606 19.1115L15.3813 17.3336Z" fill="#07038D"/>
<path d="M15.9537 16.8954C16.0321 16.7931 16.0128 16.6466 15.9106 16.5682C15.8084 16.4898 15.6619 16.509 15.5835 16.6113C15.505 16.7135 15.5243 16.86 15.6265 16.9384C15.7288 17.0169 15.8752 16.9976 15.9537 16.8954Z" fill="#07038D"/>
<path d="M23.7697 23.7713L21.3589 21.6434L20.3765 20.3781L21.6418 21.3605L23.7697 23.7713Z" fill="#07038D"/>
<path d="M23.104 24.0462C23.0018 24.1247 22.9825 24.2711 23.061 24.3734C23.1394 24.4756 23.2859 24.4949 23.3881 24.4165C23.4904 24.338 23.5096 24.1915 23.4312 24.0893C23.3527 23.9871 23.2063 23.9678 23.104 24.0462Z" fill="#07038D"/>
<path d="M16.2283 16.2287L18.6391 18.3566L19.6215 19.6219L18.3563 18.6395L16.2283 16.2287Z" fill="#07038D"/>
<path d="M16.894 15.9538C16.9962 15.8753 17.0155 15.7289 16.9371 15.6266C16.8586 15.5244 16.7122 15.5051 16.6099 15.5835C16.5077 15.662 16.4884 15.8085 16.5668 15.9107C16.6453 16.0129 16.7918 16.0322 16.894 15.9538Z" fill="#07038D"/>
<path d="M22.6657 24.6186L20.8878 21.9392L20.2663 20.4628L21.2342 21.7392L22.6657 24.6186Z" fill="#07038D"/>
<path d="M21.9506 24.7119C21.8315 24.7612 21.775 24.8977 21.8243 25.0167C21.8736 25.1358 22.0101 25.1923 22.1292 25.143C22.2482 25.0937 22.3047 24.9572 22.2554 24.8381C22.2061 24.7191 22.0696 24.6625 21.9506 24.7119Z" fill="#07038D"/>
<path d="M17.3324 15.381L19.1103 18.0603L19.7317 19.5367L18.7638 18.2603L17.3324 15.381Z" fill="#07038D"/>
<path d="M18.0475 15.2877C18.1665 15.2383 18.2231 15.1018 18.1738 14.9828C18.1244 14.8637 17.9879 14.8072 17.8689 14.8565C17.7498 14.9058 17.6933 15.0423 17.7426 15.1614C17.7919 15.2804 17.9284 15.337 18.0475 15.2877Z" fill="#07038D"/>
<path d="M21.3791 25.1514L20.3553 22.1032L20.1371 20.5162L20.7416 21.9996L21.3791 25.1514Z" fill="#07038D"/>
<path d="M20.6638 25.0561C20.536 25.0729 20.4461 25.1901 20.4629 25.3179C20.4797 25.4456 20.597 25.5356 20.7247 25.5187C20.8525 25.5019 20.9424 25.3847 20.9256 25.2569C20.9088 25.1292 20.7916 25.0392 20.6638 25.0561Z" fill="#07038D"/>
<path d="M18.618 14.8481L19.6418 17.8964L19.86 19.4833L19.2554 17.9999L18.618 14.8481Z" fill="#07038D"/>
<path d="M19.3333 14.9434C19.461 14.9266 19.551 14.8094 19.5341 14.6817C19.5173 14.5539 19.4001 14.464 19.2724 14.4808C19.1446 14.4976 19.0547 14.6148 19.0715 14.7426C19.0883 14.8703 19.2055 14.9603 19.3333 14.9434Z" fill="#07038D"/>
</g>
<defs>
<clipPath id="clip0_4686_11644">
<rect width="40" height="40" rx="20" fill="white"/>
</clipPath>
</defs>
</svg>
