<svg width="44" height="44" viewBox="0 0 44 44" fill="none" xmlns="http://www.w3.org/2000/svg">
<g clip-path="url(#clip0_4686_11746)">
<path d="M38 20C38 15.2261 36.1036 10.6477 32.7279 7.27208C29.3523 3.89642 24.7739 2 20 2C15.2261 2 10.6477 3.89642 7.27208 7.27208C3.89642 10.6477 2 15.2261 2 20C2 24.7739 3.89642 29.3523 7.27208 32.7279C10.6477 36.1036 15.2261 38 20 38C24.7739 38 29.3523 36.1036 32.7279 32.7279C36.1036 29.3523 38 24.7739 38 20Z" fill="#FF0000"/>
<path d="M20.0001 15.822L14.0603 11.5986L16.3188 18.4644L10.4017 22.8458L17.7191 22.8458L20.0001 29.5986L22.2134 22.8458H29.5986L23.704 18.4644L25.9399 11.5986L20.0001 15.822Z" fill="#FFE62E"/>
</g>
<path d="M0 20.0002C0 25.3042 2.10714 30.391 5.85786 34.1415C9.60859 37.8919 14.6957 39.999 20 39.999C25.3043 39.999 30.3914 37.8919 34.1421 34.1415C37.8929 30.391 40 25.3042 40 20.0002C40 14.6962 37.8929 9.60945 34.1421 5.85896C30.3914 2.10847 25.3043 0.00146484 20 0.00146484C14.6957 0.00146484 9.60859 2.10847 5.85786 5.85896C2.10714 9.60945 0 14.6962 0 20.0002Z" fill="white"/>
<path d="M20 20.0005L5.59277 33.8687C8.41355 36.8043 12.0647 38.8071 16.0564 39.6083C19.2253 40.2452 22.5013 40.1044 25.6039 39.1982C28.7065 38.292 31.5431 36.6473 33.871 34.405C35.808 32.54 37.3477 30.3024 38.3976 27.827C39.4474 25.3515 39.9857 22.6893 39.98 20.0005H20.0019H20Z" fill="#CE1126"/>
<path d="M20 19.9999L5.59277 6.12801C8.41459 3.19349 12.0664 1.192 16.0582 0.392003C19.2271 -0.244813 22.5031 -0.10409 25.6057 0.802117C28.7083 1.70833 31.5449 3.35301 33.8728 5.59531C35.81 7.46058 37.3499 9.69841 38.3997 12.1742C39.4496 14.65 39.9878 17.3125 39.9819 20.0017H20.0019L20 19.9999Z" fill="#0038A8"/>
<path d="M5.06929 28.0991L4.34747 27.7827L3.84747 28.3754L3.92201 27.6173L3.2002 27.3209L3.95838 27.1355L4.01474 26.3755L4.40383 27.0428L5.16201 26.8391L4.64383 27.4318L5.0711 28.0991H5.06929ZM14.2184 20.6177L14.662 19.9887L14.2184 19.3578L14.9402 19.5996L15.3857 18.9505V19.7105L16.1257 19.9505L15.4038 20.1723V20.9686L14.9402 20.3214L14.2184 20.6177ZM5.06929 11.8764L4.34565 12.1928L3.84565 11.6001L3.9202 12.3582L3.21656 12.6928L3.97656 12.84L4.0311 13.6L4.4202 12.9327L5.1802 13.1182L4.66201 12.5437L5.06929 11.8764Z" fill="#FAD400"/>
<path d="M12.4008 19.5167L12.0042 19.9637L10.3947 19.7056C10.1838 19.6595 10.4176 19.8922 10.4864 19.8922L10.9541 19.989C11.2338 20.0581 11.5136 20.0812 11.7933 20.1503C11.4448 20.4083 11.4448 20.4083 11.0711 20.3162C10.8372 20.2678 10.6721 20.2217 10.4406 20.1503C10.1586 20.0581 10.2526 20.2908 10.1356 20.5259C9.927 20.9014 10.5094 20.9982 10.8143 21.1825C11.094 21.3484 11.0711 21.4175 11.094 21.724C10.8143 21.4889 10.4864 21.3254 10.1815 21.0903C9.87886 20.8784 9.739 20.9498 10.0669 21.2078C10.4154 21.4659 10.7432 21.7009 11.0711 21.959L11.188 22.5903C10.906 22.5903 10.6492 22.7331 10.4635 22.4751L9.62207 21.4406C9.59915 21.4175 9.25065 21.2309 9.36529 21.4175L9.62207 21.7931C9.82467 22.0616 10.0196 22.3359 10.2067 22.6156C9.81008 22.5695 9.81008 22.5695 9.57622 22.2401L9.57622 22.2401C9.48222 22.0511 9.36529 21.8622 9.24836 21.6779C9.13143 21.4429 9.01451 21.6548 8.75772 21.747C8.4803 21.8415 8.52616 21.7931 8.59494 22.0765L8.78294 22.7101C8.85172 23.0142 8.78294 23.0373 8.59494 23.2976C8.47801 22.9198 8.42986 22.5695 8.36108 22.1917C8.29001 21.8184 8.10659 21.7931 8.17537 22.1917C8.22352 22.5926 8.26938 23.0373 8.33816 23.4359L7.89337 24.0004C7.63659 23.8114 7.42795 23.7193 7.45088 23.4128C7.4761 22.9912 7.54488 22.5442 7.56781 22.0995C7.56781 22.0281 7.42566 21.6065 7.40273 21.8645L7.33395 22.3092C7.26288 22.6617 7.21702 22.9912 7.14824 23.3184C6.89146 22.9912 6.89146 22.9681 6.98317 22.5926C7.03131 22.3576 7.07717 22.1917 7.14824 21.959C7.23995 21.6779 7.00609 21.77 6.74931 21.6548C6.49253 21.512 6.58653 21.512 6.42374 21.77C6.35475 21.9534 6.24255 22.1347 6.12908 22.3179L6.11881 22.3345C5.95603 22.6156 5.88725 22.5926 5.58232 22.6156C5.77098 22.2963 5.98166 21.9907 6.21282 21.7009C6.4696 21.3484 6.35267 21.2078 6.09589 21.535C5.8391 21.8875 5.55939 22.217 5.30261 22.5465L4.58041 22.6387C4.53226 22.3576 4.43826 22.0995 4.69504 21.9106C5.04744 21.6501 5.39006 21.3765 5.72217 21.0903C5.7451 21.0673 5.9331 20.7148 5.7451 20.8323L5.37139 21.0903L4.53226 21.6525C4.60104 21.2539 4.60104 21.2539 4.9289 21.0673C5.11461 20.9959 5.30261 20.8553 5.48832 20.7609C5.69925 20.5973 5.51125 20.5259 5.41954 20.2701C5.30261 19.8922 4.81197 20.1987 4.48411 20.2931C4.18147 20.3853 4.15855 20.2931 3.89947 20.1042C4.27548 20.0328 4.62626 19.9867 4.99997 19.9153C5.37139 19.8462 5.39661 19.6595 4.99997 19.731C4.60104 19.8001 4.15855 19.8231 3.76191 19.8922L3.2002 19.4476C3.43405 19.2356 3.52805 19.0259 3.83298 19.049C4.25255 19.072 4.69504 19.1434 5.13983 19.1665C5.2109 19.1665 5.63047 19.0236 5.37139 19.0006L4.9289 18.9315C4.57811 18.86 4.25255 18.8116 3.92469 18.7425C4.25255 18.5098 4.25255 18.5098 4.71797 18.625C4.93086 18.6693 5.14131 18.7246 5.34846 18.7909C5.63047 18.86 5.53647 18.6504 5.65339 18.3923C5.86203 18.0167 5.27968 17.9223 4.97475 17.7333C4.69504 17.5698 4.71797 17.5006 4.69504 17.1942C5.0229 17.4292 5.30261 17.5928 5.60754 17.8278C5.91018 18.0859 6.07296 17.9684 5.72217 17.7103C5.37139 17.4523 5.04583 17.2172 4.71797 16.9592L4.62626 16.2334C4.90597 16.1873 5.16275 16.0906 5.34846 16.3486L6.18989 17.3831C6.21282 17.4062 6.56131 17.5928 6.44667 17.4062L6.18989 17.0306C5.97896 16.7495 5.79325 16.4915 5.60525 16.2081C5.95603 16.2565 6.00189 16.2565 6.18989 16.5836C6.26096 16.7726 6.40082 16.9615 6.49253 17.1458C6.6576 17.3831 6.77453 17.1689 7.03131 17.0767C7.31102 16.9822 7.26288 17.0306 7.1918 16.7495C7.14595 16.5145 7.10009 16.3486 7.03131 16.1159C6.93731 15.8095 7.03131 15.7864 7.21702 15.5284C7.2881 15.9039 7.33395 16.2565 7.40502 16.632C7.4761 17.0076 7.65951 17.0306 7.59073 16.632C7.51966 16.2334 7.49673 15.7864 7.42795 15.3878L7.87044 14.8003C8.08137 15.0353 8.29001 15.1298 8.26708 15.4362C8.19601 15.8579 8.17308 16.3025 8.1043 16.7495C8.1043 16.8209 8.24645 17.2172 8.26937 16.9822L8.36108 16.5145C8.43216 16.162 8.4803 15.8325 8.54909 15.5053C8.80587 15.8579 8.80587 15.8579 8.70957 16.2334C8.66372 16.4661 8.61787 16.632 8.54909 16.8647C8.50094 17.1712 8.73479 17.079 8.99158 17.1942C9.25065 17.3578 9.15436 17.3578 9.31944 17.0997C9.41114 16.9131 9.53036 16.7242 9.645 16.5375C9.81008 16.2565 9.87886 16.2795 10.1838 16.2565C9.97286 16.5836 9.76193 16.8647 9.53036 17.1712C9.27129 17.5237 9.38822 17.6642 9.645 17.3347C9.90178 17.0306 10.1838 16.6781 10.4406 16.3717L11.1169 16.3486C11.1169 16.632 11.2109 16.8901 10.9541 17.0767C10.6034 17.3578 10.2526 17.6158 9.92471 17.8992C9.90178 17.9223 9.71607 18.2725 9.90178 18.1573L10.2755 17.8992L11.1169 17.3347C11.0458 17.7333 11.0458 17.7333 10.7203 17.9223L10.7203 17.9223C10.5323 17.9914 10.3443 18.1343 10.1609 18.2264C9.90178 18.367 10.0898 18.4384 10.1838 18.6964C10.3007 19.072 10.7891 18.7656 11.1169 18.6734C11.4196 18.5789 11.4448 18.625 11.7016 18.86C11.3278 18.9315 10.9771 18.9798 10.6034 19.049C10.2296 19.1204 10.2067 19.3047 10.6034 19.2356C11 19.1642 11.4448 19.1411 11.8414 19.072L12.4008 19.5167Z" fill="#FAD400"/>
<rect x="24.5" y="24.5" width="19" height="19" rx="9.5" fill="white"/>
<rect x="24.5" y="24.5" width="19" height="19" rx="9.5" stroke="#EAECF0"/>
<path d="M32.9219 33.9998C32.9219 34.6479 33.4457 35.1717 34.0938 35.1717C34.7418 35.1717 35.2656 34.6479 35.2656 33.9998C35.2656 33.5814 35.043 33.1947 34.6797 32.985C34.3164 32.7752 33.8711 32.7752 33.5078 32.985C33.1445 33.1947 32.9219 33.5814 32.9219 33.9998ZM29.4062 33.9998C29.4062 34.6479 29.9301 35.1717 30.5781 35.1717C31.2262 35.1717 31.75 34.6479 31.75 33.9998C31.75 33.5814 31.5273 33.1947 31.1641 32.985C30.8008 32.7752 30.3555 32.7752 29.9922 32.985C29.6289 33.1947 29.4062 33.5814 29.4062 33.9998ZM36.4375 33.9998C36.4375 34.6479 36.9613 35.1717 37.6094 35.1717C38.2574 35.1717 38.7812 34.6479 38.7812 33.9998C38.7812 33.5814 38.5586 33.1947 38.1953 32.985C37.832 32.7752 37.3867 32.7752 37.0234 32.985C36.6602 33.1947 36.4375 33.5814 36.4375 33.9998Z" fill="#2B2B2B"/>
<defs>
<clipPath id="clip0_4686_11746">
<rect width="36" height="36" fill="white" transform="matrix(-1 0 0 -1 38 38)"/>
</clipPath>
</defs>
</svg>
