<svg width="40" height="40" viewBox="0 0 40 40" fill="none" xmlns="http://www.w3.org/2000/svg">
<g clip-path="url(#clip0_4686_11564)">
<path d="M-10 0H66V40H-10" fill="#B22234"/>
<path d="M-10 4.61523H66H-10ZM66 10.7691H-10H66ZM-10 16.9229H66H-10ZM66 23.0768H-10H66ZM-10 29.2306H66H-10ZM66 35.3845H-10H66Z" fill="black"/>
<path d="M65.9994 33.8846V36.8843H-10V33.8846H65.9994ZM65.9994 27.7306V30.7303H-10V27.7306H65.9994ZM65.9994 21.5767V24.5763H-10V21.5767H65.9994ZM65.9994 15.4227V18.4224H-10V15.4227H65.9994ZM65.9994 9.26872V12.27H-10V9.26872H65.9994ZM65.9994 3.11475V6.11605H-10V3.11475H65.9994Z" fill="white"/>
<path d="M-10 0H20.4V21.5385H-10" fill="#3C3B6E"/>
<path d="M0.133414 3.07666L0.85684 5.30314L-1.03711 3.9271H1.30395L-0.590012 5.30314L0.133414 3.07666Z" fill="white"/>
<path d="M0.133414 7.38428L0.85684 9.61076L-1.03711 8.23472H1.30395L-0.590012 9.61076L0.133414 7.38428Z" fill="white"/>
<path d="M0.133414 11.6919L0.85684 13.9184L-1.03711 12.5423H1.30395L-0.590012 13.9184L0.133414 11.6919Z" fill="white"/>
<path d="M0.133414 15.9995L0.85684 18.226L-1.03711 16.85H1.30395L-0.590012 18.226L0.133414 15.9995Z" fill="white"/>
<path d="M2.66759 0.922852L3.39102 3.14933L1.49707 1.77329H3.83813L1.94417 3.14933L2.66759 0.922852Z" fill="white"/>
<path d="M2.66759 5.23047L3.39102 7.45695L1.49707 6.08091H3.83813L1.94417 7.45695L2.66759 5.23047Z" fill="white"/>
<path d="M2.66759 9.53809L3.39102 11.7646L1.49707 10.3885H3.83813L1.94417 11.7646L2.66759 9.53809Z" fill="white"/>
<path d="M2.66759 13.8457L3.39102 16.0722L1.49707 14.6961H3.83813L1.94417 16.0722L2.66759 13.8457Z" fill="white"/>
<path d="M2.66759 18.1538L3.39102 20.3803L1.49707 19.0042H3.83813L1.94417 20.3803L2.66759 18.1538Z" fill="white"/>
<path d="M5.2008 3.07666L5.92422 5.30314L4.03027 3.9271H6.37133L4.47737 5.30314L5.2008 3.07666Z" fill="white"/>
<path d="M5.2008 7.38428L5.92422 9.61076L4.03027 8.23472H6.37133L4.47737 9.61076L5.2008 7.38428Z" fill="white"/>
<path d="M5.2008 11.6919L5.92422 13.9184L4.03027 12.5423H6.37133L4.47737 13.9184L5.2008 11.6919Z" fill="white"/>
<path d="M5.2008 15.9995L5.92422 18.226L4.03027 16.85H6.37133L4.47737 18.226L5.2008 15.9995Z" fill="white"/>
<path d="M7.734 0.922852L8.45743 3.14933L6.56348 1.77329H8.90453L7.01057 3.14933L7.734 0.922852Z" fill="white"/>
<path d="M7.734 5.23047L8.45743 7.45695L6.56348 6.08091H8.90453L7.01057 7.45695L7.734 5.23047Z" fill="white"/>
<path d="M7.734 9.53809L8.45743 11.7646L6.56348 10.3885H8.90453L7.01057 11.7646L7.734 9.53809Z" fill="white"/>
<path d="M7.734 13.8457L8.45743 16.0722L6.56348 14.6961H8.90453L7.01057 16.0722L7.734 13.8457Z" fill="white"/>
<path d="M7.734 18.1538L8.45743 20.3803L6.56348 19.0042H8.90453L7.01057 20.3803L7.734 18.1538Z" fill="white"/>
<path d="M10.2672 3.07666L10.9906 5.30314L9.09668 3.9271H11.4377L9.54378 5.30314L10.2672 3.07666Z" fill="white"/>
<path d="M10.2672 7.38428L10.9906 9.61076L9.09668 8.23472H11.4377L9.54378 9.61076L10.2672 7.38428Z" fill="white"/>
<path d="M10.2672 11.6919L10.9906 13.9184L9.09668 12.5423H11.4377L9.54378 13.9184L10.2672 11.6919Z" fill="white"/>
<path d="M10.2672 15.9995L10.9906 18.226L9.09668 16.85H11.4377L9.54378 18.226L10.2672 15.9995Z" fill="white"/>
<path d="M12.8004 0.922852L13.5238 3.14933L11.6299 1.77329H13.9709L12.077 3.14933L12.8004 0.922852Z" fill="white"/>
<path d="M12.8004 5.23047L13.5238 7.45695L11.6299 6.08091H13.9709L12.077 7.45695L12.8004 5.23047Z" fill="white"/>
<path d="M12.8004 9.53809L13.5238 11.7646L11.6299 10.3885H13.9709L12.077 11.7646L12.8004 9.53809Z" fill="white"/>
<path d="M12.8004 13.8457L13.5238 16.0722L11.6299 14.6961H13.9709L12.077 16.0722L12.8004 13.8457Z" fill="white"/>
<path d="M12.8004 18.1538L13.5238 20.3803L11.6299 19.0042H13.9709L12.077 20.3803L12.8004 18.1538Z" fill="white"/>
<path d="M15.3336 3.07666L16.057 5.30314L14.1631 3.9271H16.5041L14.6102 5.30314L15.3336 3.07666Z" fill="white"/>
<path d="M15.3336 7.38428L16.057 9.61076L14.1631 8.23472H16.5041L14.6102 9.61076L15.3336 7.38428Z" fill="white"/>
<path d="M15.3336 11.6919L16.057 13.9184L14.1631 12.5423H16.5041L14.6102 13.9184L15.3336 11.6919Z" fill="white"/>
<path d="M15.3336 15.9995L16.057 18.226L14.1631 16.85H16.5041L14.6102 18.226L15.3336 15.9995Z" fill="white"/>
<path d="M17.8668 0.922852L18.5902 3.14933L16.6963 1.77329H19.0373L17.1434 3.14933L17.8668 0.922852Z" fill="white"/>
<path d="M17.8668 5.23047L18.5902 7.45695L16.6963 6.08091H19.0373L17.1434 7.45695L17.8668 5.23047Z" fill="white"/>
<path d="M17.8668 9.53809L18.5902 11.7646L16.6963 10.3885H19.0373L17.1434 11.7646L17.8668 9.53809Z" fill="white"/>
<path d="M17.8668 13.8457L18.5902 16.0722L16.6963 14.6961H19.0373L17.1434 16.0722L17.8668 13.8457Z" fill="white"/>
<path d="M17.8668 18.1538L18.5902 20.3803L16.6963 19.0042H19.0373L17.1434 20.3803L17.8668 18.1538Z" fill="white"/>
</g>
<defs>
<clipPath id="clip0_4686_11564">
<rect width="40" height="40" rx="20" fill="white"/>
</clipPath>
</defs>
</svg>
