<svg width="20" height="20" viewBox="0 0 20 20" fill="none" xmlns="http://www.w3.org/2000/svg">
<path d="M9.99767 1.6665C5.39604 1.66837 1.66741 5.39964 1.66797 10.001C1.66853 14.6023 5.39864 18.3326 10.0001 18.3332C14.6015 18.3337 18.3324 14.6049 18.3346 10.0034C18.3351 8.90842 18.1198 7.8241 17.701 6.8124C17.2822 5.8007 16.6681 4.88146 15.8938 4.10721C15.1196 3.33297 14.2003 2.7189 13.1886 2.30011C12.1769 1.88132 11.0926 1.66602 9.99767 1.6665ZM14.7802 7.83984L9.38716 13.229C9.31682 13.3016 9.23262 13.3593 9.13955 13.3987C9.04649 13.4381 8.94646 13.4584 8.8454 13.4584C8.74434 13.4584 8.64431 13.4381 8.55124 13.3987C8.45818 13.3593 8.37397 13.3016 8.30363 13.229L5.20061 10.1263C5.0569 9.98263 4.97616 9.78771 4.97616 9.58448C4.97616 9.38124 5.0569 9.18632 5.20061 9.04261C5.34432 8.8989 5.53923 8.81817 5.74246 8.81817C5.9457 8.81817 6.14061 8.8989 6.28432 9.04261L8.8562 11.6145L13.711 6.77773C13.782 6.70571 13.8665 6.64845 13.9597 6.60925C14.0529 6.57005 14.1529 6.54967 14.254 6.54931C14.3551 6.54894 14.4553 6.56859 14.5488 6.60711C14.6423 6.64564 14.7272 6.70228 14.7987 6.77378C14.8702 6.84528 14.9268 6.93022 14.9653 7.02371C15.0038 7.11719 15.0234 7.21737 15.0231 7.31848C15.0227 7.41958 15.0023 7.51961 14.9631 7.6128C14.9238 7.70599 14.8666 7.7905 14.7945 7.86145L14.7802 7.83984Z" fill="#7A49E9"/>
</svg>
