<svg width="40" height="40" viewBox="0 0 40 40" fill="none" xmlns="http://www.w3.org/2000/svg">
<path d="M23.8926 33.5808C24.0394 34.0249 24.2397 34.4506 24.49 34.8482C24.8978 35.4963 25.43 36.0572 26.0558 36.4983C26.0942 36.5255 26.1329 36.5522 26.1719 36.5783H29.5539C30.4262 36.5775 31.2765 36.3997 32.0365 36.0686L29.547 33.5808H23.8926Z" fill="#7CD0E8"/>
<path d="M22.7495 36.5783C22.1095 35.6943 21.6402 34.6788 21.3902 33.5808H19.4092C20.0608 33.5808 20.6433 34.0158 20.825 34.6392C20.9692 35.125 20.8842 35.6067 20.5992 35.9875C20.4624 36.1718 20.2842 36.3214 20.0789 36.424C19.8782 36.5244 19.6572 36.5771 19.4329 36.5783H22.7495Z" fill="#7CD0E8"/>
<path d="M32.8058 27C32.3613 26.6836 31.8772 26.4329 31.3684 26.253L31.361 31.9813L33.8439 34.4646C34.1959 33.7718 34.3747 33.0514 34.3758 32.1833V28.6642C34.3735 28.6605 34.3712 28.6568 34.3689 28.653C33.9624 28.0037 33.4312 27.4416 32.8058 26.9992V27Z" fill="#7CD0E8"/>
<path d="M31.3717 23.7272C32.4758 23.994 33.494 24.4835 34.3758 25.1453V21.7825C34.3758 22.2575 34.1583 22.6908 33.7775 22.9717C33.5877 23.1118 33.3674 23.2051 33.1347 23.2439C32.902 23.2827 32.6634 23.266 32.4383 23.195C32.131 23.1054 31.861 22.9185 31.6691 22.6622C31.4773 22.4062 31.3738 22.0949 31.3742 21.775L31.3717 23.7272Z" fill="#7CD0E8"/>
<path d="M26.0558 36.4983C25.43 36.0572 24.8978 35.4963 24.49 34.8482C24.2397 34.4506 24.0394 34.0249 23.8926 33.5808H21.3902C21.6402 34.6788 22.1095 35.6943 22.7495 36.5783H26.1719C26.1329 36.5522 26.0942 36.5255 26.0558 36.4983Z" fill="#7CD0E8"/>
<path d="M31.3608 32.1833C31.2827 32.9644 30.4989 33.5808 29.547 33.5808L32.0365 36.0686C32.5224 35.857 32.9714 35.5827 33.3656 35.252C33.5501 34.9891 33.7096 34.7289 33.8439 34.4646L31.361 31.9813L31.3608 32.1833Z" fill="#7CD0E8"/>
<path d="M32.8058 26.9992C33.4312 27.4416 33.9624 28.0037 34.3689 28.653L34.3758 28.6642V25.1453C33.494 24.4835 32.4758 23.994 31.3717 23.7272L31.3684 26.253C31.8772 26.4329 32.3613 26.6836 32.8058 27V26.9992Z" fill="#7CD0E8"/>
<path fill-rule="evenodd" clip-rule="evenodd" d="M31.3742 21.7742V19.5683C31.3742 15.9967 29.95 12.6725 27.3658 10.2075C26.1018 8.99203 24.6017 8.04893 22.9584 7.43659C21.3152 6.82424 19.5637 6.55567 17.8125 6.6475C10.91 6.97167 5.5025 12.8108 5.5025 19.9392V32.055C5.5025 32.8958 6.1875 33.5808 7.02917 33.5808H19.4092H21.3902H23.8926H29.547C30.4989 33.5808 31.2827 32.9644 31.3608 32.1833L31.361 31.9813L31.3684 26.253L31.3717 23.7272L31.3742 21.775V21.7742ZM27.7025 17.225V16.7142L27.3558 17.0542C25.5315 18.8411 23.1589 19.9621 20.62 20.2367L20.3792 20.2642L20.4458 20.4958C20.4533 20.525 21.2967 23.39 23.815 23.39C24.2298 23.3861 24.6414 23.316 25.0342 23.1825C27.1625 21.9783 28.2325 19.5667 27.7025 17.225ZM9.50833 17.0317L9.16083 16.6858V17.1775C8.64 19.5225 9.735 21.98 11.8667 23.175C12.2492 23.2978 12.6482 23.3622 13.05 23.3658C15.5661 23.3658 16.4088 20.5004 16.4175 20.4708L16.485 20.2375L16.2417 20.2125C13.6993 19.9544 11.3224 18.8315 9.50833 17.0317Z" fill="#7CD0E8"/>
<path fill-rule="evenodd" clip-rule="evenodd" d="M8.82417 0L8.84167 0.635C8.8694 1.54436 9.08048 2.43875 9.46224 3.26456C9.84399 4.09037 10.3886 4.83059 11.0633 5.44083C13.3401 4.2533 15.8697 3.63241 18.4375 3.63083C21.0025 3.63083 23.5508 4.25667 25.8183 5.4425C26.4877 4.83261 27.0277 4.09436 27.406 3.27163C27.7844 2.44889 27.9935 1.55849 28.0208 0.653333L28.0383 0.02L28.3942 0.545C31.345 4.90917 31.1008 7.89417 30.6525 9.3425C33.0547 12.2088 34.3727 15.8285 34.3758 19.5683V21.7825C34.3758 22.2575 34.1583 22.6908 33.7775 22.9717C33.5877 23.1118 33.3674 23.2051 33.1347 23.2439C32.902 23.2827 32.6634 23.266 32.4383 23.195C32.131 23.1054 31.861 22.9185 31.6691 22.6622C31.4773 22.4062 31.3738 22.0949 31.3742 21.775V21.7742V19.5683C31.3742 15.9967 29.95 12.6725 27.3658 10.2075C26.1018 8.99203 24.6017 8.04893 22.9584 7.43659C21.3152 6.82424 19.5637 6.55567 17.8125 6.6475C10.91 6.97167 5.5025 12.8108 5.5025 19.9392V32.055C5.5025 32.8958 6.1875 33.5808 7.02917 33.5808H19.4092C20.0608 33.5808 20.6433 34.0158 20.825 34.6392C20.9692 35.125 20.8842 35.6067 20.5992 35.9875C20.4624 36.1718 20.2842 36.3214 20.0789 36.424C19.8782 36.5244 19.6572 36.5771 19.4329 36.5783C19.4278 36.5784 19.4226 36.5784 19.4175 36.5783H7.02333C5.82408 36.577 4.67432 36.1 3.82632 35.252C2.97831 34.404 2.50132 33.2543 2.5 32.055V19.5683C2.5 15.8417 3.81833 12.2183 6.21417 9.355C5.76167 7.90167 5.5125 4.90667 8.46917 0.526667L8.82417 0Z" fill="#7CD0E8"/>
<path d="M29.6568 20C31.0392 20 32.3398 20.2638 33.5587 20.7915C34.7776 21.3192 35.8367 22.0327 36.736 22.932C37.6353 23.8313 38.3488 24.8867 38.8764 26.0981C39.4041 27.3095 39.668 28.6065 39.668 29.9889C39.668 31.3712 39.4041 32.6719 38.8764 33.8907C38.3488 35.1096 37.6353 36.1687 36.736 37.068C35.8367 37.9673 34.7776 38.6808 33.5587 39.2085C32.3398 39.7362 31.0392 40 29.6568 40C28.2744 40 26.9775 39.7362 25.7661 39.2085C24.5546 38.6808 23.4993 37.9673 22.6 37.068C21.7007 36.1687 20.9872 35.1096 20.4595 33.8907C19.9318 32.6719 19.668 31.3712 19.668 29.9889C19.668 28.6065 19.9318 27.3095 20.4595 26.0981C20.9872 24.8867 21.7007 23.8313 22.6 22.932C23.4993 22.0327 24.5546 21.3192 25.7661 20.7915C26.9775 20.2638 28.2744 20 29.6568 20ZM34.6289 31.3489C35.0749 31.3489 35.4762 31.2337 35.833 31.0033C36.1897 30.7729 36.3681 30.4274 36.3681 29.9666C36.3681 29.5206 36.1897 29.1899 35.833 28.9744C35.4762 28.7588 35.0749 28.6511 34.6289 28.6511H24.7739C24.3279 28.6511 23.9192 28.7588 23.5476 28.9744C23.176 29.1899 22.9902 29.5206 22.9902 29.9666C22.9902 30.4274 23.176 30.7729 23.5476 31.0033C23.9192 31.2337 24.3279 31.3489 24.7739 31.3489H34.6289Z" fill="#7A49E9"/>
</svg>
