<svg width="40" height="40" viewBox="0 0 40 40" fill="none" xmlns="http://www.w3.org/2000/svg">
<path d="M31.9164 7.80005H11.338C9.73435 7.80005 8.42448 9.09158 8.42448 10.6999V20.8981C8.42448 21.6657 8.73052 22.3968 9.2814 22.9451C9.83228 23.4934 10.5668 23.798 11.338 23.798H31.9164C32.6877 23.798 33.4222 23.4934 33.9731 22.9451C34.5239 22.3968 34.83 21.6657 34.83 20.8981V10.6999C34.83 9.93229 34.5239 9.20124 33.9731 8.65295C33.4344 8.10465 32.6877 7.80005 31.9164 7.80005ZM33.1529 20.825C33.1529 21.2027 32.9937 21.5804 32.7244 21.8485C32.4551 22.1165 32.0878 22.2749 31.6961 22.2749H11.338C10.9585 22.2749 10.579 22.1165 10.3097 21.8485C10.0404 21.5804 9.88125 21.2149 9.88125 20.825V10.6999C9.88125 10.3222 10.0404 9.94448 10.3097 9.67642C10.579 9.40837 10.9463 9.24998 11.338 9.24998H31.6961C32.0756 9.24998 32.4551 9.40837 32.7244 9.67642C32.9937 9.94448 33.1529 10.31 33.1529 10.6999V20.825ZM5.52317 26.247H34.6096C34.9891 26.247 35.3686 26.4054 35.6379 26.6735C35.9073 26.9415 36.0664 27.307 36.0664 27.6969V30.9501C36.0664 31.3278 35.9073 31.7055 35.6379 31.9736C35.3686 32.2417 35.0014 32.4 34.6096 32.4H5.52317C5.13144 32.4 4.76419 32.2417 4.49487 31.9736C4.22555 31.7055 4.06641 31.34 4.06641 30.9501V27.6969C4.06641 27.3192 4.22555 26.9415 4.49487 26.6735C4.76419 26.4054 5.13144 26.247 5.52317 26.247Z" fill="#7CD0E8"/>
<path d="M30.2393 12.1376H12.7948C12.4153 12.1376 12.0358 12.296 11.7665 12.5641C11.4972 12.8321 11.338 13.1977 11.338 13.5876V19.3751C11.338 19.7528 11.4972 20.1305 11.7665 20.3986C12.0358 20.6666 12.4031 20.825 12.7948 20.825H30.2393C30.6188 20.825 30.9983 20.6666 31.2676 20.3986C31.5369 20.1305 31.6961 19.765 31.6961 19.3751V13.5876C31.6961 13.2099 31.5369 12.8321 31.2676 12.5641C30.9983 12.2839 30.6311 12.1376 30.2393 12.1376ZM22.527 23.7858H27.4482V26.247H22.527V23.7858ZM28.0603 10.2613H31.0718C31.2921 10.2613 31.5002 10.3831 31.6104 10.5659C31.7206 10.7608 31.7206 10.9923 31.6104 11.1751C31.5002 11.37 31.2921 11.4797 31.0718 11.4797H28.0603C27.8399 11.4797 27.6318 11.3578 27.5216 11.1751C27.4115 10.9801 27.4115 10.7486 27.5216 10.5659C27.6318 10.3709 27.8399 10.2613 28.0603 10.2613ZM25.0366 10.2613H25.2692C25.4895 10.2613 25.6976 10.3831 25.8078 10.5659C25.918 10.7608 25.918 10.9923 25.8078 11.1751C25.6976 11.37 25.4895 11.4797 25.2692 11.4797H25.0366C24.8162 11.4797 24.6081 11.3578 24.4979 11.1751C24.3878 10.9801 24.3878 10.7486 24.4979 10.5659C24.6203 10.3709 24.8162 10.2613 25.0366 10.2613Z" fill="#7CD0E8"/>
<path d="M32.4456 28.7515C32.178 29.0138 32.0309 29.3589 32.0309 29.7255V30.2745C32.0309 30.6411 32.178 30.9862 32.4456 31.2485C32.7132 31.5107 33.0654 31.6549 33.4395 31.6549H38.332V28.3451H33.4395C33.0654 28.3451 32.7117 28.4893 32.4456 28.7515ZM34.0154 29.3865C34.3613 29.3865 34.6415 29.661 34.6415 30C34.6415 30.339 34.3613 30.6135 34.0154 30.6135C33.6695 30.6135 33.3894 30.339 33.3894 30C33.3894 29.661 33.6695 29.3865 34.0154 29.3865Z" fill="#7A49E9"/>
<path d="M36.4257 24H26.2399C25.1882 24 24.332 24.8374 24.332 25.8696V34.1304C24.332 35.161 25.1866 36 26.2399 36H36.4241C37.4759 36 38.332 35.1626 38.332 34.1304V32.4218H33.4395C32.2343 32.4218 31.2483 31.4555 31.2483 30.2745V29.7255C31.2483 28.5445 32.2343 27.5782 33.4395 27.5782H38.332V25.8696C38.332 24.839 37.4759 24 36.4257 24Z" fill="#7A49E9"/>
</svg>
