<svg width="40" height="40" viewBox="0 0 40 40" fill="none" xmlns="http://www.w3.org/2000/svg">
<path d="M20.574 27.7276H36.7326C37.1202 27.7276 37.4345 27.4134 37.4345 27.0257V4.54389C37.4345 4.16174 37.1202 3.84204 36.7326 3.84204H3.01044C2.62282 3.84204 2.30859 4.15627 2.30859 4.54389V27.0257C2.30859 27.4079 2.62278 27.7276 3.01044 27.7276H19.169C19.169 27.7283 19.169 27.7289 19.169 27.7296V34.0503H11.0942C10.5028 34.0503 10.0363 34.5222 10.0363 35.104C10.0363 35.6898 10.5097 36.1577 11.0942 36.1577H28.6489C29.2403 36.1577 29.7068 35.6858 29.7068 35.104C29.7068 34.5182 29.2334 34.0503 28.6489 34.0503H20.574V27.7296C20.574 27.729 20.574 27.7283 20.574 27.7276ZM4.41616 23.1613C4.41616 22.5795 4.88956 22.1075 5.47129 22.1075H34.2718C34.8542 22.1075 35.3269 22.5753 35.3269 23.1613C35.3269 23.7431 34.8534 24.215 34.2718 24.215H5.47129C4.88884 24.215 4.41616 23.7471 4.41616 23.1613Z" fill="#7CD0E8"/>
<path d="M33.4755 18.0126C33.5539 18.0126 33.612 18.0809 33.6003 18.1549C33.5045 18.7074 33.4407 19.0618 33.3623 19.3199C33.2897 19.5627 33.223 19.6409 33.1707 19.6855C33.1141 19.7329 33.0255 19.786 32.7715 19.8195C32.4914 19.8571 32.1082 19.8613 31.5 19.8613C30.8904 19.8613 30.5086 19.8571 30.2285 19.8195C29.973 19.786 29.8859 19.7329 29.8293 19.6855C29.777 19.6409 29.7117 19.5627 29.6377 19.3199C29.5579 19.0604 29.4955 18.7088 29.3997 18.1577C29.3967 18.1398 29.3978 18.1216 29.4029 18.1043C29.408 18.0869 29.4169 18.0708 29.429 18.057C29.4411 18.0432 29.4562 18.0321 29.4731 18.0245C29.4901 18.0168 29.5086 18.0127 29.5274 18.0126C30.1065 18 30.7452 18 31.4463 18H31.5537C32.2577 18 32.8964 18 33.4755 18.0126ZM27.6869 18.1256C27.7505 18.118 27.8147 18.1349 27.8655 18.1725C27.9163 18.2101 27.9496 18.2654 27.9583 18.3265L27.9641 18.3656L27.967 18.3795L27.9743 18.4186C28.0614 18.9237 28.1368 19.3618 28.2442 19.7134C28.3604 20.0901 28.5331 20.4459 28.8655 20.7292C29.2095 21.0222 29.6058 21.1464 30.0296 21.2022C30.4302 21.2552 30.9237 21.2566 31.5 21.2566C32.0748 21.2566 32.5698 21.2552 32.9689 21.2008C33.3942 21.145 33.7905 21.0222 34.1345 20.7292C34.4684 20.4459 34.6396 20.0901 34.7558 19.7134C34.8617 19.3618 34.9386 18.9237 35.0257 18.4186L35.033 18.3795L35.0417 18.3237C35.0507 18.263 35.0843 18.2081 35.1351 18.171C35.1859 18.134 35.2499 18.1176 35.3131 18.1256C36.3147 18.2553 37.1421 18.5302 37.7952 19.1581C38.4484 19.786 38.7344 20.5813 38.8694 21.544C39 22.4775 39 23.6676 39 25.1578V30.8422C39 32.3338 39 33.5225 38.8694 34.456C38.7344 35.4201 38.4484 36.214 37.7952 36.8419C37.1421 37.4698 36.3147 37.7447 35.3131 37.8744C34.3421 38 33.1054 38 31.5537 38H31.4463C29.8946 38 28.6579 38 27.6869 37.8744C26.6853 37.7447 25.8579 37.4698 25.2048 36.8419C24.5516 36.214 24.2656 35.4201 24.1306 34.456C24 33.5225 24 32.3338 24 30.8422V25.1578C24 23.6676 24 22.4775 24.1306 21.544C24.2656 20.5813 24.5516 19.786 25.2048 19.1581C25.8579 18.5302 26.6853 18.2553 27.6869 18.1256ZM29.8061 35.441C29.8061 35.6261 29.8825 35.8035 30.0186 35.9344C30.1548 36.0652 30.3394 36.1387 30.5318 36.1387H32.4682C32.6606 36.1387 32.8452 36.0652 32.9814 35.9344C33.1175 35.8035 33.1939 35.6261 33.1939 35.441C33.1939 35.256 33.1175 35.0786 32.9814 34.9477C32.8452 34.8169 32.6606 34.7434 32.4682 34.7434H30.5318C30.3394 34.7434 30.1548 34.8169 30.0186 34.9477C29.8825 35.0786 29.8061 35.256 29.8061 35.441Z" fill="#7A49E9"/>
</svg>
