<svg xmlns="http://www.w3.org/2000/svg" width="80" height="80" fill="none" viewBox="0 0 80 80"><rect width="80" height="80" fill="#0038a8" rx="8"/><path fill="#fff" d="M67.857 43.15a4.84 4.84 0 0 0-2.562-3.411c-.4-.217-.854-.38-1.174-.542.507-.406 1.148-.758 1.575-1.272 1.067-1.246 1.414-2.68 1.094-4.305a4.68 4.68 0 0 0-2.429-3.385c-1.334-.758-2.802-1.002-4.297-1.029-2.455-.027-4.937 0-7.392 0-.614 0-.747.136-.747.759v19.71c0 .569.16.758.72.758 1.068 0 2.135.027 3.203 0 2.135-.054 4.243-.08 6.378-.19a6.83 6.83 0 0 0 3.31-1.055 4.7 4.7 0 0 0 2-2.383 6.1 6.1 0 0 0 .321-3.655M56.568 33.051c1.388.135 2.749-.217 4.083.217 1.015.325 1.548 1.11 1.468 2.247-.08.893-.48 1.787-1.654 1.95-1.254.189-2.562.189-3.897.297zm6.485 11.345c-.106 1.083-.934 1.949-2.001 2.057-1.468.19-2.963.19-4.484.298v-5.523c1.602.108 3.176-.217 4.724.298 1.121.379 1.895 1.137 1.761 2.87M42.584 28.8c2.535.081 4.857.84 6.805 2.545.16.135.294.244.454.379.427.352.48.677.053 1.137a29 29 0 0 1-2.001 2.058.66.66 0 0 1-.48.216.62.62 0 0 1-.481-.216 6.4 6.4 0 0 0-3.096-1.516 5.82 5.82 0 0 0-4.35 1.056c-1.788 1.3-2.749 3.194-2.802 5.55.027 3.005 1.735 5.496 4.377 6.39 2.241.758 4.216.19 5.978-1.381.373-.325.614-.352.934 0 .694.704 1.36 1.408 2.055 2.112.347.379.347.73-.027 1.083-2.829 2.761-6.859 3.736-10.568 2.599a10.5 10.5 0 0 1-3.977-2.301 10.8 10.8 0 0 1-3.522-6.498c-.507-3.33.16-6.417 2.268-9.044 1.602-2.03 3.683-3.411 6.245-3.871a7.8 7.8 0 0 1 2.135-.298"/><path fill="#00afff" fill-rule="evenodd" d="M47.04 40.09a3.91 3.91 0 0 1-1.975 3.33c-1.2.677-2.642.65-3.816-.053s-1.868-2.004-1.868-3.385c0-1.029.4-2.004 1.12-2.734a3.6 3.6 0 0 1 2.696-1.084c2.108 0 3.87 1.57 3.843 3.926" clip-rule="evenodd"/><path fill="#fff" d="M22.194 34.46c-.854 2.626-1.681 5.17-2.535 7.743h4.99zm3.07-4.198c1.254 3.52 2.535 7.04 3.816 10.56 1.12 3.086 2.241 6.146 3.362 9.205.24.677.133.813-.587.813h-3.71a.93.93 0 0 1-.96-.704c-.427-1.3-.88-2.572-1.281-3.872a.28.28 0 0 0-.134-.244.5.5 0 0 0-.267-.08h-6.671c-.267 0-.347.107-.427.324-.427 1.3-.881 2.6-1.281 3.926-.107.406-.48.677-.881.623H12.56c-.534 0-.667-.19-.48-.704.934-2.464 1.841-4.9 2.749-7.365.747-1.976 1.467-3.953 2.188-5.93.8-2.138 1.575-4.304 2.375-6.443.24-.596.507-.758 1.148-.758h3.763a.934.934 0 0 1 .96.65"/></svg>