<svg xmlns="http://www.w3.org/2000/svg" width="80" height="80" fill="none" viewBox="0 0 80 80"><rect width="80" height="80" fill="#ef1c26" rx="8"/><path fill="#fef100" d="M34.261 43.611a5.52 5.52 0 0 1-4.177 1.93 5.51 5.51 0 0 1-5.516-5.52 5.52 5.52 0 0 1 5.516-5.52 5.51 5.51 0 0 1 5.516 5.52v14.075h8.55l-.018-14.003c0-7.77-6.283-14.075-14.066-14.075C22.301 26.018 16 32.305 16 40.093c0 7.77 6.301 14.075 14.066 14.075a14 14 0 0 0 4.177-.626z"/><path fill="#fef100" d="M48.077 54.025c.607.09 1.232.125 1.857.125C57.699 54.15 64 47.863 64 40.075 64 32.305 57.717 26 49.934 26a14.13 14.13 0 0 0-8.961 3.215l.018.036a15.27 15.27 0 0 1 4.159 8.02h.018a5.53 5.53 0 0 1 4.766-2.715 5.52 5.52 0 0 1 5.516 5.519c0 3.054-2.482 5.537-5.516 5.537a5.9 5.9 0 0 1-1.874-.321z"/></svg>