<svg xmlns="http://www.w3.org/2000/svg" width="80" height="80" fill="none" viewBox="0 0 80 80"><rect width="80" height="80" fill="url(#a)" rx="8"/><path fill="#fff" d="M62.456 40.845c.385.884.767 1.769 1.157 2.65.05.112.04.187-.029.286a1043 1043 0 0 0-3.096 4.435c-.077.11-.154.148-.286.147-.928-.006-1.855-.003-2.79-.003-.005-.08.053-.12.087-.169 1.017-1.46 2.034-2.92 3.059-4.375.09-.127.099-.22.036-.363-1.174-2.663-2.341-5.328-3.51-7.992l-.047-.111c.047-.038.095-.022.139-.022.898 0 1.796.002 2.694-.003.117 0 .171.03.22.142.536 1.235 1.08 2.466 1.621 3.7l.075.159c.046.02.073.058.091.102.183.436.384.864.567 1.3.015.038.032.077.013.118M25.104 39.75c0 1.415-.003 2.83.003 4.246 0 .145-.033.186-.182.184-.715-.008-1.43-.005-2.145-.001-.11 0-.15-.022-.15-.143q.005-4.282 0-8.564c0-.113.027-.15.146-.148q1.09.008 2.18 0c.132-.002.15.045.15.161q-.003 2.133-.002 4.264"/><path stroke="#fff" d="m62.456 40.845-.67-1.52c.283-.397.57-.793.851-1.192q.944-1.346 1.885-2.694c.045-.065.085-.115.18-.114q1.604.003 3.207.002c.021 0 .042.005.09.011-.206.298-.398.577-.593.855-1.051 1.501-2.105 3.001-3.153 4.504-.078.111-.16.147-.291.146-.502-.006-1.004 0-1.506.002Z"/><path fill="#fff" d="M35.997 40.098c0-.33.008-.659-.031-.989-.154-1.3-.742-2.345-1.821-3.098-.805-.562-1.715-.826-2.687-.879-1.676-.09-3.1.463-4.218 1.72-.94 1.058-1.258 2.31-1.022 3.697.22 1.294.864 2.319 2.003 3.001.999.6 2.095.768 3.238.644.769-.083 1.486-.319 2.108-.895V44c0 1.336-.802 2.304-2.125 2.489-1.497.209-2.767-.69-2.857-2.198-.005-.094-.038-.116-.126-.116q-1.046.005-2.092 0c-.096 0-.13.018-.127.125.009.248.032.494.077.737.224 1.216.824 2.196 1.908 2.818 1.44.827 2.983.939 4.548.448 1.952-.612 3.256-2.274 3.228-4.382-.017-1.274-.002-2.548-.004-3.822m-4.849 1.955c-1.364.032-2.49-.966-2.528-2.24-.042-1.418.95-2.477 2.351-2.51 1.492-.034 2.516.908 2.555 2.35.036 1.318-1.004 2.368-2.378 2.4m14.249-5.764c-1.825-1.56-4.803-1.565-6.66-.026-1.043.864-1.677 1.955-1.688 3.325-.023 2.872-.006 5.745-.01 8.618 0 .125.036.157.159.156q1.054-.01 2.11.001c.153.002.205-.027.205-.196-.008-1.487-.005-2.973-.005-4.46v-.215c1.166.741 2.404.9 3.699.61 2.08-.468 3.652-2.258 3.682-4.344.019-1.375-.431-2.563-1.491-3.469m-3.439 5.763c-1.387-.005-2.458-1.053-2.45-2.395.01-1.367 1.06-2.359 2.494-2.354 1.41.005 2.42 1 2.418 2.38-.003 1.362-1.054 2.374-2.462 2.369M21.81 38.994c-.165-1.216-.692-2.227-1.69-2.968-.762-.565-1.631-.837-2.569-.891-1.126-.066-2.187.11-3.082.92v-.22c0-1.357-.002-2.713.003-4.07 0-.13-.029-.166-.163-.164q-1.063.011-2.127 0c-.152-.003-.182.043-.182.187.005 2.535.003 5.072.004 7.608 0 .218-.001.436.015.653.102 1.343.66 2.45 1.767 3.238 1.222.87 2.6 1.099 4.06.856 2.2-.365 4.345-2.372 3.965-5.149m-5.177 3.036c-1.011-.116-1.732-.652-2.044-1.631-.486-1.524.557-3.103 2.344-3.096 1.191 0 2.112.666 2.372 1.757.416 1.75-.92 3.172-2.673 2.97m40.71-2.413c-.024-1.624-.699-2.909-2.106-3.77-.74-.453-1.557-.667-2.418-.714-1.668-.093-3.091.45-4.21 1.697-.956 1.063-1.28 2.325-1.041 3.727.185 1.093.687 2.011 1.57 2.7.69.54 1.485.835 2.354.93 1.236.135 2.4-.028 3.426-.88 0 .245.006.463-.003.68-.005.12.027.159.154.158q1.065-.01 2.128 0c.127.001.154-.034.154-.156-.005-1.458.014-2.915-.008-4.372m-4.92 2.436c-1.39-.001-2.462-1.042-2.457-2.384.005-1.365 1.047-2.367 2.463-2.366 1.423.001 2.442.982 2.443 2.353 0 1.385-1.034 2.398-2.448 2.397"/><defs><linearGradient id="a" x1="0" x2="80" y1="0" y2="80" gradientUnits="userSpaceOnUse"><stop stop-color="#5a7fe8"/><stop offset="1" stop-color="#19f2e0"/></linearGradient></defs></svg>