<svg xmlns="http://www.w3.org/2000/svg" width="80" height="80" fill="none" viewBox="0 0 80 80"><rect width="80" height="80" fill="#05565a" rx="8"/><path fill="#ec6722" fill-rule="evenodd" d="M20 19.99h12.42c-.65 1.114-1.14 3.618.115 9.241 1.117 4.999 4.345 10.213 7.712 14.335l-4.231 3.476L20 26.91zm18.136 0H60v5.301c-1.69-.989-4.775-1.944-9.303-.132-7.307 2.924-7.933 11.486-7.933 11.486-4.042-4.884-6.7-12.892-4.628-16.654M60 32.323v15.775c-4.968 1.886-11.936-3.018-13.687-8.841-2.538-8.44 3.444-11.487 7.723-10.651 3.199.624 5.056 2.531 5.964 3.717m0 18.365v9.322H46.6l2.686-2.206c-1.752.213-5.196-.611-6.873-2.72l-4.716-5.928 4.312-3.542c2.65 2.922 5.173 5.021 6.6 5.651 3.055 1.349 6.497 2 11.391-.577M39.117 60.01H24.48l9.12-7.49 2.153 2.705a52 52 0 0 1 3.365 4.785m-18.892 0H20V35.423l11.92 14.983z" clip-rule="evenodd"/></svg>