<svg xmlns="http://www.w3.org/2000/svg" width="80" height="80" fill="none" viewBox="0 0 80 80"><rect width="80" height="80" fill="#ed3024" rx="8"/><path fill="#fff" d="M51.042 42.336c-.85-1.686-2.341-2.762-4.433-3.2a6 6 0 0 0-.508-.074l-.23-.028a5 5 0 0 0-.661-.04l-.18-.002-3.392-.03.032-3.373a5.5 5.5 0 0 0-.028-.846l-.024-.233a5 5 0 0 0-.066-.51c-.404-2.098-1.456-3.605-3.127-4.481-1.285-.672-2.465-.705-2.477-.705l-.187-.004a6 6 0 0 0-.869.049c-5.523.7-5.505 5.997-5.5 6.224l-.08 9.83c-.017 1.972.51 3.54 1.564 4.658 1.086 1.054 2.643 1.603 4.615 1.619l9.884.08c.56.005 5.51-.108 6.268-5.394.048-.335.066-.62.064-1.05-.001-.014-.013-1.195-.665-2.49"/><path fill="#fff" d="M54.075 20.227 26.248 20a5.97 5.97 0 0 0-6.021 5.92L20 53.73a5.97 5.97 0 0 0 5.924 6.016l27.827.227a5.97 5.97 0 0 0 6.022-5.92L60 26.244a5.97 5.97 0 0 0-5.925-6.017m.308 30.355c-1.745 3.22-5.282 4.336-6.323 4.6-.61.155-1.147.226-2.132.277h-.011l-11.846-.096c-.007 0-.808-.011-1.615-.22a11.4 11.4 0 0 1-1.87-.652c-.697-.324-1.492-.775-2.585-1.867l-.175-.178c-.862-.886-1.685-2.14-2.093-3.192-.235-.601-.302-.894-.44-1.458a7.3 7.3 0 0 1-.18-1.68l.095-11.672c.069-1.012.149-1.55.313-2.156.281-1.036 1.456-4.55 4.72-6.25 1.837-1.016 3.723-1.526 5.6-1.51 2.9.023 4.769 1.303 4.848 1.358 5.08 3.108 5.189 8.206 5.178 8.925.747-.012 5.806.17 8.868 5.354.017.023 3.037 4.528-.352 10.417"/></svg>