<svg xmlns="http://www.w3.org/2000/svg" width="80" height="80" fill="none" viewBox="0 0 80 80"><rect width="80" height="80" fill="#1f4396" rx="8"/><path fill="#fff" fill-rule="evenodd" d="M20 25.736A5.736 5.736 0 0 1 25.735 20h28.53A5.735 5.735 0 0 1 60 25.736v28.529A5.735 5.735 0 0 1 54.265 60h-28.53A5.735 5.735 0 0 1 20 54.265zm23.376 14.34 12.701 12.946-.006-26.034c0-1.69-1.37-3.059-3.059-3.059h-4.43c2.559.584 5.204 5.416 1.56 9.172zM38.05 23.928h2.949c4.597 0 8.002 4.659 5.061 7.604l-8.531 8.542 15.683 16-16.55-.004c3.556 0 5.8-5.982 1.995-9.945l-5.812-6.05L39.61 33.1c3.643-3.756.999-8.588-1.561-9.172M23.92 53.022a3.06 3.06 0 0 0 3.058 3.059h2.795c3.94 0 8.097-4.617 4.546-8.336l-7.321-7.67 8.531-8.543c2.94-2.945-.464-7.603-5.062-7.603h-3.49a3.06 3.06 0 0 0-3.058 3.059z" clip-rule="evenodd"/></svg>