<svg xmlns="http://www.w3.org/2000/svg" width="80" height="80" fill="none" viewBox="0 0 80 80"><rect width="80" height="80" fill="#108de8" rx="8"/><path fill="#fff" fill-rule="evenodd" d="M38.485 20.073c-6.62.63-11.978 4.13-15.23 9.538-2.106 3.517-3.102 7.664-2.803 11.944.763 10.45 9.738 19.292 21.219 18.38 10.319-.83 18.813-10.102 17.95-21.499-.315-4.18-1.775-7.614-4.098-10.733-1.061-1.41-1.26-1.426-2.355-2.57-1.377-1.427-4.264-3.07-6.106-3.8-2.455-.978-5.607-1.542-8.577-1.26" clip-rule="evenodd"/><path fill="#108de8" fill-rule="evenodd" d="M28.664 34.173c-.249.73-.1 8.775-.1 10.268 0 1.61-.315 2.124 2.207 2.986 6.702 2.29 13.322-5.474 19.974-1.642.3.182.68.547.764-.033l.016-10.368c0-1.112.1-1.46-.647-1.974-5.956-4.147-12.393 2.952-18.431 2.156-2.24-.298-3.17-1.443-3.783-1.393" clip-rule="evenodd"/></svg>