<svg xmlns="http://www.w3.org/2000/svg" width="80" height="80" fill="none" viewBox="0 0 80 80"><rect width="79" height="79" x=".5" y=".5" fill="#fff" rx="7.5"/><rect width="79" height="79" x=".5" y=".5" stroke="#eee" rx="7.5"/><path fill="#fff" d="M26.989 53.337h26.415V26.663H26.99z"/><path fill="#f33" d="m52.543 52.476-9.593-8.13s-1.311-1.274-2.772-1.274c-1.462 0-2.773 1.274-2.773 1.274l-9.592 8.13-.037-.038 8.055-9.666s1.274-1.31 1.274-2.81c0-1.46-1.274-2.772-1.274-2.772l-8.056-9.703.038-.037 9.592 8.13s1.311 1.273 2.773 1.273c1.461 0 2.772-1.274 2.772-1.274l9.592-8.13.038.038-8.056 9.703s-1.274 1.311-1.274 2.773c0 1.498 1.274 2.81 1.274 2.81l8.056 9.665zM57.039 40c0-2.623.112-4.983 2.023-9.104.562-1.199 1.799-2.96-.037-4.982-1.462-1.499-3.148-1.237-4.272-.6.637-1.124.9-2.847-.6-4.346-2.023-1.835-3.746-.6-4.945-.037-4.084 1.948-6.407 2.06-9.03 2.06s-4.946-.112-9.03-2.06c-1.2-.562-2.923-1.798-4.946.037-1.462 1.499-1.237 3.185-.562 4.346-1.124-.674-2.81-.899-4.272.6-1.798 2.06-.562 3.783-.037 4.982 1.948 4.121 2.06 6.481 2.06 9.104s-.112 4.983-2.06 9.141c-.562 1.2-1.799 2.96.037 4.983 1.462 1.499 3.148 1.236 4.272.6-.637 1.16-.9 2.847.562 4.308 2.023 1.835 3.747.6 4.946.037 4.084-1.948 6.407-2.06 9.03-2.06s4.908.112 9.03 2.06c1.199.562 2.922 1.798 4.946-.037 1.46-1.461 1.236-3.185.562-4.309 1.124.637 2.81.9 4.271-.6 1.799-2.06.6-3.82.038-4.982-1.874-4.158-1.986-6.518-1.986-9.141"/></svg>