<svg xmlns="http://www.w3.org/2000/svg" width="80" height="80" fill="none" viewBox="0 0 80 80"><rect width="80" height="80" fill="#df2b76" rx="8"/><path fill="#fff" d="M23.605 33.348c1.163.205 2.299.349 3.4.608 1.1.26 1.042.299.856 1.31h-3.702c-.546 0-.709.19-.775.745-.387 4.467-.798 8.917-1.798 13.318a9 9 0 0 1-2.69 4.753c-1.438 1.322-3.167 1.508-4.973 1.24a2.8 2.8 0 0 1-1.364-.775c-.837-.775-.736-1.264.318-1.86.166.236.33.48.504.717.748 1.004 1.589 1.039 2.232 0a8.2 8.2 0 0 0 1.093-2.56c.675-3.4 1.256-6.819 1.83-10.239.224-1.318.34-2.655.527-4.14l-3.16 1.244-.612-1.233c1.186-.647 2.36-1.271 3.512-1.938.257-.149.445-.392.523-.678.186-1.253.202-2.536.465-3.77a13 13 0 0 1 1.117-3.357c1.46-2.783 5.383-2.795 7.27-1.5q.41.282.733.66c.926 1.096.775 2.178-.469 2.93a.88.88 0 0 1-.62.066c-.337-.097-.643-.29-.977-.41-.84-.3-1.267-.823-1.124-1.769.035-.233-.182-.725-.26-.721a1.66 1.66 0 0 0-1 .318 1.73 1.73 0 0 0-.418 1.027c-.174 2.02-.298 4.052-.438 6.014m12.658 2.632c.117-.977.73-.942 1.35-.794 1.053.244 2.092.535 3.154.814-.946 3.993-1.907 7.859-1.767 12.096l2.097-.953.585 1.194c-1.353 1.244-2.822 2.248-4.651 2.512-1.415.202-2.163-.306-2.771-1.818l-.64.488c-.977.752-2.004 1.407-3.302 1.361a3.84 3.84 0 0 1-3.643-3.218 13.75 13.75 0 0 1 1.019-9.111c.83-1.687 2.035-3.04 3.996-3.458a6.1 6.1 0 0 1 3.632.473c.282.112.554.244.941.414m-.624 1.513c-1.682-.8-2.6-.559-3.228 1.228a25.3 25.3 0 0 0-1.163 4.998 12.2 12.2 0 0 0 .217 3.307 1.005 1.005 0 0 0 1.287.869c.977-.163 1.438-.566 1.488-1.272.058-.775.097-1.55.225-2.326.372-2.26.775-4.498 1.174-6.804M60.05 45.05c.093.495.143.922.263 1.329.446 1.55 1.632 2.245 3.163 1.74q1.475-.59 2.86-1.368l.713.977c-1.616 1.62-3.403 2.85-5.705 3.078-3.527.353-5.597-1.407-5.988-4.954a11.85 11.85 0 0 1 .488-5.16c1.163-3.49 4.539-5.843 8.047-5.68 3.034.139 4.65 2.225 3.945 5.125a4.9 4.9 0 0 1-2.546 3.152 12.8 12.8 0 0 1-4.702 1.624 4 4 0 0 0-.538.136m-.055-1.858c2.66-.05 4.771-3.664 3.512-5.882a.98.98 0 0 0-1.11-.513 1 1 0 0 0-.39.196 3.1 3.1 0 0 0-.946 1.143 13.6 13.6 0 0 0-1.066 5.056M42.919 46.87c.143-2.453.263-4.908.438-7.366a4.52 4.52 0 0 0-.935-3.12c-.337-.45-.294-.776.256-.885a18 18 0 0 1 3.21-.473c1.623-.023 2.5.814 2.464 2.435a46 46 0 0 1-.503 4.82c-.171 1.306-.465 2.597-.593 3.904-.047.504.217 1.039.337 1.55.515-.163 1.124-.197 1.523-.508a8.7 8.7 0 0 0 2.822-3.877 1.13 1.13 0 0 0-.248-1.314 23 23 0 0 1-1.481-1.733 1.26 1.26 0 0 1-.299-.799 6.78 6.78 0 0 1 1.815-4.152 1.26 1.26 0 0 1 .922-.31 2.45 2.45 0 0 1 2.279 2.582 15.83 15.83 0 0 1-5.651 11.914 5.3 5.3 0 0 1-2.938 1.307c-1.984.229-3.283-.83-3.43-2.834-.012-.376.012-.76.012-1.14"/></svg>