<svg xmlns="http://www.w3.org/2000/svg" width="80" height="80" fill="none" viewBox="0 0 80 80"><rect width="80" height="80" fill="#007dfe" rx="8"/><path fill="#022db8" stroke="#007cff" stroke-miterlimit="1.09" stroke-width=".03" d="M31.584 24.035a16.9 16.9 0 0 1 6.326-.8c3.13.17 6.187 1.277 8.735 3.097.275.201.574.387.809.648.404.46.565 1.115.421 1.714a1.93 1.93 0 0 1-1.285 1.391 1.95 1.95 0 0 1-1.811-.347 12.9 12.9 0 0 0-6.6-2.613 12 12 0 0 0-2.636 0 12.96 12.96 0 0 0-6.906 2.871c-2.209 1.804-3.818 4.342-4.447 7.124a13.1 13.1 0 0 0 .533 7.64c.987 2.571 2.823 4.796 5.136 6.282a13.04 13.04 0 0 0 5.766 1.989c.792.097 1.602.097 2.387.008a13 13 0 0 0 6.81-2.668 1.95 1.95 0 0 1 1.796-.298c.826.283 1.415 1.164 1.31 2.036-.048.51-.315.995-.72 1.302a16.7 16.7 0 0 1-5.192 2.742c-2.418.777-5.023.978-7.537.63a16.7 16.7 0 0 1-7.723-3.2 17 17 0 0 1-5.136-6.275 16.84 16.84 0 0 1-1.61-7.795 16.65 16.65 0 0 1 3.107-9.218c2.071-2.911 5.072-5.151 8.476-6.258z"/><path fill="#70baf7" stroke="#6fbaf7" stroke-miterlimit="1.09" stroke-width=".03" d="M55.25 28.627c.84-.25 1.827.146 2.232.938a23.13 23.13 0 0 1 2.441 12.37c-.243 3.024-1.075 6.009-2.475 8.7-.51.961-1.876 1.27-2.757.639-.818-.525-1.085-1.698-.6-2.547 2.703-5.303 2.726-11.877.058-17.197-.244-.436-.373-.955-.25-1.448a1.93 1.93 0 0 1 1.35-1.455Z"/><path fill="#fff" stroke="#002cb8" stroke-miterlimit="1.09" stroke-width=".03" d="M31.326 30.899c3.428-2.07 8.064-2.013 11.395.243.826.606.995 1.9.356 2.701-.574.784-1.764 1.019-2.58.494a6.75 6.75 0 0 0-4.383-1.004 6.7 6.7 0 0 0-4.045 1.957 6.7 6.7 0 0 0-1.933 3.978 6.7 6.7 0 0 0 .55 3.582 6.85 6.85 0 0 0 3.34 3.372 6.76 6.76 0 0 0 4.852.332c2.12-.647 3.873-2.4 4.48-4.528-1.52.008-3.04 0-4.56 0a1.944 1.944 0 0 1-1.278-3.387 1.93 1.93 0 0 1 1.188-.502c2.298-.017 4.585-.008 6.883-.008a1.92 1.92 0 0 1 1.779 1.132c.258.534.178 1.14.146 1.715a10.66 10.66 0 0 1-3.107 6.654 10.64 10.64 0 0 1-6.42 3.063c-2.37.259-4.82-.315-6.835-1.6a10.76 10.76 0 0 1-4.392-5.564c-.792-2.303-.751-4.884.072-7.172a10.58 10.58 0 0 1 4.49-5.458z"/><path fill="#70baf7" stroke="#6fbaf7" stroke-miterlimit="1.09" stroke-width=".03" d="M49.993 31.96c.832-.219 1.779.209 2.168.977 2.103 4.446 2.103 9.832 0 14.278a1.93 1.93 0 0 1-1.391 1.01 1.97 1.97 0 0 1-1.853-.72 1.97 1.97 0 0 1-.201-2.045c1.569-3.404 1.544-7.486-.04-10.882-.477-1.043.2-2.377 1.319-2.619z"/></svg>