<svg xmlns="http://www.w3.org/2000/svg" width="80" height="80" fill="none" viewBox="0 0 80 80"><rect width="80" height="80" fill="#00b45e" rx="8"/><path fill="#fff" d="M56.582 36.003V29.2h1.395v5.848c-.387.193-.912.558-1.395.955m-2.424 2.05c.43-.515.869-1.03 1.395-1.47V29.2h-1.395zM38.005 43.46c0 1.813.718 3.54 2.038 4.86 1.308 1.31 3.035 2.04 4.859 2.04.772 0 1.566-.162 2.123-.44v-1.396a5.7 5.7 0 0 1-2.123.44c-2.982 0-5.492-2.51-5.492-5.494v-1.255c0-2.983 2.52-5.494 5.492-5.494 1.48 0 2.864.569 3.893 1.599a5.47 5.47 0 0 1 1.598 3.895v8.155h1.395v-8.423a6.97 6.97 0 0 0-2.135-4.69 6.84 6.84 0 0 0-4.751-1.93c-1.813 0-3.54.718-4.86 2.038-1.308 1.309-2.037 3.037-2.037 4.86zm20.872-3.348c.633-.633 1.448-.987 2.253-.987a3.034 3.034 0 0 1 3.068 3.069v1.255a3.034 3.034 0 0 1-3.068 3.069c-.837 0-1.641-.462-2.274-1.288a5 5 0 0 1-.976-2.618l-1.126 1.395c.225 1.051.772 2.07 1.555 2.78.805.729 1.813 1.137 2.82 1.137a4.476 4.476 0 0 0 4.474-4.464v-1.256a4.4 4.4 0 0 0-1.33-3.133c-.858-.858-1.974-1.33-3.143-1.33-.74 0-1.91.268-3.304 1.523-.375.376-1.255 1.256-1.79 1.878-.902.987-2.2 2.457-3.315 3.949v2.178c1.233-1.588 1.941-2.479 3.11-3.82 1.03-1.223 2.317-2.693 3.046-3.337m-32.95-2.63v-1.651c-1.265-.676-2.638-.977-4.461-.977a7.33 7.33 0 0 0-4.977 1.92c-1.352 1.245-2.092 2.877-2.092 4.615v.45c0 3.606 2.885 6.535 6.446 6.535 2.886 0 4.076-.944 4.377-1.245v-4.195H20.5v1.395h3.411v2.103h-.01c-.44.172-1.352.536-3.058.536a4.96 4.96 0 0 1-3.571-1.491c-.955-.966-1.47-2.253-1.47-3.648v-.451c0-2.78 2.596-5.14 5.674-5.14 2.113.011 3.379.365 4.451 1.245m10.169 1.643c.525 0 .976.086 1.34.257.172-.429.354-.794.612-1.223-.376-.268-1.287-.44-1.952-.44-2.542 0-4.462 1.92-4.462 4.474v8.155h1.394v-8.154c0-1.803 1.255-3.07 3.068-3.07M11.973 41.39v.45c0 2.425.923 4.679 2.585 6.363a8.78 8.78 0 0 0 6.275 2.597c1.92 0 3.614-.429 5.052-1.287 1.18-.709 1.705-1.417 1.748-1.481V40.52H20.5v1.395h5.739v5.697c-.676.676-2.274 1.803-5.396 1.803-2.038 0-3.925-.783-5.32-2.2-1.383-1.405-2.145-3.315-2.145-5.365v-.45c0-1.943.869-3.874 2.392-5.301a8.32 8.32 0 0 1 5.706-2.264c1.985 0 3.358.3 4.462.976v-1.577c-1.158-.494-2.542-.708-4.472-.708-5.149 0-9.493 4.056-9.493 8.863m37.38 8.96v-8.156c0-2.51-1.963-4.474-4.473-4.474-1.169 0-2.284.472-3.143 1.33-.858.859-1.33 1.975-1.33 3.134v1.255c0 2.425 2.05 4.464 4.463 4.464.665 0 1.565-.16 2.123-.622v-1.449c-.547.44-1.33.698-2.123.698a3.04 3.04 0 0 1-3.068-3.07v-1.255a3.034 3.034 0 0 1 3.068-3.069 3.034 3.034 0 0 1 3.067 3.07v8.154h1.416zM36.096 36.7c.944 0 1.77.204 2.51.623.343-.44.697-.783.965-1.052-.783-.6-2.113-.965-3.465-.965-1.941 0-3.7.697-4.955 1.974-1.244 1.255-1.93 3.005-1.93 4.925v8.155h1.394v-8.155c-.011-3.24 2.241-5.504 5.48-5.504m29.893.644c-1.309-1.309-3.036-2.038-4.86-2.038-1.33 0-2.66.493-3.4.987-1.522 1.008-2.767 2.114-5.019 5.022v2.092c1.91-2.49 3.711-4.442 5.084-5.526.901-.719 2.178-1.17 3.336-1.17 2.982 0 5.492 2.522 5.492 5.494v1.256c0 1.47-.58 2.854-1.63 3.895a5.46 5.46 0 0 1-3.862 1.599c-2.446 0-4.602-1.685-5.18-3.97l-.988 1.19c.72 2.404 3.315 4.175 6.168 4.175 1.823 0 3.54-.73 4.859-2.04 1.308-1.319 2.038-3.036 2.038-4.86v-1.256c0-1.813-.73-3.54-2.038-4.85"/></svg>