<svg xmlns="http://www.w3.org/2000/svg" width="80" height="80" fill="none" viewBox="0 0 80 80"><rect width="80" height="80" fill="#74bc44" rx="8"/><path fill="#fff" fill-rule="evenodd" d="m37.278 20.146.637-.073.637-.073 1.81.03 1.81.029.819.13.819.13.908.216.909.217.946.323.946.324 1.152.555 1.151.556.741.46.741.459.807.614.808.614.75.689.752.688.774.905.774.905.637.951.637.952.382.7.382.7.369.845.369.843.324 1 .325 1 .206.987.205.987.086.781.085.782.052.863.053.864-.095 1.273-.094 1.272-.2 1.084-.2 1.084-.288.948-.288.948-.255.643-.255.644-.358.74-.358.74-.493.83-.494.83-.61.815-.61.815-.686.77-.686.768-.951.82-.952.819-1.097.734-1.098.735-1.082.532-1.083.532-.74.28-.74.28-.741.21-.74.21-.782.164-.782.165-.781.108-.782.108-1.81-.002-1.81-.001-.946-.145-.946-.144-.905-.213-.905-.213-.928-.32-.928-.318-.758-.34-.759-.341-.74-.409-.74-.409-.741-.496-.74-.496-.741-.595-.74-.594-.988-1.017-.987-1.017-.59-.782-.591-.781-.466-.74-.466-.74-.567-1.154-.567-1.153-.405-1.232-.404-1.232-.17-.822-.168-.823-.127-.97L20 41.53v-2.96l.087-.798.087-.799.204-1.028.205-1.028.41-1.233.41-1.234.605-1.234.605-1.234.653-.987.654-.987.649-.781.649-.782.62-.62.62-.62.753-.625.754-.625.933-.62.933-.62.946-.491.946-.492.946-.375.947-.374 1.029-.282 1.028-.282.803-.137zm2.218 5.326-.586.876-.394.79-.394.788-.308.781-.308.782-.236.904-.235.905-.12.782-.119.781-.05.74-.05.74.084 1.014.084 1.014.17.837.17.837.336 1.015.337 1.015.544 1.082.544 1.082.558.843.558.843h.163l.58-.884.58-.884.563-1.151.563-1.152.296-.9.295-.901.161-.786.162-.785.098-1.09.097-1.09-.097-1.09-.098-1.09-.167-.813-.168-.814-.25-.79-.25-.79-.357-.823-.356-.822-.397-.716-.397-.715-.433-.621-.432-.621h-.154zm-10.042 9.975.05-.08.049-.08h.031l.779.21.779.208.78.37.781.37.827.545.826.545 1.193 1.2 1.193 1.2.485.684.486.685.53.878.528.878.445.946.445.946.157.288.156.287h.388l.824-1.645.824-1.645.32-.493.321-.494.576-.779.575-.779.79-.815.788-.816.711-.551.712-.552.665-.39.665-.39.666-.28.665-.281.645-.165.646-.165h.112l-.058.514-.057.514-.157.782-.157.781-.254.782-.253.78-.366.779-.365.778-.549.826-.549.826-.867.863-.868.864-.724.51-.725.51-.962.489-.962.49-.782.251-.781.252-.37.106-.37.106-.022 5.943-.02 5.942h-.987v-11.91l-.432-.102-.432-.102-.815-.282-.815-.282-.748-.375-.748-.374-.617-.412-.617-.412-.678-.568-.677-.568-.48-.557-.479-.556-.375-.53-.375-.53-.334-.617-.334-.617-.256-.648-.256-.65-.205-.708-.206-.708-.164-1.01zm27.567 12.026-.617.245-1.234.357-1.234.358-1.234.251-1.234.252-.946.12-.946.122-1.234.099-1.234.098-2.304-.053-2.303-.054-.474-.05-.473-.051v1.16l.144.043.144.043.864.163.864.162 1.11.167 1.111.166 1.11.126 1.111.126 1.704.087 1.703.087 1.375-.087 1.374-.087.583-.084.583-.084.188-.079.188-.078.494-.761.493-.762.481-.946.481-.945.057-.186.056-.184-.067.007-.067.008zm-15.425 4.623-.026-.344-.025-.344h.1l1.291.324 1.292.324 1.21.25 1.21.25 1.464.221 1.464.22 1.85.008 1.852.007.452-.062.453-.063-.783.762-.783.761-.74.595-.738.594-.107.002-.107.002-1.292-.544-1.291-.544-1.358-.556-1.357-.556-.946-.347-.947-.348-1.069-.306zm-.042 4.135v2.767l.638-.056.638-.057.987-.198.987-.198.74-.215.74-.215.844-.33.843-.33v-.115l-.456-.55-.457-.55-.675-.541-.674-.54-.62-.364-.619-.364-.614-.255-.615-.254-.77-.2-.77-.202h-.147zm-5.014-2.696.8-.11.8-.108.35-.009.35-.008v5.675h-.596l-.875-.13-.874-.13-1.07-.273-1.07-.274-.863-.325-.864-.325-.781-.381-.782-.381-.27-.166-.269-.165.136-.206.135-.207.517-.41.516-.412.695-.369.694-.37.98-.32.98-.32.68-.138zm-3.788-3.276-1.111.058-.658.1-.658.1-.823.193-.823.193-.74.26-.74.26-.762.37-.76.37v.251l1.09 1.09 1.09 1.09.221.14.222.141.606-.368.607-.368.851-.427.851-.427.823-.32.823-.321.87-.242.872-.243.658-.128.658-.13.782-.08.781-.081.679-.001.678-.002v-.976l-.143-.043-.144-.042-.7-.125-.699-.124-.823-.081-.822-.082-.823-.031-.823-.032zm-9.178-4.293.496-.07.496-.071 1.234.03 1.234.03.905.17.905.168 2.92.787 2.921.787 1.152.294 1.151.293.905.18.905.181.025.48.025.479-.038.101-.04.101-.644-.114-.644-.114-2.92-.506-2.921-.507h-1.48l-1.482.001-.617.139-.617.138-.697.22-.697.22-.935.469-.936.468-.245-.381-.245-.381-.602-1.208-.6-1.208-.129-.375-.128-.376.141-.075.141-.075.53-.138z" clip-rule="evenodd"/></svg>