<svg xmlns="http://www.w3.org/2000/svg" width="80" height="80" fill="none" viewBox="0 0 80 80"><rect width="80" height="80" fill="#e9232a" rx="8"/><path fill="#fff" d="M17.6 61.533c-.914-.477-1.633-.895-1.599-.93.117-.116 4.484-1.052 7.534-1.612 6.599-1.215 14.445-2.186 22.26-2.757 3.218-.236 14.862-.243 16.881-.012l1.324.152-1.492.024c-2.65.04-8.726.467-13.486.947-9.01.906-19.028 2.578-26.275 4.385-1.48.368-2.87.67-3.09.67s-1.145-.39-2.058-.867m12.597-9.102c-.136-.376.431-.544.678-.65 1.11-.478 1.89-1.256 2.151-2.144.125-.425.506-2.829.846-5.341s.647-4.455.68-4.57c.025-.084.092-.384.45-.416.917-.009 1.598.003 2.537.003.52-.05.417.52.376.885-.04.46-.164 1.351-.308 2.437l-.583 4.4c-.327 2.46-.508 3.218-1.072 4.486-.671 1.508-1.698 2.385-3.558 3.008-.376.119-1.454.487-1.57.16-.244-.783-.417-1.463-.627-2.258m21.367-.825c-1.24-.503-1.182-2.443.119-3.239.823-.503 1.98-.418 2.574.179 1.464 1.47-.69 3.871-2.693 3.06m-9.372-1.16c-3.646-.624-3.621-4.986-2.805-7.479 1.023-2.885 3.515-3.723 5.563-3.796 1.729-.06 4.125.263 4.727.636.166.103.088 1.103-.376 4.81-.323 2.575-.675 4.79-.784 4.92-.577.698-4.444 1.254-6.325.91m3.18-3.451c.391-1.462.556-2.78.836-4.322-.035-.531-.928-.535-1.155-.536-1.184 0-1.883.666-2.254 2.149-.508 2.033.023 3.166 1.484 3.166.461-.043.943-.018 1.089-.457M18.729 49.27c.997-2.443 5-11.191 5.96-13.003.181-.451.66-.54.987-.572.941-.043 1.755-.032 2.582-.026.851.008.864.308.973.943.134.633 1.796 10.59 2.172 12.981.048.397.145.52-.37.521-.713.002-2.43.096-3.013.051-.186-.024-.307-.146-.336-.284a11 11 0 0 1-.154-1.156l-.106-1.19h-4.277l-.468 1.145c-.166.407-.348.809-.483 1.075-.095.245-.237.357-.448.403-.524-.004-2.379.065-3.076.003-.345-.159-.033-.669.057-.892m8.318-5.05c-.06-.644-.47-3.962-.566-4.452-.025-.053-.037-.035-.063-.005-.253.381-1.62 3.749-1.853 4.53-.028.108.042.148.144.14.347-.025 1.764-.051 2.195-.068.123-.01.135-.052.143-.146m24.681 1.612c.055-.434.176-1.61.27-2.616.092-1.005.24-2.574.33-3.488.067-.693.126-1.366.152-1.72.052-.317.434-.355.685-.357.838.009 1.627-.041 2.38.029.356.036.505.115.506.328-.34 1.749-1.56 7.783-1.654 8.156-.081.322-.114.417-.604.445-.6-.01-1.101.022-1.71.02-.35-.005-.443-.108-.355-.797m-16.903-8.964c0-1.066.683-1.879 1.54-2.22.739-.26 1.568-.26 2.009.246.783.914.27 2.264-.646 2.967-1.172.81-2.884.331-2.903-.993m21-2.247A779 779 0 0 0 54 30.616c-.748-1.63-1.32-3.068-1.272-3.194.048-.127.882-1.166 1.852-2.309l1.58-1.861c.103-.126.221-.28.365-.281.952.005 1.938.062 2.846.053.677-.006 1.017-.05.515.461-.32.4-.954 1.13-1.679 1.932-1.047 1.16-1.903 2.139-1.903 2.177s.785 1.768 1.744 3.846c.754 1.632 1.377 3.092 1.587 3.702.09.207.01.384-.181.432-.254.06-.71.083-1.497.083H56.78c-.287.03-.499-.02-.61-.267zm-35.23-1.215c-1.06-.53-1.56-1.2-1.651-2.211-.055-.606.933-8.748 1.37-11.337.107-.608.153-.642.734-.642h1.142c.6 0 1.147-.01 1.49.01.47.006.384.303.349.659-.081.793-.333 2.513-.648 4.728-.56 3.929-.703 5.315-.57 5.529.158.25.556.29 3.195.33l2.361.036c.562-.031.679.107.623.614-.138.838-.213 1.507-.35 2.258-.094.47-.396.346-.865.375l-2.76.039c-3.54.044-3.558.042-4.42-.388m27.223.301c-.036-.068.063-1.021.22-2.117.156-1.096.483-3.451.725-5.232.69-5.057.916-6.581 1.012-7.164.102-.68.102-.643.767-.643h1.053c.41 0 .732-.005.98.003.945.03.825-.05.586 1.42-.09.555-.39 3-.668 5.055-.697 5.176-1.154 8.35-1.238 8.595-.079.23-3.32.309-3.437.083m-17.994-.394c.439-3.698.858-6.495 1.346-9.938.037-.412.44-.46.912-.46.536 0 1.082-.007 1.592.01.99.003 1.25.136 1.147.8-.438 3.232-.98 6.116-1.549 9.401-.106.556-.236.54-.765.54-.617.002-1.711.023-2.27.007-.328-.058-.402-.095-.413-.36m6.982-8.28c.272-1.43.46-1.654.854-1.913.487-.32 4.08-.653 5.321-.494q.26.038.495.094c3.635.867 3.07 4.997 2.834 6.898-.25 1.815-.494 3.469-.544 3.674-.086.358-.164.374-1.81.374-.553 0-.842-.02-1.157-.049-.508-.033-.555-.148-.504-.519.185-1.517.435-2.825.621-4.241.25-1.934.184-3.843-2.206-3.432-.41.104-.522.137-.579.547-.298 1.91-.56 3.883-.833 5.75-.06.447-.144.912-.23 1.325-.022.106-.034.2-.053.27-.024.082-.08.167-.135.083-.384-.703-2.191-.585-2.945-.07-.379.264-.457.406-.302-.399l.08-.511c.374-2.465.626-4.89 1.093-7.387m-5.16-4.233c-.404-1.382.798-2.748 2.145-2.796 1.824-.122 2.328 2.396.461 3.538-1.08.496-2.217.391-2.606-.742"/></svg>