<svg xmlns="http://www.w3.org/2000/svg" width="80" height="80" fill="none" viewBox="0 0 80 80"><rect width="79" height="79" x=".5" y=".5" fill="#fff" rx="7.5"/><rect width="79" height="79" x=".5" y=".5" stroke="#eee" rx="7.5"/><path fill="url(#a)" d="M36.186 53.704 20.965 35.787c-2.57-3.025-2.166-7.578.897-10.116s7.673-2.14 10.243.886l15.22 17.917c2.57 3.025 2.166 7.578-.897 10.116s-7.673 2.14-10.242-.886"/><path fill="url(#b)" d="m52.643 32.674-3.774 17.85c-.816 3.867-4.69 6.369-8.606 5.563s-6.449-4.633-5.633-8.5l3.774-17.85c.816-3.866 4.691-6.369 8.607-5.562 3.919.81 6.453 4.633 5.632 8.5"/><path fill="url(#c)" d="m55.168 53.704-15.22-17.917c-2.57-3.025-2.166-7.578.896-10.116 3.063-2.538 7.673-2.14 10.243.886l15.221 17.917c2.57 3.025 2.166 7.578-.897 10.116-3.059 2.538-7.669 2.14-10.243-.886"/><path fill="url(#d)" d="M26.517 48.497c.351 4.425-3.358 8.089-7.84 7.741-3.522-.275-6.375-3.092-6.654-6.576-.351-4.425 3.358-8.089 7.839-7.742 3.523.276 6.38 3.097 6.655 6.577"/><defs><radialGradient id="a" cx="0" cy="0" r="1" gradientTransform="matrix(14.47 0 0 14.2908 37.713 33.245)" gradientUnits="userSpaceOnUse"><stop stop-color="#9e0b0f"/><stop offset=".16" stop-color="#b91319"/><stop offset=".323" stop-color="#ce181f"/><stop offset=".486" stop-color="#de1a22"/><stop offset=".646" stop-color="#e81c23"/><stop offset=".8" stop-color="#ed1c24"/></radialGradient><radialGradient id="b" cx="0" cy="0" r="1" gradientTransform="rotate(.79 -2998.695 3694.708)scale(14.5163 14.3366)" gradientUnits="userSpaceOnUse"><stop offset=".3" stop-color="#9e0b0f"/><stop offset=".44" stop-color="#b91319"/><stop offset=".583" stop-color="#ce181f"/><stop offset=".725" stop-color="#de1a22"/><stop offset=".865" stop-color="#e81c23"/><stop offset="1" stop-color="#ed1c24"/></radialGradient><radialGradient id="c" cx="0" cy="0" r="1" gradientTransform="matrix(30.9718 0 0 30.5882 40.733 25.723)" gradientUnits="userSpaceOnUse"><stop offset=".35" stop-color="#ed1c24"/><stop offset="1" stop-color="#f37021"/></radialGradient><radialGradient id="d" cx="0" cy="0" r="1" gradientTransform="matrix(10.8675 0 0 10.7329 16.635 51.618)" gradientUnits="userSpaceOnUse"><stop offset=".3" stop-color="#ed1c24"/><stop offset="1" stop-color="#9e0b0f"/></radialGradient></defs></svg>