<svg xmlns="http://www.w3.org/2000/svg" width="80" height="80" fill="none" viewBox="0 0 80 80"><rect width="80" height="80" fill="#e30513" rx="8"/><path fill="#fff" d="M31.118 22.382a18.1 18.1 0 0 1 9.082-2.447c10.49 0 19 8.987 19 20.065s-8.51 20.065-19 20.065c-6.3 0-11.891-3.247-15.346-8.241l9.991.027c6.337 0 10.037-2.2 10.246-2.328 3.282-1.765 5.536-5.367 5.536-9.523 0-5.894-4.527-10.678-10.109-10.678-1.145 0-2.245.2-3.273.573L34.7 26.83z"/><path fill="#fff" d="M32.836 33.06 25.2 27.694a19.7 19.7 0 0 1 3.845-3.93l6.61 6.867a10.4 10.4 0 0 0-2.819 2.429m8.737 9.505-9.364-3.811c.273-1.346.764-2.438 1.39-3.311l7.974 4.784zm0-3.365-6.964-4.894c.891-.81 1.918-1.355 2.936-1.71l4.028 4.175zm0 4.356v2.693H22.145a21.1 21.1 0 0 1-.709-9.387l8.928 2.965c.018 3.702 2.2 6.094 2.2 6.094-.491-2.165-.655-4.002-.564-5.548zm-11.137-5.484-8.49-3.611a20.7 20.7 0 0 1 2.036-4.903l7.763 4.866a10.3 10.3 0 0 0-1.309 3.648m-7.854 9.395h7.682l.99 1.11h8.255l-1.755 1.946H24.037a20 20 0 0 1-1.454-3.056"/></svg>