<svg xmlns="http://www.w3.org/2000/svg" width="80" height="80" fill="none" viewBox="0 0 80 80"><rect width="80" height="80" fill="#4c2a86" rx="8"/><path fill="#fff" d="M39.74 49.176c-.178-.024-.358-.032-.537-.06a3.33 3.33 0 0 1-2.112-1.206c-.424-.515-.708-1.107-.942-1.726-.229-.604-.395-1.227-.575-1.847l-.925-3.197-1.433-4.951a1.95 1.95 0 0 0-.364-.732c-.237-.282-.548-.408-.906-.414-.55-.009-1.098-.004-1.647-.002-.065 0-.088-.009-.087-.083a65 65 0 0 0 0-1.205c0-.063.018-.078.079-.078.61.003 1.219.001 1.828.002.404 0 .799.052 1.169.229.47.224.79.592 1.014 1.054.16.331.242.689.342 1.04q.481 1.68.958 3.36.8 2.81 1.603 5.618c.161.56.361 1.107.675 1.604.309.487.703.881 1.267 1.05.78.233 1.54.196 2.236-.271.411-.276.686-.672.908-1.106.257-.502.423-1.038.576-1.578q.602-2.117 1.207-4.233.716-2.513 1.435-5.024c.134-.465.358-.882.725-1.208a2.1 2.1 0 0 1 1.092-.497 4 4 0 0 1 .643-.038l1.726-.002c.062 0 .079.016.078.078q-.005.608 0 1.214c.001.066-.022.074-.079.074q-.792-.003-1.584-.001c-.566 0-.965.261-1.201.775-.14.303-.213.628-.305.946q-.612 2.102-1.219 4.205-.628 2.183-1.264 4.364c-.2.683-.443 1.35-.802 1.967s-.82 1.132-1.461 1.468a3.6 3.6 0 0 1-1.301.38l-.312.031z"/><path fill="#fff" d="M31.428 31.612h1.095c.482.004.956.058 1.417.207.828.268 1.443.798 1.894 1.531.325.53.533 1.108.704 1.702l1.096 3.8 1.642 5.682c.058.2.109.403.198.593.082.174.185.33.39.38a.5.5 0 0 0 .54-.195c.138-.19.201-.412.265-.633l1.28-4.44 1.4-4.838c.142-.491.277-.985.489-1.453.237-.522.536-1 .957-1.396a3.37 3.37 0 0 1 1.642-.838 5.3 5.3 0 0 1 1.11-.102q1.072 0 2.143-.002c.064 0 .084.014.084.082q-.006.606 0 1.213c0 .062-.02.071-.075.071-.683-.001-1.366-.008-2.049.003-.49.008-.967.1-1.405.337-.526.285-.867.73-1.113 1.261-.201.434-.312.897-.446 1.352l-1.302 4.45c-.422 1.443-.84 2.888-1.265 4.33-.143.487-.307.966-.568 1.406-.199.337-.454.614-.824.767a1.9 1.9 0 0 1-.8.131c-.422-.01-.806-.126-1.12-.421a2.4 2.4 0 0 1-.471-.653c-.244-.472-.398-.976-.547-1.482l-1.288-4.413q-.704-2.415-1.41-4.827c-.14-.475-.335-.923-.649-1.312-.355-.443-.818-.71-1.366-.835a4 4 0 0 0-.936-.096l-1.852.002c-.062 0-.076-.016-.076-.077q.005-.602 0-1.205c0-.065.014-.084.081-.084q.567.004 1.135.002M68 39.94c-.016-.026-.008-.055-.007-.084a7 7 0 0 0-.022-.683 9.6 9.6 0 0 0-.299-1.657 8.7 8.7 0 0 0-.51-1.396 9 9 0 0 0-.763-1.322 8 8 0 0 0-1.293-1.457 8.5 8.5 0 0 0-1.588-1.104 8.7 8.7 0 0 0-4.27-1.035c-.103.003-.208-.006-.313.005a9.5 9.5 0 0 0-1.479.126 8.6 8.6 0 0 0-2.702.898 8 8 0 0 0-3.321 3.262c-.763 1.375-1.102 2.86-1.145 4.42q-.024.862.089 1.719c.084.645.228 1.276.445 1.89a8.4 8.4 0 0 0 1.973 3.164 8.2 8.2 0 0 0 2.393 1.662 9 9 0 0 0 3.225.798l.508.03h.473c.019-.015.04-.008.061-.008.268 0 .535-.005.802-.031q.604-.06 1.195-.197a8.5 8.5 0 0 0 3.808-2q.591-.547 1.064-1.201a9 9 0 0 0 .936-1.647 8.8 8.8 0 0 0 .592-1.973 9 9 0 0 0 .124-.968 9 9 0 0 0 .016-.598c0-.025-.008-.052.008-.076zm-1.468.448c-.024 1.197-.239 2.355-.752 3.447-.655 1.392-1.66 2.448-3.035 3.146a7.2 7.2 0 0 1-2.04.668 9.2 9.2 0 0 1-2.22.106c-1.093-.074-2.135-.34-3.102-.867-1.412-.77-2.404-1.916-3.02-3.393a7.8 7.8 0 0 1-.537-2.065 11 11 0 0 1-.077-1.224c.005-.97.13-1.921.44-2.844.297-.88.735-1.68 1.339-2.385a6.6 6.6 0 0 1 1.943-1.538 7.3 7.3 0 0 1 2.409-.76 9 9 0 0 1 2.025-.049c1.373.122 2.635.55 3.756 1.366a6.6 6.6 0 0 1 1.985 2.331c.4.77.653 1.588.78 2.445q.12.804.105 1.616M29.562 38.48a8.8 8.8 0 0 0-.892-2.704q-1.395-2.661-4.152-3.854c-1.125-.486-2.308-.703-3.531-.715h-.35a9.6 9.6 0 0 0-1.572.142 8.6 8.6 0 0 0-2.546.85c-1.568.815-2.744 2.018-3.542 3.592a9 9 0 0 0-.767 2.205 9.6 9.6 0 0 0-.21 1.8v.824c.008.444.056.883.126 1.321.148.927.43 1.811.858 2.648a8.1 8.1 0 0 0 2.057 2.59c1.578 1.302 3.407 1.92 5.438 1.983h.76c.334-.004.665-.037.996-.079a8.7 8.7 0 0 0 1.997-.492c1.385-.527 2.563-1.349 3.497-2.503 1.253-1.55 1.86-3.342 1.957-5.32a11 11 0 0 0-.124-2.289m-1.753 4.537c-.31.932-.777 1.776-1.44 2.505-.952 1.047-2.133 1.703-3.503 2.031a8.9 8.9 0 0 1-2.57.207c-.983-.054-1.93-.264-2.826-.68a6.6 6.6 0 0 1-1.794-1.214c-.94-.897-1.556-1.986-1.907-3.23a8.7 8.7 0 0 1-.306-2.008 10 10 0 0 1 .054-1.555c.168-1.446.652-2.769 1.566-3.916.764-.96 1.735-1.637 2.88-2.071a7.6 7.6 0 0 1 1.952-.445 9 9 0 0 1 1.697-.01c1.457.13 2.784.602 3.943 1.51a6.6 6.6 0 0 1 1.781 2.162 7.7 7.7 0 0 1 .776 2.357c.084.513.12 1.03.124 1.488-.003 1.019-.124 1.958-.427 2.868"/><path fill="#fff" d="M65.587 37.986a6.5 6.5 0 0 0-1.55-2.781 6 6 0 0 0-2.007-1.392 6.8 6.8 0 0 0-1.974-.51 9 9 0 0 0-1.375-.036 7 7 0 0 0-1.864.34c-1.585.529-2.782 1.522-3.568 3a7.2 7.2 0 0 0-.777 2.524 9 9 0 0 0-.05 1.572c.033.69.15 1.367.369 2.024a6.4 6.4 0 0 0 1.387 2.371 6.2 6.2 0 0 0 2.676 1.682c.84.27 1.702.361 2.581.334a7.5 7.5 0 0 0 1.715-.241 6.2 6.2 0 0 0 2.75-1.524 6.1 6.1 0 0 0 1.45-2.19c.375-.945.524-1.931.524-2.943 0-.812-.08-1.475-.287-2.23m-1.215 2.967c-.118 1.115-.488 2.132-1.21 3.004-.605.732-1.374 1.225-2.276 1.514-.64.205-1.3.275-1.97.251-1.034-.036-1.995-.31-2.854-.903-.794-.549-1.356-1.284-1.727-2.17a6.1 6.1 0 0 1-.46-2.398c-.002-.938.142-1.803.52-2.617.72-1.55 1.916-2.521 3.59-2.87 1.122-.233 2.232-.152 3.299.293a4.8 4.8 0 0 1 2.46 2.258c.34.646.535 1.336.618 2.06q.092.79.01 1.578m-36.859-1.838a7.4 7.4 0 0 0-.444-1.799c-.397-1.01-.991-1.883-1.83-2.58-1.032-.857-2.232-1.313-3.559-1.443a8.2 8.2 0 0 0-2.087.057 6.6 6.6 0 0 0-1.956.618c-1.446.73-2.433 1.873-3.02 3.372-.349.894-.496 1.825-.505 2.78q-.007.694.093 1.38a6.9 6.9 0 0 0 .732 2.264 6.1 6.1 0 0 0 2.076 2.284c.906.59 1.902.918 2.972 1.028q.978.102 1.955-.025a6.7 6.7 0 0 0 2.257-.697 5.9 5.9 0 0 0 2.036-1.72c.831-1.121 1.229-2.396 1.323-3.775a9 9 0 0 0-.043-1.744m-1.965 3.765c-.655 1.368-1.72 2.248-3.178 2.654a5.8 5.8 0 0 1-1.94.177 5.25 5.25 0 0 1-2.26-.64c-.997-.556-1.694-1.377-2.133-2.423a5.8 5.8 0 0 1-.413-1.62c-.102-.925-.05-1.838.223-2.73.275-.903.744-1.689 1.443-2.328a4.93 4.93 0 0 1 2.423-1.214 6 6 0 0 1 1.769-.077c1.191.123 2.231.582 3.084 1.43.685.682 1.116 1.51 1.35 2.442a6.4 6.4 0 0 1 .195 1.657c.002.931-.16 1.828-.564 2.672"/></svg>