<svg xmlns="http://www.w3.org/2000/svg" width="80" height="80" fill="none" viewBox="0 0 80 80"><rect width="80" height="80" fill="#2ff19e" rx="8"/><path fill="#fff" d="M48.807 26.027c-3.014 0-6.08 1.268-8.035 3.276l1.11 2.22-.47.374c-2.073-3.573-5.885-5.87-9.943-5.87-6.34 0-11.468 5.547-11.468 12.046v14a.86.86 0 0 0 .898.9h4.599a.84.84 0 0 0 .84-.841V37.967c0-3.222 1.956-5.863 5.286-5.863 3.118 0 5.337 2.323 5.337 5.757v11.623a.84.84 0 0 0 .841.898h4.396a.84.84 0 0 0 .84-.898V37.861c0-3.434 2.326-5.757 5.444-5.757 3.33 0 5.18 2.64 5.18 5.863v14.16a.88.88 0 0 0 .897.84h4.54a.86.86 0 0 0 .9-.9V38.074c0-6.499-4.915-12.046-11.204-12.046"/></svg>