<svg xmlns="http://www.w3.org/2000/svg" width="80" height="80" fill="none" viewBox="0 0 80 80"><rect width="80" height="80" fill="#8f1b7c" rx="8"/><path fill="#fff" d="M12 23.26q.002-.209.11-.335c.07-.086.187-.125.327-.125h6.41q.693 0 1.304.187c.406.125.781.305 1.125.523q.513.338.92.804a5.15 5.15 0 0 1 1.133 2.146 4.93 4.93 0 0 1-.18 2.974 4.8 4.8 0 0 1-.929 1.538 4.7 4.7 0 0 1-1.444 1.084 4.2 4.2 0 0 1-1.866.43h-3.037v4.776c0 .29-.156.43-.461.43h-2.967a.46.46 0 0 1-.32-.102q-.117-.105-.117-.328V23.26zm7.558 4.387a1.8 1.8 0 0 0-.102-.601 1.7 1.7 0 0 0-.304-.539 1.6 1.6 0 0 0-.484-.382 1.35 1.35 0 0 0-.648-.149h-2.124v3.349h2.124a1.4 1.4 0 0 0 .656-.148q.294-.142.484-.375c.132-.156.234-.328.304-.53.07-.204.102-.407.102-.625zm8.405-4.457c0-.039.031-.086.062-.133.04-.046.078-.093.133-.132a.7.7 0 0 1 .172-.094.5.5 0 0 1 .172-.031h2.568c.117 0 .211.031.29.101.077.07.14.133.179.188l.25.57 5.27 13.58q.084.2-.031.328c-.07.086-.203.125-.383.125h-2.881a.66.66 0 0 1-.36-.086c-.085-.055-.148-.148-.194-.289-.133-.343-.266-.679-.39-1.015-.126-.335-.258-.679-.383-1.014h-5.325c-.125.343-.258.679-.383 1.014-.133.336-.257.68-.382 1.015q-.129.375-.516.375h-2.959a.5.5 0 0 1-.32-.102c-.086-.07-.101-.164-.047-.304zm1.827 4.293c-.125.343-.258.71-.383 1.1q-.196.597-.382 1.195c-.125.398-.258.796-.383 1.186q-.198.585-.382 1.1h3.084l-1.539-4.581zm11.874.812 2.42-5.183a.8.8 0 0 1 .102-.172.25.25 0 0 1 .078-.078.3.3 0 0 1 .086-.031.3.3 0 0 0 .102-.023h3.864q.07 0 .118.046a.14.14 0 0 1 .047.11q0 .107-.141.25l-4.755 8.413v5.604q-.002.468-.46.468h-3.007a.4.4 0 0 1-.312-.124c-.078-.086-.11-.196-.11-.344v-5.627l-4.746-8.398c-.086-.086-.133-.172-.133-.25 0-.04.016-.078.039-.11q.036-.046.11-.046h3.864a.4.4 0 0 0 .11.023c.023 0 .054.016.078.031a.4.4 0 0 1 .078.079q.037.056.109.171l2.444 5.183zM12 40.077a.5.5 0 0 1 .11-.312c.07-.086.187-.133.327-.133h3.28a.7.7 0 0 1 .288.07.6.6 0 0 1 .258.242 660 660 0 0 0 2.53 4.051q1.25 2.002 2.537 4.051v-8.031a.47.47 0 0 1 .164-.281.4.4 0 0 1 .281-.102h2.858a.53.53 0 0 1 .351.117q.14.117.14.328v14.065q0 .201-.116.296a.5.5 0 0 1-.328.094h-3.201a.34.34 0 0 1-.235-.094q-.105-.091-.21-.242c-.89-1.467-1.773-2.926-2.64-4.363a825 825 0 0 0-2.646-4.363v8.617c0 .148-.031.258-.102.328s-.187.11-.359.11h-2.85q-.232.002-.335-.126a.46.46 0 0 1-.102-.304zm40.322 14.611a4 4 0 0 1-.187-.352 4 4 0 0 1-.164-.359c-.867-2.271-1.726-4.527-2.577-6.759a1252 1252 0 0 1-2.576-6.759c0-.031 0-.062-.016-.094a.3.3 0 0 1-.016-.078q0-.28.375-.28h3.233c.257 0 .429.124.523.382l3.068 9.14 2.842-9.14q.143-.385.555-.383h3.263c.156 0 .266.032.328.086a.3.3 0 0 1 .094.227c0 .054 0 .093-.008.109v.031l-1.788 5.112 1.343 3.942 3.248-9.124c.094-.258.281-.383.554-.383h3.162c.157 0 .266.032.328.086a.3.3 0 0 1 .094.227c0 .054 0 .093-.008.109v.031q-.681 1.767-1.397 3.52l-1.43 3.512a662 662 0 0 0-1.42 3.513 327 327 0 0 0-1.382 3.512.64.64 0 0 1-.18.242.47.47 0 0 1-.343.132h-2.46a.57.57 0 0 1-.336-.085.44.44 0 0 1-.163-.227l-1.585-4.175-.672 1.787c-.218.585-.445 1.178-.663 1.787q-.047.142-.118.297c-.047.101-.093.203-.156.289a1 1 0 0 1-.203.226.4.4 0 0 1-.265.094h-2.46q-.316 0-.421-.211z"/><path fill="#fff" d="M44.947 40.31a10.7 10.7 0 0 0-1.493-1.557.6.6 0 0 0-.413-.15.65.65 0 0 0-.517.262l-5.793 7.949-2.9-3.547a.6.6 0 0 0-.461-.226.6.6 0 0 0-.479.254l-1.23 1.689a.76.76 0 0 0 .028.92l4.714 5.762c.112.14.281.225.46.225a.6.6 0 0 0 .479-.253l6.056-8.315a7.52 7.52 0 0 1-2.075 9.356 7.43 7.43 0 0 1-4.62 1.587 7.5 7.5 0 0 1-5.943-2.9 7.5 7.5 0 0 1-1.53-5.547 7.5 7.5 0 0 1 2.835-5.011 7.43 7.43 0 0 1 4.62-1.586 7.6 7.6 0 0 1 2.966.6c.3.132.695.02.883-.244l.976-1.342a.6.6 0 0 0-.225-.91 10.4 10.4 0 0 0-4.61-1.06c-2.347 0-4.572.77-6.432 2.214-4.553 3.548-5.37 10.145-1.821 14.697 2 2.562 5.014 4.035 8.272 4.035 2.347 0 4.572-.76 6.431-2.215a10.4 10.4 0 0 0 3.953-6.972 10.4 10.4 0 0 0-2.131-7.724z"/></svg>