<svg xmlns="http://www.w3.org/2000/svg" width="80" height="80" fill="none" viewBox="0 0 80 80"><rect width="80" height="80" fill="#0064ff" rx="8"/><path fill="#fff" fill-rule="evenodd" d="M58.4 44.259c0 4.676-2.39 8.89-6.684 11.819l-11.723 7.926-11.71-7.927C23.992 53.15 21.6 48.948 21.6 44.26c0-3.058.977-5.884 3.496-9.121l14.91-19.142 14.91 19.142c2.507 3.237 3.484 6.063 3.484 9.12m-21.954 7.027L28.849 43c-1.35-1.503-1.966-2.518-2.339-3.546-.861 1.567-1.35 3.25-1.35 4.984 0 3.366 1.903 6.668 5.283 8.89l7.173 4.805v-2.826c0-1.799.051-2.647-1.17-4.021m3.56-1.324 8.034-8.76c1.902-2.03 2.275-3.174 2.275-4.382 0-1.143-.308-2.158-1.722-4.02l-8.587-10.92L31.42 32.8c-1.478 1.862-1.722 2.877-1.722 4.02 0 1.208.372 2.338 2.275 4.381zm14.846-5.524c0-1.747-.488-3.43-1.35-4.984-.372 1.028-.976 2.043-2.326 3.546l-7.61 8.286c-1.233 1.374-1.169 2.222-1.169 4.02v2.827l7.172-4.805c3.381-2.222 5.283-5.524 5.283-8.89" clip-rule="evenodd"/></svg>