<svg xmlns="http://www.w3.org/2000/svg" width="80" height="80" fill="none" viewBox="0 0 80 80"><rect width="79" height="79" x=".5" y=".5" fill="#fff" rx="7.5"/><rect width="79" height="79" x=".5" y=".5" stroke="#eee" rx="7.5"/><path fill="#e42126" fill-rule="evenodd" d="m56 38.879-1.337 1.19L56 41.27v9.826l-9.076 8.939H33.232L24 50.949v-9.534l1.493-1.346L24 38.732v-9.534l9.378-9.231h13.39L56 29.052zm-4.763 7.299L49.9 44.832l-2.976 2.985H33.232l-2.977-2.83-1.19 1.19 11.008 11.018zm-11.164-1.191 5.065-4.91-5.065-4.917-4.909 4.918zm11.164-11.026L40.073 22.943 29.064 33.961l1.191 1.337 3.123-3.123h13.39l3.132 2.977z" clip-rule="evenodd"/></svg>