<svg xmlns="http://www.w3.org/2000/svg" width="80" height="80" fill="none" viewBox="0 0 80 80"><rect width="80" height="80" fill="#ee4e2c" rx="8"/><path fill="#fff" fill-rule="evenodd" d="M24.722 28.122h31.471A3.82 3.82 0 0 1 60 31.928v22.018a3.82 3.82 0 0 1-3.807 3.806H23.807A3.82 3.82 0 0 1 20 53.946V26.747c0-.99.817-1.675 1.798-1.797l29.021-3.702a1.8 1.8 0 0 1 1.798 1.797v3.078H22.905c0 1.29.385 2 1.812 2zM42.37 52.248c-2.647.506-6.05-.376-7.9-2.366-.835-.896.512-2.252 1.353-1.346 1.243 1.342 3.464 1.966 5.275 1.924 2.31-.052 4.36-2.15 3.051-4.496-1.816-3.247-6.285-2.337-8.585-4.89-1.858-2.06-.976-5.298 1.207-6.73 2.276-1.496 6.205-1.44 8.078.71.807.92-.545 2.275-1.352 1.346-1.511-1.731-5.084-1.497-6.45.287-1.938 2.548.963 3.918 2.99 4.533 2.789.844 5.882 2.388 6.389 5.584.403 2.572-1.587 4.97-4.056 5.444" clip-rule="evenodd"/></svg>