<svg xmlns="http://www.w3.org/2000/svg" width="80" height="80" fill="none" viewBox="0 0 80 80"><rect width="80" height="80" fill="#0047ba" rx="8"/><path fill="#fff" d="M34.424 41.143h-2.79c-.82 0-1.88.584-2.183 1.36l.275-1.488h-3.412l-1.505 8.563h3.412l.947-5.422h3.674s-.466 2.686-.678 3.89c-.205 1.204.6 1.496 1.003 1.496h1.787l1.166-6.66c-.113-.956-.75-1.74-1.696-1.74m-10.561-.127-.643 3.676 2.593-3.676z"/><path fill="#ffcd00" d="M27.91 27.6H16.495L16 30.435h3.984l-1.596 9.148h3.44l1.597-9.147h3.991z"/><path fill="#ffcd00" d="m30.27 36.776.501-2.864h-3.059l-.501 2.864zm-4.818 2.807c-.947 0-1.583-.784-1.42-1.739l.883-5.008c.162-.954 1.074-1.731 2.02-1.731h5.595c.947 0 1.583.776 1.413 1.731l-.876 5.008c-.17.955-1.08 1.739-2.027 1.739zm22.522-2.807.501-2.864h4.43l.494-2.807h-5.701c-.947 0-1.858.776-2.028 1.731l-.876 5.008c-.162.955.474 1.739 1.42 1.739h5.546l.488-2.807zm-6.966 0h-3.75l.988-5.671h-2.988l-1.18 6.74c-.17.954.473 1.738 1.42 1.738h2.91c.947 0 1.717-.57 2.332-1.304 0 0 .332.983.812 1.204s1.943.17 1.943.17l1.498-8.54h-2.989zm21.547-5.628h-2.79c-.82 0-1.611.584-1.922 1.36l.805-4.601h-3.144l-2.041 11.676h3.15l.947-5.421h3.412s-.466 2.685-.678 3.89c-.212 1.196.6 1.488.996 1.488h1.52l1.165-6.66c.162-.955-.474-1.732-1.42-1.732M51.35 52.427c-1.271 0-2.133-1.054-1.907-2.337l1.18-6.732c.219-1.282 1.448-2.336 2.727-2.336h7.12c1.272 0 2.134 1.054 1.908 2.336l-1.173 6.732c-.226 1.283-1.448 2.337-2.727 2.337zm6.634-3.149.897-5.108H53.83l-.897 5.108zm-13.543 0h-5.05l.896-5.108h8.188l.537-3.148H39.8c-1.272 0-2.5 1.054-2.72 2.336L35.9 50.09c-.219 1.283.636 2.337 1.908 2.337h7.12c1.272 0 2.502-1.054 2.72-2.337l.721-4.132h-3.355z"/></svg>