<svg xmlns="http://www.w3.org/2000/svg" width="80" height="80" fill="none" viewBox="0 0 80 80"><rect width="79" height="79" x=".5" y=".5" fill="#fff" rx="7.5"/><rect width="79" height="79" x=".5" y=".5" stroke="#eee" rx="7.5"/><path fill="#ff7b00" d="M63.175 28.834H50.59c-.822 0-1.553.52-1.824 1.296l-1.972 5.662-.065.186-.045.128c-2.175 6.245-4.531 13.005-5.427 15.566-.104.319-.223.683-.368 1.056-.025.067-.15.383-.377.694a2.4 2.4 0 0 1-.389.414l-.02.016a1.6 1.6 0 0 1-.437.24l-.02.006h-.002l-.012.005q-.005 0-.008.003c-.162.054-.31.076-.431.083H54.32q.147 0 .29-.036c.368-.094 1.154-.435 1.486-1.65l7.858-22.574a.825.825 0 0 0-.779-1.095"/><path fill="#ff000f" d="m25.931 49.903.01-.028.03-.082.046-.133.064-.182.08-.227.094-.271.232-.66.135-.384.145-.416.157-.445.166-.472.174-.496.181-.518.188-.535.194-.552.198-.565.202-.575.205-.583.206-.588.207-.59.207-.59.206-.586.203-.58.2-.571.197-.56.192-.546.185-.53.18-.508.17-.488.162-.461.152-.434.142-.404.13-.37.117-.334.104-.296.089-.254.074-.21c.04-.114.075-.23.128-.34l.005-.005.002-.002.002-.002.003-.003c.01-.02.014-.038.026-.058.104-.229.379-.477.49-.512l-1.703-5.727a1.74 1.74 0 0 0-1.64-1.23H16.845a.846.846 0 0 0-.81 1.087l6.767 22.743c.28.807.886 1.227 1.506 1.258h.002c.645.027 1.303-.366 1.62-1.185"/><path fill="#aa0017" d="m32.21 32.959.002-.002-.006.004z"/><path fill="#aa0017" d="m36.906 50.992-.084-.283-.043-.145-2.9-9.744-2.028-6.813a.96.96 0 0 1 .056-.717 1 1 0 0 1 .092-.142q.007-.007.012-.016a1 1 0 0 1 .173-.157l.022-.014.006-.003c-.112.035-.387.282-.49.512l-.033.06-.005.01c-.053.109-.09.225-.13.34l-.073.21-.089.253-.104.296-.117.334-.13.37-.141.404-.153.434-.162.462-.17.487-.18.51-.185.528-.192.546-.196.56-.2.571-.204.58-.206.587-.206.59-.208.59-.206.587-.204.583-.202.575-.199.565-.194.552-.187.536-.182.517-.174.496-.166.472-.156.446-.146.415-.135.384-.122.349-.11.311-.095.27-.08.228q-.03.092-.063.182l-.047.134-.028.082-.01.028c-.318.819-.976 1.212-1.62 1.184h-.002l-.035.002h12.66z"/><path fill="#ffcd00" d="M46.794 35.792q-.164-.587-.32-1.175c-.085-.322-.185-.634-.36-.921a1.9 1.9 0 0 0-.69-.686 2 2 0 0 0-.252-.114 2 2 0 0 0-.513-.083H32.741a1 1 0 0 0-.53.146l-.005.002-.022.014a1 1 0 0 0-.172.157l-.013.016a1 1 0 0 0-.091.142.96.96 0 0 0-.057.716l2.028 6.814 2.9 9.744.145.487.552 1.92c.035.102.327.894 1.13 1.145a1.7 1.7 0 0 0 1.04-.018l.02-.006a1.6 1.6 0 0 0 .436-.24 2 2 0 0 0 .294-.283q.058-.067.116-.147c.228-.311.352-.627.378-.694a21 21 0 0 0 .367-1.056q.085-.264.159-.479l.375-1.073.471-1.35.543-1.555.59-1.688.61-1.75.608-1.74.58-1.66.526-1.507.448-1.283.517-1.48.045-.129z"/></svg>