<svg xmlns="http://www.w3.org/2000/svg" width="80" height="80" fill="none" viewBox="0 0 80 80"><rect width="80" height="80" fill="#0066b3" rx="8"/><path fill="#fff" fill-rule="evenodd" d="M27.679 37.859c-.582 3.052-1.304 7.702-3.626 11.697-1.087 1.962-2.102 2.98-3.987 2.98-1.812-.075-2.9-1.09-3.99-2.98-2.318-3.995-3.333-8.645-4.06-11.697-.071-.51.073-1.015.727-1.015h1.885c.654 0 .798.216 1.015 1.087.653 2.98 1.812 7.63 3.48 10.1 0 0 .434.655.943.655.506 0 .87-.654.87-.654 1.665-2.471 2.463-7.12 3.19-10.101.216-.87.436-1.087 1.014-1.087h1.885c.654 0 .798.581.654 1.015m5.8-.29v13.949a.65.65 0 0 1-.655.654h-2.101a.65.65 0 0 1-.654-.654v-14.02c0-.365.293-.654.654-.654h2.101c.365 0 .654.36.654.726m16.46 10.17c0 3.125-2.25 4.505-5.367 4.505h-7.324c-.433 0-.726-.217-.726-.87v-13.66c0-.51.293-.798.798-.798h6.526c3.048 0 5.15 1.015 5.15 3.703 0 1.384-.87 2.543-1.958 3.124-.072.073-.072.073-.216.145 1.957.437 3.188 1.89 3.116 3.851M39.93 42.873h3.554c1.159 0 2.03-.582 2.03-1.745 0-1.087-.799-1.669-2.175-1.669H39.93zm6.526 4.65c0-1.453-1.087-2.107-2.683-2.107H39.93v4.14h3.843c1.307 0 2.683-.437 2.683-2.034" clip-rule="evenodd"/><path fill="#fcb813" d="M63.302 27.2c-1.488 0-2.098.39-2.98 1.22l-1.877 2.046-1.825-2.046c-.826-.83-1.436-1.22-2.984-1.22H51.43s3.421 4.26 3.866 4.758c.77.83 1.215 1.22 2.262 1.22h1.825c.995 0 1.488-.39 2.262-1.22.441-.441 3.866-4.758 3.866-4.758z"/><path fill="#f37920" d="M62.086 32.788c-1.046.225-1.656.446-2.206 1.384l-.445.775-.493.722c-.553.886-.389 1.492-.056 2.599.22.61 2.21 5.7 2.21 5.7l1.047-1.881c.774-1.272.774-2.046.44-3.21l-.825-2.599 2.707-.61c1.159-.276 1.764-.665 2.482-1.993l1.051-1.881c.112 0-5.302.83-5.912.994"/><path fill="#f6921e" d="m57.891 35.669-.44-.775-.442-.774c-.554-.886-1.163-1.163-2.21-1.384-.61-.168-6.076-.999-6.076-.999l1.05 1.882c.77 1.275 1.38 1.66 2.483 1.993l2.82.61-.83 2.712c-.277 1.107-.277 1.881.44 3.153l1.051 1.881s1.99-5.09 2.21-5.7c.385-1.107.498-1.713-.056-2.6"/></svg>