<svg xmlns="http://www.w3.org/2000/svg" width="80" height="80" fill="none" viewBox="0 0 80 80"><rect width="80" height="80" fill="#ef0032" rx="8"/><path fill="#fff" d="M21.607 34s-.632.045-.633.625l-.002 1.947s.494-.66 1.19-.66h.828s.677-.041.677-.604v-.696s0-.612-.692-.612zm17.752.448c-.753 0-.753.679-.753.679v1.542H36.94v1.037s0 .666.753.666h.913v5.17c.05 1.694 1.838 2.677 3.368 2.677h2.036c.555 0 .642-.765.642-.765v-.987c-1.012.197-1.839-.013-1.839-.013-1.567-.456-1.517-1.64-1.517-1.64v-4.442H46.6v5.17c.05 1.694 1.839 2.677 3.368 2.677h2.036c.555 0 .642-.765.642-.765v-.987c-1.012.197-1.839-.013-1.839-.013-1.566-.456-1.517-1.64-1.517-1.64v-4.442h2.58c.753 0 .739-.611.739-.611v-1.092h-3.32v-1.468c0-.71-.64-.753-.64-.753h-1.296c-.753 0-.753.679-.753.679v1.542h-5.305v-1.468c0-.71-.642-.753-.642-.753zm27.348 0c-.753 0-.753.679-.753.679v8.414c.05 1.695 1.839 2.678 3.369 2.678h2.035c.556 0 .642-.765.642-.765v-.987c-1.012.197-1.838-.013-1.838-.013-1.567-.456-1.518-1.64-1.518-1.64V35.2c0-.71-.641-.753-.641-.753zm-36.403 2.154c-.443 0-2.307.056-3.736.877-.938.54-1.538 1.441-1.564 3.328 0 0 .006 2.796.4 3.462 0 0 .464.951 1.5 1.525.447.248 1.347.425 2.017.425h6.576s.642-.062.642-.852v-.863h-6.54s-1.751-.05-1.788-2.036l-.004-.284h7.406s1.296-.098 1.296-1.776c0 0 .21-1.728-1.135-2.801s-3.503-.972-4.972-1.005zm28.106 0c-.443 0-2.307.056-3.736.877-.938.54-1.538 1.441-1.564 3.328 0 0 .006 2.796.4 3.462 0 0 .464.951 1.5 1.525.447.248 1.347.425 2.017.425h6.576s.642-.062.642-.852v-.863h-6.54s-1.751-.05-1.788-2.036l-.004-.284h7.406s1.296-.098 1.296-1.776c0 0 .21-1.728-1.135-2.801s-3.503-.972-4.972-1.005zm-50.41.1 4.59 8.86s.245.75 1.606.75h.49s1.01.045 1.5-.827c.489-.872 4.59-8.782 4.59-8.782h-2.097s-.795.122-1.3 1.162-2.83 5.983-2.83 5.983-.184.275-.322 0c-.138-.276-3.03-6.304-3.03-6.304s-.52-.841-1.101-.841zm13.632 0s-.658 0-.658.75v8.125s.046.642.704.642h1.469s.52-.03.52-.826v-8.032s-.107-.658-.627-.658zm9.114 1.593c.77 0 1.909.112 2.518.706 0 0 .456.37.456.938 0 .58-.37.58-.48.58h-4.134s-.671-.058-1.3.54c.013-.818.054-1.071.054-1.071s-.013-1.431 2.097-1.653c0 0 .328-.04.79-.04m28.107 0c.768 0 1.908.112 2.517.706 0 0 .457.37.457.938 0 .58-.37.58-.482.58h-4.133s-.671-.058-1.3.54c.013-.818.054-1.071.054-1.071s-.013-1.431 2.097-1.653c0 0 .328-.04.79-.04"/></svg>