<svg xmlns="http://www.w3.org/2000/svg" width="80" height="80" fill="none" viewBox="0 0 80 80"><rect width="79" height="79" x=".5" y=".5" fill="#fff" rx="7.5"/><rect width="79" height="79" x=".5" y=".5" stroke="#eee" rx="7.5"/><path fill="#005992" d="M40.01 34.155h-4.06c-2.12 0-1.766-.212-1.766 1.731v7.63c0 .706-.142 1.094-.919 1.2-3.638.46-7.064 1.731-10.314 3.32-.988.495-1.2.177-1.554-.741-1.801-4.698-1.872-9.431-.14-14.129 2.083-5.616 5.968-9.537 11.479-11.797 7.841-3.18 17.449-.671 22.711 5.97 4.804 6.04 5.687 12.715 3.215 19.92-.354 1.025-.742 1.166-1.696.707-3.25-1.554-6.605-2.826-10.208-3.285-.777-.106-.883-.53-.883-1.2.036-2.756 0-5.511.036-8.266 0-.812-.212-1.13-1.06-1.095-1.625.07-3.214 0-4.84 0z"/><path fill="#d61549" d="M39.905 60.01c-6.676-.247-12.045-2.966-16.107-8.3-.388-.53-.494-.812.248-1.166 6.746-3.355 13.81-4.45 21.228-3.355 3.673.53 7.17 1.59 10.49 3.25.813.423.919.706.353 1.483-4.132 5.263-9.536 7.912-16.212 8.124z"/></svg>