<svg xmlns="http://www.w3.org/2000/svg" width="80" height="80" fill="none" viewBox="0 0 80 80"><rect width="80" height="80" fill="#0068ff" rx="8"/><path fill="#fff" d="M18.256 46.302c2.779 0 5.391-.02 7.988 0 1.452.02 2.242.627 2.393 1.785.167 1.451-.679 2.427-2.262 2.443-2.982.035-5.943.02-8.925.02-.865 0-1.71.035-2.576-.02-1.068-.056-2.116-.278-2.632-1.38-.516-1.103-.147-2.094.551-2.999 2.835-3.6 5.685-7.226 8.54-10.827.167-.222.33-.44.496-.642-.183-.314-.44-.167-.663-.183-1.989-.02-3.994 0-5.979-.02-.46 0-.92-.055-1.361-.146a1.933 1.933 0 0 1-1.453-2.316 1.95 1.95 0 0 1 1.417-1.436c.44-.111.901-.167 1.362-.167 3.275-.02 6.57-.02 9.845 0 .587-.02 1.16.056 1.73.203 1.251.424 1.787 1.582 1.287 2.796-.44 1.047-1.14 1.947-1.842 2.847q-3.614 4.604-7.233 9.154c-.206.245-.39.483-.683.888"/><path fill="#fff" d="M39.602 36.633c.44-.571.901-1.103 1.655-1.25 1.453-.293 2.815.643 2.835 2.114.056 3.677.036 7.353 0 11.03 0 .956-.627 1.8-1.529 2.078a2.235 2.235 0 0 1-2.576-.718c-.314-.385-.44-.46-.881-.11-1.675 1.36-3.57 1.597-5.614.935-3.275-1.067-4.617-3.62-4.986-6.726-.385-3.363.735-6.23 3.756-7.996 2.5-1.487 5.038-1.36 7.34.643m-6.515 6.71a4 4 0 0 0 .775 2.225c.992 1.325 2.89 1.599 4.231.607q.334-.25.608-.607c1.032-1.396 1.032-3.696 0-5.092a2.77 2.77 0 0 0-2.191-1.158c-2.025-.127-3.442 1.436-3.423 4.025m19.266.111c-.147-4.723 2.962-8.253 7.38-8.384 4.693-.146 8.115 2.999 8.262 7.591.146 4.652-2.704 7.94-7.103 8.384-4.803.48-8.614-2.994-8.539-7.59m4.617-.44a4.07 4.07 0 0 0 .79 2.574 3 3 0 0 0 4.232.551c.203-.146.37-.329.532-.515 1.068-1.396 1.068-3.752.02-5.148a2.83 2.83 0 0 0-2.191-1.158c-1.982-.111-3.383 1.396-3.383 3.696m-6.236-3.216c0 2.847.02 5.699 0 8.546a2.39 2.39 0 0 1-2.319 2.428c-.222 0-.46-.02-.683-.076-.92-.238-1.62-1.213-1.62-2.371V33.71c0-.865-.02-1.71 0-2.574.02-1.416.922-2.336 2.283-2.336 1.398-.02 2.338.9 2.338 2.372.02 2.871 0 5.758 0 8.626"/></svg>