<svg width="228" height="226" viewBox="0 0 228 226" fill="none" xmlns="http://www.w3.org/2000/svg">
<g clip-path="url(#clip0_1843_4847)">
<path d="M35 0H225V100H35" fill="#B22234"/>
<path d="M35 11.5381H225H35ZM225 26.9227H35H225ZM35 42.3073H225H35ZM225 57.6919H35H225ZM35 73.0765H225H35ZM225 88.4612H35H225Z" fill="black"/>
<path d="M224.998 84.7117V92.2109H35V84.7117H224.998ZM224.998 69.3268V76.826H35V69.3268H224.998ZM224.998 53.9419V61.4411H35V53.9419H224.998ZM224.998 38.557V46.0562H35V38.557H224.998ZM224.998 23.172V30.6753H35V23.172H224.998ZM224.998 7.78711V15.2904H35V7.78711H224.998Z" fill="white"/>
<path d="M35 0H111V53.8462H35" fill="#3C3B6E"/>
<path d="M60.3335 7.69238L62.1421 13.2586L57.4072 9.81849H63.2599L58.525 13.2586L60.3335 7.69238Z" fill="white"/>
<path d="M60.3335 18.4619L62.1421 24.0281L57.4072 20.588H63.2599L58.525 24.0281L60.3335 18.4619Z" fill="white"/>
<path d="M60.3335 29.2305L62.1421 34.7967L57.4072 31.3566H63.2599L58.525 34.7967L60.3335 29.2305Z" fill="white"/>
<path d="M60.3335 40L62.1421 45.5662L57.4072 42.1261H63.2599L58.525 45.5662L60.3335 40Z" fill="white"/>
<path d="M66.6665 2.30762L68.4751 7.87382L63.7402 4.43372H69.5929L64.858 7.87382L66.6665 2.30762Z" fill="white"/>
<path d="M66.6665 13.0771L68.4751 18.6434L63.7402 15.2033H69.5929L64.858 18.6434L66.6665 13.0771Z" fill="white"/>
<path d="M66.6665 23.8457L68.4751 29.4119L63.7402 25.9718H69.5929L64.858 29.4119L66.6665 23.8457Z" fill="white"/>
<path d="M66.6665 34.6152L68.4751 40.1814L63.7402 36.7413H69.5929L64.858 40.1814L66.6665 34.6152Z" fill="white"/>
<path d="M66.6665 45.3848L68.4751 50.951L63.7402 47.5109H69.5929L64.858 50.951L66.6665 45.3848Z" fill="white"/>
<path d="M72.9996 7.69238L74.8081 13.2586L70.0732 9.81849H75.9259L71.191 13.2586L72.9996 7.69238Z" fill="white"/>
<path d="M72.9996 18.4619L74.8081 24.0281L70.0732 20.588H75.9259L71.191 24.0281L72.9996 18.4619Z" fill="white"/>
<path d="M72.9996 29.2305L74.8081 34.7967L70.0732 31.3566H75.9259L71.191 34.7967L72.9996 29.2305Z" fill="white"/>
<path d="M72.9996 40L74.8081 45.5662L70.0732 42.1261H75.9259L71.191 45.5662L72.9996 40Z" fill="white"/>
<path d="M79.3335 2.30762L81.1421 7.87382L76.4072 4.43372H82.2599L77.525 7.87382L79.3335 2.30762Z" fill="white"/>
<path d="M79.3335 13.0771L81.1421 18.6434L76.4072 15.2033H82.2599L77.525 18.6434L79.3335 13.0771Z" fill="white"/>
<path d="M79.3335 23.8457L81.1421 29.4119L76.4072 25.9718H82.2599L77.525 29.4119L79.3335 23.8457Z" fill="white"/>
<path d="M79.3335 34.6152L81.1421 40.1814L76.4072 36.7413H82.2599L77.525 40.1814L79.3335 34.6152Z" fill="white"/>
<path d="M79.3335 45.3848L81.1421 50.951L76.4072 47.5109H82.2599L77.525 50.951L79.3335 45.3848Z" fill="white"/>
<path d="M85.6665 7.69238L87.4751 13.2586L82.7402 9.81849H88.5929L83.858 13.2586L85.6665 7.69238Z" fill="white"/>
<path d="M85.6665 18.4619L87.4751 24.0281L82.7402 20.588H88.5929L83.858 24.0281L85.6665 18.4619Z" fill="white"/>
<path d="M85.6665 29.2305L87.4751 34.7967L82.7402 31.3566H88.5929L83.858 34.7967L85.6665 29.2305Z" fill="white"/>
<path d="M85.6665 40L87.4751 45.5662L82.7402 42.1261H88.5929L83.858 45.5662L85.6665 40Z" fill="white"/>
<path d="M92.0005 2.30762L93.8091 7.87382L89.0742 4.43372H94.9269L90.192 7.87382L92.0005 2.30762Z" fill="white"/>
<path d="M92.0005 13.0771L93.8091 18.6434L89.0742 15.2033H94.9269L90.192 18.6434L92.0005 13.0771Z" fill="white"/>
<path d="M92.0005 23.8457L93.8091 29.4119L89.0742 25.9718H94.9269L90.192 29.4119L92.0005 23.8457Z" fill="white"/>
<path d="M92.0005 34.6152L93.8091 40.1814L89.0742 36.7413H94.9269L90.192 40.1814L92.0005 34.6152Z" fill="white"/>
<path d="M92.0005 45.3848L93.8091 50.951L89.0742 47.5109H94.9269L90.192 50.951L92.0005 45.3848Z" fill="white"/>
<path d="M98.3335 7.69238L100.142 13.2586L95.4072 9.81849H101.26L96.525 13.2586L98.3335 7.69238Z" fill="white"/>
<path d="M98.3335 18.4619L100.142 24.0281L95.4072 20.588H101.26L96.525 24.0281L98.3335 18.4619Z" fill="white"/>
<path d="M98.3335 29.2305L100.142 34.7967L95.4072 31.3566H101.26L96.525 34.7967L98.3335 29.2305Z" fill="white"/>
<path d="M98.3335 40L100.142 45.5662L95.4072 42.1261H101.26L96.525 45.5662L98.3335 40Z" fill="white"/>
<path d="M104.667 2.30762L106.475 7.87382L101.74 4.43372H107.593L102.858 7.87382L104.667 2.30762Z" fill="white"/>
<path d="M104.667 13.0771L106.475 18.6434L101.74 15.2033H107.593L102.858 18.6434L104.667 13.0771Z" fill="white"/>
<path d="M104.667 23.8457L106.475 29.4119L101.74 25.9718H107.593L102.858 29.4119L104.667 23.8457Z" fill="white"/>
<path d="M104.667 34.6152L106.475 40.1814L101.74 36.7413H107.593L102.858 40.1814L104.667 34.6152Z" fill="white"/>
<path d="M104.667 45.3848L106.475 50.951L101.74 47.5109H107.593L102.858 50.951L104.667 45.3848Z" fill="white"/>
</g>
<rect x="60.5" y="0.5" width="99" height="99" rx="49.5" stroke="#EAECF0"/>
<g clip-path="url(#clip1_1843_4847)">
<path d="M-25 120H125V220H-25V120Z" fill="white"/>
<path d="M-25 120H125V153.333H-25V120Z" fill="#FF6820"/>
<path d="M-25 186.667H125V220H-25V186.667Z" fill="#046A38"/>
<path d="M49.9997 185.416C58.5141 185.416 65.4163 178.514 65.4163 170C65.4163 161.485 58.5141 154.583 49.9997 154.583C41.4853 154.583 34.583 161.485 34.583 170C34.583 178.514 41.4853 185.416 49.9997 185.416Z" fill="#07038D"/>
<path d="M50.0003 183.334C57.3641 183.334 63.3337 177.364 63.3337 170C63.3337 162.637 57.3641 156.667 50.0003 156.667C42.6365 156.667 36.667 162.637 36.667 170C36.667 177.364 42.6365 183.334 50.0003 183.334Z" fill="white"/>
<path d="M49.9997 172.666C51.4724 172.666 52.6663 171.472 52.6663 170C52.6663 168.527 51.4724 167.333 49.9997 167.333C48.5269 167.333 47.333 168.527 47.333 170C47.333 171.472 48.5269 172.666 49.9997 172.666Z" fill="#07038D"/>
<path d="M50 156.666L50.5 164.689L50 168.663L49.5 164.689L50 156.666Z" fill="#07038D"/>
<path d="M51.6643 157.359C51.9838 157.401 52.2768 157.176 52.3188 156.857C52.3609 156.537 52.136 156.244 51.8166 156.202C51.4972 156.16 51.2042 156.385 51.1621 156.704C51.1201 157.024 51.3449 157.317 51.6643 157.359Z" fill="#07038D"/>
<path d="M50 183.333L49.5 175.31L50 171.336L50.5 175.31L50 183.333Z" fill="#07038D"/>
<path d="M48.3357 182.64C48.0162 182.598 47.7232 182.823 47.6812 183.142C47.6391 183.462 47.864 183.755 48.1834 183.797C48.5028 183.839 48.7958 183.614 48.8379 183.295C48.8799 182.975 48.6551 182.682 48.3357 182.64Z" fill="#07038D"/>
<path d="M53.4488 157.115L51.8552 164.994L50.3438 168.703L50.8892 164.735L53.4488 157.115Z" fill="#07038D"/>
<path d="M54.8766 158.214C55.1743 158.337 55.5155 158.196 55.6388 157.898C55.7621 157.601 55.6208 157.26 55.3231 157.136C55.0255 157.013 54.6842 157.154 54.5609 157.452C54.4377 157.75 54.579 158.091 54.8766 158.214Z" fill="#07038D"/>
<path d="M46.5463 182.873L48.14 174.993L49.6513 171.285L49.1059 175.252L46.5463 182.873Z" fill="#07038D"/>
<path d="M45.1185 181.773C44.8208 181.65 44.4796 181.791 44.3563 182.089C44.233 182.386 44.3744 182.728 44.672 182.851C44.9697 182.974 45.3109 182.833 45.4342 182.535C45.5575 182.238 45.4161 181.896 45.1185 181.773Z" fill="#07038D"/>
<path d="M56.6684 158.453L53.0897 165.652L50.67 168.843L52.2237 165.152L56.6684 158.453Z" fill="#07038D"/>
<path d="M57.7633 159.885C58.0189 160.081 58.3851 160.033 58.5812 159.778C58.7773 159.522 58.7291 159.156 58.4735 158.96C58.2179 158.763 57.8518 158.812 57.6556 159.067C57.4595 159.323 57.5077 159.689 57.7633 159.885Z" fill="#07038D"/>
<path d="M43.3346 181.547L46.9132 174.348L49.3329 171.157L47.7792 174.848L43.3346 181.547Z" fill="#07038D"/>
<path d="M42.2396 180.115C41.984 179.919 41.6178 179.967 41.4217 180.222C41.2256 180.478 41.2738 180.844 41.5294 181.04C41.785 181.237 42.1512 181.188 42.3473 180.933C42.5434 180.677 42.4952 180.311 42.2396 180.115Z" fill="#07038D"/>
<path d="M59.4287 160.571L54.1089 166.598L50.9458 169.054L53.4018 165.891L59.4287 160.571Z" fill="#07038D"/>
<path d="M60.1161 162.238C60.3122 162.494 60.6784 162.542 60.934 162.346C61.1895 162.15 61.2378 161.784 61.0416 161.528C60.8455 161.273 60.4793 161.224 60.2237 161.421C59.9681 161.617 59.9199 161.983 60.1161 162.238Z" fill="#07038D"/>
<path d="M40.5722 179.428L45.892 173.401L49.0552 170.945L46.5991 174.108L40.5722 179.428Z" fill="#07038D"/>
<path d="M39.8849 177.762C39.6888 177.506 39.3226 177.458 39.067 177.654C38.8114 177.85 38.7632 178.216 38.9593 178.472C39.1555 178.727 39.5217 178.776 39.7772 178.579C40.0328 178.383 40.081 178.017 39.8849 177.762Z" fill="#07038D"/>
<path d="M61.5469 163.333L54.8485 167.778L51.1575 169.332L54.3485 166.912L61.5469 163.333Z" fill="#07038D"/>
<path d="M61.7792 165.12C61.9024 165.418 62.2437 165.559 62.5413 165.436C62.839 165.313 62.9803 164.971 62.857 164.674C62.7337 164.376 62.3925 164.235 62.0949 164.358C61.7972 164.481 61.6559 164.823 61.7792 165.12Z" fill="#07038D"/>
<path d="M38.4531 176.668L45.1515 172.223L48.8425 170.669L45.6515 173.089L38.4531 176.668Z" fill="#07038D"/>
<path d="M38.2199 174.88C38.0966 174.582 37.7553 174.441 37.4577 174.564C37.1601 174.687 37.0187 175.029 37.142 175.326C37.2653 175.624 37.6065 175.765 37.9042 175.642C38.2018 175.519 38.3431 175.177 38.2199 174.88Z" fill="#07038D"/>
<path d="M62.8794 166.548L55.2589 169.108L51.2915 169.653L55.0001 168.142L62.8794 166.548Z" fill="#07038D"/>
<path d="M62.6411 168.335C62.6832 168.655 62.9762 168.879 63.2956 168.837C63.615 168.795 63.8399 168.502 63.7978 168.183C63.7558 167.863 63.4627 167.639 63.1433 167.681C62.8239 167.723 62.5991 168.016 62.6411 168.335Z" fill="#07038D"/>
<path d="M37.1206 173.451L44.7411 170.891L48.7085 170.346L44.9999 171.857L37.1206 173.451Z" fill="#07038D"/>
<path d="M37.3589 171.664C37.3168 171.344 37.0238 171.12 36.7044 171.162C36.385 171.204 36.1601 171.497 36.2022 171.816C36.2442 172.136 36.5373 172.36 36.8567 172.318C37.1761 172.276 37.4009 171.983 37.3589 171.664Z" fill="#07038D"/>
<path d="M63.333 170L55.3097 170.5L51.3364 170L55.3097 169.5L63.333 170Z" fill="#07038D"/>
<path d="M62.6402 171.664C62.5982 171.984 62.823 172.277 63.1424 172.319C63.4618 172.361 63.7549 172.136 63.7969 171.817C63.839 171.497 63.6141 171.204 63.2947 171.162C62.9753 171.12 62.6823 171.345 62.6402 171.664Z" fill="#07038D"/>
<path d="M36.666 170.001L44.6893 169.501L48.6627 170.001L44.6893 170.501L36.666 170.001Z" fill="#07038D"/>
<path d="M37.3588 168.337C37.4009 168.017 37.176 167.724 36.8566 167.682C36.5372 167.64 36.2442 167.865 36.2021 168.184C36.1601 168.504 36.3849 168.797 36.7043 168.839C37.0237 168.881 37.3168 168.656 37.3588 168.337Z" fill="#07038D"/>
<path d="M62.8794 173.451L55 171.857L51.2915 170.346L55.2588 170.891L62.8794 173.451Z" fill="#07038D"/>
<path d="M61.78 174.88C61.6567 175.177 61.798 175.518 62.0957 175.642C62.3933 175.765 62.7345 175.624 62.8578 175.326C62.9811 175.028 62.8398 174.687 62.5421 174.564C62.2445 174.441 61.9032 174.582 61.78 174.88Z" fill="#07038D"/>
<path d="M37.1206 166.549L45 168.143L48.7085 169.654L44.7412 169.109L37.1206 166.549Z" fill="#07038D"/>
<path d="M38.22 165.12C38.3433 164.823 38.202 164.482 37.9043 164.358C37.6067 164.235 37.2655 164.376 37.1422 164.674C37.0189 164.972 37.1602 165.313 37.4579 165.436C37.7555 165.559 38.0968 165.418 38.22 165.12Z" fill="#07038D"/>
<path d="M61.5479 176.665L54.3494 173.087L51.1584 170.667L54.8494 172.221L61.5479 176.665Z" fill="#07038D"/>
<path d="M60.1158 177.76C59.9197 178.016 59.9679 178.382 60.2235 178.578C60.4791 178.774 60.8453 178.726 61.0414 178.471C61.2375 178.215 61.1893 177.849 60.9337 177.653C60.6781 177.457 60.3119 177.505 60.1158 177.76Z" fill="#07038D"/>
<path d="M38.4531 163.333L45.6515 166.911L48.8425 169.331L45.1515 167.777L38.4531 163.333Z" fill="#07038D"/>
<path d="M39.8852 162.238C40.0813 161.982 40.0331 161.616 39.7775 161.42C39.5219 161.224 39.1557 161.272 38.9596 161.527C38.7635 161.783 38.8117 162.149 39.0673 162.345C39.3229 162.541 39.6891 162.493 39.8852 162.238Z" fill="#07038D"/>
<path d="M59.4296 179.428L53.4027 174.108L50.9467 170.945L54.1099 173.401L59.4296 179.428Z" fill="#07038D"/>
<path d="M57.7625 180.115C57.5069 180.311 57.4587 180.677 57.6549 180.933C57.851 181.189 58.2172 181.237 58.4728 181.041C58.7283 180.845 58.7766 180.478 58.5804 180.223C58.3843 179.967 58.0181 179.919 57.7625 180.115Z" fill="#07038D"/>
<path d="M40.5723 160.572L46.5992 165.892L49.0552 169.055L45.8921 166.599L40.5723 160.572Z" fill="#07038D"/>
<path d="M42.2394 159.885C42.495 159.689 42.5432 159.323 42.3471 159.067C42.151 158.811 41.7848 158.763 41.5292 158.959C41.2736 159.155 41.2254 159.522 41.4215 159.777C41.6176 160.033 41.9838 160.081 42.2394 159.885Z" fill="#07038D"/>
<path d="M56.6666 181.547L52.2219 174.848L50.6683 171.157L53.0879 174.348L56.6666 181.547Z" fill="#07038D"/>
<path d="M54.8789 181.779C54.5812 181.902 54.4399 182.244 54.5632 182.541C54.6865 182.839 55.0277 182.98 55.3253 182.857C55.623 182.734 55.7643 182.393 55.641 182.095C55.5177 181.797 55.1765 181.656 54.8789 181.779Z" fill="#07038D"/>
<path d="M43.3334 158.453L47.7781 165.152L49.3317 168.843L46.9121 165.652L43.3334 158.453Z" fill="#07038D"/>
<path d="M45.1202 158.221C45.4178 158.098 45.5591 157.756 45.4359 157.459C45.3126 157.161 44.9713 157.02 44.6737 157.143C44.3761 157.266 44.2347 157.607 44.358 157.905C44.4813 158.203 44.8225 158.344 45.1202 158.221Z" fill="#07038D"/>
<path d="M53.4506 182.879L50.8911 175.259L50.3457 171.292L51.857 175L53.4506 182.879Z" fill="#07038D"/>
<path d="M51.6639 182.641C51.3445 182.683 51.1197 182.976 51.1617 183.296C51.2038 183.615 51.4968 183.84 51.8162 183.798C52.1356 183.756 52.3604 183.463 52.3184 183.143C52.2763 182.824 51.9833 182.599 51.6639 182.641Z" fill="#07038D"/>
<path d="M46.5484 157.122L49.1079 164.742L49.6534 168.709L48.142 165.001L46.5484 157.122Z" fill="#07038D"/>
<path d="M48.3351 157.359C48.6545 157.317 48.8794 157.024 48.8373 156.704C48.7953 156.385 48.5022 156.16 48.1828 156.202C47.8634 156.244 47.6386 156.537 47.6806 156.857C47.7227 157.176 48.0157 157.401 48.3351 157.359Z" fill="#07038D"/>
</g>
<g clip-path="url(#clip2_1843_4847)">
<path d="M245 220L95 220V120L245 120V220Z" fill="#FF0000"/>
<path d="M170 200L187.65 145.75L141.45 179.25H198.55L152.35 145.75L170 200Z" fill="#FFEB00"/>
</g>
<rect x="219.5" y="219.5" width="99" height="99" rx="49.5" transform="rotate(-180 219.5 219.5)" stroke="#EAECF0"/>
<g clip-path="url(#clip3_1843_4847)">
<path d="M110 120H310V170L141.111 218.889L110 120Z" fill="#0038A8"/>
<path d="M141.111 170H310V220H110L141.111 170Z" fill="#CE1126"/>
<path d="M196.602 170L110 220V120L196.602 170Z" fill="white"/>
<path d="M141.111 180C146.634 180 151.111 175.523 151.111 170C151.111 164.477 146.634 160 141.111 160C135.588 160 131.111 164.477 131.111 170C131.111 175.523 135.588 180 141.111 180Z" fill="#FCD116"/>
<path d="M141.111 170L137.596 152.323L138.646 151.272L141.111 170ZM141.111 170L139.812 150.188L141.111 148.889L142.41 150.188L141.111 170ZM141.111 170L143.577 151.272L144.627 152.323L141.111 170Z" fill="#FCD116"/>
<path d="M141.111 170L144.627 187.677L143.577 188.728L141.111 170ZM141.111 170L142.41 189.812L141.111 191.111L139.813 189.812L141.111 170ZM141.111 170L138.646 188.728L137.596 187.677L141.111 170Z" fill="#FCD116"/>
<path d="M141.112 170L158.788 166.484L159.839 167.534L141.112 170ZM141.112 170L160.924 168.701L162.223 170L160.924 171.299L141.112 170ZM141.112 170L159.839 172.465L158.788 173.515L141.112 170Z" fill="#FCD116"/>
<path d="M141.111 170L123.434 173.516L122.383 172.466L141.111 170ZM141.111 170L121.299 171.299L120 170L121.299 168.701L141.111 170ZM141.111 170L122.383 167.535L123.434 166.485L141.111 170Z" fill="#FCD116"/>
<path d="M141.111 170L151.124 155.014L152.61 155.014L141.111 170ZM141.111 170L154.202 155.072L156.039 155.072L156.039 156.909L141.111 170ZM141.111 170L156.097 158.5L156.096 159.986L141.111 170Z" fill="#FCD116"/>
<path d="M141.111 169.999L131.097 184.985L129.612 184.985L141.111 169.999ZM141.111 169.999L128.02 184.927L126.183 184.927L126.183 183.09L141.111 169.999ZM141.111 169.999L126.125 181.499L126.126 180.013L141.111 169.999Z" fill="#FCD116"/>
<path d="M141.111 169.999L156.096 180.013L156.097 181.499L141.111 169.999ZM141.111 169.999L156.039 183.09L156.039 184.927L154.202 184.927L141.111 169.999ZM141.111 169.999L152.61 184.985L151.124 184.985L141.111 169.999Z" fill="#FCD116"/>
<path d="M141.11 170L126.125 159.986L126.124 158.5L141.11 170ZM141.11 170L126.182 156.909L126.182 155.072L128.019 155.072L141.11 170ZM141.11 170L129.611 155.014L131.097 155.014L141.11 170Z" fill="#FCD116"/>
<path d="M186.602 170L182.844 171.307L182.763 175.283L180.36 172.113L176.552 173.266L178.824 170L176.552 166.735L180.36 167.887L182.763 164.717L182.844 168.693L186.602 170Z" fill="#FCD116"/>
<path d="M115 211.339L115.747 207.432L112.344 205.373L116.291 204.877L117.197 201.003L118.889 204.603L122.853 204.268L119.951 206.99L121.495 210.656L118.011 208.738L115 211.339Z" fill="#FCD116"/>
<path d="M115.001 128.661L118.011 131.262L121.496 129.344L119.952 133.01L122.854 135.731L118.89 135.396L117.198 138.997L116.292 135.123L112.345 134.627L115.748 132.568L115.001 128.661Z" fill="#FCD116"/>
</g>
<rect x="120.5" y="120.5" width="99" height="99" rx="49.5" stroke="#EAECF0"/>
<rect x="188.5" y="184.5" width="39" height="39" rx="19.5" fill="white"/>
<rect x="188.5" y="184.5" width="39" height="39" rx="19.5" stroke="#EAECF0"/>
<path d="M205.844 204C205.844 205.296 206.891 206.343 208.188 206.343C209.484 206.343 210.531 205.296 210.531 204C210.531 203.163 210.086 202.389 209.359 201.97C208.633 201.55 207.742 201.55 207.016 201.97C206.289 202.389 205.844 203.163 205.844 204ZM198.812 204C198.812 205.296 199.86 206.343 201.156 206.343C202.452 206.343 203.5 205.296 203.5 204C203.5 203.163 203.055 202.389 202.328 201.97C201.602 201.55 200.711 201.55 199.984 201.97C199.258 202.389 198.812 203.163 198.812 204ZM212.875 204C212.875 205.296 213.923 206.343 215.219 206.343C216.515 206.343 217.562 205.296 217.562 204C217.562 203.163 217.117 202.389 216.391 201.97C215.664 201.55 214.773 201.55 214.047 201.97C213.32 202.389 212.875 203.163 212.875 204Z" fill="#2B2B2B"/>
<defs>
<clipPath id="clip0_1843_4847">
<rect x="60" width="100" height="100" rx="50" fill="white"/>
</clipPath>
<clipPath id="clip1_1843_4847">
<rect y="120" width="100" height="100" rx="50" fill="white"/>
</clipPath>
<clipPath id="clip2_1843_4847">
<rect x="220" y="220" width="100" height="100" rx="50" transform="rotate(-180 220 220)" fill="white"/>
</clipPath>
<clipPath id="clip3_1843_4847">
<rect x="120" y="120" width="100" height="100" rx="50" fill="white"/>
</clipPath>
</defs>
</svg>
