<svg width="20" height="20" viewBox="0 0 20 20" fill="none" xmlns="http://www.w3.org/2000/svg">
<rect width="20" height="20" rx="4" fill="#008061"/>
<path d="M4.06104 4.28906H15.9499V15.7941H4.06104V4.28906Z" fill="white"/>
<path d="M4 4.19922H16V15.8503H4V4.19922Z" fill="#008061"/>
<path d="M11.3985 15.0846V15.551H8.52033V15.0837H6.34245C6.12964 15.0837 5.9563 14.8614 5.9563 14.5874L5.04492 5.37754C5.04492 5.10328 5.25778 4.88086 5.52037 4.88086H14.3212C14.5822 4.88086 14.795 5.10328 14.795 5.3775L13.8939 14.5874C13.8939 14.8614 13.7205 15.0837 13.5078 15.0837L11.3985 15.0846Z" fill="white"/>
<path d="M6.64795 6.22852H12.5398C11.9597 6.44583 10.1937 7.64064 9.75265 8.44395H6.6531L6.64795 6.22852Z" fill="#F5821F"/>
<path d="M11.344 12.5781C11.2599 13.3804 11.2564 14.3574 11.2564 15.3836H8.70264C8.70264 14.3574 8.74554 13.3804 8.82964 12.5781H11.344Z" fill="#ED1B2D"/>
<path d="M7.39311 11.4165V11.7274H6.98465V12.0385H7.39311V12.3949H6.45947V10.7363H7.39311V11.1058H6.98465V11.4165H7.39311ZM9.56413 11.4165V11.7274H9.15742V12.0385H9.56413V12.3949H8.63225V10.7363H9.56413V11.1058H9.15742V11.4165H9.56413ZM11.9566 11.4165V11.7274H11.5481V12.0385H11.9566V12.3949H11.0229V10.7363H11.9566V11.1058H11.5481V11.4165H11.9566ZM8.09335 10.7363V12.0385H8.50177V12.3949H7.56817V10.7363H8.09335ZM10.3177 11.8573L10.1185 10.7364H9.66028L9.92111 12.3949H10.5956L10.9114 10.7363H10.5218L10.3177 11.8573ZM12.178 10.7363H12.6826V12.3947H12.178V10.7363Z" fill="#008061"/>
<path d="M12.6826 11.2292C12.7101 11.0476 12.9676 11.0964 12.9676 11.2001V12.3954H13.4738V10.9897C13.4738 10.6917 13.0533 10.5718 12.6861 10.8342L12.6826 11.2293V11.2292Z" fill="#008061"/>
<path d="M11.5806 10.5053C11.6321 9.87061 12.5023 8.8341 13.3449 8.56195V6.11328C11.0263 7.14983 9.5194 8.71749 9.19336 10.4992L11.5806 10.5053Z" fill="#ED1B2D"/>
</svg>
