<svg width="20" height="20" viewBox="0 0 20 20" fill="none" xmlns="http://www.w3.org/2000/svg">
<g clip-path="url(#clip0_2094_16669)">
<rect width="200" height="200" fill="white"/>
<rect width="20" height="8.2" fill="#54A857"/>
<rect y="12.5" width="20" height="7.5" fill="#37A8DC"/>
<path fill-rule="evenodd" clip-rule="evenodd" d="M0 8.66143H20V7.34375H0V8.66143Z" fill="#54A857"/>
<path fill-rule="evenodd" clip-rule="evenodd" d="M2.24708 11.7039H2.72401L2.72447 10.6472H3.75356V10.1698H2.72401V9.70264H3.76255V9.22503H2.24708V11.7039ZM5.21497 10.5442C5.21497 10.4363 5.2309 10.2142 4.95027 10.0576C4.64779 9.88871 4.16483 10.0205 4.0244 10.0766V10.4504C4.22855 10.3235 4.51943 10.2834 4.68853 10.3663C4.84785 10.4444 4.83602 10.5779 4.80506 10.6306C4.76762 10.6212 4.63027 10.5707 4.37183 10.5953C4.05433 10.6262 3.82946 10.8644 3.86986 11.2784C3.90491 11.6334 4.2817 11.7038 4.44557 11.7038C4.66976 11.7038 4.84455 11.5791 4.84455 11.5791C4.85365 11.6322 4.86492 11.6709 4.89098 11.7038H5.31227C5.24683 11.6325 5.2169 11.4795 5.2169 11.419C5.21702 11.3584 5.21497 10.6515 5.21497 10.5442ZM4.54537 11.3701C4.38639 11.3772 4.28318 11.2675 4.28318 11.1175C4.28318 10.9681 4.42349 10.8719 4.55129 10.8719C4.71675 10.8719 4.80062 10.934 4.80062 10.934C4.80062 10.934 4.80404 11.2087 4.81007 11.2584C4.74771 11.3175 4.69502 11.3638 4.54537 11.3701ZM15.459 10.5442C15.459 10.4363 15.4755 10.2142 15.1949 10.0576C14.892 9.88871 14.4093 10.0205 14.269 10.0766V10.4504C14.4732 10.3235 14.764 10.2834 14.9329 10.3663C15.092 10.4444 15.0807 10.5779 15.0497 10.6306C15.0119 10.6212 14.8746 10.5707 14.6163 10.5953C14.2982 10.6262 14.0734 10.8644 14.1144 11.2784C14.1496 11.6334 14.526 11.7038 14.6899 11.7038C14.9144 11.7038 15.0887 11.5791 15.0887 11.5791C15.0987 11.6322 15.1094 11.6709 15.136 11.7038H15.5565C15.4909 11.6325 15.4611 11.4795 15.4611 11.419C15.4611 11.3584 15.459 10.6515 15.459 10.5442ZM14.7897 11.3701C14.6306 11.3772 14.5276 11.2675 14.5276 11.1175C14.5276 10.9681 14.6675 10.8719 14.7955 10.8719C14.9609 10.8719 15.0451 10.934 15.0451 10.934C15.0451 10.934 15.0479 11.2087 15.0546 11.2584C14.9919 11.3175 14.9395 11.3638 14.7897 11.3701ZM7.39684 9.99124C7.03633 9.98168 6.87758 10.1885 6.87758 10.1885C6.87758 10.1885 6.73692 9.99226 6.40531 9.99226C6.1669 9.99226 6.01782 10.137 6.01782 10.137V10.0109H5.56797L5.56877 11.7038H6.01725V10.5487C6.03967 10.4098 6.33111 10.3478 6.41999 10.4363C6.50875 10.5255 6.51273 10.5536 6.51273 10.6707V11.7039H6.96691V10.5443C6.96691 10.4848 7.17061 10.3461 7.3264 10.4228C7.46569 10.4909 7.47184 10.5583 7.47184 10.6564V11.704H7.90666V10.591C7.90655 10.4788 7.93056 10.0043 7.39684 9.99124ZM8.26684 11.7039H8.69711V9.99363H8.26684V11.7039ZM9.07049 11.7039H9.50054V9.22662H9.07049V11.7039ZM10.5806 10.965L10.1815 9.99124H9.72961L10.3671 11.5503L10.1463 12.1506L10.5957 12.1532L11.3725 9.99158H10.9329L10.5806 10.965ZM12.7129 9.98942L12.0647 9.22639H11.6066V11.7039H12.0371V9.91704L12.7129 10.7161L13.3838 9.92023V11.7039H13.8168V9.22639H13.3565L12.7129 9.98942ZM16.2141 10.1936V9.99226H15.7829V11.7038H16.2132V10.6097C16.2132 10.6097 16.4842 10.2451 16.8165 10.4975V10.0391C16.6574 9.97371 16.4517 9.92694 16.2141 10.1936ZM18.0141 10.3759V9.99158H17.626V9.34691L17.2179 9.51522V9.98965H16.9614V10.3759H17.2189V11.1429C17.2189 11.363 17.335 11.5856 17.5372 11.6574C17.7109 11.7188 17.8121 11.7242 18.0096 11.6641V11.2721C17.9243 11.2945 17.7096 11.3313 17.6518 11.1695C17.6149 11.0657 17.6266 11.0305 17.6266 10.9089V10.3759H18.0141ZM8.48442 9.2149C8.44773 9.21416 8.41126 9.22074 8.37715 9.23426C8.34304 9.24779 8.31197 9.26798 8.28576 9.29367C8.25954 9.31935 8.23872 9.35001 8.22451 9.38384C8.21029 9.41767 8.20297 9.454 8.20297 9.49069C8.20297 9.52739 8.21029 9.56372 8.22451 9.59755C8.23872 9.63138 8.25954 9.66204 8.28576 9.68772C8.31197 9.7134 8.34304 9.7336 8.37715 9.74712C8.41126 9.76065 8.44773 9.76723 8.48442 9.76649C8.5566 9.76502 8.62532 9.73532 8.67584 9.68376C8.72637 9.6322 8.75467 9.56288 8.75467 9.49069C8.75467 9.4185 8.72637 9.34919 8.67584 9.29763C8.62532 9.24607 8.5566 9.21637 8.48442 9.2149ZM20 12.2556V12.6573H0V12.2556H20Z" fill="#37A8DC"/>
</g>
<defs>
<clipPath id="clip0_2094_16669">
<rect width="20" height="20" rx="4" fill="white"/>
</clipPath>
</defs>
</svg>
