<svg width="20" height="20" viewBox="0 0 20 20" fill="none" xmlns="http://www.w3.org/2000/svg">
<g clip-path="url(#clip0_2094_16672)">
<rect width="20" height="20" rx="4" fill="white"/>
<path d="M15.9754 7.64364C15.9257 7.24127 15.7767 6.87864 15.5532 6.53587C15.121 5.87022 14.5447 5.40327 13.7847 5.17476C13.0396 4.94625 12.2944 4.95122 11.5394 5.13502C11.0327 5.25921 10.5757 5.47778 10.1783 5.82551C10.1286 5.87022 10.0739 5.90499 10.0243 5.94473C9.98949 5.97454 9.96962 5.9646 9.93484 5.93977C9.24435 5.33372 8.43961 5.02573 7.52061 5.01083C7.08346 5.0009 6.65625 5.05554 6.23897 5.18966C5.47894 5.43307 4.87289 5.88016 4.42581 6.54084C4.1675 6.92334 4.04331 7.35552 4.00854 7.81254C3.97377 8.30433 4.04331 8.78121 4.25195 9.22829C4.43078 9.60583 4.65929 9.95356 4.89276 10.3013C5.56835 11.3047 6.35323 12.2088 7.23746 13.0285C8.06704 13.7985 8.97114 14.474 9.94975 15.0403C10.0044 15.0702 10.0491 15.0702 10.1037 15.0403C10.4366 14.8516 10.7545 14.6479 11.0724 14.4343C11.9666 13.8233 12.7813 13.1229 13.5264 12.333C14.1424 11.6823 14.6938 10.9868 15.1707 10.2268C15.2948 10.0281 15.3992 9.81943 15.5283 9.6257C15.9307 9.01469 16.0599 8.354 15.9754 7.64364ZM15.8313 8.52787C15.7072 9.14881 15.4339 9.70518 15.0713 10.2218C14.8974 10.4652 14.7434 10.7186 14.5696 10.962C14.1771 11.5034 13.745 12.0151 13.273 12.497C12.3888 13.406 11.4102 14.1859 10.3223 14.8367C10.2577 14.8764 10.1882 14.9162 10.1236 14.9559C10.064 14.9907 10.0044 14.9907 9.94478 14.9559C9.02578 14.4293 8.17633 13.8034 7.38648 13.0931C6.53206 12.3231 5.76209 11.4687 5.10637 10.5199C4.81328 10.0976 4.55 9.66047 4.32149 9.20346C4.01351 8.58748 3.96383 7.94666 4.17247 7.29591C4.50529 6.26266 5.21069 5.60197 6.23401 5.26418C6.61651 5.13502 7.00895 5.08535 7.41132 5.09031C7.95279 5.09528 8.48431 5.17476 8.98604 5.40327C9.33874 5.56223 9.65169 5.7808 9.91994 6.05899C9.95968 6.1037 9.99942 6.1037 10.0441 6.06396C10.5558 5.53243 11.1867 5.23934 11.902 5.12012C12.5627 5.01083 13.2134 5.05554 13.8443 5.26914C14.4851 5.48275 14.9918 5.88512 15.3892 6.42659C15.6426 6.76935 15.8164 7.14192 15.8711 7.56913C15.9108 7.88705 15.8959 8.20498 15.8313 8.52787Z" fill="#D51518"/>
<path d="M15.5978 7.55969C15.5482 7.27157 15.4289 7.01326 15.2799 6.76488C14.8676 6.07439 14.2566 5.63227 13.4866 5.41867C13.0495 5.29448 12.6024 5.27958 12.1553 5.32925C11.6635 5.3839 11.2065 5.53292 10.7843 5.79124C10.4961 5.97007 10.2428 6.19361 10.0292 6.45689C9.99938 6.49166 9.97951 6.5016 9.94971 6.46186C9.9199 6.42212 9.88016 6.38735 9.84539 6.3476C9.20457 5.65215 8.40479 5.32429 7.50566 5.30938C7.08839 5.31435 6.71582 5.36403 6.35816 5.48822C5.58322 5.7515 4.97717 6.21845 4.61454 6.96855C4.27675 7.66898 4.25191 8.38431 4.59467 9.0897C4.83808 9.58646 5.13613 10.0534 5.45903 10.5055C6.23893 11.6033 7.16787 12.572 8.21106 13.4264C8.75252 13.8685 9.32379 14.2758 9.92487 14.6385C9.99938 14.6832 10.0739 14.6981 10.1534 14.6385C10.3074 14.5342 10.4713 14.4398 10.6303 14.3354C11.5542 13.7195 12.3987 13.0141 13.1737 12.2193C13.6555 11.7225 14.0976 11.2009 14.495 10.6396C14.6639 10.4061 14.808 10.1528 14.9719 9.91432C15.2104 9.56659 15.3991 9.20395 15.5183 8.80158C15.6326 8.38927 15.6723 7.97697 15.5978 7.55969ZM7.44605 10.6694C7.32683 10.734 7.20761 10.734 7.08839 10.6644C6.98904 10.6098 6.94433 10.5154 6.93936 10.4011C6.93439 10.2571 6.93439 10.118 6.93439 9.97393C6.93439 9.92922 6.92943 9.90935 6.87478 9.91432C6.80524 9.91928 6.73569 9.91928 6.66614 9.91928C6.6264 9.91928 6.6115 9.92922 6.6115 9.97393C6.61647 10.113 6.60157 10.2471 6.61647 10.3862C6.63634 10.575 6.4426 10.7588 6.2141 10.724C6.03526 10.6942 5.94088 10.5849 5.93591 10.3813C5.93094 10.123 5.93591 9.85967 5.93094 9.60136C5.93094 9.32814 5.93094 9.0599 5.93094 8.78668C5.93094 8.75191 5.93094 8.71713 5.93591 8.67739C5.96075 8.50353 6.08494 8.40418 6.26377 8.40914C6.45254 8.41411 6.57176 8.51346 6.59163 8.68733C6.6115 8.86119 6.60157 9.04002 6.60653 9.21389C6.6115 9.33311 6.60653 9.33311 6.72576 9.32814C6.77543 9.32814 6.82014 9.32318 6.86981 9.32318C6.91452 9.32814 6.93439 9.30827 6.93439 9.26356C6.93439 9.07976 6.9493 8.89597 6.93439 8.71713C6.91949 8.51843 7.12316 8.35947 7.3318 8.39424C7.51063 8.42405 7.60501 8.54327 7.60501 8.72707C7.60501 9.00525 7.60501 9.28344 7.60501 9.56162C7.60501 9.83483 7.60005 10.1031 7.60501 10.3763C7.61495 10.5104 7.56031 10.6048 7.44605 10.6694ZM7.42121 7.80807C7.3318 7.56466 7.5007 7.31131 7.76398 7.29641C7.90804 7.28647 8.03719 7.32125 8.14151 7.42557C8.17132 7.45537 8.18622 7.44544 8.21106 7.4206C8.38989 7.26164 8.6333 7.24673 8.8022 7.39079C8.89161 7.46531 8.92639 7.55472 8.93135 7.66401C8.93135 7.73852 8.91148 7.80807 8.88168 7.87761C8.72768 8.19554 8.52401 8.47372 8.24086 8.68236C8.20609 8.7072 8.18125 8.71217 8.14151 8.68733C7.81365 8.45882 7.56031 8.18064 7.42121 7.80807ZM8.51408 10.3862C8.51408 10.575 8.38989 10.7042 8.20609 10.7042C7.98255 10.7042 7.84346 10.5849 7.84346 10.3862C7.84346 9.96896 7.84346 9.55168 7.84842 9.13441C7.84842 8.98041 7.97758 8.86119 8.14648 8.84629C8.37002 8.82642 8.50911 8.95558 8.51408 9.17912C8.51408 9.21886 8.51408 9.25363 8.51408 9.29337C8.51408 9.656 8.51408 10.0186 8.51408 10.3862ZM9.40824 10.267C9.39334 10.3614 9.32379 10.4309 9.23437 10.4309C9.11515 10.4309 9.0009 10.4409 8.88665 10.4409C8.83697 10.4409 8.78729 10.4359 8.74259 10.4111C8.69291 10.3813 8.65317 10.3415 8.65814 10.272C8.66311 10.2173 8.6482 10.1577 8.6482 10.0981C8.64324 9.95406 8.72272 9.87954 8.86678 9.87954C8.92639 9.87954 8.986 9.87954 9.04561 9.87954C9.11515 9.87954 9.17973 9.87954 9.24928 9.87954C9.3536 9.87954 9.41818 9.94412 9.41818 10.0484C9.40824 10.123 9.41817 10.1925 9.40824 10.267ZM10.4365 10.6893C10.2279 10.7141 10.0193 10.7191 9.80564 10.6992C9.65662 10.6843 9.55727 10.5651 9.54733 10.4111C9.52249 10.0981 9.54236 9.78516 9.53243 9.4424C9.53243 9.21389 9.54237 8.95558 9.52746 8.70223C9.52249 8.53333 9.7212 8.38927 9.86029 8.38927C10.0441 8.38927 10.1832 8.51843 10.1881 8.69726C10.1931 9.02015 10.1931 9.34801 10.1981 9.67091C10.1981 9.80006 10.2031 9.92425 10.2031 10.0534C10.2031 10.0882 10.213 10.1031 10.2527 10.0981C10.3223 10.0931 10.3968 10.0931 10.4663 10.1081C10.6005 10.1379 10.6948 10.267 10.6948 10.4061C10.6899 10.5452 10.5806 10.6694 10.4365 10.6893ZM10.7892 8.11109C10.8737 7.99684 10.9929 7.94219 11.1469 7.94219C11.3853 7.95213 11.5741 8.15083 11.5393 8.37934C11.5195 8.51843 11.3655 8.66746 11.2065 8.70223C11.0525 8.737 10.8737 8.66746 10.7843 8.52837C10.6948 8.39921 10.6998 8.24025 10.7892 8.11109ZM14.2814 9.91928C14.2317 10.0037 14.1473 10.0385 14.0579 10.0435C13.894 10.0584 13.735 10.0385 13.5711 10.0435C13.4469 10.0484 13.3177 10.0435 13.1786 10.0435C13.2283 10.1081 13.268 10.1528 13.3475 10.1528C13.5114 10.1478 13.6754 10.1528 13.8343 10.1528C13.8691 10.1528 13.9039 10.1577 13.9387 10.1677C14.0877 10.2124 14.1771 10.3217 14.1672 10.4508C14.1572 10.6147 14.0579 10.729 13.894 10.7588C13.8244 10.7687 13.7549 10.7787 13.6853 10.7687C13.5214 10.7489 13.3525 10.7787 13.1886 10.734C12.8806 10.6545 12.6421 10.4906 12.513 10.1875C12.503 10.1577 12.4931 10.1279 12.4832 10.0981C12.4732 10.0683 12.4583 10.0534 12.4236 10.0534C12.349 10.0534 12.349 10.0534 12.349 10.1279C12.349 10.6197 12.3441 11.1065 12.349 11.5983C12.349 11.7374 12.2944 11.8318 12.1752 11.8914C12.056 11.951 11.9318 11.951 11.8175 11.8815C11.7182 11.8219 11.6685 11.7324 11.6685 11.6132C11.6685 11.4046 11.6635 11.1959 11.6635 10.9873C11.6635 10.6942 11.6585 10.4061 11.6585 10.113C11.6585 10.0683 11.6436 10.0584 11.6039 10.0633C11.5741 10.0683 11.5443 10.0683 11.5145 10.0633C11.4499 10.0534 11.435 10.0832 11.435 10.1379C11.435 10.2273 11.4449 10.3217 11.43 10.4111C11.4102 10.575 11.2711 10.6942 11.1022 10.6942C10.9432 10.6942 10.8091 10.57 10.7992 10.4111C10.7843 10.1478 10.7843 9.88451 10.7892 9.62123C10.7942 9.45233 10.7942 9.28344 10.7992 9.11454C10.7992 8.96551 10.9283 8.83139 11.0773 8.81648C11.2909 8.79661 11.4499 8.93571 11.4499 9.14931C11.4499 9.23376 11.4449 9.31821 11.44 9.39769C11.44 9.43246 11.4499 9.4424 11.4847 9.4424C11.6536 9.44737 11.6536 9.44737 11.6536 9.27847C11.6536 8.97545 11.6536 8.67242 11.6536 8.3694C11.6536 8.16077 11.7529 8.02664 11.9616 8.01174C12.2149 7.99187 12.4683 7.9869 12.7216 8.01174C12.8557 8.02664 12.96 8.15083 12.975 8.27502C12.9849 8.39921 12.9104 8.51346 12.7763 8.56811C12.6868 8.60785 12.5924 8.59791 12.4981 8.59791C12.3391 8.59791 12.3391 8.59791 12.3391 8.75687C12.3391 8.96551 12.3391 9.16918 12.3391 9.37782C12.3391 9.39769 12.3292 9.43246 12.3689 9.4275C12.4037 9.42253 12.4484 9.4573 12.4633 9.39272C12.5676 9.00525 12.8359 8.79661 13.2084 8.71713C13.5909 8.63268 13.9238 8.74694 14.1821 9.04002C14.4155 9.2884 14.4454 9.6411 14.2814 9.91928Z" fill="#D51518"/>
<path d="M13.7102 9.42772C13.5215 9.42772 13.3476 9.42772 13.1787 9.42772C13.2035 9.35321 13.3029 9.28863 13.4023 9.28366C13.5264 9.27869 13.6258 9.31346 13.7102 9.42772Z" fill="#D51518"/>
</g>
<defs>
<clipPath id="clip0_2094_16672">
<rect width="20" height="20" rx="4" fill="white"/>
</clipPath>
</defs>
</svg>
