<svg width="20" height="20" viewBox="0 0 20 20" fill="none" xmlns="http://www.w3.org/2000/svg">
<g clip-path="url(#clip0_2094_16663)">
<rect width="20" height="20" rx="4" fill="#E72420"/>
<path d="M7.6304 5.22193C7.80291 5.41667 7.77509 5.57246 7.67492 5.80615C7.57475 6.03984 7.19078 6.70195 6.53413 7.2806C5.87192 7.86482 5.27092 8.18753 5.02051 8.29325C4.77009 8.39896 4.61428 8.37114 4.44733 8.1764L4.24143 7.94272C4.06893 7.74798 4.05223 7.48647 4.19692 7.3585C4.19692 7.3585 5.19302 6.70751 5.63264 6.3236C6.06669 5.93968 6.85133 4.8714 6.85133 4.8714C6.99601 4.74343 7.25756 4.7935 7.4245 4.98824L7.6304 5.22193Z" fill="white"/>
<path d="M7.62498 8.00338L7.41908 7.76413C7.24657 7.56939 6.98502 7.51375 6.83477 7.64729C6.83477 7.64729 6.02788 8.74339 5.57713 9.13843C5.13194 9.53348 4.10246 10.2012 4.10246 10.2012C3.95221 10.3347 3.9689 10.6018 4.14141 10.7965L4.34731 11.0358C4.51982 11.2305 4.67563 11.2583 4.93161 11.1526C5.07073 11.097 5.31002 10.969 5.60495 10.7798V14.8193C5.60495 15.0585 5.78859 15.2588 6.01118 15.2588H6.36733C6.58992 15.2588 6.77356 15.0641 6.77356 14.8193V9.82837C7.26883 9.31648 7.57489 8.79903 7.66393 8.59873C7.76966 8.35948 7.79749 8.19812 7.62498 8.00338Z" fill="white"/>
<path d="M15.5602 8.76481H11.5981C11.5869 8.76481 11.5814 8.76481 11.5758 8.76481C11.5702 8.76481 11.5591 8.76481 11.5535 8.76481H10.7578C10.6131 8.76481 10.4962 8.64797 10.4962 8.50331V7.95247C10.4962 7.80781 10.6131 7.69096 10.7578 7.69096H11.5535C11.7928 7.69096 11.9932 7.49623 11.9932 7.25697V6.96765C11.9932 6.7284 11.7984 6.53366 11.5535 6.53366H10.7578C10.6131 6.53366 10.4962 6.41681 10.4962 6.27215V5.32627C10.4962 5.08702 10.3015 4.88672 10.0622 4.88672H9.77281C9.53352 4.88672 9.33876 5.08146 9.33876 5.32627V6.27215C9.33876 6.41681 9.22189 6.53366 9.07721 6.53366H8.24249C8.0032 6.53366 7.80287 6.7284 7.80287 6.96765V7.25697C7.80287 7.49623 7.99764 7.69096 8.24249 7.69096H9.07721C9.22189 7.69096 9.33876 7.80781 9.33876 7.95247V8.50331C9.33876 8.64797 9.22189 8.76481 9.07721 8.76481H8.24249C8.0032 8.76481 7.80287 8.95955 7.80287 9.1988V9.48813C7.80287 9.72738 7.99764 9.92212 8.24249 9.92212H9.07721C9.22189 9.92212 9.33876 10.039 9.33876 10.1836V10.6844C9.33876 10.829 9.22189 10.9459 9.07721 10.9459H8.24249C8.0032 10.9459 7.80287 11.1406 7.80287 11.3799V11.6692C7.80287 11.9085 7.99764 12.1032 8.24249 12.1032H9.07721C9.22189 12.1032 9.33876 12.22 9.33876 12.3647V13.3328C9.33876 13.4552 9.24972 13.5665 9.12729 13.5888C8.3983 13.7446 7.66375 13.8892 7.66375 13.8892C7.4189 13.9504 7.27421 14.2008 7.34099 14.4512L7.4189 14.7517C7.48011 15.002 7.63036 15.0911 7.97538 15.0911C8.3204 15.0911 8.79897 15.0354 9.88967 14.7572C10.9748 14.479 11.6481 14.0172 11.9097 13.8392C12.1712 13.6611 12.2992 13.5276 12.2325 13.2772L12.1545 12.9767C12.0933 12.7264 11.8429 12.5761 11.5981 12.6373C11.5981 12.6373 11.2809 12.7931 10.8691 12.9823C10.6966 13.0602 10.4962 12.9322 10.4962 12.7431V12.3647C10.4962 12.22 10.6131 12.1032 10.7578 12.1032H11.5535C11.7928 12.1032 11.9932 11.9085 11.9932 11.6692V11.3799C11.9932 11.1406 11.7984 10.9459 11.5535 10.9459H10.7578C10.6131 10.9459 10.4962 10.829 10.4962 10.6844V10.1836C10.4962 10.039 10.6131 9.92212 10.7578 9.92212H11.5535C11.5591 9.92212 11.5702 9.92212 11.5758 9.92212C11.5814 9.92212 11.5925 9.92212 11.5981 9.92212H12.583C12.7333 9.92212 12.8501 10.0445 12.8501 10.1892V14.8129C12.8501 15.0521 13.0338 15.2524 13.2564 15.2524H13.6125C13.8351 15.2524 14.0188 15.0577 14.0188 14.8129V10.1892C14.0188 10.039 14.1412 9.92212 14.2859 9.92212H15.5602C15.7995 9.92212 15.9998 9.72738 15.9998 9.48813V9.1988C15.9998 8.95955 15.8051 8.76481 15.5602 8.76481Z" fill="white"/>
<path d="M13.5015 4.80859C13.4793 4.80859 13.4626 4.80859 13.4403 4.80859C13.4181 4.80859 13.4014 4.80859 13.3791 4.80859C12.7225 4.84198 12.294 5.45958 12.4053 6.13838C12.511 6.80606 13.3012 8.19149 13.3012 8.19149C13.329 8.2527 13.3847 8.28052 13.4403 8.28052C13.496 8.28052 13.5516 8.2527 13.5794 8.19149C13.5794 8.19149 14.3696 6.80606 14.4754 6.13838C14.5867 5.45958 14.1582 4.84754 13.5015 4.80859ZM13.4403 6.40546C13.1621 6.40546 12.9395 6.1829 12.9395 5.9047C12.9395 5.6265 13.1621 5.40394 13.4403 5.40394C13.7186 5.40394 13.9411 5.6265 13.9411 5.9047C13.9411 6.1829 13.7186 6.40546 13.4403 6.40546Z" fill="white"/>
</g>
<defs>
<clipPath id="clip0_2094_16663">
<rect width="20" height="20" rx="4" fill="white"/>
</clipPath>
</defs>
</svg>
