<svg width="20" height="20" viewBox="0 0 20 20" fill="none" xmlns="http://www.w3.org/2000/svg">
<path d="M8.43817 3.90039H7.92265C7.84348 3.90039 7.7793 3.9646 7.7793 4.0438V7.25396C7.7793 7.33316 7.84348 7.39737 7.92265 7.39737H8.43817C8.51734 7.39737 8.58153 7.33316 8.58153 7.25396V4.0438C8.58153 3.9646 8.51734 3.90039 8.43817 3.90039Z" fill="black"/>
<path d="M7.19193 6.59483H5.80223V4.0438C5.80223 3.96479 5.73786 3.90039 5.65888 3.90039H5.14335C5.06437 3.90039 5 3.96425 5 4.0438V7.25396C5 7.33297 5.06437 7.39737 5.14335 7.39737H7.19193C7.27091 7.39737 7.33528 7.33297 7.33528 7.25396V6.73824C7.33528 6.65923 7.27091 6.59483 7.19193 6.59483Z" fill="black"/>
<path d="M14.8565 4.70293C14.9355 4.70293 14.9998 4.63853 14.9998 4.55952V4.0438C14.9998 3.96479 14.9355 3.90039 14.8565 3.90039H12.8079C12.7289 3.90039 12.6646 3.96479 12.6646 4.0438V7.25396C12.6646 7.33297 12.7289 7.39737 12.8079 7.39737H14.8565C14.9355 7.39737 14.9998 7.33297 14.9998 7.25396V6.73824C14.9998 6.65923 14.9355 6.59483 14.8565 6.59483H13.4668V6.05042H14.8565C14.9355 6.05042 14.9998 5.98602 14.9998 5.90701V5.39129C14.9998 5.31228 14.9355 5.24788 14.8565 5.24788H13.4668V4.70347H14.8565V4.70293Z" fill="black"/>
<path d="M11.9772 3.90057H11.4617C11.3827 3.90057 11.3183 3.96497 11.3183 4.04398V5.90178L9.96867 3.97146C9.93026 3.91681 9.87346 3.90111 9.81017 3.90111C9.80206 3.89949 9.79394 3.90111 9.78583 3.90111H9.2703C9.19133 3.90111 9.12695 3.96551 9.12695 4.04452V7.25468C9.12695 7.33369 9.19133 7.39809 9.2703 7.39809H9.78583C9.86481 7.39809 9.92918 7.33369 9.92918 7.25468V5.31462L11.3362 7.32774C11.3411 7.33478 11.347 7.34127 11.3524 7.34776C11.3768 7.37645 11.4119 7.39593 11.4514 7.39863H11.9772C12.0562 7.39863 12.1206 7.33424 12.1206 7.25523V4.04398C12.1206 3.96497 12.0562 3.90057 11.9772 3.90057Z" fill="black"/>
<path d="M14.6363 9.79883H5.36368C5.16282 9.79883 5 9.96171 5 10.1626V15.71C5 15.911 5.16282 16.0739 5.36368 16.0739H14.6363C14.8372 16.0739 15 15.911 15 15.71V10.1626C15 9.96171 14.8372 9.79883 14.6363 9.79883Z" fill="#08BF5B"/>
<path d="M8.60558 12.2453C8.60558 12.7965 8.16224 13.24 7.59036 13.24H7.15527V14.0545C7.15527 14.1083 7.11132 14.1523 7.05748 14.1523H6.58997C6.53614 14.1523 6.49219 14.1083 6.49219 14.0545V11.3478C6.49219 11.294 6.53614 11.25 6.58997 11.25H7.59036C8.16224 11.25 8.60558 11.6935 8.60558 12.2447V12.2453ZM7.9425 12.2453C7.9425 12.0337 7.79307 11.8721 7.59036 11.8721H7.15527V12.6184H7.59036C7.79362 12.6184 7.9425 12.4569 7.9425 12.2453Z" fill="white"/>
<path d="M11.0668 12.1308V14.1005C11.0668 14.1291 11.0437 14.1522 11.0151 14.1522H10.4965C10.468 14.1522 10.4449 14.1291 10.4449 14.1005V13.9571C10.3081 14.1148 10.1054 14.2099 9.82741 14.2099C9.28464 14.2099 8.83691 13.7334 8.83691 13.1157C8.83691 12.498 9.28464 12.0215 9.82741 12.0215C10.1048 12.0215 10.3081 12.1166 10.4449 12.2743V12.1308C10.4449 12.1023 10.468 12.0792 10.4965 12.0792H11.0151C11.0437 12.0792 11.0668 12.1023 11.0668 12.1308ZM10.4454 13.1157C10.4454 12.8046 10.2383 12.6101 9.95211 12.6101C9.6659 12.6101 9.45879 12.8046 9.45879 13.1157C9.45879 13.4267 9.6659 13.6213 9.95211 13.6213C10.2383 13.6213 10.4454 13.4267 10.4454 13.1157Z" fill="white"/>
<path d="M13.1348 12.1325L12.658 13.3345L12.1647 12.1314C12.1515 12.099 12.1202 12.0781 12.0856 12.0781H11.5565C11.5197 12.0781 11.495 12.1149 11.5087 12.149L12.3317 14.1555L12.0317 14.9112C12.0185 14.9447 12.0433 14.9815 12.0795 14.9815H12.6085C12.6437 14.9815 12.675 14.9601 12.6882 14.9277L13.7908 12.1485C13.804 12.1149 13.7792 12.0781 13.743 12.0781H13.2139C13.1788 12.0781 13.1475 12.0996 13.1343 12.132L13.1348 12.1325Z" fill="white"/>
</svg>
