<svg width="20" height="20" viewBox="0 0 20 20" fill="none" xmlns="http://www.w3.org/2000/svg">
<g clip-path="url(#clip0_2094_16675)">
<rect width="20" height="20" rx="4" fill="white"/>
<path d="M10.0249 9.1559C10.004 8.88441 9.93797 8.61989 9.89276 8.35189C9.81973 7.91334 10.0632 7.51307 10.4735 7.39125C10.8665 7.27639 11.3012 7.48523 11.4612 7.86809C11.5238 8.01775 11.5273 8.18134 11.569 8.33796C11.6351 8.34493 11.6594 8.29272 11.6942 8.25791C12.035 7.89593 12.3724 7.53047 12.7132 7.1685C12.9427 6.92834 13.2244 6.87613 13.5235 7.00143C14.1147 7.25203 14.2816 7.96903 13.8365 8.39017C13.6521 8.5642 13.5061 8.77303 13.3287 8.95054C13.2209 9.05844 13.2244 9.11413 13.3357 9.21855C13.7739 9.62925 14.2086 10.0469 14.6294 10.475C15.0606 10.9101 14.8937 11.6375 14.3199 11.8324C14.0034 11.9403 13.7008 11.8847 13.4539 11.6515C13.0296 11.2512 12.6158 10.8405 12.195 10.4367C12.1533 10.3985 12.122 10.3114 12.0489 10.3497C11.9724 10.388 11.9481 10.4646 11.9655 10.5586C12.0211 10.8544 12.0733 11.1503 12.122 11.4461C12.195 11.8916 11.8924 12.2988 11.4403 12.3789C11.0126 12.452 10.5883 12.1527 10.5083 11.7211C10.4422 11.3626 10.3727 11.0076 10.3031 10.6491C10.1988 10.2732 10.1049 9.89377 10.0945 9.50047C10.0597 9.38909 10.0423 9.27075 10.0249 9.1559Z" fill="#E60012"/>
<path d="M9.95865 14.997C8.67191 14.997 7.38864 14.9866 6.1019 15.0005C5.43766 15.0075 4.95774 14.5376 5.00295 13.8972C5.0099 13.7823 5.00295 13.664 5.00642 13.5491C5.0099 13.3611 5.08641 13.3089 5.2603 13.3855C5.63589 13.5526 6.02191 13.6848 6.42184 13.7823C7.27736 13.9876 8.15026 14.0364 9.02663 13.9842C10.3725 13.9041 11.6836 13.6361 12.939 13.128C13.485 12.9052 14.0102 12.6442 14.5075 12.3205C14.6048 12.2578 14.6987 12.2126 14.8135 12.2717C14.9317 12.3344 14.9317 12.4458 14.9283 12.5571C14.9283 13.0201 14.9283 13.483 14.9283 13.9494C14.9283 14.5759 14.5144 14.997 13.8884 14.997C12.5774 14.997 11.2697 14.997 9.95865 14.997Z" fill="#E60012"/>
<path d="M9.97971 5.01073C11.2769 5.01073 12.5741 5.01073 13.8712 5.01073C14.5285 5.01073 14.925 5.40751 14.925 6.0723C14.925 6.20108 14.925 6.32638 14.925 6.45516C14.9215 6.63615 14.8415 6.69184 14.685 6.61874C13.9791 6.29157 13.2348 6.11406 12.4628 6.04097C11.7533 5.97136 11.0404 5.98528 10.331 6.06186C8.90511 6.215 7.5349 6.56654 6.24815 7.20696C5.97342 7.3427 5.71259 7.49933 5.45524 7.65943C5.35091 7.72556 5.25353 7.79865 5.12138 7.72556C4.99618 7.65595 5.00662 7.53761 5.00662 7.41927C5.00662 6.97724 5.02748 6.53521 5.00314 6.09666C4.96489 5.48408 5.43785 4.98636 6.10557 5.00029C7.39579 5.02813 8.68949 5.01073 9.97971 5.01073Z" fill="#E30212"/>
<path d="M10.0908 10.8609C10.1256 10.4746 10.1151 10.0917 10.0073 9.71579C10.143 9.68447 10.063 9.57309 10.0873 9.5C10.1777 9.87938 10.2473 10.2622 10.296 10.6486C10.2021 10.5859 10.2473 10.4711 10.1916 10.3632C10.136 10.4815 10.1638 10.5825 10.1569 10.6764C10.1534 10.7495 10.1673 10.8226 10.0908 10.8609Z" fill="#FAEEEF"/>
<path d="M10.0249 9.15625C10.0701 9.26763 10.0909 9.38597 10.0909 9.50431C10.0318 9.39293 9.99357 9.28155 10.0249 9.15625Z" fill="#FAEEEF"/>
<path d="M10.1394 10.1718C10.1289 10.0117 10.1289 9.84459 10.0107 9.71581C9.83682 9.19025 9.53774 8.74822 9.08564 8.43149C8.25447 7.84327 7.35375 7.75626 6.44955 8.22265C5.54187 8.69253 5.06891 9.47217 5.08282 10.5024C5.09673 11.4944 5.56969 12.2462 6.44955 12.6986C7.33636 13.1546 8.21969 13.078 9.0439 12.5177C9.62816 12.1209 9.95506 11.5466 10.0942 10.8609C10.1463 10.6347 10.1498 10.405 10.1394 10.1718ZM7.5798 11.5779C6.98859 11.5709 6.48085 11.0523 6.47737 10.4572C6.47389 9.85503 6.99555 9.34687 7.60414 9.35383C8.21274 9.36079 8.69961 9.85503 8.69961 10.4641C8.69961 11.0697 8.18144 11.5849 7.5798 11.5779Z" fill="#E60012"/>
</g>
<defs>
<clipPath id="clip0_2094_16675">
<rect width="20" height="20" rx="4" fill="white"/>
</clipPath>
</defs>
</svg>
