<svg width="320" height="100" viewBox="0 0 320 100" fill="none" xmlns="http://www.w3.org/2000/svg">
<g clip-path="url(#clip0_1669_4162)">
<path d="M49.5 42.3257H89.3449V57.6745H49.5V42.3257Z" fill="#7661AA"/>
<path d="M49.5 20H64.326V80H49.5V20Z" fill="#7661AA"/>
<path d="M93.9775 20H108.804V38.1395H93.9775V20Z" fill="#7661AA"/>
<path d="M93.9775 61.8604H108.804V79.9999H93.9775V61.8604Z" fill="#7661AA"/>
<path d="M111.105 40.2251H91.5947V59.775H111.105V40.2251Z" fill="#69C5DF"/>
<path d="M49.5 42.3257H64.326V57.6745H49.5V42.3257Z" fill="#332295"/>
<path d="M121.899 67.3903C121.567 67.3903 121.284 67.2911 121.051 67.0912C120.818 66.8578 120.702 66.5586 120.702 66.1924V33.6735C120.702 33.3073 120.818 33.0082 121.051 32.7747C121.284 32.5413 121.566 32.4253 121.899 32.4253H126.435C126.801 32.4253 127.084 32.5413 127.284 32.7747C127.517 33.0082 127.632 33.3073 127.632 33.6735V46.56H142.338V33.6735C142.338 33.3073 142.454 33.0082 142.687 32.7747C142.92 32.5413 143.202 32.4253 143.535 32.4253H148.021C148.387 32.4253 148.685 32.5413 148.918 32.7747C149.151 33.0082 149.267 33.3073 149.267 33.6735V66.191C149.267 66.5237 149.151 66.8075 148.918 67.0395C148.685 67.2715 148.387 67.3889 148.021 67.3889H143.535C143.203 67.3889 142.92 67.2729 142.687 67.0395C142.454 66.8061 142.338 66.5237 142.338 66.191V52.8041H127.632V66.191C127.632 66.5237 127.517 66.8075 127.284 67.0395C127.084 67.2729 126.802 67.3889 126.435 67.3889H121.899V67.3903Z" fill="#7661AA"/>
<path d="M161.455 67.8893C159.726 67.8893 158.165 67.5566 156.769 66.8899C155.373 66.191 154.259 65.2754 153.429 64.1432C152.631 62.9774 152.232 61.6788 152.232 60.2474C152.232 57.9159 153.163 56.068 155.024 54.7023C156.918 53.3031 159.411 52.3707 162.501 51.9053L169.331 50.9058V49.8574C169.331 48.4582 168.982 47.3763 168.284 46.6103C167.587 45.8443 166.39 45.4613 164.695 45.4613C163.498 45.4613 162.519 45.7115 161.755 46.2105C161.024 46.6774 160.475 47.3092 160.11 48.1088C159.843 48.5421 159.461 48.7588 158.963 48.7588H155.025C154.66 48.7588 154.376 48.6595 154.177 48.4596C154.011 48.2597 153.927 47.9928 153.927 47.6601C153.961 47.1275 154.177 46.4775 154.576 45.7115C154.975 44.9455 155.607 44.2131 156.47 43.5141C157.334 42.7817 158.447 42.1652 159.81 41.6662C161.173 41.1672 162.817 40.917 164.745 40.917C166.839 40.917 168.6 41.184 170.029 41.7165C171.491 42.2156 172.655 42.8991 173.518 43.7643C174.382 44.6296 175.014 45.6458 175.413 46.8116C175.812 47.9774 176.011 49.2089 176.011 50.5074V66.1924C176.011 66.525 175.895 66.8088 175.662 67.0408C175.429 67.2729 175.148 67.3903 174.814 67.3903H170.777C170.412 67.3903 170.113 67.2743 169.88 67.0408C169.681 66.8074 169.582 66.525 169.582 66.1924V64.2438C169.149 64.877 168.568 65.4753 167.837 66.0414C167.106 66.574 166.209 67.0241 165.144 67.3903C164.113 67.723 162.884 67.8893 161.456 67.8893H161.455ZM163.148 63.1437C164.311 63.1437 165.358 62.8935 166.288 62.3945C167.252 61.8955 168 61.1295 168.531 60.0965C169.096 59.0313 169.378 57.6992 169.378 56.1001V55.0517L164.394 55.8513C162.432 56.1504 160.971 56.6341 160.007 57.2994C159.043 57.9648 158.561 58.7811 158.561 59.747C158.561 60.4795 158.778 61.1127 159.21 61.6453C159.676 62.1443 160.256 62.5273 160.955 62.7943C161.653 63.0277 162.384 63.1437 163.148 63.1437Z" fill="#7661AA"/>
<path d="M181.109 67.3903C180.777 67.3903 180.494 67.2743 180.261 67.0408C180.028 66.8074 179.912 66.525 179.912 66.1924V42.6153C179.912 42.2827 180.028 41.9989 180.261 41.7655C180.494 41.532 180.776 41.416 181.109 41.416H185.246C185.612 41.416 185.895 41.532 186.095 41.7655C186.328 41.9989 186.443 42.2813 186.443 42.6153V66.1924C186.443 66.525 186.328 66.8088 186.095 67.0408C185.895 67.2743 185.613 67.3903 185.246 67.3903H181.109Z" fill="#7661AA"/>
<path d="M180.909 38.4191C180.544 38.4191 180.245 38.3185 180.012 38.12C179.813 37.8866 179.714 37.5874 179.714 37.2212V33.6246C179.714 33.2919 179.813 33.0082 180.012 32.7747C180.245 32.5413 180.544 32.4253 180.909 32.4253H185.446C185.811 32.4253 186.111 32.5413 186.343 32.7747C186.576 33.0082 186.692 33.2905 186.692 33.6246V37.2212C186.692 37.5874 186.576 37.888 186.343 38.12C186.11 38.3199 185.811 38.4191 185.446 38.4191H180.909Z" fill="#69C5DF"/>
<path d="M192.832 67.3903C192.5 67.3903 192.216 67.2743 191.984 67.0409C191.751 66.8075 191.635 66.5251 191.635 66.1924V33.6735C191.635 33.3073 191.751 33.0082 191.984 32.7747C192.216 32.5413 192.498 32.4253 192.832 32.4253H206.191C208.785 32.4253 211.043 32.8418 212.971 33.6735C214.899 34.4731 216.394 35.7046 217.459 37.3694C218.521 39.0006 219.053 41.0484 219.053 43.5128C219.053 45.9772 218.521 48.0753 217.459 49.7065C216.396 51.3042 214.9 52.5036 212.971 53.3031C211.044 54.1027 208.785 54.5025 206.191 54.5025H198.764V66.191C198.764 66.5237 198.649 66.8075 198.416 67.0395C198.218 67.2729 197.933 67.3889 197.569 67.3889H192.833L192.832 67.3903ZM198.664 48.9587H205.943C207.869 48.9587 209.35 48.5086 210.379 47.6098C211.409 46.6775 211.925 45.3118 211.925 43.5142C211.925 41.8494 211.442 40.5173 210.478 39.5178C209.514 38.4848 208.002 37.969 205.943 37.969H198.664V48.9587Z" fill="#7661AA"/>
<path d="M228.395 67.8893C226.667 67.8893 225.106 67.5566 223.709 66.8899C222.314 66.191 221.201 65.2754 220.37 64.1432C219.572 62.9774 219.173 61.6788 219.173 60.2474C219.173 57.9159 220.103 56.068 221.964 54.7023C223.859 53.3031 226.35 52.3707 229.441 51.9053L236.271 50.9058V49.8574C236.271 48.4582 235.922 47.3763 235.223 46.6103C234.526 45.8443 233.329 45.4613 231.634 45.4613C230.437 45.4613 229.457 45.7115 228.692 46.2105C227.961 46.6774 227.413 47.3092 227.047 48.1088C226.781 48.5421 226.399 48.7588 225.901 48.7588H221.963C221.597 48.7588 221.314 48.6595 221.116 48.4596C220.95 48.2597 220.866 47.9928 220.866 47.6601C220.9 47.1275 221.116 46.4775 221.515 45.7115C221.914 44.9455 222.545 44.2131 223.409 43.5141C224.273 42.7817 225.386 42.1652 226.749 41.6662C228.112 41.1672 229.757 40.917 231.684 40.917C233.778 40.917 235.539 41.184 236.967 41.7165C238.429 42.2156 239.594 42.8991 240.456 43.7643C241.321 44.6296 241.951 45.6458 242.35 46.8116C242.749 47.9774 242.949 49.2089 242.949 50.5074V66.1924C242.949 66.525 242.832 66.8088 242.6 67.0408C242.367 67.2743 242.084 67.3903 241.753 67.3903H237.715C237.349 67.3903 237.051 67.2743 236.818 67.0408C236.618 66.8074 236.518 66.525 236.518 66.1924V64.2438C236.086 64.877 235.504 65.4753 234.774 66.0414C234.042 66.574 233.146 67.0241 232.082 67.3903C231.052 67.723 229.822 67.8893 228.392 67.8893H228.395ZM230.09 63.1437C231.253 63.1437 232.3 62.8935 233.23 62.3945C234.194 61.8955 234.94 61.1295 235.472 60.0965C236.037 59.0313 236.32 57.6992 236.32 56.1001V55.0517L231.334 55.8513C229.374 56.1504 227.911 56.6341 226.948 57.2994C225.985 57.9648 225.502 58.7811 225.502 59.747C225.502 60.4795 225.718 61.1127 226.151 61.6453C226.615 62.1443 227.197 62.5273 227.894 62.7943C228.592 63.0277 229.323 63.1437 230.089 63.1437H230.09Z" fill="#7661AA"/>
<path d="M250.858 76.8801C250.591 76.8801 250.36 76.7808 250.16 76.581C249.961 76.3811 249.86 76.1476 249.86 75.882V75.4823C249.894 75.383 249.959 75.2488 250.058 75.0825L253.946 65.8415L244.375 43.2136C244.243 42.8809 244.176 42.6475 244.176 42.5147C244.209 42.2156 244.326 41.9654 244.525 41.7655C244.724 41.532 244.972 41.416 245.272 41.416H249.309C249.71 41.416 250.007 41.5167 250.208 41.7151C250.406 41.915 250.556 42.1317 250.655 42.3651L257.286 58.6987L264.114 42.3651C264.215 42.0982 264.364 41.8829 264.562 41.7151C264.761 41.5153 265.061 41.416 265.46 41.416H269.448C269.715 41.416 269.947 41.5167 270.146 41.7151C270.379 41.915 270.495 42.1485 270.495 42.4141C270.495 42.6139 270.428 42.8809 270.295 43.2136L256.188 75.931C256.055 76.198 255.888 76.4132 255.69 76.581C255.49 76.7808 255.192 76.8801 254.793 76.8801H250.854H250.858Z" fill="#7661AA"/>
</g>
<defs>
<clipPath id="clip0_1669_4162">
<rect width="221" height="60" fill="white" transform="translate(49.5 20)"/>
</clipPath>
</defs>
</svg>
