<svg width="320" height="146" viewBox="0 0 320 146" fill="none" xmlns="http://www.w3.org/2000/svg">
<path d="M11.9429 21.1299L8.69839 17.7696C8.44218 17.506 8.02338 17.5011 7.75978 17.7573C7.63167 17.878 7.55777 18.0455 7.5553 18.2229C7.55037 18.4003 7.61935 18.5703 7.74007 18.6959L10.9846 22.0562L7.62428 25.3007C7.36068 25.5569 7.35575 25.9757 7.61196 26.2393C7.73268 26.3674 7.9002 26.4413 8.07757 26.4438C8.25495 26.4487 8.42493 26.3797 8.55058 26.259L11.9109 23.0145L15.1554 26.3748C15.4116 26.6384 15.8304 26.6433 16.094 26.3871C16.2221 26.2664 16.296 26.0989 16.2984 25.9215C16.3034 25.7441 16.2344 25.5742 16.1137 25.4485L12.8692 22.0882L16.2295 18.8437C16.4931 18.5875 16.498 18.1687 16.2418 17.9051C16.1211 17.777 15.9535 17.7031 15.7762 17.7007C15.5988 17.6957 15.4288 17.7647 15.3032 17.8854L11.9429 21.1299ZM4.80598 28.9468C0.970228 24.9731 1.08109 18.6442 5.05233 14.806C9.02604 10.9702 15.3549 11.0811 19.1931 15.0523C23.0289 19.026 22.9205 25.3549 18.9468 29.1931C14.9731 33.0289 8.64419 32.9205 4.80598 28.9468Z" fill="#8D8D8D"/>
<path d="M11.9429 123.13L8.69839 119.77C8.44218 119.506 8.02338 119.501 7.75978 119.757C7.63167 119.878 7.55777 120.046 7.5553 120.223C7.55037 120.4 7.61935 120.57 7.74007 120.696L10.9846 124.056L7.62428 127.301C7.36068 127.557 7.35575 127.976 7.61196 128.239C7.73268 128.367 7.9002 128.441 8.07757 128.444C8.25495 128.449 8.42493 128.38 8.55058 128.259L11.9109 125.015L15.1554 128.375C15.4116 128.638 15.8304 128.643 16.094 128.387C16.2221 128.266 16.296 128.099 16.2984 127.922C16.3034 127.744 16.2344 127.574 16.1137 127.449L12.8692 124.088L16.2295 120.844C16.4931 120.588 16.498 120.169 16.2418 119.905C16.1211 119.777 15.9535 119.703 15.7762 119.701C15.5988 119.696 15.4288 119.765 15.3032 119.885L11.9429 123.13ZM4.80598 130.947C0.970228 126.973 1.08109 120.644 5.05233 116.806C9.02604 112.97 15.3549 113.081 19.1931 117.052C23.0289 121.026 22.9205 127.355 18.9468 131.193C14.9731 135.029 8.64419 134.92 4.80598 130.947Z" fill="#8D8D8D"/>
</svg>
