<svg width="228" height="226" viewBox="0 0 228 226" fill="none" xmlns="http://www.w3.org/2000/svg">
<g clip-path="url(#clip0_1677_4549)">
<path d="M35 0H225V100H35" fill="#B22234"/>
<path d="M35 11.5386H225H35ZM225 26.9232H35H225ZM35 42.3078H225H35ZM225 57.6924H35H225ZM35 73.077H225H35ZM225 88.4616H35H225Z" fill="black"/>
<path d="M224.998 84.7113V92.2104H35V84.7113H224.998ZM224.998 69.3263V76.8255H35V69.3263H224.998ZM224.998 53.9414V61.4406H35V53.9414H224.998ZM224.998 38.5565V46.0557H35V38.5565H224.998ZM224.998 23.1715V30.6748H35V23.1715H224.998ZM224.998 7.78662V15.2899H35V7.78662H224.998Z" fill="white"/>
<path d="M35 0H111V53.8462H35" fill="#3C3B6E"/>
<path d="M60.3335 7.69238L62.1421 13.2586L57.4072 9.81849H63.2599L58.525 13.2586L60.3335 7.69238Z" fill="white"/>
<path d="M60.3335 18.4614L62.1421 24.0276L57.4072 20.5875H63.2599L58.525 24.0276L60.3335 18.4614Z" fill="white"/>
<path d="M60.3335 29.231L62.1421 34.7972L57.4072 31.3571H63.2599L58.525 34.7972L60.3335 29.231Z" fill="white"/>
<path d="M60.3335 40L62.1421 45.5662L57.4072 42.1261H63.2599L58.525 45.5662L60.3335 40Z" fill="white"/>
<path d="M66.6665 2.30762L68.4751 7.87382L63.7402 4.43372H69.5929L64.858 7.87382L66.6665 2.30762Z" fill="white"/>
<path d="M66.6665 13.0767L68.4751 18.6429L63.7402 15.2028H69.5929L64.858 18.6429L66.6665 13.0767Z" fill="white"/>
<path d="M66.6665 23.8462L68.4751 29.4124L63.7402 25.9723H69.5929L64.858 29.4124L66.6665 23.8462Z" fill="white"/>
<path d="M66.6665 34.6152L68.4751 40.1814L63.7402 36.7413H69.5929L64.858 40.1814L66.6665 34.6152Z" fill="white"/>
<path d="M66.6665 45.3848L68.4751 50.951L63.7402 47.5109H69.5929L64.858 50.951L66.6665 45.3848Z" fill="white"/>
<path d="M72.9996 7.69238L74.8081 13.2586L70.0732 9.81849H75.9259L71.191 13.2586L72.9996 7.69238Z" fill="white"/>
<path d="M72.9996 18.4614L74.8081 24.0276L70.0732 20.5875H75.9259L71.191 24.0276L72.9996 18.4614Z" fill="white"/>
<path d="M72.9996 29.231L74.8081 34.7972L70.0732 31.3571H75.9259L71.191 34.7972L72.9996 29.231Z" fill="white"/>
<path d="M72.9996 40L74.8081 45.5662L70.0732 42.1261H75.9259L71.191 45.5662L72.9996 40Z" fill="white"/>
<path d="M79.3335 2.30762L81.1421 7.87382L76.4072 4.43372H82.2599L77.525 7.87382L79.3335 2.30762Z" fill="white"/>
<path d="M79.3335 13.0767L81.1421 18.6429L76.4072 15.2028H82.2599L77.525 18.6429L79.3335 13.0767Z" fill="white"/>
<path d="M79.3335 23.8462L81.1421 29.4124L76.4072 25.9723H82.2599L77.525 29.4124L79.3335 23.8462Z" fill="white"/>
<path d="M79.3335 34.6152L81.1421 40.1814L76.4072 36.7413H82.2599L77.525 40.1814L79.3335 34.6152Z" fill="white"/>
<path d="M79.3335 45.3848L81.1421 50.951L76.4072 47.5109H82.2599L77.525 50.951L79.3335 45.3848Z" fill="white"/>
<path d="M85.6665 7.69238L87.4751 13.2586L82.7402 9.81849H88.5929L83.858 13.2586L85.6665 7.69238Z" fill="white"/>
<path d="M85.6665 18.4614L87.4751 24.0276L82.7402 20.5875H88.5929L83.858 24.0276L85.6665 18.4614Z" fill="white"/>
<path d="M85.6665 29.231L87.4751 34.7972L82.7402 31.3571H88.5929L83.858 34.7972L85.6665 29.231Z" fill="white"/>
<path d="M85.6665 40L87.4751 45.5662L82.7402 42.1261H88.5929L83.858 45.5662L85.6665 40Z" fill="white"/>
<path d="M92.0005 2.30762L93.8091 7.87382L89.0742 4.43372H94.9269L90.192 7.87382L92.0005 2.30762Z" fill="white"/>
<path d="M92.0005 13.0767L93.8091 18.6429L89.0742 15.2028H94.9269L90.192 18.6429L92.0005 13.0767Z" fill="white"/>
<path d="M92.0005 23.8462L93.8091 29.4124L89.0742 25.9723H94.9269L90.192 29.4124L92.0005 23.8462Z" fill="white"/>
<path d="M92.0005 34.6152L93.8091 40.1814L89.0742 36.7413H94.9269L90.192 40.1814L92.0005 34.6152Z" fill="white"/>
<path d="M92.0005 45.3848L93.8091 50.951L89.0742 47.5109H94.9269L90.192 50.951L92.0005 45.3848Z" fill="white"/>
<path d="M98.3335 7.69238L100.142 13.2586L95.4072 9.81849H101.26L96.525 13.2586L98.3335 7.69238Z" fill="white"/>
<path d="M98.3335 18.4614L100.142 24.0276L95.4072 20.5875H101.26L96.525 24.0276L98.3335 18.4614Z" fill="white"/>
<path d="M98.3335 29.231L100.142 34.7972L95.4072 31.3571H101.26L96.525 34.7972L98.3335 29.231Z" fill="white"/>
<path d="M98.3335 40L100.142 45.5662L95.4072 42.1261H101.26L96.525 45.5662L98.3335 40Z" fill="white"/>
<path d="M104.667 2.30762L106.475 7.87382L101.74 4.43372H107.593L102.858 7.87382L104.667 2.30762Z" fill="white"/>
<path d="M104.667 13.0767L106.475 18.6429L101.74 15.2028H107.593L102.858 18.6429L104.667 13.0767Z" fill="white"/>
<path d="M104.667 23.8462L106.475 29.4124L101.74 25.9723H107.593L102.858 29.4124L104.667 23.8462Z" fill="white"/>
<path d="M104.667 34.6152L106.475 40.1814L101.74 36.7413H107.593L102.858 40.1814L104.667 34.6152Z" fill="white"/>
<path d="M104.667 45.3848L106.475 50.951L101.74 47.5109H107.593L102.858 50.951L104.667 45.3848Z" fill="white"/>
</g>
<rect x="60.5" y="0.5" width="99" height="99" rx="49.5" stroke="#EAECF0"/>
<g clip-path="url(#clip1_1677_4549)">
<path d="M-25 120H125V220H-25V120Z" fill="white"/>
<path d="M-25 120H125V153.333H-25V120Z" fill="#FF6820"/>
<path d="M-25 186.667H125V220H-25V186.667Z" fill="#046A38"/>
<path d="M49.9997 185.417C58.5141 185.417 65.4163 178.515 65.4163 170C65.4163 161.486 58.5141 154.583 49.9997 154.583C41.4853 154.583 34.583 161.486 34.583 170C34.583 178.515 41.4853 185.417 49.9997 185.417Z" fill="#07038D"/>
<path d="M50.0003 183.333C57.3641 183.333 63.3337 177.364 63.3337 170C63.3337 162.636 57.3641 156.667 50.0003 156.667C42.6365 156.667 36.667 162.636 36.667 170C36.667 177.364 42.6365 183.333 50.0003 183.333Z" fill="white"/>
<path d="M49.9997 172.667C51.4724 172.667 52.6663 171.473 52.6663 170C52.6663 168.527 51.4724 167.333 49.9997 167.333C48.5269 167.333 47.333 168.527 47.333 170C47.333 171.473 48.5269 172.667 49.9997 172.667Z" fill="#07038D"/>
<path d="M50 156.667L50.5 164.69L50 168.664L49.5 164.69L50 156.667Z" fill="#07038D"/>
<path d="M51.6643 157.359C51.9838 157.401 52.2768 157.176 52.3188 156.857C52.3609 156.538 52.136 156.245 51.8166 156.203C51.4972 156.161 51.2042 156.385 51.1621 156.705C51.1201 157.024 51.3449 157.317 51.6643 157.359Z" fill="#07038D"/>
<path d="M50 183.333L49.5 175.31L50 171.337L50.5 175.31L50 183.333Z" fill="#07038D"/>
<path d="M48.3357 182.641C48.0162 182.599 47.7232 182.824 47.6812 183.143C47.6391 183.463 47.864 183.756 48.1834 183.798C48.5028 183.84 48.7958 183.615 48.8379 183.296C48.8799 182.976 48.6551 182.683 48.3357 182.641Z" fill="#07038D"/>
<path d="M53.4488 157.115L51.8552 164.995L50.3438 168.703L50.8892 164.736L53.4488 157.115Z" fill="#07038D"/>
<path d="M54.8766 158.215C55.1743 158.338 55.5155 158.197 55.6388 157.899C55.7621 157.601 55.6208 157.26 55.3231 157.137C55.0255 157.014 54.6842 157.155 54.5609 157.453C54.4377 157.75 54.579 158.091 54.8766 158.215Z" fill="#07038D"/>
<path d="M46.5463 182.874L48.14 174.994L49.6513 171.286L49.1059 175.253L46.5463 182.874Z" fill="#07038D"/>
<path d="M45.1185 181.774C44.8208 181.651 44.4796 181.792 44.3563 182.09C44.233 182.387 44.3744 182.729 44.672 182.852C44.9697 182.975 45.3109 182.834 45.4342 182.536C45.5575 182.239 45.4161 181.897 45.1185 181.774Z" fill="#07038D"/>
<path d="M56.6664 158.453L53.0878 165.652L50.6681 168.843L52.2217 165.152L56.6664 158.453Z" fill="#07038D"/>
<path d="M57.7614 159.885C58.0169 160.081 58.3831 160.033 58.5793 159.778C58.7754 159.522 58.7272 159.156 58.4716 158.96C58.216 158.763 57.8498 158.812 57.6537 159.067C57.4576 159.323 57.5058 159.689 57.7614 159.885Z" fill="#07038D"/>
<path d="M43.3336 181.547L46.9122 174.349L49.3319 171.158L47.7783 174.849L43.3336 181.547Z" fill="#07038D"/>
<path d="M42.2386 180.115C41.9831 179.919 41.6169 179.967 41.4207 180.223C41.2246 180.479 41.2728 180.845 41.5284 181.041C41.784 181.237 42.1502 181.189 42.3463 180.933C42.5424 180.678 42.4942 180.311 42.2386 180.115Z" fill="#07038D"/>
<path d="M59.4287 160.572L54.1089 166.599L50.9458 169.055L53.4018 165.892L59.4287 160.572Z" fill="#07038D"/>
<path d="M60.1161 162.238C60.3122 162.494 60.6784 162.542 60.934 162.346C61.1895 162.15 61.2378 161.784 61.0416 161.528C60.8455 161.273 60.4793 161.224 60.2237 161.421C59.9681 161.617 59.9199 161.983 60.1161 162.238Z" fill="#07038D"/>
<path d="M40.5722 179.428L45.892 173.401L49.0552 170.945L46.5991 174.108L40.5722 179.428Z" fill="#07038D"/>
<path d="M39.8849 177.762C39.6888 177.506 39.3226 177.458 39.067 177.654C38.8114 177.85 38.7632 178.217 38.9593 178.472C39.1555 178.728 39.5217 178.776 39.7772 178.58C40.0328 178.384 40.081 178.018 39.8849 177.762Z" fill="#07038D"/>
<path d="M61.5469 163.334L54.8485 167.779L51.1575 169.332L54.3485 166.913L61.5469 163.334Z" fill="#07038D"/>
<path d="M61.7792 165.121C61.9024 165.419 62.2437 165.56 62.5413 165.437C62.839 165.314 62.9803 164.972 62.857 164.675C62.7337 164.377 62.3925 164.236 62.0949 164.359C61.7972 164.482 61.6559 164.823 61.7792 165.121Z" fill="#07038D"/>
<path d="M38.4531 176.667L45.1515 172.222L48.8425 170.669L45.6515 173.088L38.4531 176.667Z" fill="#07038D"/>
<path d="M38.2208 174.88C38.0976 174.582 37.7563 174.441 37.4587 174.564C37.161 174.687 37.0197 175.029 37.143 175.326C37.2663 175.624 37.6075 175.765 37.9051 175.642C38.2028 175.519 38.3441 175.177 38.2208 174.88Z" fill="#07038D"/>
<path d="M62.8794 166.549L55.2589 169.108L51.2915 169.654L55.0001 168.143L62.8794 166.549Z" fill="#07038D"/>
<path d="M62.6411 168.336C62.6832 168.655 62.9762 168.88 63.2956 168.838C63.615 168.796 63.8399 168.503 63.7978 168.183C63.7558 167.864 63.4627 167.639 63.1433 167.681C62.8239 167.723 62.5991 168.016 62.6411 168.336Z" fill="#07038D"/>
<path d="M37.1206 173.452L44.7411 170.892L48.7085 170.347L44.9999 171.858L37.1206 173.452Z" fill="#07038D"/>
<path d="M37.3589 171.665C37.3168 171.345 37.0238 171.121 36.7044 171.163C36.385 171.205 36.1601 171.498 36.2022 171.817C36.2442 172.137 36.5373 172.361 36.8567 172.319C37.1761 172.277 37.4009 171.984 37.3589 171.665Z" fill="#07038D"/>
<path d="M63.333 170L55.3097 170.5L51.3364 170L55.3097 169.5L63.333 170Z" fill="#07038D"/>
<path d="M62.6412 171.664C62.5991 171.984 62.824 172.277 63.1434 172.319C63.4628 172.361 63.7558 172.136 63.7979 171.817C63.8399 171.497 63.6151 171.204 63.2957 171.162C62.9763 171.12 62.6832 171.345 62.6412 171.664Z" fill="#07038D"/>
<path d="M36.667 170L44.6903 169.5L48.6636 170L44.6903 170.5L36.667 170Z" fill="#07038D"/>
<path d="M37.3588 168.336C37.4009 168.016 37.176 167.723 36.8566 167.681C36.5372 167.639 36.2442 167.864 36.2021 168.183C36.1601 168.503 36.3849 168.796 36.7043 168.838C37.0237 168.88 37.3168 168.655 37.3588 168.336Z" fill="#07038D"/>
<path d="M62.8794 173.451L55 171.858L51.2915 170.346L55.2588 170.892L62.8794 173.451Z" fill="#07038D"/>
<path d="M61.78 174.88C61.6567 175.177 61.798 175.518 62.0957 175.642C62.3933 175.765 62.7345 175.624 62.8578 175.326C62.9811 175.028 62.8398 174.687 62.5421 174.564C62.2445 174.441 61.9032 174.582 61.78 174.88Z" fill="#07038D"/>
<path d="M37.1226 166.549L45.0019 168.142L48.7105 169.654L44.7431 169.108L37.1226 166.549Z" fill="#07038D"/>
<path d="M38.222 165.12C38.3453 164.823 38.2039 164.482 37.9063 164.358C37.6086 164.235 37.2674 164.376 37.1441 164.674C37.0208 164.972 37.1622 165.313 37.4598 165.436C37.7575 165.559 38.0987 165.418 38.222 165.12Z" fill="#07038D"/>
<path d="M61.5469 176.667L54.3485 173.088L51.1575 170.669L54.8485 172.222L61.5469 176.667Z" fill="#07038D"/>
<path d="M60.1148 177.762C59.9187 178.017 59.9669 178.384 60.2225 178.58C60.4781 178.776 60.8443 178.728 61.0404 178.472C61.2365 178.216 61.1883 177.85 60.9327 177.654C60.6771 177.458 60.3109 177.506 60.1148 177.762Z" fill="#07038D"/>
<path d="M38.4521 163.334L45.6506 166.912L48.8416 169.332L45.1506 167.778L38.4521 163.334Z" fill="#07038D"/>
<path d="M39.8842 162.239C40.0803 161.983 40.0321 161.617 39.7765 161.421C39.5209 161.225 39.1547 161.273 38.9586 161.528C38.7625 161.784 38.8107 162.15 39.0663 162.346C39.3219 162.542 39.6881 162.494 39.8842 162.239Z" fill="#07038D"/>
<path d="M59.4277 179.428L53.4008 174.108L50.9448 170.945L54.1079 173.401L59.4277 179.428Z" fill="#07038D"/>
<path d="M57.7606 180.115C57.505 180.311 57.4568 180.677 57.6529 180.933C57.849 181.189 58.2152 181.237 58.4708 181.041C58.7264 180.845 58.7746 180.478 58.5785 180.223C58.3824 179.967 58.0162 179.919 57.7606 180.115Z" fill="#07038D"/>
<path d="M40.5713 160.572L46.5982 165.892L49.0543 169.055L45.8911 166.599L40.5713 160.572Z" fill="#07038D"/>
<path d="M42.2384 159.884C42.494 159.688 42.5422 159.322 42.3461 159.067C42.15 158.811 41.7838 158.763 41.5282 158.959C41.2726 159.155 41.2244 159.521 41.4205 159.777C41.6167 160.032 41.9828 160.081 42.2384 159.884Z" fill="#07038D"/>
<path d="M56.6646 181.548L52.22 174.849L50.6663 171.158L53.086 174.349L56.6646 181.548Z" fill="#07038D"/>
<path d="M54.8769 181.78C54.5793 181.903 54.4379 182.245 54.5612 182.542C54.6845 182.84 55.0257 182.981 55.3234 182.858C55.621 182.735 55.7624 182.393 55.6391 182.096C55.5158 181.798 55.1746 181.657 54.8769 181.78Z" fill="#07038D"/>
<path d="M43.3315 158.454L47.7761 165.152L49.3298 168.843L46.9101 165.652L43.3315 158.454Z" fill="#07038D"/>
<path d="M45.1192 158.221C45.4168 158.098 45.5582 157.757 45.4349 157.459C45.3116 157.162 44.9704 157.02 44.6727 157.143C44.3751 157.267 44.2337 157.608 44.357 157.906C44.4803 158.203 44.8215 158.345 45.1192 158.221Z" fill="#07038D"/>
<path d="M53.4487 182.879L50.8891 175.259L50.3437 171.292L51.8551 175L53.4487 182.879Z" fill="#07038D"/>
<path d="M51.662 182.641C51.3425 182.683 51.1177 182.976 51.1598 183.296C51.2018 183.615 51.4948 183.84 51.8142 183.798C52.1336 183.756 52.3585 183.463 52.3164 183.143C52.2744 182.824 51.9814 182.599 51.662 182.641Z" fill="#07038D"/>
<path d="M46.5464 157.122L49.106 164.742L49.6514 168.709L48.1401 165.001L46.5464 157.122Z" fill="#07038D"/>
<path d="M48.3332 157.36C48.6526 157.318 48.8774 157.025 48.8354 156.705C48.7933 156.386 48.5003 156.161 48.1809 156.203C47.8615 156.245 47.6366 156.538 47.6787 156.858C47.7207 157.177 48.0138 157.402 48.3332 157.36Z" fill="#07038D"/>
</g>
<g clip-path="url(#clip2_1677_4549)">
<path d="M245 220L95 220V120L245 120V220Z" fill="#FF0000"/>
<path d="M170 200L187.65 145.75L141.45 179.25H198.55L152.35 145.75L170 200Z" fill="#FFEB00"/>
</g>
<rect x="219.5" y="219.5" width="99" height="99" rx="49.5" transform="rotate(-180 219.5 219.5)" stroke="#EAECF0"/>
<g clip-path="url(#clip3_1677_4549)">
<path d="M110 120H310V170L141.111 218.889L110 120Z" fill="#0038A8"/>
<path d="M141.111 170H310V220H110L141.111 170Z" fill="#CE1126"/>
<path d="M196.602 170L110 220V120L196.602 170Z" fill="white"/>
<path d="M141.111 180C146.634 180 151.111 175.523 151.111 170C151.111 164.477 146.634 160 141.111 160C135.588 160 131.111 164.477 131.111 170C131.111 175.523 135.588 180 141.111 180Z" fill="#FCD116"/>
<path d="M141.111 170L137.596 152.323L138.646 151.272L141.111 170ZM141.111 170L139.812 150.188L141.111 148.889L142.41 150.188L141.111 170ZM141.111 170L143.577 151.272L144.627 152.323L141.111 170Z" fill="#FCD116"/>
<path d="M141.111 170L144.627 187.676L143.577 188.728L141.111 170ZM141.111 170L142.41 189.812L141.111 191.111L139.813 189.812L141.111 170ZM141.111 170L138.646 188.728L137.596 187.676L141.111 170Z" fill="#FCD116"/>
<path d="M141.112 170L158.788 166.484L159.839 167.534L141.112 170ZM141.112 170L160.924 168.701L162.223 170L160.924 171.299L141.112 170ZM141.112 170L159.839 172.465L158.788 173.515L141.112 170Z" fill="#FCD116"/>
<path d="M141.111 170L123.434 173.516L122.383 172.466L141.111 170ZM141.111 170L121.299 171.299L120 170L121.299 168.701L141.111 170ZM141.111 170L122.383 167.535L123.434 166.485L141.111 170Z" fill="#FCD116"/>
<path d="M141.111 170L151.124 155.015L152.61 155.014L141.111 170ZM141.111 170L154.202 155.072L156.039 155.072L156.039 156.909L141.111 170ZM141.111 170L156.097 158.501L156.096 159.987L141.111 170Z" fill="#FCD116"/>
<path d="M141.111 170L131.097 184.985L129.612 184.986L141.111 170ZM141.111 170L128.02 184.928L126.183 184.928L126.183 183.091L141.111 170ZM141.111 170L126.125 181.499L126.126 180.013L141.111 170Z" fill="#FCD116"/>
<path d="M141.112 170L156.097 180.014L156.098 181.5L141.112 170ZM141.112 170L156.04 183.091L156.04 184.928L154.203 184.928L141.112 170ZM141.112 170L152.611 184.986L151.125 184.986L141.112 170Z" fill="#FCD116"/>
<path d="M141.111 170.001L126.126 159.987L126.125 158.501L141.111 170.001ZM141.111 170.001L126.183 156.91L126.183 155.073L128.02 155.073L141.111 170.001ZM141.111 170.001L129.612 155.015L131.098 155.015L141.111 170.001Z" fill="#FCD116"/>
<path d="M186.602 170L182.844 171.307L182.763 175.283L180.36 172.113L176.552 173.266L178.824 170L176.552 166.735L180.36 167.887L182.763 164.717L182.844 168.693L186.602 170Z" fill="#FCD116"/>
<path d="M115 211.339L115.747 207.432L112.344 205.373L116.291 204.877L117.197 201.003L118.889 204.603L122.853 204.268L119.951 206.99L121.495 210.656L118.011 208.738L115 211.339Z" fill="#FCD116"/>
<path d="M115.001 128.661L118.011 131.262L121.496 129.344L119.952 133.01L122.854 135.731L118.89 135.396L117.198 138.997L116.292 135.123L112.345 134.627L115.748 132.568L115.001 128.661Z" fill="#FCD116"/>
</g>
<rect x="120.5" y="120.5" width="99" height="99" rx="49.5" stroke="#EAECF0"/>
<rect x="188.5" y="184.5" width="39" height="39" rx="19.5" fill="white"/>
<rect x="188.5" y="184.5" width="39" height="39" rx="19.5" stroke="#EAECF0"/>
<path d="M205.844 204C205.844 205.296 206.891 206.344 208.188 206.344C209.484 206.344 210.531 205.296 210.531 204C210.531 203.163 210.086 202.39 209.359 201.97C208.633 201.551 207.742 201.551 207.016 201.97C206.289 202.39 205.844 203.163 205.844 204ZM198.812 204C198.812 205.296 199.86 206.344 201.156 206.344C202.452 206.344 203.5 205.296 203.5 204C203.5 203.163 203.055 202.39 202.328 201.97C201.602 201.551 200.711 201.551 199.984 201.97C199.258 202.39 198.812 203.163 198.812 204ZM212.875 204C212.875 205.296 213.923 206.344 215.219 206.344C216.515 206.344 217.562 205.296 217.562 204C217.562 203.163 217.117 202.39 216.391 201.97C215.664 201.551 214.773 201.551 214.047 201.97C213.32 202.39 212.875 203.163 212.875 204Z" fill="#2B2B2B"/>
<defs>
<clipPath id="clip0_1677_4549">
<rect x="60" width="100" height="100" rx="50" fill="white"/>
</clipPath>
<clipPath id="clip1_1677_4549">
<rect y="120" width="100" height="100" rx="50" fill="white"/>
</clipPath>
<clipPath id="clip2_1677_4549">
<rect x="220" y="220" width="100" height="100" rx="50" transform="rotate(-180 220 220)" fill="white"/>
</clipPath>
<clipPath id="clip3_1677_4549">
<rect x="120" y="120" width="100" height="100" rx="50" fill="white"/>
</clipPath>
</defs>
</svg>
