<svg width="72" height="72" viewBox="0 0 72 72" fill="none" xmlns="http://www.w3.org/2000/svg">
<g filter="url(#filter0_d_4684_19183)">
<rect x="12" y="4" width="48" height="48" rx="8" fill="white"/>
<path d="M38.113 14.7509C38.8422 14.0101 39.7107 13.4209 40.6686 13.0174C41.6265 12.614 42.6548 12.4041 43.6942 12.4C44.7336 12.3958 45.7636 12.5975 46.7246 12.9934C47.6857 13.3893 48.5589 13.9715 49.2939 14.7065C50.0289 15.4415 50.6111 16.3147 51.0069 17.2758C51.4028 18.2369 51.6045 19.2669 51.6003 20.3063C51.5962 21.3457 51.3863 22.374 50.9829 23.332C50.5794 24.2899 49.9903 25.1585 49.2495 25.8876L44.2482 30.889L41.9127 28.5567L46.9139 23.5536C47.3388 23.129 47.6758 22.6248 47.9058 22.0699C48.1358 21.515 48.2543 20.9203 48.2544 20.3196C48.2546 19.7189 48.1364 19.1241 47.9067 18.5691C47.677 18.014 47.3402 17.5097 46.9156 17.0849C46.4909 16.66 45.9868 16.3229 45.4319 16.0929C44.877 15.8629 44.2823 15.7445 43.6816 15.7443C43.0809 15.7441 42.4861 15.8623 41.9311 16.092C41.3761 16.3218 40.8718 16.6586 40.447 17.0832L35.4441 22.0862L33.1102 19.7523L38.1114 14.7509H38.113ZM41.6123 24.7206L32.6744 33.6571L30.3405 31.3231L39.2767 22.3866L41.6123 24.7206ZM30.0417 27.4871L25.0405 32.4901C24.6156 32.9149 24.2786 33.4193 24.0487 33.9744C23.8188 34.5295 23.7005 35.1245 23.7005 35.7253C23.7005 36.3261 23.8188 36.9211 24.0487 37.4762C24.2786 38.0313 24.6156 38.5356 25.0405 38.9605C25.4653 39.3854 25.9697 39.7224 26.5248 39.9523C27.0799 40.1822 27.6748 40.3006 28.2756 40.3006C28.8764 40.3006 29.4714 40.1822 30.0265 39.9523C30.5815 39.7224 31.0859 39.3854 31.5107 38.9605L36.512 33.9575L38.8459 36.2915L33.8447 41.2928C32.3679 42.7699 30.3648 43.5997 28.2762 43.5999C26.1876 43.6001 24.1844 42.7705 22.7074 41.2937C21.2304 39.8168 20.4005 37.8137 20.4004 35.725C20.4002 33.6364 21.2298 31.6331 22.7066 30.1561L27.7078 25.1547L30.0434 27.4871H30.0417Z" fill="#6A4BB4"/>
</g>
<defs>
<filter id="filter0_d_4684_19183" x="0" y="0" width="72" height="72" filterUnits="userSpaceOnUse" color-interpolation-filters="sRGB">
<feFlood flood-opacity="0" result="BackgroundImageFix"/>
<feColorMatrix in="SourceAlpha" type="matrix" values="0 0 0 0 0 0 0 0 0 0 0 0 0 0 0 0 0 0 127 0" result="hardAlpha"/>
<feOffset dy="8"/>
<feGaussianBlur stdDeviation="6"/>
<feComposite in2="hardAlpha" operator="out"/>
<feColorMatrix type="matrix" values="0 0 0 0 0 0 0 0 0 0 0 0 0 0 0 0 0 0 0.12 0"/>
<feBlend mode="normal" in2="BackgroundImageFix" result="effect1_dropShadow_4684_19183"/>
<feBlend mode="normal" in="SourceGraphic" in2="effect1_dropShadow_4684_19183" result="shape"/>
</filter>
</defs>
</svg>
