<svg width="72" height="72" viewBox="0 0 72 72" fill="none" xmlns="http://www.w3.org/2000/svg">
<g filter="url(#filter0_d_4684_19179)">
<rect x="12" y="4" width="48" height="48" rx="8" fill="white"/>
<path d="M20.4004 17.7332V38.2666C20.4004 39.5499 21.4404 40.5999 22.7115 40.5999H49.2893C50.5604 40.5999 51.6004 39.5499 51.6004 38.2666V17.7332C51.6004 16.4499 50.5604 15.3999 49.2893 15.3999H22.7115C21.4404 15.3999 20.4004 16.4499 20.4004 17.7332ZM40.6226 38.2666H22.7115V32.3749H40.6226V38.2666ZM40.6226 30.0416H22.7115V24.2082H40.6226V30.0416ZM49.2893 38.2666H42.9337V24.2082H49.2893V38.2666ZM49.2893 21.8749H22.7115V17.7332H49.2893V21.8749Z" fill="#3A8EE5"/>
</g>
<defs>
<filter id="filter0_d_4684_19179" x="0" y="0" width="72" height="72" filterUnits="userSpaceOnUse" color-interpolation-filters="sRGB">
<feFlood flood-opacity="0" result="BackgroundImageFix"/>
<feColorMatrix in="SourceAlpha" type="matrix" values="0 0 0 0 0 0 0 0 0 0 0 0 0 0 0 0 0 0 127 0" result="hardAlpha"/>
<feOffset dy="8"/>
<feGaussianBlur stdDeviation="6"/>
<feComposite in2="hardAlpha" operator="out"/>
<feColorMatrix type="matrix" values="0 0 0 0 0 0 0 0 0 0 0 0 0 0 0 0 0 0 0.12 0"/>
<feBlend mode="normal" in2="BackgroundImageFix" result="effect1_dropShadow_4684_19179"/>
<feBlend mode="normal" in="SourceGraphic" in2="effect1_dropShadow_4684_19179" result="shape"/>
</filter>
</defs>
</svg>
