<svg width="72" height="72" viewBox="0 0 72 72" fill="none" xmlns="http://www.w3.org/2000/svg">
<g filter="url(#filter0_d_4684_19175)">
<rect x="12" y="4" width="48" height="48" rx="8" fill="white"/>
<path d="M27.6662 12.3999C23.6563 12.3999 20.4004 15.6616 20.4004 19.6758C20.4004 23.6937 23.6544 26.9516 27.6682 26.9516H32.7085C33.9381 26.9516 34.932 25.9501 34.932 24.7194V19.6738C34.9315 15.6566 31.6795 12.3999 27.6662 12.3999ZM32.7073 24.7194V24.7203C32.7079 24.7219 32.7084 24.7236 32.7088 24.7253H27.6682C26.6682 24.7279 25.6898 24.4334 24.8571 23.879C24.0243 23.3246 23.3747 22.5353 22.9904 21.611C22.6062 20.6868 22.5046 19.6691 22.6985 18.687C22.8924 17.7049 23.3732 16.8025 24.0799 16.0941C24.7865 15.3858 25.6873 14.9032 26.6681 14.7077C27.649 14.5122 28.6657 14.6124 29.5896 14.9958C30.5134 15.3791 31.3028 16.0283 31.8578 16.8611C32.4129 17.6939 32.7085 18.6728 32.7073 19.6739V24.7194ZM32.708 29.0523H27.6682C23.655 29.0523 20.4016 32.3086 20.4016 36.326C20.4016 40.3401 23.6563 43.5999 27.6669 43.5999C31.6801 43.5999 34.9321 40.3431 34.9321 36.3257V31.2803C34.9315 30.0493 33.9375 29.0523 32.708 29.0523ZM32.7073 36.3256C32.7083 37.3177 32.4168 38.2881 31.8693 39.1151C31.3218 39.9421 30.5425 40.5889 29.6293 40.9744C29.0092 41.2369 28.3493 41.3671 27.6682 41.3671C26.9877 41.3671 26.3283 41.2369 25.7079 40.9742C24.6347 40.5224 23.7509 39.7126 23.2066 38.6824C22.6623 37.6522 22.491 36.4652 22.722 35.3229C22.9529 34.1807 23.5718 33.1537 24.4735 32.4165C25.3752 31.6793 26.504 31.2773 27.6682 31.2788H32.7094C32.7089 31.2787 32.7084 31.2787 32.7079 31.2788V36.3251L32.7073 36.3256ZM44.3335 29.0523H39.2933C39.001 29.0523 38.7116 29.1098 38.4415 29.2218C38.1715 29.3337 37.9261 29.4978 37.7194 29.7047C37.5127 29.9116 37.3488 30.1572 37.237 30.4275C37.1251 30.6979 37.0676 30.9876 37.0677 31.2802V36.3256C37.0677 40.343 40.3207 43.5997 44.3339 43.5997C48.3439 43.5997 51.6004 40.3401 51.6004 36.326C51.6003 32.3086 48.3468 29.0523 44.3335 29.0523ZM48.9804 38.2877C48.5289 39.3622 47.7197 40.2471 46.6903 40.7921C45.661 41.3371 44.4749 41.5086 43.3335 41.2774C42.1921 41.0462 41.1659 40.4267 40.4292 39.524C39.6924 38.6212 39.2906 37.491 39.2919 36.3254V31.2788H44.333C45.165 31.279 45.9839 31.4851 46.717 31.8789C47.45 32.2726 48.0744 32.8418 48.5345 33.5356C48.9945 34.2295 49.276 35.0265 49.3538 35.8556C49.4316 36.6847 49.3033 37.5202 48.9804 38.2877ZM39.2933 26.9516H44.3335C48.3468 26.9516 51.6001 23.6937 51.6001 19.6757C51.6001 15.6616 48.3439 12.4008 44.3339 12.4008C40.3207 12.4008 37.0677 15.6565 37.0677 19.6738V24.7192C37.0677 25.9501 38.0637 26.9516 39.2933 26.9516ZM39.2919 19.6738C39.2927 18.6757 39.5891 17.7002 40.1436 16.8707C40.6982 16.0412 41.486 15.3949 42.4074 15.0135C43.3288 14.6321 44.3425 14.5328 45.3204 14.728C46.2982 14.9233 47.1962 15.4044 47.901 16.1105C48.6057 16.8165 49.0855 17.7159 49.2797 18.695C49.4738 19.674 49.3737 20.6886 48.9919 21.6106C48.61 22.5327 47.9637 23.3207 47.1345 23.8751C46.3054 24.4294 45.3306 24.7253 44.3335 24.7252H39.2919C39.2917 24.7235 39.2917 24.7218 39.2919 24.7201V19.6738Z" fill="#58B69B"/>
</g>
<defs>
<filter id="filter0_d_4684_19175" x="0" y="0" width="72" height="72" filterUnits="userSpaceOnUse" color-interpolation-filters="sRGB">
<feFlood flood-opacity="0" result="BackgroundImageFix"/>
<feColorMatrix in="SourceAlpha" type="matrix" values="0 0 0 0 0 0 0 0 0 0 0 0 0 0 0 0 0 0 127 0" result="hardAlpha"/>
<feOffset dy="8"/>
<feGaussianBlur stdDeviation="6"/>
<feComposite in2="hardAlpha" operator="out"/>
<feColorMatrix type="matrix" values="0 0 0 0 0 0 0 0 0 0 0 0 0 0 0 0 0 0 0.12 0"/>
<feBlend mode="normal" in2="BackgroundImageFix" result="effect1_dropShadow_4684_19175"/>
<feBlend mode="normal" in="SourceGraphic" in2="effect1_dropShadow_4684_19175" result="shape"/>
</filter>
</defs>
</svg>
