<svg width="48" height="48" viewBox="0 0 48 48" fill="none" xmlns="http://www.w3.org/2000/svg">
<rect width="48" height="48" rx="8" fill="white"/>
<path d="M26.113 10.7509C26.8422 10.0101 27.7107 9.4209 28.6686 9.0174C29.6265 8.614 30.6548 8.4041 31.6942 8.4C32.7336 8.3958 33.7636 8.5975 34.7246 8.9934C35.6857 9.3893 36.5589 9.9715 37.2939 10.7065C38.0289 11.4415 38.6111 12.3147 39.0069 13.2758C39.4028 14.2369 39.6045 15.2669 39.6003 16.3063C39.5962 17.3457 39.3863 18.374 38.9829 19.332C38.5794 20.2899 37.9903 21.1585 37.2495 21.8876L32.2482 26.889L29.9127 24.5567L34.9139 19.5536C35.3388 19.129 35.6758 18.6248 35.9058 18.0699C36.1358 17.515 36.2543 16.9203 36.2544 16.3196C36.2546 15.7189 36.1364 15.1241 35.9067 14.5691C35.677 14.014 35.3402 13.5097 34.9156 13.0849C34.4909 12.66 33.9868 12.3229 33.4319 12.0929C32.877 11.8629 32.2823 11.7445 31.6816 11.7443C31.0809 11.7441 30.4861 11.8623 29.9311 12.092C29.3761 12.3218 28.8718 12.6586 28.447 13.0832L23.4441 18.0862L21.1102 15.7523L26.1114 10.7509H26.113ZM29.6123 20.7206L20.6744 29.6571L18.3405 27.3231L27.2767 18.3866L29.6123 20.7206ZM18.0417 23.4871L13.0405 28.4901C12.6156 28.9149 12.2786 29.4193 12.0487 29.9744C11.8188 30.5295 11.7005 31.1245 11.7005 31.7253C11.7005 32.3261 11.8188 32.9211 12.0487 33.4762C12.2786 34.0313 12.6156 34.5356 13.0405 34.9605C13.4653 35.3854 13.9697 35.7224 14.5248 35.9523C15.0799 36.1822 15.6748 36.3006 16.2756 36.3006C16.8764 36.3006 17.4714 36.1822 18.0265 35.9523C18.5815 35.7224 19.0859 35.3854 19.5107 34.9605L24.512 29.9575L26.8459 32.2915L21.8447 37.2928C20.3679 38.7699 18.3648 39.5997 16.2762 39.5999C14.1876 39.6001 12.1844 38.7705 10.7074 37.2937C9.2304 35.8168 8.4005 33.8137 8.4004 31.725C8.4002 29.6364 9.2298 27.6331 10.7066 26.1561L15.7078 21.1547L18.0434 23.4871H18.0417Z" fill="#6A4BB4"/>
</svg>
