<svg width="24" height="24" viewBox="0 0 24 24" fill="none" xmlns="http://www.w3.org/2000/svg">
<path d="M11.9956 2C6.47368 2.00224 1.99933 6.47977 2 12.0013C2.00067 17.5229 6.47681 21.9993 11.9985 22C17.5203 22.0007 21.9973 17.526 22 12.0042C22.0006 10.6903 21.7422 9.38911 21.2396 8.17508C20.737 6.96104 20.0001 5.85795 19.071 4.92885C18.1419 3.99976 17.0388 3.26288 15.8248 2.76033C14.6107 2.25778 13.3096 1.99941 11.9956 2ZM17.7347 9.408L11.263 15.875C11.1786 15.9621 11.0776 16.0313 10.9659 16.0786C10.8542 16.1259 10.7342 16.1503 10.6129 16.1503C10.4916 16.1503 10.3716 16.1259 10.2599 16.0786C10.1482 16.0313 10.0472 15.9621 9.9628 15.875L6.23917 12.1518C6.06671 11.9793 5.96983 11.7455 5.96983 11.5016C5.96983 11.2577 6.06671 11.0238 6.23917 10.8513C6.41162 10.6789 6.64551 10.582 6.88939 10.582C7.13328 10.582 7.36717 10.6789 7.53962 10.8513L10.6259 13.9376L16.4517 8.13347C16.5368 8.04705 16.6382 7.97834 16.7501 7.93129C16.8619 7.88425 16.9819 7.8598 17.1033 7.85936C17.2246 7.85892 17.3448 7.8825 17.457 7.92873C17.5691 7.97496 17.6711 8.04294 17.7568 8.12873C17.8426 8.21453 17.9106 8.31646 17.9568 8.42864C18.003 8.54082 18.0266 8.66104 18.0261 8.78237C18.0256 8.90369 18.0012 9.02373 17.9541 9.13556C17.9071 9.24738 17.8383 9.34879 17.7519 9.43394L17.7347 9.408Z" fill="#7A49E9"/>
</svg>
