<svg width="40" height="40" viewBox="0 0 40 40" fill="none" xmlns="http://www.w3.org/2000/svg">
<path d="M3.94454 14.0536L25.9062 11.9382L30.0062 11.3382L25.4484 4.78503C24.4717 3.23105 22.4413 2.69067 20.7451 3.53273L3.94458 12.4001L3.94454 14.0536Z" fill="#FF30B3"/>
<path d="M16.1266 13.6692L31.8264 13.9691L35.2264 13.6691L31.5691 6.81568C30.5926 5.26152 28.5623 4.72077 26.866 5.56252L15.3265 11.631L16.1266 13.6692Z" fill="#7CD0E8"/>
<path d="M32.4527 10C35.2952 10 37.5996 12.26 37.5996 15.0481V18.7494L30.3534 18.75C27.9634 18.75 26.0077 20.6137 25.9352 22.9344L25.9327 23.0856C25.9327 25.4294 27.8327 27.3475 30.1996 27.4181L30.3534 27.4206H37.5996V31.2019C37.5996 33.9894 35.2952 36.25 32.4527 36.25H7.74648C4.90398 36.25 2.59961 33.99 2.59961 31.2019V15.0481C2.59961 12.2606 4.90398 10 7.74648 10H32.4527Z" fill="#7A49E9"/>
<path d="M27.5 23.125C27.5 23.788 27.7634 24.4239 28.2322 24.8928C28.7011 25.3616 29.337 25.625 30 25.625C30.663 25.625 31.2989 25.3616 31.7678 24.8928C32.2366 24.4239 32.5 23.788 32.5 23.125C32.5 22.462 32.2366 21.8261 31.7678 21.3572C31.2989 20.8884 30.663 20.625 30 20.625C29.337 20.625 28.7011 20.8884 28.2322 21.3572C27.7634 21.8261 27.5 22.462 27.5 23.125Z" fill="#7CD0E8"/>
</svg>
