<svg width="40" height="40" viewBox="0 0 40 40" fill="none" xmlns="http://www.w3.org/2000/svg">
<path d="M38.125 1.87493C38.125 1.87493 26 -0.125072 21.625 4.24993L13.625 12.2499C10.25 11.9999 7.625 12.9999 5.75 14.8749C3.75 16.8749 2.375 19.4999 1.75 22.2499C4.75 22.9999 6.625 23.3749 9.125 25.2499C8.875 26.7499 9.375 28.3749 10.5 29.4999C11.625 30.6249 13.25 31.1249 14.75 30.8749C16.625 33.3749 17 35.3749 17.75 38.2499C20.5 37.6249 23.125 36.2499 25.125 34.2499C27 32.3749 28 29.6249 27.75 26.3749L35.75 18.3749C40.25 13.9999 38.125 1.87493 38.125 1.87493ZM30 17.1249C28.75 18.3749 26.875 18.9999 25.125 18.4999C23.375 17.9999 22 16.6249 21.5 14.8749C21 13.1249 21.5 11.2499 22.875 9.99993C24.875 8.12493 28 8.12493 29.875 10.1249C31.75 12.1249 31.875 15.1249 30 17.1249Z" fill="#7A49E9"/>
<path d="M6.51106 22.9899C3.59068 25.9168 1.40039 38.6 1.40039 38.6C1.40039 38.6 14.0554 36.1609 16.9758 33.4779C18.9227 31.5267 19.6528 28.8437 18.9227 26.4046C18.1926 23.9655 16.2457 22.0143 13.812 21.2825C11.3784 20.5508 8.45798 21.2825 6.51106 22.9899Z" fill="#7CD0E8"/>
</svg>
