<svg width="40" height="40" viewBox="0 0 40 40" fill="none" xmlns="http://www.w3.org/2000/svg">
<path d="M13.7598 32.4999L26.2598 35.8399V29.2599H13.7598V32.4999ZM19.9998 15.9999C19.9998 14.5799 18.8398 13.3399 17.3398 13.3399H13.7598L13.7598 18.5799H17.3198C18.8398 18.6599 19.9998 17.4999 19.9998 15.9999Z" fill="#7A49E9"/>
<path d="M22.6598 15.9999C22.6598 18.9199 20.2398 21.2399 17.4198 21.2399H13.7598V26.4799H26.2598V4.15991L13.7598 7.49991V10.8399H17.4198C20.2598 10.7599 22.6598 13.1599 22.6598 15.9999Z" fill="#7A49E9"/>
<path d="M17.3398 13.3399C18.8398 13.3399 19.9998 14.5799 19.9998 15.9999C19.9998 17.4999 18.8398 18.6599 17.3198 18.5799H13.7598L13.7598 21.2399H17.4198C20.2398 21.2399 22.6598 18.9199 22.6598 15.9999C22.6598 13.1599 20.2598 10.7599 17.4198 10.8399H13.7598L13.7598 13.3399H17.3398Z" fill="#7A49E9"/>
<path d="M13.7598 29.2599H26.2598V26.4799H13.7598L13.7598 29.2599Z" fill="#7A49E9"/>
<path d="M13.7397 10.7599V13.3999H17.7996C18.5329 13.5332 19.9996 14.2399 19.9996 15.9999C19.9996 17.7599 18.5329 18.4532 17.7996 18.5799H13.6597V21.2599H17.7996C19.3996 21.2599 22.6996 19.6999 22.6996 15.9999C22.6996 12.7999 19.5996 10.7599 17.7996 10.7599H13.7397Z" fill="#7CD0E8"/>
<path d="M13.6597 26.5799V29.2599H26.2597V26.5999L13.6597 26.5799Z" fill="#7CD0E8"/>
<path fill-rule="evenodd" clip-rule="evenodd" d="M6.83969 9.41992C7.83969 9.41992 8.65969 9.91992 9.07969 10.7599H13.7397V13.3999H9.07969C8.67969 14.2399 7.83969 14.7399 6.83969 14.7399C5.33969 14.7399 4.17969 13.5799 4.17969 12.0799C4.17969 10.5799 5.41969 9.41992 6.83969 9.41992ZM6.75969 23.9199C6.75969 25.4199 7.99969 26.5799 9.41969 26.5799H13.6597V29.2599H9.41969C6.51969 29.2599 4.17969 26.7199 4.17969 23.8199C4.17969 20.9199 6.49969 18.5799 9.41969 18.5799H13.6597V21.2599H9.41969C7.91969 21.2599 6.75969 22.4199 6.75969 23.9199Z" fill="#7CD0E8"/>
<path d="M33.1597 25.2599C32.1597 25.2599 31.3197 25.7599 30.9197 26.5999H26.2597V29.2599H30.9197C31.4197 30.0999 32.2597 30.5999 33.1597 30.5999C34.5797 30.5999 35.8197 29.4399 35.8197 27.9399C35.8397 26.4199 34.6597 25.2599 33.1597 25.2599Z" fill="#7CD0E8"/>
</svg>
