<svg width="20" height="20" viewBox="0 0 20 20" fill="none" xmlns="http://www.w3.org/2000/svg">
<path d="M9.99572 1.66675C5.39408 1.66861 1.66546 5.39989 1.66602 10.0012C1.66657 14.6025 5.39669 18.3329 9.99814 18.3334C14.5996 18.334 18.3304 14.6051 18.3327 10.0036C18.3331 8.90866 18.1178 7.82434 17.699 6.81264C17.2802 5.80095 16.6661 4.8817 15.8919 4.10746C15.1176 3.33321 14.1984 2.71915 13.1867 2.30035C12.175 1.88156 11.0907 1.66626 9.99572 1.66675ZM14.7782 7.84009L9.38521 13.2293C9.31487 13.3018 9.23067 13.3595 9.1376 13.3989C9.04454 13.4383 8.94451 13.4586 8.84344 13.4586C8.74238 13.4586 8.64235 13.4383 8.54929 13.3989C8.45622 13.3595 8.37202 13.3018 8.30168 13.2293L5.19865 10.1266C5.05494 9.98287 4.97421 9.78796 4.97421 9.58472C4.97421 9.38148 5.05494 9.18657 5.19865 9.04286C5.34236 8.89915 5.53727 8.81841 5.74051 8.81841C5.94375 8.81841 6.13866 8.89915 6.28237 9.04286L8.85425 11.6148L13.7091 6.77797C13.78 6.70596 13.8645 6.6487 13.9577 6.60949C14.0509 6.57029 14.151 6.54992 14.2521 6.54955C14.3532 6.54919 14.4534 6.56883 14.5468 6.60736C14.6403 6.64588 14.7252 6.70253 14.7967 6.77403C14.8682 6.84553 14.9248 6.93047 14.9633 7.02395C15.0019 7.11743 15.0215 7.21762 15.0211 7.31872C15.0207 7.41983 15.0003 7.51986 14.9611 7.61305C14.9219 7.70624 14.8646 7.79074 14.7926 7.8617L14.7782 7.84009Z" fill="#7A49E9"/>
</svg>
