<svg width="32" height="32" viewBox="0 0 32 32" fill="none" xmlns="http://www.w3.org/2000/svg">
<path fill-rule="evenodd" clip-rule="evenodd" d="M27.2001 2.58422C27.2001 2.32309 27.0964 2.07265 26.9117 1.888C26.7271 1.70335 26.4766 1.59961 26.2155 1.59961H2.58471C2.32358 1.59961 2.07314 1.70335 1.88848 1.888C1.70383 2.07265 1.6001 2.32309 1.6001 2.58422V26.215C1.6001 26.4761 1.70383 26.7266 1.88848 26.9112C2.07314 27.0959 2.32358 27.1996 2.58471 27.1996H26.2155C26.2155 27.1996 26.7036 27.1193 26.9117 26.9112C27.1198 26.7031 27.2001 26.215 27.2001 26.215V2.58422ZM20.3029 21.5159C20.3029 22.0284 19.8874 22.4439 19.3749 22.4439C18.8623 22.4439 18.4469 22.0284 18.4469 21.5159C18.4469 21.0034 18.8623 20.5879 19.3749 20.5879C19.8874 20.5879 20.3029 21.0034 20.3029 21.5159ZM15.6729 18.5502C15.8575 18.3656 16.1079 18.2618 16.369 18.2618H22.2767C22.5378 18.2618 22.7882 18.3656 22.9728 18.5502C23.1575 18.7349 23.2612 18.9853 23.2612 19.2464C23.2612 19.5075 23.1575 19.7579 22.9728 19.9426C22.7882 20.1272 22.5378 20.231 22.2767 20.231H16.369C16.1079 20.231 15.8575 20.1272 15.6729 19.9426C15.4883 19.7579 15.3846 19.5075 15.3846 19.2464C15.3846 18.9853 15.4883 18.7349 15.6729 18.5502ZM20.3029 16.8045C20.3029 17.3171 19.8874 17.7325 19.3749 17.7325C18.8623 17.7325 18.4469 17.3171 18.4469 16.8045C18.4469 16.292 18.8623 15.8765 19.3749 15.8765C19.8874 15.8765 20.3029 16.292 20.3029 16.8045ZM11.9399 16.3255C12.0585 16.3768 12.1652 16.4519 12.2536 16.5461C12.3478 16.6345 12.4229 16.7412 12.4742 16.8598C12.5255 16.9783 12.552 17.1061 12.552 17.2353C12.552 17.3645 12.5255 17.4923 12.4742 17.6108C12.4229 17.7294 12.3478 17.8361 12.2536 17.9245L10.8752 19.3227L12.2536 20.7208C12.3457 20.811 12.4189 20.9185 12.4691 21.0372C12.5193 21.1558 12.5455 21.2833 12.5461 21.4121C12.5468 21.5409 12.5219 21.6686 12.4729 21.7878C12.4239 21.9069 12.3517 22.0152 12.2606 22.1063C12.1695 22.1974 12.0613 22.2695 11.9421 22.3185C11.823 22.3675 11.6953 22.3924 11.5664 22.3918C11.4376 22.3911 11.3102 22.365 11.1915 22.3148C11.0729 22.2645 10.9654 22.1913 10.8752 22.0993L9.47702 20.7208L8.07887 22.0993C7.98869 22.1913 7.88117 22.2645 7.76251 22.3148C7.64386 22.365 7.51643 22.3911 7.3876 22.3918C7.25876 22.3924 7.13108 22.3675 7.01192 22.3185C6.89277 22.2695 6.78451 22.1974 6.69341 22.1063C6.60231 22.0152 6.53017 21.9069 6.48117 21.7878C6.43216 21.6686 6.40727 21.5409 6.40792 21.4121C6.40857 21.2833 6.43475 21.1558 6.48496 21.0372C6.53516 20.9185 6.60839 20.811 6.70041 20.7208L8.07887 19.3227L6.70041 17.9245C6.60839 17.8344 6.53516 17.7268 6.48496 17.6082C6.43475 17.4895 6.40857 17.3621 6.40792 17.2333C6.40727 17.1044 6.43216 16.9767 6.48117 16.8576C6.53017 16.7384 6.60231 16.6302 6.69341 16.5391C6.78451 16.448 6.89277 16.3758 7.01192 16.3268C7.13108 16.2778 7.25876 16.2529 7.3876 16.2536C7.51643 16.2542 7.64386 16.2804 7.76251 16.3306C7.88117 16.3808 7.98869 16.4541 8.07887 16.5461L9.47702 17.9245L10.8752 16.5461C10.9636 16.4519 11.0703 16.3768 11.1889 16.3255C11.3074 16.2742 11.4352 16.2477 11.5644 16.2477C11.6936 16.2477 11.8214 16.2742 11.9399 16.3255ZM13.4155 9.47653C13.4155 9.2154 13.3117 8.96496 13.1271 8.7803C12.9424 8.59565 12.692 8.49192 12.4309 8.49192H10.4616V6.52269C10.4616 6.26158 10.3578 6.01118 10.1732 5.82657C9.98854 5.64195 9.73813 5.53824 9.47702 5.53824C9.21591 5.53824 8.9655 5.64195 8.78085 5.82657C8.5962 6.01118 8.49245 6.26158 8.49241 6.52269V8.49192H6.52318C6.26207 8.49196 6.01167 8.59572 5.82705 8.78036C5.64244 8.96501 5.53872 9.21543 5.53872 9.47653C5.53872 9.73764 5.64244 9.98806 5.82705 10.1727C6.01167 10.3573 6.26207 10.4611 6.52318 10.4611H8.49241V12.4304C8.49245 12.6915 8.5962 12.9419 8.78085 13.1265C8.9655 13.3111 9.21591 13.4148 9.47702 13.4148C9.73813 13.4148 9.98854 13.3111 10.1732 13.1265C10.3578 12.9419 10.4616 12.6915 10.4616 12.4304V10.4611H12.4309C12.692 10.4611 12.9424 10.3574 13.1271 10.1728C13.3117 9.98811 13.4155 9.73767 13.4155 9.47653ZM15.6732 8.78036C15.8578 8.59572 16.1082 8.49196 16.3693 8.49192H22.277C22.5381 8.49196 22.7885 8.59572 22.9731 8.78036C23.1578 8.96501 23.2615 9.21543 23.2615 9.47653C23.2615 9.73764 23.1578 9.98806 22.9731 10.1727C22.7885 10.3573 22.5381 10.4611 22.277 10.4611H16.3693C16.1082 10.4611 15.8578 10.3573 15.6732 10.1727C15.4886 9.98806 15.3849 9.73764 15.3849 9.47653C15.3849 9.21543 15.4886 8.96501 15.6732 8.78036Z" fill="#D9D9D9"/>
<path fill-rule="evenodd" clip-rule="evenodd" d="M17.9553 15.7486C19.2709 14.8696 20.8177 14.4004 22.3999 14.4004C24.5216 14.4004 26.5565 15.2432 28.0568 16.7435C29.557 18.2438 30.3999 20.2787 30.3999 22.4004C30.3999 23.9826 29.9307 25.5294 29.0517 26.8449C28.1726 28.1605 26.9232 29.1859 25.4614 29.7914C23.9996 30.3969 22.391 30.5554 20.8392 30.2467C19.2873 29.938 17.8619 29.1761 16.7431 28.0572C15.6242 26.9384 14.8623 25.513 14.5536 23.9611C14.2449 22.4093 14.4034 20.8007 15.0089 19.3389C15.6144 17.8771 16.6398 16.6277 17.9553 15.7486ZM24.5059 17.8187C24.7605 17.7513 25.0315 17.7871 25.2599 17.9183C25.3817 17.9775 25.4903 18.0608 25.5789 18.1632C25.6676 18.2656 25.7345 18.3849 25.7757 18.514C25.8168 18.643 25.8313 18.7791 25.8183 18.9139C25.8053 19.0487 25.765 19.1795 25.6999 19.2983L23.9799 22.1783C24.0008 22.3443 24.0008 22.5123 23.9799 22.6783C23.9799 23.0193 23.8785 23.3526 23.6886 23.6359C23.4987 23.9192 23.2289 24.1396 22.9134 24.2692C22.598 24.3988 22.2511 24.4316 21.9169 24.3636C21.5827 24.2956 21.2763 24.1298 21.0366 23.8873C20.7969 23.6447 20.6346 23.3364 20.5706 23.0014C20.5065 22.6665 20.5434 22.32 20.6766 22.0061C20.8099 21.6922 21.0335 21.425 21.3189 21.2384C21.6044 21.0518 21.9389 20.9543 22.2799 20.9583L23.8999 18.2783C24.0335 18.0513 24.2512 17.8861 24.5059 17.8187Z" fill="#D9D9D9"/>
</svg>
