<svg width="40" height="40" viewBox="0 0 40 40" fill="none" xmlns="http://www.w3.org/2000/svg">
<path fill-rule="evenodd" clip-rule="evenodd" d="M34 3.23077C34 2.90435 33.8703 2.5913 33.6395 2.36048C33.4087 2.12967 33.0956 2 32.7692 2H3.23077C2.90435 2 2.5913 2.12967 2.36048 2.36048C2.12967 2.5913 2 2.90435 2 3.23077V32.7692C2 33.0956 2.12967 33.4087 2.36048 33.6395C2.5913 33.8703 2.90435 34 3.23077 34H32.7692C32.7692 34 33.3794 33.8996 33.6395 33.6395C33.8996 33.3794 34 32.7692 34 32.7692V3.23077ZM25.3785 26.8954C25.3785 27.536 24.8591 28.0554 24.2185 28.0554C23.5778 28.0554 23.0585 27.536 23.0585 26.8954C23.0585 26.2547 23.5778 25.7354 24.2185 25.7354C24.8591 25.7354 25.3785 26.2547 25.3785 26.8954ZM19.591 23.1883C19.8218 22.9575 20.1348 22.8278 20.4612 22.8277H27.8458C28.1722 22.8278 28.4852 22.9575 28.7159 23.1883C28.9467 23.4191 29.0763 23.7321 29.0763 24.0585C29.0763 24.3849 28.9467 24.6979 28.7159 24.9287C28.4852 25.1595 28.1722 25.2892 27.8458 25.2893H20.4612C20.1348 25.2892 19.8218 25.1595 19.591 24.9287C19.3602 24.6979 19.2306 24.3849 19.2306 24.0585C19.2306 23.7321 19.3602 23.4191 19.591 23.1883ZM25.3785 21.0062C25.3785 21.6468 24.8591 22.1662 24.2185 22.1662C23.5778 22.1662 23.0585 21.6468 23.0585 21.0062C23.0585 20.3655 23.5778 19.8462 24.2185 19.8462C24.8591 19.8462 25.3785 20.3655 25.3785 21.0062ZM14.9248 20.4074C15.073 20.4715 15.2064 20.5653 15.3169 20.6831C15.4347 20.7936 15.5285 20.927 15.5926 21.0752C15.6568 21.2234 15.6899 21.3831 15.6899 21.5446C15.6899 21.7061 15.6568 21.8658 15.5926 22.014C15.5285 22.1622 15.4347 22.2957 15.3169 22.4062L13.5938 24.1538L15.3169 25.9015C15.4319 26.0143 15.5235 26.1487 15.5862 26.297C15.649 26.4453 15.6817 26.6046 15.6825 26.7656C15.6833 26.9267 15.6522 27.0863 15.591 27.2352C15.5297 27.3842 15.4395 27.5195 15.3257 27.6334C15.2118 27.7472 15.0765 27.8374 14.9275 27.8987C14.7786 27.9599 14.619 27.991 14.4579 27.9902C14.2969 27.9894 14.1376 27.9567 13.9893 27.8939C13.841 27.8312 13.7066 27.7396 13.5938 27.6246L11.8462 25.9015L10.0985 27.6246C9.98574 27.7396 9.85134 27.8312 9.70302 27.8939C9.5547 27.9567 9.39542 27.9894 9.23437 27.9902C9.07333 27.991 8.91372 27.9599 8.76478 27.8987C8.61584 27.8374 8.48052 27.7472 8.36664 27.6334C8.25276 27.5195 8.16259 27.3842 8.10134 27.2352C8.04008 27.0863 8.00896 26.9267 8.00977 26.7656C8.01059 26.6046 8.04332 26.4453 8.10607 26.297C8.16883 26.1487 8.26036 26.0143 8.37538 25.9015L10.0985 24.1538L8.37538 22.4062C8.26036 22.2934 8.16883 22.159 8.10607 22.0107C8.04332 21.8624 8.01059 21.7031 8.00978 21.5421C8.00896 21.381 8.04008 21.2214 8.10134 21.0725C8.16259 20.9235 8.25276 20.7882 8.36664 20.6743C8.48052 20.5605 8.61584 20.4703 8.76478 20.409C8.91372 20.3478 9.07333 20.3167 9.23437 20.3175C9.39542 20.3183 9.5547 20.351 9.70302 20.4138C9.85134 20.4765 9.98574 20.5681 10.0985 20.6831L11.8462 22.4062L13.5938 20.6831C13.7043 20.5653 13.8378 20.4715 13.986 20.4074C14.1342 20.3432 14.2939 20.3101 14.4554 20.3101C14.6169 20.3101 14.7766 20.3432 14.9248 20.4074ZM16.7692 11.8462C16.7692 11.5197 16.6396 11.2067 16.4087 10.9759C16.1779 10.7451 15.8649 10.6154 15.5385 10.6154H13.0769V8.15385C13.0769 7.82746 12.9472 7.51446 12.7164 7.28369C12.4856 7.05293 12.1725 6.92328 11.8462 6.92328C11.5198 6.92328 11.2067 7.05293 10.9759 7.28369C10.7451 7.51446 10.6154 7.82746 10.6154 8.15385V10.6154H8.15385C7.82746 10.6154 7.51446 10.7451 7.2837 10.9759C7.05293 11.2067 6.92328 11.5198 6.92328 11.8462C6.92328 12.1725 7.05293 12.4856 7.2837 12.7164C7.51446 12.9472 7.82746 13.0769 8.15385 13.0769H10.6154V15.5385C10.6154 15.8648 10.7451 16.1778 10.9759 16.4086C11.2067 16.6394 11.5198 16.769 11.8462 16.769C12.1725 16.769 12.4856 16.6394 12.7164 16.4086C12.9472 16.1778 13.0769 15.8648 13.0769 15.5385V13.0769H15.5385C15.8649 13.0769 16.1779 12.9473 16.4087 12.7164C16.6396 12.4856 16.7692 12.1726 16.7692 11.8462ZM19.5914 10.9759C19.8222 10.7451 20.1352 10.6154 20.4615 10.6154H27.8462C28.1725 10.6154 28.4855 10.7451 28.7163 10.9759C28.9471 11.2067 29.0767 11.5198 29.0767 11.8462C29.0767 12.1725 28.9471 12.4856 28.7163 12.7164C28.4855 12.9472 28.1725 13.0769 27.8462 13.0769H20.4615C20.1352 13.0769 19.8222 12.9472 19.5914 12.7164C19.3606 12.4856 19.231 12.1725 19.231 11.8462C19.231 11.5198 19.3606 11.2067 19.5914 10.9759Z" fill="#7CD0E8"/>
<path fill-rule="evenodd" clip-rule="evenodd" d="M22.4443 19.6853C24.0888 18.5865 26.0222 18 28 18C30.6522 18 33.1957 19.0536 35.0711 20.9289C36.9464 22.8043 38 25.3478 38 28C38 29.9778 37.4135 31.9112 36.3147 33.5557C35.2159 35.2002 33.6541 36.4819 31.8268 37.2388C29.9996 37.9957 27.9889 38.1937 26.0491 37.8078C24.1093 37.422 22.3275 36.4696 20.9289 35.0711C19.5304 33.6725 18.578 31.8907 18.1922 29.9509C17.8063 28.0111 18.0043 26.0004 18.7612 24.1732C19.5181 22.3459 20.7998 20.7841 22.4443 19.6853ZM30.6325 22.2729C30.9508 22.1886 31.2895 22.2334 31.575 22.3974C31.7273 22.4714 31.863 22.5755 31.9738 22.7035C32.0846 22.8315 32.1683 22.9807 32.2197 23.142C32.2711 23.3033 32.2893 23.4734 32.273 23.6419C32.2567 23.8104 32.2064 23.9739 32.125 24.1224L29.975 27.7224C30.0011 27.9299 30.0011 28.1398 29.975 28.3474C29.975 28.7737 29.8482 29.1903 29.6109 29.5444C29.3735 29.8985 29.0362 30.174 28.6419 30.336C28.2476 30.4979 27.814 30.539 27.3963 30.454C26.9786 30.369 26.5955 30.1618 26.2959 29.8586C25.9962 29.5554 25.7934 29.17 25.7133 28.7513C25.6332 28.3326 25.6794 27.8995 25.8459 27.5071C26.0125 27.1147 26.292 26.7807 26.6488 26.5475C27.0056 26.3143 27.4237 26.1924 27.85 26.1974L29.875 22.8474C30.042 22.5636 30.3142 22.3571 30.6325 22.2729Z" fill="#7A49E9"/>
</svg>
