<svg width="32" height="32" viewBox="0 0 32 32" fill="none" xmlns="http://www.w3.org/2000/svg">
<path d="M26.1287 3.19922H4.27153C2.81438 3.19922 1.6001 4.38734 1.6001 5.81308V20.7359C1.6001 22.1616 2.81438 23.3497 4.27153 23.3497H26.1287C27.5858 23.3497 28.8001 22.1616 28.8001 20.7359V5.81308C28.8001 4.38734 27.5858 3.19922 26.1287 3.19922ZM10.1487 16.6962C10.5372 17.0764 10.5372 17.6467 10.1487 18.0269C9.95438 18.217 9.71153 18.3121 9.46867 18.3121C9.22581 18.3121 8.98295 18.217 8.78867 18.0269L5.19438 14.5101C4.80581 14.1299 4.80581 13.5596 5.19438 13.1794L8.78867 9.66258C9.17724 9.28239 9.7601 9.28239 10.1487 9.66258C10.5372 10.0428 10.5372 10.6131 10.1487 10.9933L7.23438 13.8448L10.1487 16.6962ZM17.2887 10.0428L15.0058 17.6467C14.8601 18.0745 14.4715 18.3121 14.083 18.3121C13.9858 18.3121 13.8887 18.3121 13.7915 18.2646C13.2572 18.122 12.9658 17.5992 13.1115 17.0764L15.3944 9.47249C15.5401 8.94971 16.0744 8.66457 16.6087 8.80714C17.143 8.99724 17.4344 9.56753 17.2887 10.0428ZM25.2058 14.5101L21.6115 18.0269C21.4172 18.217 21.1744 18.3121 20.9315 18.3121C20.6887 18.3121 20.4458 18.217 20.2515 18.0269C19.863 17.6467 19.863 17.0764 20.2515 16.6962L23.1658 13.8448L20.2515 10.9933C19.863 10.6131 19.863 10.0428 20.2515 9.66258C20.6401 9.28239 21.223 9.28239 21.6115 9.66258L25.2058 13.1794C25.5944 13.5121 25.5944 14.1299 25.2058 14.5101ZM22.8744 27.1992H7.52581C6.99153 27.1992 6.55438 26.7715 6.55438 26.2487C6.55438 25.726 6.99153 25.2982 7.52581 25.2982H22.8744C23.4087 25.2982 23.8458 25.726 23.8458 26.2487C23.8458 26.7715 23.4087 27.1992 22.8744 27.1992Z" fill="#D9D9D9"/>
<path d="M25 15.1992C28.836 15.1992 32 18.3632 32 22.1992H25V15.1992ZM23 17.1992V24.1992H30C30 28.0352 26.836 31.1992 23 31.1992C19.164 31.1992 16 28.0352 16 24.1992C16 20.3632 19.164 17.1992 23 17.1992Z" fill="#D9D9D9"/>
</svg>
