<svg width="40" height="40" viewBox="0 0 40 40" fill="none" xmlns="http://www.w3.org/2000/svg">
<path d="M32.6607 4H5.33929C3.51786 4 2 5.48515 2 7.26733V25.9208C2 27.703 3.51786 29.1881 5.33929 29.1881H32.6607C34.4821 29.1881 36 27.703 36 25.9208V7.26733C36 5.48515 34.4821 4 32.6607 4ZM12.6857 20.8713C13.1714 21.3465 13.1714 22.0594 12.6857 22.5347C12.4429 22.7723 12.1393 22.8911 11.8357 22.8911C11.5321 22.8911 11.2286 22.7723 10.9857 22.5347L6.49286 18.1386C6.00714 17.6634 6.00714 16.9505 6.49286 16.4752L10.9857 12.0792C11.4714 11.604 12.2 11.604 12.6857 12.0792C13.1714 12.5545 13.1714 13.2673 12.6857 13.7426L9.04286 17.3069L12.6857 20.8713ZM21.6107 12.5545L18.7571 22.0594C18.575 22.5941 18.0893 22.8911 17.6036 22.8911C17.4821 22.8911 17.3607 22.8911 17.2393 22.8317C16.5714 22.6535 16.2071 22 16.3893 21.3465L19.2429 11.8416C19.425 11.1881 20.0929 10.8317 20.7607 11.0099C21.4286 11.2475 21.7929 11.9604 21.6107 12.5545ZM31.5071 18.1386L27.0143 22.5347C26.7714 22.7723 26.4679 22.8911 26.1643 22.8911C25.8607 22.8911 25.5571 22.7723 25.3143 22.5347C24.8286 22.0594 24.8286 21.3465 25.3143 20.8713L28.9571 17.3069L25.3143 13.7426C24.8286 13.2673 24.8286 12.5545 25.3143 12.0792C25.8 11.604 26.5286 11.604 27.0143 12.0792L31.5071 16.4752C31.9929 16.8911 31.9929 17.6634 31.5071 18.1386ZM28.5929 34H9.40714C8.73929 34 8.19286 33.4653 8.19286 32.8119C8.19286 32.1584 8.73929 31.6238 9.40714 31.6238H28.5929C29.2607 31.6238 29.8071 32.1584 29.8071 32.8119C29.8071 33.4653 29.2607 34 28.5929 34Z" fill="#7CD0E8"/>
<path d="M31.25 19C36.045 19 40 22.955 40 27.75H31.25V19ZM28.75 21.5V30.25H37.5C37.5 35.045 33.545 39 28.75 39C23.955 39 20 35.045 20 30.25C20 25.455 23.955 21.5 28.75 21.5Z" fill="#7A49E9"/>
</svg>
