<svg width="32" height="32" viewBox="0 0 32 32" fill="none" xmlns="http://www.w3.org/2000/svg">
<g clip-path="url(#clip0_2108_15410)">
<path d="M22.916 27.9524C23.5892 27.9524 23.9431 28.2387 24.0044 28.8149L24.0187 28.9759C24.0187 29.6632 23.6496 30.0029 22.9303 30.0029H9.09417C8.42104 30.0029 8.06714 29.7166 8.00578 29.1404L7.99155 28.9794C7.99155 28.2921 8.36057 27.9524 9.07995 27.9524H22.916ZM21.8321 6.23258C23.2335 6.18967 24.5948 6.70431 25.6173 7.66364C26.6398 8.62297 27.2401 9.94867 27.2865 11.35V21.1206C27.2401 22.5219 26.6398 23.8476 25.6173 24.807C24.5948 25.7663 23.2335 26.2809 21.8321 26.238H10.1835C8.75372 26.2481 7.37438 25.7104 6.32873 24.7352C5.82931 24.2739 5.42966 23.7152 5.15438 23.0936C4.87911 22.4719 4.73405 21.8005 4.72816 21.1206V11.366C4.73194 10.6858 4.87604 10.0137 5.15145 9.39173C5.42685 8.76977 5.82764 8.21134 6.32873 7.75135C7.37384 6.77536 8.75353 6.23749 10.1835 6.24859L21.8321 6.23258ZM1.09574 12.2454C1.81511 12.2454 2.18413 12.5815 2.18413 13.2725V19.4142C2.1996 19.5431 2.18754 19.6739 2.14875 19.7978C2.10995 19.9217 2.0453 20.036 1.95907 20.133C1.87284 20.2301 1.76699 20.3078 1.64852 20.3609C1.53004 20.414 1.40164 20.4414 1.2718 20.4413L1.09396 20.4555C0.374587 20.4555 0.00556478 20.1194 0.00556478 19.4284V13.2689C-0.00991078 13.14 0.00214771 13.0092 0.0409434 12.8853C0.0797391 12.7614 0.144389 12.6472 0.23062 12.5501C0.316852 12.453 0.422702 12.3753 0.541176 12.3222C0.65965 12.2691 0.788051 12.2417 0.917894 12.2419C0.919672 12.2552 1.09574 12.2445 1.09574 12.2445V12.2454ZM30.918 12.2454C31.6374 12.2454 32.0064 12.5815 32.0064 13.2725V19.4142C32.0219 19.5431 32.0098 19.6739 31.971 19.7978C31.9323 19.9217 31.8676 20.036 31.7814 20.133C31.6951 20.2301 31.5893 20.3078 31.4708 20.3609C31.3523 20.414 31.2239 20.4414 31.0941 20.4413L30.9163 20.4555C30.1969 20.4555 29.8279 20.1194 29.8279 19.4284V13.2689C29.8124 13.14 29.8244 13.0092 29.8632 12.8853C29.902 12.7614 29.9667 12.6472 30.0529 12.5501C30.1392 12.453 30.245 12.3753 30.3635 12.3222C30.482 12.2691 30.6103 12.2417 30.7402 12.2419L30.918 12.2454ZM12.3762 13.14C11.4817 13.14 10.9837 13.5232 10.9375 14.3244L10.9197 14.5173V17.5238C10.9197 18.4361 11.399 18.8834 12.3762 18.8834C13.2708 18.8834 13.751 18.5001 13.815 17.6989V14.4978C13.8328 13.589 13.3313 13.1391 12.3762 13.1391V13.14ZM19.6411 13.14C18.7465 13.14 18.2664 13.5232 18.2023 14.3244V17.5255C18.2023 18.4379 18.6816 18.8851 19.6589 18.8851C20.5534 18.8851 21.0336 18.5019 21.0976 17.7007L21.1118 17.5078V14.5013C21.0941 13.589 20.6148 13.1391 19.6446 13.1391L19.6411 13.14ZM16.7423 2.00617C17.2215 2.00617 17.4616 2.23203 17.4616 2.69353V4.05313C17.4616 4.51819 17.2215 4.74049 16.7423 4.74049H15.2875C14.8082 4.74049 14.5681 4.51463 14.5681 4.05313V2.69264C14.558 2.59683 14.5697 2.49996 14.6026 2.40937C14.6354 2.31878 14.6884 2.23685 14.7575 2.16978C14.8271 2.10212 14.9118 2.05193 15.0045 2.02333C15.0973 1.99473 15.1955 1.98855 15.2911 2.00528L16.7423 2.00617Z" fill="#D9D9D9"/>
<path fill-rule="evenodd" clip-rule="evenodd" d="M16 24C16 19.5824 19.5824 16 24 16C28.4176 16 32 19.5824 32 24C32 28.4176 28.4176 32 24 32C19.5824 32 16 28.4176 16 24ZM19.9584 25.2136L19.9376 25.1544L19.9256 25.1176L19.92 25.1024L19.9024 25.052L19.8984 25.0376L20.092 25.6L19.8896 25.012L19.876 24.972L19.872 24.9632L19.8664 24.9464L19.8592 24.9264L19.8576 24.9224H19.8584L19.8488 24.8952L19.8448 24.8856L19.8368 24.8616V24.86L19.8296 24.8168C19.8296 24.787 19.8388 24.7579 19.856 24.7335C19.8732 24.7092 19.8975 24.6907 19.9256 24.6808L20.7368 24.4008C20.7727 24.3888 20.8118 24.3914 20.8458 24.408C20.8798 24.4246 20.9059 24.4539 20.9184 24.4896L21.1504 25.1648C21.2973 25.5336 21.5181 25.8685 21.7992 26.1488C22.2266 26.5761 22.7757 26.861 23.3712 26.9642C23.9667 27.0675 24.5796 26.9842 25.126 26.7258C25.6724 26.4673 26.1255 26.0463 26.4234 25.5204C26.7213 24.9945 26.8494 24.3894 26.7901 23.7879C26.7308 23.1864 26.4871 22.6179 26.0923 22.1602C25.6975 21.7025 25.1709 21.3781 24.5846 21.2312C23.9983 21.0844 23.381 21.1223 22.817 21.3398C22.6386 21.4087 22.4682 21.4945 22.308 21.5955L22.7328 22.2016C22.7662 22.2491 22.7861 22.3049 22.7902 22.3628C22.7944 22.4208 22.7826 22.4788 22.7563 22.5306C22.73 22.5824 22.6901 22.626 22.6409 22.6569C22.5916 22.6877 22.5349 22.7046 22.4768 22.7056L20.0528 22.7608C20.0002 22.7619 19.9482 22.75 19.9013 22.7262C19.8544 22.7023 19.8141 22.6673 19.7839 22.6242C19.7538 22.5811 19.7348 22.5312 19.7285 22.479C19.7222 22.4268 19.7289 22.3738 19.748 22.3248L20.6288 20.0656C20.6499 20.0117 20.6852 19.9645 20.7309 19.9291C20.7767 19.8937 20.8312 19.8713 20.8887 19.8644C20.9462 19.8575 21.0044 19.8664 21.0573 19.8899C21.1101 19.9135 21.1556 19.951 21.1888 19.9984L21.6504 20.6571C21.748 20.5937 21.8484 20.5343 21.9515 20.4793C22.5426 20.1636 23.2027 19.9989 23.8728 20C24.6107 20.0001 25.3347 20.2007 25.9676 20.5801C26.6005 20.9596 27.1184 21.5038 27.4662 22.1546C27.814 22.8054 27.9785 23.5384 27.9423 24.2755C27.906 25.0125 27.6703 25.7258 27.2603 26.3394C26.8503 26.9529 26.2815 27.4436 25.6144 27.7591C24.9473 28.0746 24.2071 28.2031 23.4727 28.1308C22.7384 28.0585 22.0374 27.7882 21.4447 27.3486C20.852 26.9091 20.3897 26.3169 20.1072 25.6352L20.0992 25.6216C20.0974 25.6174 20.0958 25.6131 20.0944 25.6088L20.0912 25.5992L20.0728 25.5472L20.0352 25.448C20.0128 25.3853 19.992 25.3221 19.9728 25.2584L19.9696 25.248L19.9576 25.2128L19.9664 25.236L19.9584 25.2136Z" fill="#D9D9D9"/>
</g>
<defs>
<clipPath id="clip0_2108_15410">
<rect width="32" height="32" fill="white"/>
</clipPath>
</defs>
</svg>
