<svg width="40" height="40" viewBox="0 0 40 40" fill="none" xmlns="http://www.w3.org/2000/svg">
<g clip-path="url(#clip0_2108_15391)">
<path d="M28.6452 34.9415C29.4866 34.9415 29.929 35.2994 30.0057 36.0197L30.0235 36.2208C30.0235 37.08 29.5622 37.5046 28.663 37.5046H11.3678C10.5264 37.5046 10.084 37.1467 10.0073 36.4265L9.98956 36.2253C9.98956 35.3661 10.4508 34.9415 11.3501 34.9415H28.6452ZM27.2902 7.7917C29.042 7.73806 30.7436 8.38137 32.0217 9.58053C33.2998 10.7797 34.0502 12.4368 34.1083 14.1885V26.4017C34.0502 28.1534 33.2998 29.8105 32.0217 31.0097C30.7436 32.2088 29.042 32.8521 27.2902 32.7985H12.7294C10.9423 32.8111 9.2181 32.1389 7.91104 30.92C7.28677 30.3434 6.78719 29.645 6.4431 28.8679C6.09901 28.0909 5.91769 27.2516 5.91032 26.4017V14.2085C5.91505 13.3582 6.09517 12.5181 6.43943 11.7406C6.78369 10.9632 7.28467 10.2651 7.91104 9.69017C9.21742 8.47018 10.942 7.79784 12.7294 7.81171L27.2902 7.7917ZM1.36979 15.3077C2.269 15.3077 2.73028 15.7279 2.73028 16.5915V24.2688C2.74963 24.4299 2.73455 24.5933 2.68606 24.7482C2.63756 24.9031 2.55675 25.0459 2.44896 25.1673C2.34117 25.2886 2.20886 25.3857 2.06077 25.4521C1.91267 25.5185 1.75217 25.5528 1.58987 25.5525L1.36757 25.5703C0.468355 25.5703 0.00707804 25.1502 0.00707804 24.2865V16.5871C-0.0122664 16.4259 0.00280671 16.2625 0.0513013 16.1076C0.099796 15.9528 0.180608 15.8099 0.288397 15.6886C0.396187 15.5672 0.528499 15.4701 0.676592 15.4037C0.824685 15.3373 0.985186 15.3031 1.14749 15.3033C1.14971 15.32 1.36979 15.3066 1.36979 15.3066V15.3077ZM38.6477 15.3077C39.5469 15.3077 40.0082 15.7279 40.0082 16.5915V24.2688C40.0275 24.4299 40.0124 24.5933 39.9639 24.7482C39.9154 24.9031 39.8346 25.0459 39.7268 25.1673C39.619 25.2886 39.4867 25.3857 39.3386 25.4521C39.1906 25.5185 39.0301 25.5528 38.8677 25.5525L38.6454 25.5703C37.7462 25.5703 37.285 25.1502 37.285 24.2865V16.5871C37.2656 16.4259 37.2807 16.2625 37.3292 16.1076C37.3777 15.9528 37.4585 15.8099 37.5663 15.6886C37.6741 15.5672 37.8064 15.4701 37.9545 15.4037C38.1026 15.3373 38.2631 15.3031 38.4254 15.3033L38.6477 15.3077ZM15.4704 16.4259C14.3522 16.4259 13.7298 16.905 13.672 17.9065L13.6498 18.1477V21.9057C13.6498 23.0461 14.2489 23.6052 15.4704 23.6052C16.5886 23.6052 17.1888 23.1261 17.2689 22.1246V18.1232C17.2911 16.9872 16.6642 16.4248 15.4704 16.4248V16.4259ZM24.5515 16.4259C23.4333 16.4259 22.8331 16.905 22.7531 17.9065V21.9079C22.7531 23.0483 23.3522 23.6074 24.5737 23.6074C25.6919 23.6074 26.2921 23.1283 26.3721 22.1269L26.3899 21.8857V18.1277C26.3677 16.9872 25.7686 16.4248 24.5559 16.4248L24.5515 16.4259ZM20.928 2.50869C21.5271 2.50869 21.8272 2.79101 21.8272 3.36789V5.06739C21.8272 5.64871 21.5271 5.92659 20.928 5.92659H19.1095C18.5104 5.92659 18.2103 5.64426 18.2103 5.06739V3.36678C18.1976 3.24701 18.2123 3.12593 18.2533 3.01269C18.2943 2.89946 18.3606 2.79704 18.4471 2.71321C18.534 2.62863 18.6398 2.56589 18.7558 2.53014C18.8717 2.49439 18.9945 2.48666 19.114 2.50758L20.928 2.50869Z" fill="#7CD0E8"/>
<path fill-rule="evenodd" clip-rule="evenodd" d="M20 30C20 24.478 24.478 20 30 20C35.522 20 40 24.478 40 30C40 35.522 35.522 40 30 40C24.478 40 20 35.522 20 30ZM24.948 31.517L24.922 31.443L24.907 31.397L24.9 31.378L24.878 31.315L24.873 31.297L25.115 32L24.862 31.265L24.845 31.215L24.84 31.204L24.833 31.183L24.824 31.158L24.822 31.153H24.823L24.811 31.119L24.806 31.107L24.796 31.077V31.075L24.787 31.021C24.7869 30.9837 24.7985 30.9474 24.8199 30.9169C24.8414 30.8865 24.8719 30.8634 24.907 30.851L25.921 30.501C25.9658 30.486 26.0148 30.4892 26.0573 30.51C26.0997 30.5307 26.1323 30.5674 26.148 30.612L26.438 31.456C26.6216 31.917 26.8976 32.3356 27.249 32.686C27.7833 33.2202 28.4696 33.5762 29.214 33.7053C29.9584 33.8344 30.7245 33.7303 31.4075 33.4072C32.0905 33.0842 32.6569 32.5579 33.0293 31.9005C33.4016 31.2431 33.5617 30.4867 33.4876 29.7348C33.4136 28.983 33.1089 28.2723 32.6154 27.7003C32.1219 27.1282 31.4637 26.7226 30.7308 26.539C29.9979 26.3555 29.2262 26.4029 28.5213 26.6748C28.2982 26.7609 28.0852 26.8681 27.885 26.9943L28.416 27.752C28.4578 27.8114 28.4826 27.8811 28.4878 27.9535C28.4929 28.026 28.4783 28.0985 28.4454 28.1632C28.4125 28.228 28.3626 28.2825 28.3011 28.3211C28.2395 28.3596 28.1686 28.3807 28.096 28.382L25.066 28.451C25.0003 28.4524 24.9352 28.4375 24.8766 28.4077C24.818 28.3779 24.7676 28.3342 24.7299 28.2803C24.6923 28.2264 24.6684 28.164 24.6606 28.0988C24.6528 28.0335 24.6612 27.9673 24.685 27.906L25.786 25.082C25.8123 25.0146 25.8565 24.9557 25.9137 24.9114C25.9709 24.8671 26.039 24.8392 26.1109 24.8305C26.1827 24.8219 26.2555 24.8329 26.3216 24.8624C26.3876 24.8919 26.4445 24.9388 26.486 24.998L27.0631 25.8214C27.185 25.7421 27.3105 25.6679 27.4394 25.5991C28.1783 25.2044 29.0033 24.9986 29.841 25C30.7634 25.0002 31.6684 25.2508 32.4595 25.7251C33.2506 26.1995 33.8981 26.8797 34.3328 27.6932C34.7675 28.5068 34.9732 29.4231 34.9278 30.3443C34.8825 31.2656 34.5879 32.1573 34.0754 32.9242C33.5629 33.6911 32.8518 34.3045 32.018 34.6989C31.1842 35.0933 30.2589 35.2539 29.3409 35.1635C28.423 35.0731 27.5468 34.7352 26.8059 34.1858C26.0649 33.6364 25.4871 32.8961 25.134 32.044L25.124 32.027C25.1217 32.0218 25.1197 32.0164 25.118 32.011L25.114 31.999L25.091 31.934L25.044 31.81C25.0161 31.7317 24.99 31.6526 24.966 31.573L24.962 31.56L24.947 31.516L24.958 31.545L24.948 31.517Z" fill="#7A49E9"/>
</g>
<defs>
<clipPath id="clip0_2108_15391">
<rect width="40" height="40" fill="white"/>
</clipPath>
</defs>
</svg>
