<svg width="40" height="40" viewBox="0 0 40 40" fill="none" xmlns="http://www.w3.org/2000/svg">
<path d="M20 2C10.0586 2 2 10.0525 2 19.9854C2 29.1609 8.8759 36.7318 17.7606 37.8323C18.2613 37.9381 18.8713 38 19.5982 38C19.8019 38 19.9989 37.9887 20.1891 37.9696C30.0426 37.8683 38 29.8563 38 19.9854C38 10.0525 29.9414 2 20 2ZM17.1619 36.2266C9.41607 34.874 3.5271 28.1212 3.5271 19.9932C3.5271 18.8286 3.64864 17.6909 3.87934 16.5949C4.59168 17.3556 6.27071 17.3376 6.67921 16.1999C7.41182 16.6365 8.3965 16.7153 8.3965 17.5885C8.3965 20.4681 8.49891 23.5559 11.1165 23.6032C11.1896 23.6032 12.5749 24.1287 13.2344 25.838C13.4628 26.4299 14.3642 25.838 15.3534 25.838C15.8475 25.838 15.3534 26.6707 15.3534 28.4689C15.3534 30.2603 19.2168 33.0195 19.2168 33.0195C19.1987 34.2056 19.2471 35.1643 19.3462 35.9306C18.474 35.9137 17.7392 36.0296 17.163 36.2266H17.1619ZM24.0817 35.97C23.9961 35.5514 23.6214 35.3218 22.9394 35.5019C23.4841 33.1827 23.7485 31.8841 24.8863 30.8972C26.5293 29.4715 25.081 27.886 23.8296 28.0728C22.8426 28.2224 23.4661 26.8518 22.5861 26.7753C21.7049 26.7022 20.5559 24.9512 19.2888 24.3481C18.6169 24.0296 17.9564 23.1744 16.9199 23.1362C16.0016 23.1002 14.6602 23.9126 14.6602 23.2858C14.6602 21.2704 14.4554 19.8312 14.4138 19.2573C14.38 18.7959 14.1122 19.102 15.3534 19.1313C16.0286 19.1493 15.6989 17.7742 16.3685 17.7213C17.0246 17.6695 18.5899 18.3357 18.9883 18.0701C19.3597 17.8226 21.7117 24.2446 21.7117 19.1313C21.7117 18.5248 21.3966 17.4704 21.7117 16.8953C22.954 14.6257 24.1165 12.7746 24.013 12.5034C23.9534 12.3515 22.7414 12.2254 21.7713 12.5506C21.445 12.6609 21.876 13.1729 21.4056 13.2821C19.6444 13.6894 18.088 12.8072 18.6327 11.979C19.1909 11.1305 21.2131 11.6088 21.3898 9.9051C21.4911 8.92948 21.5766 7.7997 21.6329 6.96024C24.004 7.33046 23.7429 3.88372 20.2183 3.51463C27.3485 3.5979 33.3906 8.20255 35.6075 14.593C35.4997 14.4912 35.3612 14.4279 35.2136 14.413C34.149 11.7517 31.5619 13.6782 32.4396 16.0255C27.739 19.6399 28.942 22.1605 30.486 23.6032C31.2997 24.3616 32.0739 25.5026 32.5792 26.3218C32.03 27.9231 34.6014 27.2828 35.8708 24.5653C35.0693 27.3283 33.5598 29.834 31.4921 31.8344C29.4243 33.8347 26.8698 35.2603 24.0817 35.97ZM35.0876 16.7479C35.3325 17.8952 35.4462 19.0667 35.4263 20.2397C35.3754 19.3559 35.258 18.4772 35.0752 17.611C35.091 17.3061 35.0955 17.0169 35.0876 16.7479Z" fill="#7CD0E8"/>
<path d="M31.4399 24C33.1505 24 34.4928 24 35.5518 24.1166C36.6332 24.2373 37.5108 24.4869 38.2392 25.0533C38.4568 25.222 38.6591 25.4099 38.8433 25.6115C39.4628 26.2959 39.7391 27.1229 39.8716 28.1392C39.8856 28.2558 39.894 28.3148 39.88 28.3655C39.8688 28.4069 39.8482 28.4452 39.8196 28.4775C39.7911 28.5098 39.7554 28.5353 39.7154 28.552C39.6651 28.5712 39.6023 28.5712 39.4768 28.5712H20.5232C20.3977 28.5712 20.3349 28.5712 20.286 28.552C20.2454 28.5357 20.2091 28.5104 20.1801 28.4781C20.151 28.4457 20.13 28.4072 20.1186 28.3655C20.1082 28.2901 20.1115 28.2135 20.1284 28.1392C20.2595 27.1243 20.5372 26.2959 21.1567 25.6115C21.3412 25.4086 21.5434 25.2218 21.7608 25.0533C22.4892 24.4869 23.3654 24.2373 24.4468 24.1166C25.5072 24 26.8494 24 28.5601 24H31.4399ZM40 32.048C40 33.6252 40 34.8733 39.8716 35.8608C39.7391 36.8757 39.4628 37.7041 38.8433 38.3871C38.6588 38.5905 38.4567 38.7777 38.2392 38.9467C37.5108 39.5131 36.6346 39.7627 35.5532 39.8834C34.4928 40 33.1505 40 31.4399 40H28.5601C26.8494 40 25.5058 40 24.4468 39.8834C23.3668 39.7627 22.4892 39.5131 21.7608 38.9467C21.5433 38.7777 21.3412 38.5905 21.1567 38.3871C20.5372 37.7041 20.2595 36.8771 20.1284 35.8608C20 34.8733 20 33.6252 20 32.048V31.952C20 31.4253 20 30.9357 20.0056 30.479C20.0084 30.228 20.0084 30.1018 20.0893 30.0223C20.173 29.9427 20.3014 29.9427 20.5595 29.9427H39.4405C39.6986 29.9427 39.827 29.9427 39.9093 30.0223C39.9902 30.1018 39.993 30.228 39.9944 30.479C40 30.9357 40 31.4253 40 31.9506V32.048ZM28.3717 35.6578C28.3717 35.8397 28.4452 36.0141 28.576 36.1427C28.7069 36.2713 28.8843 36.3436 29.0693 36.3436H30.4646C30.6497 36.3436 30.8271 36.2713 30.9579 36.1427C31.0888 36.0141 31.1623 35.8397 31.1623 35.6578C31.1623 35.4759 31.0888 35.3015 30.9579 35.1729C30.8271 35.0443 30.6497 34.9721 30.4646 34.9721H29.0693C28.8843 34.9721 28.7069 35.0443 28.576 35.1729C28.4452 35.3015 28.3717 35.4759 28.3717 35.6578ZM33.2552 34.9721C33.0702 34.9721 32.8927 35.0443 32.7619 35.1729C32.6311 35.3015 32.5576 35.4759 32.5576 35.6578C32.5576 35.8397 32.6311 36.0141 32.7619 36.1427C32.8927 36.2713 33.0702 36.3436 33.2552 36.3436H36.5118C36.6968 36.3436 36.8743 36.2713 37.0051 36.1427C37.1359 36.0141 37.2094 35.8397 37.2094 35.6578C37.2094 35.4759 37.1359 35.3015 37.0051 35.1729C36.8743 35.0443 36.6968 34.9721 36.5118 34.9721H33.2552Z" fill="#7A49E9"/>
</svg>
