<svg width="32" height="32" viewBox="0 0 32 32" fill="none" xmlns="http://www.w3.org/2000/svg">
<path d="M16 1.59961C8.04689 1.59961 1.59998 8.04162 1.59998 15.9879C1.59998 23.3283 7.10069 29.3851 14.2084 30.2655C14.609 30.3501 15.097 30.3996 15.6786 30.3996C15.8415 30.3996 15.9991 30.3906 16.1512 30.3753C24.0341 30.2943 30.4 23.8847 30.4 15.9879C30.4 8.04162 23.9531 1.59961 16 1.59961ZM13.7295 28.9809C7.53283 27.8988 2.82166 22.4965 2.82166 15.9942C2.82166 15.0625 2.91889 14.1523 3.10345 13.2755C3.67332 13.8841 5.01654 13.8697 5.34335 12.9595C5.92943 13.3088 6.71717 13.3719 6.71717 14.0704C6.71717 16.3741 6.7991 18.8443 8.89315 18.8821C8.95167 18.8821 10.0599 19.3025 10.5875 20.67C10.7702 21.1435 11.4914 20.67 12.2827 20.67C12.6779 20.67 12.2827 21.3361 12.2827 22.7747C12.2827 24.2079 15.3734 26.4152 15.3734 26.4152C15.359 27.3641 15.3977 28.131 15.4769 28.7441C14.7792 28.7306 14.1913 28.8233 13.7304 28.9809H13.7295ZM19.2653 28.7756C19.1969 28.4407 18.8971 28.2571 18.3515 28.4011C18.7872 26.5457 18.9988 25.5069 19.909 24.7174C21.2234 23.5768 20.0647 22.3084 19.0636 22.4578C18.2741 22.5776 18.7728 21.4811 18.0688 21.4199C17.3639 21.3614 16.4447 19.9606 15.431 19.4781C14.8935 19.2233 14.3651 18.5391 13.5359 18.5085C12.8013 18.4797 11.7281 19.1297 11.7281 18.6283C11.7281 17.016 11.5643 15.8646 11.531 15.4055C11.504 15.0364 11.2897 15.2812 12.2827 15.3046C12.8229 15.319 12.5591 14.219 13.0948 14.1767C13.6196 14.1352 14.8719 14.6682 15.1906 14.4557C15.4877 14.2577 17.3693 19.3953 17.3693 15.3046C17.3693 14.8194 17.1172 13.9759 17.3693 13.5159C18.3632 11.7001 19.2932 10.2193 19.2104 10.0023C19.1627 9.88078 18.1931 9.77995 17.417 10.0401C17.1559 10.1283 17.5007 10.5379 17.1244 10.6253C15.7155 10.9511 14.4704 10.2454 14.9061 9.58281C15.3527 8.90404 16.9705 9.28663 17.1118 7.92369C17.1928 7.1432 17.2613 6.23937 17.3063 5.5678C19.2032 5.86398 18.9943 3.10659 16.1746 2.81131C21.8788 2.87793 26.7124 6.56165 28.486 11.674C28.3997 11.5926 28.2889 11.5419 28.1709 11.53C27.3192 9.40096 25.2495 10.9421 25.9517 12.82C22.1912 15.7115 23.1536 17.728 24.3888 18.8821C25.0397 19.4889 25.6591 20.4017 26.0633 21.0571C25.624 22.3381 27.6811 21.8259 28.6966 19.6518C28.0554 21.8622 26.8479 23.8668 25.1936 25.4671C23.5394 27.0674 21.4958 28.2079 19.2653 28.7756ZM28.07 13.398C28.266 14.3158 28.3569 15.253 28.341 16.1914C28.3003 15.4843 28.2064 14.7814 28.0601 14.0884C28.0727 13.8445 28.0763 13.6131 28.07 13.398Z" fill="#D9D9D9"/>
<path d="M25.1519 19.1992C26.5204 19.1992 27.5943 19.1992 28.4415 19.2925C29.3065 19.389 30.0086 19.5887 30.5913 20.0419C30.7655 20.1768 30.9273 20.3271 31.0746 20.4884C31.5703 21.0359 31.7913 21.6976 31.8973 22.5106C31.9085 22.6038 31.9152 22.651 31.904 22.6916C31.8951 22.7247 31.8785 22.7553 31.8557 22.7812C31.8329 22.8071 31.8043 22.8275 31.7723 22.8408C31.7321 22.8562 31.6819 22.8562 31.5814 22.8562H16.4186C16.3181 22.8562 16.2679 22.8562 16.2288 22.8408C16.1963 22.8278 16.1673 22.8076 16.1441 22.7817C16.1208 22.7558 16.104 22.725 16.0949 22.6916C16.0865 22.6313 16.0892 22.57 16.1027 22.5106C16.2076 21.6987 16.4297 21.0359 16.9254 20.4884C17.073 20.3261 17.2347 20.1767 17.4087 20.0419C17.9913 19.5887 18.6923 19.389 19.5574 19.2925C20.4057 19.1992 21.4796 19.1992 22.8481 19.1992H25.1519ZM32 25.6376C32 26.8994 32 27.8979 31.8973 28.6879C31.7913 29.4998 31.5703 30.1625 31.0746 30.7089C30.9271 30.8716 30.7653 31.0214 30.5913 31.1566C30.0086 31.6097 29.3077 31.8094 28.4426 31.906C27.5943 31.9992 26.5204 31.9992 25.1519 31.9992H22.8481C21.4796 31.9992 20.4046 31.9992 19.5574 31.906C18.6935 31.8094 17.9913 31.6097 17.4087 31.1566C17.2347 31.0214 17.0729 30.8716 16.9254 30.7089C16.4297 30.1625 16.2076 29.5009 16.1027 28.6879C16 27.8979 16 26.8994 16 25.6376V25.5608C16 25.1395 16 24.7478 16.0045 24.3824C16.0067 24.1816 16.0067 24.0807 16.0714 24.017C16.1384 23.9534 16.2411 23.9534 16.4476 23.9534H31.5524C31.7589 23.9534 31.8616 23.9534 31.9274 24.017C31.9922 24.0807 31.9944 24.1816 31.9955 24.3824C32 24.7478 32 25.1395 32 25.5597V25.6376ZM22.6974 28.5255C22.6974 28.671 22.7562 28.8105 22.8608 28.9134C22.9655 29.0163 23.1075 29.0741 23.2555 29.0741H24.3717C24.5197 29.0741 24.6617 29.0163 24.7663 28.9134C24.871 28.8105 24.9298 28.671 24.9298 28.5255C24.9298 28.38 24.871 28.2404 24.7663 28.1375C24.6617 28.0347 24.5197 27.9769 24.3717 27.9769H23.2555C23.1075 27.9769 22.9655 28.0347 22.8608 28.1375C22.7562 28.2404 22.6974 28.38 22.6974 28.5255ZM26.6042 27.9769C26.4561 27.9769 26.3142 28.0347 26.2095 28.1375C26.1048 28.2404 26.046 28.38 26.046 28.5255C26.046 28.671 26.1048 28.8105 26.2095 28.9134C26.3142 29.0163 26.4561 29.0741 26.6042 29.0741H29.2094C29.3575 29.0741 29.4994 29.0163 29.6041 28.9134C29.7087 28.8105 29.7675 28.671 29.7675 28.5255C29.7675 28.38 29.7087 28.2404 29.6041 28.1375C29.4994 28.0347 29.3575 27.9769 29.2094 27.9769H26.6042Z" fill="#D9D9D9"/>
</svg>
