<svg width="40" height="40" viewBox="0 0 40 40" fill="none" xmlns="http://www.w3.org/2000/svg">
<path d="M20 3C29.388 3 37 10.612 37 20C37 29.388 29.388 37 20 37C17.208 37 14.5838 36.3161 12.2598 35.1201L5.81641 36.6279C5.30441 36.7959 4.79216 36.3719 4.86816 35.8359L5.7959 29.3281C4.0319 26.6481 3 23.448 3 20C3 10.612 10.612 3 20 3ZM20 9.7998C14.376 9.7998 9.7998 14.376 9.7998 20C9.7998 25.624 14.376 30.2002 20 30.2002C25.624 30.2002 30.2002 25.624 30.2002 20C30.2002 14.376 25.624 9.7998 20 9.7998ZM20 13.2002C21.8035 13.2002 23.5333 13.9162 24.8086 15.1914C26.0838 16.4667 26.7998 18.1965 26.7998 20C26.7998 21.8035 26.0838 23.5333 24.8086 24.8086C23.5333 26.0838 21.8035 26.7998 20 26.7998C18.1965 26.7998 16.4667 26.0838 15.1914 24.8086C13.9162 23.5333 13.2002 21.8035 13.2002 20C13.2002 18.1965 13.9162 16.4667 15.1914 15.1914C16.4667 13.9162 18.1965 13.2002 20 13.2002Z" fill="white" fill-opacity="0.9"/>
</svg>
