<svg width="40" height="40" viewBox="0 0 40 40" fill="none" xmlns="http://www.w3.org/2000/svg">
<g opacity="0.9">
<path d="M25.5213 11.3817V11.157C25.5197 9.6893 24.9351 8.28215 23.8956 7.24432C22.8561 6.20649 21.4468 5.62274 19.9767 5.62115C18.5072 5.62353 17.0987 6.20763 16.0598 7.24538C15.021 8.28312 14.4368 9.68981 14.4352 11.157V11.3817H25.5213ZM11.8069 11.3817V11.157C11.8069 8.9852 12.659 6.93921 14.2072 5.39349C14.9625 4.63371 15.8611 4.03098 16.8512 3.62015C17.8413 3.20932 18.9031 2.99854 19.9752 3.00001C22.1505 3.00001 24.1997 3.84926 25.7478 5.39498C26.5094 6.14933 27.1136 7.04701 27.5253 8.03607C27.9371 9.02513 28.1482 10.0859 28.1466 11.157V11.3817H32.8061C34.3287 11.3817 35.6098 12.5245 35.7794 14.0373L37.9816 33.6809C38.0282 34.0985 37.9861 34.5213 37.8579 34.9216C37.7298 35.3219 37.5185 35.6907 37.2379 36.0039C36.9573 36.3172 36.6137 36.5678 36.2295 36.7394C35.8453 36.9111 35.4292 36.9998 35.0083 37H4.99172C4.57082 36.9998 4.15468 36.9111 3.77049 36.7394C3.38629 36.5678 3.04267 36.3172 2.76207 36.0039C2.48148 35.6907 2.27021 35.3219 2.14207 34.9216C2.01393 34.5213 1.97179 34.0985 2.01842 33.6809L4.21914 14.0373C4.30104 13.3071 4.64952 12.6326 5.198 12.1427C5.74649 11.6528 6.45653 11.3819 7.19245 11.3817H11.8054H11.8069ZM16.3044 22.8728H14.9842V21.5547C14.9842 20.8522 14.3692 20.2367 13.6641 20.2367C12.962 20.2367 12.3455 20.8522 12.3455 21.5547V22.8728H11.0253C10.3218 22.8728 9.7052 23.4869 9.7052 24.1908C9.7052 24.8948 10.3218 25.5089 11.0253 25.5089H12.3455V26.827C12.3455 27.5294 12.9605 28.145 13.6656 28.145C14.3707 28.145 14.9857 27.6163 14.9857 26.827V25.5089H16.3059C17.0079 25.5089 17.6245 24.8948 17.6245 24.1908C17.6245 23.4869 17.0094 22.8728 16.3044 22.8728ZM23.0806 24.1908C23.0782 24.7106 23.1789 25.2258 23.377 25.7065C23.5751 26.1872 23.8666 26.624 24.2347 26.9916C24.6028 27.3593 25.0401 27.6505 25.5215 27.8484C26.0029 28.0464 26.5188 28.1472 27.0395 28.145C27.5602 28.1474 28.0763 28.0467 28.5579 27.8489C29.0394 27.651 29.477 27.3598 29.8452 26.9922C30.2134 26.6245 30.5051 26.1877 30.7033 25.7069C30.9014 25.226 31.0023 24.7108 30.9999 24.1908C31.0021 23.671 30.9011 23.1559 30.7028 22.6753C30.5045 22.1946 30.2129 21.758 29.8447 21.3905C29.4765 21.023 29.039 20.7319 28.5575 20.5342C28.076 20.3364 27.5601 20.2358 27.0395 20.2382C26.5187 20.2358 26.0026 20.3364 25.5211 20.5343C25.0395 20.7322 24.602 21.0233 24.2337 21.391C23.8655 21.7587 23.5739 22.1955 23.3757 22.6763C23.1775 23.1571 23.0767 23.6724 23.0791 24.1923L23.0806 24.1908ZM25.7208 24.1908C25.7208 23.4884 26.3359 22.8728 27.0395 22.8728C27.8315 22.8728 28.3596 23.4884 28.3596 24.1908C28.3596 24.8948 27.743 25.5089 27.0395 25.5089C26.3344 25.5089 25.7193 24.8948 25.7193 24.1908H25.7208Z" fill="white"/>
</g>
</svg>
