<svg width="40" height="40" viewBox="0 0 40 40" fill="none" xmlns="http://www.w3.org/2000/svg">
<path d="M33.4583 3H6.54167C4.55833 3 3 4.55833 3 6.54167V8.66667H37V6.54167C37 4.55833 35.4417 3 33.4583 3ZM6.54167 7.25C6.11667 7.25 5.83333 6.96667 5.83333 6.54167C5.83333 6.11667 6.11667 5.83333 6.54167 5.83333C6.96667 5.83333 7.25 6.11667 7.25 6.54167C7.25 6.96667 6.96667 7.25 6.54167 7.25ZM9.375 7.25C8.95 7.25 8.66667 6.96667 8.66667 6.54167C8.66667 6.11667 8.95 5.83333 9.375 5.83333C9.8 5.83333 10.0833 6.11667 10.0833 6.54167C10.0833 6.96667 9.8 7.25 9.375 7.25ZM12.2083 7.25C11.7833 7.25 11.5 6.96667 11.5 6.54167C11.5 6.11667 11.7833 5.83333 12.2083 5.83333C12.6333 5.83333 12.9167 6.11667 12.9167 6.54167C12.9167 6.96667 12.6333 7.25 12.2083 7.25ZM3 33.4583C3 35.4417 4.55833 37 6.54167 37H33.4583C35.4417 37 37 35.4417 37 33.4583V10.0833H3V33.4583ZM17.875 31.3333C16.7417 31.3333 15.75 30.3417 15.75 29.2083C15.75 28.075 16.7417 27.0833 17.875 27.0833C19.0083 27.0833 20 28.075 20 29.2083C20 30.3417 19.0083 31.3333 17.875 31.3333ZM23.5417 31.3333C22.4083 31.3333 21.4167 30.3417 21.4167 29.2083C21.4167 28.075 22.4083 27.0833 23.5417 27.0833C24.675 27.0833 25.6667 28.075 25.6667 29.2083C25.6667 30.3417 24.675 31.3333 23.5417 31.3333ZM9.375 15.75H12.2083C12.4917 15.75 12.775 16.0333 12.9167 16.3167L13.0583 17.1667H27.7917C28.075 17.1667 28.2167 17.3083 28.3583 17.45C28.5 17.5917 28.5 17.875 28.5 18.0167L27.0833 23.6833C27.0833 23.9667 26.8 24.25 26.5167 24.25L15.325 25.525L15.75 27.65C15.8917 28.075 15.6083 28.3583 15.1833 28.5H15.0417C14.7583 28.5 14.475 28.2167 14.3333 27.9333L11.6417 17.1667H9.375C8.95 17.1667 8.66667 16.8833 8.66667 16.4583C8.66667 16.0333 8.95 15.75 9.375 15.75Z" fill="white" fill-opacity="0.9"/>
</svg>
