<svg xmlns="http://www.w3.org/2000/svg" width="271" height="48" fill="none" viewBox="0 0 271 48"><g fill="#ffa20d" clip-path="url(#a)"><path d="M163.493 23.575c0 4.588-.042 9.218 0 13.805 0 1.7-.425 2.38-2.254 2.337q-10.53-.128-21.059 0c-1.872 0-2.468-.552-2.425-2.421.085-4.545 0-4.545 4.637-4.545 3.701 0 7.36-.043 11.061 0 1.489 0 1.915-.425 1.83-1.954-.171-3.229-.086-3.271-3.446-3.229-3.489 0-6.935-.042-10.424 0-1.446 0-1.786-.51-1.829-1.826-.085-5.565-.127-5.565 5.318-5.565h8.721c1.149 0 1.617-.297 1.66-1.53.17-4.29.212-4.332-4.085-4.374a537 537 0 0 0-11.699 0c-1.276 0-1.702-.34-1.659-1.7 0-5.182 0-5.182 5.233-5.182 6.083 0 12.21.043 18.293 0 1.702 0 2.17.51 2.17 2.167-.085 4.672 0 9.345 0 14.017zm29.27 15.547h-8.934c-.808 0-1.276-.467-1.787-.977-2.382-2.294-4.126-5.182-6.381-7.603-.383-.425-.681-1.062-1.319-.892-.723.212-.383.977-.425 1.486 0 2.21-.043 4.375 0 6.584 0 1.317-.383 1.997-1.787 1.912-1.574-.085-3.106-.043-4.68 0-1.234.042-1.829-.425-1.829-1.742V8.58c0-.976.382-1.444 1.361-1.401h.425c2.042.127 4.638-.85 5.999.34 1.404 1.231.255 3.865.511 5.861.17 1.19-.681 3.059.51 3.484 1.149.424 1.957-1.402 2.723-2.337 1.702-2.166 3.403-4.332 5.275-6.371.511-.552.894-1.02 1.702-1.02h7.658c.383 0 .936-.127 1.063.425.043.255-.212.637-.425.892-3.574 4.588-7.147 9.26-10.849 13.763-.936 1.147-.808 1.7.085 2.803 3.659 4.46 7.148 9.048 11.019 13.976zm78.152.51c-2.042.764-4.127.17-6.169.297-.893.043-1.191-.51-1.446-1.274a46 46 0 0 0-1.149-3.398c-.766-1.912-1.106-1.912-2.68-.51s-3.234 2.718-4.85 4.078c-.383.34-.808.68-1.319.382-.425-.255-.255-.764-.255-1.147 0-.977.042-1.996 0-2.973-.085-1.232.298-2.124 1.404-2.846 1.404-.935 2.68-2.082 3.999-3.144 1.191-.934 1.489-1.996.851-3.525-.894-2.294-1.489-4.673-2.128-7.052-.34-1.274-.978-1.911-2.339-1.954-.766 0-2 .213-1.787-1.146.17-1.147-1.021-2.762 1.021-3.356 1.446-.425.638-1.232.34-1.954-1.191-2.676-1.149-2.761 1.829-2.761.511 0 1.022.085 1.489 0 2.17-.468 3.276.764 3.532 2.633.255 1.87 1.276 2.294 2.892 2.167 1.192-.085 2.425 0 3.617 0 1.999 0 3.148 2.039 2.169 3.865-.383.722-1.063.552-1.701.552q-5.276.213-3.446 5.14c.34.892.68 1.402 1.616.51 1.106-1.02 2.298-1.87 3.446-2.804.256-.212.553-.552.894-.255.17.128.212.51.212.765 0 1.572-.085 3.101-.085 4.673 0 1.359-.978 2.081-1.914 2.59-1.489.808-1.744 1.827-1.149 3.314.596 1.487 1.106 3.058 1.617 4.588.51 1.529.978 3.058 1.446 4.587zm-52.541-11.299c0 3.1-.128 6.202 0 9.302.128 2.804-1.787 1.997-3.276 2.167-1.787.17-2.34-.595-2.297-2.337.085-4.8 0-9.6 0-14.4 0-.807.213-1.911-1.106-1.869-1.106 0-.936 1.02-.979 1.784-.255 4.928-.638 9.855-.723 14.783-.085 3.016-2.17 1.826-3.616 2.039-1.787.297-1.659-.85-1.702-2.082-.127-7.348.681-14.654 1.149-22.003.042-.85.255-1.614-.851-2.082-.978-.424-.638-1.486-.511-2.293.171-1.062 1.064-.935 1.872-.935 1.575.043 3.021 0 2.255-2.251-.255-.722.17-.892.723-.935h4.042c.979 0 1.191.595 1.149 1.402-.085 1.232.34 1.954 1.659 1.827 1.446-.128 1.574.722 1.574 1.869 0 1.274-.681 1.571-1.744 1.529h-3.404c-.978 0-1.404.34-1.446 1.36 0 1.019.383 1.4 1.361 1.4 1.276 0 2.553.043 3.829-.042 1.574-.127 2.17.51 2.127 2.04-.042 3.228 0 6.498 0 9.727h-.127zm32.758 11.469c-2.722-1.062-4.807-2.761-6.679-4.588-1.021-.977-1.489-1.147-2.467 0-1.319 1.487-3.021 2.506-4.765 3.483-1.191.637-1.872.595-1.787-1.02.042-1.188.085-2.42 0-3.61-.085-1.232.851-1.656 1.617-2.294 2.382-1.953 2.339-2.081.935-4.715-1.318-2.506-2.169-5.182-2.765-7.943-.255-1.317 0-1.954 1.532-1.954 3.531 0 3.403 0 4.637 3.27.383 1.105.383 3.06 1.744 3.017 1.149 0 1.021-1.912 1.447-2.974.638-1.529.765-3.143.765-4.757 0-1.274-.51-1.742-1.786-1.7-2.255.086-4.552-.042-6.807.043-1.574.085-1.702-.722-1.702-1.954s.17-1.996 1.702-1.954q6.38.128 12.763 0c1.446 0 1.872.637 1.829 1.912-.255 5.522-.893 10.959-3.914 15.802-.766 1.189-.851 2.59.638 3.27 3.914 1.827 3.446 5.14 3.063 8.666m-25.228-22.853c.936 0 1.83-.043 2.766 0 .935.085 2.212-.468 2.637.722.468 1.274.383 2.676-.595 3.78-.553.637-1.149 1.232-1.745 1.87-.595.679-.765 1.529-.553 2.378.298 1.02 1.191.765 1.957.807.936.043 2.042-.297 2.042 1.36 0 1.784-1.191 1.486-2.169 1.401-1.66-.127-2.042.595-1.915 2.167.17 2.251.085 4.502.213 6.796.085 1.572-.894 1.784-2.042 1.614-1.064-.17-2.723.85-2.723-1.486 0-2.167-.425-4.376-.085-6.542.298-1.827-.298-2.676-2.255-2.506-.766.085-1.787.382-1.914-1.02-.17-1.444.468-1.954 1.829-1.784 1.787.255 2.68-.467 2.468-2.378-.043-.468-.085-1.062.17-1.445 1.319-2.294-.213-2.166-1.744-2.081-1.277.042-2.17-.17-2.17-1.827 0-1.656.851-1.869 2.127-1.826 1.191.042 2.425 0 3.616 0zm-101.848 7.136V9.26c0-.977-.17-2.039 1.361-2.081 1.702-.043 1.489 1.104 1.489 2.124v29.224c0 1.062.213 2.21-1.489 2.21-1.787 0-1.361-1.275-1.361-2.252zm79.003 7.731c.127 1.656-.128 3.568-.554 5.522-.297 1.317-.935 1.996-2.339 1.911h-.639c-3.616 0-3.488 0-3.02-3.525.298-2.379.766-4.758.51-7.136-.127-1.105.298-1.572 1.362-1.572h.213q4.467-.255 4.467 4.8M79.003 30.33v9.26c0 .552-.298.976-.894.976-.68 0-.808-.467-.808-.977V27.526c0-1.275.723-1.53 1.872-.977.936.424 1.319 1.232 1.659 2.081 1.149 2.719 2.297 5.395 3.446 8.113.17 0 .34-.042.553-.085 0-2.633-.043-5.267 0-7.858 0-.892-.596-2.421.766-2.464 1.574 0 .936 1.614.936 2.507.085 3.185 0 6.371 0 9.557 0 .934.042 1.996-1.064 2.251s-1.319-.722-1.744-1.486c-1.106-2.04-2.042-4.206-2.85-6.372-.298-.85-.681-1.657-1.915-2.421zm-9.275-20.008v9.133c0 .68.383 1.869-.723 1.869-.936 0-.766-1.147-.766-1.912V9.26c0-.934-.34-2.166.979-2.464 1.404-.34 1.787.892 2.255 1.827 1.446 2.889 2.807 5.82 4.594 8.666V8.792c0-.722-.34-1.827.766-1.912 1.319-.042.893 1.19.893 1.912.043 3.44 0 6.924 0 10.365 0 .85.34 2.08-.893 2.293-1.149.213-1.617-.892-2.042-1.784a808 808 0 0 1-4.042-8.793c-.127-.34-.34-.637-1.063-.51zm20.293-1.104c-3.403-1.445-5.573-.892-6.977 1.741-1.489 2.846-.553 6.882 2.042 8.538 1.149.765 2.383.85 3.617.255 1.19-.594.68-1.699.765-2.633.17-1.317-.34-1.997-1.787-1.912-.595.043-1.446.17-1.489-.764 0-1.105.936-.85 1.575-.893h1.914c1.106 0 1.702.51 1.617 1.7v1.274c-.213 1.614.85 3.738-1.49 4.63s-4.637.722-6.679-.765c-3.658-2.633-3.063-10.831.894-12.998 2.212-1.19 4.34-1.062 6.466.128.468.382 1.191.722.936 1.444-.255.68-.85.51-1.404.255m9.445 27.101c-.085 1.529.553 3.355-1.574 4.162-2.212.85-5.233.255-6.765-1.614-2.552-3.1-2.34-10.959 2.68-12.743 2-.722 3.574-.043 5.19.934.384.213.64.595.426 1.062-.212.51-.638.51-1.063.255-1.872-1.147-3.914-1.529-5.403.17-1.83 2.082-2.085 4.715-1.276 7.391.765 2.464 2.382 3.483 4.552 3.144 1.489-.213 1.574-1.232 1.446-2.337-.127-.934.68-2.463-1.276-2.506-.596 0-1.49 0-1.49-.807 0-.977.98-.807 1.66-.85 2.893-.17 2.935-.084 2.935 3.781zm-4.85-22.386V8.41c0-1.232.468-1.827 1.787-1.784 1.361.042 2.68 0 4.041 0 .639 0 1.149.34 1.107 1.019 0 .637-.596.722-1.107.722-.51 0-.978.043-1.489 0-1.914-.255-2.637.382-2.552 2.421.085 1.615.468 2.422 2.17 2.167q.637-.065 1.276 0c.51 0 1.063.127 1.106.722 0 .595-.511.807-1.021.892-.34.085-.723.085-1.064.042-1.957-.297-2.595.425-2.51 2.422.17 3.1-.17 2.846 3.148 2.846.681 0 1.872-.383 1.83.764 0 1.062-1.149.765-1.872.765-5.19-.043-4.935 1.02-4.807-4.8v-2.761zm-41.224.085V8.326c0-1.147.51-1.7 1.659-1.657h4.041c.681 0 1.064.382 1.064 1.02 0 .637-.553.722-1.064.764-.553 0-1.148.085-1.701 0-1.702-.212-2.212.51-2.17 2.167.085 2.888 0 2.888 2.893 2.888.723 0 1.83-.212 1.872.807.085 1.274-1.149.934-1.915.977-2.807.043-2.807 0-2.807 2.931v1.7c-.043.636.212 1.57-.851 1.613-1.021 0-.979-.85-.979-1.529v-5.904z"/><path d="M199.91 23.15c-1.999.553-3.063-.297-2.68-2.718v-.212c-.17-1.147-1.404-2.677-.595-3.314 1.233-.977 3.148-.255 4.722-.34.681 0 .978.425 1.191.977.213.51.425 1.062.596 1.572 1.276 3.908 1.148 4.036-3.234 3.993zM60.071 26.081h2.978c.596 0 1.447-.127 1.404.808 0 .807-.766.68-1.319.722h-.425c-1.404-.17-1.957.212-1.83 1.869.213 3.186.085 6.371.085 9.515 0 .722 0 1.571-.936 1.614-1.233.085-.978-.977-.978-1.7 0-3.058-.085-6.074 0-9.132.043-1.572-.34-2.464-2.127-2.209-.553.085-1.447.213-1.32-.807.086-.764.767-.807 1.49-.764.978.084 2 0 2.978 0zm140.307-12.573c-1.872.297-3.19 0-2.85-2.336 0-.128-.085-.298-.085-.425.085-1.062-1.489-2.421-.298-2.974 1.319-.594 3.318-.85 4.595.34 1.233 1.19 1.659 3.016 1.191 4.715-.383 1.232-1.744.468-2.595.68zm18.889-2.634c.213-.255.426-.552.681-.807.723-.764.17-2.421 1.489-2.59 1.957-.213 3.957-.086 5.956 0 .638 0 .809.509.511 1.061-1.191 2.124.298 1.954 1.659 1.996 1.149 0 2.553-.424 2.467 1.615 0 1.232-.425 1.784-1.744 1.741-3.191-.085-6.381 0-9.572 0-2.085 0-2.468-.85-1.447-2.973.639 1.274 1.702 1.699 3.106 1.614 2.383-.128 4.722 0 7.36-.085-.766-.637-1.446-.467-2.042-.637-.808-.212-1.361-.637-1.532-1.53-.127-.637.724-1.783-.723-1.698-1.361.084-3.02-.723-3.999 1.061-.425.808-.808 1.954-2.17 1.232m47.691-3.44h2.34c.979 0 1.362.51 1.404 1.444 0 .977-.255 1.699-1.361 1.742-1.362 0-2.68-.085-4.042 0-1.574.127-1.957-.85-1.999-2.082-.043-1.487 1.106-1.104 1.957-1.147h1.701zM64.58 14.188v5.946c0 .51.086 1.317-.723 1.275-.638-.043-.765-.722-.765-1.317V8.028c0-.552 0-1.232.85-1.19.766.043.766.723.766 1.275v6.117h-.17zm25.441-4.97c2-.085.681-1.02.468-1.7 1.064.17 1.49.85 1.064 1.742-.34.68-1.021.595-1.532-.042M24.165 0C10.976 0 .297 10.45 0 23.83c.213 14.103 11.061 24.255 24.207 24.255 12.72 0 23.782-9.812 23.824-24.085 0-14.018-11.103-24-23.866-24m8.976 36.616c-2.893 3.908-7.062 5.267-11.657 4.205-3.744-.892-6.466-3.313-7.785-7.306-1.064-3.186-.34-6.33-.723-9.43.383-3.143-.34-6.33.723-9.473 1.66-4.885 5.828-7.858 11.061-7.646 3.701.17 6.382 1.954 8.551 4.758.468.595.851 1.317.213 1.911-.893.765-1.532 1.912-2.723 2.21-.51.127-.68-.595-.936-1.02-1.574-2.549-4.552-3.95-6.934-3.271-3.574 1.02-5.488 3.356-5.488 6.796 0 3.611 0 7.222.042 10.832.043 4.928 2.51 6.967 6.424 7.519 3.191.467 6.212-1.997 6.935-5.862.425-2.336 1.234-1.444 2.212-.68 2.51 1.997 2.595 3.101.128 6.457zm1.574-8.156a.82.82 0 0 1-.766 0c-3.573-2.039-7.147-4.078-10.678-6.117.085-.17.17-.382.255-.552h10.509c.212 0 .425.043.595.17.553.34.68 6.16.128 6.5zm78.109-8.495c-.425-1.402-.723-2.889-1.659-4.078-.68-.85-.808-1.572.128-2.549 2.425-2.633 1.234-5.99-2.297-6.584-.979-.17-1.957 0-2.978-.042-1.107 0-1.489.552-1.489 1.571V19.54c0 .722-.298 1.826.808 1.869 1.063 0 .936-1.02.936-1.784v-3.186c0-1.317.681-1.572 1.787-1.232.936.297 1.616.765 1.914 1.784.34 1.232.681 2.464 1.149 3.61.17.468.553 1.105 1.276.808.681-.255.596-.807.425-1.444m-2.254-8.963c-.085 1.699-1.192 2.464-2.808 2.506-2 .043-1.404-1.487-1.532-2.464 0-1.359-.34-2.803 1.745-2.676 1.701.085 2.68.85 2.552 2.634zm2.169 18.648c-.553-2.082-2.254-3.654-4.467-3.866-2.127-.17-4.254.977-4.935 2.889-.723 1.996-1.148 4.077-.893 6.244.468 3.95 2.212 5.862 5.318 5.862 2.467 0 4.339-1.657 4.977-4.036a13.37 13.37 0 0 0 0-7.094m-1.744 6.966c-.553 1.869-1.787 2.761-3.616 2.549-1.787-.213-2.936-1.317-3.191-3.144-.127-.85 0-1.699 0-2.549 0-1.274-.17-2.548.383-3.78.766-1.742 2.085-2.294 3.914-2.166 1.744.085 2.297 1.232 2.595 2.59.511 2.167.553 4.334-.042 6.5zm-36.502 3.017c0-.128 0-.297-.042-.425-1.234-4.078-2.468-8.198-3.787-12.234-.17-.594-.808-1.104-1.489-.976-.595.127-.978.68-1.191 1.359-1.106 3.823-2.297 7.646-3.403 11.469-.17.637-.724 1.571.255 1.784.936.212 1.319-.765 1.319-1.53 0-1.953 1.148-2.166 2.765-2.25 2.17-.086 3.574.424 3.701 2.845 0 .595.383 1.105 1.064 1.062.68 0 .723-.552.68-1.062zm-3.829-4.46c-.936.255-1.957.51-2.893-.085-.553-.34-.212-.85-.085-1.317.426-1.487.808-2.931 1.234-4.418.978 1.53 2 2.889 2.085 4.63 0 .468.297 1.02-.383 1.232z"/><path d="M219.268 10.874c.935 0 1.659-.552 1.659-1.316 0-1.785 1.063-1.7 2.254-1.615.724 0 1.404.043 2.128 0 1.361-.127 2.254 0 1.489 1.742-.553 1.274.297 1.614 1.404 1.657 1.106 0 2.807-.255 2.722 1.146-.042 1.063-1.786.468-2.765.51-2.17.085-4.382-.085-6.552.085-1.744.128-2.51-.467-2.297-2.209z"/></g><defs><clipPath id="a"><path fill="#fff" d="M0 0h271v48H0z"/></clipPath></defs></svg>