<svg width="271" height="48" viewBox="0 0 271 48" fill="none" xmlns="http://www.w3.org/2000/svg">
<g clip-path="url(#clip0_29_148)">
<path d="M163.493 23.5752C163.493 28.1628 163.451 32.7929 163.493 37.3805C163.493 39.0797 163.068 39.7593 161.239 39.7168C154.219 39.6319 147.199 39.6319 140.18 39.7168C138.308 39.7168 137.712 39.1646 137.755 37.2956C137.84 32.7505 137.755 32.7505 142.392 32.7505C146.093 32.7505 149.752 32.708 153.453 32.7505C154.942 32.7505 155.368 32.3257 155.283 30.7965C155.112 27.5682 155.197 27.5257 151.837 27.5682C148.348 27.5682 144.902 27.5257 141.413 27.5682C139.967 27.5682 139.627 27.0584 139.584 25.7416C139.499 20.177 139.457 20.177 144.902 20.177C147.795 20.177 150.73 20.177 153.623 20.177C154.772 20.177 155.24 19.8797 155.283 18.6478C155.453 14.3575 155.495 14.3151 151.198 14.2726C147.284 14.2301 143.413 14.2301 139.499 14.2726C138.223 14.2726 137.797 13.9328 137.84 12.5735C137.84 7.39117 137.84 7.39117 143.073 7.39117C149.156 7.39117 155.283 7.43365 161.366 7.39117C163.068 7.39117 163.536 7.9009 163.536 9.55754C163.451 14.2301 163.536 18.9027 163.536 23.5752H163.493Z" fill="#FFA20D"/>
<path d="M192.763 39.1221C189.487 39.1221 186.637 39.1221 183.829 39.1221C183.021 39.1221 182.553 38.6549 182.042 38.1451C179.66 35.8513 177.916 32.9628 175.661 30.5416C175.278 30.1168 174.98 29.4797 174.342 29.6496C173.619 29.862 173.959 30.6266 173.917 31.1363C173.917 33.3451 173.874 35.5115 173.917 37.7204C173.917 39.0372 173.534 39.7168 172.13 39.6319C170.556 39.5469 169.024 39.5894 167.45 39.6319C166.216 39.6743 165.621 39.2071 165.621 37.8903C165.621 28.1204 165.621 18.3505 165.621 8.58054C165.621 7.60355 166.003 7.1363 166.982 7.17878C167.11 7.17878 167.28 7.17878 167.407 7.17878C169.449 7.30621 172.045 6.32921 173.406 7.51859C174.81 8.75045 173.661 11.3841 173.917 13.3805C174.087 14.5699 173.236 16.4389 174.427 16.8637C175.576 17.2885 176.384 15.462 177.15 14.5274C178.852 12.3611 180.553 10.1947 182.425 8.15576C182.936 7.60355 183.319 7.1363 184.127 7.1363C186.679 7.1363 189.232 7.1363 191.785 7.1363C192.168 7.1363 192.721 7.00886 192.848 7.56107C192.891 7.81594 192.636 8.19825 192.423 8.45311C188.849 13.0407 185.276 17.7133 181.574 22.2159C180.638 23.3628 180.766 23.9151 181.659 25.0195C185.318 29.4797 188.807 34.0673 192.678 38.9947L192.763 39.1221Z" fill="#FFA20D"/>
<path d="M270.915 39.6318C268.873 40.3964 266.788 39.8017 264.746 39.9292C263.853 39.9717 263.555 39.4194 263.3 38.6548C262.959 37.5079 262.576 36.361 262.151 35.2566C261.385 33.3451 261.045 33.3451 259.471 34.7469C257.897 36.1487 256.237 37.4655 254.621 38.8248C254.238 39.1646 253.813 39.5044 253.302 39.2071C252.877 38.9522 253.047 38.4425 253.047 38.0602C253.047 37.0832 253.089 36.0637 253.047 35.0867C252.962 33.8548 253.345 32.9628 254.451 32.2407C255.855 31.3062 257.131 30.1593 258.45 29.0973C259.641 28.1628 259.939 27.1009 259.301 25.5717C258.407 23.2779 257.812 20.8991 257.173 18.5203C256.833 17.246 256.195 16.6088 254.834 16.5663C254.068 16.5663 252.834 16.7787 253.047 15.4195C253.217 14.2725 252.026 12.6584 254.068 12.0637C255.514 11.6389 254.706 10.8318 254.408 10.1097C253.217 7.43361 253.259 7.34866 256.237 7.34866C256.748 7.34866 257.259 7.43361 257.726 7.34866C259.896 6.8814 261.002 8.11325 261.258 9.98228C261.513 11.8513 262.534 12.2761 264.15 12.1487C265.342 12.0637 266.575 12.1487 267.767 12.1487C269.766 12.1487 270.915 14.1876 269.936 16.0141C269.553 16.7363 268.873 16.5663 268.235 16.5663C264.718 16.7079 263.569 18.4212 264.789 21.7062C265.129 22.5982 265.469 23.1079 266.405 22.2159C267.511 21.1964 268.703 20.3469 269.851 19.4124C270.107 19.2 270.404 18.8602 270.745 19.1575C270.915 19.2849 270.957 19.6672 270.957 19.9221C270.957 21.4938 270.872 23.023 270.872 24.5947C270.872 25.954 269.894 26.6761 268.958 27.1858C267.469 27.9929 267.214 29.0124 267.809 30.4991C268.405 31.9858 268.915 33.5575 269.426 35.0867C269.936 36.6159 270.404 38.1451 270.872 39.6743L270.915 39.6318Z" fill="#FFA20D"/>
<path d="M218.374 28.3328C218.374 31.4336 218.246 34.5345 218.374 37.6354C218.502 40.439 216.587 39.6319 215.098 39.8018C213.311 39.9717 212.758 39.2071 212.801 37.4655C212.886 32.6655 212.801 27.8655 212.801 23.0655C212.801 22.2584 213.014 21.154 211.695 21.1965C210.589 21.1965 210.759 22.2159 210.716 22.9805C210.461 27.908 210.078 32.8354 209.993 37.7629C209.908 40.7788 207.823 39.5894 206.377 39.8018C204.59 40.0991 204.718 38.9522 204.675 37.7204C204.548 30.3717 205.356 23.0655 205.824 15.7168C205.866 14.8673 206.079 14.1027 204.973 13.6354C203.995 13.2106 204.335 12.1487 204.462 11.3416C204.633 10.2797 205.526 10.4071 206.334 10.4071C207.909 10.4496 209.355 10.4071 208.589 8.15577C208.334 7.43365 208.759 7.26373 209.312 7.22125C210.674 7.22125 211.993 7.22125 213.354 7.22125C214.333 7.22125 214.545 7.81595 214.503 8.62303C214.418 9.85489 214.843 10.577 216.162 10.4496C217.608 10.3221 217.736 11.1717 217.736 12.3186C217.736 13.5929 217.055 13.8903 215.992 13.8478C214.843 13.8478 213.737 13.8478 212.588 13.8478C211.61 13.8478 211.184 14.1876 211.142 15.2071C211.142 16.2266 211.525 16.6089 212.503 16.6089C213.779 16.6089 215.056 16.6513 216.332 16.5664C217.906 16.439 218.502 17.0761 218.459 18.6053C218.417 21.8337 218.459 25.1044 218.459 28.3328C218.459 28.3328 218.374 28.3328 218.332 28.3328H218.374Z" fill="#FFA20D"/>
<path d="M251.132 39.8017C248.41 38.7398 246.325 37.0407 244.453 35.2141C243.432 34.2372 242.964 34.0672 241.986 35.2141C240.667 36.7009 238.965 37.7203 237.221 38.6973C236.03 39.3345 235.349 39.292 235.434 37.6779C235.476 36.4885 235.519 35.2566 235.434 34.0672C235.349 32.8354 236.285 32.4106 237.051 31.7734C239.433 29.8195 239.39 29.692 237.986 27.0584C236.668 24.5522 235.817 21.8761 235.221 19.115C234.966 17.7982 235.221 17.161 236.753 17.161C240.284 17.161 240.156 17.161 241.39 20.4318C241.773 21.5363 241.773 23.4902 243.134 23.4478C244.283 23.4478 244.155 21.5363 244.581 20.4743C245.219 18.9451 245.346 17.3309 245.346 15.7168C245.346 14.4425 244.836 13.9752 243.56 14.0177C241.305 14.1026 239.008 13.9752 236.753 14.0602C235.179 14.1451 235.051 13.338 235.051 12.1062C235.051 10.8743 235.221 10.1097 236.753 10.1522C241.007 10.2372 245.261 10.2372 249.516 10.1522C250.962 10.1522 251.388 10.7894 251.345 12.0637C251.09 17.5858 250.452 23.023 247.431 27.8655C246.665 29.0548 246.58 30.4566 248.069 31.1363C251.983 32.9628 251.515 36.2761 251.132 39.8017Z" fill="#FFA20D"/>
<path d="M225.904 16.9487C226.84 16.9487 227.734 16.9062 228.67 16.9487C229.605 17.0337 230.882 16.4814 231.307 17.6708C231.775 18.9452 231.69 20.3469 230.712 21.4514C230.159 22.0885 229.563 22.6832 228.967 23.3204C228.372 24 228.202 24.8496 228.414 25.6991C228.712 26.7186 229.605 26.4638 230.371 26.5062C231.307 26.5487 232.413 26.2089 232.413 27.8655C232.413 29.6496 231.222 29.3523 230.244 29.2673C228.584 29.1399 228.202 29.862 228.329 31.4337C228.499 33.685 228.414 35.9363 228.542 38.2301C228.627 39.8018 227.648 40.0142 226.5 39.8443C225.436 39.6744 223.777 40.6938 223.777 38.3576C223.777 36.1912 223.352 33.9823 223.692 31.816C223.99 29.9894 223.394 29.1399 221.437 29.3098C220.671 29.3947 219.65 29.6921 219.523 28.2903C219.353 26.846 219.991 26.3363 221.352 26.5062C223.139 26.7611 224.032 26.039 223.82 24.1275C223.777 23.6602 223.735 23.0655 223.99 22.6832C225.309 20.3894 223.777 20.5168 222.246 20.6018C220.969 20.6443 220.076 20.4319 220.076 18.7753C220.076 17.1186 220.927 16.9062 222.203 16.9487C223.394 16.9912 224.628 16.9487 225.819 16.9487H225.904Z" fill="#FFA20D"/>
<path d="M124.056 24.0849C124.056 19.1575 124.056 14.1876 124.056 9.26017C124.056 8.28318 123.886 7.22124 125.417 7.17876C127.119 7.13628 126.906 8.28318 126.906 9.30265C126.906 19.0301 126.906 28.8 126.906 38.5274C126.906 39.5894 127.119 40.7363 125.417 40.7363C123.63 40.7363 124.056 39.4619 124.056 38.4849C124.056 33.6849 124.056 28.8849 124.056 24.0849Z" fill="#FFA20D"/>
<path d="M203.059 31.8159C203.186 33.4725 202.931 35.384 202.505 37.338C202.208 38.6548 201.57 39.3345 200.166 39.2495C199.953 39.2495 199.74 39.2495 199.527 39.2495C195.911 39.2495 196.039 39.2495 196.507 35.7239C196.805 33.3451 197.273 30.9663 197.017 28.5876C196.89 27.4832 197.315 27.0159 198.379 27.0159C198.464 27.0159 198.506 27.0159 198.592 27.0159C201.57 26.846 203.059 28.446 203.059 31.8159Z" fill="#FFA20D"/>
<path d="M79.0026 30.3292C79.0026 33.0478 79.0026 35.469 79.0026 37.8902C79.0026 38.4425 79.0026 39.0371 79.0026 39.5894C79.0026 40.1416 78.7048 40.5663 78.1092 40.5663C77.4285 40.5663 77.3009 40.0991 77.3009 39.5894C77.3009 35.554 77.3009 31.5186 77.3009 27.5256C77.3009 26.2513 78.0241 25.9964 79.1728 26.5486C80.1088 26.9734 80.4917 27.7805 80.832 28.6301C81.9807 31.3487 83.1293 34.0248 84.278 36.7433C84.4482 36.7433 84.6183 36.7009 84.831 36.6584C84.831 34.0248 84.7885 31.3911 84.831 28.8C84.831 27.9079 84.2354 26.3787 85.5968 26.3363C87.1709 26.3363 86.5328 27.9504 86.5328 28.8425C86.6179 32.0283 86.5328 35.2141 86.5328 38.4C86.5328 39.3345 86.5753 40.3964 85.4692 40.6513C84.3631 40.9062 84.1504 39.9292 83.7249 39.1646C82.6188 37.1256 81.6829 34.9593 80.8745 32.7929C80.5767 31.9433 80.1938 31.1363 78.9601 30.3717L79.0026 30.3292Z" fill="#FFA20D"/>
<path d="M69.7283 10.3221C69.7283 13.338 69.7283 16.3964 69.7283 19.4549C69.7283 20.1345 70.1112 21.3239 69.0051 21.3239C68.0691 21.3239 68.2393 20.177 68.2393 19.4124C68.2393 16.0141 68.2393 12.6159 68.2393 9.26016C68.2393 8.32565 67.8989 7.09378 69.2178 6.79644C70.6217 6.45662 71.0046 7.68848 71.4726 8.62299C72.919 11.5115 74.2804 14.4425 76.0672 17.2885C76.0672 14.4425 76.0672 11.6389 76.0672 8.7929C76.0672 8.07078 75.7269 6.96636 76.833 6.8814C78.1518 6.83892 77.7264 8.07078 77.7264 8.7929C77.7689 12.2336 77.7264 15.7168 77.7264 19.1575C77.7264 20.0071 78.0667 21.2389 76.833 21.4513C75.6843 21.6637 75.2164 20.5593 74.7909 19.6672C73.4295 16.7363 72.0682 13.8053 70.7493 10.8743C70.6217 10.5345 70.409 10.2372 69.6857 10.3646L69.7283 10.3221Z" fill="#FFA20D"/>
<path d="M90.0214 9.21772C86.6179 7.77347 84.4482 8.32569 83.0443 10.9593C81.5553 13.8053 82.4912 17.8407 85.0864 19.4974C86.235 20.262 87.4688 20.3469 88.7025 19.7522C89.8937 19.1575 89.3832 18.0531 89.4683 17.1186C89.6385 15.8018 89.128 15.1221 87.6815 15.2071C87.0859 15.2496 86.235 15.377 86.1925 14.4425C86.1925 13.3381 87.1284 13.5929 87.7666 13.5505C88.4047 13.5505 89.0429 13.5505 89.681 13.5505C90.7872 13.5505 91.3827 14.0602 91.2977 15.2496C91.2977 15.6744 91.2977 16.0991 91.2977 16.5239C91.0849 18.1381 92.1485 20.262 89.8087 21.154C87.4688 22.046 85.1714 21.8761 83.1294 20.3894C79.4707 17.7558 80.0663 9.55755 84.0228 7.39118C86.235 6.2018 88.3622 6.32923 90.4893 7.51861C90.9573 7.90091 91.6805 8.24073 91.4253 8.96285C91.17 9.6425 90.5744 9.47259 90.0214 9.21772Z" fill="#FFA20D"/>
<path d="M99.4659 36.3186C99.3808 37.8478 100.019 39.6744 97.8918 40.4814C95.6796 41.331 92.659 40.7363 91.1274 38.8673C88.5748 35.7664 88.7876 27.908 93.8077 26.1239C95.8072 25.4018 97.3813 26.0814 98.9979 27.0584C99.3808 27.2708 99.6361 27.6531 99.4234 28.1204C99.2106 28.6301 98.7852 28.6301 98.3598 28.3752C96.4879 27.2283 94.4458 26.846 92.9568 28.5452C91.1275 30.6266 90.8722 33.2602 91.6805 35.9363C92.4463 38.4 94.0629 39.4195 96.2326 39.0797C97.7216 38.8673 97.8067 37.8478 97.6791 36.7434C97.5515 35.8089 98.3598 34.2797 96.4028 34.2372C95.8072 34.2372 94.9138 34.2372 94.9138 33.4301C94.9138 32.4531 95.8923 32.623 96.573 32.5805C99.4659 32.4106 99.5084 32.4956 99.5084 36.3611L99.4659 36.3186Z" fill="#FFA20D"/>
<path d="M94.616 13.9328C94.616 12.1062 94.616 10.2797 94.616 8.41065C94.616 7.17879 95.084 6.5841 96.4028 6.62657C97.7642 6.66905 99.083 6.62657 100.444 6.62657C101.083 6.62657 101.593 6.96639 101.551 7.64604C101.551 8.28321 100.955 8.36817 100.444 8.36817C99.9339 8.36817 99.4659 8.41065 98.9554 8.36817C97.041 8.1133 96.3177 8.75048 96.4028 10.7894C96.4879 12.4036 96.8708 13.2106 98.5725 12.9558C98.9979 12.9133 99.4234 12.9133 99.8488 12.9558C100.359 12.9558 100.912 13.0832 100.955 13.6779C100.955 14.2726 100.444 14.485 99.9339 14.5699C99.5935 14.6549 99.2106 14.6549 98.8703 14.6124C96.9133 14.3151 96.2752 15.0372 96.3603 17.0337C96.5304 20.1345 96.1901 19.8797 99.5085 19.8797C100.189 19.8797 101.38 19.4974 101.338 20.6443C101.338 21.7062 100.189 21.4089 99.4659 21.4089C94.2757 21.3664 94.5309 22.4283 94.6585 16.6089C94.6585 15.6744 94.6585 14.7823 94.6585 13.8478L94.616 13.9328Z" fill="#FFA20D"/>
<path d="M53.3917 14.0177C53.3917 12.1062 53.3917 10.1947 53.3917 8.32566C53.3917 7.17876 53.9022 6.62655 55.0508 6.66902C56.4122 6.66902 57.7311 6.66902 59.0924 6.66902C59.7731 6.66902 60.156 7.05132 60.156 7.68849C60.156 8.32566 59.603 8.41062 59.0924 8.4531C58.5394 8.4531 57.9438 8.53806 57.3907 8.4531C55.689 8.24071 55.1785 8.96282 55.221 10.6195C55.3061 13.508 55.221 13.508 58.114 13.508C58.8372 13.508 59.9433 13.2956 59.9859 14.315C60.0709 15.5894 58.8372 15.2495 58.0714 15.292C55.2636 15.3345 55.2636 15.292 55.2636 18.223C55.2636 18.7752 55.2636 19.3699 55.2636 19.9221C55.221 20.5593 55.4763 21.4938 54.4127 21.5363C53.3917 21.5363 53.4342 20.6867 53.4342 20.0071C53.4342 18.0531 53.4342 16.0566 53.4342 14.1027L53.3917 14.0177Z" fill="#FFA20D"/>
<path d="M199.91 23.1504C197.911 23.7027 196.847 22.8531 197.23 20.4319C197.23 20.3469 197.23 20.3044 197.23 20.2195C197.06 19.0726 195.826 17.5434 196.635 16.9062C197.868 15.9292 199.783 16.6513 201.357 16.5664C202.038 16.5664 202.335 16.9912 202.548 17.5434C202.761 18.0531 202.973 18.6053 203.144 19.115C204.42 23.023 204.292 23.1505 199.91 23.108V23.1504Z" fill="#FFA20D"/>
<path d="M60.071 26.0814C61.0495 26.0814 62.0705 26.0814 63.049 26.0814C63.6446 26.0814 64.4955 25.954 64.4529 26.8885C64.4529 27.6956 63.6871 27.5682 63.1341 27.6106C63.0064 27.6106 62.8363 27.6106 62.7086 27.6106C61.3047 27.4407 60.7517 27.823 60.8793 29.4797C61.092 32.6655 60.9644 35.8514 60.9644 38.9947C60.9644 39.7168 60.9644 40.5664 60.0284 40.6089C58.7947 40.6938 59.0499 39.6319 59.0499 38.9098C59.0499 35.8514 58.9648 32.8354 59.0499 29.777C59.0925 28.2053 58.7096 27.3133 56.9228 27.5682C56.3697 27.6531 55.4763 27.7806 55.6039 26.7611C55.689 25.9965 56.3697 25.954 57.0929 25.9965C58.0714 26.0814 59.0925 25.9965 60.071 25.9965C60.071 25.9965 60.071 25.9965 60.071 26.039V26.0814Z" fill="#FFA20D"/>
<path d="M200.378 13.508C198.506 13.8053 197.188 13.508 197.528 11.1717C197.528 11.0443 197.443 10.8744 197.443 10.7469C197.528 9.68499 195.954 8.3257 197.145 7.77349C198.464 7.1788 200.463 6.92392 201.74 8.1133C202.973 9.30268 203.399 11.1292 202.931 12.8284C202.548 14.0602 201.187 13.2956 200.336 13.508H200.378Z" fill="#FFA20D"/>
<path d="M219.267 10.8743C219.48 10.6195 219.693 10.3221 219.948 10.0672C220.671 9.30265 220.118 7.64601 221.437 7.47609C223.394 7.26371 225.394 7.39114 227.393 7.47609C228.031 7.47609 228.202 7.98583 227.904 8.53804C226.713 10.6619 228.202 10.492 229.563 10.5345C230.712 10.5345 232.116 10.1097 232.03 12.1487C232.03 13.3805 231.605 13.9327 230.286 13.8903C227.095 13.8053 223.905 13.8903 220.714 13.8903C218.629 13.8903 218.246 13.0407 219.267 10.9168C219.906 12.1911 220.969 12.6159 222.373 12.531C224.756 12.4035 227.095 12.531 229.733 12.446C228.967 11.8088 228.287 11.9788 227.691 11.8088C226.883 11.5965 226.33 11.1717 226.159 10.2796C226.032 9.64247 226.883 8.49557 225.436 8.58052C224.075 8.66548 222.416 7.8584 221.437 9.64247C221.012 10.4495 220.629 11.5964 219.267 10.8743Z" fill="#FFA20D"/>
<path d="M266.958 7.43362C267.724 7.43362 268.533 7.43362 269.298 7.43362C270.277 7.43362 270.66 7.94337 270.702 8.87788C270.702 9.85487 270.447 10.577 269.341 10.6195C267.979 10.6195 266.661 10.5345 265.299 10.6195C263.725 10.7469 263.342 9.76991 263.3 8.53805C263.257 7.05132 264.406 7.43363 265.257 7.39115C265.81 7.39115 266.405 7.39115 266.958 7.39115V7.43362Z" fill="#FFA20D"/>
<path d="M64.5806 14.1876C64.5806 16.1841 64.5806 18.1381 64.5806 20.1345C64.5806 20.6442 64.6656 21.4513 63.8573 21.4089C63.2192 21.3664 63.0916 20.6867 63.0916 20.092C63.0916 16.0566 63.0916 12.0212 63.0916 8.02832C63.0916 7.47611 63.0916 6.79645 63.9424 6.83893C64.7082 6.88141 64.7082 7.56106 64.7082 8.11327C64.7082 10.1522 64.7082 12.1911 64.7082 14.2301C64.6656 14.2301 64.5806 14.2301 64.538 14.2301L64.5806 14.1876Z" fill="#FFA20D"/>
<path d="M90.0214 9.21773C92.0209 9.13277 90.702 8.19826 90.4893 7.51862C91.5529 7.68853 91.9783 8.36818 91.5529 9.26021C91.2126 9.93986 90.5319 9.8549 90.0214 9.21773Z" fill="#FFA20D"/>
<path d="M24.1645 0C10.9761 0 0.297802 10.4496 0 23.8301C0.212716 37.9327 11.0612 48.085 24.2071 48.085C36.9275 48.085 47.9887 38.2726 48.0312 24C48.0312 9.9823 36.9275 0 24.1645 0ZM33.1411 36.6159C30.2482 40.5239 26.079 41.8832 21.4843 40.8212C17.7405 39.9292 15.0177 37.508 13.6989 33.5151C12.6353 30.3292 13.3586 27.1858 12.9757 24.085C13.3586 20.9416 12.6353 17.7558 13.6989 14.6124C15.3581 9.72744 19.5273 6.75399 24.7601 6.96638C28.4614 7.13629 31.1416 8.92036 33.3113 11.7239C33.7793 12.3186 34.1622 13.0407 33.524 13.6354C32.6306 14.4 31.9925 15.5469 30.8013 15.8443C30.2907 15.9717 30.1206 15.2496 29.8653 14.8248C28.2912 12.2761 25.3132 10.8743 22.9308 11.554C19.3571 12.5735 17.4427 14.9097 17.4427 18.3504C17.4427 21.9611 17.4427 25.5717 17.4852 29.1823C17.5278 34.1097 19.9953 36.1487 23.9093 36.7009C27.1 37.1682 30.1206 34.7044 30.8438 30.8389C31.2692 28.5027 32.0776 29.3947 33.056 30.1593C35.5661 32.1558 35.6512 33.2602 33.1837 36.6159H33.1411ZM34.7152 28.4602C34.5025 28.5876 34.1622 28.5876 33.9495 28.4602C30.3758 26.4212 26.8022 24.3823 23.2711 22.3434C23.3562 22.1735 23.4413 21.9611 23.5264 21.7912C27.0149 21.7912 30.5035 21.7912 34.0345 21.7912C34.2473 21.7912 34.46 21.8336 34.6301 21.9611C35.1832 22.3009 35.3108 28.1204 34.7578 28.4602H34.7152Z" fill="#FFA20D"/>
<path d="M112.824 19.9646C112.399 18.5629 112.101 17.0761 111.165 15.8868C110.485 15.0372 110.357 14.3151 111.293 13.3381C113.718 10.7045 112.527 7.34871 108.996 6.75402C108.017 6.58411 107.039 6.75402 106.018 6.71154C104.911 6.71154 104.529 7.26374 104.529 8.28321C104.529 10.1947 104.529 12.1062 104.529 14.0177C104.529 15.8443 104.529 17.7133 104.529 19.5398C104.529 20.262 104.231 21.3664 105.337 21.4089C106.4 21.4089 106.273 20.3894 106.273 19.6248C106.273 18.5629 106.273 17.5009 106.273 16.439C106.273 15.1222 106.954 14.8673 108.06 15.2071C108.996 15.5045 109.676 15.9717 109.974 16.9912C110.314 18.223 110.655 19.4549 111.123 20.6018C111.293 21.0691 111.676 21.7062 112.399 21.4089C113.08 21.154 112.995 20.6018 112.824 19.9646ZM110.57 11.0018C110.485 12.7009 109.378 13.4655 107.762 13.508C105.762 13.5505 106.358 12.0213 106.23 11.0443C106.23 9.68498 105.89 8.24074 107.975 8.36817C109.676 8.45313 110.655 9.21774 110.527 11.0018H110.57Z" fill="#FFA20D"/>
<path d="M112.739 29.6495C112.186 27.5681 110.485 25.9964 108.272 25.7841C106.145 25.6141 104.018 26.761 103.337 28.6725C102.614 30.669 102.189 32.7504 102.444 34.9168C102.912 38.8672 104.656 40.7787 107.762 40.7787C110.229 40.7787 112.101 39.1221 112.739 36.7433C113.378 34.3646 113.378 32.0283 112.739 29.6495ZM110.995 36.6159C110.442 38.4849 109.208 39.377 107.379 39.1646C105.592 38.9522 104.443 37.8478 104.188 36.0212C104.061 35.1717 104.188 34.3221 104.188 33.4725C104.188 32.1982 104.018 30.9239 104.571 29.692C105.337 27.9504 106.656 27.3982 108.485 27.5256C110.229 27.6106 110.782 28.7575 111.08 30.1168C111.591 32.2832 111.633 34.4495 111.038 36.6159H110.995Z" fill="#FFA20D"/>
<path d="M74.4931 39.6319C74.4931 39.5044 74.4931 39.3345 74.4506 39.2071C73.2168 35.1292 71.983 31.0088 70.6642 26.9734C70.494 26.3787 69.8559 25.869 69.1752 25.9965C68.5796 26.1239 68.1967 26.6761 67.984 27.3557C66.8779 31.1788 65.6867 35.0018 64.5805 38.8248C64.4104 39.4619 63.8573 40.3964 64.8358 40.6088C65.7717 40.8212 66.1546 39.8442 66.1546 39.0796C66.1546 37.1256 67.3033 36.9133 68.9199 36.8283C71.0896 36.7434 72.4936 37.2531 72.6212 39.6743C72.6212 40.269 73.0041 40.7788 73.6848 40.7363C74.3655 40.7363 74.408 40.1841 74.3655 39.6743L74.4931 39.6319ZM70.6642 35.1717C69.7283 35.4265 68.7072 35.6814 67.7713 35.0867C67.2182 34.7469 67.5586 34.2372 67.6862 33.7699C68.1116 32.2832 68.4945 30.8389 68.9199 29.3522C69.8984 30.8814 70.9195 32.2407 71.0046 33.9823C71.0046 34.4495 71.3024 35.0018 70.6217 35.2142L70.6642 35.1717Z" fill="#FFA20D"/>
<path d="M219.268 10.8744C220.203 10.8744 220.927 10.3221 220.927 9.55755C220.927 7.77347 221.99 7.85844 223.181 7.94339C223.905 7.94339 224.585 7.98587 225.309 7.94339C226.67 7.81596 227.563 7.94339 226.798 9.68499C226.245 10.9593 227.095 11.2991 228.202 11.3416C229.308 11.3416 231.009 11.0868 230.924 12.4885C230.882 13.5505 229.138 12.9558 228.159 12.9983C225.989 13.0832 223.777 12.9133 221.607 13.0832C219.863 13.2107 219.097 12.616 219.31 10.8744H219.268Z" fill="#FFA20D"/>
</g>
<defs>
<clipPath id="clip0_29_148">
<rect width="271" height="48" fill="white"/>
</clipPath>
</defs>
</svg>
