<svg xmlns="http://www.w3.org/2000/svg" width="85" height="64" fill="none" viewBox="0 0 85 64"><g fill="#d9d9d9" clip-path="url(#a)"><path d="M81.86 22.847c-1.422-1.867-3.22-3.35-5.229-4.557-.4-.249-.462-.436-.275-.872 1.436-3.262 2.821-6.549 4.257-9.811.174-.399.124-.61-.225-.872-1.997-1.519-4.181-2.69-6.515-3.61C68.406.97 62.689.11 56.86.01 46.064-.175 35.704 1.93 25.756 6.051c-6.44 2.664-12.394 6.125-17.499 10.932-3.033 2.863-5.604 6.076-7.114 10.01-1.935 5.043-1.473 9.8 1.847 14.17 1.423 1.868 3.22 3.35 5.23 4.557.4.237.461.436.274.86-1.435 3.262-2.833 6.549-4.256 9.811-.175.399-.137.598.212.872 2.172 1.643 4.556 2.889 7.09 3.847 5.804 2.18 11.845 2.864 17.586 2.939a72 72 0 0 0 6.266-.299c9.424-.822 18.435-3.2 26.985-7.26 5.704-2.701 10.959-6.088 15.39-10.633 2.621-2.69 4.805-5.665 6.078-9.239 1.748-4.93 1.224-9.55-1.984-13.77m-58.088 7.645c0 1.084.062 2.167-.038 3.25 0 .137 0 .274-.05.411.063 3.474-1.697 7.222-6.553 7.583-1.847.137-3.657-.1-5.441-.46-1.249-.262-1.985-1.42-1.748-2.603.237-1.208 1.41-1.967 2.671-1.756 1.386.224 2.784.536 4.207.3 1.41-.225 2.296-1.209 2.408-2.616.038-.41-.174-.323-.412-.286-1.61.236-3.22.311-4.83-.075-2.896-.697-4.743-2.976-4.818-5.952-.025-.909-.05-1.817.1-2.726.512-3.188 2.87-5.38 6.116-5.653 1.485-.125 2.946-.025 4.356.498 1.111.41 1.91 1.145 2.521 2.116 1.011 1.607 1.436 3.387 1.523 5.255.038.909 0 1.818-.012 2.74zm10.759 11.07c-2.184.336-4.356.112-6.516-.187-1.26-.175-1.31-.237-1.323-1.557 0-.747.075-1.494.287-2.216.15-.473.412-.685.949-.685.899 0 1.772.2 2.659.312 1.198.149 2.409.211 3.594-.063 1.735-.398 2.472-2.64 1.348-4.009-.274-.336-.611-.436-1.036-.473-1.91-.125-3.819-.125-5.729-.112-.474 0-.724-.137-.823-.598-.213-.959-.437-1.905-.337-2.889.074-.747.237-.884.986-.884 1.897.013 3.781 0 5.666-.224.961-.112 1.585-.76 1.673-1.768.087-.959-.45-1.706-1.386-1.93-.96-.236-1.947-.162-2.72-.124-1.461.1-2.734.112-3.982.323-.45.075-.737-.087-.862-.51-.361-1.133-.361-2.279-.037-3.437.062-.236.2-.398.474-.423 2.771-.274 5.555-.71 8.313-.05 4.206.996 5.966 5.753 3.532 9.525-.3.461-.274.723.025 1.17 2.547 3.674 1.161 9.887-4.718 10.796zm23.927-21.018a9683 9683 0 0 0-8.7 20.022c-.162.386-.412.597-.799.697-1.073.249-2.146.286-3.207.025-.724-.175-.837-.424-.55-1.096 2.16-5.005 4.307-10.01 6.466-15.029.1-.236.262-.473.25-.81h-2.484c-1.648 0-3.283 0-4.93.026-.45 0-.712-.162-.85-.56a5.34 5.34 0 0 1-.112-3.188c.125-.448.412-.66.912-.66 4.555.012 9.111.012 13.654 0 .525 0 .525.162.35.573m16.638-.013a13808 13808 0 0 0-8.7 20.022c-.162.386-.412.61-.799.697-1.073.262-2.146.287-3.207.038-.724-.175-.837-.424-.55-1.096 2.147-4.993 4.294-9.986 6.44-14.967l.338-.784c-.275-.137-.512-.087-.736-.087-2.222 0-4.456 0-6.678.025-.5 0-.799-.175-.936-.623-.312-1.008-.375-2.042-.1-3.063.125-.473.4-.722.936-.71q6.834.02 13.667 0c.512 0 .537.137.35.56z"/><path d="M16.62 29.994c-.6 0-1.199 0-1.798-.15-.611-.16-.986-.535-1.098-1.145a6.4 6.4 0 0 1 .05-2.714c.212-.909.761-1.494 1.722-1.644.562-.087 1.111-.074 1.673-.037 1.023.075 1.61.623 1.835 1.631.25 1.084.287 2.18.324 3.275 0 .361-.137.523-.486.573-.737.124-1.486.224-2.235.211z"/></g><defs><clipPath id="a"><path fill="#fff" d="M0 0h85v64H0z"/></clipPath></defs></svg>