<svg xmlns="http://www.w3.org/2000/svg" width="319" height="48" fill="none" viewBox="0 0 319 48"><g clip-path="url(#a)"><path fill="#d9d9d9" d="M256.33 36.247c1.696-5.435 3.427-10.835 4.982-16.306.494-1.73 1.342-2.435 3.108-2.223 1.237.14 2.473.07 3.71 0 1.271 0 1.519.458 1.095 1.623-1.519 4.13-3.003 8.259-4.522 12.424-1.413 3.847-2.862 7.694-4.204 11.576-.389 1.165-1.024 1.588-2.19 1.518a50 50 0 0 0-4.593 0c-1.271.07-1.907-.459-2.261-1.659-1.519-4.765-3.073-9.494-4.627-14.224-.106-.317-.248-.635-.46-1.094-.671.46-.706 1.13-.918 1.694-1.484 4.518-3.003 9.036-4.381 13.589-.388 1.306-1.059 1.8-2.402 1.73-1.06-.072-2.119 0-3.179 0q-2.897 0-3.886-2.648c-2.756-7.482-5.511-15-8.267-22.482-.706-1.977-.706-2.012 1.307-1.977 1.943.035 4.169-.706 5.723.318 1.555 1.059 1.449 3.459 2.049 5.294 1.413 4.27 2.72 8.612 4.098 13.023.742-.494.707-1.2.883-1.764 1.519-4.977 3.074-9.988 4.522-15 .424-1.447 1.131-1.906 2.614-1.906 5.653 0 5.617 0 7.278 5.33 1.377 4.411 2.755 8.823 4.098 13.235h.423zm-110.395 9c-4.522-.106-7.949-.882-11.128-2.788-1.06-.636-1.413-1.341-.742-2.436s.706-2.753 1.837-3.317c1.166-.565 2.119.917 3.25 1.341 2.049.777 4.098 1.447 6.323 1.482.778 0 1.519-.106 2.191-.529 1.342-.847 1.413-2.012.176-3-.883-.706-1.943-1.059-3.038-1.412-1.978-.6-3.956-1.13-5.829-2.047-2.755-1.376-4.345-3.565-4.31-6.706 0-3.07 1.378-5.435 4.098-6.882 4.239-2.259 8.691-2.012 13.001-.494 5.616 1.976 4.239 1.623 2.366 5.823-.529 1.2-1.095 1.412-2.296.812-2.261-1.165-4.663-1.941-7.277-1.8-1.131.07-2.19.318-2.438 1.553-.282 1.341.742 1.87 1.767 2.259 1.483.53 3.002.988 4.521 1.517 1.06.353 2.12.706 3.109 1.2 3.568 1.73 4.981 4.095 4.628 7.906-.318 3.53-2.579 5.577-5.723 6.671-1.731.6-3.533.953-4.522.847zm164.657-23.541c1.908-2.294 4.098-3.847 7.03-4.094.989-.07 1.449.176 1.413 1.165v1.411c-.035 1.341.283 2.86-.247 3.989-.565 1.2-2.332.635-3.533.988-3.073.847-5.051 3.212-5.087 6.388-.035 3.741-.106 7.518 0 11.259.036 1.659-.565 2.223-2.155 2.082-1.095-.106-2.225 0-3.356 0-2.437 0-2.543-.106-2.543-2.612V19.906c0-1.518.53-2.365 2.19-2.153.353.035.707 0 1.06 0 1.342 0 2.826-.282 4.027.176 1.625.6.212 2.471 1.166 3.812zM128.625 36.247V9.494c0-1.518-.46-2.153-2.014-2.012-1.237.106-2.473 0-3.709 0-2.332 0-2.332 0-2.332 2.365V20.86c-.6.141-.812-.283-1.095-.53-4.169-4.447-13.495-3.564-17.275 1.66-3.073 4.27-3.603 8.964-2.296 13.905 2.402 8.93 12.329 12.247 19.536 6.635.847-.67 1.13-.494 1.095.494-.071 1.624.848 1.977 2.261 1.906 1.342-.07 2.72-.07 4.062 0 1.307.071 1.802-.458 1.767-1.764-.071-2.294 0-4.588 0-6.883zm-16.392 2.612c-4.063-.035-6.606-2.93-6.571-7.483 0-4.411 2.756-7.34 6.783-7.34 3.886 0 6.712 3.176 6.677 7.482s-2.897 7.34-6.854 7.306zm-13.848 3.423c-3.85-8.964-7.666-17.929-11.552-26.858-.812-1.871-1.095-4.377-2.65-5.436-1.66-1.164-4.133-.212-6.217-.388-1.378-.106-2.084.388-2.65 1.694-3.038 7.2-6.182 14.33-9.326 21.494-1.519 3.494-3.073 6.989-4.557 10.518-.247.565-.918 1.482.389 1.518 2.331.07 4.875.67 6.96-.283 1.448-.635 1.448-2.964 2.19-4.447.035-.106.105-.212.105-.318.318-1.305 1.201-1.658 2.508-1.658 3.78.07 7.525 0 11.305 0 3.603 0 3.003-.318 4.31 2.858 1.943 4.589.742 3.777 5.723 3.883h1.766q2.756 0 1.625-2.577zm-14.413-10.8h-8.09c-.883 0-1.201-.388-.848-1.2 1.59-3.847 3.144-7.658 4.734-11.506h.494c1.555 3.848 3.074 7.695 4.628 11.542.353.882-.106 1.2-.918 1.2zm96.053-21.529c-5.44-.741-10.916-.141-16.392-.353-1.766-.07-2.19.6-2.155 2.259.071 5.118 0 10.2 0 15.318v15.846c0 1.306.354 1.977 1.802 1.906q2.385-.105 4.769 0c1.131 0 1.59-.458 1.554-1.588-.035-2.188.036-4.341 0-6.53-.035-1.376.46-1.87 1.837-1.834 2.756.07 5.511 0 8.267-.283 6.712-.741 11.057-5.47 11.022-12.565-.036-6.423-3.003-11.047-10.739-12.14zm3.003 13.059c-.248 2.894-2.332 4.8-5.405 4.941-2.155.07-4.346 0-6.501.035-1.024 0-1.519-.423-1.483-1.482v-8.753c0-.776.176-1.447 1.13-1.412 2.614.07 5.299-.317 7.878.283 3.144.74 4.699 3.035 4.381 6.388m39.071 5.188c-1.06-6.565-6.889-10.73-14.378-10.659-.601.035-1.166.106-1.766.141-5.193.424-9.327 2.683-11.446 7.553-2.155 5.012-1.908 10.024 1.342 14.542 2.968 4.094 7.313 5.435 12.223 5.435 8.62 0 15.791-5.894 13.99-17.012zm-14.237 10.659c-3.956 0-6.818-3.177-6.747-7.483.07-4.235 2.897-7.376 6.712-7.305 4.027.035 6.677 3.035 6.677 7.482 0 4.341-2.721 7.341-6.642 7.306m76.412-21.282c-6.288-.036-11.128 2.717-13.318 7.976-2.403 5.718-1.06 12.318 3.25 16.376 4.239 3.953 12.788 4.447 18.37 1.095 3.356-2.012 3.391-2.294.671-5.083-.036-.035-.106-.07-.106-.141-.919-1.2-1.802-1.588-3.144-.388-1.237 1.094-2.932 1.482-4.557 1.694-2.685.318-5.653-1.2-6.854-3.459-.742-1.376-.53-1.8 1.025-1.8 2.579-.035 5.157 0 7.772 0h7.948c1.06 0 1.802-.282 1.872-1.553.389-7.941-3.532-14.647-12.929-14.717m3.709 11.435h-9.008c-.601 0-1.201 0-1.095-.953.282-2.082 2.861-4.412 5.193-4.659 3.073-.318 5.546 1.094 6.358 3.6.53 1.624.248 2.012-1.448 2.047z"/><mask id="b" width="50" height="50" x="0" y="0" maskUnits="userSpaceOnUse" style="mask-type:luminance"><path fill="#1e4dfe" d="M5.688 49.165C2.578 48.495.707 46.588 0 43.482c0-6.14.07-12.317.07-18.458C.07 18.563.036 12.14 0 5.682.671 2.576 2.579.706 5.688 0c6.04 0 12.081.07 18.122.07h20.066c3.674 1.13 5.44 3.46 5.44 7.2v34.624c0 3.741-1.802 6.07-5.44 7.2-12.753 0-25.47.035-38.224.07z"/><path fill="#a5b8ff" d="M38.683 41.118V28.235l-5.249-4.34-4.996 3.92v5.009z"/><path fill="#d2dbff" d="M11.481 7.765v13.574l4.481 2.977 8.578-6.502z"/><path fill="#a5b8ff" fill-rule="evenodd" d="M11.481 34.412v-7.06l4.481-3.036 4.271 3.352zm0 .353v6.353L24.428 30.96l-3.938-3.09z" clip-rule="evenodd"/><path fill="#fdfdff" fill-rule="evenodd" d="m20.233 27.668-4.27-3.352 8.577-6.502.012.01v6.513zm.257.202 3.938 3.091.124-.098v-6.137z" clip-rule="evenodd"/><path fill="#e5ebff" fill-rule="evenodd" d="M28.438 21.34v-1.575l.985.814zm0 .378v6.097l4.996-3.92-3.776-3.122z" clip-rule="evenodd"/><path fill="#a5b8ff" fill-rule="evenodd" d="M38.683 19.588v-6l-9.025 7.185 3.776 3.122zm-9.26.991-.985-.814v1.574l-3.886 2.998v-6.514l-.012-.009L38.683 6.882v6.353zm-4.87 10.284v-6.137l3.885-3.008v6.097z" clip-rule="evenodd"/><path fill="#c7d2ff" d="M11.481 34.412v.353l9.01-6.895-.258-.202zm13.071-10.069v.383l3.886-3.008v-.379l-3.886 2.998zm14.131-10.755v-.353l-9.26 7.344.235.194z"/><path fill="#fdfdff" d="m20.233 27.668.257.202 4.062-3.144v-.389zm8.205-6.328v.378l1.22-.945-.235-.194z"/></mask><g mask="url(#b)"><path fill="#d9d9d9" d="M0 0h49.262v48H0z"/></g></g><defs><clipPath id="a"><path fill="#fff" d="M0 0h319v48H0z"/></clipPath></defs></svg>