<svg width="138" height="48" viewBox="0 0 138 48" fill="none" xmlns="http://www.w3.org/2000/svg">
<g clip-path="url(#clip0_33_153)">
<path d="M80.8999 28.3L76.2999 9H66.3999L73.7999 38L68.2999 48.3H78.6999L101.2 9H91.1999L80.8999 28.3Z" fill="#FF6600"/>
<path d="M117.4 28.3L112.8 9H102.8L110.2 38L104.7 48.3H115.1L137.6 9H127.7L117.4 28.3Z" fill="#FF6600"/>
<path d="M48.8 29.6C45.3 29.6 42.5001 26.8 42.5001 23.3C42.5001 19.8 45.3 17 48.8 17C52.3 17 55.1001 19.8 55.1001 23.3C55.1001 26.8 52.3 29.6 48.8 29.6ZM48.8 7.79999C40.3 7.79999 33.3 14.8 33.3 23.3C33.3 31.8 40.3 38.8 48.8 38.8C57.3 38.8 64.3001 31.8 64.3001 23.3C64.3001 14.8 57.3 7.79999 48.8 7.79999Z" fill="#FF6600"/>
<path d="M18.2 24.6C17.6 27.6 16.3 29.6 12.1 29.6H1.5L0 38.1H13C23.1 38.1 26.1 33.5 27.8 25.4L32.3 0H22.4L18.1 24.6H18.2Z" fill="#FF6600"/>
</g>
<defs>
<clipPath id="clip0_33_153">
<rect width="138" height="48" fill="white"/>
</clipPath>
</defs>
</svg>
