<svg width="184" height="48" viewBox="0 0 184 48" fill="none" xmlns="http://www.w3.org/2000/svg">
<g clip-path="url(#clip0_30_154)">
<path d="M161.988 17.7064C160.148 17.7064 158.291 17.7064 156.451 17.7064C155.974 17.7064 155.804 17.6383 155.957 17.0936C157.15 12.5149 158.308 7.91913 159.45 3.34041C159.569 2.88083 159.824 2.79573 160.233 2.76168C164.884 2.47232 169.519 2.18296 174.17 1.87657C176.896 1.70636 179.604 1.55317 182.313 1.34891C182.927 1.29785 183.165 1.50211 183.267 2.08083C183.438 2.96594 183.642 3.85104 183.932 4.71913C184.102 5.24679 183.932 5.34892 183.455 5.36594C181.393 5.48509 179.315 5.63827 177.253 5.75742C172.773 6.04679 168.309 6.33615 163.828 6.59147C163.283 6.62551 163.113 6.82977 162.993 7.30636C162.482 9.39998 161.954 11.4936 161.409 13.5702C161.273 14.0979 161.341 14.2681 161.92 14.2681C163.93 14.251 165.958 14.234 167.968 14.2681C168.53 14.2681 168.701 14.0638 168.769 13.5532C168.939 12.1234 169.178 10.6936 169.331 9.26381C169.399 8.66806 169.604 8.42977 170.234 8.46381C171.222 8.51487 172.227 8.51487 173.216 8.46381C173.863 8.42977 173.948 8.65104 173.846 9.24679C173.59 10.6766 173.454 12.1064 173.233 13.5361C173.147 14.1149 173.335 14.2681 173.897 14.2681C177.015 14.251 180.15 14.2851 183.267 14.234C184.068 14.234 184.153 14.4723 183.983 15.1361C183.83 15.7319 183.71 16.3617 183.676 16.9744C183.642 17.5872 183.37 17.7064 182.824 17.6893C179.707 17.6723 176.572 17.6893 173.454 17.6553C172.79 17.6553 172.619 17.8596 172.534 18.4893C172.176 21.2468 171.767 23.9872 171.341 26.7276C170.984 29.0085 169.246 30.6085 166.912 30.7276C165.157 30.8127 163.402 30.7447 161.63 30.7617C161.204 30.7617 161.017 30.6766 161.102 30.183C161.273 29.2298 161.392 28.2766 161.511 27.3234C161.562 26.9149 161.75 26.7447 162.176 26.7447C163.027 26.7617 163.879 26.7447 164.731 26.7447C166.162 26.7447 166.98 26.0638 167.201 24.6681C167.525 22.5404 167.798 20.3957 168.104 18.2681C168.173 17.7574 168.002 17.6383 167.525 17.6383C165.685 17.6553 163.828 17.6383 161.988 17.6383V17.7064Z" fill="#D9D9D9"/>
<path d="M97.2815 20.7702C95.663 22.183 94.2319 23.4255 92.7496 24.7021C92.2045 23.6298 91.7274 22.6085 91.1993 21.6042C90.9948 21.2128 91.2504 21.0425 91.4889 20.8383C93.1074 19.4255 94.7089 17.9787 96.3785 16.6C97.0941 16.0042 97.4519 15.4255 97.1452 14.5064C97.06 14.2511 97.077 13.9617 97.0259 13.5872C96.0037 14.3362 95.0496 15.017 94.1126 15.7319C93.6696 16.0723 93.4141 16.0723 93.1585 15.5106C92.8348 14.8128 92.46 14.1489 92.0511 13.5021C91.8126 13.1276 91.8978 12.9234 92.2385 12.7021C93.3971 11.9362 94.4534 11.034 95.5096 10.1319C96.0037 9.70637 96.157 9.31488 95.9185 8.66807C95.4585 7.35744 95.0326 6.0468 94.4193 4.78722C94.2319 4.37871 94.2659 4.15743 94.6408 3.88509C95.4074 3.34041 96.1571 2.79573 96.8726 2.18297C97.4008 1.72339 97.6052 1.92765 97.8096 2.45531C98.2526 3.54467 98.7296 4.61701 99.2237 5.77446C99.82 5.05956 100.28 4.31063 100.655 3.52765C100.944 2.94893 101.251 2.8468 101.83 3.0851C102.478 3.35744 103.159 3.56169 103.858 3.7319C104.42 3.86807 104.42 4.10637 104.181 4.54893C103.227 6.30212 102.154 7.95318 100.876 9.4851C100.536 9.89361 100.45 10.2511 100.57 10.7957C101.711 16.2255 101.643 21.6553 100.331 27.0511C99.7859 29.3149 98.2526 30.6425 95.9526 30.7447C94.5045 30.8128 93.0563 30.7447 91.6082 30.7617C91.1311 30.7617 91.0289 30.5574 91.0971 30.1319C91.2333 29.1447 91.3696 28.1745 91.4548 27.1872C91.4889 26.7617 91.7274 26.6936 92.0852 26.7106C92.8008 26.7106 93.4993 26.7276 94.2148 26.7106C95.697 26.6596 96.4467 26.0298 96.7363 24.583C96.9748 23.3915 97.1452 22.2 97.2474 20.7532L97.2815 20.7702Z" fill="#D9D9D9"/>
<path d="M163.726 21.0766C163.607 21.2127 163.521 21.3319 163.436 21.434C161.273 24.0213 159.092 26.5915 156.724 28.9915C156.315 29.4 156.059 29.451 155.633 29.0425C154.901 28.3787 154.117 27.7659 153.333 27.1532C153.027 26.9149 152.873 26.7447 153.248 26.3702C155.616 24.0553 157.865 21.6213 159.91 19C160.046 18.8298 160.182 18.6085 160.455 18.7957C161.477 19.4766 162.482 20.1404 163.504 20.8042C163.59 20.8553 163.641 20.9574 163.726 21.0425V21.0766Z" fill="#D9D9D9"/>
<path d="M177.901 19.1191C178.156 19.1191 178.207 19.3404 178.31 19.4936C179.86 21.8425 181.376 24.1915 182.927 26.5234C183.165 26.8808 183.08 27.0511 182.739 27.2383C181.683 27.8511 180.644 28.4638 179.604 29.1277C179.264 29.3489 179.076 29.2979 178.872 28.9574C177.424 26.5574 175.941 24.1745 174.476 21.7915C174.357 21.6042 174.17 21.434 174.476 21.2298C175.567 20.566 176.64 19.8851 177.73 19.2213C177.781 19.1872 177.833 19.1702 177.884 19.1362L177.901 19.1191Z" fill="#D9D9D9"/>
<path d="M107.095 45.2979C107.078 46.0638 106.686 46.2 106.09 46.183C104.778 46.1489 103.483 46.1489 102.171 46.183C100.604 46.217 99.1726 45.9617 98.1674 44.5149C97.6393 45.2128 97.1452 45.8255 96.5319 46.3191C96.2593 46.5574 96.0889 46.5574 95.8504 46.2681C95.6289 45.9787 95.5948 45.8425 95.9185 45.6042C96.9067 44.9064 97.52 43.9191 97.8778 42.7957C97.997 42.3872 98.1333 42.234 98.5763 42.3532C99.0874 42.4894 98.9341 42.8128 98.7808 43.0681C98.44 43.6128 98.7637 43.9702 99.1045 44.3277C99.5815 44.8383 100.178 45.1787 100.893 45.1957C101.217 45.1957 101.132 44.8723 101.132 44.6511C101.132 43.9191 101.115 43.1702 101.132 42.4383C101.149 41.9276 100.91 41.8255 100.467 41.8425C99.1556 41.8596 97.8607 41.8425 96.5489 41.8425C96.2252 41.8425 95.8333 41.9447 95.8674 41.383C95.9015 40.8383 96.2933 41.0255 96.5659 41.0255C99.803 41.0255 103.04 41.0255 106.26 41.0255C106.55 41.0255 106.993 40.8553 106.976 41.4511C106.959 42.0298 106.516 41.8425 106.226 41.8425C105.067 41.8596 103.892 41.8425 102.733 41.8425C102.341 41.8425 102.035 41.8425 102.035 42.4042C102.035 43 102.393 42.9319 102.767 42.9319C103.704 42.9319 104.641 42.9319 105.579 42.9319C105.885 42.9319 106.141 42.9319 106.141 43.3574C106.141 43.783 105.885 43.783 105.579 43.783C104.641 43.783 103.704 43.8 102.767 43.783C102.256 43.783 101.984 43.8851 102.018 44.4808C102.052 44.9915 102.018 45.3319 102.716 45.3149C104.164 45.2638 105.596 45.3149 107.078 45.3149L107.095 45.2979Z" fill="#D9D9D9"/>
<path d="M69.5111 43.1362C70.2948 43.1702 70.397 43.5447 70.3118 44.1575C70.0733 45.8936 69.7155 46.2851 68.2844 46.234C67.4325 46.2 67.1259 45.9106 67.1259 45.0255C67.1259 43.4426 67.1259 41.8426 67.1259 40.2596C67.1259 40.0043 67.2281 39.6979 66.9385 39.4255C66.6318 39.8511 66.6829 40.3106 66.6488 40.7362C66.4274 42.7277 65.814 44.5489 64.5022 46.0979C64.3148 46.3021 64.1785 46.7447 63.7185 46.3362C63.3096 45.9617 63.497 45.7575 63.7696 45.4681C65.2007 43.9362 65.7118 42.0468 65.8992 40.0383C65.9503 39.5787 65.7629 39.4426 65.337 39.4596C65.0303 39.4596 64.6385 39.5958 64.6044 39.034C64.5874 38.4213 64.9963 38.5064 65.354 38.5404C65.8481 38.5745 65.9844 38.3702 65.9674 37.9106C65.9333 37.1958 65.9674 36.4979 65.9674 35.783C65.9674 35.4936 66.0014 35.2894 66.3763 35.2894C66.7681 35.2894 66.8703 35.4596 66.8533 35.8C66.8362 36.5149 66.8533 37.2128 66.8192 37.9277C66.7851 38.4213 66.9725 38.5745 67.4496 38.5575C68.1311 38.5234 68.8125 38.5575 69.494 38.5575C69.8688 38.5575 70.0733 38.6255 70.0733 39.0681C70.0733 39.4766 69.8348 39.4936 69.5281 39.5106C68.0118 39.6128 68.0118 39.6128 68.0118 41.1787C68.0118 42.3362 68.0118 43.5107 68.0118 44.6681C68.0118 45.1447 68.1481 45.4511 68.6763 45.4511C69.1703 45.4511 69.3918 45.1787 69.4259 44.7192C69.4599 44.2085 69.5281 43.7149 69.5962 43.1872L69.5111 43.1362Z" fill="#D9D9D9"/>
<path d="M177.492 39.9702C177.185 40.2595 176.947 40.4808 176.589 40.8383C177.611 40.8383 178.48 40.8383 179.349 40.8383C179.604 40.8383 179.962 40.6851 180.098 41.0425C180.252 41.434 180.099 41.7234 179.809 42.0298C178.497 43.3574 176.981 44.3787 175.277 45.1447C173.846 45.7915 172.347 46.1829 170.813 46.5234C170.183 46.6595 169.927 46.4553 169.74 45.8425C171.376 45.5191 173.011 45.1787 174.544 44.5149C176.061 43.8681 177.475 43.034 178.65 41.7574C177.424 41.7574 176.214 41.4851 175.021 41.8425C174.408 42.0298 174.187 42.3702 174.851 42.8468C174.987 42.9489 175.107 43.0681 175.209 43.2042C175.43 43.4766 175.209 43.6127 175.021 43.7489C174.868 43.8851 174.698 44.1234 174.459 43.851C174.306 43.6808 174.153 43.5106 174.016 43.3234C173.676 42.7787 173.301 42.6595 172.704 43.034C172.261 43.3234 171.733 43.4766 171.239 43.7149C170.847 43.9021 170.66 43.7149 170.49 43.3915C170.268 42.983 170.677 42.9829 170.864 42.9149C172.79 42.1319 174.664 41.2638 176.316 39.9872C176.674 39.7149 176.998 39.817 177.492 39.9872V39.9702Z" fill="#D9D9D9"/>
<path d="M178.173 37.2979H173.352C173.59 37.7915 173.965 37.9787 174.238 38.2851C174.391 38.4553 174.749 38.5745 174.391 38.8638C174.17 39.034 173.897 39.4255 173.641 38.983C172.909 37.7404 172.057 37.9957 171.103 38.6596C170.558 39.034 170.285 38.6936 170.03 38.2C171.716 37.417 173.335 36.5319 174.681 35.2553C175.004 34.9489 175.362 35.2553 175.737 35.2553C175.584 35.7319 175.056 35.8681 174.851 36.3787C176.282 36.3787 177.662 36.3787 179.025 36.3787C179.264 36.3787 179.621 36.2085 179.724 36.634C179.792 36.9745 179.656 37.2128 179.366 37.417C176.64 39.4255 173.607 40.7872 170.404 41.7745C169.893 41.9276 169.689 41.6213 169.587 41.2808C169.467 40.8894 169.893 40.9745 170.098 40.9234C172.892 40.0723 175.601 39.017 178.19 37.2468L178.173 37.2979Z" fill="#D9D9D9"/>
<path d="M138.307 45.6042C140.027 43.8851 140.59 41.7574 140.556 39.4085C140.556 39.2383 140.556 39.0681 140.556 38.8979C140.556 38.6085 140.624 38.4042 140.982 38.4042C141.339 38.4042 141.39 38.6425 141.373 38.9149C141.254 40.3106 141.578 41.6213 142.089 42.8979C142.447 43.8 142.89 44.6681 143.605 45.3319C143.963 45.6553 143.844 45.8766 143.588 46.1659C143.247 46.5404 143.094 46.1659 142.941 45.9787C142.055 44.9744 141.51 43.783 141.05 42.2681C140.709 43.817 140.096 44.9574 139.244 45.9957C138.801 46.5404 138.494 46.5915 138.17 45.9447C138.102 45.7745 138.222 45.7064 138.341 45.6383L138.307 45.6042Z" fill="#D9D9D9"/>
<path d="M138.307 45.6042C138.256 45.7064 138.204 45.8085 138.136 45.9106C137.506 46.6596 136.654 46.4553 135.853 46.4553C135.427 46.4553 135.479 46.0808 135.444 45.8255C135.41 45.5021 135.7 45.6213 135.87 45.6042C136.802 45.5475 137.267 45.0425 137.267 44.0893C137.267 43.3234 137.25 42.5574 137.267 41.7915C137.267 41.3489 137.131 41.1957 136.688 41.1957C135.496 41.2128 134.303 41.1957 133.11 41.1957C132.821 41.1957 132.429 41.3149 132.446 40.7872C132.446 40.3276 132.804 40.4298 133.076 40.4298C134.916 40.4298 136.756 40.4298 138.613 40.4298C138.869 40.4298 139.227 40.3276 139.244 40.7872C139.278 41.2298 138.971 41.1957 138.682 41.1957C138.392 41.1957 138.085 41.1617 138.085 41.5872C138.085 42.8638 138.085 44.1404 138.119 45.4C138.119 45.4511 138.222 45.5021 138.29 45.5532L138.307 45.6042Z" fill="#D9D9D9"/>
<path d="M142.055 36.9063C143.316 36.9063 143.764 37.5134 143.401 38.7276C143.367 38.8638 143.316 39 143.264 39.1361C143.179 39.4255 143.128 39.7829 142.668 39.6468C142.174 39.4936 142.413 39.1702 142.481 38.8978C142.804 37.6893 142.804 37.6893 141.51 37.6893C141.339 37.6893 141.169 37.7063 140.999 37.6893C140.266 37.5702 139.806 37.8085 139.653 38.5744C139.602 38.8127 139.448 39.034 139.363 39.2723C139.244 39.5957 139.039 39.5276 138.818 39.4085C138.63 39.3063 138.375 39.2553 138.545 38.9149C139.09 37.8255 139.499 36.6851 139.823 35.5106C139.891 35.2383 140.096 35.2723 140.3 35.3234C140.504 35.3744 140.675 35.4255 140.624 35.7149C140.556 36.0893 140.164 36.6 140.453 36.8042C140.76 37.0255 141.322 36.8893 141.765 36.9063C141.85 36.9063 141.936 36.9063 142.021 36.9063H142.055Z" fill="#D9D9D9"/>
<path d="M135.768 35.7319C136.671 35.7319 137.574 35.7319 138.494 35.7319C138.716 35.7319 138.954 35.6978 138.988 36.0383C139.005 36.3447 138.869 36.4638 138.596 36.4298C138.136 36.3957 138.119 36.6851 138.119 37.0255C138.119 37.8766 138.119 38.7276 138.119 39.5787C138.119 39.8851 138.119 40.1404 137.693 40.1404C137.233 40.1404 137.301 39.834 137.301 39.5617C137.301 38.7106 137.284 37.8595 137.301 37.0085C137.301 36.5659 137.165 36.4127 136.722 36.4298C135.53 36.4468 134.337 36.4298 133.161 36.4298C132.889 36.4298 132.548 36.4978 132.582 36.0383C132.599 35.6468 132.906 35.7149 133.144 35.7149C134.03 35.7149 134.899 35.7149 135.785 35.7149L135.768 35.7319Z" fill="#D9D9D9"/>
<path d="M62.4749 36.7872C63.1393 36.7872 63.8037 36.7872 64.4512 36.7872C64.7408 36.7872 64.9623 36.8383 64.9623 37.1958C64.9623 37.5532 64.7749 37.6043 64.4682 37.6043C62.8156 37.6043 61.18 37.6043 59.5274 37.6043C59.2208 37.6043 59.0504 37.5192 59.0504 37.1787C59.0504 36.8043 59.306 36.7872 59.5786 36.7872C60.3112 36.7872 61.0267 36.7872 61.8615 36.7872C61.6571 36.3958 61.5208 36.1234 61.3845 35.8511C61.2652 35.6468 61.2823 35.4766 61.5208 35.3575C61.6912 35.2724 61.8956 35.0851 62.0489 35.3064C62.3556 35.7319 62.8326 36.1234 62.4749 36.7702V36.7872Z" fill="#D9D9D9"/>
<path d="M60.9245 42.8128C60.6349 43.6808 60.243 44.3957 59.783 45.0766C59.5956 45.3489 59.3911 45.0766 59.2037 45.0085C58.9141 44.8894 59.0674 44.7021 59.1526 44.5319C59.4593 43.9362 59.783 43.3404 60.0726 42.7447C60.1919 42.5064 60.2941 42.3702 60.5667 42.5234C60.7371 42.6085 60.9245 42.6766 60.9245 42.8298V42.8128Z" fill="#D9D9D9"/>
<path d="M69.1875 37.7574C68.8638 37.7915 67.3304 36.5149 67.3986 36.4127C67.5519 36.1404 67.6712 35.7149 68.1312 36.0042C68.5571 36.2766 68.9319 36.617 69.3237 36.9234C69.443 37.0255 69.6304 37.1106 69.5112 37.3319C69.3919 37.5191 69.2556 37.6893 69.2045 37.7574H69.1875Z" fill="#D9D9D9"/>
<path d="M63.923 44.2596C63.6674 44.2085 62.8156 42.7617 62.9007 42.6255C63.02 42.4383 63.2074 42.2851 63.463 42.3362C63.6674 42.3702 64.5533 43.7149 64.4511 43.834C64.2978 44.0213 64.0763 44.1404 63.923 44.2596Z" fill="#D9D9D9"/>
<path d="M47.84 10.0809C47.8059 4.53191 43.3422 0.0723404 37.8052 0.0382979C28.5541 -0.012766 19.303 -0.012766 10.0519 0.0382979C4.42963 0.0723404 0.017037 4.6 0 10.234C0 14.8298 0 19.4255 0 24.0043C0 28.6 0 33.1957 0 37.7745C0 38.2851 0 38.7957 0.0851852 39.3064C0.971111 44.4298 5.11111 47.9191 10.3585 47.9362C19.4052 47.9532 28.4689 47.9702 37.5156 47.9362C43.3593 47.9191 47.823 43.4596 47.84 37.6383C47.8741 28.4468 47.8911 19.2723 47.84 10.0809ZM23.92 43.9021C12.9481 43.9021 3.96963 34.9319 3.96963 23.9872C3.96963 13.0085 12.9141 4.05532 23.8859 4.05532C34.8578 4.05532 43.8193 13.0085 43.8193 23.9702C43.8193 34.966 34.8748 43.9191 23.903 43.9191L23.92 43.9021Z" fill="#D9D9D9"/>
<path d="M85.4919 10.5404C85.543 10.0809 85.7134 9.91066 86.1904 9.91066C87.1274 9.94471 88.0645 9.91066 89.0015 9.91066C89.4104 9.91066 89.6149 9.80853 89.6489 9.34896C89.7171 8.583 89.8363 7.83407 89.9556 7.08513C90.0237 6.62556 89.8874 6.47237 89.4274 6.48939C88.6097 6.50641 87.7749 6.45534 86.9571 6.48939C86.3267 6.52343 86.0371 6.4213 86.1904 5.67236C86.4289 4.44683 86.5312 3.20428 86.7356 1.97875C86.8208 1.45109 86.7356 1.19577 86.1223 1.22981C85.3386 1.28088 84.5378 1.26386 83.7371 1.22981C83.226 1.21279 83.0386 1.40003 82.9874 1.89364C82.8512 3.05109 82.6637 4.19151 82.4934 5.34896C82.3684 6.18868 81.8573 6.53478 80.96 6.38726C81.2667 5.46811 81.5563 4.54896 81.88 3.64683C82.0334 3.2213 81.9482 3.03407 81.4711 2.983C80.6534 2.88088 79.8526 2.72769 79.0349 2.59152C78.66 2.52343 78.4726 2.62556 78.3534 3.01705C78.1489 3.78301 77.9104 4.53194 77.6549 5.28088C76.8882 7.54471 76.0363 9.79152 74.7586 11.8681C74.8608 11.1873 74.9119 10.4894 75.0482 9.82556C75.1504 9.34896 74.9971 9.21279 74.5371 9.22981C73.8045 9.24683 73.0548 9.22981 72.3223 9.22981C70.2267 9.22981 70.2437 9.22981 70.5334 7.11917C70.6015 6.6596 70.7719 6.48939 71.2319 6.48939C72.4586 6.50641 73.6682 6.48939 74.8949 6.48939C75.406 6.48939 75.5934 6.3362 75.6274 5.82556C75.6615 5.14471 75.7297 4.46385 75.9 3.80002C76.0534 3.17024 75.866 3.03407 75.2526 3.03407C72.5608 3.06811 69.8519 3.03407 67.16 3.03407C65.1497 3.03407 63.1223 3.03407 61.1119 3.03407C60.8052 3.03407 60.3963 2.8979 60.3282 3.42556C60.226 4.27662 60.1067 5.11066 59.9704 5.9447C59.9193 6.31917 60.0386 6.45534 60.4134 6.45534C61.1289 6.45534 61.8274 6.45534 62.543 6.45534C64.7237 6.45534 64.7067 6.45535 64.2808 8.63407C64.1956 9.0596 64.0423 9.19577 63.6163 9.19577C62.4578 9.17875 61.2823 9.19577 60.1237 9.19577C59.6637 9.19577 59.4934 9.34896 59.4252 9.80854C58.4882 16.5149 57.5341 23.2213 56.563 29.9107C56.4778 30.5234 56.563 30.7447 57.2786 30.7447C61.9637 30.7107 66.6489 30.7107 71.3341 30.7447C71.9134 30.7447 72.1178 30.5575 72.186 30.0128C72.6971 26.2 73.2593 22.3873 73.7534 18.5575C73.8556 17.8085 74.0941 17.6043 74.8608 17.6043C79.4097 17.6383 83.9415 17.6043 88.4904 17.6383C89.1549 17.6383 89.3934 17.4341 89.4274 16.7873C89.4615 16.1405 89.5808 15.4936 89.7 14.8468C89.7852 14.3873 89.7341 14.166 89.1889 14.183C88.0304 14.217 86.8548 14.183 85.6963 14.2C85.1511 14.2 84.9297 14.0979 85.0489 13.4851C85.2363 12.4809 85.3726 11.4766 85.4919 10.4553V10.5404ZM66.7682 8.66811C66.8363 8.10641 66.9215 7.5447 66.9726 6.983C67.0237 6.40428 67.4497 6.52343 67.7904 6.54045C68.2845 6.55747 68.08 6.8979 68.046 7.17024C67.9778 7.6979 67.8586 8.22556 67.8245 8.77024C67.7904 9.26385 67.5008 9.28088 67.126 9.28088C66.683 9.28088 66.7171 8.99151 66.7512 8.68513L66.7682 8.66811ZM62.6793 13.2298C62.7304 12.8043 62.9008 12.617 63.3267 12.6681C63.8208 12.7362 63.6163 13.0596 63.5652 13.2979C63.3097 14.8468 62.9519 16.3787 62.0489 17.7405C62.2704 16.2426 62.4919 14.7277 62.6793 13.2298ZM69.0341 25.8766C68.7615 27.3575 68.8126 27.3745 67.3304 27.3745C66.4615 27.3745 65.5756 27.3745 64.7067 27.3745C63.5993 27.3745 62.4919 27.3575 61.4015 27.3745C60.9074 27.3745 60.72 27.2894 60.7882 26.7107C60.9756 25.1617 60.9415 25.1617 62.5089 25.1617C64.4852 25.1617 66.4786 25.1617 68.4549 25.1617C69.0171 25.1617 69.1704 25.2639 69.0512 25.8766H69.0341ZM69.6645 21.4681C69.6304 21.9958 69.2556 21.9277 68.9319 21.9277C66.7682 21.9277 64.5874 21.9277 62.4749 21.9277C62.3726 21.7064 62.4749 21.6383 62.543 21.5532C64.6556 19.3064 65.763 16.6 66.1378 13.5702C66.1549 13.4 66.206 13.2298 66.24 13.0766C66.3082 12.6 66.683 12.7362 66.9726 12.7362C67.3815 12.7362 67.2793 13.0596 67.2623 13.2979C67.16 14.2511 67.0237 15.2043 66.9386 16.1575C66.7682 18.0809 67.5689 19.5277 69.2897 20.3787C69.886 20.6681 69.7326 21.0426 69.6986 21.4851L69.6645 21.4681ZM70.84 13.0936C70.6356 14.5404 70.4312 15.9702 70.2097 17.4851C69.6645 17.1277 69.5112 16.6851 69.4771 16.1915C69.4089 15.1362 69.6645 14.1149 69.7667 13.0766C69.8178 12.6 70.1926 12.7362 70.4652 12.6851C70.7719 12.6341 70.8741 12.8043 70.823 13.0766L70.84 13.0936ZM81.7267 10.8979C81.5393 11.749 81.403 12.617 81.3519 13.4851C81.3178 14.183 80.9941 14.3362 80.3808 14.2681C80.1082 14.2341 79.8186 14.2681 79.5289 14.2681C78.3363 14.2681 77.9786 13.7404 78.4556 12.6851C78.6941 12.1405 79.0008 11.6128 79.1371 11.0511C79.3756 10.1149 79.9037 9.8596 80.8408 9.89364C81.6415 9.92768 81.88 10.1149 81.7097 10.8979H81.7267Z" fill="#D9D9D9"/>
<path d="M121.883 7.10214C121.082 5.50214 119.736 4.82129 118.015 4.80427C115.375 4.78725 112.751 4.80427 110.025 4.80427C110.417 3.83406 110.775 2.93193 111.15 2.06384C111.337 1.62129 111.252 1.45108 110.775 1.43405C109.787 1.40001 108.798 1.33193 107.81 1.24682C107.384 1.21278 107.197 1.38299 107.044 1.74044C105.749 4.88938 103.926 7.71491 101.66 10.2511C101.37 10.5745 101.353 10.7787 101.66 11.0851C102.273 11.766 102.87 12.4468 103.398 13.1787C103.687 13.5872 103.943 13.6724 104.386 13.1787C103.926 16.3447 103.483 19.3404 103.057 22.3532C102.835 23.9532 103.534 24.7532 105.17 24.7532C107.504 24.7532 109.821 24.7532 112.155 24.7532C113.841 24.7532 114.387 24.2936 114.608 22.6426C115.051 19.4085 115.494 16.1915 115.954 12.9575C116.124 11.7149 115.375 10.7787 114.114 10.7447C112.973 10.7107 111.848 10.7447 110.707 10.7447C109.327 10.7447 107.947 10.7447 106.413 10.7447C106.839 10.1319 107.197 9.72341 107.435 9.24682C107.742 8.65107 108.185 8.53193 108.815 8.53193C111.115 8.56597 113.415 8.53193 115.715 8.53193C117.47 8.53193 117.964 9.05959 117.709 10.8298C117.078 15.3404 116.431 19.8681 115.767 24.3787C115.511 26.0809 114.761 26.7106 113.024 26.7277C111.439 26.7277 109.838 26.7787 108.253 26.7277C107.487 26.6936 107.129 26.8468 107.112 27.6979C107.112 28.4809 106.941 29.2809 106.822 30.0638C106.737 30.6085 106.89 30.8128 107.487 30.7958C109.991 30.7617 112.478 30.7958 114.983 30.7787C117.624 30.7447 119.395 29.1277 119.77 26.5064C120.554 21.0426 121.355 15.5787 122.121 10.0979C122.258 9.09363 122.394 8.07235 121.917 7.08512L121.883 7.10214ZM106.669 20.4298C106.958 18.4383 107.231 16.4468 107.487 14.4553C107.555 13.9106 107.708 13.6553 108.321 13.6723C109.514 13.7234 110.707 13.6894 111.899 13.6723C112.308 13.6723 112.444 13.7915 112.393 14.217C112.053 16.566 111.729 18.9149 111.422 21.2809C111.371 21.6894 111.184 21.7915 110.809 21.7745C110.178 21.7575 109.565 21.7745 108.935 21.7745C108.56 21.7745 108.202 21.7745 107.827 21.7745C106.481 21.7745 106.498 21.7745 106.686 20.4128L106.669 20.4298Z" fill="#D9D9D9"/>
<path d="M150.181 16.4639C142.515 16.4809 134.848 16.4639 127.181 16.4639C126.602 16.4639 126.415 16.6341 126.347 17.2128C125.767 21.4851 125.171 25.7405 124.541 29.9958C124.439 30.6766 124.66 30.7958 125.29 30.7958C129.09 30.7617 132.906 30.7958 136.705 30.7958C140.487 30.7958 144.253 30.7788 148.035 30.7958C148.699 30.7958 148.955 30.6256 149.057 29.9447C149.619 25.7064 150.216 21.4681 150.846 17.2298C150.931 16.6171 150.829 16.4468 150.199 16.4468L150.181 16.4639ZM145.326 26.0809C145.087 27.3405 145.156 27.3575 143.827 27.3575C141.612 27.3575 139.397 27.3575 137.199 27.3575C134.814 27.3575 132.429 27.3405 130.061 27.3575C129.413 27.3575 129.175 27.2043 129.328 26.5405C129.686 24.9405 129.192 25.1788 130.896 25.1788C135.427 25.1788 139.976 25.1788 144.508 25.1617C145.241 25.1617 145.496 25.2809 145.343 26.0809H145.326ZM146.024 20.7873C145.99 20.8894 145.973 21.0085 145.99 21.1277C146.041 21.9617 145.633 22.1319 144.849 22.1149C142.498 22.0639 140.147 22.0979 137.796 22.0979C135.444 22.0979 133.093 22.0979 130.742 22.0979C130.18 22.0979 129.941 22.0468 130.061 21.366C130.333 19.9022 130.282 19.9022 131.799 19.9022C136.279 19.9022 140.76 19.9022 145.224 19.9022C145.939 19.9022 146.331 19.9873 146.024 20.8043V20.7873Z" fill="#D9D9D9"/>
<path d="M154.219 10.7447C153.606 10.7957 152.976 10.7447 152.345 10.7447C150.829 10.7447 149.313 10.7447 147.609 10.7447C148.461 9.68935 149.193 8.80424 149.909 7.90211C150.113 7.62977 150.386 7.62977 150.658 7.62977C151.561 7.62977 152.481 7.61275 153.384 7.62977C153.878 7.62977 154.168 7.56168 154.202 6.96594C154.236 6.23402 154.338 5.50211 154.509 4.78722C154.662 4.15743 154.39 4.08934 153.878 4.08934C151.067 4.10637 148.256 4.08934 145.445 4.08934C144.162 4.08934 143.406 3.44821 143.179 2.16594C143.162 2.04679 143.111 1.94467 143.111 1.82552C143.111 1.43403 142.924 1.29786 142.532 1.31488C141.458 1.38296 140.368 1.36594 139.295 1.45105C137.574 1.5702 137.523 1.60424 137.847 3.30636C137.983 4.00424 137.778 4.10637 137.148 4.10637C134.03 4.07232 130.913 4.10637 127.778 4.10637C126.824 4.10637 126.284 4.56594 126.159 5.48509C126.091 5.99573 126.057 6.50637 125.938 6.99998C125.818 7.51062 125.972 7.64679 126.466 7.62977C127.488 7.59573 128.51 7.62977 129.533 7.62977C129.822 7.62977 130.095 7.62977 130.231 7.95318C130.623 8.8553 131.049 9.74041 131.526 10.7447C129.396 10.7447 127.403 10.7447 125.393 10.7447C124.552 10.7447 124.075 11.1532 123.961 11.9702C123.893 12.4979 123.842 13.0425 123.723 13.5702C123.587 14.1319 123.74 14.3021 124.336 14.3021C134.098 14.3021 143.861 14.3021 153.623 14.3021C154.219 14.3021 154.407 14.0979 154.458 13.5362C154.526 12.8383 154.628 12.1234 154.764 11.4425C154.867 10.9319 154.764 10.6936 154.185 10.7447H154.219ZM142.498 10.4893C142.293 10.7447 142.021 10.7447 141.731 10.7447C140.232 10.7447 138.733 10.7447 137.233 10.7447C136.858 10.7447 136.603 10.6766 136.433 10.2851C136.126 9.55317 135.785 8.83828 135.427 8.14041C135.223 7.7319 135.325 7.61275 135.768 7.61275C138.716 7.61275 141.663 7.61275 144.798 7.61275C143.946 8.66807 143.213 9.5702 142.498 10.4723V10.4893Z" fill="#D9D9D9"/>
<path d="M86.7525 19.0851C83.5155 19.0681 80.2955 19.0511 77.0585 19.0681C75.8318 19.0681 74.9629 19.834 74.7755 21.0426C74.3666 23.783 73.9577 26.5234 73.5659 29.2638C73.3955 30.4553 73.7022 30.7787 74.9459 30.7787C76.5303 30.7787 78.1148 30.7787 79.6992 30.7787C80.977 30.7787 82.2548 30.7787 83.5326 30.7787C86.3948 30.7787 86.7185 30.5234 87.1274 27.6979C87.4851 25.3149 87.8088 22.9319 88.0814 20.5489C88.2007 19.4596 87.8088 19.0851 86.7355 19.0681L86.7525 19.0851ZM84.4355 22.7787C84.197 24.2255 83.9755 25.6894 83.7881 27.1532C83.737 27.5617 83.5837 27.7489 83.1407 27.7319C81.3177 27.7149 79.5118 27.7149 77.6888 27.7319C77.1266 27.7319 77.1096 27.4766 77.1607 27.0511C77.3822 25.6043 77.6207 24.1404 77.8081 22.6766C77.8592 22.217 78.0977 22.1319 78.4896 22.1319C79.3925 22.1319 80.3125 22.1319 81.2155 22.1319C82.1014 22.1319 82.9703 22.1489 83.8563 22.1319C84.3503 22.1319 84.5037 22.2511 84.4185 22.7617L84.4355 22.7787Z" fill="#D9D9D9"/>
<path d="M105.391 36.2766C105.391 35.834 105.238 35.6808 104.795 35.6808C103.687 35.6979 102.58 35.6808 101.473 35.6808C100.365 35.6808 99.2578 35.6979 98.1504 35.6808C97.6563 35.6808 97.4348 35.783 97.4518 36.3447C97.4859 37.417 97.4859 38.5064 97.4518 39.5787C97.4518 40.0213 97.6052 40.1745 98.0481 40.1574C100.297 40.1574 102.529 40.1404 104.778 40.1574C105.272 40.1574 105.408 39.9702 105.408 39.5106C105.391 38.4383 105.391 37.3489 105.408 36.2766H105.391ZM98.8659 36.5319C100.536 36.5319 102.205 36.5319 103.875 36.5319C104.233 36.5319 104.471 36.583 104.454 37.0425C104.454 37.4681 104.181 37.4681 103.892 37.4681C103.074 37.4681 102.256 37.4681 101.439 37.4681C100.587 37.4681 99.7348 37.4681 98.9 37.4681C98.5763 37.4681 98.3548 37.434 98.3548 37.0255C98.3548 36.6511 98.5252 36.5489 98.883 36.5489L98.8659 36.5319ZM103.841 39.3234C102.222 39.3234 100.621 39.3234 99.0022 39.3234C98.6274 39.3234 98.3378 39.3234 98.3207 38.8128C98.3037 38.234 98.6444 38.2681 99.0363 38.2681C99.82 38.2681 100.621 38.2681 101.404 38.2681C102.188 38.2681 102.989 38.2681 103.773 38.2681C104.13 38.2681 104.437 38.234 104.437 38.7617C104.437 39.2383 104.216 39.3234 103.807 39.3064L103.841 39.3234Z" fill="#D9D9D9"/>
<path d="M63.2926 38.6085C62.8837 38.6766 62.4408 38.6085 62.0148 38.6085H61.7593C60.3963 38.6085 59.7148 39.278 59.7148 40.617C59.7148 41.7915 59.7148 41.8255 60.9415 41.8255C61.4526 41.8255 61.6571 41.9787 61.623 42.5064C61.5889 43.1021 61.5719 43.6979 61.623 44.2936C61.6911 45.1276 61.4867 45.6383 60.5156 45.4681C60.3452 45.434 60.0726 45.383 60.1067 45.7064C60.1237 45.9447 60.1067 46.234 60.4134 46.3532C61.3845 46.7106 62.4067 46.0127 62.4408 44.9574C62.4578 44.1064 62.4408 43.2553 62.4408 42.4042C62.4408 42.0127 62.56 41.8596 62.9689 41.8425C64.3148 41.7574 64.3148 41.7404 64.3148 40.4127C64.3148 40.1574 64.2978 39.9021 64.3148 39.6468C64.4 38.8808 64.1615 38.4723 63.2926 38.6085ZM63.4289 40.7532C63.3608 41.0085 63.2074 41.0425 63.003 41.0596C62.6282 41.0596 62.2704 41.0596 61.8956 41.0596C61.7252 41.0596 61.5548 41.0596 61.3845 41.0596C60.7711 41.1276 60.4645 40.9915 60.4815 40.2596C60.4815 39.5617 60.6689 39.2553 61.3845 39.3574C61.7252 39.4085 62.066 39.3574 62.4067 39.3574C63.4289 39.3574 63.7015 39.7489 63.4289 40.7532Z" fill="#D9D9D9"/>
<path d="M136.296 43.6128C136.228 42.0128 136.279 42.0128 134.695 42.0128C134.354 42.0128 134.013 42.0468 133.673 42.0128C133.178 41.9617 132.957 42.1319 132.991 42.6596C133.042 43.3405 133.008 44.0043 132.991 44.6851C132.991 45.2128 133.451 45.3149 133.621 45.0766C134.064 44.4128 134.695 44.6341 135.206 44.6851C136.075 44.7532 136.313 44.4639 136.262 43.6128H136.296ZM134.644 43.9532C134.184 43.9873 133.826 44.0043 133.826 43.3404C133.826 42.4894 134.371 42.7617 134.797 42.7107C135.274 42.6596 135.581 42.7277 135.581 43.3575C135.581 44.1405 135.053 43.9021 134.644 43.9362V43.9532Z" fill="#D9D9D9"/>
<path d="M134.661 37.2468C132.906 37.2808 133.093 37.0085 133.093 38.3532C133.093 39.9702 132.855 39.7489 134.524 39.783C134.831 39.783 135.155 39.7489 135.461 39.783C136.109 39.8681 136.33 39.6298 136.33 38.9489C136.296 37.2468 136.33 37.2468 134.661 37.2468ZM134.746 39.034C134.286 39.034 133.826 39.1702 133.843 38.4553C133.86 37.6553 134.439 37.9957 134.814 37.9447C135.223 37.8766 135.564 37.9106 135.564 38.5064C135.564 39.2553 135.036 38.966 134.746 39.017V39.034Z" fill="#D9D9D9"/>
<path d="M23.903 6.38725C14.2259 6.35321 6.28666 14.3532 6.33777 24.1064C6.38888 33.7745 14.2941 41.5873 23.9711 41.5702C33.6481 41.5362 41.5704 33.6043 41.5192 24.0043C41.4681 14.2681 33.6311 6.43832 23.903 6.40428V6.38725ZM26.9526 25.7234C28.7415 28.1064 30.5474 30.4724 32.3363 32.8553C32.5067 33.0766 32.66 33.2979 32.9155 33.6553C30.9222 33.6553 29.0652 33.6553 27.2081 33.6553C26.8844 33.6553 26.7652 33.417 26.6289 33.2128C24.9763 30.8128 23.3237 28.3958 21.6881 25.9787C21.4326 25.5873 21.2622 25.1277 20.9896 24.5319C20.8022 26.4383 20.6148 28.1745 20.4444 29.9277C20.3422 30.966 20.2059 32.0043 20.1378 33.0596C20.1037 33.5192 19.9504 33.6894 19.4733 33.6724C18.3148 33.6383 17.1392 33.6213 15.9807 33.6724C15.3333 33.7064 15.2481 33.4341 15.2992 32.8724C15.6911 29.0936 16.0489 25.3149 16.4237 21.5362C16.6281 19.4256 16.8667 17.3149 17.037 15.1873C17.0881 14.4894 17.3437 14.2681 18.0252 14.3192C19.0985 14.3702 20.1889 14.3702 21.2622 14.3192C21.9096 14.2851 21.9948 14.5404 21.9437 15.1192C21.7052 17.2298 21.5007 19.3404 21.2963 21.4511C21.2793 21.6213 21.177 21.8256 21.3133 21.9787C23.5281 19.2724 26.22 17.0596 28.6733 14.6085C28.8096 14.4724 28.963 14.3362 29.1844 14.3362C30.9563 14.3362 32.7281 14.3362 34.2274 14.3362C31.9274 16.7532 29.5933 19.2553 27.2081 21.7234C25.7259 23.2553 25.6578 23.9702 26.9526 25.6894V25.7234Z" fill="#D9D9D9"/>
</g>
<defs>
<clipPath id="clip0_30_154">
<rect width="184" height="48" fill="white"/>
</clipPath>
</defs>
</svg>
