<svg xmlns="http://www.w3.org/2000/svg" width="184" height="48" fill="none" viewBox="0 0 184 48"><g fill="#d9d9d9" clip-path="url(#a)"><path d="M161.988 17.706h-5.537c-.477 0-.647-.068-.494-.612 1.193-4.58 2.351-9.175 3.493-13.754.119-.46.374-.544.783-.578 4.651-.29 9.286-.579 13.937-.885 2.726-.17 5.434-.324 8.143-.528.614-.051.852.153.954.732.171.885.375 1.77.665 2.638.17.528 0 .63-.477.647-2.062.12-4.14.272-6.202.391-4.48.29-8.944.58-13.425.834-.545.035-.715.239-.835.715a375 375 0 0 1-1.584 6.264c-.136.528-.068.698.511.698a238 238 0 0 1 6.048 0c.562 0 .733-.204.801-.715.17-1.43.409-2.86.562-4.29.068-.595.273-.833.903-.8a29 29 0 0 0 2.982 0c.647-.033.732.188.63.784-.256 1.43-.392 2.86-.613 4.29-.086.578.102.731.664.731 3.118-.017 6.253.017 9.37-.034.801 0 .886.238.716.902a9.7 9.7 0 0 0-.307 1.838c-.034.613-.306.732-.852.715-3.117-.017-6.252 0-9.37-.034-.664 0-.835.205-.92.834a331 331 0 0 1-1.193 8.239c-.357 2.28-2.095 3.88-4.429 4-1.755.085-3.51.017-5.282.034-.426 0-.613-.085-.528-.579.171-.953.29-1.906.409-2.86.051-.408.239-.578.665-.578.851.017 1.703 0 2.555 0 1.431 0 2.249-.681 2.47-2.077.324-2.128.597-4.272.903-6.4.069-.51-.102-.63-.579-.63-1.84.017-3.697 0-5.537 0zM97.282 20.77a881 881 0 0 1-4.532 3.932c-.546-1.072-1.023-2.094-1.55-3.098-.205-.391.05-.561.289-.766 1.618-1.413 3.22-2.86 4.89-4.238.715-.596 1.073-1.175.766-2.094-.085-.255-.068-.544-.12-.919-1.021.75-1.975 1.43-2.912 2.145-.443.34-.699.34-.954-.221a18 18 0 0 0-1.108-2.009c-.238-.374-.153-.579.188-.8 1.158-.766 2.214-1.668 3.27-2.57.495-.426.648-.817.41-1.464-.46-1.31-.886-2.621-1.5-3.88-.187-.41-.153-.63.222-.903.766-.545 1.516-1.09 2.232-1.702.528-.46.732-.255.937.272.443 1.09.92 2.162 1.414 3.32a10.6 10.6 0 0 0 1.431-2.247c.289-.58.596-.681 1.175-.443a13.4 13.4 0 0 0 2.028.647c.562.136.562.374.323.817-.954 1.753-2.027 3.404-3.305 4.936-.34.409-.426.766-.306 1.31 1.141 5.43 1.073 10.86-.239 16.256-.545 2.264-2.078 3.592-4.378 3.694-1.449.068-2.897 0-4.345.017-.477 0-.58-.205-.51-.63.135-.987.272-1.958.357-2.945.034-.425.272-.493.63-.476.716 0 1.414.017 2.13 0 1.482-.051 2.232-.681 2.521-2.128.239-1.191.41-2.383.511-3.83z"/><path d="M163.726 21.077c-.119.136-.205.255-.29.357-2.163 2.587-4.344 5.157-6.712 7.557-.409.409-.665.46-1.091.052-.732-.664-1.516-1.277-2.3-1.89-.306-.238-.46-.408-.085-.783 2.368-2.315 4.617-4.749 6.662-7.37.136-.17.272-.392.545-.204 1.022.68 2.027 1.344 3.049 2.008.086.051.137.153.222.239zm14.175-1.957c.255 0 .306.22.409.374 1.55 2.349 3.066 4.698 4.617 7.03.238.357.153.527-.188.714a86 86 0 0 0-3.135 1.89c-.34.22-.528.17-.732-.17-1.448-2.4-2.931-4.783-4.396-7.166-.119-.188-.306-.358 0-.562 1.091-.664 2.164-1.345 3.254-2.009.051-.034.103-.05.154-.085zm-70.806 26.178c-.017.766-.409.902-1.005.885a75 75 0 0 0-3.919 0c-1.567.034-2.998-.221-4.004-1.668-.528.698-1.022 1.31-1.635 1.804-.273.238-.443.238-.682-.05-.221-.29-.255-.426.069-.665.988-.698 1.601-1.685 1.959-2.808.119-.409.255-.562.698-.443.511.136.358.46.205.715-.341.545-.017.902.323 1.26.478.51 1.074.85 1.789.868.324 0 .239-.324.239-.545 0-.732-.017-1.48 0-2.213.017-.51-.222-.613-.665-.596-1.311.018-2.606 0-3.918 0-.324 0-.716.103-.682-.459.034-.545.426-.358.699-.358h9.694c.29 0 .733-.17.716.426-.017.579-.46.392-.75.392-1.159.017-2.334 0-3.493 0-.392 0-.698 0-.698.561 0 .596.358.528.732.528h2.812c.306 0 .562 0 .562.425 0 .426-.256.426-.562.426-.938 0-1.875.017-2.812 0-.511 0-.783.102-.749.698.034.51 0 .85.698.834 1.448-.051 2.88 0 4.362 0zm-37.584-2.162c.784.034.886.409.8 1.021-.238 1.737-.596 2.128-2.027 2.077-.852-.034-1.158-.323-1.158-1.209V40.26c0-.256.102-.562-.187-.834-.307.425-.256.885-.29 1.31-.222 1.992-.835 3.813-2.147 5.362-.187.204-.323.647-.783.238-.41-.374-.222-.578.05-.868 1.432-1.532 1.943-3.421 2.13-5.43.051-.46-.136-.595-.562-.578-.307 0-.699.136-.733-.426-.017-.613.392-.528.75-.494.494.035.63-.17.613-.63-.034-.714 0-1.412 0-2.127 0-.29.034-.494.41-.494.391 0 .493.17.476.511-.017.715 0 1.413-.034 2.128-.034.493.153.647.63.63.682-.035 1.364 0 2.045 0 .375 0 .58.068.58.51 0 .409-.24.426-.546.443-1.516.102-1.516.102-1.516 1.668v3.49c0 .476.136.782.664.782.494 0 .716-.272.75-.732.034-.51.102-1.004.17-1.532zm107.981-3.166c-.307.29-.545.51-.903.868h2.76c.255 0 .613-.153.749.204.154.392.001.681-.289.988-1.312 1.327-2.828 2.349-4.532 3.115-1.431.646-2.93 1.038-4.464 1.378-.63.136-.886-.068-1.073-.68 1.636-.324 3.271-.664 4.804-1.328 1.517-.647 2.931-1.481 4.106-2.758-1.226 0-2.436-.272-3.629.086-.613.187-.834.527-.17 1.004q.204.153.358.357c.221.273 0 .409-.188.545-.153.136-.323.374-.562.102a7 7 0 0 1-.443-.528c-.34-.544-.715-.663-1.312-.289-.443.29-.971.443-1.465.68-.392.188-.579 0-.749-.322-.222-.409.187-.41.374-.477 1.926-.783 3.8-1.651 5.452-2.928.358-.272.682-.17 1.176 0zm.681-2.672h-4.821c.238.493.613.68.886.987.153.17.511.29.153.579-.221.17-.494.562-.75.119-.732-1.243-1.584-.987-2.538-.323-.545.374-.818.034-1.073-.46 1.686-.783 3.305-1.668 4.651-2.945.323-.306.681 0 1.056 0-.153.477-.681.613-.886 1.124h4.174c.239 0 .596-.17.699.255.068.34-.068.579-.358.783-2.726 2.008-5.759 3.37-8.962 4.358-.511.153-.715-.154-.817-.494-.12-.392.306-.306.511-.358 2.794-.85 5.503-1.906 8.092-3.676zm-39.866 8.306c1.72-1.719 2.283-3.847 2.249-6.196v-.51c0-.29.068-.494.426-.494.357 0 .408.238.391.51-.119 1.397.205 2.707.716 3.984.358.902.801 1.77 1.516 2.434.358.323.239.545-.017.834-.341.374-.494 0-.647-.187-.886-1.005-1.431-2.196-1.891-3.71-.341 1.548-.954 2.688-1.806 3.727-.443.544-.75.596-1.074-.051-.068-.17.052-.239.171-.307z"/><path d="M138.307 45.604a3 3 0 0 1-.171.307c-.63.749-1.482.544-2.283.544-.426 0-.374-.374-.409-.63-.034-.323.256-.204.426-.22q1.397-.085 1.397-1.516c0-.766-.017-1.532 0-2.297 0-.443-.136-.596-.579-.596-1.192.017-2.385 0-3.578 0-.289 0-.681.119-.664-.409 0-.46.358-.357.63-.357h5.537c.256 0 .614-.102.631.357.034.443-.273.409-.562.409s-.597-.034-.597.391c0 1.277 0 2.553.034 3.813 0 .051.103.102.171.153zm3.748-8.698q1.891 0 1.346 1.822a4 4 0 0 1-.137.408c-.085.29-.136.647-.596.51-.494-.152-.255-.476-.187-.748.323-1.209.323-1.209-.971-1.209-.171 0-.341.017-.511 0-.733-.119-1.193.12-1.346.885-.051.239-.205.46-.29.698-.119.324-.324.256-.545.136-.188-.102-.443-.153-.273-.493.545-1.09.954-2.23 1.278-3.404.068-.273.273-.239.477-.188s.375.102.324.392c-.068.374-.46.885-.171 1.09.307.22.869.084 1.312.101zm-6.287-1.174h2.726c.222 0 .46-.034.494.306.017.307-.119.426-.392.392-.46-.034-.477.255-.477.596v2.553c0 .306 0 .561-.426.561-.46 0-.392-.306-.392-.578 0-.851-.017-1.703 0-2.553 0-.443-.136-.596-.579-.58-1.192.018-2.385 0-3.561 0-.272 0-.613.069-.579-.39.017-.392.324-.324.562-.324h2.641zm-73.293 1.055h1.976c.29 0 .511.051.511.409 0 .357-.187.408-.494.408h-4.94c-.307 0-.478-.085-.478-.425 0-.375.256-.392.529-.392h2.282c-.204-.391-.34-.664-.476-.936-.12-.204-.103-.374.136-.493.17-.086.375-.273.528-.052.307.426.784.817.426 1.464zm-1.55 6.026c-.29.868-.682 1.583-1.142 2.264-.187.272-.392 0-.58-.069-.289-.119-.136-.306-.05-.476.306-.596.63-1.192.92-1.787.119-.239.221-.375.494-.222.17.085.358.154.358.307zm8.263-5.056c-.324.035-1.858-1.242-1.79-1.344.154-.273.273-.698.733-.409.426.273.8.613 1.193.92.119.102.306.187.187.408-.12.187-.255.357-.306.425zm-5.265 6.503c-.256-.051-1.107-1.498-1.022-1.634.119-.188.306-.34.562-.29.204.034 1.09 1.379.988 1.498-.153.187-.375.306-.528.426M47.84 10.08A10.084 10.084 0 0 0 37.805.039q-13.876-.075-27.753 0C4.43.072.017 4.6 0 10.234v27.54c0 .511 0 1.022.085 1.532.886 5.124 5.026 8.613 10.274 8.63 9.046.017 18.11.034 27.157 0 5.843-.017 10.307-4.476 10.324-10.298.034-9.191.051-18.366 0-27.557M23.92 43.903c-10.972 0-19.95-8.97-19.95-19.915 0-10.978 8.944-19.932 19.916-19.932S43.819 13.01 43.819 23.97c0 10.996-8.944 19.95-19.916 19.95zM85.492 10.54c.051-.46.221-.63.698-.63.937.035 1.874 0 2.811 0 .41 0 .614-.101.648-.561.068-.766.187-1.515.307-2.264.068-.46-.069-.613-.529-.596-.817.017-1.652-.034-2.47 0-.63.034-.92-.068-.767-.817.239-1.225.341-2.468.546-3.693.085-.528 0-.783-.614-.75-.783.052-1.584.035-2.385 0-.511-.016-.698.171-.75.665-.136 1.157-.323 2.298-.494 3.455q-.187 1.26-1.533 1.038c.307-.919.596-1.838.92-2.74.153-.426.068-.613-.409-.664-.818-.102-1.618-.255-2.436-.391-.375-.069-.562.034-.682.425a35 35 0 0 1-.698 2.264c-.767 2.264-1.619 4.51-2.896 6.587.102-.68.153-1.379.29-2.042.101-.477-.052-.613-.512-.596-.733.017-1.482 0-2.215 0-2.095 0-2.078 0-1.789-2.11.069-.46.239-.63.699-.63 1.227.016 2.436 0 3.663 0 .511 0 .698-.154.732-.664.035-.681.103-1.362.273-2.026.153-.63-.034-.766-.647-.766-2.692.034-5.401 0-8.093 0h-6.048c-.307 0-.716-.136-.784.392a60 60 0 0 1-.358 2.519c-.05.374.069.51.443.51h2.13c2.18 0 2.164 0 1.738 2.18-.085.425-.239.56-.665.56-1.158-.016-2.334 0-3.492 0-.46 0-.63.154-.699.614a3802 3802 0 0 1-2.862 20.102c-.085.612 0 .834.716.834a968 968 0 0 1 14.055 0c.58 0 .784-.187.852-.732.511-3.813 1.073-7.626 1.567-11.455.103-.75.341-.954 1.108-.954 4.549.034 9.08 0 13.63.034.664 0 .902-.204.936-.85.034-.648.154-1.294.273-1.941.085-.46.034-.681-.511-.664-1.159.034-2.334 0-3.493.017-.545 0-.766-.102-.647-.715.187-1.004.324-2.008.443-3.03zM66.768 8.668c.068-.562.153-1.123.205-1.685.05-.579.477-.46.817-.443.494.017.29.358.256.63-.068.528-.187 1.056-.222 1.6-.034.494-.323.51-.698.51-.443 0-.409-.288-.375-.595zM62.68 13.23c.051-.426.222-.613.648-.562.494.068.29.392.238.63-.255 1.549-.613 3.08-1.516 4.443.221-1.498.443-3.013.63-4.511m6.355 12.647c-.273 1.48-.221 1.498-1.704 1.498h-2.623c-1.108 0-2.215-.017-3.305 0-.495 0-.682-.086-.614-.664.188-1.55.154-1.55 1.72-1.55h5.947c.562 0 .715.103.596.716zm.63-4.409c-.034.528-.408.46-.732.46h-6.457c-.102-.222 0-.29.068-.375 2.113-2.247 3.22-4.953 3.595-7.983.017-.17.068-.34.102-.493.068-.477.443-.34.733-.34.409 0 .306.323.29.56-.103.954-.24 1.907-.324 2.86-.17 1.924.63 3.37 2.35 4.222.597.29.444.664.41 1.106zm1.176-8.374a905 905 0 0 1-.63 4.391c-.545-.357-.699-.8-.733-1.293-.068-1.056.188-2.077.29-3.115.05-.477.426-.34.698-.392.307-.05.41.12.358.392zm10.887-2.196a16.5 16.5 0 0 0-.375 2.587c-.034.698-.358.851-.971.783-.273-.034-.562 0-.852 0q-1.789 0-1.073-1.583c.238-.545.545-1.072.681-1.634.239-.936.767-1.191 1.704-1.157.8.034 1.039.22.869 1.004zm40.155-3.796c-.801-1.6-2.147-2.28-3.868-2.298-2.64-.017-5.264 0-7.99 0 .392-.97.75-1.872 1.125-2.74.187-.443.102-.613-.375-.63a58 58 0 0 1-2.965-.187c-.426-.034-.613.136-.766.493-1.295 3.15-3.118 5.975-5.384 8.511-.29.324-.307.528 0 .834.613.681 1.21 1.362 1.738 2.094.289.408.545.493.988 0-.46 3.166-.903 6.161-1.329 9.174-.222 1.6.477 2.4 2.113 2.4h6.985c1.686 0 2.232-.46 2.453-2.11.443-3.235.886-6.451 1.346-9.686.17-1.242-.579-2.178-1.84-2.212-1.141-.034-2.266 0-3.407 0h-4.294c.426-.613.784-1.022 1.022-1.498.307-.596.75-.715 1.38-.715 2.3.034 4.6 0 6.9 0 1.755 0 2.249.528 1.994 2.298a1912 1912 0 0 1-1.942 13.549c-.256 1.702-1.006 2.332-2.743 2.349-1.585 0-3.186.05-4.771 0-.766-.034-1.124.119-1.141.97 0 .783-.171 1.583-.29 2.366-.085.544.068.749.665.732 2.504-.034 4.991 0 7.496-.017 2.641-.034 4.412-1.651 4.787-4.273.784-5.463 1.585-10.927 2.351-16.408.137-1.004.273-2.026-.204-3.013zM106.669 20.43q.434-2.987.818-5.975c.068-.544.221-.8.834-.783 1.193.051 2.386.017 3.578 0 .409 0 .545.12.494.545a484 484 0 0 0-.971 7.064c-.051.408-.238.51-.613.494-.631-.017-1.244 0-1.874 0h-1.108c-1.346 0-1.329 0-1.141-1.362zm43.512-3.966c-7.666.017-15.333 0-23 0-.579 0-.766.17-.834.749-.58 4.272-1.176 8.528-1.806 12.783-.102.68.119.8.749.8 3.8-.034 7.616 0 11.415 0 3.782 0 7.548-.017 11.33 0 .664 0 .92-.17 1.022-.851a816 816 0 0 1 1.789-12.715c.085-.613-.017-.783-.647-.783zm-4.855 9.617c-.239 1.26-.17 1.277-1.499 1.277h-6.628c-2.385 0-4.77-.018-7.138 0-.648 0-.886-.154-.733-.817.358-1.6-.136-1.362 1.568-1.362 4.531 0 9.08 0 13.612-.017.733 0 .988.119.835.919zm.698-5.294c-.034.102-.051.222-.034.34.051.835-.357 1.005-1.141.988-2.351-.051-4.702-.017-7.053-.017h-7.054c-.562 0-.801-.051-.681-.732.272-1.464.221-1.464 1.738-1.464h13.425c.715 0 1.107.085.8.902zm8.195-10.042c-.613.05-1.243 0-1.874 0h-4.736c.852-1.056 1.584-1.94 2.3-2.843.204-.272.477-.272.749-.272.903 0 1.823-.017 2.726 0 .494 0 .784-.068.818-.664a11.7 11.7 0 0 1 .307-2.179c.153-.63-.119-.698-.631-.698-2.811.017-5.622 0-8.433 0q-1.925 0-2.266-1.923c-.017-.12-.068-.221-.068-.34 0-.392-.187-.528-.579-.511-1.074.068-2.164.05-3.237.136-1.721.12-1.772.153-1.448 1.855.136.698-.069.8-.699.8-3.118-.034-6.235 0-9.37 0q-1.431 0-1.619 1.38c-.068.51-.102 1.02-.221 1.514-.12.51.034.647.528.63 1.022-.034 2.044 0 3.067 0 .289 0 .562 0 .698.323.392.902.818 1.787 1.295 2.792h-6.133q-1.261 0-1.432 1.225c-.068.528-.119 1.072-.238 1.6-.136.562.017.732.613.732h29.287c.596 0 .784-.204.835-.766.068-.698.17-1.413.306-2.093.103-.511 0-.75-.579-.698zm-11.721-.256c-.205.256-.477.256-.767.256h-4.498c-.375 0-.63-.068-.8-.46a31 31 0 0 0-1.006-2.145c-.204-.408-.102-.527.341-.527h9.03c-.852 1.055-1.585 1.957-2.3 2.86z"/><path d="M86.753 19.085c-3.237-.017-6.457-.034-9.695-.017-1.226 0-2.095.766-2.283 1.975-.408 2.74-.817 5.48-1.21 8.22-.17 1.192.137 1.516 1.38 1.516h8.588c2.862 0 3.186-.256 3.594-3.081.358-2.383.682-4.766.954-7.15.12-1.088-.272-1.463-1.346-1.48zm-2.317 3.694a123 123 0 0 0-.648 4.374c-.051.409-.204.596-.647.579a291 291 0 0 0-5.452 0c-.562 0-.58-.255-.528-.68.221-1.448.46-2.912.647-4.375.051-.46.29-.545.682-.545h2.726c.885 0 1.754.017 2.64 0 .494 0 .648.12.563.63zm20.955 13.498c0-.443-.153-.596-.596-.596-1.108.017-2.215 0-3.322 0s-2.215.017-3.323 0c-.494 0-.715.102-.698.664a51 51 0 0 1 0 3.234c0 .442.153.596.596.578 2.249 0 4.481-.017 6.73 0 .494 0 .63-.187.63-.646a103 103 0 0 1 0-3.234zm-6.525.255h5.009c.358 0 .596.051.579.51 0 .426-.273.426-.562.426H98.9c-.324 0-.545-.034-.545-.443 0-.374.17-.476.528-.476zm4.975 2.791h-4.839c-.375 0-.664 0-.681-.51-.017-.579.323-.545.715-.545h4.737c.357 0 .664-.034.664.494 0 .476-.221.561-.63.544zm-40.548-.714c-.41.068-.852 0-1.278 0h-.256q-2.044 0-2.044 2.008c0 1.175 0 1.209 1.226 1.209.512 0 .716.153.682.68a12.5 12.5 0 0 0 0 1.788c.068.834-.136 1.344-1.107 1.174-.17-.034-.443-.085-.41.238.018.239 0 .528.307.647.972.358 1.994-.34 2.028-1.396.017-.85 0-1.702 0-2.553 0-.391.119-.544.528-.562 1.346-.085 1.346-.102 1.346-1.43 0-.255-.017-.51 0-.765.085-.766-.153-1.175-1.022-1.038m.136 2.144c-.068.255-.222.29-.426.307h-1.618c-.614.068-.92-.069-.904-.8 0-.698.188-1.005.904-.903.34.051.681 0 1.022 0 1.022 0 1.295.392 1.022 1.396m72.867 2.86c-.068-1.6-.017-1.6-1.601-1.6-.341 0-.682.034-1.022 0-.495-.051-.716.119-.682.647.051.68.017 1.344 0 2.025 0 .528.46.63.63.392.443-.664 1.074-.443 1.585-.392.869.068 1.107-.221 1.056-1.072zm-1.652.34c-.46.034-.818.051-.818-.613 0-.85.545-.578.971-.63.477-.05.784.018.784.648 0 .783-.528.544-.937.578zm.017-6.706c-1.755.034-1.568-.239-1.568 1.106 0 1.617-.238 1.396 1.431 1.43.307 0 .631-.034.937 0 .648.085.869-.153.869-.834-.034-1.702 0-1.702-1.669-1.702m.085 1.787c-.46 0-.92.136-.903-.579.017-.8.596-.46.971-.51.409-.068.75-.034.75.561 0 .75-.528.46-.818.511zM23.903 6.387c-9.677-.034-17.616 7.966-17.565 17.72.05 9.668 7.956 17.48 17.633 17.463 9.677-.034 17.6-7.966 17.548-17.566-.05-9.736-7.888-17.566-17.616-17.6zm3.05 19.336c1.788 2.383 3.594 4.75 5.383 7.132.17.222.324.443.58.8h-5.708c-.324 0-.443-.238-.58-.442a1122 1122 0 0 1-4.94-7.234c-.255-.392-.426-.851-.698-1.447-.188 1.906-.375 3.642-.546 5.396-.102 1.038-.238 2.076-.306 3.132-.034.46-.188.63-.665.612a48 48 0 0 0-3.492 0c-.648.034-.733-.238-.682-.8.392-3.778.75-7.557 1.125-11.336.204-2.11.443-4.221.613-6.349.051-.698.307-.919.988-.868 1.074.051 2.164.051 3.237 0 .648-.034.733.221.682.8-.239 2.11-.443 4.221-.648 6.332-.017.17-.119.375.017.528 2.215-2.707 4.907-4.92 7.36-7.37.137-.137.29-.273.511-.273h5.043c-2.3 2.417-4.634 4.92-7.019 7.387-1.482 1.532-1.55 2.247-.255 3.966z"/></g><defs><clipPath id="a"><path fill="#fff" d="M0 0h184v48H0z"/></clipPath></defs></svg>