<svg xmlns="http://www.w3.org/2000/svg" width="248" height="48" fill="none" viewBox="0 0 248 48"><g clip-path="url(#a)"><path fill="url(#b)" d="M10.531 16.944A18.32 18.32 0 0 1 17.204 6.24a20.7 20.7 0 0 0-6.17-2.064c-4.696 3.108-8.23 7.836-9.776 13.392a21.6 21.6 0 0 1 9.273-.624"/><path fill="url(#c)" d="M13.538 31.248a18.14 18.14 0 0 1-3.378-10.584 19 19 0 0 1 .263-3.096 20.94 20.94 0 0 0-9.357.732A24 24 0 0 0 .371 24c0 4.98 1.534 9.588 4.146 13.404a21.35 21.35 0 0 1 9.021-6.156"/><path fill="url(#d)" d="M26.166 38.772a18.13 18.13 0 0 1-12.232-6.996c-3.547 1.212-6.65 3.372-9.034 6.156 4.29 5.904 11.214 9.744 19.05 9.78a20.9 20.9 0 0 0 2.216-8.94"/><path fill="url(#e)" d="M41.513 40.032a20.7 20.7 0 0 0-.97-5.796 18.1 18.1 0 0 1-13.754 4.596 21.4 21.4 0 0 1-2.157 8.88 23.66 23.66 0 0 0 16.881-7.68"/><path fill="url(#f)" d="M11.825 3.696a21.3 21.3 0 0 1 5.942 2.136A18.1 18.1 0 0 1 28.37 2.424c4.745 0 9.01 1.728 12.208 4.596A23.6 23.6 0 0 0 24.059.288a23.43 23.43 0 0 0-12.233 3.408"/><path fill="url(#g)" d="M44.329 11.736c1.437 2.628 2.252 5.652 2.252 8.916 0 5.136-2.12 9.78-5.535 13.092a21.8 21.8 0 0 1 1.066 5.592 23.63 23.63 0 0 0 5.619-15.348c0-4.476-1.234-8.664-3.403-12.252"/><path fill="url(#h)" d="M43.394 21.66c.48-10.368-8.17-14.46-8.17-14.46 2.982 2.604 6.469 6.732 5.594 13.488-.347 2.712-2.516 5.208-4.48 6.18-4.158 2.064-8.71-.864-7.992-4.8.324-1.764 2.229-2.628 2.876-2.688-1.821-1.272-4.829-.828-6.518.468-1.977 1.524-2.456 3.768-2.456 5.628 0 2.388 1.677 4.824 3.462 6.036 7.141 4.8 17.229-.012 17.684-9.852"/><path fill="url(#i)" d="M26.13 33.792c-2.145-.96-4.792-2.388-5.919-6.408-1.317-4.74 1.558-8.292 3.51-9.552 1.906-1.224 3.739-1.428 5.26-1.392 2.816.072 5.571 2.052 6.626 3.78.095-1.2-1.15-6.24-6.698-7.272-3.27-.612-6.385.324-8.386 1.896-2.42 1.896-3.75 4.716-3.918 7.92-.204 4.032 1.366 8.616 5.248 11.136 3.438 2.232 7.943 2.34 11.513.948-3.235.288-5.727-.372-7.236-1.056"/><path fill="url(#j)" d="M38.877 16.884c-.575-4.764-4.157-9.552-8.746-10.524-4.001-.852-8.83.18-12.136 3.348-4.924 4.716-5.907 12.192-3.043 17.844-.887-4.308-.85-7.044.347-9.972 1.977-4.8 6.985-7.56 12.652-7.02 5.63.54 9.213 5.268 8.938 10.452-.084 1.596-.396 2.568-.767 3.336 2.384-1.86 3.139-4.332 2.755-7.464"/><path fill="#231815" d="M84.32 11.016a.73.73 0 0 0-.611-.564.73.73 0 0 0-.73.384l-8.291 16.08-8.028-16.068a.71.71 0 0 0-.73-.396.73.73 0 0 0-.623.552l-5.715 23.988a.74.74 0 0 0 .132.612.73.73 0 0 0 .563.276h3.474a.71.71 0 0 0 .695-.54l2.947-11.628 6.554 12.804a.72.72 0 0 0 .635.396.71.71 0 0 0 .635-.384l6.72-12.78L84.68 35.34a.72.72 0 0 0 .707.552h3.45a.74.74 0 0 0 .564-.264.74.74 0 0 0 .144-.612zm92.431 1.104a.72.72 0 0 0-.719.72v3.168c0 .396.324.72.719.72h6.553V35.16c0 .396.324.72.719.72h3.367a.72.72 0 0 0 .719-.72V16.728h6.254c.395 0 .575-.288.718-.72l1.438-3.168a.72.72 0 0 0-.719-.72zm33.091-.42c-3.391 0-6.338 1.212-8.758 3.588-2.432 2.388-3.666 5.28-3.666 8.604 0 3.78 1.353 6.876 4.025 9.216 2.408 2.1 5.176 3.168 8.219 3.168 3.426 0 6.398-1.2 8.83-3.576 2.42-2.364 3.654-5.292 3.654-8.676 0-3.372-1.222-6.3-3.63-8.7s-5.32-3.624-8.674-3.624m-.132 19.992c-1.977 0-3.678-.708-5.2-2.184-1.521-1.464-2.264-3.276-2.264-5.568 0-2.172.719-3.948 2.192-5.412 1.474-1.488 3.223-2.208 5.356-2.208 2.144 0 3.893.72 5.343 2.208 1.462 1.476 2.169 3.276 2.169 5.472 0 2.172-.719 3.96-2.205 5.472-1.474 1.488-3.235 2.22-5.391 2.22M105.622 11.7c-3.391 0-6.338 1.212-8.758 3.588-2.432 2.388-3.666 5.28-3.666 8.604 0 3.78 1.354 6.876 4.025 9.216 2.408 2.1 5.176 3.168 8.219 3.168 3.426 0 6.398-1.2 8.83-3.576 2.42-2.364 3.654-5.292 3.654-8.676 0-3.372-1.222-6.3-3.63-8.7s-5.32-3.624-8.674-3.624m-.132 19.992c-1.977 0-3.678-.708-5.2-2.184-1.521-1.464-2.264-3.276-2.264-5.568 0-2.172.719-3.948 2.192-5.412 1.474-1.488 3.223-2.208 5.356-2.208 2.144 0 3.893.72 5.343 2.208 1.462 1.476 2.169 3.276 2.169 5.472 0 2.172-.719 3.96-2.205 5.472-1.473 1.488-3.235 2.22-5.391 2.22M134.447 11.7c-3.39 0-6.338 1.212-8.758 3.588-2.432 2.388-3.666 5.28-3.666 8.604 0 3.78 1.354 6.876 4.026 9.216 2.408 2.1 5.175 3.168 8.218 3.168 3.427 0 6.398-1.2 8.83-3.576 2.42-2.364 3.654-5.292 3.654-8.676 0-3.372-1.222-6.3-3.63-8.7s-5.319-3.624-8.674-3.624m-.132 19.992c-1.976 0-3.678-.708-5.199-2.184-1.522-1.464-2.265-3.276-2.265-5.568 0-2.172.719-3.948 2.193-5.412 1.473-1.488 3.223-2.208 5.355-2.208 2.145 0 3.894.72 5.344 2.208 1.461 1.476 2.168 3.276 2.168 5.472 0 2.172-.719 3.96-2.204 5.472-1.474 1.488-3.235 2.22-5.392 2.22m17.181-16.644V35.16c0 .396.323.72.719.72h3.366a.72.72 0 0 0 .719-.72V21.336l15 15.252a.73.73 0 0 0 .515.228.717.717 0 0 0 .719-.72V12.84a.72.72 0 0 0-.719-.72h-3.367a.72.72 0 0 0-.719.72v13.272l-13.058-13.248a.73.73 0 0 0-1.019 0zm75.083 0V35.16c0 .396.323.72.718.72h3.367a.72.72 0 0 0 .719-.72V21.336l15 15.252a.73.73 0 0 0 .515.228.717.717 0 0 0 .719-.72V12.84a.72.72 0 0 0-.719-.72h-3.367a.72.72 0 0 0-.719.72v13.272l-13.059-13.248a.73.73 0 0 0-1.018 0z"/></g><defs><radialGradient id="b" cx="0" cy="0" r="1" gradientTransform="matrix(43.6403 0 0 43.7107 24.503 2.515)" gradientUnits="userSpaceOnUse"><stop offset=".246" stop-color="#edd900"/><stop offset="1" stop-color="#f29600"/></radialGradient><radialGradient id="c" cx="0" cy="0" r="1" gradientTransform="matrix(43.6403 0 0 43.7107 24.503 2.515)" gradientUnits="userSpaceOnUse"><stop offset=".246" stop-color="#edd900"/><stop offset="1" stop-color="#f29600"/></radialGradient><radialGradient id="d" cx="0" cy="0" r="1" gradientTransform="matrix(43.6403 0 0 43.7107 24.503 2.514)" gradientUnits="userSpaceOnUse"><stop offset=".246" stop-color="#edd900"/><stop offset="1" stop-color="#f29600"/></radialGradient><radialGradient id="e" cx="0" cy="0" r="1" gradientTransform="matrix(43.6403 0 0 43.7107 24.503 2.515)" gradientUnits="userSpaceOnUse"><stop offset=".246" stop-color="#edd900"/><stop offset="1" stop-color="#f29600"/></radialGradient><radialGradient id="f" cx="0" cy="0" r="1" gradientTransform="matrix(43.6403 0 0 43.7107 24.503 2.514)" gradientUnits="userSpaceOnUse"><stop offset=".246" stop-color="#edd900"/><stop offset="1" stop-color="#f29600"/></radialGradient><radialGradient id="g" cx="0" cy="0" r="1" gradientTransform="matrix(43.6403 0 0 43.7107 24.503 2.514)" gradientUnits="userSpaceOnUse"><stop offset=".246" stop-color="#edd900"/><stop offset="1" stop-color="#f29600"/></radialGradient><linearGradient id="h" x1="42.436" x2="22.931" y1="16.08" y2="27.073" gradientUnits="userSpaceOnUse"><stop offset=".098" stop-color="#54c2f0"/><stop offset="1" stop-color="#0075c1"/></linearGradient><linearGradient id="i" x1="21.026" x2="32.68" y1="32.28" y2="17.185" gradientUnits="userSpaceOnUse"><stop offset=".098" stop-color="#54c2f0"/><stop offset="1" stop-color="#0075c1"/></linearGradient><linearGradient id="j" x1="13.36" x2="38.974" y1="16.813" y2="16.813" gradientUnits="userSpaceOnUse"><stop offset=".098" stop-color="#54c2f0"/><stop offset="1" stop-color="#0075c1"/></linearGradient><clipPath id="a"><path fill="#fff" d="M0 0h248v48H0z"/></clipPath></defs></svg>