<svg xmlns="http://www.w3.org/2000/svg" width="118" height="48" fill="none" viewBox="0 0 118 48"><g fill="#d9d9d9" clip-path="url(#a)"><path d="M117.769 22.462c-.155 2.323.232 5.187-.232 8.013-.619 3.794-3.598 6.774-7.39 7.355-.619.077-1.625.542-1.625-.58 0-.968-.851-2.4 1.006-2.827 1.78-.425 3.327-1.238 4.295-2.903.232-.348.58-.813.232-1.238-.31-.387-.735 0-1.045.154-2.708 1.162-5.339.426-7.467-1.16-1.741-1.317-2.785-3.485-2.785-5.885 0-2.826.038-5.69 0-8.516-.039-1.432.735-1.51 1.818-1.51s1.664.233 1.625 1.51c-.077 2.632 0 5.265 0 7.936 0 1.858.503 3.406 2.321 4.296 1.741.852 3.25.155 4.759-.658 1.006-.542 1.045-1.548 1.045-2.516 0-2.98.077-5.922 0-8.903 0-1.277.386-1.665 1.663-1.665 1.238 0 1.935.194 1.857 1.704-.116 2.322 0 4.645 0 7.47zm-26.192-5.458c0-1.742.077-3.484 0-5.226-.039-1.161.348-1.626 1.547-1.548 1.006.039 2.051-.039 1.819 1.432-.31 1.897.928 1.587 2.089 1.703.89.078 2.321-.812 2.592 1.007.271 1.935 0 2.284-2.089 2.322q-2.63.04-2.63 2.633v1.742c0 3.56 1.121 5.187 4.564 6.116 2.09.542 1.316 2.013 1.161 3.058-.193 1.277-1.354.464-2.05.348-2.67-.503-4.566-2.168-6.074-4.297-.929-1.316-.813-2.942-.929-4.451-.116-1.587 0-3.213 0-4.839m-6.384-2.129c.697-.426 1.2-.929 1.78-1.045.774-.155 2.05-.813 2.321.31.232 1.006.89 2.477-1.083 3.135-2.553.852-3.134 3.213-3.288 5.613-.117 1.974-.078 3.987 0 6 .038 1.277-.58 1.471-1.625 1.471-1.122 0-1.819-.116-1.78-1.548.077-4.762 0-9.523 0-14.323 0-.968-.039-1.858 1.315-1.78 1.084.038 2.322-.233 2.128 1.548 0 .155.116.348.232.58zM26.542 7.056c-2.593-1.897-5.572-3.136-8.125-5.11-1.083-.852-2.476-1.393-3.83-1.78-2.94-.813-5.649 1.47-5.687 4.645v25.742c0 .928.116 1.896-1.045 2.206-1.818.465-3.134 1.78-4.643 2.71-2.863 1.78-3.907 5.11-2.747 8.09 1.238 3.135 4.527 5.07 7.66 4.529 3.173-.542 5.61-3.29 5.765-6.58.078-1.24.155-2.478 0-3.678-.386-2.594 1.277-3.677 3.134-4.684 3.676-2.013 7.39-4.026 10.678-6.658 2.863-2.323 4.45-5.42 4.488-9.174.039-4.49-2.166-7.626-5.726-10.22zM7.197 42.669c-1.006.077-1.625-.465-1.586-1.471 0-1.742 1.432-2.207 2.708-2.439 1.16-.194.426 1.006.62 1.355.193 1.548-.233 2.477-1.742 2.555m19.074-22.413c-1.393 2.516-3.947 3.522-6.113 5.032-1.818 1.277-3.985 1.974-6.152 3.91V7.829c0-.618-.27-1.431.387-1.741.62-.31.929.542 1.432.774 2.128.852 3.907 2.439 5.958 3.407 1.78.813 2.979 2.129 4.178 3.522 1.393 1.626 1.393 4.568.31 6.503zm29.094-5.574c-2.902-2.44-6.307-2.942-9.943-1.471-.813.348-1.548 1.006-2.438-.194-.503-.658-1.74-.426-2.553-.116-.735.31-.464 1.123-.464 1.703v10.8c0 3.6.038 7.2 0 10.8 0 1.355.464 1.742 1.78 1.742 1.43 0 1.779-.542 1.701-1.82-.077-1.586 0-3.212 0-4.838 0-2.09 0-2.168 1.974-1.277 4.565 2.129 9.672-.31 11.49-3.097 2.515-3.833 1.935-9.407-1.509-12.271zm-6.152 12.735c-3.018 0-5.842-2.826-5.803-5.69.077-3.213 2.747-6.039 5.803-5.845 3.598.232 5.416 2.283 5.765 5.767-.04 3.058-2.786 5.807-5.765 5.768m29.751.852c.039-2.207 0-4.375 0-6.581v-7.161c0-.62.194-1.51-.58-1.665-.89-.193-2.128-.62-2.708.271-.735 1.161-1.432.542-2.09.271-5.106-1.935-8.704-.968-11.916 3.29-2.785 3.717-1.78 10.181 2.167 12.504 3.018 1.742 6.345 2.555 9.71.658.697-.387 1.355-.775 2.168.116.657.735 1.856.464 2.746.155.852-.271.465-1.239.465-1.897zm-9.478-.852c-3.057.077-5.958-2.632-5.958-5.613 0-3.174 2.67-5.922 5.88-5.922 3.25 0 5.92 2.593 5.958 5.845 0 3.096-2.553 5.613-5.842 5.729z"/></g><defs><clipPath id="a"><path fill="#fff" d="M0 0h118v48H0z"/></clipPath></defs></svg>