<svg xmlns="http://www.w3.org/2000/svg" width="212" height="48" fill="none" viewBox="0 0 212 48"><path fill="url(#a)" d="M0 9.905C0 4.435 4.43 0 9.896 0h28.546c5.465 0 9.895 4.435 9.895 9.905v28.19c0 5.47-4.43 9.905-9.895 9.905H9.896C4.43 48 0 43.566 0 38.095z"/><path fill="#fff" d="M21.46 7.179c1.133-2.206 4.284-2.206 5.417 0l3.175 6.182a3.05 3.05 0 0 0 2.175 1.608l6.83 1.214c2.387.424 3.346 3.334 1.68 5.096l-4.925 5.206-.116.13a3.05 3.05 0 0 0-.689 2.388l.995 7.105c.335 2.398-2.116 4.194-4.285 3.193l-.103-.05-6.073-3.068a3.04 3.04 0 0 0-2.744 0l-6.074 3.068-.102.05c-2.135.985-4.543-.739-4.299-3.08l.014-.113.994-7.105a3.05 3.05 0 0 0-.804-2.518L7.6 21.28c-1.666-1.762-.708-4.672 1.679-5.096l6.83-1.214a3.05 3.05 0 0 0 2.176-1.608zm3.386 1.045a.76.76 0 0 0-1.354 0l-3.175 6.182a5.33 5.33 0 0 1-3.808 2.813l-6.83 1.215a.762.762 0 0 0-.42 1.274l4.925 5.206a5.34 5.34 0 0 1 1.408 4.406l-.994 7.105a.761.761 0 0 0 1.097.786l6.073-3.069a5.32 5.32 0 0 1 4.802 0l6.073 3.069a.761.761 0 0 0 1.097-.786l-.995-7.105a5.34 5.34 0 0 1 1.408-4.406l4.925-5.206a.762.762 0 0 0-.42-1.274l-6.83-1.215a5.33 5.33 0 0 1-3.807-2.813z"/><path fill="#fff" d="M25.494 35.429s-.812.38-1.333.38-1.332-.38-1.332-.38l-1.134-10.976c.719.438 1.563.69 2.466.69s1.747-.252 2.467-.69zm-1.523-8.381a.38.38 0 0 0-.38.38v1.905a.38.38 0 1 0 .76 0V27.43a.38.38 0 0 0-.38-.381m4.194-6.478a3.81 3.81 0 0 1-3.806 3.81 3.81 3.81 0 0 1-3.806-3.81 3.81 3.81 0 0 1 3.806-3.81 3.81 3.81 0 0 1 3.806 3.81"/><path fill="#333" d="M133.677 17.493c.181.155-.807 1.5.135 1.36.941-.141 2.629-1.36 3.787-1.36h6.357v17.6c-.608-.068-3.516.257-3.516-.406V20.743c-2.489-.41-6.763 1.654-6.763 4.467v9.883h-3.517v-14.35c-2.156-.106-5.232.741-6.276 2.788-.257.504-.758 2.554-.758 3.033v8.529h-3.249c.228-5.026-1.585-11.31 2.465-15.268.833-.815 3.617-2.332 4.704-2.332zm-54.645 0c-.146.767.395 3.209-.444 3.482l-11.048.044c-1.593.533-1.623 2.62-.027 3.265 1.856.747 5.28-.081 7.477.368 4.472.92 5.313 7.343 1.431 9.588-.286.165-2.207.853-2.394.853H62.801v-3.52h10.956c1.563 0 2.288-2.718.95-3.39-.904-.452-4.946.006-6.36-.133-4.096-.406-6.755-3.915-4.875-7.854.424-.891 2.296-2.705 3.249-2.705h12.308z"/><path fill="#2f2f2f" d="M168.033 12.62v13.809c1.447-.729 8.426-8.936 9.062-8.936h4.463l-8.096 8.762 8.367 8.838h-4.464c-.451 0-5.664-6.239-6.492-6.239-.598 0-2.429 2.167-2.632 2.79-.376 1.147-.162 2.282-.206 3.449-.608-.068-3.519.254-3.519-.409V12.617h3.517z"/><path fill="#333" d="M84.172 12.62v4.467c0 .03.376.406.406.406h5.004v3.25h-5.004c-.03 0-.406.376-.406.406v4.873c0 .114.33 1.82.395 2.042.62 2.066 3.078 3.306 5.029 3.666l-.017 3.366c-4.122-.05-8.066-3.38-8.626-7.476-.596-4.349.078-8.849-.017-13.251-.008-.428-.297-1.132-.251-1.322.184-.782 2.813-.3 3.484-.427z"/><path fill="#2f2f2f" d="M201.847 35.093c-.765-.146-3.205.395-3.479-.444-.254-.775-.124-6.87-.035-8.082.401-5.343 3.712-9.255 9.336-9.347 2.067-.035.958 2.058 1.212 3.523-2.548.035-5.659.62-6.512 3.365-.127.409-.522 2.16-.522 2.453z"/><path fill="#333" d="M112.576 35.093c-.765-.146-3.205.395-3.479-.444-.259-.794-.116-6.582-.035-7.812.211-3.23.866-5.558 3.509-7.59 1.325-1.017 4.45-2.203 6.095-2.046 1.661.157.714 2.269.946 3.544-2.275-.146-5.329.761-6.376 2.96-.195.409-.66 1.979-.66 2.317zm74.663-3.793 9.176-9.919c-3.078-4.908-10.363-5.206-13.918-.647-6 7.698 2.919 18.566 12.022 12.575 3.03-1.996 1.802-2.093-.141-4.433-2.115 1.847-4.158 3.377-7.139 2.423m-2.973-2.976c-1.274-4.538 2.362-8.53 7.031-7.037.119.466-.192.541-.403.812-1.407 1.806-4.006 4.427-5.816 5.821-.271.209-.344.526-.812.404"/><path fill="#2f2f2f" d="M158.207 18.528c-11.708-6.29-18.693 13.35-5.924 16.218 3.563.8 6.877-.127 10.339.344-.111-5.862 1.869-13.189-4.412-16.565zm1.169 12.639c0 .03-.376.406-.406.406-1.601 0-3.93.211-5.41 0-4.477-.636-6.317-6.209-3.084-9.314 2.516-2.418 7.374-1.289 8.5 1.998.064.187.4 1.676.4 1.765zm-59.173-13.609c-11.105-1.746-14.232 14.234-3.798 17.07 3.625.985 7.166.083 10.761.465V24.127c0-2.68-4.45-6.173-6.963-6.569m3.717 14.015h-5.817c-.119 0-1.339-.46-1.593-.571-5.391-2.364-3.392-10.86 3.195-9.964 1.994.27 4.217 2.704 4.217 4.714v5.821z"/><defs><radialGradient id="a" cx="0" cy="0" r="1" gradientTransform="matrix(-42.7766 -24.8276 25.0022 -40.3092 48.337 36)" gradientUnits="userSpaceOnUse"><stop stop-color="#ff8951"/><stop offset=".33" stop-color="#f64990"/><stop offset=".66" stop-color="#a448d1"/><stop offset="1" stop-color="#6e47fb"/></radialGradient></defs></svg>