<svg xmlns="http://www.w3.org/2000/svg" width="80" height="80" fill="none" viewBox="0 0 80 80"><rect width="79" height="79" x=".5" y=".5" fill="#fff" rx="7.5"/><rect width="79" height="79" x=".5" y=".5" stroke="#eee" rx="7.5"/><path fill="#0867b2" d="M30.327 24.63c.178.773.297 1.485.505 2.198.535 1.811 1.634 3.267 3.03 4.514.386.326.802.683 1.248.86.534.209.564.624.534 1.04 0 .772-.118 1.515-.207 2.257 0 .178-.12.208-.298.148a13.5 13.5 0 0 1-3.505-2.227c-1.396-1.217-2.436-2.672-3.178-4.335-.446-.98-.773-1.99-.921-3.03-.09-.83-.208-1.662-.208-2.494 0-.89.178-1.781.297-2.761.832.148 1.545.237 2.258.445 1.396.357 2.673.95 3.861 1.752 1.694 1.129 3 2.613 4.01 4.366a12.5 12.5 0 0 1 1.516 4.543c.267 2.108.03 4.187-.743 6.206-.119.297-.06.446.208.624.445.297.891.594 1.307.92 1.396-1.128 2.911-1.99 4.634-2.464a13.6 13.6 0 0 1 3.297-.505c1.575 0 3.09.178 4.575.713a11.8 11.8 0 0 1 3.92 2.256c1.516 1.277 2.645 2.851 3.476 4.633.09.208.09.297-.118.416-1.307.742-2.733 1.276-4.219 1.514-1.069.148-2.198.208-3.267.148-1.901-.118-3.684-.712-5.317-1.692-.743-.445-1.456-1.01-2.14-1.574-.415-.327-.742-.742-1.128-1.099-.09-.089-.119-.178-.208-.267.891-.564 1.871-.89 2.882-1.128.089 0 .207.03.267.089 1.366 1.336 3 2.168 4.871 2.553a7.5 7.5 0 0 0 2.822.12c.387-.06.773-.09 1.218-.209-1.158-1.455-2.643-2.435-4.396-2.999-3.683-1.158-7.01 0-9.15 1.782 1.783 2.524 2.585 5.404 2.318 8.463-.267 3.445-1.782 6.355-4.486 8.7-.356-.355-.802-.712-1.129-1.157a23 23 0 0 1-1.455-2.02c-.772-1.187-1.307-2.524-1.515-3.92-.149-.98-.267-1.96-.267-2.94 0-1.603.326-3.147.98-4.602.356-.772.802-1.544 1.248-2.286.148-.238.089-.386-.12-.535a11 11 0 0 0-.742-.505 13.2 13.2 0 0 1-4.1 3.593c-1.158.654-2.405 1.129-3.683 1.337-1.04.178-2.139.267-3.178.237-1.901-.089-3.684-.623-5.377-1.514-.653-.357-.683-.357-.327-1.04.594-1.098 1.278-2.138 2.11-3.058 1.069-1.188 2.346-2.109 3.772-2.821 1.158-.565 2.347-.98 3.624-1.1 1.01-.088 1.99-.177 3-.118.862.06 1.723.297 2.555.475.238.06.386.09.475-.237.446-1.277.684-2.614.565-3.95a10.04 10.04 0 0 0-1.842-5.048c-1.04-1.425-2.376-2.494-3.95-3.237h-.239zm-5.94 18.352c3.415.95 7.455-.445 9.624-3.088-2.882-.831-7.1.03-9.625 3.088m15.565 11.433c.92-1.396 1.366-2.88 1.485-4.454.149-2.02-.356-3.92-1.426-5.731-1.871 3.385-1.93 6.74-.03 10.185zm.119-14.818v.06z"/><path fill="#0867b2" d="M53.082 23.888c-1.426.119-2.733.327-3.922.92-.653.327-1.277.773-1.871 1.218-.861.624-1.515 1.455-2.08 2.346-.712 1.188-1.217 2.435-1.425 3.801-.09.683-.149 1.396-.149 2.108 0 .476.09.921.178 1.396.06.267.03.386-.267.446-.861.208-1.723.475-2.555.712-.386-1.366-.416-2.732-.326-4.068.089-1.514.475-2.97 1.099-4.395.742-1.663 1.812-3.088 3.119-4.306 1.188-1.069 2.525-1.93 4.04-2.464 1.099-.387 2.198-.713 3.386-.743.268 0 .357.09.386.356.12.891.238 1.782.357 2.703z"/><path fill="#ed2e30" d="M49.398 31.965c-.772.06-1.515-.594-1.545-1.544 0-.802.773-1.574 1.545-1.514.862.059 1.485.564 1.515 1.544.03.89-.772 1.574-1.515 1.514m-3.089 0c.861 0 1.604.624 1.574 1.485-.03.89-.535 1.544-1.545 1.574a1.51 1.51 0 0 1-1.514-1.544c0-.802.742-1.574 1.514-1.515zm4.901-6.829c.772-.149 1.574.712 1.545 1.514-.03.742-.684 1.515-1.575 1.485-.802-.03-1.515-.713-1.485-1.574 0-.713.654-1.544 1.515-1.455z"/></svg>