<svg xmlns="http://www.w3.org/2000/svg" width="80" height="80" fill="none" viewBox="0 0 80 80"><rect width="79" height="79" x=".5" y=".5" fill="#fff" rx="7.5"/><rect width="79" height="79" x=".5" y=".5" stroke="#eee" rx="7.5"/><path fill="#63ad5b" d="M68.582 38.835q.918-1.029 1.85-2.058c.37-.415.676-.974 1.136-1.182s1.083-.063 1.634-.072h2.201c.037.207-.135.28-.225.37a273 273 0 0 1-3.185 3.275c-.235.235-.235.388-.054.66 1.28 1.903 2.544 3.825 3.807 5.738.073.108.18.207.18.36-.126.091-.27.046-.405.046-1.065 0-2.13-.018-3.195.009-.351 0-.54-.117-.721-.415-.668-1.146-1.372-2.274-2.058-3.41-.162-.28-.261-.362-.56-.091-.405.37-.577.749-.54 1.3.045.74 0 1.497.017 2.237 0 .289-.09.379-.379.379a51 51 0 0 0-2.616 0c-.361.01-.47-.081-.47-.451.019-3.267 0-6.533 0-9.8 0-1.245.01-2.49 0-3.735 0-.316.09-.406.398-.397q1.326.027 2.652 0c.343-.01.415.126.406.433-.009 2.093 0 4.178 0 6.271v.496c.037.018.064.027.1.045zm-12.136-1.958c.983-1.2 2.156-1.706 3.564-1.67 2.048.054 3.302 1.218 3.438 3.24.162 2.4.027 4.81.072 7.218 0 .271-.127.316-.352.316-.911 0-1.823-.009-2.743 0-.289 0-.38-.09-.38-.379.01-1.741 0-3.483 0-5.224 0-.415 0-.83-.098-1.236-.145-.605-.56-.984-1.182-1.056-1.354-.154-2.211.613-2.22 2.021-.018 1.796-.018 3.6 0 5.396 0 .397-.117.487-.488.478a49 49 0 0 0-2.571 0c-.298 0-.415-.063-.415-.388.009-3.24 0-6.47 0-9.709 0-.252.045-.379.343-.37.902.018 1.795.018 2.698 0 .261 0 .343.09.325.343-.018.298 0 .605 0 1.02z"/><path fill="#ed3d43" d="M18.403 38.555V31.67c0-.361.081-.478.46-.47.785.028 1.58 0 2.364 0q.541 0 .541.524v13.842c0 .28-.063.388-.37.388a63 63 0 0 0-2.616 0c-.325 0-.388-.117-.388-.406.009-2.337 0-4.674 0-7.011zm5.007.045v-6.976c0-.325.091-.424.416-.415.83.018 1.66.027 2.49 0 .37-.018.46.1.46.46-.008 3.79 0 7.58 0 11.37v2.572c0 .27-.08.36-.351.36a63 63 0 0 0-2.617 0c-.316 0-.397-.09-.397-.396.009-2.329 0-4.648 0-6.976"/><path fill="#e95a2f" d="M27.968 49.121c-.253 0-.497.018-.75.018H4.553c-.46 0-.668-.333-.487-.776.054-.144.171-.117.27-.117h23.001c.126 0 .253.01.37.018q0 .082-.054.136c-.235.162-.505.117-.767.117h-9.628c-.18 0-.361-.018-.532.036-.073.018-.136.063-.118.144 0 .054.063.09.118.109.171.063.351.045.532.045h9.88c.271 0 .56-.063.804.126.036.045.045.09.027.144"/><path fill="#8cc345" d="M52.06 49.13c-.18 0-.36.018-.541.018H40.78c-.253 0-.496-.018-.75-.018-.27-.307-.27-.56 0-.866.163 0 .335-.018.497-.018h23.154c.154 0 .307.018.451.018.154.306.136.595-.08.866h-.127c-.262-.578-.74-.632-1.309-.623-3.158.018-6.325.018-9.483 0-.505 0-.894.109-1.083.623z"/><path fill="#b969a7" d="M40.032 48.264v.866c-1.67 0-3.348.018-5.017.018-2.355 0-4.701-.01-7.056-.018v-.054c-.064-.27-.217-.506-.253-.785v-.027c2.563 0 5.116-.01 7.679-.018 1.552 0 3.095 0 4.647.018"/><path fill="#28a8de" d="M64.061 49.13c-.009-.298-.108-.596.081-.866 1.633 0 3.267-.01 4.891-.018 2.184 0 4.367.009 6.55 0 .37 0 .425.144.416.46 0 .316-.036.46-.415.46-3.745-.018-7.499 0-11.243 0-.1 0-.19-.009-.289-.018z"/><path fill="#f7ae44" d="M52.06 49.13a3 3 0 0 1-.063-.406c-.036-.298.09-.424.397-.424.884.009 1.769 0 2.653 0h8.085q.848 0 .803.83z"/><path fill="#63ad5b" d="M40.384 39.936c-.406-.894-1.1-1.471-2.057-1.832.234-.163.397-.289.568-.406 1.85-1.38 1.624-4.548-.65-5.532-.73-.315-1.497-.514-2.291-.523-2.446-.027-4.9-.018-7.346-.036-.306 0-.397.09-.397.397.01 4.52.01 9.05 0 13.571 0 .334.1.415.425.415 2.129-.018 4.259-.009 6.397 0 .776 0 1.543-.081 2.31-.234 2.707-.56 4.169-3.34 3.05-5.802zm-8.41-5.108c0-.243.09-.306.316-.297.47.008.938 0 1.408 0 .442 0 .884-.018 1.326 0 .83.036 1.335.55 1.335 1.335 0 .749-.487 1.3-1.29 1.335-.938.045-1.877.018-2.815.027-.217 0-.289-.09-.28-.297a83 83 0 0 0 0-2.112zm3.736 8.031c-.632.135-1.272.036-1.805.072-.595 0-1.092-.009-1.597 0-.244 0-.343-.063-.343-.325.018-.875 0-1.741 0-2.616 0-.145-.036-.325.208-.316 1.146.036 2.3-.1 3.438.081.848.135 1.308.686 1.317 1.543.018.866-.379 1.372-1.236 1.561z"/><path fill="#ed3d43" d="M17.69 45.54c-1.489-4.467-2.96-8.943-4.43-13.418-.082-.253-.199-.343-.47-.334a107 107 0 0 1-3.402 0c-.306 0-.424.108-.523.388-.73 2.111-1.47 4.223-2.21 6.334-.83 2.355-1.652 4.72-2.482 7.075-.117.333-.036.396.289.387.695-.018 1.38 0 2.075 0 .424 0 .939.127 1.263-.063.352-.198.352-.776.497-1.19.08-.244.198-.344.469-.344 1.11.018 2.21 0 3.32.01.443 0 .984-.181 1.29.08.28.244.326.767.443 1.174.072.234.18.333.433.324.523-.018 1.056 0 1.58 0 .514 0 1.028-.018 1.533 0 .352.018.46-.036.325-.433zm-5.676-4.72c-.758-.009-1.516 0-2.283 0-.18 0-.288-.018-.216-.252.442-1.426.875-2.852 1.308-4.269 0-.027.036-.045.09-.108.452 1.462.885 2.888 1.327 4.313.072.235.036.325-.235.325z"/><path fill="#63ad5b" d="M51.87 45.728c-.306-.767-.306-1.57-.306-2.373v-4.773c-.009-1.561-.812-2.608-2.31-3.068-.55-.172-1.11-.244-1.67-.28-1.326-.1-2.625-.018-3.861.532-1.146.506-1.787 1.39-1.958 2.635-.037.262.027.37.324.37a59 59 0 0 1 2.536 0c.262 0 .36-.09.433-.325.127-.424.406-.721.83-.857.659-.198 1.309-.18 1.922.172.38.216.524.56.46.983-.063.442-.37.623-.767.704-1.136.244-2.3.307-3.428.569-2.202.523-3.123 1.876-2.608 4.087.28 1.218 1.407 2.012 2.86 2.139 1.453.117 2.807-.163 3.97-1.183.055.271.1.479.145.677.027.154.1.244.27.244H51.7c.19 0 .253-.063.18-.253zm-3.843-2.707c-.38 1.029-1.94 1.49-2.825.84-.631-.46-.568-1.453.127-1.895.433-.271.93-.343 1.416-.452.488-.099.975-.18 1.498-.388.045.677 0 1.3-.207 1.886z"/><path fill="#ea2d36" d="M27.715 48.282c.379.09.433.27.253.785H16.634c-.307 0-.55-.027-.586-.406-.018-.198.036-.325.252-.343h10.792c.208 0 .415-.018.623-.027z"/></svg>