<svg xmlns="http://www.w3.org/2000/svg" width="80" height="80" fill="none" viewBox="0 0 80 80"><rect width="80" height="80" fill="#e41b23" rx="8"/><path fill="#e41b23" d="M49.879 21.072c.961-.246 1.996-.378 2.962-.08a3.36 3.36 0 0 1 1.76 1.263c.474.655.81 1.416.94 2.216.023.24.013.483.014.726.006.328-.093.644-.189.954-.299.882-.899 1.62-1.541 2.278-.5.486-1.037.933-1.595 1.352-1.613 1.207-3.352 2.228-5.05 3.309-1.428.891-2.84 1.81-4.175 2.837-.557.418-1.056.906-1.577 1.365-.663.563-1.292 1.165-1.945 1.74-.161.142-.324.284-.47.443-1.325 1.326-2.566 2.74-3.646 4.275-1 1.428-1.867 2.973-2.374 4.648-.499 1.628-.585 3.423.005 5.038.328.875.782 1.75 1.543 2.323.65.507 1.48.7 2.288.746.782-.008 1.553-.158 2.302-.377.385-.12.783-.208 1.15-.377.525-.157 1.016-.404 1.512-.631 1.67-.815 3.248-1.808 4.772-2.866 2.62-1.838 5.091-3.878 7.48-6.005 1.073-.94 2.111-1.919 3.167-2.878.255-.256.533-.486.807-.72.038.32-.083.622-.177.92-.144.42-.304.838-.527 1.224-.465.818-.856 1.68-1.4 2.45-1.252 1.821-2.764 3.456-4.434 4.9-.91.783-1.82 1.566-2.74 2.336-1.192.984-2.434 1.914-3.763 2.705-1.358.828-2.81 1.49-4.302 2.036-.641.235-1.3.425-1.976.532-1.12.18-2.265.27-3.395.127-1.152-.105-2.31-.333-3.373-.8-.773-.377-1.471-.89-2.113-1.458-1.177-1.044-2.124-2.36-2.685-3.833-.552-1.433-.742-2.988-.662-4.515.058-1.214.277-2.416.592-3.588.911-3.269 2.524-6.3 4.404-9.107.425-.608.817-1.243 1.319-1.792.624-.726 1.23-1.469 1.853-2.196.184-.233.391-.447.568-.686a62 62 0 0 1 5.722-5.45c1.525-1.268 3.114-2.466 4.808-3.5 1.303-.78 2.668-1.488 4.14-1.884"/><path fill="#fdb813" d="M24.255 20.944c.679-.364 1.451-.532 2.218-.544h33.205c.658.008 1.326.081 1.94.332a3.5 3.5 0 0 1 1.684 1.375c.447.702.668 1.536.697 2.364q.002 15.252 0 30.505c.003.961-.22 1.959-.813 2.734-.574.761-1.47 1.226-2.393 1.408-.619.143-1.257.093-1.886.1-6.077.003-12.154-.004-18.231.004 1.492-.546 2.944-1.208 4.302-2.036 1.33-.791 2.57-1.72 3.763-2.706.92-.77 1.83-1.552 2.74-2.335 1.67-1.444 3.182-3.079 4.433-4.9.545-.77.936-1.632 1.4-2.45.224-.386.384-.804.528-1.225.094-.297.215-.6.177-.919-.274.234-.552.464-.807.72-1.056.959-2.094 1.937-3.167 2.878-2.39 2.126-4.86 4.167-7.48 6.004-1.524 1.06-3.101 2.052-4.772 2.867-.496.227-.987.474-1.512.63a15.7 15.7 0 0 0 2.584-4.197 15.2 15.2 0 0 0 1.144-6.147c-.069-2.875-.957-5.736-2.58-8.114.52-.46 1.019-.947 1.575-1.365 1.335-1.026 2.748-1.946 4.176-2.837 1.697-1.08 3.437-2.102 5.05-3.31a16 16 0 0 0 1.595-1.351c.642-.659 1.242-1.396 1.541-2.279.095-.31.195-.626.189-.953 0-.243.008-.485-.014-.727a5.2 5.2 0 0 0-.94-2.215 3.36 3.36 0 0 0-1.76-1.263c-.966-.299-2-.166-2.962.08-1.473.396-2.839 1.105-4.141 1.883-1.695 1.034-3.284 2.232-4.808 3.5a62 62 0 0 0-5.722 5.45c-1.55-.771-3.244-1.247-4.96-1.459a16 16 0 0 0-7.949 1.058v-6.79c-.01-.76.116-1.537.454-2.225a3.5 3.5 0 0 1 1.502-1.545"/><path fill="#fdb813" d="M26.036 34.407a12.75 12.75 0 0 1 6.58.353q.084.02.17.028c-.5.55-.893 1.185-1.318 1.792-1.88 2.808-3.493 5.838-4.404 9.107-.315 1.172-.534 2.374-.592 3.588-.08 1.527.11 3.082.661 4.515.562 1.474 1.509 2.789 2.686 3.833.641.569 1.34 1.082 2.113 1.457-.1.008-.198.019-.293.046a12.68 12.68 0 0 1-9.034-1.19 12.7 12.7 0 0 1-4.195-3.689 12.6 12.6 0 0 1-2.226-5.263 13 13 0 0 1-.08-3.82 12.6 12.6 0 0 1 2.876-6.526 12.66 12.66 0 0 1 7.056-4.23m9.331 9.342c1.08-1.534 2.321-2.949 3.646-4.275a12.8 12.8 0 0 1 2.242 5.833c.069.761.14 1.528.057 2.292a12.58 12.58 0 0 1-2.865 7.265c-.46.573-.997 1.078-1.532 1.58q-.044.029-.086.06c-.809-.046-1.639-.239-2.289-.746-.76-.573-1.214-1.448-1.542-2.322-.59-1.616-.504-3.411-.005-5.039.507-1.675 1.374-3.22 2.374-4.648"/></svg>