<svg xmlns="http://www.w3.org/2000/svg" width="80" height="80" fill="none" viewBox="0 0 80 80"><rect width="80" height="80" fill="#02a1b1" rx="8"/><path fill="#fefefe" d="M41.78 47.737c2.996-3.18 6.642-4.6 10.844-4.755.65-.031 1.082-.155 1.39-.865.495-1.173 1.885-1.667 3.121-1.359 1.298.34 2.07 1.42 2.04 2.81-.031 1.267-.927 2.347-2.194 2.625-1.236.278-2.565-.37-3.06-1.544-.246-.587-.493-.74-1.111-.617-1.607.247-3.183.617-4.82 1.42 1.792.34 3.213 1.05 4.418 2.162.309.278.494.03.742-.031 1.544-.525 3.182.278 3.614 1.791.464 1.544-.401 3.119-1.977 3.52-1.081.278-2.04 0-2.75-.833-.772-.865-.958-1.915-.463-2.965.247-.494.093-.68-.278-.926-1.514-.989-3.12-1.39-4.913-1.081-1.514.247-2.286 1.328-3.028 2.501-.247.37-.432.772-.741 1.297 1.606-.587 2.873-.185 4.047.68.247.185.464 0 .71-.062 1.298-.309 2.534.216 3.183 1.328.587 1.05.433 2.378-.432 3.304-.804.865-2.163 1.112-3.275.556a2.725 2.725 0 0 1-1.298-3.52c.247-.556.062-.71-.402-.865-1.514-.494-3.028.68-2.873 2.254.247 2.748.37 5.497 1.081 8.183.093.34-.092.464-.34.556-1.915.927-3.83.927-5.777.031-.278-.123-.464-.278-.34-.68.68-2.624.834-5.342 1.05-8.06.124-1.543-1.575-2.778-3.058-2.284-.495.154-.65.34-.402.895.649 1.544-.185 3.212-1.792 3.706-1.545.463-3.12-.463-3.491-2.1-.464-2.007 1.39-3.767 3.46-3.242.433.123.742.03 1.081-.186 1.082-.71 2.256-.988 3.523-.463-.587-2.78-3.275-4.416-6.118-3.767a8.4 8.4 0 0 0-2.41 1.05c-.432.247-.463.463-.278.926.587 1.297.093 2.748-1.112 3.49-1.143.679-2.688.432-3.553-.587-.865-1.02-.865-2.563 0-3.613a2.65 2.65 0 0 1 3.09-.772c.401.154.648.092.957-.186 1.143-1.019 2.503-1.667 4.14-1.945-1.236-.68-2.44-.957-3.645-1.235a5 5 0 0 0-.65-.124c-.74-.123-1.359-.309-1.73.741-.432 1.205-1.853 1.637-3.151 1.297-1.236-.34-2.04-1.451-2.008-2.779.03-1.266.896-2.285 2.132-2.594 1.204-.309 2.564.216 3.027 1.359.31.772.773.834 1.453.864 3.058.124 5.87.958 8.403 2.687.866.587 1.669 1.297 2.503 2.254-.834-4.54-3.09-7.689-7.23-9.387-.988-.402-2.008-.649-3.058-.865-.464-.093-.773-.03-1.082.432-.741 1.112-2.132 1.452-3.337.927s-1.823-1.73-1.606-3.088c.185-1.174 1.235-2.131 2.44-2.193 1.422-.093 2.565.618 2.905 1.976.154.618.494.68.958.742 3.398.494 6.55 1.636 9.145 4.014.37.34.71.741 1.112 1.174.186-.371.062-.68-.03-.989-1.144-4.261-3.708-7.318-7.694-9.202-.402-.185-.68-.247-1.02.216-.772 1.08-2.193 1.39-3.367.834-1.205-.556-1.823-1.853-1.514-3.212.278-1.173 1.39-2.069 2.657-2.1 1.267-.03 2.472.834 2.719 2.162.123.648.432.803.958.957 2.379.803 4.418 2.131 6.303 3.799.092.092.216.185.432.401-.123-1.637-.494-3.088-1.02-4.478-.525-1.39-1.266-2.655-2.286-3.767-.309-.34-.494-.463-.896-.062-.927.927-2.472.988-3.491.247-1.112-.772-1.483-2.192-.927-3.427.525-1.174 1.792-1.853 3.028-1.606 1.36.247 2.286 1.39 2.286 2.779 0 .309 0 .525.31.741 1.668 1.174 2.934 2.687 3.892 4.478.031.062.062.123.155.154.401-2.748.247-5.404-.865-7.967-.186-.432-.433-.247-.711-.185-1.545.463-3.028-.34-3.522-1.884a2.755 2.755 0 0 1 1.792-3.428c1.143-.34 2.162-.093 2.966.803.803.896.865 1.976.401 3.026-.154.371-.185.587.031.927.402.587.65 1.266.958 2.038.37-.834.649-1.606 1.112-2.285.248-.34-.092-.556-.185-.803-.618-1.513.093-3.15 1.607-3.706 1.452-.556 3.12.247 3.614 1.699.495 1.482-.308 3.088-1.791 3.55-.588.186-1.175.186-1.73-.03-.34-.123-.526-.123-.68.247-.99 2.44-1.267 5.003-.927 7.782 1.05-1.915 2.348-3.397 4.016-4.57.217-.155.186-.34.186-.587 0-1.42.896-2.563 2.224-2.841 1.236-.278 2.565.401 3.12 1.606.526 1.204.155 2.625-.864 3.366-1.082.803-2.565.74-3.584-.247-.371-.37-.526-.247-.804.061-1.884 1.977-2.75 4.416-3.213 7.01-.062.37-.247.742-.093 1.205 1.329-1.174 2.72-2.255 4.264-3.057.834-.433 1.669-.834 2.595-1.081.464-.124.65-.34.742-.803.247-1.359 1.39-2.285 2.719-2.254 1.328 0 2.44.926 2.719 2.285.247 1.235-.371 2.47-1.483 2.995-1.174.587-2.596.309-3.399-.772-.34-.494-.618-.463-1.081-.247-3.77 1.791-6.303 4.663-7.508 8.678-.124.432-.247.833-.093 1.327.062-.03.155-.03.185-.061 2.658-2.996 6.149-4.324 10.011-4.91.494-.062.803-.155.958-.742.309-1.266 1.421-2.007 2.78-1.976a2.71 2.71 0 0 1 2.565 2.07c.278 1.296-.278 2.562-1.39 3.149-1.144.587-2.596.432-3.337-.649-.526-.74-1.05-.679-1.73-.525-5.006 1.02-8.28 3.922-9.578 8.925-.248.216-.34.525-.279.957"/><path fill="#02a1b1" d="M37.67 18.74c0 .587-.463 1.081-1.02 1.143-.586.03-1.173-.494-1.173-1.08 0-.557.494-1.082 1.05-1.143.587-.031 1.112.494 1.143 1.08m5.84 1.143c-.556 0-1.082-.556-1.082-1.081 0-.587.556-1.143 1.143-1.112.587 0 1.082.556 1.082 1.174a1.166 1.166 0 0 1-1.143 1.019M23.55 36.404a1.05 1.05 0 0 1 1.144-.988c.587.031 1.08.556 1.05 1.112-.03.587-.618 1.112-1.205 1.05a1.1 1.1 0 0 1-.989-1.174m9.393-12.259c0 .617-.464 1.08-1.05 1.08-.588 0-1.113-.463-1.113-1.05-.03-.586.525-1.173 1.112-1.142a1.14 1.14 0 0 1 1.05 1.112m21.165 24.92c.587 0 1.082.494 1.05 1.112 0 .587-.493 1.08-1.08 1.112-.526 0-1.113-.556-1.113-1.081a1.086 1.086 0 0 1 1.143-1.143m-28.27 2.193c-.556 0-1.082-.494-1.113-1.08a1.09 1.09 0 0 1 1.082-1.143c.556 0 1.081.494 1.112 1.05.062.586-.494 1.142-1.081 1.173m23.327 2.872c0 .556-.526 1.111-1.082 1.111-.587 0-1.081-.494-1.112-1.08-.03-.618.494-1.143 1.112-1.143.587.03 1.05.525 1.082 1.112m3.151-25.26c.618 0 1.05.462 1.082 1.08 0 .649-.495 1.143-1.113 1.112-.587-.031-1.081-.556-1.05-1.112-.031-.587.463-1.08 1.081-1.08M32.912 54.16c0 .587-.494 1.112-1.081 1.112s-1.113-.556-1.082-1.173c.031-.618.495-1.05 1.113-1.05s1.081.494 1.05 1.111m23.42-17.663c0 .587-.495 1.08-1.082 1.08s-1.081-.462-1.081-1.05c0-.648.494-1.111 1.112-1.111s1.05.494 1.05 1.08m-7.229-12.382c0 .617-.433 1.08-1.05 1.111-.619.031-1.113-.463-1.113-1.111 0-.587.494-1.081 1.081-1.112.587.03 1.082.525 1.082 1.112m8.404 19.362c0 .556-.525 1.081-1.112 1.081s-1.143-.556-1.112-1.142c.03-.587.556-1.05 1.143-1.02.587 0 1.081.495 1.081 1.081M27.598 28.87c.618 0 1.05.462 1.05 1.08s-.525 1.112-1.143 1.112a1.096 1.096 0 0 1-1.02-1.143 1.117 1.117 0 0 1 1.113-1.05M24.6 43.414c0 .587-.463 1.08-1.05 1.111a1.11 1.11 0 0 1-1.143-1.08c0-.587.495-1.05 1.082-1.081.587 0 1.081.463 1.112 1.05"/></svg>