<svg xmlns="http://www.w3.org/2000/svg" width="80" height="80" fill="none" viewBox="0 0 80 80"><rect width="80" height="80" fill="#064caf" rx="8"/><g fill-rule="evenodd" clip-path="url(#a)" clip-rule="evenodd"><path fill="#fff" d="M23.61 30.323c4.021.548 4.68 2.645 4.853 4.188.182 1.62-.599 3.162-2.334 4.153 2.286.633 3.352 1.698 3.843 2.793v-11.2l8.375.033c8.366.396 10.69 5.781 10.73 9.288.037 3.362-2.478 8.489-9.913 8.988l-9.192.066v-3.07c-.37.751-.935 1.34-1.505 1.78-1.04.81-2.519 1.124-3.84 1.257l-12.527.07-.1-18.412zm-7.32 2.397v5.242l4.935.018c2.175-.111 2.778-1.513 2.774-2.585-.008-.988-.466-2.294-2.774-2.708zm18.077 13.43 2.759.034c5.981.015 6.998-4.183 7.013-6.706.018-3.037-1.698-6.802-7.013-6.74l-2.693-.036zm-18.058-5.684v5.736h6.432c2.752-.214 3.27-1.842 3.218-2.944-.055-1.254-.936-2.622-3.284-2.859z"/><path fill="#ffb20c" d="M57.118 49.28c-6.014 0-10.878-4.372-10.878-9.78 0-5.411 4.864-9.783 10.878-9.783C63.136 29.717 68 34.089 68 39.5c0 5.408-4.864 9.78-10.882 9.78m6.336-9.846c0-4.154-2.807-7.509-6.277-7.509s-6.276 3.355-6.276 7.509c0 4.153 2.807 7.508 6.276 7.508 3.47 0 6.277-3.355 6.277-7.508"/></g><defs><clipPath id="a"><path fill="#fff" d="M12 29.717h56v19.567H12z"/></clipPath></defs></svg>