<svg xmlns="http://www.w3.org/2000/svg" width="80" height="80" fill="none" viewBox="0 0 80 80"><rect width="80" height="80" fill="#dc000f" rx="8"/><path fill="#d5b527" fill-rule="evenodd" d="M39.76 16.023c.334-.05.682-.022.98.12.49.22.895.654.994 1.186.07.433-.064.895-.34 1.236-.08.092-.178.17-.264.262 1.52.142 3.06.497 4.353 1.342.128.078.241.192.376.263 1.243.135 2.507.383 3.586 1.044.49.305.93.703 1.221 1.207a2.84 2.84 0 0 1 .39 1.569c.022.419-.099.838-.283 1.207-.263.54-.682.994-1.158 1.35a5.2 5.2 0 0 1-1.498.766c-.135.05-.284.078-.419.135.519.057 1.037.12 1.52.32.035.099.05.212.07.319q.171.959.363 1.917c-2.564-.327-5.14-.554-7.718-.604-.604-.042-1.207-.02-1.804-.028-.447.007-.894-.007-1.335.021-.958.007-1.91.071-2.861.114-.724.064-1.449.114-2.173.184-1.065.1-2.13.22-3.195.377-.05.007-.106.007-.156.007.17-.76.305-1.534.447-2.293.178-.093.384-.121.575-.164.348-.085.71-.113 1.058-.17a5.4 5.4 0 0 1-2.059-.966c-.618-.476-1.122-1.129-1.306-1.889-.078-.29-.05-.596-.057-.901a2.92 2.92 0 0 1 .83-1.86c.633-.654 1.485-1.037 2.344-1.286.66-.191 1.342-.305 2.023-.376.064-.035.121-.085.178-.12.866-.626 1.881-1.002 2.918-1.236a13 13 0 0 1 1.633-.249c-.263-.227-.49-.518-.568-.866a1.42 1.42 0 0 1 .15-1.122 1.85 1.85 0 0 1 1.185-.816m-3.323 5.133c-.547.398-1.015.916-1.257 1.548a2.7 2.7 0 0 0-.191.951c0 .746.326 1.47.837 2.003.497.546 1.158.923 1.846 1.178a6.3 6.3 0 0 0 1.612.334c-.483-.731-.653-1.619-.752-2.485a11 11 0 0 1-.029-1.86c.078-.91.234-1.84.682-2.649-.98.1-1.946.412-2.748.98m4.502-.973c.376.66.54 1.42.632 2.173.02.213.056.42.056.632-.007.511.008 1.023-.014 1.534-.05.412-.1.83-.199 1.242-.12.49-.29.98-.575 1.406.497-.021.98-.135 1.456-.284.681-.22 1.335-.575 1.853-1.08a3.14 3.14 0 0 0 .887-1.44c.121-.427.135-.88.022-1.307-.156-.674-.582-1.257-1.1-1.697-.846-.703-1.932-1.08-3.018-1.178m-8.705 1.818c-.54.249-1.023.66-1.286 1.207a2.6 2.6 0 0 0-.177 1.605 2.33 2.33 0 0 0 .86 1.37c.56.462 1.277.696 1.987.81.618.085 1.25.1 1.875 0a6.3 6.3 0 0 1-1.144-.597c-.624-.419-1.164-1-1.42-1.718-.355-1.023-.106-2.201.561-3.046a4.1 4.1 0 0 0-1.256.37m14.4-.37a3.38 3.38 0 0 1 .716 2.088 2.8 2.8 0 0 1-.54 1.683c-.177.263-.404.483-.631.696-.462.376-.987.66-1.534.895.177.056.37.028.547.056.411.036.823 0 1.235-.05.604-.091 1.214-.255 1.74-.581.511-.313.937-.789 1.122-1.364a2.6 2.6 0 0 0 .035-1.42 2.3 2.3 0 0 0-.902-1.313c-.518-.377-1.15-.604-1.789-.69m-6.447 9.719c.192 0 .405-.007.61 0 .668.014 1.335-.014 1.996.036 1.448.021 2.89.12 4.331.227 2.052.17 4.097.412 6.128.738.674 3.593 1.278 7.2 1.902 10.807.341 2.052.69 4.104 1.037 6.156.071.426.178.845.17 1.271-.007.22 0 .447-.014.667-.085.618-.284 1.229-.639 1.747-.376.554-.873 1.016-1.406 1.42-.965.71-1.952 1.385-2.932 2.074-3.21 2.215-6.426 4.402-9.65 6.596q-.66.449-1.32.887c-.1.064-.192-.028-.27-.078-2.293-1.505-4.565-3.025-6.845-4.544-2.137-1.434-4.281-2.861-6.39-4.331-.476-.341-.965-.668-1.399-1.065a5.1 5.1 0 0 1-.987-1.186 3.8 3.8 0 0 1-.504-2.052c-.028-.518.1-1.03.192-1.534 1.03-5.574 2.052-11.147 3.096-16.721.12-.035.241-.05.369-.064.689-.128 1.392-.227 2.087-.326l.015-.008a.6.6 0 0 0-.015.114c-.54 2.925-1.05 5.858-1.555 8.783q-.808 4.697-1.604 9.394c-.085.54.014 1.136.362 1.569.405.532.973.916 1.512 1.292.632.44 1.271.86 1.903 1.285 2.173 1.442 4.353 2.869 6.532 4.303 1.094.71 2.18 1.434 3.28 2.145.008-.064.022-.121.022-.178V32.907c-.007-.511.014-1.022-.007-1.54zm7.242 4.197c-.135.085-.12.284-.007.376-.227.035-.454.078-.653.199-.043.028-.085.064-.142.07-.185.022-.376.065-.533.171a.49.49 0 0 0-.22.412c-.007.199.15.362.32.454.1.071.227.078.34.128q0 .1.008.206c.199-.007.383-.057.582-.071.504-.028 1.008-.021 1.505.092.014-.092-.021-.248.107-.262.22-.043.447-.178.54-.398a.46.46 0 0 0-.171-.54 1.15 1.15 0 0 0-.554-.191c-.064-.007-.113-.05-.163-.078a1.5 1.5 0 0 0-.632-.185c.057-.078.106-.163.078-.256-.05-.163-.277-.248-.405-.127m2.102 2.13c.419.383.61.965.625 1.526.05.306-.007.618-.007.93-.05.469-.135.938-.22 1.4-.078.44-.164.88-.178 1.334.029.618.27 1.207.582 1.74.284.518.654.986.938 1.505.092.192.22.397.156.618-.05.12-.15.276-.306.255-.198.029-.347-.135-.468-.263-.277-.326-.49-.702-.682-1.079-.234-.532-.674-.937-1.08-1.349a33 33 0 0 0-.71-.696c-.02-.021-.063-.042-.042-.085.426-.355.703-.887.788-1.441.015-.064-.007-.142.05-.2.05.05.1.157.185.107.021-.191 0-.383.014-.575-.007.2.007.398-.007.597a.2.2 0 0 1-.064.014c.014.014.043.035.057.05.078.007.035-.086.042-.128-.02-.348.029-.696.043-1.044.057-.284-.021-.568-.05-.845q.15.008.299 0c-.036-.596-.121-1.235-.497-1.725-.25-.341-.66-.54-1.073-.59-.575-.063-1.143.057-1.69.192-.078.014-.085.107-.106.17.142.036.298-.014.426.05-.1.043-.213.064-.312.107-.05.021-.057.07-.064.113 0 .284.078.568.255.796.1-.114.128-.299.284-.37.078-.05.15.036.192.086.192.213.206.518.15.788-.03.135-.2.142-.306.106-.1-.035-.142-.12-.178-.206-.149.384-.078.88.235 1.165.014-.128.014-.27.099-.377.085-.113.234-.141.37-.141 0 .27-.114.553-.356.688-.241.128-.525.135-.788.213-.34.085-.639.305-.866.561-.355.383-.597.845-.916 1.257-.213.27-.476.54-.817.632.007.113.071.22.135.32.15.234.37.418.618.553-.007.1-.085.178-.135.263-.206.291-.419.582-.689.81-.064.063-.135.113-.227.113-.092-.114-.17-.27-.32-.32-.198-.02-.383.071-.575.114a2 2 0 0 0-.078.178c.071.028.15.028.213.063.008.107 0 .213-.007.313.157.042.32.05.476.1v.084a3 3 0 0 1-.327-.063c-.078.014-.163.014-.206.092-.127.191-.27.404-.241.646.057-.021.1-.064.15-.092.099-.007.12.113.127.184.035.014.085.078.128.022.128-.107.234-.228.362-.334.05-.029.07.042.07.078-.099.12-.212.227-.319.34-.02.03-.05.058-.042.093 0 .227-.064.455-.007.675.085-.057.149-.164.248-.2.078.022.142.086.227.1.249-.064.355-.334.476-.532a.9.9 0 0 0 .383.135c.015.07.022.135.036.206.007 0 .028.007.035.007a.65.65 0 0 0 .192-.455c0-.213-.035-.426-.007-.639.029-.177.15-.326.27-.454.071.028.142.07.22.092a.76.76 0 0 0 .483-.05c.113-.042.192-.156.234-.262-.17-.064-.355-.22-.305-.42a.36.36 0 0 1 .27-.27 1.07 1.07 0 0 1 .646.072c.639.27 1.044.852 1.52 1.328.035.241-.03.49-.022.738-.014.476-.035.959.107 1.42.092.327.333.597.376.937.028.164-.007.327.007.483.1-.035.22-.05.298-.128.071-.063.114-.149.163-.234.093 0 .192.007.284.021a1 1 0 0 1-.05.135c-.184.334-.361.675-.603.966-.128.156-.263.305-.44.39a.51.51 0 0 1-.504 0c-.185-.092-.348-.262-.568-.27-.128-.006-.192.121-.277.192-.071.078-.192.064-.284.086-.085.05-.142.149-.12.241.077 0 .155 0 .233.028.008.086.022.17.057.249.064-.007.093-.1.15-.142.07-.071.12-.192.234-.206a1 1 0 0 1-.071.114c-.142.149-.235.34-.341.518-.078.113-.05.263-.036.39.008.05-.007.121.057.142.036-.063.071-.134.114-.191.142-.064.156.12.255.163.1-.227.093-.476.164-.71l.064-.035a.5.5 0 0 1-.014.12c-.1.327-.15.682-.057 1.016 0 .05.042.078.078.113.042-.078.05-.192.149-.241.064-.05.156-.036.234-.036-.007-.078.05-.17-.007-.227h.029c0-.1-.008-.206.007-.312a.5.5 0 0 1 .106-.2c0 .015-.007.05-.007.072-.106.326-.071.688.014 1.022q.071.043.135.085c.029-.099.057-.206.078-.305.17-.035.348-.057.526-.092.064 0 .099-.064.142-.107.163-.213.198-.49.305-.724.057-.135.142-.284.284-.34.12-.043.199.063.27.141.078-.184.078-.39.12-.59.043-.34.256-.617.426-.908.185-.277.32-.59.363-.923.014-.248.02-.511-.079-.753-.092.135-.163.277-.262.412-.291.007-.497-.277-.547-.54-.07-.525-.007-1.1.313-1.533.07-.085.156-.192.276-.17.2.546.739.951 1.321 1.008a.99.99 0 0 0 .888-.398c.106-.163.191-.355.198-.554.05-.206-.02-.419-.113-.61-.114-.263-.284-.497-.426-.753.092-.433.298-.83.518-1.207-.34.12-.61.405-.788.71.014-.192.092-.37.163-.554.086-.248.235-.476.362-.703-.326.1-.553.37-.76.625.114-.447.292-.873.547-1.257-.035.008-.078.015-.113.036-.334.17-.583.454-.753.78-.227-.631-.149-1.313-.064-1.959.114-.909.277-1.81.519-2.69.106-.391.312-.775.653-1.002-.54-.085-1.037.454-.987.98-.007 0-.014.007-.022.007 0-.192-.063-.37-.127-.547a1.61 1.61 0 0 0-1.186-.965m-4.125 1.64c-.064.17-.064.376.056.511.121.12.306.12.455.064.256-.092.426-.312.646-.454a.8.8 0 0 1 .362-.128.5.5 0 0 0-.405-.022c-.22.086-.433.185-.667.228-.092.014-.213.02-.277-.064-.05-.142.007-.284.057-.42-.12.043-.185.171-.227.285m-1.79.29c.008.178-.127.32-.127.498.014.142.035.291.028.433-.142-.135-.078-.37-.22-.511a1.14 1.14 0 0 0-.561-.32c.043.192-.028.42.092.59.071.113.121.234.206.333q0 .071.007.15c-.014 0-.05.007-.07.007-.1-.121-.192-.242-.299-.355-.184-.086-.39 0-.575.056.092.1.185.192.256.313.191.284.39.603.362.958.007.235-.135.433-.313.575.093.128.256.121.39.135.065 0 .143.008.2-.035.092-.1.142-.234.234-.334a.1.1 0 0 0 .05.007c.262.306.497.632.745.945.227-.192.362-.455.525-.696.029-.05.079-.092.086-.156-.114-.462-.646-.668-.753-1.13-.064-.39.107-.78.014-1.17-.056-.122-.142-.25-.277-.292m2.691 6.15c-.241.085-.39.312-.553.497-.178.213-.426.404-.725.39a.9.9 0 0 0 .178.462.55.55 0 0 0 .312.156q.015.092.022.192c.02.461.206.916.525 1.256.028.043.114.1.057.15-.206.028-.42.028-.632.028-.17 0-.348.007-.497-.078-.277-.135-.405-.433-.632-.632a.71.71 0 0 0-.582-.163c.035.056.078.113.106.177.014.092-.042.178-.064.263.135.042.263.078.398.114v.113c-.199-.042-.419-.064-.604.036a.53.53 0 0 0-.241.312q.115 0 .22.007c.064.107.107.227.128.348.135-.135.248-.291.39-.426-.007.163-.092.305-.184.433-.128.17-.256.37-.234.597.092-.022.156-.086.24-.128q.094.113.2.213c.106-.135.113-.32.17-.476h.078c-.014.178-.092.348-.113.533-.043.177-.043.404.12.525q.043-.128.085-.263a.5.5 0 0 1 .235.022c.184.063.348-.093.44-.235a.5.5 0 0 1 .398-.248c.042.057.1.113.12.184.015.078.022.15.043.228.178-.071.277-.242.426-.341.263-.142.568-.142.852-.15.27-.013.49-.191.646-.397a3.8 3.8 0 0 1-.724-.959c-.128-.262-.241-.553-.192-.852.043-.127.078-.283.22-.333.157-.085.327.014.462.1a5 5 0 0 0 .035-.54c-.106-.185-.326-.277-.419-.476-.05-.107 0-.235-.028-.348-.014.106-.007.206-.014.305a1.3 1.3 0 0 1 .014-.333c-.192-.157-.426-.32-.682-.263" clip-rule="evenodd"/><path fill="#d5b527" d="M46.853 36.485a.72.72 0 0 1 .575-.276c-.05.184-.1.369-.078.56 0 .142.078.263.071.405-.199-.021-.397-.092-.525-.241-.12-.114-.128-.313-.043-.448m.881-.276a.71.71 0 0 1 .56.234c.1.1.114.263.065.39-.121.235-.405.327-.654.355.17-.298.178-.674.029-.98m-1.591.455c.057-.156.235-.234.384-.256-.036.107-.1.213-.085.327.007.156.127.27.248.348 0 .021 0 .07-.007.092-.163-.014-.348-.028-.462-.156-.106-.093-.099-.235-.078-.355m2.521-.256c.149.022.32.1.376.256.028.128.014.277-.092.362-.157.15-.39.142-.59.135.135-.085.306-.163.363-.327.063-.142 0-.29-.057-.426m-14.861.213c.362.008.717.008 1.08.008.006.312-.008.632 0 .951.276.007.553 0 .83.007a.3.3 0 0 0 .021-.113q-.002-.395.007-.788h1.016c.007.766.007 1.54 0 2.307h-4.885c0-.767-.008-1.54 0-2.307h1.015c.007.191.007.39.007.582 0 .106-.014.22.021.32.284-.008.575 0 .86-.008.056-.312.007-.639.028-.958m13.341 1.427c.22 0 .44-.029.654.014.035.021.099.014.092.064-.178.092-.377.142-.561.22a.6.6 0 0 1-.185.057z"/><path fill="#d5b527" fill-rule="evenodd" d="M32.674 39.382c1.093 0 2.187.007 3.28 0 .064.27.064.547.114.817l.951 7.668c.022.213.071.426.071.646-1.853-.007-3.699 0-5.552-.007.028-.426.113-.838.149-1.264.327-2.605.646-5.211.973-7.81a.14.14 0 0 1 .014-.05m.859 2.656c-.007.177-.028.362.021.54.505 0 1.016-.008 1.52 0 .042-.178.021-.363.021-.547-.007-.007-.028-.022-.035-.036a80 80 0 0 0-1.499 0c-.007.014-.02.029-.028.043m.021 1.782v.547h1.541c.014-.185 0-.362.007-.547a.25.25 0 0 0-.142-.028h-1.264a.25.25 0 0 0-.142.028m-.028 1.796c.014.185-.029.377.028.554h1.52c.05-.177.014-.369.028-.547a.25.25 0 0 0-.142-.035h-1.264c-.056 0-.113.014-.17.028" clip-rule="evenodd"/><path fill="#d5b527" d="M30.906 48.932h6.809c.007.774 0 1.54 0 2.308-.604.007-1.207 0-1.81.007-.015-.206.014-.405-.029-.604h-3.124c-.007.2 0 .398 0 .597-.618.007-1.229 0-1.846.007z"/></svg>