<svg width="80" height="80" viewBox="0 0 80 80" fill="none" xmlns="http://www.w3.org/2000/svg">
<rect width="80" height="80" rx="8" fill="#DC000F"/>
<path fill-rule="evenodd" clip-rule="evenodd" d="M39.76 16.0227C40.0937 15.973 40.4416 16.0014 40.7398 16.1434C41.2297 16.3635 41.6345 16.7966 41.7339 17.3291C41.8049 17.7623 41.67 18.2238 41.3931 18.5646C41.3149 18.6569 41.2155 18.735 41.1303 18.8273C42.6498 18.9693 44.1906 19.3243 45.4828 20.1693C45.6106 20.2474 45.7242 20.361 45.8592 20.432C47.1017 20.5669 48.3656 20.8154 49.4448 21.4757C49.9347 21.781 50.375 22.1787 50.6661 22.6828C50.943 23.1585 51.085 23.7052 51.0566 24.2519C51.0779 24.6709 50.9572 25.0898 50.7726 25.459C50.5099 25.9986 50.0909 26.453 49.6152 26.8081C49.1679 27.1418 48.6496 27.4045 48.1171 27.5749C47.9821 27.6246 47.833 27.653 47.6981 27.7098C48.2165 27.7666 48.7348 27.8305 49.2176 28.0293C49.2531 28.1287 49.2673 28.2423 49.2886 28.3488C49.4022 28.9879 49.5229 29.6269 49.6507 30.2659C47.0875 29.9393 44.5101 29.7121 41.9327 29.6624C41.3291 29.6198 40.7256 29.6411 40.1292 29.634C39.6819 29.6411 39.2346 29.6269 38.7943 29.6553C37.8358 29.6624 36.8843 29.7263 35.9329 29.7689C35.2087 29.8328 34.4844 29.8825 33.7602 29.9535C32.6952 30.0529 31.6301 30.1736 30.5651 30.3298C30.5154 30.3369 30.4586 30.3369 30.4089 30.3369C30.5793 29.5772 30.7142 28.8032 30.8562 28.0435C31.0337 27.9512 31.2396 27.9228 31.4313 27.8802C31.7792 27.795 32.1413 27.7666 32.4892 27.7098C31.7508 27.5323 31.0337 27.2128 30.4302 26.7442C29.8124 26.2684 29.3083 25.6152 29.1237 24.8555C29.0456 24.5644 29.074 24.259 29.0669 23.9537C29.1024 23.2579 29.4148 22.5905 29.8976 22.0935C30.5296 21.4402 31.3816 21.0568 32.2407 20.8083C32.9011 20.6166 33.5827 20.503 34.2643 20.432C34.3282 20.3965 34.385 20.3468 34.4418 20.3113C35.3081 19.6864 36.3234 19.3101 37.3601 19.0758C37.8997 18.9551 38.4464 18.877 38.9931 18.8273C38.7304 18.6001 38.5032 18.309 38.4251 17.9611C38.3186 17.5919 38.3683 17.1729 38.5742 16.8392C38.8369 16.4203 39.2772 16.1221 39.76 16.0227ZM36.437 21.1562C35.8903 21.5538 35.4217 22.0722 35.1803 22.7041C35.0525 23.0023 35.0028 23.3289 34.9886 23.6555C34.9886 24.4011 35.3152 25.1253 35.8264 25.6578C36.3234 26.2045 36.9838 26.5808 37.6725 26.8365C38.1908 27.014 38.7375 27.1347 39.2843 27.1702C38.8014 26.4388 38.631 25.5513 38.5316 24.6851C38.4677 24.0673 38.4606 23.4425 38.5032 22.8248C38.5813 21.9159 38.7375 20.9858 39.1849 20.1764C38.205 20.2758 37.2394 20.5882 36.437 21.1562ZM40.9386 20.1835C41.3149 20.8438 41.4783 21.6035 41.5706 22.3562C41.5919 22.5692 41.6274 22.7751 41.6274 22.9881C41.6203 23.4993 41.6345 24.0105 41.6132 24.5218C41.5635 24.9336 41.5138 25.3525 41.4144 25.7643C41.2936 26.2542 41.1232 26.7442 40.8392 27.1702C41.3362 27.1489 41.8191 27.0353 42.2948 26.8862C42.9764 26.6661 43.6297 26.311 44.148 25.8069C44.5598 25.4164 44.8864 24.9194 45.0355 24.3656C45.1562 23.9395 45.1704 23.4851 45.0568 23.0591C44.9006 22.3846 44.4746 21.8023 43.9563 21.3621C43.1113 20.6592 42.025 20.2829 40.9386 20.1835ZM32.2336 22.0011C31.694 22.2497 31.2112 22.6615 30.9485 23.2082C30.7213 23.7052 30.6574 24.2803 30.771 24.8129C30.8775 25.3596 31.197 25.8424 31.6301 26.1832C32.191 26.6448 32.9082 26.8791 33.6182 26.9927C34.2359 27.0779 34.8679 27.0921 35.4927 26.9927C35.0951 26.8294 34.7045 26.6376 34.3495 26.3962C33.7247 25.9773 33.1851 25.3951 32.9295 24.678C32.5745 23.6555 32.823 22.4769 33.4904 21.6319C33.0573 21.6816 32.6313 21.8165 32.2336 22.0011ZM46.6331 21.6319C47.0946 22.2284 47.3573 22.9668 47.3502 23.7194C47.3644 24.3229 47.1585 24.9123 46.8106 25.4022C46.6331 25.6649 46.4059 25.885 46.1787 26.098C45.7171 26.4743 45.1917 26.7584 44.645 26.9927C44.8225 27.0495 45.0142 27.0211 45.1917 27.0495C45.6035 27.085 46.0154 27.0495 46.4272 26.9998C47.0307 26.9075 47.6413 26.7442 48.1668 26.4175C48.678 26.1051 49.104 25.6294 49.2886 25.0543C49.4306 24.5928 49.4448 24.0957 49.3241 23.6342C49.1963 23.1017 48.8626 22.6402 48.4224 22.3207C47.904 21.9443 47.2721 21.7171 46.6331 21.6319Z" fill="#D5B527"/>
<path fill-rule="evenodd" clip-rule="evenodd" d="M40.186 31.3523C40.3777 31.3523 40.5907 31.3452 40.7966 31.3523C41.464 31.3665 42.1314 31.3381 42.7918 31.3878C44.2402 31.4091 45.6816 31.5085 47.123 31.615C49.175 31.7854 51.2199 32.0268 53.2505 32.3534C53.9251 35.9462 54.5286 39.5531 55.1534 43.1601C55.4942 45.2121 55.8422 47.2641 56.1901 49.3161C56.2611 49.7421 56.3676 50.161 56.3605 50.587C56.3534 50.8071 56.3605 51.0343 56.3463 51.2544C56.2611 51.8722 56.0623 52.4828 55.7073 53.0011C55.3309 53.5549 54.8339 54.0165 54.3014 54.4212C53.3357 55.1312 52.3488 55.8057 51.369 56.4945C48.1596 58.7098 44.9432 60.8967 41.7196 63.0907C41.2794 63.3889 40.8392 63.6871 40.399 63.9782C40.2996 64.0421 40.2073 63.9498 40.1292 63.9001C37.8357 62.3948 35.5636 60.8754 33.2844 59.3559C31.1472 57.9216 29.0029 56.4945 26.8942 55.0247C26.4184 54.6839 25.9285 54.3573 25.4954 53.9597C25.112 53.6118 24.7712 53.2212 24.5084 52.7739C24.1534 52.1491 23.9688 51.432 24.0043 50.7219C23.9759 50.2036 24.1037 49.6924 24.196 49.1883C25.2256 43.6145 26.248 38.0408 27.2918 32.467C27.4125 32.4315 27.5332 32.4173 27.661 32.4031C28.3497 32.2753 29.0526 32.1759 29.7485 32.0765L29.7627 32.0694C29.7556 32.0978 29.7485 32.1546 29.7485 32.183C29.2089 35.1083 28.6976 38.0408 28.1935 40.9661C27.6539 44.0973 27.1214 47.2286 26.5888 50.3598C26.5036 50.8994 26.603 51.4959 26.951 51.929C27.3557 52.4615 27.9237 52.8449 28.4633 53.2212C29.0953 53.6615 29.7343 54.0804 30.3662 54.5064C32.5389 55.9478 34.7187 57.3749 36.8985 58.8092C37.992 59.5192 39.0783 60.2434 40.1789 60.9535C40.186 60.8896 40.2002 60.8328 40.2002 60.776C40.2002 51.4888 40.2002 42.1992 40.2002 32.9072C40.1931 32.396 40.2144 31.8848 40.1931 31.3665L40.186 31.3523ZM47.4283 35.5486C47.2934 35.6338 47.3076 35.8326 47.4212 35.9249C47.194 35.9604 46.9668 36.003 46.768 36.1237C46.7253 36.1521 46.6827 36.1876 46.6259 36.1947C46.4413 36.216 46.2496 36.2586 46.0934 36.3651C45.9585 36.4574 45.8662 36.6136 45.8733 36.7769C45.8662 36.9757 46.0224 37.139 46.1928 37.2313C46.2922 37.3023 46.42 37.3094 46.5336 37.3591C46.5336 37.4254 46.536 37.494 46.5407 37.565C46.7395 37.5579 46.9242 37.5082 47.123 37.494C47.6271 37.4656 48.1312 37.4727 48.6282 37.5863C48.6424 37.494 48.6069 37.3378 48.7347 37.3236C48.9548 37.281 49.1821 37.1461 49.2744 36.926C49.3525 36.7343 49.2744 36.5071 49.104 36.3864C48.9477 36.2728 48.7489 36.216 48.5501 36.1947C48.4862 36.1876 48.4365 36.145 48.3868 36.1166C48.1951 36.003 47.975 35.9533 47.7549 35.932C47.8117 35.8539 47.8614 35.7687 47.833 35.6764C47.7833 35.5131 47.5561 35.4279 47.4283 35.5486ZM49.53 37.6787C49.9489 38.0621 50.1406 38.6443 50.1548 39.2052C50.2045 39.5105 50.1477 39.8229 50.1477 40.1354C50.098 40.604 50.0128 41.0726 49.9276 41.5341C49.8495 41.9743 49.7643 42.4146 49.7501 42.869C49.7785 43.4867 50.0199 44.076 50.3323 44.6086C50.6163 45.1269 50.9855 45.5955 51.2696 46.1138C51.3619 46.3055 51.4897 46.5114 51.4258 46.7316C51.3761 46.8523 51.2767 47.0085 51.1204 46.9872C50.9216 47.0156 50.7725 46.8523 50.6518 46.7245C50.3749 46.3978 50.1619 46.0215 49.9702 45.6452C49.7359 45.1127 49.2957 44.708 48.8909 44.2961C48.6566 44.0618 48.4223 43.8275 48.1809 43.6003C48.1596 43.579 48.117 43.5577 48.1383 43.5151C48.5643 43.1601 48.8412 42.6276 48.9264 42.0737C48.9406 42.0098 48.9193 41.9317 48.9762 41.8749C49.0259 41.9246 49.0756 42.0311 49.1608 41.9814C49.1821 41.7897 49.1608 41.598 49.175 41.4063C49.1679 41.6051 49.1821 41.8039 49.1679 42.0027C49.1537 42.0098 49.1182 42.0169 49.104 42.0169C49.1182 42.0311 49.1466 42.0524 49.1608 42.0666C49.2389 42.0737 49.1963 41.9814 49.2034 41.9388C49.1821 41.5909 49.2318 41.243 49.246 40.8951C49.3028 40.6111 49.2247 40.3271 49.1963 40.0502C49.2957 40.0549 49.3951 40.0549 49.4945 40.0502C49.459 39.4537 49.3738 38.8147 48.9975 38.3248C48.7489 37.984 48.3371 37.7852 47.9253 37.7355C47.3502 37.6716 46.7822 37.7923 46.2354 37.9272C46.1573 37.9414 46.1502 38.0337 46.1289 38.0976C46.2709 38.1331 46.4271 38.0834 46.5549 38.1473C46.4555 38.1899 46.3419 38.2112 46.2425 38.2538C46.1928 38.2751 46.1857 38.3248 46.1786 38.3674C46.1786 38.6514 46.2567 38.9354 46.4342 39.1626C46.5336 39.049 46.562 38.8644 46.7182 38.7934C46.7964 38.7437 46.8674 38.8289 46.91 38.8786C47.1017 39.0916 47.1159 39.3969 47.0591 39.6667C47.0307 39.8016 46.8603 39.8087 46.7537 39.7732C46.6543 39.7377 46.6117 39.6525 46.5762 39.5673C46.4271 39.9508 46.4981 40.4478 46.8106 40.7318C46.8248 40.604 46.8248 40.462 46.91 40.3555C46.9952 40.2419 47.1443 40.2135 47.2792 40.2135C47.2792 40.4833 47.1656 40.7673 46.9242 40.9022C46.6827 41.03 46.3987 41.0371 46.136 41.1152C45.7952 41.2004 45.497 41.4205 45.2698 41.6761C44.9148 42.0595 44.6734 42.5211 44.3538 42.9329C44.1408 43.2027 43.8781 43.4725 43.5373 43.5648C43.5444 43.6784 43.6083 43.7849 43.6722 43.8843C43.8213 44.1186 44.0414 44.3032 44.2899 44.4382C44.2828 44.5376 44.2047 44.6157 44.155 44.7009C43.9491 44.992 43.7361 45.2831 43.4663 45.5103C43.4024 45.5742 43.3314 45.6239 43.2391 45.6239C43.1468 45.5103 43.0687 45.3541 42.9196 45.3044C42.7208 45.2831 42.5362 45.3754 42.3444 45.418C42.316 45.4748 42.29 45.534 42.2663 45.5955C42.3373 45.6239 42.4155 45.6239 42.4794 45.6594C42.4865 45.7659 42.4794 45.8724 42.4723 45.9718C42.6285 46.0144 42.7918 46.0215 42.948 46.0712C42.948 46.0925 42.948 46.1351 42.948 46.1564C42.8415 46.1422 42.7279 46.1209 42.6214 46.0925C42.5433 46.1067 42.4581 46.1067 42.4155 46.1848C42.2876 46.3765 42.1456 46.5895 42.174 46.831C42.2308 46.8097 42.2734 46.7671 42.3231 46.7387C42.4226 46.7316 42.4439 46.8523 42.451 46.9233C42.4865 46.9375 42.5362 47.0014 42.5788 46.9446C42.7066 46.8381 42.8131 46.7174 42.9409 46.6108C42.9906 46.5824 43.0119 46.6534 43.0119 46.689C42.9125 46.8097 42.7989 46.9162 42.6924 47.0298C42.6711 47.0582 42.6427 47.0866 42.6498 47.1221C42.6498 47.3493 42.5859 47.5765 42.6427 47.7966C42.7279 47.7398 42.7918 47.6333 42.8912 47.5978C42.9693 47.6191 43.0332 47.683 43.1184 47.6972C43.3669 47.6333 43.4734 47.3635 43.5941 47.1647C43.7077 47.2428 43.8426 47.2783 43.9775 47.2996C43.9917 47.3706 43.9988 47.4345 44.013 47.5055C44.0201 47.5055 44.0414 47.5126 44.0485 47.5126C44.1692 47.3919 44.2402 47.2286 44.2402 47.0582C44.2402 46.8452 44.2047 46.6321 44.2331 46.4191C44.2615 46.2416 44.3822 46.0925 44.5029 45.9647C44.574 45.9931 44.645 46.0357 44.7231 46.057C44.8793 46.0996 45.0568 46.0712 45.2059 46.0073C45.3195 45.9647 45.3976 45.8511 45.4402 45.7446C45.2698 45.6807 45.0852 45.5245 45.1349 45.3257C45.1633 45.1979 45.2698 45.0843 45.4047 45.0559C45.6177 45.0133 45.852 45.0346 46.0508 45.1269C46.6898 45.3967 47.0946 45.9789 47.5703 46.4546C47.6058 46.696 47.5419 46.9446 47.549 47.1931C47.5348 47.6688 47.5135 48.1516 47.6555 48.6131C47.7478 48.9397 47.9892 49.2096 48.0318 49.5504C48.0602 49.7137 48.0247 49.877 48.0389 50.0332C48.1383 49.9977 48.259 49.9835 48.3371 49.9054C48.4081 49.8415 48.4507 49.7563 48.5004 49.6711C48.5927 49.6711 48.6921 49.6782 48.7844 49.6924C48.7702 49.7421 48.756 49.7847 48.7347 49.8273C48.5501 50.161 48.3726 50.5018 48.1312 50.7929C48.0034 50.9491 47.8685 51.0982 47.691 51.1834C47.5348 51.2686 47.336 51.2757 47.1869 51.1834C47.0023 51.0911 46.839 50.9207 46.6188 50.9136C46.491 50.9065 46.4271 51.0343 46.3419 51.1053C46.2709 51.1834 46.1502 51.1692 46.0579 51.1905C45.9727 51.2402 45.9159 51.3397 45.9372 51.432C46.0153 51.432 46.0934 51.432 46.1715 51.4604C46.1786 51.5456 46.1928 51.6308 46.2283 51.7089C46.2922 51.7018 46.3206 51.6095 46.3774 51.5669C46.4484 51.4959 46.4981 51.3752 46.6117 51.361C46.5928 51.3988 46.5691 51.4367 46.5407 51.4746C46.3987 51.6237 46.3064 51.8154 46.1999 51.9929C46.1218 52.1065 46.1502 52.2556 46.1644 52.3834C46.1715 52.4331 46.1573 52.5041 46.2212 52.5254C46.2567 52.4615 46.2922 52.3905 46.3348 52.3337C46.4768 52.2698 46.491 52.4544 46.5904 52.497C46.6898 52.2698 46.6827 52.0213 46.7537 51.787C46.768 51.7799 46.8035 51.7586 46.8177 51.7515C46.8177 51.7941 46.8129 51.8343 46.8035 51.8722C46.7041 52.1988 46.6543 52.5538 46.7466 52.8875C46.7466 52.9372 46.7893 52.9656 46.8248 53.0011C46.8674 52.923 46.8745 52.8094 46.9739 52.7597C47.0378 52.71 47.1301 52.7242 47.2082 52.7242C47.2011 52.6461 47.2579 52.5538 47.2011 52.497H47.2295C47.2295 52.3976 47.2224 52.2911 47.2366 52.1846C47.2508 52.1136 47.3005 52.0426 47.3431 51.9858C47.3431 52 47.336 52.0355 47.336 52.0568C47.2295 52.3834 47.265 52.7455 47.3502 53.0792C47.3975 53.1076 47.4425 53.136 47.4851 53.1644C47.5135 53.065 47.5419 52.9585 47.5632 52.8591C47.7336 52.8236 47.9111 52.8023 48.0886 52.7668C48.1525 52.7668 48.188 52.7029 48.2306 52.6603C48.3939 52.4473 48.4294 52.1704 48.5359 51.9361C48.5927 51.8012 48.6779 51.6521 48.8199 51.5953C48.9407 51.5527 49.0188 51.6592 49.0898 51.7373C49.1679 51.5527 49.1679 51.3468 49.2105 51.1479C49.2531 50.8071 49.4661 50.5302 49.6365 50.2391C49.8211 49.9622 49.956 49.6498 49.9986 49.3161C50.0128 49.0676 50.0199 48.8048 49.9205 48.5634C49.8282 48.6983 49.7572 48.8403 49.6578 48.9752C49.3667 48.9823 49.1608 48.6983 49.1111 48.4356C49.0401 47.9102 49.104 47.3351 49.4235 46.902C49.4945 46.8168 49.5797 46.7102 49.7004 46.7316C49.8992 47.2783 50.4388 47.683 51.021 47.7398C51.3548 47.7682 51.7098 47.6262 51.9086 47.3422C52.0151 47.1789 52.1003 46.9872 52.1074 46.7884C52.1571 46.5824 52.0861 46.3694 51.9938 46.1777C51.8802 45.915 51.7098 45.6807 51.5678 45.4251C51.6601 44.992 51.866 44.5944 52.0861 44.218C51.7453 44.3387 51.4755 44.6228 51.298 44.9281C51.3122 44.7364 51.3903 44.5589 51.4613 44.3742C51.5465 44.1257 51.6956 43.8985 51.8234 43.6713C51.4968 43.7707 51.2696 44.0405 51.0636 44.2961C51.1773 43.8488 51.3548 43.4228 51.6104 43.0394C51.5749 43.0465 51.5323 43.0536 51.4968 43.0749C51.163 43.2453 50.9145 43.5293 50.7441 43.8559C50.5169 43.224 50.595 42.5424 50.6802 41.8962C50.7938 40.9874 50.9571 40.0857 51.1986 39.2052C51.3051 38.8147 51.511 38.4313 51.8518 38.2041C51.3122 38.1189 50.8151 38.6585 50.8648 39.1839C50.8577 39.1839 50.8506 39.191 50.8435 39.191C50.8435 38.9993 50.7796 38.8218 50.7157 38.6443C50.5169 38.1544 50.0554 37.771 49.53 37.6787ZM45.4047 39.3188C45.3408 39.4892 45.3408 39.6951 45.4615 39.83C45.5822 39.9508 45.7668 39.9508 45.9159 39.894C46.1715 39.8016 46.3419 39.5815 46.562 39.4395C46.6685 39.3614 46.7964 39.333 46.9242 39.3117C46.7964 39.2478 46.6472 39.2407 46.5194 39.2904C46.2993 39.3756 46.0863 39.475 45.852 39.5176C45.7597 39.5318 45.639 39.5389 45.5751 39.4537C45.5254 39.3117 45.5822 39.1697 45.6319 39.0348C45.5112 39.0774 45.4473 39.2052 45.4047 39.3188ZM43.6154 39.6099C43.6225 39.7874 43.4876 39.9295 43.4876 40.107C43.5018 40.249 43.5231 40.3981 43.516 40.5401C43.374 40.4052 43.4379 40.1709 43.2959 40.0289C43.1468 39.8727 42.948 39.759 42.735 39.7093C42.7776 39.9011 42.7066 40.1283 42.8273 40.2987C42.8983 40.4123 42.948 40.533 43.0332 40.6324C43.0332 40.6797 43.0355 40.7294 43.0403 40.7815C43.0261 40.7815 42.9906 40.7886 42.9693 40.7886C42.8699 40.6679 42.7776 40.5472 42.6711 40.4336C42.4865 40.3484 42.2805 40.4336 42.0959 40.4904C42.1882 40.5898 42.2805 40.6821 42.3515 40.8028C42.5433 41.0868 42.7421 41.4063 42.7137 41.7613C42.7208 41.9956 42.5788 42.1945 42.4013 42.3365C42.4936 42.4643 42.6569 42.4572 42.7918 42.4714C42.8557 42.4714 42.9338 42.4785 42.9906 42.4359C43.0829 42.3365 43.1326 42.2016 43.2249 42.1021C43.2391 42.1092 43.2604 42.1092 43.2746 42.1092C43.5373 42.4146 43.7716 42.7412 44.0201 43.0536C44.2473 42.8619 44.3822 42.5992 44.5455 42.3578C44.5739 42.3081 44.6237 42.2655 44.6308 42.2016C44.5171 41.74 43.9846 41.5341 43.8781 41.0726C43.8142 40.6821 43.9846 40.2916 43.8923 39.9011C43.8355 39.7803 43.7503 39.6525 43.6154 39.6099ZM46.3064 45.7588C46.065 45.844 45.9159 46.0712 45.7526 46.2558C45.5751 46.4688 45.3266 46.6605 45.0284 46.6463C45.0497 46.8097 45.0994 46.9801 45.2059 47.1079C45.284 47.1931 45.3976 47.2428 45.5183 47.2641C45.5278 47.3256 45.5349 47.3895 45.5396 47.4558C45.5609 47.9173 45.7455 48.3717 46.065 48.7125C46.0934 48.7551 46.1786 48.8119 46.1218 48.8616C45.9159 48.89 45.7029 48.89 45.4899 48.89C45.3195 48.89 45.142 48.8971 44.9929 48.8119C44.716 48.677 44.5882 48.3788 44.3609 48.18C44.2047 48.0451 43.9917 47.9812 43.7787 48.0167C43.8142 48.0735 43.8568 48.1303 43.8852 48.1942C43.8994 48.2865 43.8426 48.3717 43.8213 48.4569C43.9562 48.4995 44.084 48.535 44.2189 48.5705C44.2189 48.6084 44.2189 48.6463 44.2189 48.6841C44.0201 48.6415 43.8 48.6202 43.6154 48.7196C43.4947 48.7835 43.4166 48.9042 43.374 49.0321C43.4497 49.0321 43.5231 49.0344 43.5941 49.0392C43.658 49.1457 43.7006 49.2664 43.7219 49.3871C43.8568 49.2522 43.9704 49.096 44.1124 48.9611C44.1053 49.1244 44.0201 49.2664 43.9278 49.3942C43.8 49.5646 43.6722 49.7634 43.6935 49.9906C43.7858 49.9693 43.8497 49.9054 43.9349 49.8628C43.9965 49.9385 44.0627 50.0095 44.1337 50.0758C44.2402 49.9409 44.2473 49.7563 44.3041 49.6001C44.3254 49.6001 44.3609 49.6001 44.3822 49.6001C44.368 49.7776 44.2899 49.948 44.2686 50.1326C44.226 50.3101 44.226 50.5373 44.3893 50.658C44.4177 50.5728 44.4461 50.4852 44.4745 50.3953C44.5526 50.3882 44.6308 50.3882 44.7089 50.4166C44.8935 50.4805 45.0568 50.3243 45.1491 50.1823C45.2343 50.0474 45.3763 49.9409 45.5467 49.9338C45.5893 49.9906 45.6461 50.0474 45.6674 50.1184C45.6816 50.1965 45.6887 50.2675 45.71 50.3456C45.8875 50.2746 45.9869 50.1042 46.136 50.0048C46.3987 49.8628 46.704 49.8628 46.9881 49.8557C47.2579 49.8415 47.478 49.664 47.6342 49.4581C47.3431 49.1812 47.1017 48.8545 46.91 48.4995C46.7822 48.2368 46.6685 47.9457 46.7182 47.6475C46.7609 47.5197 46.7964 47.3635 46.9384 47.3138C47.0946 47.2286 47.265 47.328 47.3999 47.4132C47.4212 47.2357 47.4354 47.0511 47.4354 46.8736C47.3289 46.6889 47.1088 46.5966 47.0165 46.3978C46.9668 46.2913 47.0165 46.1635 46.9881 46.0499C46.9739 46.1564 46.981 46.2558 46.9739 46.3552C46.9644 46.2416 46.9691 46.1304 46.9881 46.0215C46.7964 45.8653 46.562 45.702 46.3064 45.7588Z" fill="#D5B527"/>
<path d="M46.8532 36.4854C46.981 36.3079 47.2082 36.2085 47.4283 36.2085C47.3786 36.3931 47.3289 36.5777 47.3502 36.7694C47.3502 36.9114 47.4283 37.0321 47.4212 37.1741C47.2224 37.1528 47.0236 37.0818 46.8958 36.9327C46.7751 36.8191 46.768 36.6203 46.8532 36.4854Z" fill="#D5B527"/>
<path d="M47.7337 36.2085C47.9396 36.1943 48.1526 36.2866 48.2947 36.4428C48.3941 36.5422 48.4083 36.7055 48.3586 36.8333C48.2378 37.0676 47.9538 37.1599 47.7053 37.1883C47.8757 36.8901 47.8828 36.5138 47.7337 36.2085Z" fill="#D5B527"/>
<path d="M46.1433 36.6628C46.2001 36.5066 46.3777 36.4285 46.5269 36.4072C46.4913 36.5137 46.4274 36.6202 46.4416 36.7338C46.4487 36.89 46.5695 37.0037 46.6902 37.0818C46.6902 37.1031 46.6902 37.1528 46.6831 37.1741C46.5198 37.1599 46.3351 37.1457 46.2214 37.0179C46.1149 36.9255 46.122 36.7835 46.1433 36.6628Z" fill="#D5B527"/>
<path d="M48.6637 36.4072C48.8128 36.4285 48.9832 36.5066 49.04 36.6628C49.0684 36.7906 49.0542 36.9398 48.9477 37.025C48.7915 37.1741 48.5572 37.167 48.3584 37.1599C48.4933 37.0747 48.6637 36.9966 48.7205 36.8332C48.7844 36.6912 48.7205 36.5421 48.6637 36.4072Z" fill="#D5B527"/>
<path d="M33.8029 36.6206C34.165 36.6277 34.52 36.6277 34.8821 36.6277C34.8892 36.9401 34.875 37.2596 34.8821 37.5791C35.159 37.5862 35.4359 37.5791 35.7128 37.5862C35.727 37.5484 35.7341 37.5105 35.7341 37.4726C35.7341 37.2099 35.7341 36.9472 35.7412 36.6845C36.075 36.6845 36.4158 36.6845 36.7566 36.6845C36.7637 37.4513 36.7637 38.2253 36.7566 38.9921C35.1235 38.9921 33.4975 38.9921 31.8716 38.9921C31.8716 38.2253 31.8645 37.4513 31.8716 36.6845C32.2124 36.6845 32.5461 36.6845 32.8869 36.6845C32.894 36.8762 32.894 37.075 32.894 37.2667C32.894 37.3732 32.8798 37.4868 32.9153 37.5862C33.1993 37.5791 33.4904 37.5862 33.7744 37.5791C33.8313 37.2667 33.7816 36.9401 33.8029 36.6206Z" fill="#D5B527"/>
<path d="M47.1443 38.0478C47.3644 38.0478 47.5845 38.0194 47.7975 38.062C47.833 38.0833 47.8969 38.0762 47.8898 38.126C47.7123 38.2183 47.5135 38.268 47.3289 38.3461C47.2721 38.3745 47.2106 38.3934 47.1443 38.4029C47.1443 38.2845 47.1443 38.1662 47.1443 38.0478Z" fill="#D5B527"/>
<path fill-rule="evenodd" clip-rule="evenodd" d="M32.6739 39.3823C33.7673 39.3823 34.8608 39.3894 35.9542 39.3823C36.0181 39.6521 36.0181 39.929 36.0678 40.1989C36.385 42.755 36.7021 45.3111 37.0193 47.8672C37.0406 48.0802 37.0903 48.2932 37.0903 48.5133C35.2371 48.5062 33.391 48.5133 31.5378 48.5062C31.5662 48.0802 31.6514 47.6684 31.6869 47.2424C32.0136 44.6366 32.3331 42.0307 32.6597 39.432C32.6597 39.4178 32.6668 39.3965 32.6739 39.3823ZM33.533 42.0378C33.5259 42.2153 33.5046 42.4 33.5543 42.5775C34.0585 42.5775 34.5697 42.5704 35.0738 42.5775C35.1164 42.4 35.0951 42.2153 35.0951 42.0307C35.088 42.0236 35.0667 42.0094 35.0596 41.9952C34.5626 41.9905 34.0632 41.9905 33.5614 41.9952C33.5543 42.0094 33.5401 42.0236 33.533 42.0378ZM33.5543 43.82C33.5543 44.0046 33.5543 44.1821 33.5543 44.3667C34.0703 44.3667 34.5839 44.3667 35.0951 44.3667C35.1093 44.1821 35.0951 44.0046 35.1022 43.82C35.0596 43.7987 35.0099 43.7845 34.9602 43.7916C34.5389 43.7916 34.1176 43.7916 33.6963 43.7916C33.6466 43.7845 33.5969 43.7987 33.5543 43.82ZM33.5259 45.6164C33.5401 45.801 33.4975 45.9927 33.5543 46.1702C34.0585 46.1702 34.5697 46.1702 35.0738 46.1702C35.1235 45.9927 35.088 45.801 35.1022 45.6235C35.0596 45.5951 35.0099 45.588 34.9602 45.588C34.5389 45.588 34.1176 45.588 33.6963 45.588C33.6395 45.588 33.5827 45.6022 33.5259 45.6164Z" fill="#D5B527"/>
<path d="M30.9058 48.9321C33.1779 48.9321 35.4429 48.9321 37.715 48.9321C37.7221 49.7061 37.715 50.4729 37.715 51.2397C37.1114 51.2468 36.5079 51.2397 35.9044 51.2468C35.8902 51.0409 35.9186 50.8421 35.876 50.6433C34.8322 50.6433 33.7956 50.6433 32.7518 50.6433C32.7447 50.8421 32.7518 51.0409 32.7518 51.2397C32.1341 51.2468 31.5235 51.2397 30.9058 51.2468C30.9058 50.4753 30.9058 49.7037 30.9058 48.9321Z" fill="#D5B527"/>
</svg>
