<svg xmlns="http://www.w3.org/2000/svg" width="80" height="80" fill="none" viewBox="0 0 80 80"><rect width="80" height="80" fill="#ff0201" rx="8"/><path fill="#fff" d="M39.987 20h14.707c1.104 0 2.128.242 3.043.862 1.455.997 2.21 2.397 2.21 4.175v10.397c0 1.186-.755 2.155-1.886 2.452-.216.053-.458.08-.674.08H51.22c-.135 0-.323.081-.431-.107-.108-.189.108-.27.188-.378.324-.43.458-.915.485-1.427 0-1.562.054-3.098 0-4.66-.027-1.4-1.239-2.667-2.612-2.855-.27-.027-.54-.054-.809-.054H29.508c-.673.027-1.05.404-1.05 1.077v21.091c.027.512.404.862.916.89h18.882c1.643 0 2.909-1.051 3.205-2.64.027-.162.027-.324.027-.459v-4.282c0-.297-.027-.593-.108-.89-.08-.322-.215-.619-.484-.834-.081-.081-.135-.162-.108-.27.027-.107.135-.134.242-.134h6.411c1.104 0 2.02.7 2.37 1.724.081.269.135.511.135.808v10.478c0 2.451-1.885 4.579-4.337 4.902-.296.027-.565.054-.861.054h-29.63c-2.56 0-4.606-1.697-5.064-4.202-.054-.323-.054-.647-.054-.97v-29.63c0-2.504 1.697-4.632 4.148-5.09.404-.081.781-.081 1.185-.081h14.68z"/><path fill="#fff" d="M32.31 39.926v-6.841c0-.458.35-.809.808-.862h12.337c.62 0 1.185.188 1.616.646.377.377.592.835.592 1.374v1.67c-.027 1.024-.835 1.859-1.858 1.966H38.37c-.43 0-.377 0-.377.35v3.26c0 .511-.054.43.431.43h7.111a2.12 2.12 0 0 1 2.155 2.129v1.454c0 1.185-.915 2.074-2.1 2.074H33.305q-.97 0-.97-.97V39.9z"/></svg>