<svg width="80" height="80" viewBox="0 0 80 80" fill="none" xmlns="http://www.w3.org/2000/svg">
<rect x="0.5" y="0.5" width="79" height="79" rx="7.5" fill="white"/>
<rect x="0.5" y="0.5" width="79" height="79" rx="7.5" stroke="#EEEEEE"/>
<path d="M9.23777 57.2176C9.17726 57.1148 9.20751 57 9.20751 56.8912C9.20751 43.6058 9.19541 30.3264 9.20751 17.041C9.20751 14.6232 10.7262 12.7253 13.098 12.1753C13.6002 12.0604 14.1266 12 14.653 12C31.7093 12.006 48.7656 12 65.822 12.0181C67.9215 12.0181 69.5309 12.9731 70.5051 14.8771C70.6987 15.2579 70.7894 15.681 70.8802 16.1101C71.0133 16.7206 70.9589 17.3311 70.9589 17.9355C70.9649 30.9852 70.9589 44.041 70.9589 57.0906C70.9589 57.2297 70.9528 57.3747 70.9468 57.5137C70.8741 57.6165 70.7713 57.6769 70.6745 57.7495C70.0513 58.1907 69.3857 58.5896 68.7141 58.9342C68.2059 59.1941 67.74 59.5869 67.1349 59.6534C67.0865 59.6534 67.0321 59.6716 66.9958 59.7018C66.5117 60.0886 65.9188 60.27 65.35 60.4452C64.6119 60.6689 63.9161 61.0255 63.1598 61.1887C62.6515 61.3035 62.1433 61.4426 61.635 61.5513C60.794 61.7387 59.9591 61.9745 59.1059 62.1316C58.4464 62.2525 57.7869 62.4096 57.1214 62.5003C56.9157 62.5305 56.7825 62.7179 56.5768 62.7421C56.3651 62.6756 56.2682 62.4943 56.1593 62.325C55.7842 61.7387 55.6935 61.0739 55.6935 60.409C55.6753 55.2532 55.6814 50.0974 55.6874 44.9416C55.6874 44.5245 55.7479 44.4943 56.1775 44.4217C57.2424 44.2525 58.3133 44.2223 59.3661 44.3915C60.7638 44.6152 61.9678 45.2317 62.4761 46.6581C62.9904 48.1027 62.8754 49.5111 62.0283 50.8287C61.2297 52.0739 60.0559 52.7871 58.6703 53.1921C58.2286 53.319 57.7809 53.4096 57.321 53.4761C57.8656 53.6998 58.4343 53.7723 58.997 53.7904C60.9997 53.8569 62.8209 53.3129 64.3457 52.0013C65.5921 50.9254 66.2818 49.5171 66.3242 47.8428C66.3605 46.5373 66.0035 45.3526 65.1443 44.3492C64.7268 43.8596 64.1763 43.5272 63.6257 43.2129C62.5003 42.554 61.266 42.2277 59.9712 42.137C57.9503 41.9919 55.9234 42.1068 53.8965 42.0765C53.0615 42.0645 52.2205 42.0765 51.3855 42.0765C51.3371 42.0765 51.2826 42.0584 51.2463 42.1007C51.2403 42.1189 51.2403 42.143 51.2584 42.1551C52.0148 42.6689 52.287 43.4244 52.408 44.2888C52.5048 45.008 52.5351 45.7334 52.5351 46.4587C52.5351 50.5265 52.5472 54.5943 52.523 58.6682C52.523 59.6595 52.4867 60.6628 52.3354 61.6481C52.2447 62.2465 51.9724 62.7542 51.5368 63.1712C51.4279 63.28 51.3068 63.3707 51.1495 63.3949C50.3932 63.2921 49.6309 63.4493 48.8745 63.419C48.5055 63.419 48.1364 63.3707 47.7734 63.4553C47.4648 63.5037 47.1562 63.5702 46.8537 63.6306C46.4907 63.7092 46.1276 63.6004 45.7706 63.6064C45.2382 63.6185 44.7058 63.6729 44.1733 63.6608C43.7619 63.6548 43.3504 63.5762 42.939 63.5883C42.8483 63.5883 42.7575 63.5762 42.697 63.4916C42.7938 63.2861 43.0056 63.3284 43.1689 63.3103C44.1491 63.1773 45.0809 62.9113 45.9582 62.452C47.1865 61.8052 48.209 60.9288 48.929 59.732C49.407 58.9281 49.6672 58.0456 49.7216 57.0967C49.7942 55.7972 49.5159 54.6064 48.693 53.591C47.8036 52.4909 46.6782 51.7172 45.2927 51.3425C45.1656 51.3062 45.0385 51.276 44.9175 51.2337C44.7965 51.1914 44.6392 51.1733 44.6271 51.0101C44.6211 50.865 44.7602 50.8227 44.8631 50.7683C45.2866 50.5567 45.7041 50.327 46.0611 50.0127C46.5996 49.5292 47.126 49.0396 47.3861 48.3264C47.9367 46.8092 47.7552 45.4251 46.7629 44.1497C46.2002 43.4244 45.4197 43.0315 44.5969 42.7172C43.6227 42.3425 42.6002 42.1853 41.5534 42.143C38.8912 42.0282 36.2351 42.1249 33.5729 42.0886C33.5305 42.0886 33.4942 42.0886 33.4518 42.1128C33.4155 42.1733 33.476 42.1974 33.5123 42.2277C34.3231 42.7958 34.6135 43.6178 34.6256 44.5547C34.6438 45.7938 34.6256 47.0329 34.6256 48.272C34.6256 52.5514 34.6256 56.8307 34.6256 61.1101C34.6256 61.8113 34.4139 62.4338 33.9843 62.9899C33.7665 63.2679 33.4579 63.419 33.1856 63.6245C32.9678 63.691 32.7439 63.6669 32.5261 63.6669C31.9332 63.6608 31.3463 63.6669 30.7533 63.6669C29.9123 63.685 29.0713 63.6487 28.2363 63.5158C27.6434 63.4251 27.0383 63.4432 26.4393 63.3646C26.0823 63.3163 25.7254 63.2377 25.3744 63.1773C25.1869 63.1471 25.0235 63.0806 24.963 62.8751C24.969 62.6998 25.1264 62.6877 25.2413 62.6454C25.9432 62.3794 26.6148 62.0591 27.2501 61.6662C28.8535 60.6628 30.1301 59.3573 31.0256 57.6769C31.7214 56.3835 32.0118 54.9812 32.1631 53.5426C32.3688 51.5843 32.0421 49.7105 31.2495 47.9154C30.9106 47.1417 30.4326 46.4647 29.876 45.8301C28.2968 44.0289 26.2578 43.0436 23.9647 42.5238C22.8937 42.276 21.8046 42.1793 20.7035 42.137C17.9928 42.0403 15.2822 42.1249 12.5716 42.0886C12.5292 42.0886 12.4929 42.0886 12.4506 42.1068C12.4264 42.1793 12.4929 42.1914 12.5292 42.2035C13.0314 42.4332 13.2976 42.8563 13.4308 43.3519C13.5941 43.9624 13.7091 44.5849 13.7091 45.2256C13.697 49.3418 13.7091 53.464 13.697 57.5802C13.697 58.2512 13.6667 58.9281 13.6062 59.599C13.5034 59.7562 13.3582 59.6957 13.225 59.6655C12.7773 59.5628 12.3901 59.3331 12.0028 59.1034C11.4099 58.7528 10.8351 58.372 10.2361 58.0336C9.90332 57.8462 9.64315 57.5561 9.32247 57.3505C9.28617 57.3203 9.26197 57.2841 9.24382 57.2417L9.23777 57.2176Z" fill="#0C08CC"/>
<path d="M25.0115 62.8206C25.1325 63.1712 25.4653 63.0624 25.7013 63.1228C26.5967 63.3404 27.5285 63.3041 28.4361 63.4371C29.1985 63.5459 29.9608 63.5459 30.7292 63.5701C31.3343 63.6064 31.9393 63.6064 32.5504 63.5701C32.7622 63.558 32.98 63.552 33.1918 63.5399C33.5548 63.4069 33.9299 63.4613 34.3051 63.4855C34.4321 63.5217 34.5592 63.5338 34.6923 63.5338C36.695 63.5338 38.6917 63.5338 40.6944 63.5338C40.8154 63.5338 40.9364 63.5338 41.0514 63.4976C41.5354 63.4432 42.0255 63.4976 42.5035 63.3948C42.57 63.3827 42.6427 63.3888 42.685 63.4673C43.5986 63.5157 44.5062 63.6366 45.4259 63.5096C45.7405 63.4673 46.0612 63.5278 46.3758 63.558C46.8598 63.6064 47.3136 63.4008 47.7856 63.3646C48.1547 63.3162 48.5237 63.3888 48.8928 63.3283C49.3526 63.3041 49.8064 63.28 50.2663 63.2618C50.5749 63.2437 50.8834 63.2679 51.1859 63.3344C51.1678 63.4432 51.2102 63.4976 51.3251 63.4915C51.4703 63.4915 51.6155 63.4915 51.7607 63.5278C52.8619 63.558 53.9571 63.5338 55.0583 63.5399C55.6815 63.5399 56.3047 63.552 56.9339 63.5399C57.0368 63.5036 57.1517 63.5157 57.2727 63.4673C57.1699 63.3283 57.0247 63.2739 56.9158 63.1833C56.7827 63.0684 56.6132 62.9777 56.6374 62.7601C56.7887 62.4277 57.1275 62.4217 57.4059 62.3794C58.5918 62.2041 59.7474 61.9019 60.9151 61.648C61.7199 61.4727 62.5064 61.2007 63.3293 61.098C63.3958 61.0919 63.4685 61.0738 63.535 61.0496C64.4728 60.6265 65.5075 60.4452 66.415 59.9616C66.9112 59.6957 67.4315 59.5264 67.9337 59.2847C68.9865 58.7709 69.9425 58.1 70.965 57.5379C70.965 57.6104 70.9771 57.6769 70.9832 57.7494C70.9832 59.5204 71.0013 61.2914 70.9832 63.0684C70.9711 64.3256 70.5354 65.4197 69.6823 66.3747C68.8957 67.2571 67.9095 67.7225 66.7902 67.9824C66.6631 68.0127 66.53 67.9945 66.3969 67.9945C52.8377 67.9945 39.2786 67.9945 25.7194 67.9945C20.3647 67.9945 15.0161 67.9945 9.66141 67.9945C9.25603 67.9945 9.25603 67.9945 9.24998 67.6017C9.24998 67.4626 9.24998 67.3236 9.26208 67.1786C9.20763 66.695 9.25603 66.2054 9.23788 65.7158C9.23788 65.5889 9.26208 65.4559 9.21973 65.329C9.21973 64.1624 9.21973 62.9898 9.21973 61.8233C9.26813 61.5332 9.23788 61.243 9.23788 60.9529C9.23788 59.8226 9.23788 58.6863 9.24393 57.556C9.24393 57.4653 9.15922 57.3323 9.32864 57.29C9.5646 57.3988 9.73402 57.6104 9.94579 57.7373C10.8776 58.2994 11.767 58.9281 12.7472 59.4116C13.0073 59.5385 13.2796 59.605 13.564 59.6413C13.7273 59.9193 13.6426 60.2276 13.6366 60.5177C13.6366 60.7776 13.5882 61.0315 13.564 61.2914C13.4974 62.0651 13.1465 62.6997 12.5959 63.2377C12.5293 63.3041 12.3236 63.3767 12.5233 63.5217C12.6322 63.552 12.7472 63.5399 12.8561 63.5399C15.5425 63.5399 18.235 63.5399 20.9214 63.5399C21.0545 63.5399 21.1816 63.552 21.3086 63.5096C21.8895 63.4008 22.4824 63.3525 23.0693 63.2377C23.5896 63.1349 24.116 63.0261 24.6182 62.8448C24.7453 62.7964 24.8845 62.736 25.0236 62.8266L25.0115 62.8206Z" fill="#E9222E"/>
<path d="M9.31638 57.2659C9.20747 57.3627 9.25587 57.4896 9.25587 57.6044C9.25587 58.8979 9.25587 60.1853 9.25587 61.4788C9.25587 61.5876 9.29217 61.7025 9.20747 61.7992C9.20747 60.3183 9.20142 58.8435 9.20142 57.3627C9.20142 57.3143 9.22562 57.2659 9.24377 57.2236C9.26797 57.2418 9.29822 57.2539 9.32243 57.272L9.31638 57.2659Z" fill="#EA2F3A"/>
<path d="M9.20753 65.3052C9.31644 65.6074 9.24383 65.9156 9.25593 66.2239C9.26803 66.5322 9.25593 66.8404 9.25593 67.1547C9.17123 66.5443 9.20753 65.9277 9.21358 65.3112L9.20753 65.3052Z" fill="#EA2F3A"/>
<path d="M62.4821 39.0121C61.2539 39.0121 60.0256 39.0121 58.7913 39.0121C58.5614 39.0121 58.392 38.9456 58.2286 38.7824C57.3271 37.8576 56.4135 36.951 55.518 36.0262C55.3486 35.8509 55.2578 35.857 55.0884 36.0262C54.1808 36.9449 53.2612 37.8456 52.3475 38.7582C52.1842 38.9214 52.0208 38.994 51.7909 38.994C49.2799 38.994 46.769 39 44.2641 39.0121C44.0584 39.0121 44.0039 38.9637 44.01 38.7341C44.0342 37.912 44.0221 37.084 44.0221 36.2559C44.0221 34.5937 44.01 32.9315 44.0039 31.2754C44.0039 31.1001 44.1007 30.9732 44.2157 30.8583C45.1232 29.9577 46.0248 29.0511 46.9323 28.1444C47.1623 27.9147 47.1663 27.6871 46.9444 27.4614C46.0308 26.5487 45.1232 25.636 44.2096 24.7294C44.0826 24.6085 44.0342 24.4816 44.0342 24.3063C44.0342 21.9006 44.0342 19.495 44.0342 17.0893C44.0342 16.7186 44.2177 16.5333 44.5848 16.5333C46.9626 16.5333 49.3404 16.5272 51.7183 16.5151C51.9724 16.5151 52.1539 16.5877 52.3294 16.769C53.237 17.6877 54.1566 18.5883 55.0582 19.5131C55.2699 19.7307 55.3909 19.7005 55.5785 19.501C56.474 18.5702 57.3815 17.6575 58.277 16.7327C58.4041 16.5998 58.5372 16.5454 58.7248 16.5454C61.2357 16.5454 63.7467 16.5454 66.2516 16.5333C66.4633 16.5333 66.5238 16.5937 66.5238 16.7992C66.5783 19.3378 66.5359 21.8765 66.548 24.409C66.548 24.5541 66.4754 24.6266 66.3907 24.7112C65.4711 25.63 64.5514 26.5487 63.6317 27.4674C63.3292 27.7697 63.3292 27.7636 63.6317 28.0779C64.5453 28.9967 65.4892 29.8973 66.3665 30.8583C66.4875 30.9913 66.542 31.1303 66.542 31.3116C66.542 33.7475 66.542 36.1834 66.548 38.6192C66.548 38.9154 66.4815 39.0181 66.1608 39.0121C64.9326 38.994 63.7043 39.0061 62.47 39.0061L62.4821 39.0121Z" fill="#F5F5F6"/>
<path d="M12.4022 63.558C12.1663 63.5338 12.2631 63.4311 12.3599 63.3404C12.7108 63.0261 13.0012 62.6695 13.219 62.2524C13.3824 61.9381 13.455 61.5996 13.4792 61.2611C13.5276 60.7172 13.6365 60.1732 13.5518 59.6231C13.57 58.1241 13.5942 56.6251 13.6002 55.1262C13.6123 51.7111 13.6244 48.3021 13.6002 44.8871C13.6002 44.1376 13.4732 43.3881 13.0436 42.7232C12.8742 42.4633 12.62 42.3303 12.3659 42.1913C12.2994 42.155 12.1844 42.143 12.2086 42.0402C12.2328 41.9435 12.3417 41.9737 12.4204 41.9737C13.5216 41.9737 14.6167 41.9737 15.7179 41.9737C17.5996 41.9737 19.4874 41.9435 21.3691 42.0402C23.6138 42.155 25.7678 42.6869 27.6858 43.8595C29.9426 45.2376 31.431 47.2323 32.0058 49.8555C32.3749 51.5237 32.3628 53.1738 32.0603 54.8542C31.7457 56.6191 30.9833 58.1483 29.8761 59.5204C29.4344 60.0704 28.8838 60.5116 28.3392 60.971C27.3469 61.8051 26.1853 62.3189 25.0115 62.8145C24.4548 62.9536 23.9224 63.153 23.3536 63.2558C22.6881 63.3767 22.0225 63.4673 21.357 63.558C21.2783 63.5882 21.1996 63.5761 21.121 63.5761C18.2954 63.5761 15.4698 63.5761 12.6382 63.5761C12.5595 63.5761 12.4748 63.5942 12.4022 63.5519V63.558Z" fill="#F5F5F6"/>
<path d="M42.6788 63.4556C42.1464 63.5342 41.6139 63.5523 41.0815 63.5644C38.8186 63.5947 36.5618 63.5947 34.2989 63.5644C33.9298 63.5523 33.5607 63.5463 33.1917 63.5342C33.234 63.4496 33.3066 63.3952 33.3853 63.3468C34.2142 62.8391 34.5409 62.0534 34.547 61.1286C34.5591 56.9096 34.5591 52.6907 34.5651 48.4718C34.5651 47.2025 34.5772 45.9332 34.553 44.6638C34.5409 43.8902 34.4199 43.1346 33.8088 42.5604C33.6636 42.4214 33.5244 42.2763 33.3429 42.1857C33.2824 42.1554 33.1977 42.1252 33.2098 42.0406C33.234 41.9197 33.3429 41.9741 33.4095 41.9741C34.6075 41.9741 35.8055 41.962 37.0095 41.9741C38.631 41.9802 40.2586 41.9258 41.8741 42.0406C43.3081 42.1373 44.6694 42.4698 45.9098 43.2374C46.9989 43.9143 48.0577 45.6249 47.731 47.4201C47.4345 49.052 46.3938 50.0131 45.0385 50.7565C44.8994 50.8291 44.6513 50.8532 44.6694 51.0104C44.6876 51.1615 44.9357 51.1313 45.0809 51.1675C46.4725 51.5362 47.6584 52.2374 48.6083 53.3254C49.5159 54.365 49.9031 55.592 49.8245 56.952C49.6429 59.9862 47.8157 61.7572 45.1837 62.8875C44.3911 63.226 43.538 63.3348 42.6909 63.4617L42.6788 63.4556Z" fill="#F5F5F6"/>
<path d="M56.6314 62.7364C56.704 62.9479 56.8794 63.0628 57.0549 63.1776C57.1759 63.2622 57.309 63.3287 57.3816 63.4738C57.2909 63.5826 57.1578 63.5342 57.0489 63.5644C56.831 63.6068 56.6072 63.5826 56.3893 63.5826C54.9251 63.5826 53.4549 63.5826 51.9906 63.5826C51.8817 63.5826 51.7668 63.6007 51.6639 63.5644C51.4461 63.5524 51.2343 63.5463 51.0286 63.5342C51.0044 63.3771 51.1557 63.4073 51.1859 63.3227C51.8333 62.8996 52.1601 62.2891 52.275 61.5335C52.4868 60.1736 52.4202 58.8015 52.4202 57.4355C52.4263 53.41 52.4263 49.3784 52.4202 45.3529C52.4202 44.7001 52.3053 44.0473 52.1419 43.4187C51.9967 42.8626 51.6216 42.4758 51.1436 42.1796C51.0831 42.1434 50.9621 42.1252 51.0044 42.0225C51.0407 41.9318 51.1375 41.9802 51.2162 41.9802C52.3234 41.9862 53.4367 41.9802 54.5439 41.9862C56.1897 41.9862 57.8294 41.9681 59.4751 42.0164C61.139 42.0648 62.7242 42.4577 64.1279 43.4066C66.179 44.8029 66.9838 47.3173 66.1306 49.5537C65.4409 51.3549 64.1945 52.5698 62.4156 53.283C60.782 53.9419 59.1181 54.0567 57.4119 53.6336C57.2848 53.6034 57.1215 53.6094 57.0368 53.41C57.3332 53.3677 57.6116 53.3374 57.8899 53.283C59.4449 52.9808 60.8183 52.3583 61.7924 51.0346C62.7787 49.6927 62.9239 48.224 62.4035 46.6826C62.0284 45.5826 61.1511 44.9963 60.0923 44.6397C59.6143 44.4765 59.1181 44.3979 58.6099 44.3979C57.7326 44.3979 56.8613 44.3737 55.99 44.5127C55.8327 44.5369 55.754 44.5974 55.7601 44.7606C55.7601 44.821 55.7601 44.8814 55.7601 44.9419C55.7601 50.0372 55.7601 55.1326 55.7722 60.228C55.7722 60.9291 55.8327 61.6363 56.226 62.2589C56.3349 62.4342 56.4378 62.6215 56.6314 62.7364Z" fill="#F5F5F6"/>
<path d="M32.5502 63.564C31.9452 63.6425 31.3401 63.6425 30.729 63.564C31.3341 63.564 31.9391 63.564 32.5502 63.564Z" fill="#C53B65"/>
<path d="M48.8865 63.3221C48.5235 63.4309 48.1484 63.3524 47.7793 63.3584C48.1484 63.2617 48.5175 63.3403 48.8865 63.3221Z" fill="#993989"/>
<path d="M12.4021 63.5578C15.385 63.5578 18.3739 63.5578 21.3568 63.5578C21.2782 63.6243 21.1814 63.6001 21.0967 63.6001C18.3255 63.6001 15.5544 63.6001 12.7833 63.6001C12.6562 63.6001 12.5231 63.6364 12.4021 63.5518V63.5578Z" fill="#EE656D"/>
<path d="M34.2988 63.5638C35.5271 63.5638 36.7493 63.5518 37.9775 63.5518C39.0122 63.5518 40.0468 63.5578 41.0814 63.5638C41.0028 63.6243 40.906 63.6062 40.8213 63.6062C38.7338 63.6062 36.6525 63.6062 34.565 63.6062C34.4743 63.6062 34.3835 63.6303 34.3049 63.5638H34.2988Z" fill="#EE676F"/>
<path d="M51.6577 63.564C53.4547 63.564 55.2517 63.564 57.0487 63.564C56.97 63.6244 56.8732 63.6123 56.7885 63.6123C55.1852 63.6123 53.5878 63.6123 51.9844 63.6123C51.8755 63.6123 51.7606 63.6365 51.6638 63.57L51.6577 63.564Z" fill="#EE666E"/>
<path d="M61.6532 27.7937C61.6532 29.8185 61.6532 31.8434 61.6532 33.8622C61.6532 34.104 61.6229 34.2007 61.3325 34.2007C57.2726 34.1886 53.2067 34.1886 49.1468 34.2007C48.9169 34.2007 48.8745 34.1221 48.8745 33.9226C48.8987 29.8367 48.929 25.7507 48.8745 21.6587C48.8745 21.3746 48.9895 21.3142 49.2375 21.3202C50.4476 21.3384 51.6577 21.3504 52.8678 21.3504C55.6692 21.3504 58.4706 21.3565 61.272 21.3504C61.5624 21.3504 61.6592 21.3988 61.6592 21.7191C61.6411 23.744 61.6532 25.7688 61.6532 27.7876V27.7937Z" fill="#0508D2"/>
<path d="M52.9526 35.8147C52.8195 36.0686 52.6319 36.2076 52.4746 36.3647C52.1176 36.7214 51.809 37.1807 51.3794 37.3862C50.9499 37.5917 50.3872 37.4406 49.885 37.4406C48.6144 37.4467 47.3438 37.4406 46.0792 37.4406C45.6496 37.4406 45.6557 37.4406 45.6557 37.0175C45.6557 35.446 45.6738 33.8745 45.6436 32.309C45.6375 31.8557 45.7343 31.5051 46.0974 31.2089C46.4483 30.9249 46.7448 30.5743 47.0654 30.2539C47.1138 30.2056 47.1562 30.121 47.2349 30.1572C47.3075 30.1874 47.2893 30.2721 47.2893 30.3446C47.2893 32.0551 47.2893 33.7657 47.2772 35.4762C47.2772 35.7422 47.3377 35.8087 47.61 35.8087C49.3707 35.7966 51.1374 35.8026 52.9526 35.8026V35.8147Z" fill="#0508D2"/>
<path d="M64.9146 34.5391C64.9146 35.4276 64.9146 36.3101 64.9146 37.1986C64.9146 37.3981 64.8601 37.4525 64.6604 37.4525C62.8997 37.4464 61.133 37.4464 59.3723 37.4525C59.2271 37.4525 59.1242 37.4162 59.0274 37.3135C58.622 36.8904 58.2167 36.4733 57.8113 36.0562C57.7629 36.0018 57.66 35.9595 57.7145 35.8628C57.7568 35.7903 57.8415 35.8266 57.9081 35.8266C59.578 35.8266 61.254 35.8145 62.9239 35.8266C63.2446 35.8266 63.3233 35.7057 63.3172 35.4216C63.3112 33.9407 63.3172 32.4599 63.3051 30.979C63.3051 30.7493 63.3656 30.5196 63.293 30.29C63.2749 30.2416 63.293 30.1872 63.3414 30.157C63.3959 30.1207 63.4382 30.1691 63.4685 30.1993C63.9283 30.6526 64.3821 31.112 64.8359 31.5653C64.9206 31.6499 64.8964 31.7527 64.8964 31.8494C64.8964 32.744 64.8964 33.6385 64.8964 34.5391H64.9146Z" fill="#0508D2"/>
<path d="M47.2347 25.4726C46.7144 24.9589 46.2303 24.4632 45.7342 23.9797C45.6555 23.9071 45.6616 23.8165 45.6616 23.7319C45.6616 21.9609 45.6616 20.1899 45.6555 18.4189C45.6555 18.2194 45.71 18.165 45.9036 18.165C47.6643 18.1711 49.431 18.165 51.1917 18.165C51.3188 18.165 51.4277 18.1771 51.5245 18.2678C51.9541 18.6909 52.3897 19.108 52.8193 19.5311C52.8435 19.5552 52.8738 19.6036 52.8617 19.6278C52.8314 19.7184 52.7467 19.6943 52.6801 19.6943C52.1961 19.7063 51.7121 19.7124 51.228 19.7184C50.0119 19.7184 48.7897 19.7184 47.5735 19.7124C47.3436 19.7124 47.2589 19.7366 47.2649 20.0267C47.2891 21.7977 47.277 23.5687 47.277 25.3396C47.277 25.3699 47.2589 25.394 47.2286 25.4726H47.2347Z" fill="#0508D2"/>
<path d="M63.3353 25.4424C63.3353 23.9132 63.3353 22.4384 63.3353 20.9575C63.3353 20.6553 63.3292 20.3531 63.3353 20.0509C63.3413 19.8151 63.2748 19.7124 63.0086 19.7184C61.3568 19.7305 59.705 19.7184 58.0532 19.7184C57.9564 19.7184 57.8233 19.7789 57.7749 19.6701C57.7204 19.5431 57.8656 19.4827 57.9383 19.4102C58.3013 19.0475 58.6643 18.6849 59.0273 18.3222C59.1423 18.2073 59.2694 18.165 59.4327 18.165C61.1632 18.165 62.8997 18.165 64.6301 18.165C64.8479 18.165 64.9205 18.2073 64.9205 18.4431C64.9084 20.202 64.9145 21.9669 64.9145 23.7258C64.9145 23.8346 64.9266 23.9434 64.8298 24.0341C64.376 24.4753 63.9282 24.9286 63.4745 25.3699C63.4503 25.394 63.4079 25.4061 63.3292 25.4484L63.3353 25.4424Z" fill="#0508D2"/>
<path d="M16.9279 52.8533C16.9279 50.2422 16.9279 47.6371 16.9219 45.0259C16.9219 44.7721 16.9884 44.6995 17.2426 44.6512C18.4769 44.4215 19.7233 44.3369 20.9757 44.3973C22.4702 44.4698 23.8799 44.8809 25.1505 45.6606C26.4817 46.4766 27.4134 47.6371 27.964 49.124C28.3089 50.0608 28.4965 51.0279 28.557 52.0011C28.684 53.9413 28.436 55.8271 27.3408 57.4954C26.2275 59.1938 24.6121 60.2093 22.6759 60.7653C21.1633 61.2005 19.6204 61.2187 18.0715 61.1763C17.7508 61.1703 17.4483 61.0131 17.1215 61.0071C16.9703 61.0071 16.9279 60.8983 16.934 60.7593C16.94 60.4571 16.934 60.1549 16.934 59.8526C16.934 57.5135 16.934 55.1804 16.934 52.8412L16.9279 52.8533Z" fill="#0508D2"/>
<path d="M37.9353 56.8732C37.9353 55.6341 37.9353 54.395 37.9353 53.162C37.9353 52.9444 38.0019 52.8416 38.2136 52.8356C38.2741 52.8356 38.3346 52.8054 38.3951 52.8174C39.0546 52.9202 39.696 52.7389 40.3494 52.7328C41.8984 52.7207 43.3626 52.9806 44.6453 53.9356C45.6194 54.661 46.1277 55.6099 46.1579 56.8127C46.1761 57.4413 46.1942 58.0579 45.9583 58.6804C45.565 59.714 44.8329 60.3426 43.8466 60.7295C42.927 61.0921 41.9589 61.213 40.9787 61.207C40.2829 61.207 39.5871 61.1767 38.8973 61.1465C38.6372 61.1344 38.3891 61.0377 38.1229 61.0438C37.9353 61.0438 37.9535 60.8745 37.9535 60.7476C37.9474 60.264 37.9535 59.7805 37.9535 59.297C37.9535 58.4931 37.9535 57.6892 37.9535 56.8792L37.9353 56.8732Z" fill="#0508D2"/>
<path d="M37.9352 47.45C37.9352 46.4829 37.9412 45.5158 37.9352 44.5487C37.9352 44.2888 38.0441 44.18 38.2801 44.1558C38.988 44.0772 39.6959 44.0108 40.4098 44.0289C41.269 44.0531 42.0919 44.2404 42.824 44.6998C43.5198 45.129 43.9312 45.7697 44.1188 46.5796C44.2338 47.0692 44.2096 47.5286 44.1007 48.0061C43.907 48.8764 43.3806 49.4809 42.6122 49.8737C41.5352 50.4177 40.3917 50.6897 39.1816 50.7018C38.8609 50.7018 38.5342 50.6776 38.2135 50.6897C37.9836 50.6958 37.9231 50.5991 37.9231 50.3815C37.9291 49.4023 37.9231 48.4292 37.9231 47.45H37.9291H37.9352Z" fill="#0508D2"/>
</svg>
