<svg xmlns="http://www.w3.org/2000/svg" width="80" height="80" fill="none" viewBox="0 0 80 80"><rect width="79" height="79" x=".5" y=".5" fill="#fff" rx="7.5"/><rect width="79" height="79" x=".5" y=".5" stroke="#eee" rx="7.5"/><path fill="#0c08cc" d="M9.238 57.218c-.06-.103-.03-.218-.03-.327 0-13.285-.013-26.565 0-39.85 0-2.418 1.518-4.316 3.89-4.866A7 7 0 0 1 14.653 12c17.056.006 34.113 0 51.169.018 2.1 0 3.709.955 4.683 2.86.194.38.284.803.375 1.232.133.61.079 1.221.079 1.826.006 13.05 0 26.105 0 39.155 0 .139-.006.284-.012.423-.073.102-.176.163-.273.235-.623.442-1.288.84-1.96 1.185-.508.26-.974.653-1.58.72a.23.23 0 0 0-.138.048c-.484.387-1.077.568-1.646.743-.738.224-1.434.58-2.19.744-.508.114-1.017.254-1.525.362-.841.188-1.676.423-2.53.58-.659.121-1.318.279-1.984.37-.205.03-.339.217-.544.241-.212-.066-.309-.248-.418-.417-.375-.586-.465-1.251-.465-1.916-.019-5.156-.013-10.312-.007-15.467 0-.417.06-.448.49-.52 1.065-.17 2.136-.2 3.19-.03 1.397.223 2.6.84 3.11 2.266.513 1.445.398 2.853-.449 4.17-.798 1.246-1.972 1.96-3.358 2.364-.441.127-.89.218-1.349.284.545.224 1.113.296 1.676.314 2.003.067 3.824-.477 5.349-1.789 1.246-1.076 1.936-2.484 1.978-4.158.037-1.306-.32-2.49-1.18-3.494-.417-.49-.968-.822-1.518-1.136-1.126-.659-2.36-.985-3.655-1.076-2.02-.145-4.048-.03-6.074-.06-.835-.012-1.676 0-2.511 0-.049 0-.103-.019-.14.024-.006.018-.006.042.012.054.757.514 1.029 1.27 1.15 2.134.097.719.127 1.444.127 2.17 0 4.067.012 8.135-.012 12.21 0 .99-.036 1.994-.188 2.98a2.6 2.6 0 0 1-.798 1.522c-.11.109-.23.2-.387.224-.757-.103-1.52.054-2.276.024-.369 0-.738-.048-1.1.036-.31.049-.618.115-.92.176-.363.078-.726-.03-1.083-.025-.533.012-1.065.067-1.598.055-.411-.006-.823-.085-1.234-.073-.09 0-.181-.012-.242-.096.097-.206.309-.164.472-.182.98-.133 1.912-.399 2.79-.858 1.227-.647 2.25-1.523 2.97-2.72a5.7 5.7 0 0 0 .793-2.635c.072-1.3-.206-2.49-1.029-3.506-.89-1.1-2.015-1.874-3.4-2.248-.127-.037-.255-.067-.376-.11-.12-.042-.278-.06-.29-.223-.006-.145.133-.187.236-.242.424-.211.841-.441 1.198-.755.539-.484 1.065-.973 1.325-1.687.55-1.517.37-2.9-.623-4.176-.563-.726-1.343-1.118-2.166-1.433-.974-.374-1.997-.532-3.044-.574-2.662-.115-5.318-.018-7.98-.054-.042 0-.079 0-.121.024-.036.06.024.084.06.115.811.568 1.102 1.39 1.114 2.327.018 1.239 0 2.478 0 3.717V61.11c0 .701-.212 1.324-.642 1.88-.218.278-.526.429-.798.634-.218.067-.442.043-.66.043-.593-.006-1.18 0-1.773 0a14 14 0 0 1-2.517-.151c-.593-.09-1.198-.073-1.797-.151-.357-.049-.714-.127-1.065-.188-.187-.03-.35-.096-.411-.302.006-.175.163-.187.278-.23a11.7 11.7 0 0 0 2.01-.979c1.602-1.003 2.88-2.309 3.775-3.99.695-1.293.986-2.695 1.137-4.133.206-1.959-.12-3.832-.913-5.628-.34-.773-.817-1.45-1.374-2.085-1.58-1.801-3.618-2.786-5.911-3.306-1.071-.248-2.16-.345-3.262-.387-2.71-.097-5.42-.012-8.131-.048-.043 0-.08 0-.121.018-.025.072.042.084.078.096.502.23.769.653.902 1.149.163.61.278 1.233.278 1.874-.012 4.116 0 8.238-.012 12.354 0 .671-.03 1.348-.09 2.019-.104.157-.249.097-.382.067-.448-.103-.835-.333-1.222-.563-.593-.35-1.168-.731-1.767-1.07-.333-.187-.593-.477-.914-.683a.3.3 0 0 1-.078-.108z"/><path fill="#e9222e" d="M25.012 62.82c.12.351.453.242.69.303.895.217 1.826.181 2.734.314.762.109 1.525.109 2.293.133q.906.054 1.821 0c.212-.012.43-.018.642-.03.363-.133.738-.079 1.113-.054.127.036.254.048.387.048h6.002c.121 0 .242 0 .357-.036.484-.055.974 0 1.453-.103.066-.012.139-.006.181.072.914.049 1.821.17 2.74.043.316-.043.636.018.95.048.485.048.939-.157 1.41-.193.37-.049.739.024 1.108-.037.46-.024.913-.048 1.373-.066a3.4 3.4 0 0 1 .92.072c-.018.11.024.164.14.157.144 0 .29 0 .435.037 1.1.03 2.196.006 3.297.012.624 0 1.247.012 1.876 0 .103-.036.218-.024.339-.073-.103-.139-.248-.193-.357-.284-.133-.115-.303-.205-.279-.423.152-.332.49-.338.769-.38 1.186-.176 2.341-.478 3.51-.732.804-.175 1.59-.447 2.413-.55a1 1 0 0 0 .206-.048c.938-.423 1.972-.605 2.88-1.088.496-.266 1.016-.436 1.519-.677 1.053-.514 2.008-1.185 3.031-1.747 0 .072.012.139.018.211 0 1.771.018 3.542 0 5.32-.012 1.257-.448 2.35-1.3 3.306-.787.882-1.774 1.347-2.893 1.607-.127.03-.26.013-.393.013H9.66c-.405 0-.405 0-.411-.393 0-.14 0-.278.012-.423-.054-.484-.006-.974-.024-1.463 0-.127.024-.26-.018-.387v-3.506c.048-.29.018-.58.018-.87 0-1.13 0-2.267.006-3.397 0-.09-.085-.224.085-.266.236.109.405.32.617.447.932.562 1.821 1.191 2.801 1.675.26.127.533.193.817.23.163.277.079.586.073.876 0 .26-.049.514-.073.773-.067.774-.418 1.409-.968 1.947-.067.066-.272.139-.073.284.11.03.224.018.333.018h8.065c.134 0 .26.012.388-.03.58-.11 1.173-.157 1.76-.272.52-.103 1.047-.212 1.55-.393.126-.049.265-.109.405-.018z"/><path fill="#ea2f3a" d="M9.316 57.266c-.109.097-.06.224-.06.338v3.875c0 .109.036.224-.049.32 0-1.48-.006-2.956-.006-4.436 0-.049.025-.097.043-.14.024.019.054.03.078.049zm-.108 8.039c.108.302.036.61.048.919.012.308 0 .616 0 .93-.085-.61-.048-1.226-.042-1.843z"/><path fill="#f5f5f6" d="M62.482 39.012h-3.69a.73.73 0 0 1-.563-.23c-.902-.924-1.815-1.831-2.711-2.756-.17-.175-.26-.169-.43 0-.907.919-1.827 1.82-2.74 2.732a.72.72 0 0 1-.557.236q-3.768 0-7.527.018c-.206 0-.26-.048-.254-.278.024-.822.012-1.65.012-2.478 0-1.662-.012-3.325-.018-4.98 0-.176.097-.303.212-.418.907-.9 1.809-1.807 2.716-2.714q.345-.344.012-.683c-.913-.912-1.82-1.825-2.734-2.732a.53.53 0 0 1-.176-.423V17.09q0-.556.55-.556 3.568 0 7.134-.018c.254 0 .436.073.611.254.908.919 1.828 1.82 2.73 2.744.21.218.332.188.52-.012.895-.93 1.803-1.844 2.698-2.768a.56.56 0 0 1 .448-.188c2.51 0 5.022 0 7.527-.012.211 0 .272.06.272.266.054 2.539.012 5.078.024 7.61 0 .145-.073.218-.157.302l-2.76 2.756c-.302.303-.302.297 0 .61.914.92 1.858 1.82 2.736 2.781a.63.63 0 0 1 .175.454q-.001 3.653.006 7.307c0 .296-.067.4-.387.393-1.228-.018-2.457-.006-3.691-.006zm-50.08 24.546c-.236-.024-.139-.127-.042-.218.35-.314.641-.67.859-1.088.163-.314.236-.652.26-.99.049-.545.158-1.089.073-1.639.018-1.499.042-2.998.048-4.497.012-3.415.024-6.824 0-10.239 0-.75-.127-1.499-.556-2.164-.17-.26-.424-.393-.678-.532-.067-.036-.182-.048-.157-.15.024-.097.133-.067.211-.067h3.298c1.882 0 3.77-.03 5.651.066 2.245.115 4.399.647 6.317 1.82 2.257 1.378 3.745 3.372 4.32 5.996.369 1.668.357 3.318.054 4.998-.314 1.765-1.077 3.294-2.184 4.666-.442.55-.992.992-1.537 1.451-.992.834-2.154 1.348-3.327 1.844-.557.139-1.09.338-1.658.44-.666.122-1.331.212-1.997.303-.079.03-.157.018-.236.018h-8.483c-.079 0-.163.018-.236-.024zm30.277-.102c-.533.078-1.065.096-1.598.108-2.262.03-4.52.03-6.782 0-.37-.012-.738-.018-1.107-.03a.5.5 0 0 1 .193-.187c.83-.508 1.156-1.294 1.162-2.218.012-4.22.012-8.438.018-12.657 0-1.27.012-2.539-.012-3.808-.012-.774-.133-1.53-.744-2.104-.145-.139-.285-.284-.466-.374-.06-.03-.145-.06-.133-.145.024-.121.133-.067.2-.067 1.198 0 2.396-.012 3.6 0 1.621.006 3.249-.048 4.864.067 1.434.096 2.795.429 4.036 1.196 1.089.677 2.148 2.388 1.821 4.183-.297 1.632-1.337 2.593-2.693 3.337-.139.072-.387.096-.369.253.019.151.267.121.412.157 1.391.37 2.577 1.07 3.527 2.158.908 1.04 1.295 2.267 1.217 3.627-.182 3.034-2.01 4.805-4.641 5.936-.793.338-1.646.447-2.493.574zm13.952-.72c.073.212.248.327.424.442.12.084.254.15.327.296-.091.109-.224.06-.333.09-.218.043-.442.019-.66.019h-4.398c-.11 0-.224.018-.327-.019-.218-.012-.43-.018-.635-.03-.025-.157.127-.127.157-.211.647-.423.974-1.034 1.089-1.79.212-1.36.145-2.732.145-4.098.006-4.025.006-8.057 0-12.082 0-.653-.115-1.306-.278-1.934-.145-.556-.52-.943-.998-1.24-.06-.036-.182-.054-.14-.157.037-.09.134-.042.212-.042 1.107.006 2.22 0 3.328.006 1.646 0 3.285-.018 4.931.03 1.664.049 3.25.442 4.653 1.39 2.051 1.397 2.856 3.911 2.003 6.148-.69 1.8-1.936 3.016-3.715 3.729a7.94 7.94 0 0 1-5.004.35c-.127-.03-.29-.024-.375-.223.296-.042.575-.073.853-.127 1.555-.302 2.928-.925 3.902-2.248.987-1.342 1.132-2.811.611-4.352-.375-1.1-1.252-1.687-2.31-2.043a4.6 4.6 0 0 0-1.483-.242c-.877 0-1.749-.024-2.62.115-.157.024-.236.084-.23.248v.18c0 5.096 0 10.192.012 15.287 0 .701.06 1.408.454 2.03.109.176.212.363.405.478"/><path fill="#c53b65" d="M32.55 63.564a7 7 0 0 1-1.821 0z"/><path fill="#993989" d="M48.887 63.322c-.364.109-.739.03-1.108.036.37-.096.738-.018 1.107-.036"/><path fill="#ee656d" d="M12.402 63.558h8.955c-.079.066-.176.042-.26.042h-8.314c-.127 0-.26.036-.38-.048z"/><path fill="#ee676f" d="M34.299 63.564c1.228 0 2.45-.012 3.678-.012q1.553.002 3.104.012c-.078.06-.175.042-.26.042h-6.256c-.09 0-.181.024-.26-.042z"/><path fill="#ee666e" d="M51.658 63.564h5.39c-.078.06-.175.048-.26.048h-4.804c-.108 0-.223.024-.32-.042z"/><path fill="#0508d2" d="M61.653 27.794v6.068c0 .242-.03.339-.32.339-4.06-.012-8.126-.012-12.186 0-.23 0-.273-.079-.273-.278.025-4.086.055-8.172 0-12.264 0-.284.115-.345.363-.339q1.815.029 3.63.03c2.802 0 5.604.006 8.405 0 .29 0 .387.049.387.37-.018 2.024-.006 4.049-.006 6.068z"/><path fill="#0508d2" d="M52.953 35.815c-.134.254-.321.393-.478.55-.357.356-.666.816-1.096 1.021-.43.206-.992.055-1.494.055-1.27.006-2.541 0-3.806 0-.43 0-.423 0-.423-.424 0-1.571.018-3.143-.012-4.708-.006-.453.09-.804.453-1.1.351-.284.648-.635.968-.955.049-.048.091-.133.17-.097.072.03.054.115.054.188 0 1.71 0 3.42-.012 5.131 0 .266.06.333.333.333 1.76-.012 3.527-.006 5.343-.006zm11.962-1.275v2.659c0 .2-.055.254-.255.254-1.76-.007-3.527-.007-5.288 0a.43.43 0 0 1-.345-.14q-.607-.633-1.216-1.257c-.048-.054-.151-.096-.096-.193.042-.073.127-.036.193-.036 1.67 0 3.346-.012 5.016 0 .32 0 .4-.121.393-.405-.006-1.481 0-2.962-.012-4.443 0-.23.06-.46-.012-.689a.11.11 0 0 1 .048-.133c.055-.036.097.012.127.042.46.454.914.913 1.368 1.366.085.085.06.188.06.284v2.69zm-17.68-9.067c-.52-.514-1.005-1.01-1.5-1.493-.08-.073-.073-.163-.073-.248q.002-2.656-.006-5.313c0-.2.054-.254.248-.254 1.76.006 3.527 0 5.288 0 .127 0 .236.012.333.103.43.423.865.84 1.294 1.263.024.024.055.073.043.097-.03.09-.115.066-.182.066q-.726.017-1.452.024c-1.216 0-2.438 0-3.654-.006-.23 0-.315.025-.31.315.025 1.77.013 3.542.013 5.313 0 .03-.018.054-.048.133zm16.1-.031v-4.485c0-.302-.006-.604 0-.906.006-.236-.06-.339-.326-.333-1.652.012-3.304 0-4.956 0-.097 0-.23.06-.278-.048-.055-.127.09-.187.163-.26l1.09-1.088a.53.53 0 0 1 .405-.157h5.197c.218 0 .29.042.29.278-.012 1.759-.005 3.524-.005 5.283 0 .109.012.217-.085.308-.454.441-.902.895-1.355 1.336-.025.024-.067.036-.146.078zM16.928 52.853c0-2.61 0-5.216-.006-7.827 0-.254.066-.327.32-.375a16 16 0 0 1 3.734-.254c1.494.073 2.904.484 4.175 1.264 1.33.816 2.262 1.976 2.813 3.463.345.937.533 1.904.593 2.877.127 1.94-.121 3.826-1.216 5.494-1.114 1.699-2.729 2.714-4.665 3.27-1.513.435-3.056.454-4.604.411-.321-.006-.624-.163-.95-.169-.152 0-.194-.109-.188-.248.006-.302 0-.604 0-.906V52.84zm21.007 4.02v-3.711c0-.218.067-.32.279-.326.06 0 .12-.03.181-.019.66.103 1.301-.078 1.954-.084 1.55-.012 3.014.248 4.296 1.203.974.725 1.483 1.674 1.513 2.877.018.628.036 1.245-.2 1.867-.393 1.034-1.125 1.663-2.111 2.05-.92.362-1.888.483-2.868.477-.696 0-1.392-.03-2.082-.06-.26-.013-.508-.11-.774-.103-.188 0-.17-.17-.17-.296-.006-.484 0-.967 0-1.451v-2.418zm0-9.423c0-.967.006-1.934 0-2.901 0-.26.11-.369.345-.393.708-.079 1.416-.145 2.13-.127.859.024 1.682.211 2.414.67.696.43 1.107 1.07 1.295 1.88.115.49.09.95-.018 1.427-.194.87-.72 1.475-1.489 1.868a7.7 7.7 0 0 1-3.43.828c-.321 0-.648-.024-.968-.012-.23.006-.29-.09-.29-.308.005-.98 0-1.953 0-2.932z"/></svg>