<svg xmlns="http://www.w3.org/2000/svg" width="80" height="80" fill="none" viewBox="0 0 80 80"><rect width="80" height="80" fill="#dddf3b" rx="8"/><path fill="url(#a)" d="m43.711 35.18 9.186 6.782c6.985 5.159 3.5 7.876 3.484 7.89l1.821-1.363c2.39-1.788 4.027-3.55 4.856-5.044.671-1.213.942-2.381.942-3.593 0-3.125-2.073-5.853-5.798-8.636L40 17.6s-4.95 11.186 3.712 17.58"/><path fill="url(#b)" d="M21.798 31.216c-2.392 1.788-4.027 3.55-4.856 5.044-.674 1.213-.942 2.38-.942 3.593 0 3.124 2.073 5.852 5.798 8.636l18.201 13.615s4.953-11.185-3.71-17.58l-9.185-6.782c-7.003-5.17-3.485-7.888-3.485-7.888z"/><path fill="url(#c)" d="M23.48 29.958a2.75 2.75 0 0 0-.76 1.91c0 1.334.88 3.305 4.375 5.886l2.853 2.107c3.166-2.337-1.354 1.002 6.341-4.68 1.738-1.283 2.928-2.76 3.719-4.3-1.05-2.04-1.402-4.191-1.402-6.158 0-3.77 1.302-6.872 1.393-7.123z"/><path fill="url(#d)" d="M43.711 44.524c-1.739 1.283-2.928 2.758-3.72 4.3 1.05 2.04 1.402 4.191 1.402 6.156 0 3.712-1.254 6.777-1.396 7.119l.002.005 16.538-12.37c.263-.287.742-.962.742-1.898 0-1.334-.88-3.305-4.373-5.887l-2.856-2.106z"/><path fill="#dedf38" d="M49.913 39.74c-3.071-2.267-4.622-3.41-5.401-3.987l-.792-.584c-1.715-1.267-2.895-2.721-3.686-4.24L40 30.9l-.037.032c-.79 1.517-1.967 2.972-3.683 4.237l-6.189 4.57-.13.114.129.114c6.185 4.565 6.19 4.57 6.19 4.57 1.717 1.267 2.896 2.721 3.686 4.24l.034.03.034-.029c.79-1.52 1.97-2.974 3.686-4.24l6.193-4.573.126-.11z"/><defs><linearGradient id="a" x1="60.898" x2="37.402" y1="47.237" y2="19.222" gradientUnits="userSpaceOnUse"><stop stop-color="#591a7c"/><stop offset=".05" stop-color="#591a7c"/><stop offset=".17" stop-color="#920884"/><stop offset=".381" stop-color="#731885"/><stop offset=".767" stop-color="#591a7c"/><stop offset=".95" stop-color="#43165d"/><stop offset="1" stop-color="#43165d"/></linearGradient><linearGradient id="b" x1="19.102" x2="42.586" y1="32.477" y2="60.479" gradientUnits="userSpaceOnUse"><stop stop-color="#e40084"/><stop offset=".005" stop-color="#e40084"/><stop offset=".152" stop-color="#c40075"/><stop offset=".368" stop-color="#b5006c"/><stop offset=".5" stop-color="#b5006c"/><stop offset="1" stop-color="#76146c"/></linearGradient><linearGradient id="c" x1="40.204" x2="25.593" y1="29.232" y2="29.232" gradientUnits="userSpaceOnUse"><stop stop-color="#e40084"/><stop offset=".005" stop-color="#e40084"/><stop offset=".152" stop-color="#c40075"/><stop offset=".5" stop-color="#b5006c"/><stop offset="1" stop-color="#8a0f6c"/></linearGradient><linearGradient id="d" x1="57.463" x2="42.865" y1="50.459" y2="50.459" gradientUnits="userSpaceOnUse"><stop stop-color="#521c72"/><stop offset=".15" stop-color="#521c72"/><stop offset=".5" stop-color="#591a7c"/><stop offset=".75" stop-color="#731885"/><stop offset="1" stop-color="#920884"/></linearGradient></defs></svg>