<svg xmlns="http://www.w3.org/2000/svg" width="80" height="80" fill="none" viewBox="0 0 80 80"><rect width="79" height="79" x=".5" y=".5" fill="#fff" rx="7.5"/><rect width="79" height="79" x=".5" y=".5" stroke="#eee" rx="7.5"/><path fill="#001648" d="M57.42 30v4.492a33 33 0 0 1-4.767-.85 28.7 28.7 0 0 1-10.274-5.008c-2.383-1.82-4.493-3.96-6.223-6.373L40.117 20c3.4 4.552 8.166 7.83 13.75 9.317a27 27 0 0 0 3.598.683zm-6.724 11.108a38.5 38.5 0 0 1-12.931-6.343 36.4 36.4 0 0 1-8.287-8.634l3.916-2.262c1.988 2.793 4.325 5.25 7.072 7.3 3.4 2.594 7.24 4.446 11.414 5.584 1.82.516 3.672.804 5.57 1.001v4.522a39 39 0 0 1-6.754-1.168M26.73 27.739c2.459 3.718 5.57 6.904 9.137 9.605 4.204 3.202 8.924 5.494 14.023 6.875 2.505.637 5.009 1.077 7.604 1.244v4.522a46 46 0 0 1-8.772-1.457c-5.661-1.487-10.913-4.067-15.602-7.587C29.068 37.876 25.638 34.203 22.8 30z"/><path fill="#ee3124" d="M22.815 50.03A45.6 45.6 0 0 1 33.12 39.09c4.69-3.521 9.942-6.055 15.603-7.588a46 46 0 0 1 8.772-1.457v4.522c-2.58.167-5.084.607-7.604 1.245-5.084 1.335-9.82 3.672-14.023 6.828-3.552 2.701-6.663 5.888-9.137 9.606zm34.65-12.276v4.522a32 32 0 0 0-5.586.971c-4.158 1.138-7.998 2.99-11.398 5.57-2.747 2.063-5.084 4.521-7.072 7.313l-3.916-2.26a36.8 36.8 0 0 1 8.287-8.65c3.87-2.944 8.241-5.038 12.93-6.328a36 36 0 0 1 6.755-1.138m0 12.23c-1.215.168-2.383.365-3.597.699A25.06 25.06 0 0 0 40.118 60l-3.962-2.261a29.9 29.9 0 0 1 6.223-6.373 28.6 28.6 0 0 1 10.274-5.008 32 32 0 0 1 4.766-.85v4.477z"/></svg>