<svg xmlns="http://www.w3.org/2000/svg" width="80" height="80" fill="none" viewBox="0 0 80 80"><rect width="79" height="79" x=".5" y=".5" fill="#fff" rx="7.5"/><rect width="79" height="79" x=".5" y=".5" stroke="#eee" rx="7.5"/><path fill="#fff" d="M62.295 40.146a22.13 22.13 0 0 1-13.667 20.446 22.14 22.14 0 0 1-24.124-4.799 22.13 22.13 0 0 1 15.653-37.78 22.14 22.14 0 0 1 15.654 6.482 22.13 22.13 0 0 1 6.483 15.65"/><path fill="#887369" d="M51.315 51.602a7.6 7.6 0 0 0-3.726-1.063 8.6 8.6 0 0 0-3.705 1.05 9 9 0 0 1-3.992 1.096 8.2 8.2 0 0 1-3.622-1.024 9.04 9.04 0 0 0-4.01-1.102 8.8 8.8 0 0 0-3.71 1.02 9.2 9.2 0 0 1-4.006 1.08h-.252q.247.308.504.6a10 10 0 0 0 4.002-1.123 8.15 8.15 0 0 1 3.462-.972 8.4 8.4 0 0 1 3.75 1.05 8.85 8.85 0 0 0 3.876 1.078 9.6 9.6 0 0 0 4.247-1.148 8 8 0 0 1 3.45-.99 7 7 0 0 1 3.45.997 8.3 8.3 0 0 0 4.13 1.147q.265-.305.523-.623a7 7 0 0 1-.497.02 7.8 7.8 0 0 1-3.883-1.08"/><path fill="#887369" d="M47.589 51.686a8.6 8.6 0 0 0-3.704 1.05 9.1 9.1 0 0 1-3.991 1.094 8.25 8.25 0 0 1-3.624-1.021 9 9 0 0 0-4.01-1.107 8.8 8.8 0 0 0-3.71 1.026 10.3 10.3 0 0 1-3.3 1.038c.173.183.347.367.526.54 1.046-.204 2.06-.55 3.015-1.026a8.14 8.14 0 0 1 3.461-.972c1.316.051 2.6.41 3.75 1.05a8.8 8.8 0 0 0 3.88 1.075 9.6 9.6 0 0 0 4.243-1.149 8 8 0 0 1 3.45-.988 7 7 0 0 1 3.45.999 9 9 0 0 0 3.11 1.08c.183-.184.367-.37.541-.557a8.1 8.1 0 0 1-3.378-1.063 7.6 7.6 0 0 0-3.726-1.062"/><path fill="#887369" d="M47.589 52.83a8.6 8.6 0 0 0-3.704 1.04 9.05 9.05 0 0 1-3.991 1.097 8.2 8.2 0 0 1-3.624-1.024 9.1 9.1 0 0 0-4.01-1.105 8.8 8.8 0 0 0-3.71 1.025c-.742.362-1.517.654-2.314.87.173.165.353.323.533.486q1.042-.334 2.03-.802a8.14 8.14 0 0 1 3.463-.972c1.315.051 2.6.41 3.75 1.05a8.8 8.8 0 0 0 3.879 1.08 9.6 9.6 0 0 0 4.243-1.15 8 8 0 0 1 3.45-.99 7 7 0 0 1 3.45 1c.665.36 1.365.654 2.088.875l.552-.491a9.4 9.4 0 0 1-2.367-.926 7.6 7.6 0 0 0-3.726-1.061"/><path fill="#887369" d="M47.59 53.977a8.56 8.56 0 0 0-3.704 1.05 9.1 9.1 0 0 1-3.991 1.092 8.2 8.2 0 0 1-3.624-1.022 9 9 0 0 0-4.01-1.102 8.74 8.74 0 0 0-3.71 1.024c-.439.198-.887.4-1.35.572.18.15.364.292.55.436q.535-.225 1.05-.45a8.2 8.2 0 0 1 3.462-.972c1.315.052 2.6.411 3.75 1.05a8.8 8.8 0 0 0 3.879 1.078 9.6 9.6 0 0 0 4.243-1.148 7.96 7.96 0 0 1 3.45-.989 7 7 0 0 1 3.45.998c.354.181.713.358 1.103.523q.272-.209.546-.429a14 14 0 0 1-1.377-.631 7.6 7.6 0 0 0-3.726-1.062"/><path fill="#887369" d="M47.589 55.122a8.6 8.6 0 0 0-3.704 1.05 9.1 9.1 0 0 1-3.991 1.091 8.2 8.2 0 0 1-3.624-1.021 9 9 0 0 0-4.01-1.102 8.8 8.8 0 0 0-3.71 1.024c-.128.057-.258.117-.385.17.19.14.381.277.573.403a.3.3 0 0 0 .06-.023 8.2 8.2 0 0 1 3.462-.972 8.44 8.44 0 0 1 3.75 1.05 8.8 8.8 0 0 0 3.879 1.08 9.6 9.6 0 0 0 4.243-1.15 8 8 0 0 1 3.45-.987 7 7 0 0 1 3.45.994l.134.066c.192-.127.378-.258.567-.391l-.427-.213a7.6 7.6 0 0 0-3.726-1.062"/><path fill="#887369" d="M43.89 57.308a9.1 9.1 0 0 1-3.992 1.09 8.2 8.2 0 0 1-3.62-1.017 9 9 0 0 0-4.012-1.105 7.6 7.6 0 0 0-3.083.742q.314.206.638.39a6.4 6.4 0 0 1 2.443-.528 8.4 8.4 0 0 1 3.75 1.05 8.84 8.84 0 0 0 3.88 1.075 9.6 9.6 0 0 0 4.243-1.148 8 8 0 0 1 3.45-.989 6 6 0 0 1 2.559.566c.21-.125.417-.248.624-.38a6.9 6.9 0 0 0-3.183-.788 8.6 8.6 0 0 0-3.702 1.05"/><path fill="#e71618" d="M40 16a24 24 0 0 0-22.173 14.812 23.99 23.99 0 0 0 5.202 26.15A24.002 24.002 0 0 0 64 39.993a24 24 0 0 0-7.03-16.966A24 24 0 0 0 40 16m0 44.165a20.175 20.175 0 0 1-18.637-12.448 20.16 20.16 0 0 1 4.37-21.978A20.173 20.173 0 0 1 60.17 39.994 20.16 20.16 0 0 1 47.72 58.63 20.2 20.2 0 0 1 40 60.165"/><path fill="#009b3b" d="M51.358 34.049a3.87 3.87 0 0 1-1.335 1.868c-.936.75-7.143 4.55-7.848 5.425a5.17 5.17 0 0 0-.816 3.149v7.296h.967v-1.891a3.87 3.87 0 0 1 1.128-2.452 59 59 0 0 1 6.2-4.435 4.65 4.65 0 0 0 1.726-4.208v-4.985z"/><path fill="#009b3b" d="M41.366 40.894c.686-.864 7.09-4.77 8.009-5.517a4.61 4.61 0 0 0 1.992-3.334v-8.171a5.2 5.2 0 0 1-1.475 3.114c-.94 1.233-5.25 3.563-7.378 5.059a5.56 5.56 0 0 0-2.865 4.824v14.926h.955v-7.79a4.98 4.98 0 0 1 .764-3.103m-4.865-8.456a76 76 0 0 1-6.397-5.344 5.62 5.62 0 0 1-1.5-3.163v7.59a5.68 5.68 0 0 0 2.413 4.423c1.893 1.382 4.562 3.392 5.361 4.199a6 6 0 0 1 1.554 4.322v7.322h.945v-14.6a4.81 4.81 0 0 0-2.376-4.75"/></svg>