<svg xmlns="http://www.w3.org/2000/svg" width="80" height="80" fill="none" viewBox="0 0 80 80"><rect width="80" height="80" fill="#00a4e4" rx="8"/><path fill="#fff" fill-rule="evenodd" d="M59.343 40.587c-.056.412-.468 2.996-1.086 3.146q-.018 0-.018-.018c-.281.13-.506-.038-.506-.038-.206 1.573-1.292 3.933-2.864 7.136-1.142 2.34-2.303 4.588-1.367 5.506.786.786 2.153-.993 1.722-.094-.505 1.105-1.516 1.292-2.396.9-2.49-1.18 1.816-10.508 1.816-10.508l-.075.057s-2.322-.693-2.116-6.125c0 0-2.883 1.143-5.26-.824 3.856 3.428 2.021 9.402 2.021 9.402 1.667 8.952-6.178 10.563-6.178 10.563-3.913 1.049-6.665-.9-6.665-.9l-.057-.055c-4.53-.656-6.347-2.735-6.178-5.619.187-3.109 2.77-3.952 4.138-3.877 1.31.075 2.078.88 2.172 1.461 0 0-2.64-1.03-4.42.656-.317.318-.542.73-.654 1.123-.712 2.435 1.067 4.233 3.426 4.851-.73-.899-.787-2.21-.524-2.996.599-1.78 1.91-1.91 2.471-1.836 0 0-1.48.75-1.573 2.884-.056 1.574 1.854 2.285 1.854 2.285 6.253.225 7.208-4.72 7.208-4.72-2.134.338-3.033-.262-3.632-.842-1.011-.112-2.265-.543-2.471-1.536-.15-.73.093-1.18.449-1.33 0 0-.094.974 1.198 1.536q.094.038.206.075c-.075-.524 0-1.049.243-1.33a.74.74 0 0 1 .656-.28s-.861 1.722.618 1.76c.3.019.543 0 .767-.056l.15-.038c1.386-.468 2.64-2.266 2.64-3.802 0-1.929-1.273-3.52-2.94-3.764l-.842.861a6.6 6.6 0 0 1-1.273.862c1.18.712.374 1.63-.112 1.704.224-.786-.394-.992-.806-.918a.55.55 0 0 1-.224.244c-.019.019-.038.019-.056.037q-.075.038-.188.075c-1.629.693-2.977.375-2.977.375q.02 0 .02-.019a1 1 0 0 1-.619-.43c-.861.337-.187 1.123.131 1.273-.767.112-1.273-.337-1.366-.974-.131-.861.655-1.273.655-1.273 1.442-.9 3.557-.206 3.557-.206 1.498-.319 2.509-2.004 2.509-2.004-1.928-.469-2.977-1.293-2.977-1.293-.262.375-.58.712-.58.712-.281.225-.543.393-.543.393.45.6.075 1.723-.993 1.499.543-.281.3-.9-.112-.918q-.13.15-.28.243v.02h-.02a1 1 0 0 1-.224.111c-1.086.431-2.64.132-2.659.15v-.018a.9.9 0 0 1-.505-.244c-.618.131-.487.768-.113.974-1.273.45-1.966-1.442-.224-2.116 1.91-.768 3.67 0 3.67 0 1.422-.469 1.59-1.78 1.59-1.78-.804-.711-1.403-1.554-1.722-2.49a.04.04 0 0 1-.037.037l.019.056c-1.46 2.678-4.531 1.798-4.531 1.798-.787 3.015-3.333 3.09-3.333 3.09s.075 2.81-1.704 3.578c.843 4.494 3.576 8.034 1.704 9.495-.712.58-2.06.393-2.415-.918-.169-.618.917.918 1.703.15.787-.768-1.216-3.97-2.302-6.143-1.348-2.734-1.985-6.012-2.004-6.05v.02c-.262.28-.486.262-.636.112-.019 0-.056-.019-.056-.019-.506-.506-.75-3.427-.75-3.427a16 16 0 0 1-.074-1.517 7 7 0 0 1-.019-.506v-.468c.094-4.85 2.247-5.88 2.247-5.88-1.067-.038-.412-1.031-.412-1.031 1.423-2.64 3.37-4.27 4.943-5.356 2.958-2.042 4.662-.824 4.474.206-.524 3.202 2.622 1.723 3.39.374.767-1.33 1.703-2.49 1.703-2.49l.15-.244c-.936.112-1.648-.393-1.798-1.124-.112-.45.113-.992.58-.918.32.038.488.356.413.581-.075.206-.281.356-.487.244.168.599.974.88 1.816.524l.187-.225s-.262.019-.412 0c-.561-.093-.617-.543-.58-.749.037-.262.356-.543.618-.45.562.207.15.825-.112.619.074.43 1.179-.02 1.179-.02 2.808-3.07 5.355-.598 5.355-.598.842-.169 1.235.655 1.235.655 2.547.038 1.76 1.498 1.311 1.742-.225-.73-1.067-.525-1.704-.393-1.067.206-1.46.524-2.04.973-.862.675-1.442 1.517-1.704 2.622-.244 1.03.674 2.285 2.209 2.473 1.292.168 2.94-.525 2.79-2.285-.244-2.529 2.284-2.96 4.55-1.91 4.212 1.947 6.402 4.513 6.402 4.513 1.311 1.46.113 1.554.113 1.554a9.9 9.9 0 0 1 2.153 3.11 7 7 0 0 1 .393 1.161c.019.056.019.112.019.168.262 1.143.43 2.903-.038 5.263m-16.925 10.32q-.038 0-.056.018a.14.14 0 0 1 .056-.019m-1.348-29.63c.019.282.243.525.45.563.392.075.467-.15.935-.169-.093-.075-.187-.169-.318-.262-.056.225-.243.374-.468.337a.466.466 0 0 1-.374-.524v-.02c-.094.02-.131.038-.225.076m.468.076c0 .112.075.187.187.187.094 0 .169-.075.169-.187a.2.2 0 0 0-.019-.094c-.075-.038-.168-.056-.243-.075a.2.2 0 0 0-.094.169m4.082 31.295-.15.58c-1.33 5.132-6.497 5.488-6.497 5.488 3.24.805 6.104-1.03 7.34-2.322 1.853-1.91 1.61-5.057 1.61-5.057-.113-.58-.337-.187-.337-.187-.675 1.18-1.966 1.498-1.966 1.498" clip-rule="evenodd"/></svg>