<svg xmlns="http://www.w3.org/2000/svg" width="80" height="80" fill="none" viewBox="0 0 80 80"><rect width="80" height="80" fill="#6f5f5e" rx="8"/><path fill="#ffd400" d="M33.953 43.305c-1.254-1.292-2.765-3.384-3.702-6.421 0 0-.037-.114-.09-.114s-.114.129-.114.129c-2.062 6.685-7.025 9.314-8.717 9.889-.091.03-.091.105-.091.143a19.6 19.6 0 0 0 3.807 6.33c.038.023.091.053.182 0 5.318-3.036 8.355-8.959 8.755-9.79.038-.075 0-.128-.03-.166m12.064 0q.03 0 0 0c1.254-1.292 2.765-3.384 3.717-6.421 0 0 .038-.114.09-.114.061 0 .114.129.114.129 2.062 6.685 7.033 9.314 8.725 9.889.09.03.09.105.09.143a19.9 19.9 0 0 1-3.806 6.33c-.038.023-.099.053-.19 0-5.333-3.036-8.354-8.959-8.755-9.79-.038-.075.015-.128.015-.166m3.611 14.096c-7.524-7.32-9.518-20.411-9.518-20.411s-.03-.22-.129-.22c-.09 0-.128.22-.128.22s-1.964 13.09-9.511 20.41c0 0-.076.076 0 .129A19.85 19.85 0 0 0 39.838 60h.257a19.85 19.85 0 0 0 9.495-2.47c.106-.053.038-.129.038-.129m.809-34.471c-.114-.06-.114.091-.114.091.023 2.357.333 15.389 9.42 19.362.091.038.114-.015.114-.038.09-.77.143-1.54.143-2.334a20.05 20.05 0 0 0-9.563-17.08m-20.866-.001c.106-.06.106.091.106.091-.015 2.357-.325 15.389-9.42 19.362-.068.038-.106-.015-.106-.038-.09-.77-.151-1.54-.151-2.334 0-7.252 3.83-13.568 9.571-17.08m19.649-.68c-2.59-1.367-5.522-2.16-8.65-2.251-.09 0-.067.113-.067.113 0 3.974.642 13.273 3.731 19.551.023.068.076.03.114.03l.015-.015c.317-.332 5.114-5.613 4.933-17.284 0-.09-.053-.144-.076-.144m-18.455 0A19.76 19.76 0 0 1 39.415 20c.09 0 .075.113.075.113 0 3.974-.65 13.273-3.754 19.551-.023.068-.09.03-.09.03-.024 0-.024-.015-.024-.015-.31-.332-5.114-5.613-4.933-17.284 0-.09.038-.144.076-.144"/></svg>