<svg xmlns="http://www.w3.org/2000/svg" width="80" height="80" fill="none" viewBox="0 0 80 80"><rect width="80" height="80" fill="#ffcf00" rx="8"/><path fill="#000" fill-rule="evenodd" d="M39.988 20C28.95 20 20 28.954 20 40.001 20 51.036 28.95 60 39.988 60s19.993-8.964 19.993-19.999C59.981 28.954 51.026 20 39.988 20m0 38.4c-10.156 0-18.392-8.248-18.392-18.4 0-10.157 8.236-18.4 18.392-18.4 10.162 0 18.39 8.243 18.39 18.4 0 10.15-8.228 18.399-18.39 18.399" clip-rule="evenodd"/><path fill="#000" fill-rule="evenodd" d="M32.017 39.076c-1.43-.354-2.685 1.315-3.392 2.581.243-1.731 2.365-4.556 3.392-2.58m-3.155.027c.483-1.642 1.624-2.24 2.222-1.767-.81.257-1.426.751-2.222 1.767m3.662 2.636c.734-.625.661-1.536-.48-1.835-.852-.223-2.671 1.3-2.861 2.984.719-.933 2.834-2.644 3.341-1.148m11.466 4.376c.144-2.164-1.957-3.186-2.371-5.391-.394-2.22 3.283-5.76.96-9.393 4.382 3.534.95 5.628 3.164 8.572-.855-.244-1.711-1.03-1.958-1.42-1.241 1.621 3.027 3.855.206 7.632m-7.046-17.435 1.05.766c-1.221 1.127-2.866.675-4.17 1.816.536-1.42 2.921-1.628 3.12-2.582" clip-rule="evenodd"/><path fill="#000" fill-rule="evenodd" d="M40.885 30.276c.504-.557.041-1.357-2.045-1.622 2.173 1.079-1.326 1.294-1.454 3.117-1.13.453-2.048-.291-2.619.223l-.998-.43c-.66.34-.535 1.244.115 1.516l.142.284c-.706.655-1.032 1.239-.291 1.892.4-.743.598-.995 1.054-1.37.42.292 1.161.09 2.156-.995l.086.028c-.796 2.728-2.813 3.165-3.46 3.034.396.59 2.963.952 3.276-.203.741-2.595 3.234-3.707 1.081-3.666.578-.681 2.544-1.336 2.957-1.808M35.45 33.44l-.349-.508c.199.536.734.278.428-.48l1.033-.007zm6.517-4.556c1.04.668 1.533 1.128 2.214 1.927.136-1.099-.496-3.305-1.422-3.813z" clip-rule="evenodd"/><path fill="#000" fill-rule="evenodd" d="M25.322 37.748c.67-1.76 2.316-3.875 4.973-5.462.605-1.578.403-2.657 6.837-5.134.163-.953.136-2.094.397-2.094.278 0 1.234.41 1.902 1.399l.713-.083c.114-.565.49-2.095.998-2.854.463-.736 1.36-.8 2.508.147 1.203.973 2.041 1.391 3.69 3.485 1.38.627 3.55 1.42 5.425 3.701-.81-.515-1.739-.723-2.493-.8 1.533 1.316 2.542 3.541 1.767 6.784-.293-3.034-2.522-4.3-3.882-5.267.74 2.567-2.466 1.677-3.432-.237l.848-.048c-.108-3.896-1.937-6.137-2.758-6.818-1.046-.877-1.61 1.218-1.965 2.797l-1.133.869.298-.848c-1.624.131-3.446 1.085-4.565 1.592-2.842 1.294-3.562 1.92-4.188 4.092-2.25.945-4.848 3.54-5.94 4.78" clip-rule="evenodd"/><path fill="#000" fill-rule="evenodd" d="M39.525 37.218c.299.348 2.18 3.172.006 6.798.599-2.665-1.053-7.73-2.875-5.142 1.23.536 1.638 1.544 1.307 2.519-.505-.932-1.794-1.962-3.067-1.531-.644.21-1.482.216-2.112-.71-.817-1.203.557-2.692-1.794-2.574 2.852-1.447 2.024 1.356 3.39 1.684 1.591.39 1.775-.598 2.324-1.218.449-.55 1.26-.938 2.108-.374.413-1.246-.178-3.201.977-4.251.435-.383 1.795-.328 2.497.222-.995-.014-2.177 1.19-2.761 4.577" clip-rule="evenodd"/><path fill="#000" fill-rule="evenodd" d="M54.035 32.252c1.443 5.042 1.04 9.899-.45 12.793.178-1.816-1.41-4.466-.771-7.556-3.018 2.93 1.705 10.13-5.154 14.847 1.026-1.65 1.488-5.753 1.13-7.235l.963.981c.57-1.879.64-4.564-.434-7.25l1.495.73c.17-4.173-2.877-4.48-3.446-5.62 0 1.217 1.422 2.233 1.68 3.84-1-.488-1.725-.535-2.236-.488.768.565 2.486 3.89 1.978 6.547-.741-.619-1.422-.911-2.17-.959.919 1.377 1.287 5.002.15 6.636l-.592-1.899c-.542 2.032-2.125 2.873-3.207 3.117 1.354-1.391 1.082-3.89-.882-4.557-1.767-.612-4.025.599-4.922 4.807-1.29.376-5.122-.438-2.834-2.914 1.401.48 4.956-1.907 4.715-3.583-.336-2.317-2.451-3.131-4.13-3.11-2.074.02-3.485 1.948-5.179 2.803-1.42-.215-1.903-.41-2.623-2.31-.09-1.154 1.14-1.954 1.12-3.144-1.012.216-1.255-1.322-3.22.272l.108-.968c-.728.655-.863 1.434-.877 1.594.348.689.849 1.314 1.815 1.968 1.155 3.082 2.345 3.43 3.569 3.556.215.291 1.12 1.37 2.27 1.55l-.104-2.636c2.515-2.519 4.372-.98 4.622-.32-2.229.46-.653 5.232-4.35 3.103-.157.494.055 1.711.518 2.421.38 3.27 4.486 2.47 5.763 3.047-.136-3.18 1.624-5.503 3.133-5.301 1.51.174 1.903 2.671-.685 4.988.643.334 3.412-.132 4.816-1.155.137.807-.903 3.2-2.2 4.876a16.04 16.04 0 0 0 10.62-23.471m-27.402 8.904L25.23 39.66l1.075-.744.599.25-.515.439.455.813zm3.603 3.604.904-.675c-.097.82.202 1.92.202 1.92zm5.648.786.786.062-.209-1.19 1.19.411c-.122.94-.706 1.232-2.122 1.913zm-2.855 3.117-.47-1.127 1.124.451z" clip-rule="evenodd"/></svg>