<svg xmlns="http://www.w3.org/2000/svg" width="80" height="80" fill="none" viewBox="0 0 80 80"><rect width="80" height="80" fill="#141ed2" rx="8"/><path fill="#eb2d4b" fill-rule="evenodd" d="M43.488 49.683a1.854 1.854 0 0 1 2.584-.41c.47.34.715.859.761 1.395l.594 7.105a2.4 2.4 0 0 1-.46 1.62 2.455 2.455 0 0 1-3.42.541c-.753-.545-1.062-1.428-.99-2.295l.587-7.062c.033-.313.144-.621.343-.894m-10.65-4.181a2.453 2.453 0 0 1 3.294-1.066c.455.232.794.591 1.035 1.002l4.11 6.951c.269.478.316 1.07.048 1.593a1.67 1.67 0 0 1-2.768.305l-5.385-6.076a2.425 2.425 0 0 1-.334-2.71m-3.063 2.315a1.845 1.845 0 0 1 2.146 2.375c-.18.55-.6.94-1.098 1.15l-6.6 2.75a2.4 2.4 0 0 1-1.69.064 2.44 2.44 0 0 1-1.57-3.077c.29-.882 1.037-1.446 1.888-1.645l3.36-.785.406-.095zm21.293-6.713c.54-.108 1.12.03 1.536.446a1.656 1.656 0 0 1-.562 2.717l-7.46 3.233a2.45 2.45 0 0 1-2.69-.518 2.435 2.435 0 0 1-.001-3.452c.361-.36.808-.571 1.275-.672zm-22.102-3.482a2.44 2.44 0 0 1 2.483-1.153 2.44 2.44 0 0 1 2.034 2.794 2.53 2.53 0 0 1-.637 1.29l-.006.006-.041.047-2.562 2.885-.292.328-2.465 2.775c-.373.403-.923.63-1.506.537a1.66 1.66 0 0 1-1.145-2.529zm20.626-2.012c.469-.34 1.039-.414 1.565-.292l6.966 1.622c.548.124 1.05.447 1.407.934a2.435 2.435 0 0 1-.536 3.41c-.752.546-1.69.567-2.496.233-.016-.007-6.547-2.722-6.563-2.73a1.84 1.84 0 0 1-.343-3.177m-5.359-8.592a1.67 1.67 0 0 1 2.42 1.374l.771 8.071a2.43 2.43 0 0 1-1.328 2.387 2.453 2.453 0 0 1-3.293-1.068 2.5 2.5 0 0 1-.247-1.416l.356-3.687.042-.437.378-3.906a1.68 1.68 0 0 1 .9-1.317zm-21.785-.078c.93 0 1.701.533 2.154 1.277.01.015 3.685 6.042 3.692 6.057.159.272.251.587.251.924a1.85 1.85 0 0 1-1.85 1.845c-.581 0-1.084-.275-1.438-.682l-4.671-5.398a2.38 2.38 0 0 1-.586-1.58 2.445 2.445 0 0 1 2.448-2.443m6.708 1.625c.232-.037.46-.023.673.031l.01.002 7.932 1.756a2.435 2.435 0 0 1 1.869 1.996 2.44 2.44 0 0 1-2.036 2.792c-.505.08-.99-.012-1.428-.203l-3.41-1.476-.606-.262-3.41-1.476c-.5-.23-.887-.68-.979-1.26a1.66 1.66 0 0 1 1.385-1.9m13.709-9.245a2.45 2.45 0 0 1 3.086 1.567c.287.882.016 1.777-.554 2.437l-2.253 2.605-.272.316-2.117 2.448a1.852 1.852 0 0 1-3.137-.662c-.18-.55-.072-1.113.207-1.573l1.668-2.738.215-.354 1.829-3.003a2.4 2.4 0 0 1 1.328-1.043" clip-rule="evenodd"/></svg>