<svg xmlns="http://www.w3.org/2000/svg" width="80" height="80" fill="none" viewBox="0 0 80 80"><rect width="79" height="79" x=".5" y=".5" fill="#fff" rx="7.5"/><rect width="79" height="79" x=".5" y=".5" stroke="#eee" rx="7.5"/><path fill="#023184" fill-rule="evenodd" d="M39.288 20.044c.793-.375 1.542.288 2.205.677 5.765 3.878 11.632 7.582 17.383 11.46 1.556 1.052 1.441 3.617-.159 4.583-6.039 3.978-12.121 7.898-18.16 11.905a1.34 1.34 0 0 1-1.442.03c-5.823-3.806-11.646-7.597-17.455-11.387-.922-.577-2.004-1.298-2.018-2.508-.245-1.269.62-2.436 1.658-3.056 6.01-3.877 11.92-7.913 17.988-11.704m6.673 7.726c.966 1.542 1.99 3.055 2.897 4.64 1.081.073 2.162.059 3.229 0-2.061-1.512-4.209-2.94-6.126-4.64m-18.478 4.655c1.052.03 2.119.087 3.171-.014.995-1.47 1.903-2.998 2.926-4.454-2.018 1.5-4.021 3.027-6.097 4.468m7.466.03h2.912q0-2.22-.015-4.426c-.879 1.528-1.888 2.97-2.897 4.425m6.832-4.282q-.029 2.134 0 4.281h2.811c-.937-1.441-1.874-2.854-2.81-4.28m-14.298 8.158c2.061 1.528 4.108 3.056 6.155 4.584-1.067-1.47-2.033-3.027-2.998-4.57-1.053-.014-2.105 0-3.157-.014m7.452.015c1.009 1.47 2.018 2.955 2.94 4.483a233 233 0 0 1 0-4.483zm6.86-.015a146 146 0 0 0-.014 4.353c.923-1.455 1.889-2.897 2.854-4.338-.951 0-1.888-.029-2.84-.015m7.294 0c-1.139 1.514-2.09 3.128-3.084 4.728 1.916-1.758 4.093-3.185 6.183-4.728q-1.542.015-3.099 0m-29.418 3.661c.072-.879 1.182-1.498 1.946-1.023 1.715.923 3.243 2.119 4.886 3.157 4.425 2.897 8.749 5.953 13.26 8.72.836-.404 1.644-.908 2.422-1.427 5.001-3.344 10.017-6.702 15.033-10.032.606-.404 1.312-.648 2.047-.548q.36.52.735 1.01c0 5.837-.029 11.674 0 17.498-.029 1.412-1.254 2.752-2.695 2.71-11.646.014-23.278.014-34.91 0-1.023.1-1.888-.606-2.407-1.413-.36-.548-.288-1.211-.303-1.83 0-5.608-.014-11.215-.014-16.821m23.177 14.025c-.706.403-1.384.922-2.22 1.052-1.167.216-2.392-.13-3.387-.75a1972 1972 0 0 0-11.704-7.278c-.375-.23-.764-.52-1.24-.404-.057 2.955-.014 5.895-.043 8.836.563.158 1.125.26 1.701.245 9.758-.015 19.53.014 29.289-.058.26-1.629.173-3.286.187-4.93-.014-1.426.087-2.868-.202-4.266-4.223 2.35-8.23 5.074-12.381 7.553" clip-rule="evenodd"/></svg>