<svg xmlns="http://www.w3.org/2000/svg" width="80" height="80" fill="none" viewBox="0 0 80 80"><rect width="80" height="80" fill="#a50064" rx="8"/><path fill="#fff" d="M51.466 22.4c-4.676 0-8.534 3.8-8.534 8.568 0 4.695 3.784 8.569 8.534 8.569 4.675 0 8.534-3.8 8.534-8.569 0-4.694-3.786-8.568-8.534-8.568m0 12.219a3.64 3.64 0 0 1-2.57-1.071 3.66 3.66 0 0 1-1.066-2.58 3.66 3.66 0 0 1 1.066-2.58 3.64 3.64 0 0 1 2.57-1.07 3.64 3.64 0 0 1 2.569 1.07 3.66 3.66 0 0 1 1.067 2.58 3.66 3.66 0 0 1-1.067 2.58 3.63 3.63 0 0 1-2.57 1.071M34.1 22.399a6.47 6.47 0 0 0-3.859 1.267c-1.039-.82-2.375-1.266-3.859-1.266C22.82 22.4 20 25.306 20 28.808v10.729h4.898v-10.73c0-.819.668-1.415 1.41-1.415.816 0 1.41.67 1.41 1.416v10.729h4.898v-10.73c0-.819.668-1.415 1.41-1.415.816 0 1.41.67 1.41 1.416v10.729h4.898V28.883c.148-3.577-2.672-6.483-6.234-6.483m17.366 20.864c-4.676 0-8.534 3.8-8.534 8.568 0 4.695 3.784 8.569 8.534 8.569C56.14 60.4 60 56.6 60 51.83a8.55 8.55 0 0 0-2.486-6.072 8.5 8.5 0 0 0-6.048-2.496m0 12.145a3.63 3.63 0 0 1-2.57-1.071 3.66 3.66 0 0 1-1.066-2.58 3.66 3.66 0 0 1 1.066-2.58 3.64 3.64 0 0 1 2.57-1.07 3.63 3.63 0 0 1 2.569 1.07 3.66 3.66 0 0 1 1.067 2.58c0 2.086-1.632 3.651-3.636 3.651M34.1 43.263a6.47 6.47 0 0 0-3.859 1.266c-1.039-.82-2.375-1.266-3.859-1.266-3.562 0-6.382 2.906-6.382 6.408V60.4h4.898V49.596c0-.82.668-1.416 1.41-1.416.816 0 1.41.671 1.41 1.416v10.73h4.898v-10.73c0-.82.668-1.416 1.41-1.416.816 0 1.41.671 1.41 1.416v10.73h4.898V49.67c.148-3.577-2.672-6.408-6.234-6.408"/></svg>