<svg xmlns="http://www.w3.org/2000/svg" width="80" height="80" fill="none" viewBox="0 0 80 80"><rect width="79" height="79" x=".5" y=".5" fill="#fff" rx="7.5"/><rect width="79" height="79" x=".5" y=".5" stroke="#eee" rx="7.5"/><path fill="#10357f" d="M55.418 20c2.526 0 4.598 2.07 4.598 4.596v30.808c0 2.525-2.072 4.596-4.598 4.596h-30.82C22.072 60 20 57.93 20 55.404V24.596C20 22.071 22.072 20 24.598 20z"/><path fill="#fff" d="M55.418 22.02h-30.82a2.533 2.533 0 0 0-2.526 2.525v30.808a2.533 2.533 0 0 0 2.526 2.526h30.82a2.533 2.533 0 0 0 2.526-2.526V24.545a2.533 2.533 0 0 0-2.526-2.525"/><path fill="#10357f" d="m40.008 22.98.101.201s.404.657 1.415 1.314c1.01.656 2.526 1.313 4.85 1.313.657 0 1.415-.05 2.223-.202h.152l.05.1c.556 1.819 2.223 2.728 3.74 3.183 1.515.454 2.93.454 2.93.454h.303l-.152.253s-.353.505-.707 1.414c-.404.909-.758 2.272-.758 3.94v14.393c0 1.92-.101 4.04-3.082 4.748-3.032.707-9.347 2.222-9.903 2.323-.606.151-1.061.707-1.061.707l-.101.202-.101-.152s-.455-.555-1.061-.707c-.556-.151-6.922-1.666-9.954-2.373-2.98-.708-3.082-2.829-3.082-4.748V34.95c0-1.718-.353-3.031-.707-3.94-.354-.91-.707-1.414-.707-1.414l-.152-.253h.303s1.415 0 2.93-.454c1.567-.455 3.184-1.415 3.74-3.182l.05-.101h.152c.808.151 1.566.202 2.223.202 2.273 0 3.84-.657 4.85-1.313 1.01-.657 1.415-1.314 1.415-1.314z"/><path fill="#fff" d="M52.74 31.01c-.05 0-.1 0-.202-.05a17.5 17.5 0 0 1-2.223-.657c-.91-.354-1.92-1.01-2.476-2.121l-.252-.505v-.152s-.101 0-.152.05c-.1 0-.556.102-.556.102-.404.05-.758.1-1.111.1-2.021 0-3.74-.757-4.699-1.312-.606-.354-.96-.657-.96-.657s-.404.303-.96.657c-1.01.555-2.728 1.313-4.699 1.313-.354 0-.758 0-1.111-.101 0 0-.455-.101-.556-.101a.5.5 0 0 1-.152-.05s-.05.1-.05.15c-.05.152-.253.506-.253.506-.556 1.111-1.566 1.768-2.476 2.121-.96.354-1.819.556-2.273.657-.101 0-.152.05-.202.05h-.152s0 .05.05.101c0 .05.051.152.102.202.1.303.303.808.404 1.414 0 0 .151.96.151 1.869v1.414h7.377c.455-2.222 2.476-3.889 4.85-3.889 2.375 0 4.346 1.667 4.85 3.89h7.378v-1.415c0-.91.151-1.869.151-1.869.101-.656.303-1.11.404-1.414.05-.05.05-.151.101-.202 0-.05.05-.1.05-.1z"/><path fill="#00aeef" d="M35.157 38.08h-7.326v11.566c0 2.02.809 2.323 2.476 2.727 1.213.303 3.638.86 5.305 1.263.809.202 1.566.354 2.173.505.556.152 1.01.253 1.01.253s.101 0 .202.05V41.92c-1.92-.455-3.435-1.92-3.84-3.838"/><path fill="#ed1c24" d="M41.069 41.869v12.525c.151 0 .202-.05.202-.05.05 0 .455-.102 1.01-.253.556-.152 1.314-.303 2.173-.505 1.667-.404 4.042-.96 5.305-1.263 1.667-.404 2.476-.757 2.476-2.727V38.03h-7.377a4.93 4.93 0 0 1-3.79 3.839"/><path fill="#fdb913" d="m43.747 37.879.808-.808-.808-.808-1.263.353a1.87 1.87 0 0 0-.404-.909l1.162-.656v-1.162H42.08l-.657 1.162c-.253-.202-.607-.303-.91-.404l.354-1.263-.859-.859-.808.809.353 1.262c-.353.05-.657.202-.91.404l-.656-1.161h-1.162V35l1.162.657c-.202.252-.303.606-.404.909l-1.263-.354-.86.859.81.808 1.262-.354c.05.354.202.657.404.91l-1.162.656v1.162h1.162l.657-1.162c.253.202.606.303.91.404l-.354 1.313.808.808.809-.808-.303-1.313a1.87 1.87 0 0 0 .91-.404l.656 1.162h1.162V39.09l-1.162-.657c.202-.252.303-.606.404-.909z"/><path fill="#10357f" d="m32.278 42.626.151-.656-.556-.101s-.1-.152-.202-.253h.657s-.101-.1-.101-.151-.101-.05-.202-.05h-.808c.05-.051.05-.304.1-.354 0-.05.102-.202.354-.253.354-.05.657-.1.657-.1s.152-.253.455-.253h.808c.404 0 .505.303.556.707.05.202.151.858.202 1.515h3.234l-.101 1.212-2.274.05v.203l2.173.302-.405 1.112-1.819-.404-.05.151 1.617.859-.708.909-1.111-.808-.101.1.758 1.112-.303.202.656.909.354-.657h.657l.151.808-.303.606-.1-.555h-.203l-.505.808.151.253h.354l-.303.353h-.303l-.455-.606.202-.454-.808-1.162-.556.353 1.162 2.475-.808.505-.86-2.222.354 2.576-.808.505-.808-.505.353-2.576-.808 2.273-.808-.505 1.162-2.475-.556-.354-.809 1.162.203.455-.455.656h-.303l-.303-.353h.353l.152-.253-.506-.758h-.202l-.1.556-.304-.606.152-.808h.657l.353.656.657-.909-.303-.202.758-1.11-.101-.102-1.112.657-.707-.91 1.617-.858-.05-.151-1.82.404-.353-1.111 2.172-.303v-.203l-2.274-.05-.202-1.313h3.285zm18.239 4.545.253-.454-.354-.404-1.768-.253v-.707a10 10 0 0 0 .707.303c.455-.353 1.213-.96 1.213-.96V43.08l-.607.455v.707l-.657.404s-.202-.1-.656-.303l-.506-.505.051-.303h.606c.101 0 .303.152.303.152l.253-.91h-.91c-.151 0-.1-.151-.1-.252.05-.152.05-.303.303-.303h.859s.151-.404.202-.606c.05-.202-.101-.404-.253-.404H48.9c0-.101-.202-.455-.404-.455h-.455l-.252-.202h-2.324l.303.404-1.061 1.01s-.253.606-.253 1.01l.91-.454-.05.252-1.011.758c0 .303.151.606.202.91l.656-.556v.252l-.555.707.303.657.455-.556.05.354-.556 1.161s-.505.152-.758.606c-.909.101-1.212-.858-.707-1.565 1.364-1.97.101-2.829.101-2.829h-.657v.606s.455 0 .506.607c.05.808-.91 1.212-.96 2.323-.101.757.353 1.515 1.465 1.616 0 .1 0 .202.05.353 0 .101.05.203.101.303.101.354.304.91.304.91s-.253.808-.657.96a82 82 0 0 1 1.263 1.666h2.071l-.353-.91-.91-.05-.404-.808.91-1.212h1.01c.303 0 .303.202.303.253-.05.353-.1.606-.1.606h2.172l.707-1.465-.707.05-.404.505h-.607s.05-.201.253-.757c.05-.152-.05-.404-.354-.404h-.758c.152-.202.354-.606.556-.859h1.112l-.05.253z"/><path fill="#fdb913" d="m40.008 30.303 1.212.859-.454-1.415 1.212-.909h-1.515l-.455-1.414-.455 1.415h-1.516l1.213.909-.455 1.414zm-7.124 2.424 1.263.909-.505-1.465 1.212-.858H33.39l-.505-1.465-.455 1.465h-1.516l1.213.858-.455 1.465zm14.197 0-1.212.909.505-1.465-1.263-.858h1.516l.454-1.465.506 1.465h1.515l-1.263.858.505 1.465z"/></svg>