<svg xmlns="http://www.w3.org/2000/svg" width="80" height="80" fill="none" viewBox="0 0 80 80"><g clip-path="url(#a)"><rect width="80" height="80" fill="#fff" rx="8"/><path fill="#003d69" d="M12.058 30.15H23.76c2 .035 4.084.48 5.71 1.72 1.17.844 1.966 2.131 2.34 3.524.422 1.557.433 3.185.258 4.777-.187 1.522-.655 3.079-1.732 4.214-1.205 1.253-2.902 1.897-4.587 2.178-1.474.269-2.972.163-4.458.187h-3.686v9.307h-5.558V30.15zm5.558 4.542v7.574h4.856c1.1.024 2.293-.199 3.136-.971.772-.703.994-1.791 1.018-2.787 0-.924-.129-1.943-.76-2.68-.715-.82-1.861-1.1-2.903-1.148h-5.335zm20.898-.924c1.38-.492 2.855-.656 4.318-.633 1.626-.023 3.276.235 4.797.808.83.316 1.662.703 2.258 1.37.96 1.007 1.24 2.447 1.252 3.793v9.365c.012.855-.035 1.721.164 2.552.105.468.515.761.913.96v.75h-5.628c-.305-.691-.398-1.452-.468-2.201-.948.948-2.036 1.767-3.277 2.27a8.2 8.2 0 0 1-5.546.118c-1.357-.48-2.586-1.452-3.16-2.798-.572-1.382-.596-2.95-.233-4.39.386-1.499 1.51-2.751 2.913-3.395 2.036-.948 4.318-1.042 6.518-1.346.772-.13 1.626-.258 2.223-.808.573-.539.503-1.464.117-2.096-.398-.573-1.135-.76-1.79-.854-1.065-.129-2.212-.176-3.206.304-.855.41-1.229 1.37-1.381 2.248h-4.996c.093-1.358.444-2.751 1.252-3.875.713-1.018 1.79-1.744 2.96-2.166zm1.755 11.308c-.702.316-1.287.972-1.369 1.756-.129.831.047 1.826.772 2.33.89.655 2.095.597 3.125.34 1.064-.305 2.176-.855 2.68-1.897.654-1.276.455-2.751.49-4.144-1.731 1.053-3.884.796-5.698 1.604zm12.439-11.917h5.675c.737 2.364 1.474 4.74 2.211 7.106.655-2.365 1.299-4.742 1.954-7.106h5.406c-2.083 7.62-4.177 15.23-6.237 22.851h-5.406c.55-2.014 1.089-4.039 1.639-6.064-1.744-5.596-3.499-11.192-5.242-16.799z"/><path fill="#003d69" d="M109.769 30H-30v40.513h139.77z"/><path fill="#fff" d="M28.204 43.365c-2.22-1.2-4.865-1.376-7.315-.935a8.87 8.87 0 0 0-5.5 3.474c-1.78 2.38-2.309 5.484-2.132 8.394.14 2.505.97 5.062 2.802 6.843 1.657 1.763 4.125 2.574 6.505 2.557 2.573.07 5.323-.512 7.244-2.346 2.027-1.992 3.032-4.814 3.19-7.618.124-2.099 0-4.268-.863-6.225-.758-1.799-2.239-3.245-3.948-4.162zm-.44 15.236c-.688 1.129-1.922 1.852-3.226 2.046-1.922.353-4.125.053-5.553-1.376-1.392-1.481-1.939-3.527-2.027-5.502-.07-2.275.388-4.673 1.71-6.56.793-1.129 2.115-1.799 3.473-1.975 1.745-.23 3.684.053 5.04 1.234 1.2 1.04 1.763 2.593 1.993 4.127.335 2.716 0 5.59-1.41 7.989zM11.547 42.412c-1.11-.106-2.274-.123-3.297.353-1.533.705-2.732 1.992-3.648 3.368v-3.315H1.165V63.01h3.613V51.3a5.55 5.55 0 0 1 2.15-4.338c1.322-.97 3.05-1.146 4.636-.917-.017-1.2.036-2.416-.035-3.615zm52.809 1.429c-1.639-1.481-4.001-1.64-6.099-1.428-2.062.229-3.93 1.393-5.147 3.05-.546-.917-1.198-1.798-2.15-2.327-1.604-.882-3.543-.953-5.306-.635-1.903.352-3.42 1.675-4.635 3.121v-2.84h-3.526v20.193h3.596V52.324c0-1.217.106-2.434.494-3.598.828-2.575 4.019-3.986 6.522-3.086.722.264 1.357.829 1.586 1.587.352 1.076.352 2.222.352 3.333v12.415h3.65V50.913c.017-1.305.264-2.698 1.11-3.739 1.533-1.799 4.406-2.31 6.451-1.146 1.022.564 1.252 1.834 1.287 2.91.017 4.673 0 9.346 0 14.02h3.719V48.955c-.07-1.852-.494-3.844-1.921-5.132zm25.788 7.44c-.124-2.522-1.023-5.114-2.962-6.807-1.974-1.852-4.882-2.54-7.508-2.01-1.94.335-3.632 1.516-4.848 3.015v-2.592h-3.543v24.125h3.578v-6.243c.723.776 1.463 1.57 2.415 2.063 1.57.847 3.402.935 5.13.758 2.573-.335 4.988-1.904 6.257-4.197 1.357-2.451 1.622-5.36 1.48-8.112m-4.372 5.75c-.687 1.763-2.238 3.244-4.124 3.58-1.78.299-3.808-.089-5.094-1.43-1.27-1.357-1.746-3.262-1.798-5.06-.053-2.17.14-4.445 1.234-6.35a4.86 4.86 0 0 1 3.42-2.38c1.638-.264 3.454-.035 4.758 1.058 1.27 1.076 1.904 2.734 2.15 4.338.283 2.081.195 4.268-.546 6.243"/><path fill="#003d69" d="M19.543 61.914H18.17c0 1.35-.023 2.688.08 4.027-.217-1.384-.755-2.689-1.166-4.028H16.03c-.4 1.34-.949 2.644-1.155 4.028 0-.698.115-1.396.092-2.094-.023-.538.114-1.19-.343-1.59-.606-.515-1.636-.492-2.219.057-.389.355-.423 1.03-.057 1.407.309.355.789.47 1.235.492v2.85c-.011.32.137.675.469.755.366.08.743.023 1.12.034.458-1.293.916-2.597 1.385-3.89.4 1.293.823 2.574 1.2 3.879.447 0 .915.08 1.35-.058.354-.103.423-.514.423-.835v-5.046zm-6.062 1.533a.4.4 0 0 1-.4-.4c0-.218.183-.401.4-.401s.4.183.4.4-.183.4-.4.4m12.707-.308c.457-.068.846-.343 1.132-.698a26 26 0 0 0-1.03-.652c-.24.229-.56.412-.891.263-.812-.309-1.785-.4-2.54.092-.663.389-1.017 1.133-1.12 1.865 1.052.034 2.184-.114 3.18.332.525.229.285.88.33 1.316-.662-.046-1.417.354-1.486 1.064-.08.755.698 1.327 1.407 1.27.652.046 1.384-.355 1.452-1.053.023-.72 0-1.442 0-2.162.023-.412-.16-.836-.537-1.042-.8-.48-1.773-.48-2.676-.572.171-.172.366-.343.629-.377.754-.126 1.406.537 2.173.354zm-.698 3.65c0 .23-.183.4-.4.4a.405.405 0 0 1-.4-.4c0-.217.182-.4.4-.4.217 0 .4.183.4.4m9.515-3.272c0-.606-.457-1.099-.96-1.373-.79-.412-1.727-.412-2.597-.286-1.006.149-1.978.847-2.207 1.888h1.418c.39-.938 1.624-1.213 2.482-.79a1 1 0 0 1 .526.904v2.392c.023.297-.194.595-.503.595-.652.057-1.304.011-1.944.034v-.8c.629.056 1.395-.298 1.51-.985.114-.767-.687-1.362-1.396-1.316-.629-.046-1.384.32-1.452 1.019-.023 1.018 0 2.036 0 3.055h2.95c.55 0 1.133.057 1.636-.206.389-.195.56-.653.56-1.064v-3.078zm-4.037 1.465c0-.23.183-.4.4-.4s.4.182.4.4c0 .217-.182.4-.4.4a.405.405 0 0 1-.4-.4m8.086-1.533a.4.4 0 0 1-.4-.401c0-.217.182-.4.4-.4.217 0 .4.183.4.4s-.183.4-.4.4m10.773 2.987c-.228-.56-.869-.801-1.43-.778v-3.742h-1.372v4.703c0 .377.092.8.412 1.041.595.458 1.498.458 2.082-.011.331-.286.503-.79.308-1.213m-1.292.755a.4.4 0 0 1-.4-.4c0-.218.183-.401.4-.401s.4.183.4.4-.183.401-.4.401m10.693-5.275h-1.372c0 1.35-.023 2.69.08 4.04-.206-1.396-.755-2.69-1.155-4.028h-1.052c-.39 1.338-.961 2.632-1.144 4.027-.011-.698.114-1.395.08-2.094 0-.56.103-1.258-.412-1.636-.64-.457-1.658-.423-2.207.172-.332.366-.343.984 0 1.35.309.366.79.47 1.247.492v2.86c-.012.31.137.664.469.744.365.08.754.023 1.132.035.457-1.293.903-2.598 1.384-3.89.389 1.292.812 2.574 1.19 3.867.445 0 .903.08 1.337-.057.355-.103.435-.515.435-.836v-5.057zm-6.061 1.522a.4.4 0 0 1-.4-.4c0-.218.182-.4.4-.4.217 0 .4.182.4.4 0 .217-.183.4-.4.4m12.466-1.522v4.36c0 .297-.251.572-.56.549-.64.023-1.281 0-1.933 0 .023-.412-.069-.858.091-1.236.332-.389.915-.16 1.361-.217v-1.007c-.491-.057-1.097.16-1.498-.218.503-.034 1.064-.24 1.292-.732.31-.572-.102-1.327-.72-1.464-.595-.115-1.315-.103-1.761.366-.435.48-.252 1.178-.286 1.762-.046.492.457.8.88.88-.377.092-.709.436-.709.836v2.06h3.603c.423 0 .88-.08 1.212-.366.32-.275.378-.721.39-1.122v-4.462h-1.373zm-2.905 1.121c0-.228.183-.4.4-.4s.4.183.4.4-.182.401-.4.401a.405.405 0 0 1-.4-.4M68 58.379a41 41 0 0 0-1.097-.366c-.08.297-.275.583-.584.686-.491.172-1.052.149-1.486.47-.47.308-.63.995-.343 1.475.48.824 1.955.79 2.298-.125.138-.344-.022-.687-.251-.927.64-.126 1.372-.492 1.464-1.213m-2.378 2.197a.344.344 0 0 1-.343-.343c0-.195.148-.344.343-.344.194 0 .343.149.343.343a.337.337 0 0 1-.343.344m-39.127-1.981c-.171.664-.697 1.168-1.292 1.465.148-.366.24-.835 0-1.19-.343-.55-1.132-.63-1.693-.412-.503.183-.823.858-.492 1.316.183.309.515.458.847.503-.206.218-.424.4-.664.561.32.137.63.423.995.366.8-.114 1.602-.343 2.265-.812.629-.424 1.098-1.064 1.247-1.808h-1.236zm-2.413 1.076a.344.344 0 0 1-.343-.343c0-.183.16-.344.343-.344s.343.16.343.344-.16.343-.343.343"/><path fill="#003d69" d="M42.394 61.914v4.21c-.526-.457-1.19-.743-1.853-.914-.023-.801.034-1.602-.023-2.392-.354-1.282-2.63-1.19-2.836.149-.069.8.8 1.293 1.51 1.224v.973c-.79.068-1.705.686-1.567 1.579.16 1.167 1.83 1.487 2.63.778.355-.32.286-.824.286-1.247.732.309 1.361.87 1.704 1.602.423-.012.892.08 1.258-.184.252-.205.263-.549.275-.835v-4.931h-1.373zm-3.283 4.989c-.08.046-.263.103-.4-.034 0-.012-.023-.023-.023-.035-.229-.354.137-.698.492-.766v.56s0 .24-.069.286z"/></g><rect width="79" height="79" x=".5" y=".5" stroke="#8d8d8d" rx="7.5"/><defs><clipPath id="a"><rect width="80" height="80" fill="#fff" rx="8"/></clipPath></defs></svg>