<svg xmlns="http://www.w3.org/2000/svg" width="80" height="80" fill="none" viewBox="0 0 80 80"><rect width="79" height="79" x=".5" y=".5" fill="#fff" rx="7.5"/><rect width="79" height="79" x=".5" y=".5" stroke="#eee" rx="7.5"/><g fill="#010101" clip-path="url(#a)"><path d="M65.706 42.334v-5.333h-8.889v-1.779h8.889v-3.556H51.484v8.889h8.889v1.779h-8.89v3.556h14.223zM49.707 31.666H46.15v14.222h3.556zm-19.555 0v3.556h10.666v1.779H30.15v8.889h3.555v-5.28l5.335 5.28h5.333l-5.565-5.335h5.565v-8.889zm-10.668 8.89h3.546v-3.547h-3.547zm.89-2.666h1.777v1.777h-1.777z"/><path d="M17.706 31.666h-3.111a.45.45 0 0 0-.445.446v13.332a.445.445 0 0 0 .445.444h8.445v-3.546h-5.334zm10.222 0h-8.445v3.556h5.336v5.333h3.546v-8.443a.45.45 0 0 0-.125-.315.46.46 0 0 0-.312-.131m.446 10.668h-3.556v8h3.556z"/><path d="M19.112 29.667h-6.668a.446.446 0 0 0-.444.444v6.668h.889v-5.787a.447.447 0 0 1 .444-.437h5.786zm47.999 11.555v5.786a.446.446 0 0 1-.444.445H60.88v.88h6.668A.446.446 0 0 0 68 47.89v-6.667z"/></g><defs><clipPath id="a"><path fill="#fff" d="M12 29.667h56v20.666H12z"/></clipPath></defs></svg>