<svg xmlns="http://www.w3.org/2000/svg" width="80" height="80" fill="none" viewBox="0 0 80 80"><rect width="80" height="80" fill="#0982e0" rx="8"/><path fill="#fff" d="M16 30.042Q24.61 25.022 33.217 20c5.735 3.468 11.482 6.915 17.216 10.384-.005 2.285-.001 4.57-.002 6.855q-.753.003-1.507 0c.003-1.95-.002-3.901.003-5.853-5.234-3.185-10.476-6.357-15.709-9.543-5.238 3.014-10.48 6.023-15.716 9.042.011 6.081-.005 12.162.008 18.243 5.241 3.057 10.47 6.134 15.708 9.197 5.232-3.073 10.471-6.135 15.705-9.205.004-.335 0-.67.002-1.004h1.506c.002.611-.004 1.222.002 1.833-5.733 3.416-11.481 6.806-17.216 10.218Q24.61 55.061 16 49.96q-.002-9.96 0-19.918"/><path fill="#fff" d="M38.587 37.999c.951-.377 2.011-.416 3.012-.24.986.168 1.888.69 2.59 1.393-.367.406-.718.826-1.08 1.238-.584-.554-1.296-1.018-2.105-1.143-.841-.15-1.75.047-2.427.576-.603.46-1.017 1.145-1.186 1.88-.207.894-.099 1.868.345 2.675.351.638.92 1.164 1.606 1.422.69.263 1.466.257 2.166.04.642-.203 1.185-.627 1.669-1.084.36.365.73.722 1.075 1.102-.668.7-1.49 1.289-2.442 1.517a5.7 5.7 0 0 1-2.697.008 4.7 4.7 0 0 1-2.772-1.986c-1.096-1.66-1.081-3.972.03-5.62a4.7 4.7 0 0 1 2.216-1.778m19.116.296a4.93 4.93 0 0 1 2.432-.634c.696-.013 1.4.083 2.053.334a5 5 0 0 1 1.739 1.157q-.54.617-1.075 1.238c-.438-.411-.936-.772-1.502-.984-.803-.297-1.728-.282-2.503.092a3.13 3.13 0 0 0-1.486 1.537 3.8 3.8 0 0 0-.095 2.88c.28.765.848 1.433 1.588 1.785.657.324 1.427.372 2.135.212.754-.16 1.379-.643 1.934-1.152q.536.545 1.077 1.086c-.629.67-1.4 1.234-2.293 1.487-.717.21-1.476.242-2.215.17-1.43-.161-2.764-1.006-3.5-2.246-.948-1.559-.962-3.633-.047-5.21a4.7 4.7 0 0 1 1.758-1.752m-29.598 1.056q.002 1.602-.001 3.204 1.262.002 2.523 0c.476-.002.968-.121 1.347-.42.688-.53.739-1.675.134-2.285-.392-.375-.954-.49-1.48-.497-.84-.004-1.682 0-2.523-.002m-1.675-1.526c1.452.002 2.904-.002 4.355.002.917.003 1.881.245 2.571.878.606.548.893 1.384.87 2.19.005.75-.259 1.514-.798 2.046-.406.404-.931.67-1.48.82.861 1.2 1.716 2.406 2.574 3.61-.634.007-1.27.002-1.904.004-.075.018-.107-.062-.146-.106q-1.133-1.613-2.27-3.222c-.699.004-1.398.001-2.097.002q.002 1.663-.001 3.327-.837-.003-1.674 0-.002-4.776 0-9.551m20.909 5.439c-.006.875-.001 1.75-.003 2.626q1.455.002 2.909 0c.454-.018.939-.103 1.3-.4.569-.454.552-1.472-.071-1.874-.535-.352-1.205-.35-1.823-.352zm-.003-3.955c-.001.846.002 1.693 0 2.539h2.319c.285.003.57-.04.844-.118.345-.108.68-.33.822-.675.182-.435.13-1-.229-1.331-.34-.32-.829-.399-1.278-.416zm-1.656-1.483c1.486.001 2.97-.004 4.456.002.836.017 1.728.24 2.334.849.43.419.643 1.029.627 1.624.005.554-.181 1.12-.57 1.523-.219.244-.498.42-.777.588.555.2 1.118.477 1.474.966.403.538.47 1.256.358 1.901a2.3 2.3 0 0 1-1.09 1.54c-.72.43-1.578.563-2.406.556-1.468.002-2.936-.002-4.404.002-.003-3.184 0-6.367-.002-9.551"/></svg>