<svg xmlns="http://www.w3.org/2000/svg" width="80" height="80" fill="none" viewBox="0 0 80 80"><rect width="80" height="80" fill="#81cde5" rx="8"/><path fill="#005fa9" d="M19.275 33.535c-.667 0-1.335.667-1.468 1.534l-.534 3.802c-.133.867.334 1.534 1.001 1.534.668 0 1.335-.667 1.468-1.534l.534-3.802c.134-.8-.333-1.534-1-1.534M12 48.876l1.802-12.673c.4-2.802 3.337-5.27 6.541-5.27s4.74 2.202 4.406 4.403l-.267 1.867c-.2 1.535-1.335 3.069-3.404 4.136l2.069 3.535c.267.4.333 1 .267 1.6-.2 1.335-1.202 2.469-2.337 2.469-.6 0-1.068-.334-1.335-.8l-3.07-5.27-.534 3.669c-.2 1.334-1.201 2.4-2.27 2.4H12zm14.818-15.141c.2-1.534 1.401-2.801 2.67-2.801s2.069 1.267 1.869 2.801l-.868 6.403h2.47l.934-6.403c.2-1.534 1.401-2.801 2.67-2.801s2.069 1.267 1.869 2.801l-1.736 12.273c-.2 1.534-1.401 2.801-2.67 2.801s-2.069-1.267-1.869-2.801l.534-4.002h-2.536l-.534 4.002c-.2 1.534-1.402 2.801-2.67 2.801h-2.27zm18.956-.2c-.801 0-1.536.8-1.67 1.8l-.266 1.735c-.2 1 .4 1.8 1.201 1.8s1.535-.8 1.669-1.8l.267-1.734c.133-.934-.467-1.801-1.201-1.801m-1.002 6.536c-.8 0-1.535.8-1.668 1.801l-.334 2.535c-.134 1 .4 1.8 1.135 1.8.8 0 1.535-.8 1.668-1.8l.334-2.535c.2-1-.334-1.8-1.135-1.8m6.141-4.002q-.3 1.8-2.002 3.402c.8.8 1.134 1.934.934 3.002l-.133 1.067c-.4 2.801-3.338 5.27-6.542 5.27h-5.005l1.868-12.74c.4-2.802 3.338-5.27 6.542-5.27s4.738 2.2 4.405 4.402z"/><path fill="#e63137" d="m68 39.871-8.21 8.205-8.21-8.205 8.21-8.137z"/></svg>