<svg xmlns="http://www.w3.org/2000/svg" width="80" height="80" fill="none" viewBox="0 0 80 80"><rect width="79" height="79" x=".5" y=".5" fill="#fff" rx="7.5"/><rect width="79" height="79" x=".5" y=".5" stroke="#eee" rx="7.5"/><path fill="#a0cf67" d="M34.208 23.15a16 16 0 0 1 8.662-3.12c3.883-.24 7.805 1 10.904 3.338a5 5 0 0 1-.15.221c-2.093 2.538-4.181 5.083-6.274 7.622-.168.209-.333.419-.522.608-1.184 1.371-2.308 2.795-3.469 4.186q-5.004 6.084-10.013 12.167a16.65 16.65 0 0 1-4.519-6.605c-1.283-3.442-1.357-7.328-.17-10.808a15.8 15.8 0 0 1 5.551-7.608"/><path fill="#1ab7ea" d="M43.36 36.005c1.16-1.39 2.284-2.815 3.468-4.186 2.26 2.025 3.975 4.66 4.848 7.57.983 3.25.925 6.817-.206 10.021a15.76 15.76 0 0 1-5.407 7.378A16 16 0 0 1 36.383 60c-3.58.012-7.142-1.206-9.983-3.382 2.31-2.82 4.63-5.632 6.946-8.446q5.009-6.082 10.013-12.167"/></svg>