<svg xmlns="http://www.w3.org/2000/svg" width="80" height="80" fill="none" viewBox="0 0 80 80"><rect width="79" height="79" x=".5" y=".5" fill="#fff" rx="7.5"/><rect width="79" height="79" x=".5" y=".5" stroke="#eee" rx="7.5"/><path fill="#0050f0" d="M12 26h5.852c.033 1.844.011 3.689.011 5.533 1.778.026 3.556.004 5.333.011 0 1.863.004 3.726 0 5.59-1.655-.004-3.307.003-4.959-.004a1.2 1.2 0 0 0-.381.07c.03 1.918 0 3.837.014 5.756.052 1.451.66 2.888 1.723 3.888a5.35 5.35 0 0 0 4.222 1.523c2.555-.197 4.755-2.426 4.955-4.978.012-.208-.033-.419.03-.622a11.3 11.3 0 0 0 2.793 7.4c-1.69 1.918-4.041 3.255-6.574 3.648a11.14 11.14 0 0 1-7.567-1.437 11.23 11.23 0 0 1-4.582-5.293c-.563-1.307-.833-2.737-.87-4.155z"/><path fill="#f58a1f" d="M28.804 26h5.87c.019 1.848 0 3.696.008 5.544q2.648-.003 5.292 0c.004 1.863 0 3.726 0 5.59-1.76-.004-3.518.007-5.274-.008-.044 1.87-.007 3.737-.019 5.607-.048 1.719.782 3.426 2.13 4.486.96.762 2.182 1.196 3.407 1.166 1.475 0 2.904-.689 3.893-1.763a5.58 5.58 0 0 0 1.5-3.803 11.24 11.24 0 0 0 2.73 7.274l.048.088c-1.76 1.982-4.222 3.338-6.86 3.675-3.655.551-7.51-.908-9.936-3.69a11.3 11.3 0 0 1-2.793-7.4c0-5.588-.011-11.177.004-16.766"/><path fill="#002d63" fill-rule="evenodd" d="M45.611 26.03c1.967.007 3.933-.019 5.9.014 0 2.274-.015 4.552.008 6.83 2.692-1.46 6-1.726 8.896-.733A11.23 11.23 0 0 1 68 42.544v.793c-.144 2.096-.822 4.163-2.048 5.878a11.23 11.23 0 0 1-5.348 4.089c-2.467.892-5.256.885-7.711-.049-1.76-.64-3.319-1.763-4.552-3.163a11.24 11.24 0 0 1-2.73-7.274c.004-5.596 0-11.192 0-16.788M55.7 37.248c-1.982.389-3.685 1.919-4.26 3.856a5.76 5.76 0 0 0 .171 3.803c.637 1.541 1.985 2.782 3.593 3.245 1.414.418 3.007.274 4.296-.456a5.67 5.67 0 0 0 2.685-3.31c.267-.875.27-1.816.13-2.712-.322-1.66-1.43-3.152-2.945-3.911a5.6 5.6 0 0 0-3.67-.515" clip-rule="evenodd"/></svg>