<svg xmlns="http://www.w3.org/2000/svg" width="80" height="80" fill="none" viewBox="0 0 80 80"><rect width="80" height="80" fill="#ff8000" rx="8"/><path fill="#fff" fill-rule="evenodd" d="M47.722 41.054c-1.645-.217-2.361-.305-2.361-.305v-5.974l3.08.766c1.64.33 2.473 1.546 2.473 3.003s-1.271 2.764-3.192 2.51m6.6 2.47s1.898-1.925 1.898-5.552c0-3.028-2-6.383-5.523-7.645l-11.581-4.192-.038 20.5s.004 2.97-3.242 3.598c-2.173.42-4.291-1.587-4.291-4.082.002 0 .012-16.157.003-22.779L22.4 20.046v26.99c0 9.64 8.573 13.718 13.84 12.788 6.285-1.11 9.12-6.065 9.12-11.428v-1.904l4.436.154c1.467 0 2.558 1.306 2.558 2.674 0 1.213-.83 2.519-2.54 2.67l-2.437.19c-.39 1.637-1.237 3.896-3.139 6.154l7.142-1.288c2.876-.532 6.22-3.079 6.22-7.287 0-1.793-.594-4.418-3.279-6.235" clip-rule="evenodd"/></svg>