<svg xmlns="http://www.w3.org/2000/svg" width="80" height="80" fill="none" viewBox="0 0 80 80"><rect width="79" height="79" x=".5" y=".5" fill="#fff" rx="7.5"/><rect width="79" height="79" x=".5" y=".5" stroke="#eee" rx="7.5"/><path fill="url(#a)" fill-rule="evenodd" d="M34.426 20.86c-2.808.587-3.813 1.844-3.73 3.688.126 2.556 2.975 7.458 4.316 9.637 2.346 3.812 5.154 7.248 8.254 10.432 2.514 2.472 4.106 3.017 6.788-.628 2.304-3.017 4.4-6.033 6.243-9.762a39 39 0 0 0 2.178-5.447c.713-2.347.461-4.442-1.843-5.992 2.22 1.09 3.184 3.059 3.352 5.28.125 2.136-.503 4.44-1.006 6.159-1.215 4.231-2.765 8.547-4.734 12.36-1.467 2.89-3.352 6.41-5.238 9.008-4.148 5.74-8.17 3.896-12.863 0-2.974-2.472-5.823-5.573-8.295-8.966-2.472-3.436-5.196-8.506-6.83-12.402-2.22-5.363-.503-8.087 2.22-9.805 3.06-2.01 7.542-3.058 11.188-3.561" clip-rule="evenodd"/><path fill="url(#b)" fill-rule="evenodd" d="M34.342 33.053c4.357-.628 15.628-1.34 19.566.713 1.341.67 1.341 1.592 1.216 2.681.377-.712.796-1.466 1.173-2.22a39 39 0 0 0 2.178-5.447c.713-2.347.461-4.442-1.843-5.992-.838-.46-1.844-.754-2.724-1.047-2.597-.755-5.488-1.048-8.421-1.257-1.215-.084-2.472-.084-3.73-.084-2.303 0-4.817.168-7.331.503-2.808.586-3.813 1.843-3.73 3.687.126 2.137 2.18 5.991 3.646 8.463" clip-rule="evenodd"/><defs><linearGradient id="a" x1="55.105" x2="23.262" y1="45.275" y2="22.979" gradientUnits="userSpaceOnUse"><stop stop-color="#006840"/><stop offset=".4" stop-color="#007a48"/><stop offset="1" stop-color="#86c440"/></linearGradient><linearGradient id="b" x1="35.133" x2="53.975" y1="20.656" y2="33.85" gradientUnits="userSpaceOnUse"><stop stop-color="#006840"/><stop offset=".3" stop-color="#007a48"/><stop offset="1" stop-color="#86c440"/></linearGradient></defs></svg>